<svg width="48" height="48" viewBox="0 0 48 48" fill="none" xmlns="http://www.w3.org/2000/svg">
<path d="M3 48H9C9.26522 48 9.51957 47.8946 9.70711 47.7071C9.89464 47.5195 10 47.2652 10 47V26H38V47C38 47.2652 38.1054 47.5195 38.2929 47.7071C38.4804 47.8946 38.7348 48 39 48H45C45.2652 48 45.5196 47.8946 45.7071 47.7071C45.8946 47.5195 46 47.2652 46 47V15C45.9991 14.8353 45.9576 14.6733 45.8791 14.5285C45.8006 14.3837 45.6876 14.2605 45.55 14.17L24.55 0.169962C24.3867 0.0624347 24.1955 0.00512695 24 0.00512695C23.8045 0.00512695 23.6133 0.0624347 23.45 0.169962L2.45 14.17C2.31244 14.2605 2.19938 14.3837 2.12088 14.5285C2.04238 14.6733 2.00085 14.8353 2 15V47C2 47.2652 2.10536 47.5195 2.29289 47.7071C2.48043 47.8946 2.73478 48 3 48ZM38 24H10V23H38V24ZM38 21H10V20H38V21ZM4 15.54L24 2.19996L44 15.54V46H40V19C40 18.7347 39.8946 18.4804 39.7071 18.2929C39.5196 18.1053 39.2652 18 39 18H9C8.73478 18 8.48043 18.1053 8.29289 18.2929C8.10536 18.4804 8 18.7347 8 19V46H4V15.54Z" fill="#2D5883"/>
<path d="M28.5 28H19.5C19.2348 28 18.9804 28.1054 18.7929 28.2929C18.6054 28.4804 18.5 28.7348 18.5 29V37H15C14.7348 37 14.4804 37.1054 14.2929 37.2929C14.1054 37.4804 14 37.7348 14 38V47C14 47.2652 14.1054 47.5196 14.2929 47.7071C14.4804 47.8946 14.7348 48 15 48H33C33.2652 48 33.5196 47.8946 33.7071 47.7071C33.8946 47.5196 34 47.2652 34 47V38C34 37.7348 33.8946 37.4804 33.7071 37.2929C33.5196 37.1054 33.2652 37 33 37H29.5V29C29.5 28.7348 29.3946 28.4804 29.2071 28.2929C29.0196 28.1054 28.7652 28 28.5 28ZM23 46H16V39H23V46ZM20.5 37V30H27.5V37H20.5ZM32 39V46H25V39H32Z" fill="#2D5883"/>
</svg>
