<svg width="50" height="50" viewBox="0 0 50 50" fill="none" xmlns="http://www.w3.org/2000/svg">
<path d="M25.1707 31.5404C21.5808 31.5404 18.6602 28.5992 18.6602 24.9845C18.6602 21.3694 21.5808 18.4282 25.1707 18.4282C28.7607 18.4282 31.6813 21.3694 31.6813 24.9845C31.6813 28.5992 28.7607 31.5404 25.1707 31.5404ZM25.1707 19.9766C22.4343 19.9766 20.2085 22.2229 20.2085 24.9845C20.2085 27.7456 22.4343 29.992 25.1707 29.992C27.9071 29.992 30.1329 27.7456 30.1329 24.9845C30.1329 22.2233 27.9071 19.9766 25.1707 19.9766Z" fill="#2D5883" stroke="#2D5883" stroke-width="0.2"/>
<path d="M27.1224 41.3777H23.2181C22.7904 41.3777 22.4436 41.0312 22.4436 40.6035V37.7901C20.9079 37.4583 19.4292 36.8409 18.1065 35.9788L16.1362 37.9639C15.8385 38.2639 15.3345 38.2639 15.0365 37.9639L12.2761 35.1826C11.9765 34.8806 11.9765 34.3941 12.2761 34.0921L14.253 32.1005C13.3944 30.7654 12.7793 29.2728 12.4503 27.7228H9.66472C9.23698 27.7228 8.89014 27.3764 8.89014 26.9486V23.015C8.89014 22.5876 9.23698 22.2408 9.66472 22.2408H12.4503C12.7797 20.6908 13.3944 19.1982 14.253 17.8631L12.2761 15.8715C11.9765 15.5696 11.9765 15.083 12.2761 14.781L15.0365 11.9997C15.3272 11.7067 15.8451 11.7067 16.1362 11.9997L18.1065 13.9848C19.4292 13.1227 20.9079 12.5053 22.4436 12.1736V9.36013C22.4436 8.93278 22.7904 8.58594 23.2181 8.58594H27.1224C27.5501 8.58594 27.897 8.93239 27.897 9.36013V12.1736C29.4326 12.5053 30.9113 13.1227 32.234 13.9848L34.2043 11.9997C34.495 11.7067 35.013 11.7067 35.3041 11.9997L38.0645 14.781C38.3641 15.083 38.3641 15.5696 38.0645 15.8715L36.0876 17.8631C36.9461 19.1982 37.5612 20.6908 37.8903 22.2408H40.6758C41.1036 22.2408 41.4504 22.5872 41.4504 23.015V26.9483C41.4504 27.3756 41.1036 27.7225 40.6758 27.7225H37.8903C37.5608 29.2724 36.9461 30.765 36.0876 32.1001L38.0645 34.0917C38.3641 34.3937 38.3641 34.8803 38.0645 35.1822L35.3041 37.9635C35.0134 38.2565 34.4954 38.2565 34.2043 37.9635L32.234 35.9785C30.9113 36.8405 29.4326 37.4579 27.897 37.7897V40.6031C27.8966 41.0308 27.5501 41.3777 27.1224 41.3777ZM23.9927 39.8293H26.3482V37.1486C26.3482 36.7689 26.6238 36.4449 26.9989 36.3845C28.7455 36.1023 30.4309 35.3982 31.8717 34.3488C32.1806 34.1243 32.6079 34.1576 32.8774 34.4289L34.7536 36.3195L36.4232 34.6372L34.5384 32.7381C34.2721 32.4698 34.2384 32.0486 34.459 31.7417C35.5019 30.2885 36.201 28.5888 36.4816 26.8267C36.5412 26.4508 36.8656 26.1745 37.2465 26.1745H39.9012V23.7892H37.2465C36.8656 23.7892 36.5416 23.5124 36.4816 23.1369C36.2014 21.3748 35.5019 19.6755 34.459 18.2219C34.2388 17.915 34.2721 17.4938 34.5384 17.2256L36.4232 15.3265L34.7536 13.6441L32.8774 15.5347C32.6079 15.8068 32.1806 15.8405 31.8717 15.6148C30.4305 14.565 28.7455 13.8613 26.9989 13.5791C26.6238 13.5183 26.3482 13.1947 26.3482 12.815V10.1343H23.9927V12.815C23.9927 13.1947 23.7171 13.5187 23.342 13.5791C21.5954 13.8613 19.91 14.5654 18.4692 15.6148C18.1603 15.8401 17.7334 15.8065 17.4636 15.5347L15.5873 13.6441L13.9177 15.3265L15.8025 17.2256C16.0688 17.4938 16.1025 17.915 15.8819 18.2219C14.839 19.6755 14.1396 21.3748 13.8593 23.1369C13.7997 23.5128 13.4753 23.7892 13.0944 23.7892H10.4397V26.1745H13.0944C13.4753 26.1745 13.7993 26.4512 13.8593 26.8267C14.1399 28.5892 14.839 30.2885 15.8819 31.7417C16.1021 32.0486 16.0688 32.4698 15.8025 32.7381L13.9177 34.6372L15.5873 36.3195L17.4636 34.4289C17.7334 34.1576 18.1607 34.1235 18.4692 34.3488C19.9104 35.3986 21.5954 36.1023 23.342 36.3845C23.7171 36.4453 23.9927 36.7689 23.9927 37.1486V39.8293Z" fill="#2D5883" stroke="#2D5883" stroke-width="0.2"/>
<path d="M46.0588 9.22348C46.0503 8.23058 44.5019 8.23639 44.51 9.23587L44.5185 10.2826C39.8683 4.65613 32.4221 1 25.2787 1C17.8898 1 11.0521 4.36271 6.51957 10.2265C5.91028 11.0154 7.13389 11.9626 7.74512 11.1733C11.9823 5.692 18.3729 2.54839 25.2787 2.54839C32.2317 2.54839 39.4936 6.2471 43.8086 11.8739H41.6664C40.6692 11.8739 40.6673 13.4223 41.6664 13.4223H45.3117C45.7344 13.4223 46.0898 13.0646 46.0863 12.6419L46.0588 9.22348Z" fill="#2D5883" stroke="#2D5883" stroke-width="0.2"/>
<path d="M49 24.7879C49 21.8476 48.4712 18.9768 47.4284 16.2559C47.0719 15.325 45.6249 15.877 45.9822 16.8099C46.9569 19.3535 47.4512 22.0376 47.4512 24.7879C47.4512 33.433 41.5283 41.7327 33.0903 45.2998L33.6876 44.3708C34.2268 43.5323 32.925 42.6943 32.3847 43.5339L30.5378 46.4069C30.2858 46.7987 30.4472 47.3414 30.8723 47.5314L33.9837 48.9265C34.8954 49.3353 35.5275 47.9216 34.6174 47.514L33.263 46.9067C42.4863 43.2048 49 34.1898 49 24.7879Z" fill="#2D5883" stroke="#2D5883" stroke-width="0.2"/>
<path d="M26.1966 47.0089C25.8923 47.0213 25.5861 47.0275 25.2788 47.0275C13.0527 47.0275 3.10627 37.0508 3.10627 24.788C3.10627 22.6164 4.00278 19.904 4.85711 17.6139L5.53801 19.1456C5.94291 20.0553 7.3593 19.4298 6.95324 18.5166L5.50937 15.2693C5.33246 14.8709 4.84008 14.696 4.45027 14.8938L1.41117 16.441C0.522785 16.8935 1.22343 18.2724 2.11414 17.8206L3.36446 17.1842C2.47801 19.5691 1.55711 22.4007 1.55711 24.788C1.55711 37.9047 12.1984 48.5758 25.2784 48.5758C25.607 48.5758 25.9341 48.5693 26.2593 48.5561C27.2553 48.5151 27.1961 46.9706 26.1966 47.0089C26.6294 46.9922 25.8919 47.0216 26.1966 47.0089Z" fill="#2D5883"/>
<path d="M26.1966 47.0089C25.8923 47.0213 25.5861 47.0275 25.2788 47.0275C13.0527 47.0275 3.10627 37.0508 3.10627 24.788C3.10627 22.6164 4.00278 19.904 4.85711 17.6139L5.53801 19.1456C5.94291 20.0553 7.3593 19.4298 6.95324 18.5166L5.50937 15.2693C5.33246 14.8709 4.84008 14.696 4.45027 14.8938L1.41117 16.441C0.522785 16.8935 1.22343 18.2724 2.11414 17.8206L3.36446 17.1842C2.47801 19.5691 1.55711 22.4007 1.55711 24.788C1.55711 37.9047 12.1984 48.5758 25.2784 48.5758C25.607 48.5758 25.9341 48.5693 26.2593 48.5561C27.2553 48.5151 27.1961 46.9706 26.1966 47.0089ZM26.1966 47.0089C25.8919 47.0216 26.6294 46.9922 26.1966 47.0089Z" stroke="#2D5883" stroke-width="0.2"/>
</svg>
