<svg width="48" height="48" viewBox="0 0 48 48" fill="none" xmlns="http://www.w3.org/2000/svg">
<path d="M43.615 8.57227V9.06213C43.615 11.9552 41.2694 14.3009 38.3763 14.3009H9.62353C6.73047 14.3009 4.38477 11.9553 4.38477 9.06213V8.57227" stroke="#2D5883" stroke-width="1.87867" stroke-miterlimit="10" stroke-linecap="round" stroke-linejoin="round"/>
<path d="M28.2796 3.47485H47.0608V3.64882C47.0608 6.54206 44.7154 8.88758 41.822 8.88758H6.17822C3.28488 8.88758 0.939453 6.54206 0.939453 3.64882V3.47485H19.7242" stroke="#2D5883" stroke-width="1.87867" stroke-miterlimit="10" stroke-linecap="round" stroke-linejoin="round"/>
<path d="M23.9998 44.5251C15.6535 44.5251 8.8877 37.7592 8.8877 29.413V14.3008H39.112V29.4129C39.1119 37.7592 32.346 44.5251 23.9998 44.5251Z" stroke="#2D5883" stroke-width="1.87867" stroke-miterlimit="10" stroke-linecap="round" stroke-linejoin="round"/>
<path d="M24.0001 38.5235C28.9528 38.5235 32.9679 34.5085 32.9679 29.5557C32.9679 24.6029 28.9528 20.5879 24.0001 20.5879C19.0473 20.5879 15.0322 24.6029 15.0322 29.5557C15.0322 34.5085 19.0473 38.5235 24.0001 38.5235Z" stroke="#2D5883" stroke-width="1.87867" stroke-miterlimit="10" stroke-linecap="round" stroke-linejoin="round"/>
<path d="M24 32.1598C25.4382 32.1598 26.604 30.994 26.604 29.5558C26.604 28.1176 25.4382 26.9518 24 26.9518C22.5619 26.9518 21.396 28.1176 21.396 29.5558C21.396 30.994 22.5619 32.1598 24 32.1598Z" stroke="#2D5883" stroke-width="1.87867" stroke-miterlimit="10" stroke-linecap="round" stroke-linejoin="round"/>
<path d="M14.9006 29.413H9.3335" stroke="#2D5883" stroke-width="1.87867" stroke-miterlimit="10" stroke-linecap="round" stroke-linejoin="round"/>
<path d="M38.8067 29.413H33.2397" stroke="#2D5883" stroke-width="1.87867" stroke-miterlimit="10" stroke-linecap="round" stroke-linejoin="round"/>
</svg>
