<svg width="37" height="37" viewBox="0 0 37 37" fill="none" xmlns="http://www.w3.org/2000/svg">
<g clip-path="url(#clip0_124_5610)">
<path d="M18.5 0C8.29906 0 0 8.29906 0 18.5C0 28.7009 8.29906 37 18.5 37C28.7009 37 37 28.7009 37 18.5C37 8.29906 28.7009 0 18.5 0ZM18.5 35.2656C9.25542 35.2656 1.73438 27.7446 1.73438 18.5C1.73438 9.25542 9.25542 1.73438 18.5 1.73438C27.7446 1.73438 35.2656 9.25542 35.2656 18.5C35.2656 27.7446 27.7446 35.2656 18.5 35.2656ZM27.1944 10.876H9.80551C8.64246 10.876 7.69622 11.8222 7.69622 12.9853V24.0148C7.69622 25.1778 8.64239 26.1241 9.80551 26.1241H27.1944C28.3575 26.1241 29.3037 25.1778 29.3037 24.0148V12.9853C29.3037 11.8222 28.3575 10.876 27.1944 10.876ZM25.8872 12.6104L18.5 18.4767L11.1127 12.6104H25.8872ZM27.1944 24.3896H9.80551C9.59883 24.3896 9.43059 24.2215 9.43059 24.0147V13.4892L17.9607 20.2631C18.1186 20.3884 18.3093 20.4512 18.4999 20.4512C18.6906 20.4512 18.8813 20.3885 19.0392 20.2631L27.5693 13.4892V24.0147C27.5693 24.2215 27.4011 24.3896 27.1944 24.3896Z" fill="#2CB6BF"/>
</g>
<defs>
<clipPath id="clip0_124_5610">
<rect width="37" height="37" fill="white"/>
</clipPath>
</defs>
</svg>
