<svg width="30" height="37" viewBox="0 0 30 37" fill="none" xmlns="http://www.w3.org/2000/svg">
<path d="M14.8001 0C10.8749 0 7.11042 1.55928 4.33489 4.33481C1.55936 7.11034 8.03146e-05 10.8748 8.03146e-05 14.8C-0.0120999 18.483 1.36151 22.0359 3.84807 24.753L14.0971 36.6762C14.1839 36.7777 14.2917 36.8593 14.4131 36.9152C14.5344 36.9711 14.6664 37 14.8001 37C14.9337 37 15.0657 36.9711 15.1871 36.9152C15.3084 36.8593 15.4162 36.7777 15.5031 36.6762L25.752 24.753C28.2386 22.0359 29.6122 18.483 29.6 14.8C29.6 10.8748 28.0407 7.11034 25.2652 4.33481C22.4897 1.55928 18.7253 0 14.8001 0ZM24.346 23.5505L14.8001 34.6597L5.25407 23.5597C3.55569 21.707 2.43315 19.4001 2.02336 16.9203C1.61357 14.4406 1.93425 11.8952 2.94627 9.59455C3.9583 7.29392 5.61794 5.33751 7.72277 3.96393C9.82761 2.59035 12.2867 1.85895 14.8001 1.85895C17.3134 1.85895 19.7725 2.59035 21.8773 3.96393C23.9822 5.33751 25.6418 7.29392 26.6538 9.59455C27.6659 11.8952 27.9865 14.4406 27.5767 16.9203C27.167 19.4001 26.0444 21.707 24.346 23.5597V23.5505Z" fill="#2CB6BF"/>
<path d="M14.7999 8.32495C13.5193 8.32495 12.2674 8.7047 11.2026 9.41618C10.1378 10.1277 9.30791 11.1389 8.81783 12.3221C8.32776 13.5052 8.19953 14.8071 8.44937 16.0631C8.69921 17.3192 9.31589 18.4729 10.2214 19.3784C11.127 20.284 12.2807 20.9007 13.5367 21.1505C14.7928 21.4004 16.0947 21.2721 17.2778 20.782C18.461 20.292 19.4722 19.4621 20.1837 18.3973C20.8952 17.3324 21.2749 16.0806 21.2749 14.7999C21.2749 13.0827 20.5927 11.4357 19.3785 10.2214C18.1642 9.00714 16.5172 8.32495 14.7999 8.32495ZM14.7999 19.4249C13.8852 19.4249 12.991 19.1537 12.2304 18.6455C11.4699 18.1373 10.8771 17.415 10.527 16.5698C10.177 15.7247 10.0854 14.7948 10.2638 13.8976C10.4423 13.0005 10.8828 12.1764 11.5296 11.5296C12.1764 10.8828 13.0005 10.4423 13.8977 10.2638C14.7948 10.0854 15.7247 10.1769 16.5699 10.527C17.415 10.8771 18.1373 11.4699 18.6455 12.2304C19.1537 12.991 19.4249 13.8852 19.4249 14.7999C19.4249 16.0266 18.9377 17.2029 18.0703 18.0703C17.203 18.9377 16.0266 19.4249 14.7999 19.4249Z" fill="#2CB6BF"/>
</svg>
