<svg width="39" height="39" viewBox="0 0 39 39" fill="none" xmlns="http://www.w3.org/2000/svg">
<path d="M27.7403 22.4009C26.8351 22.2819 25.9422 22.0599 25.0887 21.7417C24.1416 21.3878 23.0649 21.6159 22.3428 22.3282L21.4196 23.2488C19.347 21.9877 17.6038 20.2482 16.339 18.1799L17.2634 17.2574C17.975 16.5383 18.205 15.4629 17.8493 14.5182C17.5299 13.6641 17.3072 12.7736 17.1876 11.8647C17.0057 10.5796 15.8957 9.60158 14.5927 9.63178H11.6162C11.5385 9.63178 11.4608 9.63547 11.3843 9.64291C10.6925 9.70456 10.0665 10.0326 9.62129 10.5648C9.17607 11.0982 8.9652 11.7722 9.02865 12.4727C9.36287 15.6146 10.4494 18.6769 12.1675 21.3242C13.7288 23.7766 15.8526 25.8967 18.3057 27.4525C20.9493 29.1631 24.003 30.2479 27.1492 30.5889C27.2294 30.5963 27.3096 30.5994 27.3922 30.5994C28.0871 30.5969 28.739 30.3243 29.2286 29.8304C29.7182 29.3383 29.9858 28.6846 29.9834 27.9934V25.0298C30.0121 23.7144 29.0513 22.5854 27.7403 22.4009ZM28.751 25.0242V27.9971C28.7523 28.361 28.6116 28.7038 28.3545 28.9628C28.0974 29.2218 27.7545 29.3649 27.3913 29.3661C27.3469 29.3661 27.3025 29.3642 27.2704 29.3618C24.3277 29.0429 21.4603 28.0242 18.972 26.4142C16.6664 24.952 14.6733 22.9627 13.2057 20.6583C11.5894 18.1682 10.5695 15.2934 10.2562 12.3531C10.2229 11.9905 10.3339 11.6365 10.5676 11.3572C10.8019 11.0773 11.1312 10.9052 11.4963 10.8726C11.5364 10.8689 11.5764 10.8664 11.6165 10.8664H14.5993C14.603 10.8664 14.608 10.8664 14.6122 10.8664C15.2906 10.8664 15.8715 11.3684 15.9671 12.0344C16.0984 13.0297 16.3432 14.0114 16.6959 14.9536C16.8821 15.45 16.7619 16.0143 16.3907 16.3886L15.1308 17.6466C14.9335 17.8427 14.8928 18.1467 15.0303 18.3884C16.4973 20.963 18.6359 23.0973 21.2148 24.5606C21.4559 24.6969 21.7586 24.6568 21.9548 24.4607L23.2127 23.2058C23.5913 22.8327 24.1569 22.7107 24.6576 22.8994C25.5992 23.2502 26.5828 23.4944 27.575 23.6252C28.2626 23.722 28.7682 24.317 28.751 25.0096C28.751 25.0137 28.751 25.0193 28.751 25.0242Z" fill="#2CB6BF" stroke="#2CB6BF" stroke-width="0.3"/>
<path d="M19.5002 1C9.29946 1 1.00044 9.29901 1.00044 19.4997C1.00044 23.0276 1.99574 26.4476 3.88207 29.4131L1.03802 37.1707C0.956002 37.3927 1.00904 37.6424 1.17431 37.812C1.29268 37.9342 1.45304 37.9995 1.61708 37.9995C1.68248 37.9995 1.74846 37.989 1.81198 37.9681L9.85879 35.2862C12.7608 37.0616 16.0876 37.9996 19.5003 37.9996C29.701 37.9996 38 29.7005 38 19.4998C38 9.29909 29.7009 1 19.5002 1ZM19.5008 36.7661C16.2239 36.7661 13.0314 35.8399 10.2694 34.088C10.1695 34.0252 10.0548 33.9924 9.93886 33.9924C9.87288 33.9924 9.80748 34.0029 9.74396 34.0245L2.63695 36.3931L5.14677 29.5482C5.21398 29.3644 5.19056 29.1597 5.08267 28.9963C3.21911 26.1739 2.23436 22.8902 2.23436 19.4998C2.23436 9.97924 9.98019 2.23341 19.5008 2.23341C29.0213 2.23341 36.7672 9.97924 36.7672 19.4998C36.7672 29.0204 29.0213 36.7661 19.5008 36.7661Z" fill="#2CB6BF" stroke="#2CB6BF" stroke-width="0.3"/>
</svg>
