<svg width="107" height="89" viewBox="0 0 107 89" fill="none" xmlns="http://www.w3.org/2000/svg">
<path d="M0.382263 72.4551V81.2029H18.1557L22.1691 88.9999L55.2315 83.6751L47.2048 75.1175L33.0625 74.9273V72.4551H0.764482H0.382263Z" fill="#203132"/>
<path d="M79.5029 0V1.3312V5.51495H66.125L57.5249 13.312H47.9693L35.3559 3.61325H2.29339H0.382263V18.8269H59.0538L67.845 10.8397H79.1206V16.3547H95.1741V0H79.5029ZM90.7785 11.6004H84.2807V5.51495H90.7785V11.6004Z" fill="#3B4A95"/>
<path d="M71.6671 24.5322V29.6668H57.7159V24.7223L37.8402 25.1027V20.7288L0.19104 21.1091V35.1817H71.0938L71.476 41.2672H87.5295V24.7223L71.6671 24.5322ZM83.1339 35.9424H76.6361V29.857H83.1339V35.9424Z" fill="#97C9D3"/>
<path d="M90.5873 48.3038V53.8188H80.8406L74.725 45.6415H58.8627V40.5068L27.7113 41.0774V37.4641H0.955563H0V55.9107L42.0448 55.15V50.9662H71.285L77.0184 59.1436L90.5873 58.3829V63.5175H106.45V48.1137H90.5873V48.3038ZM102.054 58.7632H95.5563V52.6778H102.054V58.7632Z" fill="#548F90"/>
<path d="M72.6228 70.9339V75.3078H67.4627L57.3338 64.0877H52.5559L54.8493 58.7629L0 59.1433L0.382219 70.3634H54.6582L64.9783 81.2031L72.6228 80.8228V85.9574H87.9118V70.7437L72.6228 70.9339ZM82.7517 81.3933H76.2539V75.3078H82.7517V81.3933Z" fill="#365A59"/>
</svg>
