<svg width="56" height="56" viewBox="0 0 56 56" fill="none" xmlns="http://www.w3.org/2000/svg">
<path d="M17.903 30.3758L19.3455 30.6303C19.5152 31.1394 19.7697 31.6485 20.0242 32.1576L19.1758 33.3455C18.9212 33.6848 19.0061 34.1091 19.2606 34.4485L21.4667 36.6545C21.7212 36.9091 22.2303 36.9939 22.5697 36.7394L23.7576 35.8909C24.2667 36.1455 24.7758 36.4 25.2848 36.5697L25.5394 38.0121C25.6242 38.4364 25.9636 38.6909 26.3879 38.6909H29.5273C29.9515 38.6909 30.2909 38.4364 30.3758 38.0121L30.6303 36.5697C31.1394 36.4 31.6485 36.1455 32.1576 35.8909L33.3455 36.7394C33.6848 36.9939 34.1091 36.9091 34.4485 36.6545L36.6545 34.4485C36.9091 34.1939 36.9939 33.6848 36.7394 33.3455L35.8909 32.1576C36.1455 31.6485 36.4 31.1394 36.5697 30.6303L38.0121 30.3758C38.4364 30.2909 38.6909 29.9515 38.6909 29.5273V26.3879C38.6909 25.9636 38.4364 25.6242 38.0121 25.5394L36.5697 25.2848C36.4 24.7758 36.1455 24.2667 35.8909 23.7576L36.7394 22.5697C36.9939 22.2303 36.9091 21.8061 36.6545 21.4667L34.4485 19.2606C34.1939 19.0061 33.6848 18.9212 33.3455 19.1758L32.1576 20.0242C31.6485 19.7697 31.1394 19.5152 30.6303 19.3455L30.3758 17.903C30.2909 17.4788 29.9515 17.2242 29.5273 17.2242H26.3879C25.9636 17.2242 25.6242 17.4788 25.5394 17.903L25.2848 19.3455C24.7758 19.5152 24.2667 19.7697 23.7576 20.0242L22.5697 19.1758C22.2303 18.9212 21.8061 19.0061 21.4667 19.2606L19.2606 21.4667C19.0061 21.7212 18.9212 22.2303 19.1758 22.5697L20.0242 23.7576C19.7697 24.2667 19.5152 24.7758 19.3455 25.2848L17.903 25.5394C17.4788 25.6242 17.2242 25.9636 17.2242 26.3879V29.5273C17.2242 29.9515 17.4788 30.3758 17.903 30.3758ZM18.9212 27.1515L20.1939 26.897C20.5333 26.8121 20.7879 26.5576 20.8727 26.2182C21.0424 25.4545 21.3818 24.7758 21.7212 24.097C21.8909 23.8424 21.8909 23.4182 21.7212 23.1636L20.9576 22.0606L22.1455 20.8727L23.2485 21.6364C23.503 21.8061 23.9273 21.8061 24.1818 21.6364C24.8606 21.2121 25.5394 20.9576 26.303 20.7879C26.6424 20.703 26.897 20.4485 26.9818 20.1091L27.2364 18.8364H28.9333L29.1879 20.1091C29.2727 20.4485 29.5273 20.703 29.8667 20.7879C30.6303 20.9576 31.3091 21.297 31.9879 21.6364C32.2424 21.8061 32.6667 21.8061 32.9212 21.6364L34.0242 20.8727L35.2121 22.0606L34.4485 23.1636C34.2788 23.4182 34.2788 23.8424 34.4485 24.097C34.8727 24.7758 35.1273 25.4545 35.297 26.2182C35.3818 26.5576 35.6364 26.8121 35.9758 26.897L37.2485 27.1515V28.8485L35.9758 29.103C35.6364 29.1879 35.3818 29.4424 35.297 29.7818C35.1273 30.5455 34.7879 31.2242 34.4485 31.903C34.2788 32.1576 34.2788 32.5818 34.4485 32.8364L35.2121 33.9394L34.0242 35.1273L32.9212 34.3636C32.6667 34.1939 32.2424 34.1939 31.9879 34.3636C31.3091 34.7879 30.6303 35.0424 29.8667 35.2121C29.5273 35.297 29.2727 35.5515 29.1879 35.8909L28.8485 37.0788H27.1515L26.897 35.8061C26.8121 35.4667 26.5576 35.2121 26.2182 35.1273C25.4545 34.9576 24.7758 34.6182 24.097 34.2788C23.8424 34.1091 23.4182 34.1091 23.1636 34.2788L22.0606 35.0424L20.8727 33.8545L21.6364 32.7515C21.8061 32.497 21.8061 32.0727 21.6364 31.8182C21.2121 31.1394 20.9576 30.4606 20.7879 29.697C20.703 29.3576 20.4485 29.103 20.1091 29.0182L18.9212 28.8485V27.1515Z" fill="#2D5883"/>
<path d="M28 33.5152C31.0545 33.5152 33.5151 31.0546 33.5151 28C33.5151 24.9455 31.0545 22.4849 28 22.4849C24.9454 22.4849 22.4848 24.9455 22.4848 28C22.4848 31.0546 24.9454 33.5152 28 33.5152ZM28 24.1818C30.1212 24.1818 31.8182 25.8788 31.8182 28C31.8182 30.1212 30.1212 31.8182 28 31.8182C25.8788 31.8182 24.1818 30.1212 24.1818 28C24.1818 25.8788 25.8788 24.1818 28 24.1818Z" fill="#2D5883"/>
<path d="M7.04242 37.8424C6.78787 37.8424 6.61818 37.9273 6.44848 38.097L5.0909 39.6242C4.66666 39.4545 4.32727 39.3697 3.81818 39.3697C2.12121 39.3697 0.84848 40.7273 0.84848 42.3394C0.84848 43.9515 2.12121 45.3091 3.81818 45.3091C5.51515 45.3091 6.78787 44.0364 6.78787 42.3394C6.78787 41.8303 6.61818 41.3212 6.36363 40.8121L7.46666 39.5394H9.33333V46.3273C9.33333 46.8364 9.67272 47.1757 10.1818 47.1757H17.1394V49.0424C15.9515 49.3818 15.0182 50.4848 15.0182 51.8424C15.0182 53.4545 16.2909 54.8121 17.9879 54.8121C19.6 54.8121 20.9576 53.5394 20.9576 51.8424C20.9576 50.4848 20.1091 49.3818 18.8364 49.0424V46.3273C18.8364 45.8182 18.497 45.4788 17.9879 45.4788H11.0303V39.5394H13.0667V41.5757C13.0667 41.8303 13.1515 42 13.3212 42.1697C13.4909 42.3394 13.6606 42.4242 13.9151 42.4242H27.1515V47.4303C25.9636 47.7697 25.0303 48.8727 25.0303 50.2303C25.0303 51.8424 26.303 53.2 28 53.2C29.6121 53.2 30.9697 51.9273 30.9697 50.2303C30.9697 48.8727 30.1212 47.7697 28.8485 47.4303V42.4242H42.0848C42.5939 42.4242 42.9333 42.0848 42.9333 41.5757V39.6242H44.9697V45.5636H38.0121C37.503 45.5636 37.1636 45.903 37.1636 46.4121V49.1273C35.9758 49.4667 35.0424 50.5697 35.0424 51.9273C35.0424 53.5394 36.3151 54.897 38.0121 54.897C39.7091 54.897 40.9818 53.6242 40.9818 51.9273C40.9818 50.5697 40.1333 49.4667 38.8606 49.1273V47.2606H45.8182C46.3273 47.2606 46.6667 46.9212 46.6667 46.4121V39.6242H48.6182L49.7212 40.897C49.4667 41.3212 49.297 41.8303 49.297 42.4242C49.297 44.0364 50.5697 45.3939 52.2667 45.3939C53.8788 45.3939 55.2364 44.1212 55.2364 42.4242C55.2364 40.8121 53.9636 39.4545 52.2667 39.4545C51.8424 39.4545 51.4182 39.5394 50.9939 39.7091L49.5515 38.1818C49.3818 38.0121 49.1273 37.9273 48.9576 37.9273H42.9333V28.9333H46.1576C46.497 30.1212 47.6 31.0545 48.9576 31.0545C50.5697 31.0545 51.9273 29.7818 51.9273 28.0848C51.9273 26.3879 50.6545 25.1151 48.9576 25.1151C47.6 25.1151 46.497 25.9636 46.1576 27.2364H42.9333V18.2424H48.9576C49.2121 18.2424 49.3818 18.1576 49.5515 17.9879L50.9091 16.4606C51.3333 16.6303 51.6727 16.7151 52.1818 16.7151C53.7939 16.7151 55.1515 15.4424 55.1515 13.7454C55.1515 12.0485 53.8788 10.7757 52.1818 10.7757C50.5697 10.7757 49.2121 12.0485 49.2121 13.7454C49.2121 14.2545 49.3818 14.7636 49.6364 15.2727L48.5333 16.5454H46.6667V9.75756C46.6667 9.24847 46.3273 8.90908 45.8182 8.90908H38.8606V6.95756C40.0485 6.61817 40.9818 5.51514 40.9818 4.15756C40.9818 2.54544 39.7091 1.18787 38.0121 1.18787C36.3151 1.18787 35.0424 2.54544 35.0424 4.15756C35.0424 5.51514 35.8909 6.61817 37.1636 6.95756V9.67272C37.1636 10.1818 37.503 10.5212 38.0121 10.5212H44.9697V16.4606H42.9333V14.4242C42.9333 13.9151 42.5939 13.5757 42.0848 13.5757H28.8485V8.99393C30.0364 8.65453 30.9697 7.5515 30.9697 6.19393C30.9697 4.58181 29.697 3.22423 28 3.22423C26.3879 3.22423 25.0303 4.49696 25.0303 6.19393C25.0303 7.5515 25.8788 8.65453 27.1515 8.99393V13.5757H13.9151C13.4061 13.5757 13.0667 13.9151 13.0667 14.4242V16.3757H11.0303V10.4364H17.9879C18.497 10.4364 18.8364 10.097 18.8364 9.58787V6.95756C20.0242 6.61817 20.9576 5.51514 20.9576 4.15756C20.9576 2.54544 19.6848 1.18787 17.9879 1.18787C16.3758 1.18787 15.0182 2.46059 15.0182 4.15756C15.0182 5.51514 15.8667 6.61817 17.1394 6.95756V8.82423H10.1818C9.67272 8.82423 9.33333 9.16362 9.33333 9.67272V16.4606H7.38181L6.27878 15.1879C6.53333 14.7636 6.70303 14.2545 6.70303 13.6606C6.70303 12.0485 5.4303 10.6909 3.73333 10.6909C2.03636 10.6909 0.84848 12.0485 0.84848 13.6606C0.84848 15.2727 2.12121 16.6303 3.81818 16.6303C4.24242 16.6303 4.66666 16.5454 5.0909 16.3757L6.44848 17.8182C6.61818 17.9879 6.87272 18.0727 7.04242 18.0727H13.0667V27.0667H9.41818C9.07878 25.8788 7.97575 24.9454 6.61818 24.9454C5.00606 24.9454 3.64848 26.2182 3.64848 27.9151C3.64848 29.6121 4.92121 30.8848 6.61818 30.8848C7.97575 30.8848 9.07878 30.0364 9.41818 28.7636H13.0667V37.7576H7.04242V37.8424ZM3.81818 43.5273C3.13939 43.5273 2.54545 42.9333 2.54545 42.2545C2.54545 41.5757 3.13939 40.9818 3.81818 40.9818C4.49697 40.9818 5.0909 41.5757 5.0909 42.2545C5.00606 43.0182 4.49697 43.5273 3.81818 43.5273ZM19.2606 51.8424C19.2606 52.5212 18.6667 53.1151 17.9879 53.1151C17.3091 53.1151 16.7151 52.5212 16.7151 51.8424C16.7151 51.1636 17.2242 50.6545 17.903 50.5697C18.6667 50.6545 19.2606 51.1636 19.2606 51.8424ZM29.2727 50.2303C29.2727 50.9091 28.6788 51.503 28 51.503C27.3212 51.503 26.7273 50.9091 26.7273 50.2303C26.7273 49.5515 27.2364 49.0424 27.9151 48.9576C28.6788 48.9576 29.2727 49.5515 29.2727 50.2303ZM39.2 51.8424C39.2 52.5212 38.6061 53.1151 37.9273 53.1151C37.2485 53.1151 36.6545 52.5212 36.6545 51.8424C36.6545 51.1636 37.1636 50.6545 37.8424 50.5697C38.6909 50.6545 39.2 51.1636 39.2 51.8424ZM53.4545 42.3394C53.4545 43.0182 52.8606 43.6121 52.1818 43.6121C51.503 43.6121 50.9091 43.0182 50.9091 42.3394C50.9091 41.6606 51.503 41.0667 52.1818 41.0667C52.8606 41.0667 53.4545 41.6606 53.4545 42.3394ZM48.9576 26.7273C49.6364 26.7273 50.2303 27.3212 50.2303 28C50.2303 28.6788 49.6364 29.2727 48.9576 29.2727C48.2788 29.2727 47.6848 28.6788 47.6848 28C47.6848 27.3212 48.2788 26.7273 48.9576 26.7273ZM52.1818 12.4727C52.8606 12.4727 53.4545 13.0667 53.4545 13.7454C53.4545 14.4242 52.8606 15.0182 52.1818 15.0182C51.503 15.0182 50.9091 14.4242 50.9091 13.7454C50.9939 12.9818 51.503 12.4727 52.1818 12.4727ZM36.7394 4.15756C36.7394 3.47878 37.3333 2.88484 38.0121 2.88484C38.6909 2.88484 39.2848 3.47878 39.2848 4.15756C39.2848 4.83635 38.6909 5.43029 38.0121 5.43029C37.3333 5.43029 36.7394 4.83635 36.7394 4.15756ZM26.8121 6.27878C26.8121 5.59999 27.4061 5.00605 28.0848 5.00605C28.7636 5.00605 29.3576 5.59999 29.3576 6.27878C29.3576 6.95756 28.8485 7.46665 28.1697 7.5515C27.3212 7.46665 26.8121 6.87272 26.8121 6.27878ZM16.8 4.15756C16.8 3.47878 17.3939 2.88484 18.0727 2.88484C18.7515 2.88484 19.3454 3.47878 19.3454 4.15756C19.3454 4.83635 18.7515 5.43029 18.0727 5.43029C17.3091 5.43029 16.8 4.83635 16.8 4.15756ZM2.54545 13.6606C2.54545 12.9818 3.13939 12.3879 3.81818 12.3879C4.49697 12.3879 5.0909 12.9818 5.0909 13.6606C5.0909 14.3394 4.49697 14.9333 3.81818 14.9333C3.13939 14.9333 2.54545 14.3394 2.54545 13.6606ZM6.61818 29.2727C5.93939 29.2727 5.34545 28.6788 5.34545 28C5.34545 27.3212 5.93939 26.7273 6.61818 26.7273C7.29697 26.7273 7.80606 27.2364 7.8909 27.9151C7.80606 28.6788 7.29697 29.2727 6.61818 29.2727ZM41.2364 15.2727V40.7273H14.7636C14.7636 31.6485 14.7636 24.4364 14.7636 15.2727H41.2364Z" fill="#2D5883"/>
</svg>
