<svg width="56" height="56" viewBox="0 0 56 56" fill="none" xmlns="http://www.w3.org/2000/svg">
<g clip-path="url(#clip0_76_1532)">
<path d="M44.8 22.4C50.976 22.4 56 17.376 56 11.2C56 5.02396 50.976 0 44.8 0C40.3152 0 36.4483 2.65553 34.6614 6.47181L31.6622 5.36484C31.6978 5.13516 31.7333 4.90547 31.7333 4.66667C31.7333 2.09362 29.6397 0 27.0667 0C24.4936 0 22.4 2.09362 22.4 4.66667C22.4 7.23971 24.4936 9.33333 27.0667 9.33333C28.7383 9.33333 30.1962 8.44193 31.0201 7.11758L34.0143 8.22272C33.7513 9.17292 33.6 10.1678 33.6 11.2C33.6 12.4227 33.8033 13.5967 34.1674 14.6991L23.9025 19.0495C22.0231 15.4962 18.2925 13.0667 14 13.0667C12.6091 13.0667 11.282 13.3337 10.052 13.7986L7.47031 8.37311C8.59505 7.51999 9.33333 6.18333 9.33333 4.66667C9.33333 2.09362 7.23971 0 4.66667 0C2.09362 0 0 2.09362 0 4.66667C0 7.23971 2.09362 9.33333 4.66667 9.33333C5.05495 9.33333 5.42728 9.27181 5.78867 9.18112L8.36719 14.6011C5.04355 16.5462 2.8 20.1451 2.8 24.2667C2.8 28.1381 4.77513 31.5551 7.76927 33.5672L6.06211 36.6361C5.61777 36.4962 5.15566 36.4 4.66667 36.4C2.09362 36.4 0 38.4936 0 41.0667C0 43.6397 2.09362 45.7333 4.66667 45.7333C7.23971 45.7333 9.33333 43.6397 9.33333 41.0667C9.33333 39.6535 8.68848 38.4002 7.69362 37.5443L9.40443 34.4691C10.8081 35.1044 12.3612 35.4667 14 35.4667C16.5612 35.4667 18.9169 34.593 20.8059 33.1406L24.4795 37.182C22.6165 39.1831 21.4667 41.8564 21.4667 44.8C21.4667 45.371 21.5236 45.9275 21.6057 46.4753L17.2835 47.5011C16.5398 45.9106 14.9352 44.8 13.0667 44.8C10.4936 44.8 8.4 46.8936 8.4 49.4667C8.4 52.0397 10.4936 54.1333 13.0667 54.1333C15.6397 54.1333 17.7333 52.0397 17.7333 49.4667C17.7333 49.4152 17.7192 49.3669 17.7183 49.3154L22.0322 48.2927C23.5033 52.762 27.7106 56 32.6667 56C38.8427 56 43.8667 50.976 43.8667 44.8C43.8667 42.885 43.3822 41.0817 42.5309 39.5044L48.0133 35.9397C48.861 36.7983 50.035 37.3333 51.3333 37.3333C53.9064 37.3333 56 35.2397 56 32.6667C56 30.0936 53.9064 28 51.3333 28C48.7603 28 46.6667 30.0936 46.6667 32.6667C46.6667 33.2696 46.7906 33.8424 46.9998 34.372L41.5046 37.9445C40.4049 36.5308 38.9771 35.3892 37.3333 34.6313L41.8888 22.0026C42.8185 22.2533 43.7919 22.4 44.8 22.4ZM27.0667 7.46667C25.5231 7.46667 24.2667 6.21022 24.2667 4.66667C24.2667 3.12311 25.5231 1.86667 27.0667 1.86667C28.6102 1.86667 29.8667 3.12311 29.8667 4.66667C29.8667 6.21022 28.6102 7.46667 27.0667 7.46667ZM1.86667 4.66667C1.86667 3.12311 3.12311 1.86667 4.66667 1.86667C6.21022 1.86667 7.46667 3.12311 7.46667 4.66667C7.46667 6.21022 6.21022 7.46667 4.66667 7.46667C3.12311 7.46667 1.86667 6.21022 1.86667 4.66667ZM4.66667 43.8667C3.12311 43.8667 1.86667 42.6102 1.86667 41.0667C1.86667 39.5231 3.12311 38.2667 4.66667 38.2667C6.21022 38.2667 7.46667 39.5231 7.46667 41.0667C7.46667 42.6102 6.21022 43.8667 4.66667 43.8667ZM13.0667 52.2667C11.5231 52.2667 10.2667 51.0102 10.2667 49.4667C10.2667 47.9231 11.5231 46.6667 13.0667 46.6667C14.6102 46.6667 15.8667 47.9231 15.8667 49.4667C15.8667 51.0102 14.6102 52.2667 13.0667 52.2667ZM51.3333 29.8667C52.8769 29.8667 54.1333 31.1231 54.1333 32.6667C54.1333 34.2102 52.8769 35.4667 51.3333 35.4667C49.7898 35.4667 48.5333 34.2102 48.5333 32.6667C48.5333 31.1231 49.7898 29.8667 51.3333 29.8667ZM39.3035 18.7264C39.72 16.5676 41.6231 14.9333 43.8667 14.9333H45.7333C47.9769 14.9333 49.88 16.5676 50.2966 18.7264C48.7525 19.8566 46.8563 20.5333 44.8 20.5333C42.7438 20.5333 40.8475 19.8566 39.3035 18.7264ZM44.8 13.0667C43.2564 13.0667 42 11.8102 42 10.2667C42 8.72311 43.2564 7.46667 44.8 7.46667C46.3436 7.46667 47.6 8.72311 47.6 10.2667C47.6 11.8102 46.3436 13.0667 44.8 13.0667ZM44.8 1.86667C49.9465 1.86667 54.1333 6.05345 54.1333 11.2C54.1333 13.5333 53.2661 15.6652 51.8447 17.3031C51.1907 15.5809 49.8271 14.2064 48.1282 13.5279C48.9544 12.6857 49.4667 11.5359 49.4667 10.2667C49.4667 7.69362 47.373 5.6 44.8 5.6C42.227 5.6 40.1333 7.69362 40.1333 10.2667C40.1333 11.5359 40.6456 12.6857 41.4718 13.5279C39.7729 14.2064 38.4093 15.5809 37.7553 17.3031C36.3339 15.6652 35.4667 13.5333 35.4667 11.2C35.4667 6.05345 39.6535 1.86667 44.8 1.86667ZM4.66667 24.2667C4.66667 19.1201 8.85345 14.9333 14 14.9333C19.1465 14.9333 23.3333 19.1201 23.3333 24.2667C23.3333 26.6073 22.4606 28.7447 21.0319 30.3848C20.3802 28.6562 19.0139 27.2749 17.3104 26.5945C18.1357 25.7523 18.648 24.6025 18.648 23.3333C18.648 20.7603 16.5544 18.6667 13.9813 18.6667C11.4083 18.6667 9.31465 20.7603 9.31465 23.3333C9.31465 24.6025 9.82689 25.7523 10.6531 26.5945C8.95918 27.2699 7.59746 28.6394 6.94121 30.3548C5.52799 28.7187 4.66667 26.5936 4.66667 24.2667ZM11.1813 23.3333C11.1813 21.7898 12.4378 20.5333 13.9813 20.5333C15.5249 20.5333 16.7813 21.7898 16.7813 23.3333C16.7813 24.8769 15.5249 26.1333 13.9813 26.1333C12.4378 26.1333 11.1813 24.8769 11.1813 23.3333ZM8.48796 31.7807C8.90859 29.6279 10.809 28 13.048 28H14.9146C17.1623 28 19.0691 29.6397 19.4797 31.8053C17.9389 32.9287 16.0485 33.6 14 33.6C11.9365 33.6 10.0342 32.9187 8.48796 31.7807ZM27.1546 52.3141C27.5753 50.1612 29.4757 48.5333 31.7146 48.5333H33.5813C35.829 48.5333 37.7357 50.173 38.1464 52.3387C36.6055 53.462 34.7152 54.1333 32.6667 54.1333C30.6031 54.1333 28.7009 53.452 27.1546 52.3141ZM32.648 46.6667C31.1044 46.6667 29.848 45.4102 29.848 43.8667C29.848 42.3231 31.1044 41.0667 32.648 41.0667C34.1915 41.0667 35.448 42.3231 35.448 43.8667C35.448 45.4102 34.1915 46.6667 32.648 46.6667ZM42 44.8C42 47.1406 41.1273 49.278 39.6986 50.9182C39.0469 49.1896 37.6806 47.8083 35.9771 47.1279C36.8024 46.2857 37.3146 45.1359 37.3146 43.8667C37.3146 41.2936 35.221 39.2 32.648 39.2C30.0749 39.2 27.9813 41.2936 27.9813 43.8667C27.9813 45.1359 28.4936 46.2857 29.3198 47.1279C27.6258 47.8033 26.2641 49.1727 25.6079 50.8881C24.1947 49.252 23.3333 47.127 23.3333 44.8C23.3333 39.6535 27.5201 35.4667 32.6667 35.4667C37.8132 35.4667 42 39.6535 42 44.8ZM35.5779 33.9974C34.6482 33.7467 33.6747 33.6 32.6667 33.6C30.1055 33.6 27.7498 34.4736 25.8608 35.926L22.1872 31.8846C24.0502 29.8835 25.2 27.2102 25.2 24.2667C25.2 23.0439 24.9967 21.87 24.6326 20.7676L34.8975 16.4172C36.0473 18.591 37.8925 20.3355 40.1342 21.3687L35.5779 33.9974Z" fill="#2D5883"/>
</g>
<defs>
<clipPath id="clip0_76_1532">
<rect width="56" height="56" fill="white"/>
</clipPath>
</defs>
</svg>
