<svg width="56" height="56" viewBox="0 0 56 56" fill="none" xmlns="http://www.w3.org/2000/svg">
<path d="M19.25 17.5H29.75V19.25H19.25V17.5Z" fill="#2D5883"/>
<path d="M31.5 17.5H33.25V19.25H31.5V17.5Z" fill="#2D5883"/>
<path d="M35 17.5H36.75V19.25H35V17.5Z" fill="#2D5883"/>
<path d="M19.25 24.5H29.75V26.25H19.25V24.5Z" fill="#2D5883"/>
<path d="M31.5 24.5H33.25V26.25H31.5V24.5Z" fill="#2D5883"/>
<path d="M35 24.5H36.75V26.25H35V24.5Z" fill="#2D5883"/>
<path d="M19.25 31.5H29.75V33.25H19.25V31.5Z" fill="#2D5883"/>
<path d="M31.5 31.5H33.25V33.25H31.5V31.5Z" fill="#2D5883"/>
<path d="M35 31.5H36.75V33.25H35V31.5Z" fill="#2D5883"/>
<path d="M50.75 37.625C49.9743 37.626 49.2208 37.8842 48.6075 38.3592C47.9942 38.8342 47.5558 39.4992 47.3608 40.25H37.625V36.75C38.3209 36.7492 38.9881 36.4724 39.4803 35.9803C39.9724 35.4882 40.2492 34.8209 40.25 34.125V31.5H45.5C46.7088 31.4991 47.9044 31.2478 49.0113 30.7618C50.1181 30.2758 51.1123 29.5658 51.931 28.6764C52.7498 27.7871 53.3754 26.7377 53.7684 25.5945C54.1614 24.4513 54.3132 23.2391 54.2143 22.0343C54.1154 20.8295 53.768 19.6583 53.1939 18.5944C52.6198 17.5306 51.8315 16.5973 50.8787 15.8533C49.9259 15.1094 48.8292 14.5709 47.6579 14.2719C46.4867 13.9729 45.2661 13.9198 44.0733 14.116C43.2174 10.8871 41.4087 7.99072 38.883 5.80442C36.3573 3.61812 33.2316 2.24322 29.9133 1.85886C26.595 1.4745 23.2378 2.09851 20.2792 3.64958C17.3206 5.20064 14.8978 7.60685 13.3264 10.5547C12.9687 10.5183 12.6095 10.5 12.25 10.5C9.46523 10.5 6.79451 11.6062 4.82538 13.5754C2.85625 15.5445 1.75 18.2152 1.75 21C1.75 23.7848 2.85625 26.4555 4.82538 28.4246C6.79451 30.3938 9.46523 31.5 12.25 31.5H15.75V34.125C15.7508 34.8209 16.0276 35.4882 16.5197 35.9803C17.0118 36.4724 17.6791 36.7492 18.375 36.75V40.25H8.6392C8.42623 39.4252 7.91975 38.7063 7.2147 38.2282C6.50964 37.7501 5.65441 37.5456 4.80933 37.6529C3.96424 37.7602 3.18731 38.1721 2.62417 38.8113C2.06103 39.4505 1.75034 40.2731 1.75034 41.125C1.75034 41.9769 2.06103 42.7995 2.62417 43.4387C3.18731 44.0779 3.96424 44.4898 4.80933 44.5971C5.65441 44.7044 6.50964 44.4999 7.2147 44.0218C7.91975 43.5437 8.42623 42.8248 8.6392 42H19.25C19.4821 42 19.7046 41.9078 19.8687 41.7437C20.0328 41.5796 20.125 41.3571 20.125 41.125V36.75H21.875V43.75H14.875C14.6429 43.75 14.4204 43.8422 14.2563 44.0063C14.0922 44.1704 14 44.3929 14 44.625V47.3608C13.1752 47.5738 12.4563 48.0802 11.9782 48.7853C11.5001 49.4904 11.2956 50.3456 11.4029 51.1907C11.5102 52.0358 11.9221 52.8127 12.5613 53.3758C13.2005 53.939 14.0231 54.2497 14.875 54.2497C15.7269 54.2497 16.5495 53.939 17.1887 53.3758C17.8279 52.8127 18.2398 52.0358 18.3471 51.1907C18.4544 50.3456 18.2499 49.4904 17.7718 48.7853C17.2937 48.0802 16.5748 47.5738 15.75 47.3608V45.5H22.75C22.9821 45.5 23.2046 45.4078 23.3687 45.2437C23.5328 45.0796 23.625 44.8571 23.625 44.625V36.75H27.125V45.6108C26.3002 45.8238 25.5813 46.3302 25.1032 47.0353C24.6251 47.7404 24.4206 48.5956 24.5279 49.4407C24.6352 50.2858 25.0471 51.0627 25.6863 51.6258C26.3255 52.189 27.1481 52.4997 28 52.4997C28.8519 52.4997 29.6745 52.189 30.3137 51.6258C30.9529 51.0627 31.3648 50.2858 31.4721 49.4407C31.5794 48.5956 31.3749 47.7404 30.8968 47.0353C30.4187 46.3302 29.6998 45.8238 28.875 45.6108V36.75H32.375V44.625C32.375 44.8571 32.4672 45.0796 32.6313 45.2437C32.7954 45.4078 33.0179 45.5 33.25 45.5H40.25V47.3608C39.4252 47.5738 38.7063 48.0802 38.2282 48.7853C37.7501 49.4904 37.5456 50.3456 37.6529 51.1907C37.7602 52.0358 38.1721 52.8127 38.8113 53.3758C39.4505 53.939 40.2731 54.2497 41.125 54.2497C41.9769 54.2497 42.7995 53.939 43.4387 53.3758C44.0779 52.8127 44.4898 52.0358 44.5971 51.1907C44.7044 50.3456 44.4999 49.4904 44.0218 48.7853C43.5437 48.0802 42.8248 47.5738 42 47.3608V44.625C42 44.3929 41.9078 44.1704 41.7437 44.0063C41.5796 43.8422 41.3571 43.75 41.125 43.75H34.125V36.75H35.875V41.125C35.875 41.3571 35.9672 41.5796 36.1313 41.7437C36.2954 41.9078 36.5179 42 36.75 42H47.3608C47.5244 42.6338 47.8626 43.209 48.3367 43.6603C48.8109 44.1116 49.4022 44.4209 50.0433 44.553C50.6844 44.6851 51.3498 44.6348 51.9637 44.4077C52.5777 44.1806 53.1157 43.7859 53.5165 43.2684C53.9174 42.751 54.1652 42.1314 54.2316 41.4802C54.298 40.829 54.1805 40.1722 53.8923 39.5844C53.6042 38.9966 53.157 38.5014 52.6015 38.1551C52.0461 37.8087 51.4046 37.6251 50.75 37.625ZM5.25 42.875C4.90388 42.875 4.56554 42.7724 4.27775 42.5801C3.98997 42.3878 3.76566 42.1145 3.63321 41.7947C3.50076 41.4749 3.4661 41.1231 3.53363 40.7836C3.60115 40.4441 3.76782 40.1323 4.01256 39.8876C4.2573 39.6428 4.56912 39.4762 4.90859 39.4086C5.24806 39.3411 5.59993 39.3758 5.9197 39.5082C6.23947 39.6407 6.51278 39.865 6.70507 40.1528C6.89736 40.4405 7 40.7789 7 41.125C6.99945 41.589 6.8149 42.0338 6.48683 42.3618C6.15876 42.6899 5.71396 42.8745 5.25 42.875ZM16.625 50.75C16.625 51.0961 16.5224 51.4345 16.3301 51.7223C16.1378 52.01 15.8645 52.2343 15.5447 52.3668C15.2249 52.4992 14.8731 52.5339 14.5336 52.4664C14.1941 52.3989 13.8823 52.2322 13.6376 51.9874C13.3928 51.7427 13.2261 51.4309 13.1586 51.0914C13.0911 50.7519 13.1258 50.4001 13.2582 50.0803C13.3907 49.7605 13.615 49.4872 13.9028 49.2949C14.1905 49.1026 14.5289 49 14.875 49C15.339 49.0006 15.7838 49.1851 16.1118 49.5132C16.4399 49.8412 16.6244 50.286 16.625 50.75ZM29.75 49C29.75 49.3461 29.6474 49.6845 29.4551 49.9723C29.2628 50.26 28.9895 50.4843 28.6697 50.6168C28.3499 50.7492 27.9981 50.7839 27.6586 50.7164C27.3191 50.6489 27.0073 50.4822 26.7626 50.2374C26.5178 49.9927 26.3511 49.6809 26.2836 49.3414C26.2161 49.0019 26.2508 48.6501 26.3832 48.3303C26.5157 48.0105 26.74 47.7372 27.0278 47.5449C27.3155 47.3526 27.6539 47.25 28 47.25C28.464 47.2506 28.9088 47.4351 29.2368 47.7632C29.5649 48.0912 29.7494 48.536 29.75 49ZM42.875 50.75C42.875 51.0961 42.7724 51.4345 42.5801 51.7223C42.3878 52.01 42.1145 52.2343 41.7947 52.3668C41.4749 52.4992 41.1231 52.5339 40.7836 52.4664C40.4441 52.3989 40.1323 52.2322 39.8876 51.9874C39.6428 51.7427 39.4761 51.4309 39.4086 51.0914C39.3411 50.7519 39.3758 50.4001 39.5082 50.0803C39.6407 49.7605 39.865 49.4872 40.1527 49.2949C40.4405 49.1026 40.7789 49 41.125 49C41.589 49.0006 42.0338 49.1851 42.3618 49.5132C42.6899 49.8412 42.8744 50.286 42.875 50.75ZM17.5 20.125V16.625C17.5003 16.393 17.5925 16.1706 17.7566 16.0066C17.9206 15.8425 18.143 15.7503 18.375 15.75H37.625C37.857 15.7503 38.0794 15.8425 38.2434 16.0066C38.4075 16.1706 38.4997 16.393 38.5 16.625V20.125C38.4997 20.357 38.4075 20.5794 38.2434 20.7434C38.0794 20.9075 37.857 20.9997 37.625 21H18.375C18.143 20.9997 17.9206 20.9075 17.7566 20.7434C17.5925 20.5794 17.5003 20.357 17.5 20.125ZM17.5 27.125V23.625C17.5003 23.393 17.5925 23.1706 17.7566 23.0066C17.9206 22.8425 18.143 22.7503 18.375 22.75H37.625C37.857 22.7503 38.0794 22.8425 38.2434 23.0066C38.4075 23.1706 38.4997 23.393 38.5 23.625V27.125C38.4997 27.357 38.4075 27.5794 38.2434 27.7434C38.0794 27.9075 37.857 27.9997 37.625 28H18.375C18.143 27.9997 17.9206 27.9075 17.7566 27.7434C17.5925 27.5794 17.5003 27.357 17.5 27.125ZM3.5 21C3.50263 18.6802 4.42535 16.4561 6.06572 14.8157C7.7061 13.1754 9.93016 12.2526 12.25 12.25C12.73 12.2499 13.2092 12.2888 13.6828 12.3664C13.869 12.3972 14.0601 12.367 14.2276 12.2803C14.3952 12.1935 14.5302 12.0549 14.6125 11.8851C15.9674 9.09182 18.1622 6.7923 20.8894 5.3087C23.6165 3.82509 26.7394 3.23172 29.8207 3.61169C32.9019 3.99167 35.7871 5.32596 38.0722 7.42765C40.3572 9.52935 41.9275 12.2932 42.5633 15.332C42.5876 15.4491 42.6357 15.56 42.7046 15.6578C42.7735 15.7556 42.8617 15.8383 42.9638 15.9006C43.0659 15.963 43.1797 16.0038 43.2981 16.0205C43.4166 16.0371 43.5372 16.0293 43.6525 15.9975C44.615 15.7345 45.6226 15.6804 46.6077 15.8386C47.5929 15.9969 48.5328 16.3639 49.3645 16.9151C50.1962 17.4663 50.9004 18.1889 51.43 19.0345C51.9597 19.8801 52.3024 20.8291 52.4352 21.818C52.568 22.8069 52.488 23.8128 52.2003 24.7682C51.9126 25.7235 51.424 26.6064 50.7673 27.3575C50.1105 28.1087 49.3008 28.7108 48.3924 29.1234C47.4839 29.536 46.4978 29.7496 45.5 29.75H40.0995C39.9849 29.4272 39.8082 29.13 39.5794 28.875C40.0116 28.3946 40.2504 27.7712 40.25 27.125V23.625C40.2504 22.9788 40.0116 22.3554 39.5794 21.875C40.0116 21.3946 40.2504 20.7712 40.25 20.125V16.625C40.2492 15.9291 39.9724 15.2619 39.4803 14.7697C38.9881 14.2776 38.3209 14.0008 37.625 14H18.375C17.6791 14.0008 17.0118 14.2776 16.5197 14.7697C16.0276 15.2619 15.7508 15.9291 15.75 16.625V20.125C15.7496 20.7712 15.9884 21.3946 16.4206 21.875C15.9884 22.3554 15.7496 22.9788 15.75 23.625V27.125C15.7496 27.7712 15.9884 28.3946 16.4206 28.875C16.1918 29.13 16.0151 29.4272 15.9005 29.75H12.25C9.93016 29.7474 7.7061 28.8246 6.06572 27.1843C4.42535 25.5439 3.50263 23.3198 3.5 21ZM17.5 34.125V30.625C17.5003 30.393 17.5925 30.1706 17.7566 30.0066C17.9206 29.8425 18.143 29.7503 18.375 29.75H37.625C37.857 29.7503 38.0794 29.8425 38.2434 30.0066C38.4075 30.1706 38.4997 30.393 38.5 30.625V34.125C38.4997 34.357 38.4075 34.5794 38.2434 34.7434C38.0794 34.9075 37.857 34.9997 37.625 35H18.375C18.143 34.9997 17.9206 34.9075 17.7566 34.7434C17.5925 34.5794 17.5003 34.357 17.5 34.125ZM50.75 42.875C50.4039 42.875 50.0655 42.7724 49.7777 42.5801C49.49 42.3878 49.2657 42.1145 49.1332 41.7947C49.0008 41.4749 48.9661 41.1231 49.0336 40.7836C49.1011 40.4441 49.2678 40.1323 49.5126 39.8876C49.7573 39.6428 50.0691 39.4762 50.4086 39.4086C50.7481 39.3411 51.0999 39.3758 51.4197 39.5082C51.7395 39.6407 52.0128 39.865 52.2051 40.1528C52.3974 40.4405 52.5 40.7789 52.5 41.125C52.4994 41.589 52.3149 42.0338 51.9868 42.3618C51.6588 42.6899 51.214 42.8745 50.75 42.875Z" fill="#2D5883"/>
</svg>
