<svg width="59" height="56" viewBox="0 0 59 56" fill="none" xmlns="http://www.w3.org/2000/svg">
<path d="M54.2431 20.265C54.1432 20.1654 54.0231 20.0862 53.89 20.032C53.7569 19.9779 53.6136 19.95 53.4687 19.95C53.3239 19.95 53.1806 19.9779 53.0475 20.032C52.9144 20.0862 52.7942 20.1654 52.6944 20.265L50.8506 22.015V14C50.8506 11.4069 49.7679 8.9195 47.8395 7.08265C45.9112 5.2458 43.2945 4.20921 40.5625 4.19995H18.4375C15.6991 4.19995 13.0729 5.23245 11.1366 7.0703C9.2003 8.90816 8.11249 11.4008 8.11249 14V24.5C8.11249 24.7784 8.22904 25.0455 8.4365 25.2424C8.64396 25.4393 8.92534 25.55 9.21874 25.55C9.51213 25.55 9.79351 25.4393 10.001 25.2424C10.2084 25.0455 10.325 24.7784 10.325 24.5V14C10.325 11.9578 11.1797 9.99926 12.7011 8.55523C14.2225 7.1112 16.2859 6.29995 18.4375 6.29995H40.5625C42.7141 6.29995 44.7775 7.1112 46.2989 8.55523C47.8203 9.99926 48.675 11.9578 48.675 14V21.9625L46.8312 20.2125C46.6259 20.0175 46.3473 19.908 46.0569 19.908C45.7664 19.908 45.4879 20.0175 45.2825 20.2125C45.0771 20.4074 44.9617 20.6718 44.9617 20.9475C44.9617 21.2231 45.0771 21.4875 45.2825 21.6825L48.97 25.1825C49.0665 25.2831 49.1865 25.361 49.3203 25.41C49.4533 25.4681 49.598 25.4982 49.7444 25.4982C49.8908 25.4982 50.0354 25.4681 50.1684 25.41C50.3022 25.361 50.4222 25.2831 50.5187 25.1825L54.2062 21.6825C54.4061 21.4975 54.5218 21.2457 54.5287 20.9808C54.5356 20.716 54.4331 20.4591 54.2431 20.265Z" fill="#2D5883"/>
<path d="M49.7812 30.45C49.4879 30.45 49.2065 30.5606 48.999 30.7575C48.7915 30.9544 48.675 31.2215 48.675 31.5V42C48.675 44.0421 47.8203 46.0006 46.2989 47.4447C44.7775 48.8887 42.7141 49.7 40.5625 49.7H18.4375C16.2859 49.7 14.2225 48.8887 12.7011 47.4447C11.1797 46.0006 10.325 44.0421 10.325 42V34.0375L12.1687 35.7875C12.2704 35.884 12.3912 35.9605 12.524 36.0128C12.6569 36.065 12.7993 36.0919 12.9431 36.0919C13.0869 36.0919 13.2293 36.065 13.3622 36.0128C13.4951 35.9605 13.6158 35.884 13.7175 35.7875C13.8192 35.6909 13.8999 35.5763 13.9549 35.4502C14.0099 35.3241 14.0383 35.189 14.0383 35.0525C14.0383 34.916 14.0099 34.7808 13.9549 34.6547C13.8999 34.5286 13.8192 34.414 13.7175 34.3175L10.03 30.8175C9.93346 30.7168 9.81351 30.6389 9.67969 30.59C9.40781 30.4849 9.10344 30.4849 8.83156 30.59C8.69774 30.6389 8.57779 30.7168 8.48125 30.8175L4.79375 34.3175C4.58837 34.5124 4.47299 34.7768 4.47299 35.0525C4.47299 35.3281 4.58837 35.5925 4.79375 35.7875C4.99913 35.9824 5.27768 36.0919 5.56812 36.0919C5.85857 36.0919 6.13712 35.9824 6.3425 35.7875L8.18625 34.0375V42C8.18618 44.587 9.26386 47.0691 11.1842 48.905C13.1046 50.7408 15.7119 51.7815 18.4375 51.8H40.5625C41.9184 51.8 43.261 51.5465 44.5137 51.054C45.7664 50.5615 46.9046 49.8396 47.8634 48.9296C48.8221 48.0196 49.5827 46.9392 50.1016 45.7502C50.6204 44.5613 50.8875 43.2869 50.8875 42V31.5C50.8875 31.2215 50.7709 30.9544 50.5635 30.7575C50.356 30.5606 50.0746 30.45 49.7812 30.45Z" fill="#2D5883"/>
<path d="M36.875 14.7H34.2937V10.5C34.2937 9.75734 33.9829 9.04515 33.4297 8.52005C32.8765 7.99495 32.1261 7.69995 31.3437 7.69995H27.6562C26.8738 7.69995 26.1235 7.99495 25.5703 8.52005C25.017 9.04515 24.7062 9.75734 24.7062 10.5V14.7H22.125C21.3426 14.7 20.5923 14.995 20.039 15.5201C19.4858 16.0452 19.175 16.7573 19.175 17.5V43.75C19.175 44.4926 19.4858 45.2048 20.039 45.7299C20.5923 46.255 21.3426 46.55 22.125 46.55H36.875C37.6574 46.55 38.4077 46.255 38.961 45.7299C39.5142 45.2048 39.825 44.4926 39.825 43.75V17.5C39.825 16.7573 39.5142 16.0452 38.961 15.5201C38.4077 14.995 37.6574 14.7 36.875 14.7ZM26.9187 10.5C26.9187 10.3143 26.9964 10.1363 27.1347 10.005C27.2731 9.8737 27.4606 9.79995 27.6562 9.79995H31.3437C31.5393 9.79995 31.7269 9.8737 31.8652 10.005C32.0035 10.1363 32.0812 10.3143 32.0812 10.5V14.7H26.9187V10.5ZM37.6125 43.75C37.6125 43.9356 37.5348 44.1137 37.3965 44.2449C37.2582 44.3762 37.0706 44.45 36.875 44.45H22.125C21.9294 44.45 21.7418 44.3762 21.6035 44.2449C21.4652 44.1137 21.3875 43.9356 21.3875 43.75V17.5C21.3875 17.3143 21.4652 17.1363 21.6035 17.005C21.7418 16.8737 21.9294 16.8 22.125 16.8H36.875C37.0706 16.8 37.2582 16.8737 37.3965 17.005C37.5348 17.1363 37.6125 17.3143 37.6125 17.5V43.75Z" fill="#2D5883"/>
<path d="M29.5 39.55C29.3661 39.575 29.2283 39.575 29.0944 39.55C28.8231 39.4448 28.6059 39.2433 28.4888 38.9883C28.3717 38.7334 28.3641 38.4452 28.4675 38.185L31.5466 30.87H25.8125C25.6252 30.8691 25.441 30.8238 25.2768 30.7382C25.1126 30.6527 24.9735 30.5295 24.8722 30.38C24.7818 30.2214 24.7345 30.044 24.7345 29.8637C24.7345 29.6834 24.7818 29.506 24.8722 29.3475L28.5597 22.3475C28.694 22.0989 28.9256 21.9102 29.2048 21.8219C29.484 21.7335 29.7886 21.7526 30.0531 21.875C30.3116 22.0057 30.5074 22.2257 30.6001 22.4894C30.6927 22.7532 30.6751 23.0406 30.5509 23.2925L27.6562 28.7H33.1875C33.3681 28.6995 33.5461 28.7409 33.7059 28.8207C33.8657 28.9005 34.0025 29.0163 34.1043 29.1578C34.2062 29.2993 34.27 29.4624 34.2901 29.6327C34.3103 29.8031 34.2862 29.9755 34.22 30.135L30.5325 38.885C30.4509 39.0815 30.3087 39.2502 30.1245 39.3688C29.9402 39.4875 29.7226 39.5506 29.5 39.55Z" fill="#2D5883"/>
</svg>
