<svg width="56" height="56" viewBox="0 0 56 56" fill="none" xmlns="http://www.w3.org/2000/svg">
<g clip-path="url(#clip0_76_1594)">
<path d="M35.0503 42.6606H13.5866C13.1031 42.6606 12.7105 42.2691 12.7105 41.7845C12.7105 41.3 13.102 40.9084 13.5866 40.9084H35.0503C35.5337 40.9084 35.9264 41.3 35.9264 41.7845C35.9264 42.2691 35.5337 42.6606 35.0503 42.6606ZM13.5866 31.0155H35.0503C35.5337 31.0155 35.9264 30.6239 35.9264 30.1394C35.9264 29.6548 35.5348 29.2633 35.0503 29.2633H13.5866C13.1031 29.2633 12.7105 29.6548 12.7105 30.1394C12.7105 30.6239 13.102 31.0155 13.5866 31.0155ZM13.5866 19.3736H35.0503C35.5337 19.3736 35.9264 18.982 35.9264 18.4975C35.9264 18.013 35.5348 17.6214 35.0503 17.6214H13.5866C13.1031 17.6214 12.7105 18.013 12.7105 18.4975C12.7105 18.982 13.102 19.3736 13.5866 19.3736ZM23.6064 7.73171H35.0503C35.5337 7.73171 35.9264 7.34015 35.9264 6.85562C35.9264 6.37109 35.5348 5.97953 35.0503 5.97953H23.6064C23.123 5.97953 22.7303 6.37109 22.7303 6.85562C22.7303 7.34015 23.123 7.73171 23.6064 7.73171ZM48.7156 8.23812V55.125C48.7156 55.6084 48.3241 56.0011 47.8395 56.0011H15.5236C15.0402 56.0011 14.6475 55.6095 14.6475 55.125V48.638H8.16047C7.67703 48.638 7.28437 48.2464 7.28437 47.7619V12.7553C7.28437 12.7258 7.28547 12.6973 7.28875 12.6678C7.29094 12.6459 7.29422 12.6241 7.29859 12.6022C7.29969 12.5956 7.30078 12.5891 7.30187 12.5825C7.30734 12.5573 7.31391 12.5322 7.32047 12.507C7.32156 12.5048 7.32156 12.5016 7.32266 12.4994C7.33031 12.4742 7.33906 12.4502 7.34891 12.4261C7.35 12.4239 7.35 12.4217 7.35109 12.4195C7.36094 12.3966 7.37187 12.3736 7.38281 12.3517C7.38391 12.3484 7.38609 12.3451 7.38719 12.3419C7.39812 12.3211 7.41016 12.3014 7.42328 12.2817C7.42656 12.2773 7.42875 12.273 7.43094 12.2686C7.44406 12.2489 7.45828 12.2303 7.4725 12.2117C7.47578 12.2073 7.47797 12.203 7.48125 12.1997C7.49984 12.1767 7.51953 12.1559 7.54031 12.1352L19.4206 0.255933C19.4414 0.235151 19.4622 0.215464 19.4852 0.19687C19.4895 0.193589 19.4939 0.190308 19.4972 0.18812C19.5158 0.173901 19.5344 0.159683 19.5541 0.146558C19.5584 0.143276 19.5628 0.141089 19.5683 0.137808C19.588 0.125776 19.6077 0.112651 19.6284 0.101714C19.6317 0.0995264 19.635 0.0984326 19.6383 0.0973389C19.6602 0.0853076 19.6831 0.0743701 19.7061 0.0656201C19.7083 0.0645264 19.7105 0.0645264 19.7127 0.0634326C19.7367 0.0535889 19.7608 0.0448389 19.7859 0.0371826C19.7881 0.0360889 19.7914 0.0360889 19.7936 0.0349951C19.8187 0.0273389 19.8428 0.0207764 19.8691 0.0164014C19.8756 0.0153076 19.8833 0.0142139 19.8898 0.0131201C19.9106 0.00983887 19.9325 0.00546387 19.9533 0.00327637C19.9817 -4.88292e-06 20.0112 -0.00109863 20.0408 -0.00109863H40.4753C40.9587 -0.00109863 41.3514 0.390464 41.3514 0.874995V7.36312H47.8384C48.323 7.36203 48.7156 7.75468 48.7156 8.23812ZM10.2747 11.8792H19.1647V2.98921L10.2747 11.8792ZM9.03656 46.8858H39.6003V1.74999H20.9169V12.7553C20.9169 13.2387 20.5253 13.6314 20.0408 13.6314H9.03656V46.8858ZM46.9634 9.11421H41.3514V47.7619C41.3514 48.2453 40.9598 48.638 40.4753 48.638H16.3997V54.25H46.9634V9.11421Z" fill="#2D5883"/>
</g>
<defs>
<clipPath id="clip0_76_1594">
<rect width="56" height="56" fill="white"/>
</clipPath>
</defs>
</svg>
