<?xml version="1.0" encoding="utf-8"?>
<!-- Generator: Adobe Illustrator 21.0.0, SVG Export Plug-In . SVG Version: 6.00 Build 0)  -->
<svg version="1.1" id="Layer_1" xmlns="http://www.w3.org/2000/svg" xmlns:xlink="http://www.w3.org/1999/xlink" x="0px" y="0px"
	 width="249.5px" height="52px" viewBox="0 0 249.5 52" enable-background="new 0 0 249.5 52" xml:space="preserve">
<path fill="#162137" d="M236.2,34.2c3.7-5.7,7.5-11.4,11.2-17.1c0.7,0,1.3,0,2.1,0c-0.7,1-1.3,2-2,3c-3.4,5.2-6.8,10.3-10.1,15.5
	c-0.2,0.3-0.2,0.6-0.2,0.9c0,3.7,0,7.4,0,11c0,0.2,0,0.5,0,0.8c-0.6,0-1.1,0-1.8,0c0-0.2,0-0.5,0-0.7c0-3.7,0-7.3,0-11
	c0-0.5-0.2-1-0.4-1.4c-3.9-5.9-7.8-11.9-11.7-17.8c-0.1-0.1-0.1-0.2-0.2-0.4c0.7,0,1.3,0,2.1,0C228.7,22.8,232.4,28.5,236.2,34.2z"
	/>
<path fill="#162137" d="M236.2,4.8c2.2,0,4,1.8,4,4s-1.8,4-4,4s-4-1.8-4-4C232.1,6.6,234,4.8,236.2,4.8z M236.1,6.4
	c-1.3,0-2.3,1.1-2.4,2.4c0,1.3,1,2.4,2.4,2.4c1.3,0,2.3-1,2.4-2.4C238.5,7.4,237.5,6.4,236.1,6.4z">
<animateTransform  accumulate="none" additive="replace" attributeName="transform" attributeType="XML" calcMode="linear" dur="1.5s" fill="remove" id="crown" repeatCount="indefinite" restart="always" type="translate" values="0,2;0,-3;0,2">
		</animateTransform>
</path>
<path fill="#162137" d="M204.2,48.3c-0.7,0-1.2,0-1.9,0c0-9.8,0-19.6,0-29.5c-3.9,0-7.8,0-11.7,0c0-0.6,0-1.2,0-1.7
	c8.1,0,16.3,0,24.5,0c0.3,0.6,0.7,1.1,1,1.7c-3.9,0-8.1,0-12,0C204.2,28.8,204.2,38.5,204.2,48.3z"/>
<path fill="#162137" d="M177.4,17.1c0.6,0,1.2,0,1.8,0c0,10.4,0,20.8,0,31.2c-0.6,0-1.1,0-1.8,0C177.4,38,177.4,27.6,177.4,17.1z"/>
<path fill="#162137" d="M149.5,48.3c0-10.4,0-20.8,0-31.2c0.6,0,1.1,0,1.8,0c0,9.8,0,19.6,0,29.5c6.1,0,12.2,0,18.3,0
	c-0.3,0.6-0.5,1.2-0.7,1.7C162.5,48.3,156,48.3,149.5,48.3z"/>
<path fill="#162137" d="M142,48.3c-0.7,0-1.2,0-1.9,0c-4.4-10.1-8.9-20.2-13.5-30.6c-4.6,10.3-9,20.5-13.5,30.6c-0.6,0-1.2,0-1.9,0
	c5.1-11.6,10.2-23.1,15.4-35C131.8,25.2,136.9,36.8,142,48.3z"/>
<path fill="#162137" d="M88.8,43.2c0.3-0.6,0.5-1.3,0.8-2c0.4,0.5,0.7,1,0.9,1.4c1.9,2.7,4.4,4.1,7.7,4c4.1-0.2,6.8-2.9,7.3-6.1
	c0.3-2.1-0.5-3.7-2-5.1c-1.6-1.5-3.7-2.4-5.6-3.4c-1.6-0.9-3.2-1.7-4.6-2.7c-3.1-2.4-3.8-6.4-1.6-9.7c1-1.6,2.6-2.6,4.4-3
	c2.8-0.7,5.4-0.2,7.8,1.4c0.6,0.5,0.9,0.9,1.1,1.4c0.2,0.7,0.4,1.3,0.6,2.1c-0.2-0.2-0.5-0.3-0.7-0.5c-1.5-1.2-3-2.2-4.9-2.7
	c-2.5-0.6-5.2,0.2-6.5,2c-1.9,2.6-1.4,5.9,1.5,7.8c2,1.3,4.1,2.3,6.2,3.4c1.8,0.9,3.5,2,4.7,3.6c2.5,3.3,2.1,7.6-0.9,10.4
	c-4.6,4.4-12.7,3.5-16-1.9C89,43.5,88.9,43.3,88.8,43.2z"/>
<path fill="#162137" d="M70.6,33.5c-1.3,0-2.6,0-3.9,0c0,4.9,0,9.8,0,14.8c-0.6,0-1.2,0-1.7,0c0-10.4,0-20.8,0-31.3
	c0.3,0,0.6,0,0.9,0c2.3,0,4.6-0.1,6.8,0.1c4.5,0.4,7.2,3.5,7.2,8c0,4.4-2.5,7.4-6.8,8.1c-0.2,0-0.3,0.1-0.6,0.1
	c3.1,5,6.3,9.9,9.4,14.9c-0.7,0-1.3,0-2.1,0C76.8,43.5,73.7,38.5,70.6,33.5z M66.7,31.6c2,0,3.9,0.2,5.8,0c3.4-0.3,5.2-2.2,5.6-5.6
	c0.4-3.2-1.4-6.1-4.3-6.9c-1-0.3-2.1-0.3-3.2-0.4c-1.3-0.1-2.6,0-3.9,0C66.7,23.1,66.7,27.5,66.7,31.6z"/>
<path fill="#162137" d="M57.4,46.8c-0.2,0.6-0.4,1.1-0.6,1.7c-6,0-14.4,0-20.5,0c0.2-0.6,0.5-1.1,0.7-1.7
	C42.9,46.8,51.3,46.8,57.4,46.8z">
<animateTransform  accumulate="none" additive="replace" attributeName="transform" attributeType="XML" begin=".5" calcMode="linear" dur="1.5s" fill="remove" id="crown" repeatCount="indefinite" restart="always" type="translate" values="3,0;-3,0;3,0">
		</animateTransform>
</path>
<path fill="#162137" d="M36.1,18.9c0.2-0.6,0.4-1.1,0.6-1.7c6,0,20.3,0,20.3,0s-0.5,1.1-0.7,1.7C50.3,18.9,42.1,18.9,36.1,18.9z">
<animateTransform  accumulate="none" additive="replace" attributeName="transform" attributeType="XML" calcMode="linear" dur="1.5s" fill="remove" id="crown" repeatCount="indefinite" restart="always" type="translate" values="2,0;-2,0;2,0">
		</animateTransform>
</path>
<path fill="#162137" d="M36.8,33.5c-0.2-0.5-0.4-1-0.6-1.6c5,0,12.3,0,17.3,0c0.2,0.5,0.5,1,0.7,1.6C49.2,33.5,41.9,33.5,36.8,33.5z
	">
<animateTransform  accumulate="none" additive="replace" attributeName="transform" attributeType="XML" begin=".2" calcMode="linear" dur="1.5s" fill="remove" id="crown" repeatCount="indefinite" restart="always" type="translate" values="3,0;-3,0;3,0">
		</animateTransform>
</path>
<path fill="#162137" d="M30.8,17.2c-0.7,0-1.2,0-1.9,0C24.4,27.4,20,37.5,15.4,47.8c-4.6-10.3-9-20.4-13.5-30.6c-0.6,0-1.2,0-1.9,0
	C5.1,28.8,10.2,40.2,15.4,52C20.6,40.2,25.7,28.8,30.8,17.2z"/>
</svg>
