<svg width="37" height="37" viewBox="0 0 37 37" fill="none" xmlns="http://www.w3.org/2000/svg">
<g clip-path="url(#clip0_76_3162)">
<path d="M19.2709 21.5835H31.6042C32.0297 21.5835 32.3751 21.2381 32.3751 20.8126C32.3751 20.3871 32.0297 20.0417 31.6042 20.0417H19.2709C18.8454 20.0417 18.5 20.3871 18.5 20.8126C18.5 21.2381 18.8454 21.5835 19.2709 21.5835Z" fill="white"/>
<path d="M37 14.6459V11.5625C37 10.8179 36.778 10.1287 36.4111 9.53827C36.4019 9.51977 36.4003 9.49816 36.3895 9.48125L31.6226 1.81914C30.915 0.681393 29.691 0 28.3497 0H8.65186C7.30909 0 6.0865 0.681393 5.37887 1.81914L0.612018 9.48125C0.602768 9.49664 0.602768 9.51363 0.593518 9.53061C0.223518 10.121 0 10.8148 0 11.5625V14.6459C0 15.91 0.621267 17.0262 1.56636 17.7292C0.621267 18.4321 0 19.5468 0 20.8125V23.8959C0 25.16 0.621267 26.2762 1.56636 26.9792C0.621267 27.6821 0 28.7968 0 30.0625V33.1459C0 35.2702 1.72975 37 3.85414 37H13.9613C14.3883 37 14.7321 36.6546 14.7321 36.2291C14.7321 35.8036 14.3868 35.4583 13.9613 35.4583H3.85414C2.57916 35.4583 1.54164 34.4208 1.54164 33.1458V30.0625C1.54164 28.786 2.57916 27.75 3.85414 27.75H16.7486C17.1741 27.75 17.5195 27.4046 17.5195 26.9791C17.5195 26.5536 17.1741 26.2083 16.7486 26.2083H3.85414C2.57916 26.2083 1.54164 25.1708 1.54164 23.8958V20.8125C1.54164 19.536 2.57916 18.5 3.85414 18.5H33.1458C34.4208 18.5 35.4583 19.5375 35.4583 20.8125V23.8959C35.4583 24.235 35.375 24.5757 35.2147 24.9041C35.0282 25.2865 35.1854 25.7474 35.5677 25.9355C35.9516 26.1236 36.4126 25.9663 36.5991 25.5825C36.8658 25.0398 36.9999 24.474 36.9999 23.8959V20.8125C36.9999 19.5484 36.3787 18.4321 35.4336 17.7291C36.3787 17.0246 37 15.91 37 14.6459ZM6.68775 2.63314C7.11173 1.95016 7.84552 1.54164 8.65027 1.54164H28.3481C29.1529 1.54164 29.8867 1.95016 30.3123 2.63314L33.4927 7.74377C33.3771 7.73141 33.2646 7.70829 33.1459 7.70829H3.85414C3.73541 7.70829 3.62289 7.73141 3.50727 7.74218L6.68775 2.63314ZM35.4584 14.6459C35.4584 15.9208 34.4208 16.9584 33.1459 16.9584H3.85414C2.57916 16.9584 1.54164 15.9208 1.54164 14.6459V11.5625C1.54164 10.286 2.57916 9.25 3.85414 9.25H33.1458C34.4208 9.25 35.4583 10.286 35.4583 11.5625V14.6459H35.4584Z" fill="white"/>
<path d="M3.08337 31.6042C3.08337 32.8792 4.12089 33.9167 5.39587 33.9167C6.67086 33.9167 7.70837 32.8792 7.70837 31.6042C7.70837 30.3293 6.67086 29.2917 5.39587 29.2917C4.12089 29.2917 3.08337 30.3277 3.08337 31.6042ZM6.16666 31.6042C6.16666 32.0297 5.8213 32.3751 5.3958 32.3751C4.9703 32.3751 4.62502 32.0297 4.62502 31.6042C4.62502 31.1787 4.97037 30.8334 5.39587 30.8334C5.82137 30.8334 6.16666 31.1787 6.16666 31.6042Z" fill="white"/>
<path d="M31.6041 26.2084C31.4638 26.2084 31.3235 26.2161 31.1863 26.2284C29.9021 24.3013 27.7453 23.125 25.4375 23.125C21.8485 23.125 18.887 25.8645 18.5355 29.3626C16.761 29.7049 15.4167 31.2712 15.4167 33.1459C15.4167 35.2702 17.1464 37 19.2708 37H31.6042C34.5796 37 37 34.5796 37 31.6041C37 28.6287 34.5796 26.2084 31.6041 26.2084ZM31.6041 35.4584H19.2708C17.9958 35.4584 16.9583 34.4208 16.9583 33.1459C16.9583 31.8709 17.9958 30.8334 19.2708 30.8334C19.6963 30.8334 20.0417 30.488 20.0417 30.0625C20.0417 27.0871 22.4621 24.6666 25.4375 24.6666C27.3647 24.6666 29.1607 25.7289 30.1212 27.4385C30.2815 27.7238 30.599 27.8748 30.929 27.8193C31.1495 27.7808 31.373 27.7499 31.6043 27.7499C33.7287 27.7499 35.4584 29.4797 35.4584 31.6041C35.4584 33.7285 33.7286 35.4584 31.6041 35.4584Z" fill="white"/>
<path d="M31.6041 10.7917H19.2709C18.8454 10.7917 18.5 11.1371 18.5 11.5626C18.5 11.9881 18.8454 12.3335 19.2709 12.3335H31.6042C32.0297 12.3335 32.3751 11.9881 32.3751 11.5626C32.3751 11.1371 32.0296 10.7917 31.6041 10.7917Z" fill="white"/>
<path d="M31.6041 13.875H19.2709C18.8454 13.875 18.5 14.2204 18.5 14.6459C18.5 15.0714 18.8454 15.4167 19.2709 15.4167H31.6042C32.0297 15.4167 32.3751 15.0714 32.3751 14.6459C32.3751 14.2204 32.0296 13.875 31.6041 13.875Z" fill="white"/>
<path d="M5.39587 10.7917C4.12089 10.7917 3.08337 11.8277 3.08337 13.1042C3.08337 14.3807 4.12089 15.4167 5.39587 15.4167C6.67086 15.4167 7.70837 14.3792 7.70837 13.1042C7.70837 11.8293 6.67078 10.7917 5.39587 10.7917ZM5.39587 13.8751C4.97037 13.8751 4.62502 13.5297 4.62502 13.1042C4.62502 12.6787 4.97037 12.3334 5.39587 12.3334C5.82137 12.3334 6.16673 12.6787 6.16673 13.1042C6.16673 13.5297 5.82137 13.8751 5.39587 13.8751Z" fill="white"/>
<path d="M3.08337 22.3542C3.08337 23.6292 4.12089 24.6667 5.39587 24.6667C6.67086 24.6667 7.70837 23.6292 7.70837 22.3542C7.70837 21.0793 6.67086 20.0417 5.39587 20.0417C4.12089 20.0417 3.08337 21.0777 3.08337 22.3542ZM6.16666 22.3542C6.16666 22.7797 5.8213 23.1251 5.3958 23.1251C4.9703 23.1251 4.62502 22.7797 4.62502 22.3542C4.62502 21.9287 4.97037 21.5834 5.39587 21.5834C5.82137 21.5834 6.16666 21.9287 6.16666 22.3542Z" fill="white"/>
</g>
<defs>
<clipPath id="clip0_76_3162">
<rect width="37" height="37" fill="white"/>
</clipPath>
</defs>
</svg>
