<svg width="37" height="37" viewBox="0 0 37 37" fill="none" xmlns="http://www.w3.org/2000/svg">
<path d="M1.54154 10.02V1.54154H10.02C11.0405 1.54154 11.039 0 10.02 0H0.770769C0.345304 0 0 0.345304 0 0.770769V10.02C0 11.0405 1.54154 11.0389 1.54154 10.02Z" fill="white"/>
<path d="M10.02 35.4583H1.54154V26.9799C1.54154 25.9594 0 25.9609 0 26.9799V36.2291C0 36.6546 0.345304 36.9999 0.770769 36.9999H10.02C11.0405 36.9999 11.039 35.4583 10.02 35.4583Z" fill="white"/>
<path d="M36.9969 0.770769C36.9969 0.345304 36.6516 0 36.2261 0H26.9769C25.9564 0 25.958 1.54154 26.9769 1.54154H35.4554V10.02C35.4554 11.0405 36.9969 11.0389 36.9969 10.02V0.770769Z" fill="white"/>
<path d="M35.4554 26.9799V35.4583H26.9769C25.9564 35.4583 25.958 36.9999 26.9769 36.9999H36.2261C36.6516 36.9999 36.9969 36.6546 36.9969 36.2291V26.9799C36.9969 25.9594 35.4554 25.9609 35.4554 26.9799Z" fill="white"/>
<path d="M7.7077 10.0203C7.7077 10.4458 8.05301 10.7911 8.47847 10.7911H10.02C10.4455 10.7911 10.7908 10.4458 10.7908 10.0203V8.47878C10.7908 8.05331 10.4455 7.70801 10.02 7.70801H8.47847C8.05301 7.70801 7.7077 8.05331 7.7077 8.47878V10.0203Z" fill="white"/>
<path d="M5.39537 4.62476C4.96991 4.62476 4.6246 4.97006 4.6246 5.39552V13.1032C4.6246 13.5287 4.96991 13.874 5.39537 13.874H13.1031C13.5285 13.874 13.8738 13.5287 13.8738 13.1032V5.39552C13.8738 4.97006 13.5285 4.62476 13.1031 4.62476H5.39537ZM6.16614 6.16629H12.3323V12.3324H6.16614V6.16629Z" fill="white"/>
<path d="M10.7908 26.9768C10.7908 26.5514 10.4455 26.2061 10.02 26.2061H8.47847C8.05301 26.2061 7.7077 26.5514 7.7077 26.9768V28.5184C7.7077 28.9438 8.05301 29.2891 8.47847 29.2891H10.02C10.4455 29.2891 10.7908 28.9438 10.7908 28.5184V26.9768Z" fill="white"/>
<path d="M13.8738 23.8936C13.8738 23.4681 13.5285 23.1228 13.1031 23.1228H5.39537C4.96991 23.1228 4.6246 23.4681 4.6246 23.8936V31.6013C4.6246 32.0267 4.96991 32.372 5.39537 32.372H13.1031C13.5285 32.372 13.8738 32.0267 13.8738 31.6013V23.8936ZM12.3323 30.8305H6.16614V24.6643H12.3323V30.8305Z" fill="white"/>
<path d="M26.2061 10.0203C26.2061 10.4458 26.5515 10.7911 26.9769 10.7911H28.5185C28.9439 10.7911 29.2892 10.4458 29.2892 10.0203V8.47878C29.2892 8.05331 28.9439 7.70801 28.5185 7.70801H26.9769C26.5515 7.70801 26.2061 8.05331 26.2061 8.47878V10.0203Z" fill="white"/>
<path d="M23.1231 13.1032C23.1231 13.5287 23.4684 13.874 23.8938 13.874H31.6015C32.027 13.874 32.3723 13.5287 32.3723 13.1032V5.39552C32.3723 4.97006 32.027 4.62476 31.6015 4.62476H23.8938C23.4684 4.62476 23.1231 4.97006 23.1231 5.39552V13.1032ZM24.6646 6.16629H30.8308V12.3324H24.6646V6.16629Z" fill="white"/>
<path d="M10.02 21.5813C10.188 21.5813 16.4143 21.5813 16.1861 21.5813C17.2066 21.5813 17.2051 20.0397 16.1861 20.0397H13.8738V17.7274C13.8738 16.7069 12.3323 16.7085 12.3323 17.7274V20.0397H10.02C8.9995 20.0397 9.00104 21.5813 10.02 21.5813Z" fill="white"/>
<path d="M16.9569 6.93695V5.39541C16.9569 4.37491 15.4154 4.37645 15.4154 5.39541V6.93695C15.4154 7.95745 16.9569 7.9559 16.9569 6.93695Z" fill="white"/>
<path d="M16.1862 10.7909H19.2692C19.6947 10.7909 20.04 10.4456 20.04 10.0201V7.7078H20.8108C21.8313 7.7078 21.8297 6.16626 20.8108 6.16626H19.2692C18.8438 6.16626 18.4985 6.51156 18.4985 6.93703V9.24933H16.1862C15.1657 9.24933 15.1672 10.7909 16.1862 10.7909Z" fill="white"/>
<path d="M16.1862 18.4984H19.2692C20.2897 18.4984 20.2882 16.9569 19.2692 16.9569H18.4985V13.8738H20.8108C21.8313 13.8738 21.8297 12.3323 20.8108 12.3323H17.7277C17.3022 12.3323 16.9569 12.6776 16.9569 13.103V16.9569H16.1862C15.1657 16.9569 15.1672 18.4984 16.1862 18.4984Z" fill="white"/>
<path d="M21.5815 17.7277C21.5815 18.7482 23.1231 18.7467 23.1231 17.7277V16.1862C23.1231 15.1657 21.5815 15.1672 21.5815 16.1862V17.7277Z" fill="white"/>
<path d="M16.9569 26.206H18.4985V26.9768C18.4985 27.9973 20.04 27.9958 20.04 26.9768V22.3522C20.04 21.3317 18.4985 21.3332 18.4985 22.3522V24.6645H16.1861C15.7607 24.6645 15.4154 25.0098 15.4154 25.4353V26.9768C15.4154 27.9973 16.9569 27.9958 16.9569 26.9768V26.206Z" fill="white"/>
<path d="M23.1231 26.9767V27.7475H22.3523C21.9268 27.7475 21.5815 28.0928 21.5815 28.5182V30.8306H17.7277C16.7072 30.8306 16.7087 32.3721 17.7277 32.3721H22.3523C22.7778 32.3721 23.1231 32.0268 23.1231 31.6013V29.289H23.8938C24.3193 29.289 24.6646 28.9437 24.6646 28.5182V26.9767C24.6646 25.9562 23.1231 25.9578 23.1231 26.9767Z" fill="white"/>
<path d="M27.7477 28.5185V30.8308H26.9769C25.9564 30.8308 25.958 32.3723 26.9769 32.3723H31.6015C32.622 32.3723 32.6205 30.8308 31.6015 30.8308H29.2892V28.5185C29.2892 27.498 27.7477 27.4995 27.7477 28.5185Z" fill="white"/>
<path d="M32.3723 23.8936C32.3723 23.4681 32.027 23.1228 31.6015 23.1228H26.9769C25.9564 23.1228 25.958 24.6643 26.9769 24.6643H30.8308V26.9797C30.8308 28.0002 32.3723 27.9987 32.3723 26.9797V23.8936Z" fill="white"/>
<path d="M32.3723 17.7274C32.3723 16.7069 30.8307 16.7085 30.8307 17.7274V20.0397H30.06C29.0395 20.0397 29.041 21.5813 30.06 21.5813H31.6015C32.027 21.5813 32.3723 21.236 32.3723 20.8105V17.7274Z" fill="white"/>
<path d="M27.7477 20.8109V16.9571H28.5184C29.5389 16.9571 29.5374 15.4155 28.5184 15.4155H26.9769C26.5514 15.4155 26.2061 15.7608 26.2061 16.1863V20.0401H23.8938C23.4684 20.0401 23.1231 20.3854 23.1231 20.8109V23.1232H22.3523C21.3318 23.1232 21.3333 24.6648 22.3523 24.6648H23.8938C24.3193 24.6648 24.6646 24.3195 24.6646 23.894V21.5817H26.9769C27.4024 21.5817 27.7477 21.2364 27.7477 20.8109Z" fill="white"/>
<path d="M4.6246 16.1862C4.6246 16.4159 4.6246 21.0343 4.6246 20.8108C4.6246 21.8313 6.16614 21.8298 6.16614 20.8108V18.4985H8.47845C9.49895 18.4985 9.4974 16.957 8.47845 16.957H6.16614V16.1862C6.16614 15.1657 4.6246 15.1672 4.6246 16.1862Z" fill="white"/>
</svg>
