<svg width="37" height="37" viewBox="0 0 37 37" fill="none" xmlns="http://www.w3.org/2000/svg">
<g clip-path="url(#clip0_76_3211)">
<path d="M21.4227 18.2181C20.7433 16.2024 18.5584 15.119 16.5426 15.7985C14.6534 16.4353 13.5624 18.4086 14.0277 20.3473C15.4142 25.168 20.486 29.4941 25.131 33.17C25.4646 33.4342 25.9491 33.378 26.2134 33.0444C26.4775 32.7109 26.4214 32.2264 26.0878 31.9621C21.6291 28.4341 16.7685 24.3036 15.5082 19.922C15.1555 18.6946 15.8646 17.4137 17.092 17.061C18.3194 16.7083 19.6003 17.4174 19.953 18.6448C20.7942 21.572 24.977 25.1895 28.9565 28.3385C29.2901 28.6027 29.7746 28.5465 30.0388 28.2129C30.303 27.8794 30.2468 27.3949 29.9132 27.1306C27.8118 25.4714 22.247 21.0682 21.4227 18.2181Z" fill="white"/>
<path d="M27.2618 16.2321C25.5871 11.0975 20.1612 8.19701 14.9614 9.65667C9.64522 11.182 6.57221 16.7283 8.09767 22.0444C8.09875 22.0482 8.09983 22.052 8.10092 22.0558C9.36581 26.4497 6.65425 27.6683 5.78996 27.9364C5.38409 28.064 5.15856 28.4965 5.28617 28.9024C5.41377 29.3082 5.84628 29.5337 6.25215 29.4061C8.60781 28.6697 10.8957 26.1924 9.58145 21.629C8.28586 17.132 10.8811 12.4364 15.3779 11.1408C15.3803 11.1402 15.3827 11.1394 15.385 11.1388C19.8313 9.88899 24.4639 12.4089 25.8305 16.8206C25.8487 16.8807 25.8747 16.9382 25.9076 16.9917C25.9877 17.1242 26.1526 17.403 31.1041 21.421C31.4343 21.6894 31.9196 21.6394 32.188 21.3093C32.4564 20.9792 32.4064 20.4938 32.0763 20.2254C30.2768 18.765 27.6469 16.5942 27.2618 16.2321Z" fill="white"/>
<path d="M24.387 17.3661C23.323 13.692 19.4885 11.5699 15.8102 12.6194C12.1986 13.7344 10.1023 17.4926 11.0512 21.1515C12.6072 28.2384 11.444 29.8745 8.25179 30.8729C7.84593 31.0005 7.62039 31.433 7.748 31.8389C7.87561 32.2447 8.30812 32.4703 8.71398 32.3426C13.1741 30.9561 14.1432 28.0412 12.5656 20.8202C11.7991 17.9569 13.4195 14.997 16.2446 14.0999C19.1072 13.2873 22.0886 14.9394 22.9172 17.7975C23.2253 18.8482 24.0434 20.2902 30.3523 25.2835C30.6859 25.5476 31.1704 25.4914 31.4346 25.1579C31.6988 24.8243 31.6426 24.3398 31.309 24.0755C25.5825 19.5461 24.6026 18.1118 24.387 17.3661Z" fill="white"/>
<path d="M26.5069 28.0888C23.9001 26.1107 19.537 22.8014 18.4632 19.0699C18.3387 18.6631 17.9079 18.4343 17.5011 18.5589C17.1043 18.6803 16.875 19.0944 16.9826 19.4952C18.1966 23.7196 22.8155 27.223 25.5748 29.3167C26.1355 29.7205 26.6754 30.1524 27.1924 30.6109C27.4984 30.9065 27.9861 30.898 28.2817 30.592C28.57 30.2935 28.57 29.8202 28.2817 29.5217C27.7175 29.0111 27.125 28.5327 26.5069 28.0888Z" fill="white"/>
<path d="M22.3379 33.4473C21.5593 32.0028 20.1252 31.0288 18.4955 30.8374C15.8764 30.8374 15.4713 35.2898 15.4142 36.1819C15.3879 36.6064 15.7107 36.972 16.1353 36.9984H16.1846C16.592 36.9992 16.9297 36.6825 16.9549 36.2759C17.052 34.6891 17.659 32.3781 18.4955 32.3781C19.6372 32.3781 20.4475 33.4781 21.0977 34.3609C21.3125 34.6671 21.5477 34.9584 21.8017 35.2329C22.1077 35.5285 22.5954 35.52 22.891 35.214C23.1794 34.9155 23.1794 34.4422 22.891 34.1437C22.6917 33.9238 22.5069 33.6912 22.3379 33.4473Z" fill="white"/>
<path d="M15.3789 26.7517C15.2341 26.3517 14.7924 26.1448 14.3924 26.2896C14.0161 26.4258 13.8068 26.8275 13.9107 27.2139C14.5701 29.2738 13.2744 33.3164 11.3255 33.9496C10.9195 34.0767 10.6934 34.5088 10.8204 34.9148C10.9475 35.3208 11.3797 35.547 11.7857 35.4199C11.791 35.4183 11.7963 35.4165 11.8016 35.4147C14.7657 34.4596 16.1954 29.3108 15.3789 26.7517Z" fill="white"/>
<path d="M31.8283 16.2384C30.8654 15.9303 30.1089 14.6978 29.2323 13.2911C27.3774 10.293 24.8337 6.18726 17.7252 6.18726C10.4963 6.19578 4.63824 12.0538 4.62979 19.2827C4.62979 19.7082 4.9747 20.0531 5.40014 20.0531C5.82557 20.0531 6.17048 19.7082 6.17048 19.2827C6.17727 12.904 11.3465 7.73473 17.7253 7.72794C23.9756 7.72794 26.1649 11.2622 27.9243 14.1031C28.9597 15.7747 29.8532 17.2183 31.3538 17.7051C31.757 17.8409 32.1939 17.6242 32.3298 17.2211C32.4656 16.8179 32.2489 16.381 31.8458 16.2451C31.8405 16.2433 31.8352 16.2417 31.8299 16.2399L31.8283 16.2384Z" fill="white"/>
<path d="M6.1704 25.4451C6.59584 25.4451 6.94075 25.1002 6.94068 24.6747C6.94068 24.5549 6.91273 24.4368 6.85907 24.3297C6.53034 23.7135 6.29801 23.0505 6.1704 22.3638C6.1704 21.9384 5.82549 21.5935 5.40006 21.5935C4.97463 21.5935 4.62971 21.9384 4.62971 22.3638C4.75335 23.2929 5.04193 24.1923 5.48166 25.0199C5.61238 25.2805 5.87893 25.4451 6.1704 25.4451Z" fill="white"/>
<path d="M5.76989 9.15605C6.13315 9.37747 6.60718 9.26257 6.8286 8.89932C6.82903 8.8986 6.82947 8.89795 6.82983 8.89722C7.49849 7.7941 10.7923 4.64657 16.9549 4.64657C22.8771 4.64657 27.0908 7.6462 27.8503 8.89722C28.0711 9.26098 28.545 9.37682 28.9087 9.15605C29.2725 8.93528 29.3883 8.46139 29.1676 8.09763C28.1107 6.35668 23.4441 3.10596 16.9549 3.10596C10.0544 3.10596 6.35536 6.70954 5.51106 8.09915C5.29116 8.46255 5.407 8.93536 5.76989 9.15605Z" fill="white"/>
<path d="M10.3301 3.0381C10.6829 2.88406 10.9818 2.72995 11.2653 2.57591C12.4239 1.99203 13.2573 1.56523 16.9549 1.56523C19.4515 1.42765 21.9486 1.82745 24.2775 2.73768C24.5718 2.84709 24.8676 2.95642 25.1773 3.06273C25.258 3.09075 25.3429 3.10534 25.4284 3.10584C25.8538 3.10664 26.1993 2.76238 26.2001 2.33694C26.2007 2.0072 25.9914 1.7137 25.6795 1.60682C25.3806 1.50362 25.0971 1.39884 24.8136 1.29867C22.3135 0.323661 19.6351 -0.110583 16.9549 0.0246085C12.8815 0.0246085 11.8616 0.548402 10.5674 1.21244C10.3071 1.34648 10.0298 1.48824 9.70624 1.63304C9.31092 1.79018 9.11781 2.23808 9.27489 2.63339C9.43203 3.02871 9.87993 3.22182 10.2752 3.06475C10.2955 3.05673 10.3153 3.04785 10.3348 3.0381H10.3301Z" fill="white"/>
<path d="M30.8561 13.3543C31.0009 13.7543 31.4426 13.9612 31.8426 13.8164C32.2188 13.6802 32.4282 13.2786 32.3243 12.8921C31.8872 11.7604 31.3451 10.672 30.7051 9.6414C30.4822 9.27894 30.0076 9.16577 29.6452 9.38871C29.2827 9.61164 29.1695 10.0862 29.3925 10.4486C29.9659 11.3717 30.4558 12.3441 30.8561 13.3543Z" fill="white"/>
<path d="M25.6041 33.3365C25.4307 33.3363 25.2624 33.2777 25.1265 33.1701C20.4815 29.4926 15.4143 25.168 14.0277 20.3474C13.5313 18.2789 14.8056 16.1997 16.8741 15.7032C18.8127 15.2379 20.786 16.3289 21.4228 18.2182C22.2424 21.0668 27.8072 25.4715 29.8963 27.1292C30.238 27.3828 30.3094 27.8653 30.0559 28.2069C29.8023 28.5485 29.3198 28.62 28.9782 28.3664C28.9656 28.357 28.9532 28.3472 28.9411 28.3371C24.9616 25.188 20.7757 21.5721 19.9361 18.6434C19.5834 17.4164 18.3028 16.7077 17.0759 17.0604C15.8489 17.4131 15.1402 18.6937 15.4929 19.9206C16.7532 24.3021 21.6138 28.4326 26.071 31.9607C26.4045 32.2248 26.4608 32.7093 26.1967 33.0428C26.0504 33.2276 25.8275 33.3352 25.5918 33.3349L25.6041 33.3365Z" fill="white"/>
<path d="M6.01637 29.4371C5.59093 29.4363 5.24667 29.0908 5.24747 28.6654C5.24805 28.3294 5.46636 28.0326 5.78686 27.9319C6.64805 27.6623 9.35961 26.4436 8.09782 22.0513C6.56898 16.7361 9.63837 11.1879 14.9535 9.65908C14.9561 9.65836 14.9588 9.65757 14.9614 9.65685C20.1618 8.19618 25.5886 11.0969 27.2634 16.2323C27.647 16.5928 30.2769 18.7651 32.0763 20.2257C32.3983 20.5037 32.4339 20.9902 32.1559 21.3122C31.8897 21.6204 31.4296 21.6681 31.1057 21.4212C26.1526 17.4017 25.9878 17.1228 25.9076 16.9903C25.8758 16.937 25.8504 16.8801 25.8321 16.8208C24.4655 12.4083 19.8319 9.88816 15.3851 11.139C10.8872 12.4313 8.28869 17.1251 9.58103 21.6229C9.58117 21.6234 9.58131 21.624 9.58146 21.6245C10.8941 26.1864 8.60775 28.6652 6.25057 29.4017C6.17481 29.4256 6.09581 29.4376 6.01637 29.4371Z" fill="white"/>
<path d="M8.48137 32.378C8.05593 32.3772 7.71167 32.0317 7.71246 31.6063C7.71304 31.2703 7.93136 30.9735 8.25186 30.8728C11.4441 29.8745 12.6057 28.2352 11.0496 21.1514C10.1016 17.4926 12.1975 13.735 15.8087 12.6193C19.487 11.5724 23.3201 13.6935 24.387 17.366C24.6011 18.1102 25.5794 19.5445 31.2968 24.0709C31.6384 24.3245 31.7098 24.807 31.4563 25.1485C31.2027 25.4902 30.7202 25.5616 30.3787 25.3081C30.366 25.2987 30.3536 25.2889 30.3415 25.2787C24.0249 20.284 23.2068 18.8404 22.9064 17.7928C22.0808 14.9316 19.0958 13.2779 16.2323 14.0952C13.4041 14.993 11.7835 17.9578 12.5548 20.8232C14.1401 28.0458 13.171 30.953 8.70322 32.3457C8.63129 32.3674 8.55654 32.3783 8.48137 32.378Z" fill="white"/>
<path d="M27.7394 30.8375C27.535 30.8378 27.3387 30.757 27.194 30.6125C26.6769 30.1537 26.137 29.7213 25.5763 29.3169C22.8171 27.2231 18.1982 23.7197 16.9842 19.4953C16.8597 19.0885 17.0885 18.6578 17.4953 18.5332C17.9021 18.4087 18.3328 18.6375 18.4574 19.0443C18.46 19.0528 18.4624 19.0614 18.4647 19.07C19.5431 22.8014 23.9001 26.1107 26.5069 28.0889C27.1253 28.5335 27.7184 29.0123 28.2832 29.5232C28.5836 29.8245 28.5828 30.3122 28.2815 30.6126C28.1375 30.7562 27.9427 30.837 27.7394 30.8375Z" fill="white"/>
<path d="M16.1846 36.9999H16.1353C15.7107 36.9735 15.3879 36.6079 15.4143 36.1833C15.4697 35.2913 15.8764 30.8389 18.4956 30.8389C20.1286 31.0287 21.5663 32.0034 22.3471 33.4503C22.5152 33.6945 22.6994 33.9271 22.8987 34.1466C23.1943 34.4526 23.1857 34.9403 22.8797 35.2359C22.5812 35.5243 22.108 35.5243 21.8094 35.2359C21.5548 34.9624 21.3196 34.6715 21.1054 34.3655C20.449 33.4781 19.6387 32.378 18.4955 32.378C17.6604 32.378 17.0519 34.689 16.9549 36.2774C16.9297 36.684 16.5921 37.0007 16.1846 36.9999Z" fill="white"/>
<path d="M11.5627 35.4594C11.1373 35.4602 10.7917 35.116 10.7909 34.6906C10.7902 34.3554 11.0064 34.0583 11.3254 33.9558C13.2728 33.3226 14.5608 29.2799 13.9106 27.2201C13.7583 26.8228 13.9569 26.3774 14.3541 26.2251C14.7513 26.0728 15.1968 26.2714 15.3491 26.6686C15.3603 26.6978 15.3697 26.7276 15.3773 26.7579C16.1954 29.3169 14.7611 34.4611 11.7999 35.4286C11.7229 35.4512 11.6429 35.4616 11.5627 35.4594Z" fill="white"/>
<path d="M5.40014 20.053C4.9747 20.053 4.62979 19.7081 4.62979 19.2827C4.63831 12.0538 10.4963 6.19571 17.7252 6.18726C24.8337 6.18726 27.3773 10.293 29.2338 13.2911C30.1104 14.7039 30.8668 15.9256 31.8298 16.2384C32.2358 16.3655 32.4619 16.7977 32.3349 17.2037C32.2079 17.6097 31.7756 17.8358 31.3696 17.7088C31.3643 17.7071 31.359 17.7054 31.3537 17.7036C29.8531 17.2167 28.9596 15.7731 27.9243 14.1016C26.1648 11.2622 23.9756 7.72794 17.7252 7.72794C11.3465 7.73473 6.1772 12.904 6.17041 19.2827C6.17041 19.7081 5.82557 20.053 5.40014 20.053Z" fill="white"/>
<path d="M6.17041 25.4452C5.87836 25.4457 5.61108 25.2811 5.48022 25.0199C5.04064 24.1924 4.75263 23.2929 4.62979 22.3639C4.62979 21.9384 4.9747 21.5935 5.40014 21.5935C5.82557 21.5935 6.17048 21.9384 6.17048 22.3639C6.29845 23.0504 6.5307 23.7134 6.85915 24.3297C7.04973 24.7101 6.89591 25.1729 6.51554 25.3635C6.40836 25.4172 6.29022 25.4452 6.17041 25.4452Z" fill="white"/>
<path d="M28.5097 9.2685C28.2401 9.26864 27.99 9.12782 27.8503 8.89722C27.0923 7.6462 22.8771 4.64657 16.9549 4.64657C10.7924 4.64657 7.49849 7.7941 6.82831 8.89722C6.62076 9.26857 6.15141 9.40138 5.78007 9.19375C5.40873 8.9862 5.27592 8.51686 5.48355 8.14551C5.49265 8.12919 5.50239 8.11323 5.51265 8.09763C6.35536 6.70954 10.0545 3.10596 16.955 3.10596C23.4442 3.10596 28.1108 6.35668 29.1676 8.09915C29.3881 8.46305 29.2716 8.93673 28.9077 9.15706C28.7876 9.22979 28.6501 9.26835 28.5097 9.2685Z" fill="white"/>
<path d="M25.4284 3.10595C25.343 3.10609 25.2582 3.09208 25.1773 3.06435C24.8692 2.95805 24.5704 2.84712 24.2761 2.7393C21.9477 1.82893 19.4512 1.42855 16.9549 1.56533C13.2574 1.56533 12.4239 1.99207 11.2731 2.58216C10.9896 2.72854 10.6892 2.88106 10.3379 3.04435C9.94825 3.21666 9.49263 3.04045 9.32032 2.65069C9.14801 2.261 9.32422 1.80538 9.71398 1.63307C10.039 1.48669 10.3148 1.345 10.5768 1.21096C11.8617 0.548511 12.8831 0.0246448 16.955 0.0246448C19.6344 -0.111991 22.3123 0.320664 24.8123 1.29416C25.0957 1.39894 25.3793 1.50525 25.6781 1.60231C26.0832 1.7323 26.3062 2.16611 26.1762 2.57118C26.0722 2.89486 25.7684 3.11223 25.4284 3.10595Z" fill="white"/>
<path d="M31.591 13.8905C31.256 13.8903 30.9595 13.6736 30.8576 13.3544C30.4574 12.3422 29.9676 11.3677 29.394 10.4426C29.171 10.0801 29.2841 9.60556 29.6467 9.38262C30.0091 9.15969 30.4837 9.27278 30.7066 9.63531C31.346 10.6661 31.8876 11.7544 32.3243 12.886C32.4536 13.2913 32.2299 13.7248 31.8246 13.854C31.7491 13.8782 31.6703 13.8905 31.591 13.8905Z" fill="white"/>
</g>
<defs>
<clipPath id="clip0_76_3211">
<rect width="37" height="37" fill="white"/>
</clipPath>
</defs>
</svg>
