<svg width="173" height="357" viewBox="0 0 173 357" fill="none" xmlns="http://www.w3.org/2000/svg">
<g clip-path="url(#clip0_45_5910)">
<path d="M172.769 0.230713H0.230591V356.769H172.769V0.230713Z" fill="#2E5985" stroke="white" stroke-width="0.5" stroke-miterlimit="10"/>
<path d="M107.236 83.9126H65.7637C64.9132 83.9126 64.2236 84.6027 64.2236 85.4541V113.09C64.2236 113.941 64.9132 114.631 65.7637 114.631H107.236C108.087 114.631 108.776 113.941 108.776 113.09V85.4541C108.776 84.6027 108.087 83.9126 107.236 83.9126Z" fill="#237EB0" stroke="white" stroke-width="0.5" stroke-miterlimit="10"/>
<path d="M106.757 85.6848H66.2526V112.859H106.757V85.6848Z" fill="white" stroke="white" stroke-width="0.5" stroke-miterlimit="10"/>
<path d="M116.375 87.4755V99.2072C116.375 100.563 117.474 101.662 118.829 101.662H124.731C126.086 101.662 127.184 100.563 127.184 99.2072V87.4755C127.184 86.1195 126.086 85.0203 124.731 85.0203H118.829C117.474 85.0203 116.375 86.1195 116.375 87.4755Z" fill="#2CB6BF" stroke="white" stroke-width="0.5" stroke-miterlimit="10"/>
<path d="M126.824 84.4571C126.952 84.4571 127.055 84.3538 127.055 84.2264C127.055 84.0989 126.952 83.9956 126.824 83.9956C126.697 83.9956 126.594 84.0989 126.594 84.2264C126.594 84.3538 126.697 84.4571 126.824 84.4571Z" stroke="white" stroke-width="0.5" stroke-miterlimit="10"/>
<path d="M116.938 84.4571C117.065 84.4571 117.169 84.3538 117.169 84.2264C117.169 84.0989 117.065 83.9956 116.938 83.9956C116.811 83.9956 116.707 84.0989 116.707 84.2264C116.707 84.3538 116.811 84.4571 116.938 84.4571Z" stroke="white" stroke-width="0.5" stroke-miterlimit="10"/>
<path d="M126.723 102.622C126.85 102.622 126.953 102.519 126.953 102.392C126.953 102.264 126.85 102.161 126.723 102.161C126.595 102.161 126.492 102.264 126.492 102.392C126.492 102.519 126.595 102.622 126.723 102.622Z" stroke="white" stroke-width="0.5" stroke-miterlimit="10"/>
<path d="M116.827 102.622C116.955 102.622 117.058 102.519 117.058 102.392C117.058 102.264 116.955 102.161 116.827 102.161C116.7 102.161 116.597 102.264 116.597 102.392C116.597 102.519 116.7 102.622 116.827 102.622Z" stroke="white" stroke-width="0.5" stroke-miterlimit="10"/>
<path d="M0.230591 119.329H172.769" stroke="white" stroke-width="0.5" stroke-miterlimit="10"/>
<path d="M172.769 238.686H0.230591" stroke="white" stroke-width="0.5" stroke-miterlimit="10"/>
<path d="M83.2122 28.0232H47.9925C47.1419 28.0232 46.4524 28.7133 46.4524 29.5647V44.8408C46.4524 45.6921 47.1419 46.3822 47.9925 46.3822H83.2122C84.0628 46.3822 84.7524 45.6921 84.7524 44.8408V29.5647C84.7524 28.7133 84.0628 28.0232 83.2122 28.0232Z" fill="#2CB6BF" stroke="white" stroke-width="0.5" stroke-miterlimit="10"/>
<path d="M80.335 28.1063L80.1874 28.3093V29.5831V33.4321L80.1782 46.2899H82.6221L83.4798 46.2438L84.0608 45.9946L84.5588 45.5792L84.6879 44.6931V42.3578V35.149V29.6846L84.4205 28.6139L83.7103 28.1063L81.7829 28.0232L80.335 28.1063Z" fill="#227EB0"/>
<path d="M80.0952 46.3822V28.0232" stroke="white" stroke-width="0.5" stroke-miterlimit="10"/>
<path d="M84.7524 36.3304H80.0952V38.075H84.7524V36.3304Z" stroke="white" stroke-width="0.5" stroke-miterlimit="10"/>
<path d="M82.4192 42.884C82.8725 42.884 83.2399 42.5162 83.2399 42.0625C83.2399 41.6088 82.8725 41.241 82.4192 41.241C81.9659 41.241 81.5984 41.6088 81.5984 42.0625C81.5984 42.5162 81.9659 42.884 82.4192 42.884Z" stroke="white" stroke-width="0.5" stroke-miterlimit="10"/>
<path d="M83.2122 28.0232H47.9925C47.1419 28.0232 46.4524 28.7133 46.4524 29.5647V44.8408C46.4524 45.6921 47.1419 46.3822 47.9925 46.3822H83.2122C84.0628 46.3822 84.7524 45.6921 84.7524 44.8408V29.5647C84.7524 28.7133 84.0628 28.0232 83.2122 28.0232Z" stroke="white" stroke-width="0.5" stroke-miterlimit="10"/>
<path d="M40.9467 28.0232H5.727C4.87642 28.0232 4.18689 28.7133 4.18689 29.5647V44.8408C4.18689 45.6921 4.87642 46.3822 5.727 46.3822H40.9467C41.7973 46.3822 42.4869 45.6921 42.4869 44.8408V29.5647C42.4869 28.7133 41.7973 28.0232 40.9467 28.0232Z" fill="#2CB6BF" stroke="white" stroke-width="0.5" stroke-miterlimit="10"/>
<path d="M38.0694 28.1063L37.9311 28.3093V29.5831V33.4321L37.9219 46.2899H40.3565L41.2142 46.2438L41.8044 45.9946L42.3024 45.5792L42.4316 44.6931V42.3578V35.149V29.6846L42.1549 28.6139L41.4448 28.1063L39.5265 28.0232L38.0694 28.1063Z" fill="#227EB0"/>
<path d="M37.8296 46.3822V28.0232" stroke="white" stroke-width="0.5" stroke-miterlimit="10"/>
<path d="M42.4868 36.3304H37.8296V38.075H42.4868V36.3304Z" stroke="white" stroke-width="0.5" stroke-miterlimit="10"/>
<path d="M40.1628 42.884C40.6161 42.884 40.9836 42.5162 40.9836 42.0625C40.9836 41.6088 40.6161 41.241 40.1628 41.241C39.7095 41.241 39.342 41.6088 39.342 42.0625C39.342 42.5162 39.7095 42.884 40.1628 42.884Z" stroke="white" stroke-width="0.5" stroke-miterlimit="10"/>
<path d="M40.9467 28.0232H5.727C4.87642 28.0232 4.18689 28.7133 4.18689 29.5647V44.8408C4.18689 45.6921 4.87642 46.3822 5.727 46.3822H40.9467C41.7973 46.3822 42.4869 45.6921 42.4869 44.8408V29.5647C42.4869 28.7133 41.7973 28.0232 40.9467 28.0232Z" stroke="white" stroke-width="0.5" stroke-miterlimit="10"/>
<path d="M125.469 28.0232H90.2489C89.3983 28.0232 88.7087 28.7133 88.7087 29.5647V44.8408C88.7087 45.6921 89.3983 46.3822 90.2489 46.3822H125.469C126.319 46.3822 127.009 45.6921 127.009 44.8408V29.5647C127.009 28.7133 126.319 28.0232 125.469 28.0232Z" fill="#2CB6BF" stroke="white" stroke-width="0.5" stroke-miterlimit="10"/>
<path d="M122.591 28.1063L122.453 28.3093V29.5831V33.4321L122.434 46.2899H124.878L125.736 46.2438L126.317 45.9946L126.824 45.5792L126.953 44.6931V42.3578V35.149V29.6846L126.677 28.6139L125.967 28.1063L124.048 28.0232L122.591 28.1063Z" fill="#227EB0"/>
<path d="M122.351 46.3822V28.0232" stroke="white" stroke-width="0.5" stroke-miterlimit="10"/>
<path d="M127.009 36.3304H122.351V38.075H127.009V36.3304Z" stroke="white" stroke-width="0.5" stroke-miterlimit="10"/>
<path d="M124.676 42.884C125.129 42.884 125.496 42.5162 125.496 42.0625C125.496 41.6088 125.129 41.241 124.676 41.241C124.222 41.241 123.855 41.6088 123.855 42.0625C123.855 42.5162 124.222 42.884 124.676 42.884Z" stroke="white" stroke-width="0.5" stroke-miterlimit="10"/>
<path d="M125.469 28.0232H90.2489C89.3983 28.0232 88.7087 28.7133 88.7087 29.5647V44.8408C88.7087 45.6921 89.3983 46.3822 90.2489 46.3822H125.469C126.319 46.3822 127.009 45.6921 127.009 44.8408V29.5647C127.009 28.7133 126.319 28.0232 125.469 28.0232Z" stroke="white" stroke-width="0.5" stroke-miterlimit="10"/>
<path d="M167.734 28.0232H132.514C131.664 28.0232 130.974 28.7133 130.974 29.5647V44.8408C130.974 45.6921 131.664 46.3822 132.514 46.3822H167.734C168.585 46.3822 169.274 45.6921 169.274 44.8408V29.5647C169.274 28.7133 168.585 28.0232 167.734 28.0232Z" fill="#2CB6BF" stroke="white" stroke-width="0.5" stroke-miterlimit="10"/>
<path d="M164.857 28.1063L164.709 28.3093V29.5831V33.4321L164.7 46.2899H167.144L168.002 46.2438L168.583 45.9946L169.081 45.5792L169.21 44.6931V42.3578V35.149V29.6846L168.942 28.6139L168.223 28.1063L166.305 28.0232L164.857 28.1063Z" fill="#227EB0"/>
<path d="M164.608 46.3822V28.0232" stroke="white" stroke-width="0.5" stroke-miterlimit="10"/>
<path d="M169.265 36.3304H164.608V38.075H169.265V36.3304Z" stroke="white" stroke-width="0.5" stroke-miterlimit="10"/>
<path d="M166.941 42.884C167.394 42.884 167.762 42.5162 167.762 42.0625C167.762 41.6088 167.394 41.241 166.941 41.241C166.488 41.241 166.12 41.6088 166.12 42.0625C166.12 42.5162 166.488 42.884 166.941 42.884Z" stroke="white" stroke-width="0.5" stroke-miterlimit="10"/>
<path d="M167.734 28.0232H132.514C131.664 28.0232 130.974 28.7133 130.974 29.5647V44.8408C130.974 45.6921 131.664 46.3822 132.514 46.3822H167.734C168.585 46.3822 169.274 45.6921 169.274 44.8408V29.5647C169.274 28.7133 168.585 28.0232 167.734 28.0232Z" stroke="white" stroke-width="0.5" stroke-miterlimit="10"/>
<path d="M83.2122 51.2189H47.9925C47.1419 51.2189 46.4524 51.909 46.4524 52.7603V68.0365C46.4524 68.8878 47.1419 69.5779 47.9925 69.5779H83.2122C84.0628 69.5779 84.7524 68.8878 84.7524 68.0365V52.7603C84.7524 51.909 84.0628 51.2189 83.2122 51.2189Z" fill="#2CB6BF" stroke="white" stroke-width="0.5" stroke-miterlimit="10"/>
<path d="M80.335 51.3019L80.1874 51.505V52.7788V56.6278L80.1782 69.4949H82.6221L83.4798 69.4395L84.0608 69.1902L84.5588 68.7749L84.6879 67.898V65.5535V58.3447V52.8896L84.4205 51.8096L83.7103 51.3019L81.7829 51.2189L80.335 51.3019Z" fill="#227EB0"/>
<path d="M80.0952 69.5779V51.2189" stroke="white" stroke-width="0.5" stroke-miterlimit="10"/>
<path d="M84.7524 59.5261H80.0952V61.2706H84.7524V59.5261Z" stroke="white" stroke-width="0.5" stroke-miterlimit="10"/>
<path d="M82.4192 66.0796C82.8725 66.0796 83.2399 65.7118 83.2399 65.2581C83.2399 64.8044 82.8725 64.4366 82.4192 64.4366C81.9659 64.4366 81.5984 64.8044 81.5984 65.2581C81.5984 65.7118 81.9659 66.0796 82.4192 66.0796Z" stroke="white" stroke-width="0.5" stroke-miterlimit="10"/>
<path d="M83.2122 51.2189H47.9925C47.1419 51.2189 46.4524 51.909 46.4524 52.7603V68.0365C46.4524 68.8878 47.1419 69.5779 47.9925 69.5779H83.2122C84.0628 69.5779 84.7524 68.8878 84.7524 68.0365V52.7603C84.7524 51.909 84.0628 51.2189 83.2122 51.2189Z" stroke="white" stroke-width="0.5" stroke-miterlimit="10"/>
<path d="M40.9467 51.2189H5.727C4.87642 51.2189 4.18689 51.909 4.18689 52.7603V68.0365C4.18689 68.8878 4.87642 69.5779 5.727 69.5779H40.9467C41.7973 69.5779 42.4869 68.8878 42.4869 68.0365V52.7603C42.4869 51.909 41.7973 51.2189 40.9467 51.2189Z" fill="#2CB6BF" stroke="white" stroke-width="0.5" stroke-miterlimit="10"/>
<path d="M38.0694 51.3019L37.9311 51.505V52.7788V56.6278L37.9219 69.4949H40.3565L41.2142 69.4395L41.8044 69.1902L42.3024 68.7749L42.4316 67.898V65.5535V58.3447V52.8896L42.1549 51.8096L41.4448 51.3019L39.5265 51.2189L38.0694 51.3019Z" fill="#227EB0"/>
<path d="M37.8296 69.5779V51.2189" stroke="white" stroke-width="0.5" stroke-miterlimit="10"/>
<path d="M42.4868 59.5261H37.8296V61.2706H42.4868V59.5261Z" stroke="white" stroke-width="0.5" stroke-miterlimit="10"/>
<path d="M40.1628 66.0796C40.6161 66.0796 40.9836 65.7118 40.9836 65.2581C40.9836 64.8044 40.6161 64.4366 40.1628 64.4366C39.7095 64.4366 39.342 64.8044 39.342 65.2581C39.342 65.7118 39.7095 66.0796 40.1628 66.0796Z" stroke="white" stroke-width="0.5" stroke-miterlimit="10"/>
<path d="M40.9467 51.2189H5.727C4.87642 51.2189 4.18689 51.909 4.18689 52.7603V68.0365C4.18689 68.8878 4.87642 69.5779 5.727 69.5779H40.9467C41.7973 69.5779 42.4869 68.8878 42.4869 68.0365V52.7603C42.4869 51.909 41.7973 51.2189 40.9467 51.2189Z" stroke="white" stroke-width="0.5" stroke-miterlimit="10"/>
<path d="M125.469 51.2189H90.2489C89.3983 51.2189 88.7087 51.909 88.7087 52.7603V68.0365C88.7087 68.8878 89.3983 69.5779 90.2489 69.5779H125.469C126.319 69.5779 127.009 68.8878 127.009 68.0365V52.7603C127.009 51.909 126.319 51.2189 125.469 51.2189Z" fill="#2CB6BF" stroke="white" stroke-width="0.5" stroke-miterlimit="10"/>
<path d="M122.591 51.3019L122.453 51.505V52.7788V56.6278L122.434 69.4949H124.878L125.736 69.4395L126.317 69.1902L126.824 68.7749L126.953 67.898V65.5535V58.3447V52.8896L126.677 51.8096L125.967 51.3019L124.048 51.2189L122.591 51.3019Z" fill="#227EB0"/>
<path d="M122.351 69.5779V51.2189" stroke="white" stroke-width="0.5" stroke-miterlimit="10"/>
<path d="M127.009 59.5261H122.351V61.2706H127.009V59.5261Z" stroke="white" stroke-width="0.5" stroke-miterlimit="10"/>
<path d="M124.676 66.0796C125.129 66.0796 125.496 65.7118 125.496 65.2581C125.496 64.8044 125.129 64.4366 124.676 64.4366C124.222 64.4366 123.855 64.8044 123.855 65.2581C123.855 65.7118 124.222 66.0796 124.676 66.0796Z" stroke="white" stroke-width="0.5" stroke-miterlimit="10"/>
<path d="M125.469 51.2189H90.2489C89.3983 51.2189 88.7087 51.909 88.7087 52.7603V68.0365C88.7087 68.8878 89.3983 69.5779 90.2489 69.5779H125.469C126.319 69.5779 127.009 68.8878 127.009 68.0365V52.7603C127.009 51.909 126.319 51.2189 125.469 51.2189Z" stroke="white" stroke-width="0.5" stroke-miterlimit="10"/>
<path d="M167.734 51.2189H132.514C131.664 51.2189 130.974 51.909 130.974 52.7603V68.0365C130.974 68.8878 131.664 69.5779 132.514 69.5779H167.734C168.585 69.5779 169.274 68.8878 169.274 68.0365V52.7603C169.274 51.909 168.585 51.2189 167.734 51.2189Z" fill="#2CB6BF" stroke="white" stroke-width="0.5" stroke-miterlimit="10"/>
<path d="M164.857 51.3019L164.709 51.505V52.7788V56.6278L164.7 69.4949H167.144L168.002 69.4395L168.583 69.1902L169.081 68.7749L169.21 67.898V65.5535V58.3447V52.8896L168.942 51.8096L168.223 51.3019L166.305 51.2189L164.857 51.3019Z" fill="#227EB0"/>
<path d="M164.608 69.5779V51.2189" stroke="white" stroke-width="0.5" stroke-miterlimit="10"/>
<path d="M169.265 59.5261H164.608V61.2706H169.265V59.5261Z" stroke="white" stroke-width="0.5" stroke-miterlimit="10"/>
<path d="M166.941 66.0796C167.394 66.0796 167.762 65.7118 167.762 65.2581C167.762 64.8044 167.394 64.4366 166.941 64.4366C166.488 64.4366 166.12 64.8044 166.12 65.2581C166.12 65.7118 166.488 66.0796 166.941 66.0796Z" stroke="white" stroke-width="0.5" stroke-miterlimit="10"/>
<path d="M167.734 51.2189H132.514C131.664 51.2189 130.974 51.909 130.974 52.7603V68.0365C130.974 68.8878 131.664 69.5779 132.514 69.5779H167.734C168.585 69.5779 169.274 68.8878 169.274 68.0365V52.7603C169.274 51.909 168.585 51.2189 167.734 51.2189Z" stroke="white" stroke-width="0.5" stroke-miterlimit="10"/>
<path d="M40.9467 73.8608H5.727C4.87642 73.8608 4.18689 74.551 4.18689 75.4023V90.6784C4.18689 91.5298 4.87642 92.2199 5.727 92.2199H40.9467C41.7973 92.2199 42.4869 91.5298 42.4869 90.6784V75.4023C42.4869 74.551 41.7973 73.8608 40.9467 73.8608Z" fill="#2CB6BF" stroke="white" stroke-width="0.5" stroke-miterlimit="10"/>
<path d="M38.0694 73.9439L37.9311 74.147V75.4208V79.2698L37.9219 92.1276H40.3565L41.2142 92.0814L41.8044 91.8322L42.3024 91.4169L42.4316 90.5308V88.1955V80.9866V75.5315L42.1549 74.4516L41.4448 73.9439L39.5265 73.8608L38.0694 73.9439Z" fill="#227EB0"/>
<path d="M37.8296 92.2199V73.8608" stroke="white" stroke-width="0.5" stroke-miterlimit="10"/>
<path d="M42.4868 82.1681H37.8296V83.9126H42.4868V82.1681Z" stroke="white" stroke-width="0.5" stroke-miterlimit="10"/>
<path d="M40.1628 88.7216C40.6161 88.7216 40.9836 88.3538 40.9836 87.9001C40.9836 87.4464 40.6161 87.0786 40.1628 87.0786C39.7095 87.0786 39.342 87.4464 39.342 87.9001C39.342 88.3538 39.7095 88.7216 40.1628 88.7216Z" stroke="white" stroke-width="0.5" stroke-miterlimit="10"/>
<path d="M40.9467 73.8608H5.727C4.87642 73.8608 4.18689 74.551 4.18689 75.4023V90.6784C4.18689 91.5298 4.87642 92.2199 5.727 92.2199H40.9467C41.7973 92.2199 42.4869 91.5298 42.4869 90.6784V75.4023C42.4869 74.551 41.7973 73.8608 40.9467 73.8608Z" stroke="white" stroke-width="0.5" stroke-miterlimit="10"/>
<path d="M167.734 73.8608H132.514C131.664 73.8608 130.974 74.551 130.974 75.4023V90.6784C130.974 91.5298 131.664 92.2199 132.514 92.2199H167.734C168.585 92.2199 169.274 91.5298 169.274 90.6784V75.4023C169.274 74.551 168.585 73.8608 167.734 73.8608Z" fill="#2CB6BF" stroke="white" stroke-width="0.5" stroke-miterlimit="10"/>
<path d="M164.857 73.9439L164.709 74.147V75.4208V79.2698L164.7 92.1276H167.144L168.002 92.0814L168.583 91.8322L169.081 91.4169L169.21 90.5308V88.1955V80.9866V75.5315L168.942 74.4516L168.223 73.9439L166.305 73.8608L164.857 73.9439Z" fill="#227EB0"/>
<path d="M164.608 92.2199V73.8608" stroke="white" stroke-width="0.5" stroke-miterlimit="10"/>
<path d="M169.265 82.1681H164.608V83.9126H169.265V82.1681Z" stroke="white" stroke-width="0.5" stroke-miterlimit="10"/>
<path d="M166.941 88.7216C167.394 88.7216 167.762 88.3538 167.762 87.9001C167.762 87.4464 167.394 87.0786 166.941 87.0786C166.488 87.0786 166.12 87.4464 166.12 87.9001C166.12 88.3538 166.488 88.7216 166.941 88.7216Z" stroke="white" stroke-width="0.5" stroke-miterlimit="10"/>
<path d="M167.734 73.8608H132.514C131.664 73.8608 130.974 74.551 130.974 75.4023V90.6784C130.974 91.5298 131.664 92.2199 132.514 92.2199H167.734C168.585 92.2199 169.274 91.5298 169.274 90.6784V75.4023C169.274 74.551 168.585 73.8608 167.734 73.8608Z" stroke="white" stroke-width="0.5" stroke-miterlimit="10"/>
<path d="M40.9467 96.4935H5.727C4.87642 96.4935 4.18689 97.1837 4.18689 98.035V113.311C4.18689 114.162 4.87642 114.853 5.727 114.853H40.9467C41.7973 114.853 42.4869 114.162 42.4869 113.311V98.035C42.4869 97.1837 41.7973 96.4935 40.9467 96.4935Z" fill="#2CB6BF" stroke="white" stroke-width="0.5" stroke-miterlimit="10"/>
<path d="M38.0694 96.5766L37.9311 96.7797V98.0535V101.902L37.9219 114.77H40.3565L41.2142 114.714L41.8044 114.465L42.3024 114.05L42.4316 113.173V110.837V103.619V98.1642L42.1549 97.0843L41.4448 96.5766L39.5265 96.4935L38.0694 96.5766Z" fill="#227EB0"/>
<path d="M37.8296 114.853V96.4935" stroke="white" stroke-width="0.5" stroke-miterlimit="10"/>
<path d="M42.4868 104.801H37.8296V106.545H42.4868V104.801Z" stroke="white" stroke-width="0.5" stroke-miterlimit="10"/>
<path d="M40.1628 111.354C40.6161 111.354 40.9836 110.986 40.9836 110.533C40.9836 110.079 40.6161 109.711 40.1628 109.711C39.7095 109.711 39.342 110.079 39.342 110.533C39.342 110.986 39.7095 111.354 40.1628 111.354Z" stroke="white" stroke-width="0.5" stroke-miterlimit="10"/>
<path d="M40.9467 96.4935H5.727C4.87642 96.4935 4.18689 97.1837 4.18689 98.035V113.311C4.18689 114.162 4.87642 114.853 5.727 114.853H40.9467C41.7973 114.853 42.4869 114.162 42.4869 113.311V98.035C42.4869 97.1837 41.7973 96.4935 40.9467 96.4935Z" stroke="white" stroke-width="0.5" stroke-miterlimit="10"/>
<path d="M167.734 96.4935H132.514C131.664 96.4935 130.974 97.1837 130.974 98.035V113.311C130.974 114.162 131.664 114.853 132.514 114.853H167.734C168.585 114.853 169.274 114.162 169.274 113.311V98.035C169.274 97.1837 168.585 96.4935 167.734 96.4935Z" fill="#2CB6BF" stroke="white" stroke-width="0.5" stroke-miterlimit="10"/>
<path d="M164.857 96.5766L164.709 96.7797V98.0535V101.902L164.7 114.77H167.144L168.002 114.714L168.583 114.465L169.081 114.05L169.21 113.173V110.837V103.619V98.1642L168.942 97.0843L168.223 96.5766L166.305 96.4935L164.857 96.5766Z" fill="#227EB0"/>
<path d="M164.608 114.853V96.4935" stroke="white" stroke-width="0.5" stroke-miterlimit="10"/>
<path d="M169.265 104.801H164.608V106.545H169.265V104.801Z" stroke="white" stroke-width="0.5" stroke-miterlimit="10"/>
<path d="M166.941 111.354C167.394 111.354 167.762 110.986 167.762 110.533C167.762 110.079 167.394 109.711 166.941 109.711C166.488 109.711 166.12 110.079 166.12 110.533C166.12 110.986 166.488 111.354 166.941 111.354Z" stroke="white" stroke-width="0.5" stroke-miterlimit="10"/>
<path d="M167.734 96.4935H132.514C131.664 96.4935 130.974 97.1837 130.974 98.035V113.311C130.974 114.162 131.664 114.853 132.514 114.853H167.734C168.585 114.853 169.274 114.162 169.274 113.311V98.035C169.274 97.1837 168.585 96.4935 167.734 96.4935Z" stroke="white" stroke-width="0.5" stroke-miterlimit="10"/>
<path d="M83.2122 124.489H47.9925C47.1419 124.489 46.4524 125.179 46.4524 126.03V141.306C46.4524 142.158 47.1419 142.848 47.9925 142.848H83.2122C84.0628 142.848 84.7524 142.158 84.7524 141.306V126.03C84.7524 125.179 84.0628 124.489 83.2122 124.489Z" fill="#2CB6BF" stroke="white" stroke-width="0.5" stroke-miterlimit="10"/>
<path d="M80.335 124.572L80.1874 124.775V126.049V129.907L80.1782 142.765H82.6221L83.4798 142.719L84.0608 142.47L84.5588 142.045L84.6879 141.168V138.833V131.615V126.16L84.4205 125.08L83.7103 124.572L81.7829 124.489L80.335 124.572Z" fill="#227EB0"/>
<path d="M80.0952 142.857V124.489" stroke="white" stroke-width="0.5" stroke-miterlimit="10"/>
<path d="M84.7524 132.796H80.0952V134.541H84.7524V132.796Z" stroke="white" stroke-width="0.5" stroke-miterlimit="10"/>
<path d="M82.4192 139.35C82.8725 139.35 83.2399 138.982 83.2399 138.528C83.2399 138.075 82.8725 137.707 82.4192 137.707C81.9659 137.707 81.5984 138.075 81.5984 138.528C81.5984 138.982 81.9659 139.35 82.4192 139.35Z" stroke="white" stroke-width="0.5" stroke-miterlimit="10"/>
<path d="M83.2122 124.489H47.9925C47.1419 124.489 46.4524 125.179 46.4524 126.03V141.306C46.4524 142.158 47.1419 142.848 47.9925 142.848H83.2122C84.0628 142.848 84.7524 142.158 84.7524 141.306V126.03C84.7524 125.179 84.0628 124.489 83.2122 124.489Z" stroke="white" stroke-width="0.5" stroke-miterlimit="10"/>
<path d="M40.9467 124.489H5.727C4.87642 124.489 4.18689 125.179 4.18689 126.03V141.306C4.18689 142.158 4.87642 142.848 5.727 142.848H40.9467C41.7973 142.848 42.4869 142.158 42.4869 141.306V126.03C42.4869 125.179 41.7973 124.489 40.9467 124.489Z" fill="#2CB6BF" stroke="white" stroke-width="0.5" stroke-miterlimit="10"/>
<path d="M38.0694 124.572L37.9311 124.775V126.049V129.907L37.9219 142.765H40.3565L41.2142 142.719L41.8044 142.47L42.3024 142.045L42.4316 141.168V138.833V131.615V126.16L42.1549 125.08L41.4448 124.572L39.5265 124.489L38.0694 124.572Z" fill="#227EB0"/>
<path d="M37.8296 142.857V124.489" stroke="white" stroke-width="0.5" stroke-miterlimit="10"/>
<path d="M42.4868 132.796H37.8296V134.541H42.4868V132.796Z" stroke="white" stroke-width="0.5" stroke-miterlimit="10"/>
<path d="M40.1628 139.35C40.6161 139.35 40.9836 138.982 40.9836 138.528C40.9836 138.075 40.6161 137.707 40.1628 137.707C39.7095 137.707 39.342 138.075 39.342 138.528C39.342 138.982 39.7095 139.35 40.1628 139.35Z" stroke="white" stroke-width="0.5" stroke-miterlimit="10"/>
<path d="M40.9467 124.489H5.727C4.87642 124.489 4.18689 125.179 4.18689 126.03V141.306C4.18689 142.158 4.87642 142.848 5.727 142.848H40.9467C41.7973 142.848 42.4869 142.158 42.4869 141.306V126.03C42.4869 125.179 41.7973 124.489 40.9467 124.489Z" stroke="white" stroke-width="0.5" stroke-miterlimit="10"/>
<path d="M125.469 124.489H90.2489C89.3983 124.489 88.7087 125.179 88.7087 126.03V141.306C88.7087 142.158 89.3983 142.848 90.2489 142.848H125.469C126.319 142.848 127.009 142.158 127.009 141.306V126.03C127.009 125.179 126.319 124.489 125.469 124.489Z" fill="#2CB6BF" stroke="white" stroke-width="0.5" stroke-miterlimit="10"/>
<path d="M122.591 124.572L122.453 124.775V126.049V129.907L122.434 142.765H124.878L125.736 142.719L126.317 142.47L126.824 142.045L126.953 141.168V138.833V131.615V126.16L126.677 125.08L125.967 124.572L124.048 124.489L122.591 124.572Z" fill="#227EB0"/>
<path d="M122.351 142.857V124.489" stroke="white" stroke-width="0.5" stroke-miterlimit="10"/>
<path d="M127.009 132.796H122.351V134.541H127.009V132.796Z" stroke="white" stroke-width="0.5" stroke-miterlimit="10"/>
<path d="M124.676 139.35C125.129 139.35 125.496 138.982 125.496 138.528C125.496 138.075 125.129 137.707 124.676 137.707C124.222 137.707 123.855 138.075 123.855 138.528C123.855 138.982 124.222 139.35 124.676 139.35Z" stroke="white" stroke-width="0.5" stroke-miterlimit="10"/>
<path d="M125.469 124.489H90.2489C89.3983 124.489 88.7087 125.179 88.7087 126.03V141.306C88.7087 142.158 89.3983 142.848 90.2489 142.848H125.469C126.319 142.848 127.009 142.158 127.009 141.306V126.03C127.009 125.179 126.319 124.489 125.469 124.489Z" stroke="white" stroke-width="0.5" stroke-miterlimit="10"/>
<path d="M167.734 124.489H132.514C131.664 124.489 130.974 125.179 130.974 126.03V141.306C130.974 142.158 131.664 142.848 132.514 142.848H167.734C168.585 142.848 169.274 142.158 169.274 141.306V126.03C169.274 125.179 168.585 124.489 167.734 124.489Z" fill="#2CB6BF" stroke="white" stroke-width="0.5" stroke-miterlimit="10"/>
<path d="M164.857 124.572L164.709 124.775V126.049V129.907L164.7 142.765H167.144L168.002 142.719L168.583 142.47L169.081 142.045L169.21 141.168V138.833V131.615V126.16L168.942 125.08L168.223 124.572L166.305 124.489L164.857 124.572Z" fill="#227EB0"/>
<path d="M164.608 142.857V124.489" stroke="white" stroke-width="0.5" stroke-miterlimit="10"/>
<path d="M169.265 132.796H164.608V134.541H169.265V132.796Z" stroke="white" stroke-width="0.5" stroke-miterlimit="10"/>
<path d="M166.941 139.35C167.394 139.35 167.762 138.982 167.762 138.528C167.762 138.075 167.394 137.707 166.941 137.707C166.488 137.707 166.12 138.075 166.12 138.528C166.12 138.982 166.488 139.35 166.941 139.35Z" stroke="white" stroke-width="0.5" stroke-miterlimit="10"/>
<path d="M167.734 124.489H132.514C131.664 124.489 130.974 125.179 130.974 126.03V141.306C130.974 142.158 131.664 142.848 132.514 142.848H167.734C168.585 142.848 169.274 142.158 169.274 141.306V126.03C169.274 125.179 168.585 124.489 167.734 124.489Z" stroke="white" stroke-width="0.5" stroke-miterlimit="10"/>
<path d="M83.2122 147.685H47.9925C47.1419 147.685 46.4524 148.375 46.4524 149.226V164.502C46.4524 165.353 47.1419 166.044 47.9925 166.044H83.2122C84.0628 166.044 84.7524 165.353 84.7524 164.502V149.226C84.7524 148.375 84.0628 147.685 83.2122 147.685Z" fill="#2CB6BF" stroke="white" stroke-width="0.5" stroke-miterlimit="10"/>
<path d="M80.335 147.768L80.1874 147.971V149.244V153.103L80.1782 165.961H82.6221L83.4798 165.914L84.0608 165.665L84.5588 165.241L84.6879 164.364V162.028V154.82V149.355L84.4205 148.275L83.7103 147.768L81.7829 147.685L80.335 147.768Z" fill="#227EB0"/>
<path d="M80.0952 166.053V147.685" stroke="white" stroke-width="0.5" stroke-miterlimit="10"/>
<path d="M84.7524 156.001H80.0952V157.746H84.7524V156.001Z" stroke="white" stroke-width="0.5" stroke-miterlimit="10"/>
<path d="M82.4192 162.555C82.8725 162.555 83.2399 162.187 83.2399 161.733C83.2399 161.279 82.8725 160.912 82.4192 160.912C81.9659 160.912 81.5984 161.279 81.5984 161.733C81.5984 162.187 81.9659 162.555 82.4192 162.555Z" stroke="white" stroke-width="0.5" stroke-miterlimit="10"/>
<path d="M83.2122 147.685H47.9925C47.1419 147.685 46.4524 148.375 46.4524 149.226V164.502C46.4524 165.353 47.1419 166.044 47.9925 166.044H83.2122C84.0628 166.044 84.7524 165.353 84.7524 164.502V149.226C84.7524 148.375 84.0628 147.685 83.2122 147.685Z" stroke="white" stroke-width="0.5" stroke-miterlimit="10"/>
<path d="M40.9467 147.685H5.727C4.87642 147.685 4.18689 148.375 4.18689 149.226V164.502C4.18689 165.353 4.87642 166.044 5.727 166.044H40.9467C41.7973 166.044 42.4869 165.353 42.4869 164.502V149.226C42.4869 148.375 41.7973 147.685 40.9467 147.685Z" fill="#2CB6BF" stroke="white" stroke-width="0.5" stroke-miterlimit="10"/>
<path d="M38.0694 147.768L37.9311 147.971V149.244V153.103L37.9219 165.961H40.3565L41.2142 165.914L41.8044 165.665L42.3024 165.241L42.4316 164.364V162.028V154.82V149.355L42.1549 148.275L41.4448 147.768L39.5265 147.685L38.0694 147.768Z" fill="#227EB0"/>
<path d="M37.8296 166.053V147.685" stroke="white" stroke-width="0.5" stroke-miterlimit="10"/>
<path d="M42.4868 156.001H37.8296V157.746H42.4868V156.001Z" stroke="white" stroke-width="0.5" stroke-miterlimit="10"/>
<path d="M40.1628 162.555C40.6161 162.555 40.9836 162.187 40.9836 161.733C40.9836 161.279 40.6161 160.912 40.1628 160.912C39.7095 160.912 39.342 161.279 39.342 161.733C39.342 162.187 39.7095 162.555 40.1628 162.555Z" stroke="white" stroke-width="0.5" stroke-miterlimit="10"/>
<path d="M40.9467 147.685H5.727C4.87642 147.685 4.18689 148.375 4.18689 149.226V164.502C4.18689 165.353 4.87642 166.044 5.727 166.044H40.9467C41.7973 166.044 42.4869 165.353 42.4869 164.502V149.226C42.4869 148.375 41.7973 147.685 40.9467 147.685Z" stroke="white" stroke-width="0.5" stroke-miterlimit="10"/>
<path d="M125.469 147.685H90.2489C89.3983 147.685 88.7087 148.375 88.7087 149.226V164.502C88.7087 165.353 89.3983 166.044 90.2489 166.044H125.469C126.319 166.044 127.009 165.353 127.009 164.502V149.226C127.009 148.375 126.319 147.685 125.469 147.685Z" fill="#2CB6BF" stroke="white" stroke-width="0.5" stroke-miterlimit="10"/>
<path d="M122.591 147.768L122.453 147.971V149.244V153.103L122.434 165.961H124.878L125.736 165.914L126.317 165.665L126.824 165.241L126.953 164.364V162.028V154.82V149.355L126.677 148.275L125.967 147.768L124.048 147.685L122.591 147.768Z" fill="#227EB0"/>
<path d="M122.351 166.053V147.685" stroke="white" stroke-width="0.5" stroke-miterlimit="10"/>
<path d="M127.009 156.001H122.351V157.746H127.009V156.001Z" stroke="white" stroke-width="0.5" stroke-miterlimit="10"/>
<path d="M124.676 162.555C125.129 162.555 125.496 162.187 125.496 161.733C125.496 161.279 125.129 160.912 124.676 160.912C124.222 160.912 123.855 161.279 123.855 161.733C123.855 162.187 124.222 162.555 124.676 162.555Z" stroke="white" stroke-width="0.5" stroke-miterlimit="10"/>
<path d="M125.469 147.685H90.2489C89.3983 147.685 88.7087 148.375 88.7087 149.226V164.502C88.7087 165.353 89.3983 166.044 90.2489 166.044H125.469C126.319 166.044 127.009 165.353 127.009 164.502V149.226C127.009 148.375 126.319 147.685 125.469 147.685Z" stroke="white" stroke-width="0.5" stroke-miterlimit="10"/>
<path d="M167.734 147.685H132.514C131.664 147.685 130.974 148.375 130.974 149.226V164.502C130.974 165.353 131.664 166.044 132.514 166.044H167.734C168.585 166.044 169.274 165.353 169.274 164.502V149.226C169.274 148.375 168.585 147.685 167.734 147.685Z" fill="#2CB6BF" stroke="white" stroke-width="0.5" stroke-miterlimit="10"/>
<path d="M164.857 147.768L164.709 147.971V149.244V153.103L164.7 165.961H167.144L168.002 165.914L168.583 165.665L169.081 165.241L169.21 164.364V162.028V154.82V149.355L168.942 148.275L168.223 147.768L166.305 147.685L164.857 147.768Z" fill="#227EB0"/>
<path d="M164.608 166.053V147.685" stroke="white" stroke-width="0.5" stroke-miterlimit="10"/>
<path d="M169.265 156.001H164.608V157.746H169.265V156.001Z" stroke="white" stroke-width="0.5" stroke-miterlimit="10"/>
<path d="M166.941 162.555C167.394 162.555 167.762 162.187 167.762 161.733C167.762 161.279 167.394 160.912 166.941 160.912C166.488 160.912 166.12 161.279 166.12 161.733C166.12 162.187 166.488 162.555 166.941 162.555Z" stroke="white" stroke-width="0.5" stroke-miterlimit="10"/>
<path d="M167.734 147.685H132.514C131.664 147.685 130.974 148.375 130.974 149.226V164.502C130.974 165.353 131.664 166.044 132.514 166.044H167.734C168.585 166.044 169.274 165.353 169.274 164.502V149.226C169.274 148.375 168.585 147.685 167.734 147.685Z" stroke="white" stroke-width="0.5" stroke-miterlimit="10"/>
<path d="M83.2122 170.327H47.9925C47.1419 170.327 46.4524 171.017 46.4524 171.868V187.144C46.4524 187.996 47.1419 188.686 47.9925 188.686H83.2122C84.0628 188.686 84.7524 187.996 84.7524 187.144V171.868C84.7524 171.017 84.0628 170.327 83.2122 170.327Z" fill="#2CB6BF" stroke="white" stroke-width="0.5" stroke-miterlimit="10"/>
<path d="M80.335 170.41L80.1874 170.613V171.887V175.745L80.1782 188.603H82.6221L83.4798 188.556L84.0608 188.307L84.5588 187.883L84.6879 187.006V184.671V177.452V171.997L84.4205 170.917L83.7103 170.41L81.7829 170.327L80.335 170.41Z" fill="#227EB0"/>
<path d="M80.0952 188.695V170.327" stroke="white" stroke-width="0.5" stroke-miterlimit="10"/>
<path d="M84.7524 178.634H80.0952V180.378H84.7524V178.634Z" stroke="white" stroke-width="0.5" stroke-miterlimit="10"/>
<path d="M82.4192 185.187C82.8725 185.187 83.2399 184.82 83.2399 184.366C83.2399 183.912 82.8725 183.544 82.4192 183.544C81.9659 183.544 81.5984 183.912 81.5984 184.366C81.5984 184.82 81.9659 185.187 82.4192 185.187Z" stroke="white" stroke-width="0.5" stroke-miterlimit="10"/>
<path d="M83.2122 170.327H47.9925C47.1419 170.327 46.4524 171.017 46.4524 171.868V187.144C46.4524 187.996 47.1419 188.686 47.9925 188.686H83.2122C84.0628 188.686 84.7524 187.996 84.7524 187.144V171.868C84.7524 171.017 84.0628 170.327 83.2122 170.327Z" stroke="white" stroke-width="0.5" stroke-miterlimit="10"/>
<path d="M40.9467 170.327H5.727C4.87642 170.327 4.18689 171.017 4.18689 171.868V187.144C4.18689 187.996 4.87642 188.686 5.727 188.686H40.9467C41.7973 188.686 42.4869 187.996 42.4869 187.144V171.868C42.4869 171.017 41.7973 170.327 40.9467 170.327Z" fill="#2CB6BF" stroke="white" stroke-width="0.5" stroke-miterlimit="10"/>
<path d="M38.0694 170.41L37.9311 170.613V171.887V175.745L37.9219 188.603H40.3565L41.2142 188.556L41.8044 188.307L42.3024 187.883L42.4316 187.006V184.671V177.452V171.997L42.1549 170.917L41.4448 170.41L39.5265 170.327L38.0694 170.41Z" fill="#227EB0"/>
<path d="M37.8296 188.695V170.327" stroke="white" stroke-width="0.5" stroke-miterlimit="10"/>
<path d="M42.4868 178.634H37.8296V180.378H42.4868V178.634Z" stroke="white" stroke-width="0.5" stroke-miterlimit="10"/>
<path d="M40.1628 185.187C40.6161 185.187 40.9836 184.82 40.9836 184.366C40.9836 183.912 40.6161 183.544 40.1628 183.544C39.7095 183.544 39.342 183.912 39.342 184.366C39.342 184.82 39.7095 185.187 40.1628 185.187Z" stroke="white" stroke-width="0.5" stroke-miterlimit="10"/>
<path d="M40.9467 170.327H5.727C4.87642 170.327 4.18689 171.017 4.18689 171.868V187.144C4.18689 187.996 4.87642 188.686 5.727 188.686H40.9467C41.7973 188.686 42.4869 187.996 42.4869 187.144V171.868C42.4869 171.017 41.7973 170.327 40.9467 170.327Z" stroke="white" stroke-width="0.5" stroke-miterlimit="10"/>
<path d="M125.469 170.327H90.2489C89.3983 170.327 88.7087 171.017 88.7087 171.868V187.144C88.7087 187.996 89.3983 188.686 90.2489 188.686H125.469C126.319 188.686 127.009 187.996 127.009 187.144V171.868C127.009 171.017 126.319 170.327 125.469 170.327Z" fill="#2CB6BF" stroke="white" stroke-width="0.5" stroke-miterlimit="10"/>
<path d="M122.591 170.41L122.453 170.613V171.887V175.745L122.434 188.603H124.878L125.736 188.556L126.317 188.307L126.824 187.883L126.953 187.006V184.671V177.452V171.997L126.677 170.917L125.967 170.41L124.048 170.327L122.591 170.41Z" fill="#227EB0"/>
<path d="M122.351 188.695V170.327" stroke="white" stroke-width="0.5" stroke-miterlimit="10"/>
<path d="M127.009 178.634H122.351V180.378H127.009V178.634Z" stroke="white" stroke-width="0.5" stroke-miterlimit="10"/>
<path d="M124.676 185.187C125.129 185.187 125.496 184.82 125.496 184.366C125.496 183.912 125.129 183.544 124.676 183.544C124.222 183.544 123.855 183.912 123.855 184.366C123.855 184.82 124.222 185.187 124.676 185.187Z" stroke="white" stroke-width="0.5" stroke-miterlimit="10"/>
<path d="M125.469 170.327H90.2489C89.3983 170.327 88.7087 171.017 88.7087 171.868V187.144C88.7087 187.996 89.3983 188.686 90.2489 188.686H125.469C126.319 188.686 127.009 187.996 127.009 187.144V171.868C127.009 171.017 126.319 170.327 125.469 170.327Z" stroke="white" stroke-width="0.5" stroke-miterlimit="10"/>
<path d="M167.734 170.327H132.514C131.664 170.327 130.974 171.017 130.974 171.868V187.144C130.974 187.996 131.664 188.686 132.514 188.686H167.734C168.585 188.686 169.274 187.996 169.274 187.144V171.868C169.274 171.017 168.585 170.327 167.734 170.327Z" fill="#2CB6BF" stroke="white" stroke-width="0.5" stroke-miterlimit="10"/>
<path d="M164.857 170.41L164.709 170.613V171.887V175.745L164.7 188.603H167.144L168.002 188.556L168.583 188.307L169.081 187.883L169.21 187.006V184.671V177.452V171.997L168.942 170.917L168.223 170.41L166.305 170.327L164.857 170.41Z" fill="#227EB0"/>
<path d="M164.608 188.695V170.327" stroke="white" stroke-width="0.5" stroke-miterlimit="10"/>
<path d="M169.265 178.634H164.608V180.378H169.265V178.634Z" stroke="white" stroke-width="0.5" stroke-miterlimit="10"/>
<path d="M166.941 185.187C167.394 185.187 167.762 184.82 167.762 184.366C167.762 183.912 167.394 183.544 166.941 183.544C166.488 183.544 166.12 183.912 166.12 184.366C166.12 184.82 166.488 185.187 166.941 185.187Z" stroke="white" stroke-width="0.5" stroke-miterlimit="10"/>
<path d="M167.734 170.327H132.514C131.664 170.327 130.974 171.017 130.974 171.868V187.144C130.974 187.996 131.664 188.686 132.514 188.686H167.734C168.585 188.686 169.274 187.996 169.274 187.144V171.868C169.274 171.017 168.585 170.327 167.734 170.327Z" stroke="white" stroke-width="0.5" stroke-miterlimit="10"/>
<path d="M83.2122 192.959H47.9925C47.1419 192.959 46.4524 193.649 46.4524 194.501V209.777C46.4524 210.628 47.1419 211.318 47.9925 211.318H83.2122C84.0628 211.318 84.7524 210.628 84.7524 209.777V194.501C84.7524 193.649 84.0628 192.959 83.2122 192.959Z" fill="#2CB6BF" stroke="white" stroke-width="0.5" stroke-miterlimit="10"/>
<path d="M80.335 193.042L80.1874 193.245V194.528V198.377L80.1782 211.235H82.6221L83.4798 211.189L84.0608 210.94L84.5588 210.515L84.6879 209.638V207.303V200.094V194.63L84.4205 193.55L83.7103 193.042L81.7829 192.969L80.335 193.042Z" fill="#227EB0"/>
<path d="M80.0952 211.328V192.959" stroke="white" stroke-width="0.5" stroke-miterlimit="10"/>
<path d="M84.7524 201.276H80.0952V203.02H84.7524V201.276Z" stroke="white" stroke-width="0.5" stroke-miterlimit="10"/>
<path d="M82.4192 207.829C82.8725 207.829 83.2399 207.461 83.2399 207.008C83.2399 206.554 82.8725 206.186 82.4192 206.186C81.9659 206.186 81.5984 206.554 81.5984 207.008C81.5984 207.461 81.9659 207.829 82.4192 207.829Z" stroke="white" stroke-width="0.5" stroke-miterlimit="10"/>
<path d="M83.2122 192.959H47.9925C47.1419 192.959 46.4524 193.649 46.4524 194.501V209.777C46.4524 210.628 47.1419 211.318 47.9925 211.318H83.2122C84.0628 211.318 84.7524 210.628 84.7524 209.777V194.501C84.7524 193.649 84.0628 192.959 83.2122 192.959Z" stroke="white" stroke-width="0.5" stroke-miterlimit="10"/>
<path d="M40.9467 192.959H5.727C4.87642 192.959 4.18689 193.649 4.18689 194.501V209.777C4.18689 210.628 4.87642 211.318 5.727 211.318H40.9467C41.7973 211.318 42.4869 210.628 42.4869 209.777V194.501C42.4869 193.649 41.7973 192.959 40.9467 192.959Z" fill="#2CB6BF" stroke="white" stroke-width="0.5" stroke-miterlimit="10"/>
<path d="M38.0694 193.042L37.9311 193.245V194.528V198.377L37.9219 211.235H40.3565L41.2142 211.189L41.8044 210.94L42.3024 210.515L42.4316 209.638V207.303V200.094V194.63L42.1549 193.55L41.4448 193.042L39.5265 192.969L38.0694 193.042Z" fill="#227EB0"/>
<path d="M37.8296 211.328V192.959" stroke="white" stroke-width="0.5" stroke-miterlimit="10"/>
<path d="M42.4868 201.276H37.8296V203.02H42.4868V201.276Z" stroke="white" stroke-width="0.5" stroke-miterlimit="10"/>
<path d="M40.1628 207.829C40.6161 207.829 40.9836 207.461 40.9836 207.008C40.9836 206.554 40.6161 206.186 40.1628 206.186C39.7095 206.186 39.342 206.554 39.342 207.008C39.342 207.461 39.7095 207.829 40.1628 207.829Z" stroke="white" stroke-width="0.5" stroke-miterlimit="10"/>
<path d="M40.9467 192.959H5.727C4.87642 192.959 4.18689 193.649 4.18689 194.501V209.777C4.18689 210.628 4.87642 211.318 5.727 211.318H40.9467C41.7973 211.318 42.4869 210.628 42.4869 209.777V194.501C42.4869 193.649 41.7973 192.959 40.9467 192.959Z" stroke="white" stroke-width="0.5" stroke-miterlimit="10"/>
<path d="M125.469 192.959H90.2489C89.3983 192.959 88.7087 193.649 88.7087 194.501V209.777C88.7087 210.628 89.3983 211.318 90.2489 211.318H125.469C126.319 211.318 127.009 210.628 127.009 209.777V194.501C127.009 193.649 126.319 192.959 125.469 192.959Z" fill="#2CB6BF" stroke="white" stroke-width="0.5" stroke-miterlimit="10"/>
<path d="M122.591 193.042L122.453 193.245V194.528V198.377L122.434 211.235H124.878L125.736 211.189L126.317 210.94L126.824 210.515L126.953 209.638V207.303V200.094V194.63L126.677 193.55L125.967 193.042L124.048 192.969L122.591 193.042Z" fill="#227EB0"/>
<path d="M122.351 211.328V192.959" stroke="white" stroke-width="0.5" stroke-miterlimit="10"/>
<path d="M127.009 201.276H122.351V203.02H127.009V201.276Z" stroke="white" stroke-width="0.5" stroke-miterlimit="10"/>
<path d="M124.676 207.829C125.129 207.829 125.496 207.461 125.496 207.008C125.496 206.554 125.129 206.186 124.676 206.186C124.222 206.186 123.855 206.554 123.855 207.008C123.855 207.461 124.222 207.829 124.676 207.829Z" stroke="white" stroke-width="0.5" stroke-miterlimit="10"/>
<path d="M125.469 192.959H90.2489C89.3983 192.959 88.7087 193.649 88.7087 194.501V209.777C88.7087 210.628 89.3983 211.318 90.2489 211.318H125.469C126.319 211.318 127.009 210.628 127.009 209.777V194.501C127.009 193.649 126.319 192.959 125.469 192.959Z" stroke="white" stroke-width="0.5" stroke-miterlimit="10"/>
<path d="M167.734 192.959H132.514C131.664 192.959 130.974 193.649 130.974 194.501V209.777C130.974 210.628 131.664 211.318 132.514 211.318H167.734C168.585 211.318 169.274 210.628 169.274 209.777V194.501C169.274 193.649 168.585 192.959 167.734 192.959Z" fill="#2CB6BF" stroke="white" stroke-width="0.5" stroke-miterlimit="10"/>
<path d="M164.857 193.042L164.709 193.245V194.528V198.377L164.7 211.235H167.144L168.002 211.189L168.583 210.94L169.081 210.515L169.21 209.638V207.303V200.094V194.63L168.942 193.55L168.223 193.042L166.305 192.969L164.857 193.042Z" fill="#227EB0"/>
<path d="M164.608 211.328V192.959" stroke="white" stroke-width="0.5" stroke-miterlimit="10"/>
<path d="M169.265 201.276H164.608V203.02H169.265V201.276Z" stroke="white" stroke-width="0.5" stroke-miterlimit="10"/>
<path d="M166.941 207.829C167.394 207.829 167.762 207.461 167.762 207.008C167.762 206.554 167.394 206.186 166.941 206.186C166.488 206.186 166.12 206.554 166.12 207.008C166.12 207.461 166.488 207.829 166.941 207.829Z" stroke="white" stroke-width="0.5" stroke-miterlimit="10"/>
<path d="M167.734 192.959H132.514C131.664 192.959 130.974 193.649 130.974 194.501V209.777C130.974 210.628 131.664 211.318 132.514 211.318H167.734C168.585 211.318 169.274 210.628 169.274 209.777V194.501C169.274 193.649 168.585 192.959 167.734 192.959Z" stroke="white" stroke-width="0.5" stroke-miterlimit="10"/>
<path d="M82.9818 215.601H47.762C46.9115 215.601 46.2219 216.291 46.2219 217.143V232.419C46.2219 233.27 46.9115 233.96 47.762 233.96H82.9818C83.8324 233.96 84.5219 233.27 84.5219 232.419V217.143C84.5219 216.291 83.8324 215.601 82.9818 215.601Z" fill="#2CB6BF" stroke="white" stroke-width="0.5" stroke-miterlimit="10"/>
<path d="M80.1044 215.684L79.9568 215.887V217.161V221.01L79.9476 233.868H82.3915L83.2492 233.822L83.8302 233.572L84.3282 233.157L84.4665 232.271V229.936V222.727V217.263L84.1899 216.192L83.4797 215.684L81.5615 215.601L80.1044 215.684Z" fill="#227EB0"/>
<path d="M79.8646 233.96V215.601" stroke="white" stroke-width="0.5" stroke-miterlimit="10"/>
<path d="M84.5219 223.908H79.8646V225.653H84.5219V223.908Z" stroke="white" stroke-width="0.5" stroke-miterlimit="10"/>
<path d="M82.1886 230.462C82.6419 230.462 83.0094 230.094 83.0094 229.64C83.0094 229.187 82.6419 228.819 82.1886 228.819C81.7353 228.819 81.3678 229.187 81.3678 229.64C81.3678 230.094 81.7353 230.462 82.1886 230.462Z" stroke="white" stroke-width="0.5" stroke-miterlimit="10"/>
<path d="M82.9818 215.601H47.762C46.9115 215.601 46.2219 216.291 46.2219 217.143V232.419C46.2219 233.27 46.9115 233.96 47.762 233.96H82.9818C83.8324 233.96 84.5219 233.27 84.5219 232.419V217.143C84.5219 216.291 83.8324 215.601 82.9818 215.601Z" stroke="white" stroke-width="0.5" stroke-miterlimit="10"/>
<path d="M40.7161 215.601H5.49641C4.64583 215.601 3.9563 216.291 3.9563 217.143V232.419C3.9563 233.27 4.64583 233.96 5.49641 233.96H40.7161C41.5667 233.96 42.2563 233.27 42.2563 232.419V217.143C42.2563 216.291 41.5667 215.601 40.7161 215.601Z" fill="#2CB6BF" stroke="white" stroke-width="0.5" stroke-miterlimit="10"/>
<path d="M37.8481 215.684L37.7005 215.887V217.161V221.01L37.6913 233.868H40.1352L40.9928 233.822L41.5739 233.572L42.0718 233.157L42.201 232.271V229.936V222.727V217.263L41.9335 216.192L41.2142 215.684L39.296 215.601L37.8481 215.684Z" fill="#227EB0"/>
<path d="M37.5991 233.96V215.601" stroke="white" stroke-width="0.5" stroke-miterlimit="10"/>
<path d="M42.2564 223.908H37.5991V225.653H42.2564V223.908Z" stroke="white" stroke-width="0.5" stroke-miterlimit="10"/>
<path d="M39.9324 230.462C40.3857 230.462 40.7531 230.094 40.7531 229.64C40.7531 229.187 40.3857 228.819 39.9324 228.819C39.479 228.819 39.1116 229.187 39.1116 229.64C39.1116 230.094 39.479 230.462 39.9324 230.462Z" stroke="white" stroke-width="0.5" stroke-miterlimit="10"/>
<path d="M40.7161 215.601H5.49641C4.64583 215.601 3.9563 216.291 3.9563 217.143V232.419C3.9563 233.27 4.64583 233.96 5.49641 233.96H40.7161C41.5667 233.96 42.2563 233.27 42.2563 232.419V217.143C42.2563 216.291 41.5667 215.601 40.7161 215.601Z" stroke="white" stroke-width="0.5" stroke-miterlimit="10"/>
<path d="M125.238 215.601H90.0183C89.1677 215.601 88.4781 216.291 88.4781 217.143V232.419C88.4781 233.27 89.1677 233.96 90.0183 233.96H125.238C126.089 233.96 126.778 233.27 126.778 232.419V217.143C126.778 216.291 126.089 215.601 125.238 215.601Z" fill="#2CB6BF" stroke="white" stroke-width="0.5" stroke-miterlimit="10"/>
<path d="M122.361 215.684L122.222 215.887V217.161V221.01L122.213 233.868H124.648L125.505 233.822L126.096 233.572L126.594 233.157L126.723 232.271V229.936V222.727V217.263L126.446 216.192L125.736 215.684L123.818 215.601L122.361 215.684Z" fill="#227EB0"/>
<path d="M122.121 233.96V215.601" stroke="white" stroke-width="0.5" stroke-miterlimit="10"/>
<path d="M126.778 223.908H122.121V225.653H126.778V223.908Z" stroke="white" stroke-width="0.5" stroke-miterlimit="10"/>
<path d="M124.454 230.462C124.907 230.462 125.275 230.094 125.275 229.64C125.275 229.187 124.907 228.819 124.454 228.819C124.001 228.819 123.633 229.187 123.633 229.64C123.633 230.094 124.001 230.462 124.454 230.462Z" stroke="white" stroke-width="0.5" stroke-miterlimit="10"/>
<path d="M125.238 215.601H90.0183C89.1677 215.601 88.4781 216.291 88.4781 217.143V232.419C88.4781 233.27 89.1677 233.96 90.0183 233.96H125.238C126.089 233.96 126.778 233.27 126.778 232.419V217.143C126.778 216.291 126.089 215.601 125.238 215.601Z" stroke="white" stroke-width="0.5" stroke-miterlimit="10"/>
<path d="M167.504 215.601H132.284C131.433 215.601 130.744 216.291 130.744 217.143V232.419C130.744 233.27 131.433 233.96 132.284 233.96H167.504C168.354 233.96 169.044 233.27 169.044 232.419V217.143C169.044 216.291 168.354 215.601 167.504 215.601Z" fill="#2CB6BF" stroke="white" stroke-width="0.5" stroke-miterlimit="10"/>
<path d="M164.626 215.684L164.479 215.887V217.161V221.01L164.469 233.868H166.913L167.771 233.822L168.352 233.572L168.85 233.157L168.988 232.271V229.936V222.727V217.263L168.712 216.192L167.992 215.684L166.074 215.601L164.626 215.684Z" fill="#227EB0"/>
<path d="M164.386 233.96V215.601" stroke="white" stroke-width="0.5" stroke-miterlimit="10"/>
<path d="M169.044 223.908H164.386V225.653H169.044V223.908Z" stroke="white" stroke-width="0.5" stroke-miterlimit="10"/>
<path d="M166.71 230.462C167.164 230.462 167.531 230.094 167.531 229.64C167.531 229.187 167.164 228.819 166.71 228.819C166.257 228.819 165.89 229.187 165.89 229.64C165.89 230.094 166.257 230.462 166.71 230.462Z" stroke="white" stroke-width="0.5" stroke-miterlimit="10"/>
<path d="M167.504 215.601H132.284C131.433 215.601 130.744 216.291 130.744 217.143V232.419C130.744 233.27 131.433 233.96 132.284 233.96H167.504C168.354 233.96 169.044 233.27 169.044 232.419V217.143C169.044 216.291 168.354 215.601 167.504 215.601Z" stroke="white" stroke-width="0.5" stroke-miterlimit="10"/>
<path d="M83.2122 243.412H47.9925C47.1419 243.412 46.4524 244.102 46.4524 244.954V260.23C46.4524 261.081 47.1419 261.771 47.9925 261.771H83.2122C84.0628 261.771 84.7524 261.081 84.7524 260.23V244.954C84.7524 244.102 84.0628 243.412 83.2122 243.412Z" fill="#2CB6BF" stroke="white" stroke-width="0.5" stroke-miterlimit="10"/>
<path d="M80.335 243.495L80.1874 243.698V244.972V248.821L80.1782 261.679H82.6221L83.4798 261.633L84.0608 261.383L84.5588 260.968L84.6879 260.082V257.747V250.538V245.074L84.4205 243.994L83.7103 243.495L81.7829 243.412L80.335 243.495Z" fill="#227EB0"/>
<path d="M80.0952 261.771V243.412" stroke="white" stroke-width="0.5" stroke-miterlimit="10"/>
<path d="M84.7524 251.719H80.0952V253.464H84.7524V251.719Z" stroke="white" stroke-width="0.5" stroke-miterlimit="10"/>
<path d="M82.4192 258.273C82.8725 258.273 83.2399 257.905 83.2399 257.451C83.2399 256.998 82.8725 256.63 82.4192 256.63C81.9659 256.63 81.5984 256.998 81.5984 257.451C81.5984 257.905 81.9659 258.273 82.4192 258.273Z" stroke="white" stroke-width="0.5" stroke-miterlimit="10"/>
<path d="M83.2122 243.412H47.9925C47.1419 243.412 46.4524 244.102 46.4524 244.954V260.23C46.4524 261.081 47.1419 261.771 47.9925 261.771H83.2122C84.0628 261.771 84.7524 261.081 84.7524 260.23V244.954C84.7524 244.102 84.0628 243.412 83.2122 243.412Z" stroke="white" stroke-width="0.5" stroke-miterlimit="10"/>
<path d="M40.9467 243.412H5.727C4.87642 243.412 4.18689 244.102 4.18689 244.954V260.23C4.18689 261.081 4.87642 261.771 5.727 261.771H40.9467C41.7973 261.771 42.4869 261.081 42.4869 260.23V244.954C42.4869 244.102 41.7973 243.412 40.9467 243.412Z" fill="#2CB6BF" stroke="white" stroke-width="0.5" stroke-miterlimit="10"/>
<path d="M38.0694 243.495L37.9311 243.698V244.972V248.821L37.9219 261.679H40.3565L41.2142 261.633L41.8044 261.383L42.3024 260.968L42.4316 260.082V257.747V250.538V245.074L42.1549 243.994L41.4448 243.495L39.5265 243.412L38.0694 243.495Z" fill="#227EB0"/>
<path d="M37.8296 261.771V243.412" stroke="white" stroke-width="0.5" stroke-miterlimit="10"/>
<path d="M42.4868 251.719H37.8296V253.464H42.4868V251.719Z" stroke="white" stroke-width="0.5" stroke-miterlimit="10"/>
<path d="M40.1628 258.273C40.6161 258.273 40.9836 257.905 40.9836 257.451C40.9836 256.998 40.6161 256.63 40.1628 256.63C39.7095 256.63 39.342 256.998 39.342 257.451C39.342 257.905 39.7095 258.273 40.1628 258.273Z" stroke="white" stroke-width="0.5" stroke-miterlimit="10"/>
<path d="M40.9467 243.412H5.727C4.87642 243.412 4.18689 244.102 4.18689 244.954V260.23C4.18689 261.081 4.87642 261.771 5.727 261.771H40.9467C41.7973 261.771 42.4869 261.081 42.4869 260.23V244.954C42.4869 244.102 41.7973 243.412 40.9467 243.412Z" stroke="white" stroke-width="0.5" stroke-miterlimit="10"/>
<path d="M125.469 243.412H90.2489C89.3983 243.412 88.7087 244.102 88.7087 244.954V260.23C88.7087 261.081 89.3983 261.771 90.2489 261.771H125.469C126.319 261.771 127.009 261.081 127.009 260.23V244.954C127.009 244.102 126.319 243.412 125.469 243.412Z" fill="#2CB6BF" stroke="white" stroke-width="0.5" stroke-miterlimit="10"/>
<path d="M122.591 243.495L122.453 243.698V244.972V248.821L122.434 261.679H124.878L125.736 261.633L126.317 261.383L126.824 260.968L126.953 260.082V257.747V250.538V245.074L126.677 243.994L125.967 243.495L124.048 243.412L122.591 243.495Z" fill="#227EB0"/>
<path d="M122.351 261.771V243.412" stroke="white" stroke-width="0.5" stroke-miterlimit="10"/>
<path d="M127.009 251.719H122.351V253.464H127.009V251.719Z" stroke="white" stroke-width="0.5" stroke-miterlimit="10"/>
<path d="M124.676 258.273C125.129 258.273 125.496 257.905 125.496 257.451C125.496 256.998 125.129 256.63 124.676 256.63C124.222 256.63 123.855 256.998 123.855 257.451C123.855 257.905 124.222 258.273 124.676 258.273Z" stroke="white" stroke-width="0.5" stroke-miterlimit="10"/>
<path d="M125.469 243.412H90.2489C89.3983 243.412 88.7087 244.102 88.7087 244.954V260.23C88.7087 261.081 89.3983 261.771 90.2489 261.771H125.469C126.319 261.771 127.009 261.081 127.009 260.23V244.954C127.009 244.102 126.319 243.412 125.469 243.412Z" stroke="white" stroke-width="0.5" stroke-miterlimit="10"/>
<path d="M167.734 243.412H132.514C131.664 243.412 130.974 244.102 130.974 244.954V260.23C130.974 261.081 131.664 261.771 132.514 261.771H167.734C168.585 261.771 169.274 261.081 169.274 260.23V244.954C169.274 244.102 168.585 243.412 167.734 243.412Z" fill="#2CB6BF" stroke="white" stroke-width="0.5" stroke-miterlimit="10"/>
<path d="M164.857 243.495L164.709 243.698V244.972V248.821L164.7 261.679H167.144L168.002 261.633L168.583 261.383L169.081 260.968L169.21 260.082V257.747V250.538V245.074L168.942 243.994L168.223 243.495L166.305 243.412L164.857 243.495Z" fill="#227EB0"/>
<path d="M164.608 261.771V243.412" stroke="white" stroke-width="0.5" stroke-miterlimit="10"/>
<path d="M169.265 251.719H164.608V253.464H169.265V251.719Z" stroke="white" stroke-width="0.5" stroke-miterlimit="10"/>
<path d="M166.941 258.273C167.394 258.273 167.762 257.905 167.762 257.451C167.762 256.998 167.394 256.63 166.941 256.63C166.488 256.63 166.12 256.998 166.12 257.451C166.12 257.905 166.488 258.273 166.941 258.273Z" stroke="white" stroke-width="0.5" stroke-miterlimit="10"/>
<path d="M167.734 243.412H132.514C131.664 243.412 130.974 244.102 130.974 244.954V260.23C130.974 261.081 131.664 261.771 132.514 261.771H167.734C168.585 261.771 169.274 261.081 169.274 260.23V244.954C169.274 244.102 168.585 243.412 167.734 243.412Z" stroke="white" stroke-width="0.5" stroke-miterlimit="10"/>
<path d="M83.2122 266.054H47.9925C47.1419 266.054 46.4524 266.744 46.4524 267.595V282.872C46.4524 283.723 47.1419 284.413 47.9925 284.413H83.2122C84.0628 284.413 84.7524 283.723 84.7524 282.872V267.595C84.7524 266.744 84.0628 266.054 83.2122 266.054Z" fill="#2CB6BF" stroke="white" stroke-width="0.5" stroke-miterlimit="10"/>
<path d="M80.335 266.128L80.1874 266.331V267.614V271.463L80.1782 284.321H82.6221L83.4798 284.275L84.0608 284.025L84.5588 283.601L84.6879 282.724V280.389V273.18V267.715L84.4205 266.635L83.7103 266.128L81.7829 266.054L80.335 266.128Z" fill="#227EB0"/>
<path d="M80.0952 284.413V266.054" stroke="white" stroke-width="0.5" stroke-miterlimit="10"/>
<path d="M84.7524 274.361H80.0952V276.106H84.7524V274.361Z" stroke="white" stroke-width="0.5" stroke-miterlimit="10"/>
<path d="M82.4192 280.915C82.8725 280.915 83.2399 280.547 83.2399 280.093C83.2399 279.64 82.8725 279.272 82.4192 279.272C81.9659 279.272 81.5984 279.64 81.5984 280.093C81.5984 280.547 81.9659 280.915 82.4192 280.915Z" stroke="white" stroke-width="0.5" stroke-miterlimit="10"/>
<path d="M83.2122 266.054H47.9925C47.1419 266.054 46.4524 266.744 46.4524 267.595V282.872C46.4524 283.723 47.1419 284.413 47.9925 284.413H83.2122C84.0628 284.413 84.7524 283.723 84.7524 282.872V267.595C84.7524 266.744 84.0628 266.054 83.2122 266.054Z" stroke="white" stroke-width="0.5" stroke-miterlimit="10"/>
<path d="M40.9467 266.054H5.727C4.87642 266.054 4.18689 266.744 4.18689 267.595V282.872C4.18689 283.723 4.87642 284.413 5.727 284.413H40.9467C41.7973 284.413 42.4869 283.723 42.4869 282.872V267.595C42.4869 266.744 41.7973 266.054 40.9467 266.054Z" fill="#2CB6BF" stroke="white" stroke-width="0.5" stroke-miterlimit="10"/>
<path d="M38.0694 266.128L37.9311 266.331V267.614V271.463L37.9219 284.321H40.3565L41.2142 284.275L41.8044 284.025L42.3024 283.601L42.4316 282.724V280.389V273.18V267.715L42.1549 266.635L41.4448 266.128L39.5265 266.054L38.0694 266.128Z" fill="#227EB0"/>
<path d="M37.8296 284.413V266.054" stroke="white" stroke-width="0.5" stroke-miterlimit="10"/>
<path d="M42.4868 274.361H37.8296V276.106H42.4868V274.361Z" stroke="white" stroke-width="0.5" stroke-miterlimit="10"/>
<path d="M40.1628 280.915C40.6161 280.915 40.9836 280.547 40.9836 280.093C40.9836 279.64 40.6161 279.272 40.1628 279.272C39.7095 279.272 39.342 279.64 39.342 280.093C39.342 280.547 39.7095 280.915 40.1628 280.915Z" stroke="white" stroke-width="0.5" stroke-miterlimit="10"/>
<path d="M40.9467 266.054H5.727C4.87642 266.054 4.18689 266.744 4.18689 267.595V282.872C4.18689 283.723 4.87642 284.413 5.727 284.413H40.9467C41.7973 284.413 42.4869 283.723 42.4869 282.872V267.595C42.4869 266.744 41.7973 266.054 40.9467 266.054Z" stroke="white" stroke-width="0.5" stroke-miterlimit="10"/>
<path d="M125.469 266.054H90.2489C89.3983 266.054 88.7087 266.744 88.7087 267.595V282.872C88.7087 283.723 89.3983 284.413 90.2489 284.413H125.469C126.319 284.413 127.009 283.723 127.009 282.872V267.595C127.009 266.744 126.319 266.054 125.469 266.054Z" fill="#2CB6BF" stroke="white" stroke-width="0.5" stroke-miterlimit="10"/>
<path d="M122.591 266.128L122.453 266.331V267.614V271.463L122.434 284.321H124.878L125.736 284.275L126.317 284.025L126.824 283.601L126.953 282.724V280.389V273.18V267.715L126.677 266.635L125.967 266.128L124.048 266.054L122.591 266.128Z" fill="#227EB0"/>
<path d="M122.351 284.413V266.054" stroke="white" stroke-width="0.5" stroke-miterlimit="10"/>
<path d="M127.009 274.361H122.351V276.106H127.009V274.361Z" stroke="white" stroke-width="0.5" stroke-miterlimit="10"/>
<path d="M124.676 280.915C125.129 280.915 125.496 280.547 125.496 280.093C125.496 279.64 125.129 279.272 124.676 279.272C124.222 279.272 123.855 279.64 123.855 280.093C123.855 280.547 124.222 280.915 124.676 280.915Z" stroke="white" stroke-width="0.5" stroke-miterlimit="10"/>
<path d="M125.469 266.054H90.2489C89.3983 266.054 88.7087 266.744 88.7087 267.595V282.872C88.7087 283.723 89.3983 284.413 90.2489 284.413H125.469C126.319 284.413 127.009 283.723 127.009 282.872V267.595C127.009 266.744 126.319 266.054 125.469 266.054Z" stroke="white" stroke-width="0.5" stroke-miterlimit="10"/>
<path d="M167.734 266.054H132.514C131.664 266.054 130.974 266.744 130.974 267.595V282.872C130.974 283.723 131.664 284.413 132.514 284.413H167.734C168.585 284.413 169.274 283.723 169.274 282.872V267.595C169.274 266.744 168.585 266.054 167.734 266.054Z" fill="#2CB6BF" stroke="white" stroke-width="0.5" stroke-miterlimit="10"/>
<path d="M164.857 266.128L164.709 266.331V267.614V271.463L164.7 284.321H167.144L168.002 284.275L168.583 284.025L169.081 283.601L169.21 282.724V280.389V273.18V267.715L168.942 266.635L168.223 266.128L166.305 266.054L164.857 266.128Z" fill="#227EB0"/>
<path d="M164.608 284.413V266.054" stroke="white" stroke-width="0.5" stroke-miterlimit="10"/>
<path d="M169.265 274.361H164.608V276.106H169.265V274.361Z" stroke="white" stroke-width="0.5" stroke-miterlimit="10"/>
<path d="M166.941 280.915C167.394 280.915 167.762 280.547 167.762 280.093C167.762 279.64 167.394 279.272 166.941 279.272C166.488 279.272 166.12 279.64 166.12 280.093C166.12 280.547 166.488 280.915 166.941 280.915Z" stroke="white" stroke-width="0.5" stroke-miterlimit="10"/>
<path d="M167.734 266.054H132.514C131.664 266.054 130.974 266.744 130.974 267.595V282.872C130.974 283.723 131.664 284.413 132.514 284.413H167.734C168.585 284.413 169.274 283.723 169.274 282.872V267.595C169.274 266.744 168.585 266.054 167.734 266.054Z" stroke="white" stroke-width="0.5" stroke-miterlimit="10"/>
<path d="M83.2122 288.687H47.9925C47.1419 288.687 46.4524 289.377 46.4524 290.228V305.504C46.4524 306.355 47.1419 307.046 47.9925 307.046H83.2122C84.0628 307.046 84.7524 306.355 84.7524 305.504V290.228C84.7524 289.377 84.0628 288.687 83.2122 288.687Z" fill="#2CB6BF" stroke="white" stroke-width="0.5" stroke-miterlimit="10"/>
<path d="M80.335 288.77L80.1874 288.973V290.246V294.095L80.1782 306.953H82.6221L83.4798 306.907L84.0608 306.658L84.5588 306.243L84.6879 305.356V303.021V295.812V290.348L84.4205 289.268L83.7103 288.77L81.7829 288.687L80.335 288.77Z" fill="#227EB0"/>
<path d="M80.0952 307.046V288.687" stroke="white" stroke-width="0.5" stroke-miterlimit="10"/>
<path d="M84.7524 296.994H80.0952V298.738H84.7524V296.994Z" stroke="white" stroke-width="0.5" stroke-miterlimit="10"/>
<path d="M82.4192 303.547C82.8725 303.547 83.2399 303.18 83.2399 302.726C83.2399 302.272 82.8725 301.904 82.4192 301.904C81.9659 301.904 81.5984 302.272 81.5984 302.726C81.5984 303.18 81.9659 303.547 82.4192 303.547Z" stroke="white" stroke-width="0.5" stroke-miterlimit="10"/>
<path d="M83.2122 288.687H47.9925C47.1419 288.687 46.4524 289.377 46.4524 290.228V305.504C46.4524 306.355 47.1419 307.046 47.9925 307.046H83.2122C84.0628 307.046 84.7524 306.355 84.7524 305.504V290.228C84.7524 289.377 84.0628 288.687 83.2122 288.687Z" stroke="white" stroke-width="0.5" stroke-miterlimit="10"/>
<path d="M40.9467 288.687H5.727C4.87642 288.687 4.18689 289.377 4.18689 290.228V305.504C4.18689 306.355 4.87642 307.046 5.727 307.046H40.9467C41.7973 307.046 42.4869 306.355 42.4869 305.504V290.228C42.4869 289.377 41.7973 288.687 40.9467 288.687Z" fill="#2CB6BF" stroke="white" stroke-width="0.5" stroke-miterlimit="10"/>
<path d="M38.0694 288.77L37.9311 288.973V290.246V294.095L37.9219 306.953H40.3565L41.2142 306.907L41.8044 306.658L42.3024 306.243L42.4316 305.356V303.021V295.812V290.348L42.1549 289.268L41.4448 288.77L39.5265 288.687L38.0694 288.77Z" fill="#227EB0"/>
<path d="M37.8296 307.046V288.687" stroke="white" stroke-width="0.5" stroke-miterlimit="10"/>
<path d="M42.4868 296.994H37.8296V298.738H42.4868V296.994Z" stroke="white" stroke-width="0.5" stroke-miterlimit="10"/>
<path d="M40.1628 303.547C40.6161 303.547 40.9836 303.18 40.9836 302.726C40.9836 302.272 40.6161 301.904 40.1628 301.904C39.7095 301.904 39.342 302.272 39.342 302.726C39.342 303.18 39.7095 303.547 40.1628 303.547Z" stroke="white" stroke-width="0.5" stroke-miterlimit="10"/>
<path d="M40.9467 288.687H5.727C4.87642 288.687 4.18689 289.377 4.18689 290.228V305.504C4.18689 306.355 4.87642 307.046 5.727 307.046H40.9467C41.7973 307.046 42.4869 306.355 42.4869 305.504V290.228C42.4869 289.377 41.7973 288.687 40.9467 288.687Z" stroke="white" stroke-width="0.5" stroke-miterlimit="10"/>
<path d="M125.469 288.687H90.2489C89.3983 288.687 88.7087 289.377 88.7087 290.228V305.504C88.7087 306.355 89.3983 307.046 90.2489 307.046H125.469C126.319 307.046 127.009 306.355 127.009 305.504V290.228C127.009 289.377 126.319 288.687 125.469 288.687Z" fill="#2CB6BF" stroke="white" stroke-width="0.5" stroke-miterlimit="10"/>
<path d="M122.591 288.77L122.453 288.973V290.246V294.095L122.434 306.953H124.878L125.736 306.907L126.317 306.658L126.824 306.243L126.953 305.356V303.021V295.812V290.348L126.677 289.268L125.967 288.77L124.048 288.687L122.591 288.77Z" fill="#227EB0"/>
<path d="M122.351 307.046V288.687" stroke="white" stroke-width="0.5" stroke-miterlimit="10"/>
<path d="M127.009 296.994H122.351V298.738H127.009V296.994Z" stroke="white" stroke-width="0.5" stroke-miterlimit="10"/>
<path d="M124.676 303.547C125.129 303.547 125.496 303.18 125.496 302.726C125.496 302.272 125.129 301.904 124.676 301.904C124.222 301.904 123.855 302.272 123.855 302.726C123.855 303.18 124.222 303.547 124.676 303.547Z" stroke="white" stroke-width="0.5" stroke-miterlimit="10"/>
<path d="M125.469 288.687H90.2489C89.3983 288.687 88.7087 289.377 88.7087 290.228V305.504C88.7087 306.355 89.3983 307.046 90.2489 307.046H125.469C126.319 307.046 127.009 306.355 127.009 305.504V290.228C127.009 289.377 126.319 288.687 125.469 288.687Z" stroke="white" stroke-width="0.5" stroke-miterlimit="10"/>
<path d="M167.734 288.687H132.514C131.664 288.687 130.974 289.377 130.974 290.228V305.504C130.974 306.355 131.664 307.046 132.514 307.046H167.734C168.585 307.046 169.274 306.355 169.274 305.504V290.228C169.274 289.377 168.585 288.687 167.734 288.687Z" fill="#2CB6BF" stroke="white" stroke-width="0.5" stroke-miterlimit="10"/>
<path d="M164.857 288.77L164.709 288.973V290.246V294.095L164.7 306.953H167.144L168.002 306.907L168.583 306.658L169.081 306.243L169.21 305.356V303.021V295.812V290.348L168.942 289.268L168.223 288.77L166.305 288.687L164.857 288.77Z" fill="#227EB0"/>
<path d="M164.608 307.046V288.687" stroke="white" stroke-width="0.5" stroke-miterlimit="10"/>
<path d="M169.265 296.994H164.608V298.738H169.265V296.994Z" stroke="white" stroke-width="0.5" stroke-miterlimit="10"/>
<path d="M166.941 303.547C167.394 303.547 167.762 303.18 167.762 302.726C167.762 302.272 167.394 301.904 166.941 301.904C166.488 301.904 166.12 302.272 166.12 302.726C166.12 303.18 166.488 303.547 166.941 303.547Z" stroke="white" stroke-width="0.5" stroke-miterlimit="10"/>
<path d="M167.734 288.687H132.514C131.664 288.687 130.974 289.377 130.974 290.228V305.504C130.974 306.355 131.664 307.046 132.514 307.046H167.734C168.585 307.046 169.274 306.355 169.274 305.504V290.228C169.274 289.377 168.585 288.687 167.734 288.687Z" stroke="white" stroke-width="0.5" stroke-miterlimit="10"/>
<path d="M83.2122 4.86438H47.9925C47.1419 4.86438 46.4524 5.55451 46.4524 6.40584V21.682C46.4524 22.5333 47.1419 23.2234 47.9925 23.2234H83.2122C84.0628 23.2234 84.7524 22.5333 84.7524 21.682V6.40584C84.7524 5.55451 84.0628 4.86438 83.2122 4.86438Z" fill="#2CB6BF" stroke="white" stroke-width="0.5" stroke-miterlimit="10"/>
<path d="M80.335 4.94745L80.1874 5.15052V6.4243V10.2733L80.1782 23.1404H82.6221L83.4798 23.0942L84.0608 22.845L84.5588 22.4204L84.6879 21.5435V19.2083V11.9902V6.53506L84.4205 5.45512L83.7103 4.94745L81.7829 4.86438L80.335 4.94745Z" fill="#227EB0"/>
<path d="M80.0952 23.2327V4.86438" stroke="white" stroke-width="0.5" stroke-miterlimit="10"/>
<path d="M84.7524 13.1716H80.0952V14.9162H84.7524V13.1716Z" stroke="white" stroke-width="0.5" stroke-miterlimit="10"/>
<path d="M82.4192 19.7251C82.8725 19.7251 83.2399 19.3573 83.2399 18.9036C83.2399 18.4499 82.8725 18.0822 82.4192 18.0822C81.9659 18.0822 81.5984 18.4499 81.5984 18.9036C81.5984 19.3573 81.9659 19.7251 82.4192 19.7251Z" stroke="white" stroke-width="0.5" stroke-miterlimit="10"/>
<path d="M83.2122 4.86438H47.9925C47.1419 4.86438 46.4524 5.55451 46.4524 6.40584V21.682C46.4524 22.5333 47.1419 23.2234 47.9925 23.2234H83.2122C84.0628 23.2234 84.7524 22.5333 84.7524 21.682V6.40584C84.7524 5.55451 84.0628 4.86438 83.2122 4.86438Z" stroke="white" stroke-width="0.5" stroke-miterlimit="10"/>
<path d="M40.9467 4.86438H5.727C4.87642 4.86438 4.18689 5.55451 4.18689 6.40584V21.682C4.18689 22.5333 4.87642 23.2234 5.727 23.2234H40.9467C41.7973 23.2234 42.4869 22.5333 42.4869 21.682V6.40584C42.4869 5.55451 41.7973 4.86438 40.9467 4.86438Z" fill="#2CB6BF" stroke="white" stroke-width="0.5" stroke-miterlimit="10"/>
<path d="M38.0694 4.94745L37.9311 5.15052V6.4243V10.2733L37.9219 23.1404H40.3565L41.2142 23.0942L41.8044 22.845L42.3024 22.4204L42.4316 21.5435V19.2083V11.9902V6.53506L42.1549 5.45512L41.4448 4.94745L39.5265 4.86438L38.0694 4.94745Z" fill="#227EB0"/>
<path d="M37.8296 23.2327V4.86438" stroke="white" stroke-width="0.5" stroke-miterlimit="10"/>
<path d="M42.4868 13.1716H37.8296V14.9162H42.4868V13.1716Z" stroke="white" stroke-width="0.5" stroke-miterlimit="10"/>
<path d="M40.1628 19.7251C40.6161 19.7251 40.9836 19.3573 40.9836 18.9036C40.9836 18.4499 40.6161 18.0822 40.1628 18.0822C39.7095 18.0822 39.342 18.4499 39.342 18.9036C39.342 19.3573 39.7095 19.7251 40.1628 19.7251Z" stroke="white" stroke-width="0.5" stroke-miterlimit="10"/>
<path d="M40.9467 4.86438H5.727C4.87642 4.86438 4.18689 5.55451 4.18689 6.40584V21.682C4.18689 22.5333 4.87642 23.2234 5.727 23.2234H40.9467C41.7973 23.2234 42.4869 22.5333 42.4869 21.682V6.40584C42.4869 5.55451 41.7973 4.86438 40.9467 4.86438Z" stroke="white" stroke-width="0.5" stroke-miterlimit="10"/>
<path d="M125.469 4.86438H90.2489C89.3983 4.86438 88.7087 5.55451 88.7087 6.40584V21.682C88.7087 22.5333 89.3983 23.2234 90.2489 23.2234H125.469C126.319 23.2234 127.009 22.5333 127.009 21.682V6.40584C127.009 5.55451 126.319 4.86438 125.469 4.86438Z" fill="#2CB6BF" stroke="white" stroke-width="0.5" stroke-miterlimit="10"/>
<path d="M122.591 4.94745L122.453 5.15052V6.4243V10.2733L122.434 23.1404H124.878L125.736 23.0942L126.317 22.845L126.824 22.4204L126.953 21.5435V19.2083V11.9902V6.53506L126.677 5.45512L125.967 4.94745L124.048 4.86438L122.591 4.94745Z" fill="#227EB0"/>
<path d="M122.351 23.2327V4.86438" stroke="white" stroke-width="0.5" stroke-miterlimit="10"/>
<path d="M127.009 13.1716H122.351V14.9162H127.009V13.1716Z" stroke="white" stroke-width="0.5" stroke-miterlimit="10"/>
<path d="M124.676 19.7251C125.129 19.7251 125.496 19.3573 125.496 18.9036C125.496 18.4499 125.129 18.0822 124.676 18.0822C124.222 18.0822 123.855 18.4499 123.855 18.9036C123.855 19.3573 124.222 19.7251 124.676 19.7251Z" stroke="white" stroke-width="0.5" stroke-miterlimit="10"/>
<path d="M125.469 4.86438H90.2489C89.3983 4.86438 88.7087 5.55451 88.7087 6.40584V21.682C88.7087 22.5333 89.3983 23.2234 90.2489 23.2234H125.469C126.319 23.2234 127.009 22.5333 127.009 21.682V6.40584C127.009 5.55451 126.319 4.86438 125.469 4.86438Z" stroke="white" stroke-width="0.5" stroke-miterlimit="10"/>
<path d="M167.734 4.86438H132.514C131.664 4.86438 130.974 5.55451 130.974 6.40584V21.682C130.974 22.5333 131.664 23.2234 132.514 23.2234H167.734C168.585 23.2234 169.274 22.5333 169.274 21.682V6.40584C169.274 5.55451 168.585 4.86438 167.734 4.86438Z" fill="#2CB6BF" stroke="white" stroke-width="0.5" stroke-miterlimit="10"/>
<path d="M164.857 4.94745L164.709 5.15052V6.4243V10.2733L164.7 23.1404H167.144L168.002 23.0942L168.583 22.845L169.081 22.4204L169.21 21.5435V19.2083V11.9902V6.53506L168.942 5.45512L168.223 4.94745L166.305 4.86438L164.857 4.94745Z" fill="#227EB0"/>
<path d="M164.608 23.2327V4.86438" stroke="white" stroke-width="0.5" stroke-miterlimit="10"/>
<path d="M169.265 13.1716H164.608V14.9162H169.265V13.1716Z" stroke="white" stroke-width="0.5" stroke-miterlimit="10"/>
<path d="M166.941 19.7251C167.394 19.7251 167.762 19.3573 167.762 18.9036C167.762 18.4499 167.394 18.0822 166.941 18.0822C166.488 18.0822 166.12 18.4499 166.12 18.9036C166.12 19.3573 166.488 19.7251 166.941 19.7251Z" stroke="white" stroke-width="0.5" stroke-miterlimit="10"/>
<path d="M167.734 4.86438H132.514C131.664 4.86438 130.974 5.55451 130.974 6.40584V21.682C130.974 22.5333 131.664 23.2234 132.514 23.2234H167.734C168.585 23.2234 169.274 22.5333 169.274 21.682V6.40584C169.274 5.55451 168.585 4.86438 167.734 4.86438Z" stroke="white" stroke-width="0.5" stroke-miterlimit="10"/>
<path d="M74.7646 75.5869H77.7158V76.4453H76.729V79.316H75.733V76.4453H74.7646V75.5869Z" fill="white"/>
<path d="M78.0202 78.0421V76.916C78.0022 76.7286 78.0259 76.5395 78.0897 76.3623C78.1535 76.1851 78.2557 76.0243 78.3891 75.8915C78.8116 75.624 79.312 75.5069 79.8093 75.5592C80.2502 75.5229 80.69 75.6403 81.0543 75.8915C81.1946 76.0297 81.3022 76.1976 81.3693 76.3829C81.4363 76.5681 81.461 76.7661 81.4416 76.9622V78.0052C81.4645 78.2062 81.4379 78.4098 81.3639 78.5981C81.2899 78.7863 81.171 78.9536 81.0174 79.0851C80.6057 79.3184 80.1331 79.4213 79.6617 79.3805C79.2321 79.4131 78.803 79.3098 78.4352 79.0851C78.2882 78.9564 78.1733 78.795 78.0996 78.6139C78.026 78.4328 77.9956 78.237 78.0109 78.0421M79.0438 77.0268V77.8667C79.0276 78.0416 79.0698 78.2169 79.1637 78.3652C79.3354 78.4771 79.5418 78.523 79.7447 78.4944C79.9332 78.5143 80.1231 78.4756 80.2888 78.3836C80.3436 78.3138 80.384 78.2338 80.4077 78.1482C80.4314 78.0627 80.4381 77.9733 80.4272 77.8852V77.0083C80.4393 76.9231 80.4333 76.8362 80.4094 76.7535C80.3856 76.6708 80.3445 76.594 80.2888 76.5284C80.125 76.4314 79.9334 76.3924 79.7447 76.4176C79.5446 76.4011 79.3438 76.4394 79.1637 76.5284C79.067 76.6755 79.0247 76.8517 79.0438 77.0268Z" fill="white"/>
<path d="M81.9211 78.0422V76.9161C81.9031 76.7286 81.9269 76.5395 81.9906 76.3623C82.0544 76.1852 82.1567 76.0244 82.29 75.8915C82.7132 75.6253 83.213 75.5084 83.7102 75.5592C84.1512 75.5214 84.5916 75.639 84.9552 75.8915C85.0972 76.0285 85.206 76.1963 85.2731 76.3819C85.3402 76.5675 85.364 76.766 85.3426 76.9622V78.0053C85.365 78.2054 85.339 78.408 85.2668 78.5959C85.1946 78.7839 85.0782 78.9517 84.9276 79.0852C84.5148 79.3157 84.043 79.4185 83.5719 79.3806C83.1395 79.4114 82.708 79.3083 82.3361 79.0852C82.1936 78.9534 82.0823 78.7913 82.0105 78.6108C81.9387 78.4303 81.9081 78.236 81.9211 78.0422ZM82.9448 77.0268V77.8668C82.9267 78.0431 82.9725 78.22 83.0739 78.3652C83.1477 78.4575 83.3506 78.4945 83.6457 78.4945C83.8341 78.5144 84.0241 78.4757 84.1898 78.3837C84.2485 78.316 84.2921 78.2365 84.3176 78.1505C84.343 78.0645 84.3498 77.9741 84.3373 77.8853V77.0084C84.3373 76.7592 84.3374 76.6023 84.1898 76.5284C84.0262 76.4308 83.8344 76.3917 83.6457 76.4176C83.4485 76.4009 83.2506 76.4393 83.0739 76.5284C82.9693 76.6722 82.9231 76.8503 82.9448 77.0268Z" fill="white"/>
<path d="M85.9513 75.5869H86.9473V78.4575H88.5059V79.316H85.9513V75.5869Z" fill="white"/>
<path d="M89.8339 78.1159C89.8263 78.1775 89.8322 78.24 89.8514 78.299C89.8705 78.358 89.9023 78.4121 89.9445 78.4574C90.1051 78.5344 90.2844 78.5633 90.461 78.5405C90.6313 78.5545 90.8024 78.5259 90.959 78.4574C90.9964 78.4186 91.0249 78.372 91.0424 78.321C91.06 78.27 91.0661 78.2157 91.0604 78.1621C91.0604 78.0051 91.0604 77.9313 90.9682 77.8852C90.8246 77.8289 90.6699 77.8068 90.5163 77.8205C90.0593 77.8417 89.6047 77.743 89.1975 77.5344C89.0688 77.4211 88.9708 77.2771 88.9127 77.1157C88.8547 76.9543 88.8384 76.7808 88.8655 76.6114C88.8445 76.4414 88.8645 76.2689 88.9239 76.1083C88.9833 75.9477 89.0803 75.8037 89.2067 75.6883C89.5869 75.5116 90.0061 75.4353 90.4241 75.4668C90.8367 75.4233 91.2531 75.5002 91.623 75.6883C91.7318 75.7935 91.815 75.9222 91.8661 76.0647C91.9173 76.2071 91.9351 76.3594 91.9181 76.5098V76.6668H90.9959C91.0018 76.5532 90.9657 76.4415 90.8944 76.3529C90.7622 76.2905 90.6157 76.265 90.4702 76.2791C90.3075 76.2616 90.1429 76.2838 89.9906 76.3437C89.9076 76.3437 89.88 76.4822 89.88 76.6206C89.8764 76.662 89.881 76.7038 89.8937 76.7434C89.9064 76.783 89.9268 76.8197 89.9537 76.8514C90.068 76.9195 90.1989 76.9547 90.3319 76.9529C90.6748 76.9602 91.0168 76.9911 91.3555 77.0452C91.4823 77.0495 91.6057 77.0877 91.7127 77.1559C91.8198 77.2241 91.9066 77.3197 91.9642 77.4329C92.0557 77.6612 92.0935 77.9075 92.0749 78.1528C92.0891 78.3102 92.0684 78.4688 92.0142 78.6172C91.96 78.7656 91.8736 78.9002 91.7613 79.0112C91.3669 79.2259 90.9168 79.316 90.4702 79.2697C89.7324 79.2697 89.299 79.1589 89.133 78.9466C88.9487 78.6757 88.861 78.3505 88.884 78.0236H89.8615L89.8339 78.1159Z" fill="white"/>
<path d="M92.5913 75.5869H93.449V76.2423H92.5913V75.5869ZM92.5913 76.713H93.449V79.316H92.5913V76.713Z" fill="white"/>
<path d="M94.0669 79.3159V75.6238H96.0128C96.4101 75.5931 96.8046 75.7116 97.1195 75.956C97.252 76.1006 97.3525 76.2715 97.4145 76.4576C97.4764 76.6437 97.4985 76.8408 97.4791 77.036V77.9036C97.5152 78.3061 97.4001 78.7076 97.1563 79.0297C97.0117 79.1553 96.8432 79.2502 96.6609 79.3089C96.4787 79.3676 96.2864 79.3888 96.0958 79.3713H94.0669V79.3159ZM95.0629 78.4575H95.9113C95.9818 78.4611 96.0524 78.4507 96.1188 78.427C96.1853 78.4032 96.2464 78.3665 96.2987 78.319C96.3572 78.2456 96.4004 78.1613 96.4257 78.0709C96.4511 77.9805 96.4581 77.886 96.4462 77.7929V77.0545C96.4597 76.8927 96.4209 76.7309 96.3356 76.5929C96.2785 76.5418 96.211 76.5037 96.1377 76.4814C96.0645 76.459 95.9872 76.453 95.9113 76.4637H95.0537L95.0629 78.4575Z" fill="white"/>
<path d="M83.2122 311.319H47.9925C47.1419 311.319 46.4524 312.009 46.4524 312.861V328.137C46.4524 328.988 47.1419 329.678 47.9925 329.678H83.2122C84.0628 329.678 84.7524 328.988 84.7524 328.137V312.861C84.7524 312.009 84.0628 311.319 83.2122 311.319Z" fill="#2CB6BF" stroke="white" stroke-width="0.5" stroke-miterlimit="10"/>
<path d="M80.335 311.402L80.1874 311.605V312.879V316.728L80.1782 329.595H82.6221L83.4798 329.54L84.0608 329.291L84.5588 328.875L84.6879 327.998V325.654V318.445V312.99L84.4205 311.91L83.7103 311.402L81.7829 311.319L80.335 311.402Z" fill="#227EB0"/>
<path d="M80.0952 329.678V311.319" stroke="white" stroke-width="0.5" stroke-miterlimit="10"/>
<path d="M84.7524 319.626H80.0952V321.371H84.7524V319.626Z" stroke="white" stroke-width="0.5" stroke-miterlimit="10"/>
<path d="M82.4192 326.18C82.8725 326.18 83.2399 325.812 83.2399 325.359C83.2399 324.905 82.8725 324.537 82.4192 324.537C81.9659 324.537 81.5984 324.905 81.5984 325.359C81.5984 325.812 81.9659 326.18 82.4192 326.18Z" stroke="white" stroke-width="0.5" stroke-miterlimit="10"/>
<path d="M83.2122 311.319H47.9925C47.1419 311.319 46.4524 312.009 46.4524 312.861V328.137C46.4524 328.988 47.1419 329.678 47.9925 329.678H83.2122C84.0628 329.678 84.7524 328.988 84.7524 328.137V312.861C84.7524 312.009 84.0628 311.319 83.2122 311.319Z" stroke="white" stroke-width="0.5" stroke-miterlimit="10"/>
<path d="M40.9467 311.319H5.727C4.87642 311.319 4.18689 312.009 4.18689 312.861V328.137C4.18689 328.988 4.87642 329.678 5.727 329.678H40.9467C41.7973 329.678 42.4869 328.988 42.4869 328.137V312.861C42.4869 312.009 41.7973 311.319 40.9467 311.319Z" fill="#2CB6BF" stroke="white" stroke-width="0.5" stroke-miterlimit="10"/>
<path d="M38.0694 311.402L37.9311 311.605V312.879V316.728L37.9219 329.595H40.3565L41.2142 329.54L41.8044 329.291L42.3024 328.875L42.4316 327.998V325.654V318.445V312.99L42.1549 311.91L41.4448 311.402L39.5265 311.319L38.0694 311.402Z" fill="#227EB0"/>
<path d="M37.8296 329.678V311.319" stroke="white" stroke-width="0.5" stroke-miterlimit="10"/>
<path d="M42.4868 319.626H37.8296V321.371H42.4868V319.626Z" stroke="white" stroke-width="0.5" stroke-miterlimit="10"/>
<path d="M40.1628 326.18C40.6161 326.18 40.9836 325.812 40.9836 325.359C40.9836 324.905 40.6161 324.537 40.1628 324.537C39.7095 324.537 39.342 324.905 39.342 325.359C39.342 325.812 39.7095 326.18 40.1628 326.18Z" stroke="white" stroke-width="0.5" stroke-miterlimit="10"/>
<path d="M40.9467 311.319H5.727C4.87642 311.319 4.18689 312.009 4.18689 312.861V328.137C4.18689 328.988 4.87642 329.678 5.727 329.678H40.9467C41.7973 329.678 42.4869 328.988 42.4869 328.137V312.861C42.4869 312.009 41.7973 311.319 40.9467 311.319Z" stroke="white" stroke-width="0.5" stroke-miterlimit="10"/>
<path d="M125.469 311.319H90.2489C89.3983 311.319 88.7087 312.009 88.7087 312.861V328.137C88.7087 328.988 89.3983 329.678 90.2489 329.678H125.469C126.319 329.678 127.009 328.988 127.009 328.137V312.861C127.009 312.009 126.319 311.319 125.469 311.319Z" fill="#2CB6BF" stroke="white" stroke-width="0.5" stroke-miterlimit="10"/>
<path d="M122.591 311.402L122.453 311.605V312.879V316.728L122.434 329.595H124.878L125.736 329.54L126.317 329.291L126.824 328.875L126.953 327.998V325.654V318.445V312.99L126.677 311.91L125.967 311.402L124.048 311.319L122.591 311.402Z" fill="#227EB0"/>
<path d="M122.351 329.678V311.319" stroke="white" stroke-width="0.5" stroke-miterlimit="10"/>
<path d="M127.009 319.626H122.351V321.371H127.009V319.626Z" stroke="white" stroke-width="0.5" stroke-miterlimit="10"/>
<path d="M124.676 326.18C125.129 326.18 125.496 325.812 125.496 325.359C125.496 324.905 125.129 324.537 124.676 324.537C124.222 324.537 123.855 324.905 123.855 325.359C123.855 325.812 124.222 326.18 124.676 326.18Z" stroke="white" stroke-width="0.5" stroke-miterlimit="10"/>
<path d="M125.469 311.319H90.2489C89.3983 311.319 88.7087 312.009 88.7087 312.861V328.137C88.7087 328.988 89.3983 329.678 90.2489 329.678H125.469C126.319 329.678 127.009 328.988 127.009 328.137V312.861C127.009 312.009 126.319 311.319 125.469 311.319Z" stroke="white" stroke-width="0.5" stroke-miterlimit="10"/>
<path d="M167.734 311.319H132.514C131.664 311.319 130.974 312.009 130.974 312.861V328.137C130.974 328.988 131.664 329.678 132.514 329.678H167.734C168.585 329.678 169.274 328.988 169.274 328.137V312.861C169.274 312.009 168.585 311.319 167.734 311.319Z" fill="#2CB6BF" stroke="white" stroke-width="0.5" stroke-miterlimit="10"/>
<path d="M164.857 311.402L164.709 311.605V312.879V316.728L164.7 329.595H167.144L168.002 329.54L168.583 329.291L169.081 328.875L169.21 327.998V325.654V318.445V312.99L168.942 311.91L168.223 311.402L166.305 311.319L164.857 311.402Z" fill="#227EB0"/>
<path d="M164.608 329.678V311.319" stroke="white" stroke-width="0.5" stroke-miterlimit="10"/>
<path d="M169.265 319.626H164.608V321.371H169.265V319.626Z" stroke="white" stroke-width="0.5" stroke-miterlimit="10"/>
<path d="M166.941 326.18C167.394 326.18 167.762 325.812 167.762 325.359C167.762 324.905 167.394 324.537 166.941 324.537C166.488 324.537 166.12 324.905 166.12 325.359C166.12 325.812 166.488 326.18 166.941 326.18Z" stroke="white" stroke-width="0.5" stroke-miterlimit="10"/>
<path d="M167.734 311.319H132.514C131.664 311.319 130.974 312.009 130.974 312.861V328.137C130.974 328.988 131.664 329.678 132.514 329.678H167.734C168.585 329.678 169.274 328.988 169.274 328.137V312.861C169.274 312.009 168.585 311.319 167.734 311.319Z" stroke="white" stroke-width="0.5" stroke-miterlimit="10"/>
<path d="M83.2122 333.952H47.9925C47.1419 333.952 46.4524 334.642 46.4524 335.493V350.769C46.4524 351.621 47.1419 352.311 47.9925 352.311H83.2122C84.0628 352.311 84.7524 351.621 84.7524 350.769V335.493C84.7524 334.642 84.0628 333.952 83.2122 333.952Z" fill="#2CB6BF" stroke="white" stroke-width="0.5" stroke-miterlimit="10"/>
<path d="M80.335 334.035L80.1874 334.238V335.512V339.361L80.1782 352.228H82.6221L83.4798 352.182L84.0608 351.933L84.5588 351.508L84.6879 350.631V348.296V341.078V335.623L84.4205 334.543L83.7103 334.035L81.7829 333.952L80.335 334.035Z" fill="#227EB0"/>
<path d="M80.0952 352.32V333.952" stroke="white" stroke-width="0.5" stroke-miterlimit="10"/>
<path d="M84.7524 342.259H80.0952V344.004H84.7524V342.259Z" stroke="white" stroke-width="0.5" stroke-miterlimit="10"/>
<path d="M82.4192 348.813C82.8725 348.813 83.2399 348.445 83.2399 347.991C83.2399 347.537 82.8725 347.17 82.4192 347.17C81.9659 347.17 81.5984 347.537 81.5984 347.991C81.5984 348.445 81.9659 348.813 82.4192 348.813Z" stroke="white" stroke-width="0.5" stroke-miterlimit="10"/>
<path d="M83.2122 333.952H47.9925C47.1419 333.952 46.4524 334.642 46.4524 335.493V350.769C46.4524 351.621 47.1419 352.311 47.9925 352.311H83.2122C84.0628 352.311 84.7524 351.621 84.7524 350.769V335.493C84.7524 334.642 84.0628 333.952 83.2122 333.952Z" stroke="white" stroke-width="0.5" stroke-miterlimit="10"/>
<path d="M40.9467 333.952H5.727C4.87642 333.952 4.18689 334.642 4.18689 335.493V350.769C4.18689 351.621 4.87642 352.311 5.727 352.311H40.9467C41.7973 352.311 42.4869 351.621 42.4869 350.769V335.493C42.4869 334.642 41.7973 333.952 40.9467 333.952Z" fill="#2CB6BF" stroke="white" stroke-width="0.5" stroke-miterlimit="10"/>
<path d="M38.0694 334.035L37.9311 334.238V335.512V339.361L37.9219 352.228H40.3565L41.2142 352.182L41.8044 351.933L42.3024 351.508L42.4316 350.631V348.296V341.078V335.623L42.1549 334.543L41.4448 334.035L39.5265 333.952L38.0694 334.035Z" fill="#227EB0"/>
<path d="M37.8296 352.32V333.952" stroke="white" stroke-width="0.5" stroke-miterlimit="10"/>
<path d="M42.4868 342.259H37.8296V344.004H42.4868V342.259Z" stroke="white" stroke-width="0.5" stroke-miterlimit="10"/>
<path d="M40.1628 348.813C40.6161 348.813 40.9836 348.445 40.9836 347.991C40.9836 347.537 40.6161 347.17 40.1628 347.17C39.7095 347.17 39.342 347.537 39.342 347.991C39.342 348.445 39.7095 348.813 40.1628 348.813Z" stroke="white" stroke-width="0.5" stroke-miterlimit="10"/>
<path d="M40.9467 333.952H5.727C4.87642 333.952 4.18689 334.642 4.18689 335.493V350.769C4.18689 351.621 4.87642 352.311 5.727 352.311H40.9467C41.7973 352.311 42.4869 351.621 42.4869 350.769V335.493C42.4869 334.642 41.7973 333.952 40.9467 333.952Z" stroke="white" stroke-width="0.5" stroke-miterlimit="10"/>
<path d="M125.469 333.952H90.2489C89.3983 333.952 88.7087 334.642 88.7087 335.493V350.769C88.7087 351.621 89.3983 352.311 90.2489 352.311H125.469C126.319 352.311 127.009 351.621 127.009 350.769V335.493C127.009 334.642 126.319 333.952 125.469 333.952Z" fill="#2CB6BF" stroke="white" stroke-width="0.5" stroke-miterlimit="10"/>
<path d="M122.591 334.035L122.453 334.238V335.512V339.361L122.434 352.228H124.878L125.736 352.182L126.317 351.933L126.824 351.508L126.953 350.631V348.296V341.078V335.623L126.677 334.543L125.967 334.035L124.048 333.952L122.591 334.035Z" fill="#227EB0"/>
<path d="M122.351 352.32V333.952" stroke="white" stroke-width="0.5" stroke-miterlimit="10"/>
<path d="M127.009 342.259H122.351V344.004H127.009V342.259Z" stroke="white" stroke-width="0.5" stroke-miterlimit="10"/>
<path d="M124.676 348.813C125.129 348.813 125.496 348.445 125.496 347.991C125.496 347.537 125.129 347.17 124.676 347.17C124.222 347.17 123.855 347.537 123.855 347.991C123.855 348.445 124.222 348.813 124.676 348.813Z" stroke="white" stroke-width="0.5" stroke-miterlimit="10"/>
<path d="M125.469 333.952H90.2489C89.3983 333.952 88.7087 334.642 88.7087 335.493V350.769C88.7087 351.621 89.3983 352.311 90.2489 352.311H125.469C126.319 352.311 127.009 351.621 127.009 350.769V335.493C127.009 334.642 126.319 333.952 125.469 333.952Z" stroke="white" stroke-width="0.5" stroke-miterlimit="10"/>
<path d="M167.734 333.952H132.514C131.664 333.952 130.974 334.642 130.974 335.493V350.769C130.974 351.621 131.664 352.311 132.514 352.311H167.734C168.585 352.311 169.274 351.621 169.274 350.769V335.493C169.274 334.642 168.585 333.952 167.734 333.952Z" fill="#2CB6BF" stroke="white" stroke-width="0.5" stroke-miterlimit="10"/>
<path d="M164.857 334.035L164.709 334.238V335.512V339.361L164.7 352.228H167.144L168.002 352.182L168.583 351.933L169.081 351.508L169.21 350.631V348.296V341.078V335.623L168.942 334.543L168.223 334.035L166.305 333.952L164.857 334.035Z" fill="#227EB0"/>
<path d="M164.608 352.32V333.952" stroke="white" stroke-width="0.5" stroke-miterlimit="10"/>
<path d="M169.265 342.259H164.608V344.004H169.265V342.259Z" stroke="white" stroke-width="0.5" stroke-miterlimit="10"/>
<path d="M166.941 348.813C167.394 348.813 167.762 348.445 167.762 347.991C167.762 347.537 167.394 347.17 166.941 347.17C166.488 347.17 166.12 347.537 166.12 347.991C166.12 348.445 166.488 348.813 166.941 348.813Z" stroke="white" stroke-width="0.5" stroke-miterlimit="10"/>
<path d="M167.734 333.952H132.514C131.664 333.952 130.974 334.642 130.974 335.493V350.769C130.974 351.621 131.664 352.311 132.514 352.311H167.734C168.585 352.311 169.274 351.621 169.274 350.769V335.493C169.274 334.642 168.585 333.952 167.734 333.952Z" stroke="white" stroke-width="0.5" stroke-miterlimit="10"/>
</g>
<defs>
<clipPath id="clip0_45_5910">
<rect width="173" height="357" fill="white"/>
</clipPath>
</defs>
</svg>
