<svg width="164" height="357" viewBox="0 0 164 357" fill="none" xmlns="http://www.w3.org/2000/svg">
<g clip-path="url(#clip0_45_5393)">
<path d="M163.712 0.285889H0.287964V356.714H163.712V0.285889Z" fill="#2E5985" stroke="white" stroke-width="0.5" stroke-miterlimit="10"/>
<path d="M101.017 69.8127H59.9421C58.8798 69.8127 58.0186 70.6677 58.0186 71.7224V98.6298C58.0186 99.6845 58.8798 100.54 59.9421 100.54H101.017C102.079 100.54 102.941 99.6845 102.941 98.6298V71.7224C102.941 70.6677 102.079 69.8127 101.017 69.8127Z" fill="#237EB0" stroke="white" stroke-width="0.5" stroke-miterlimit="10"/>
<path d="M101.34 71.3679H59.7118V98.9957H101.34V71.3679Z" fill="white" stroke="white" stroke-width="0.5" stroke-miterlimit="10"/>
<path d="M87.7823 103.284H73.1423C71.4501 103.284 70.0784 104.646 70.0784 106.326V113.644C70.0784 115.324 71.4501 116.686 73.1423 116.686H87.7823C89.4744 116.686 90.8462 115.324 90.8462 113.644V106.326C90.8462 104.646 89.4744 103.284 87.7823 103.284Z" fill="#2CB6BF" stroke="white" stroke-width="0.5" stroke-miterlimit="10"/>
<path d="M91.8253 116.538C91.9844 116.538 92.1133 116.41 92.1133 116.252C92.1133 116.094 91.9844 115.966 91.8253 115.966C91.6663 115.966 91.5374 116.094 91.5374 116.252C91.5374 116.41 91.6663 116.538 91.8253 116.538Z" stroke="white" stroke-width="0.5" stroke-miterlimit="10"/>
<path d="M91.8253 104.279C91.9844 104.279 92.1133 104.151 92.1133 103.993C92.1133 103.835 91.9844 103.707 91.8253 103.707C91.6663 103.707 91.5374 103.835 91.5374 103.993C91.5374 104.151 91.6663 104.279 91.8253 104.279Z" stroke="white" stroke-width="0.5" stroke-miterlimit="10"/>
<path d="M69.1569 116.4C69.3159 116.4 69.4448 116.272 69.4448 116.114C69.4448 115.957 69.3159 115.829 69.1569 115.829C68.9978 115.829 68.8689 115.957 68.8689 116.114C68.8689 116.272 68.9978 116.4 69.1569 116.4Z" stroke="white" stroke-width="0.5" stroke-miterlimit="10"/>
<path d="M69.1569 104.142C69.3159 104.142 69.4448 104.014 69.4448 103.856C69.4448 103.698 69.3159 103.57 69.1569 103.57C68.9978 103.57 68.8689 103.698 68.8689 103.856C68.8689 104.014 68.9978 104.142 69.1569 104.142Z" stroke="white" stroke-width="0.5" stroke-miterlimit="10"/>
<path d="M0.276428 119.488H163.712" stroke="white" stroke-width="0.5" stroke-miterlimit="10"/>
<path d="M163.677 238.633H0.241882" stroke="white" stroke-width="0.5" stroke-miterlimit="10"/>
<path d="M103.931 5.99207H59.9421C58.8798 5.99207 58.0186 6.84707 58.0186 7.90177V26.8273C58.0186 27.882 58.8798 28.737 59.9421 28.737H103.931C104.994 28.737 105.855 27.882 105.855 26.8273V7.90177C105.855 6.84707 104.994 5.99207 103.931 5.99207Z" fill="#2CB6BF" stroke="white" stroke-width="0.5" stroke-miterlimit="10"/>
<path d="M100.337 6.09498L100.153 6.34656V7.92464V12.7046L100.142 28.634H103.194L104.265 28.5769L104.991 28.2681L105.613 27.7421L105.774 26.6557V23.7626V14.8316V8.06186L105.44 6.72393L104.553 6.09498L102.146 5.99207L100.337 6.09498Z" fill="#227EB0"/>
<path d="M100.038 28.7484V5.99207" stroke="white" stroke-width="0.5" stroke-miterlimit="10"/>
<path d="M105.855 16.2954H100.038V18.4567H105.855V16.2954Z" stroke="white" stroke-width="0.5" stroke-miterlimit="10"/>
<path d="M102.941 24.4145C103.507 24.4145 103.966 23.9589 103.966 23.3968C103.966 22.8347 103.507 22.379 102.941 22.379C102.374 22.379 101.915 22.8347 101.915 23.3968C101.915 23.9589 102.374 24.4145 102.941 24.4145Z" stroke="white" stroke-width="0.5" stroke-miterlimit="10"/>
<path d="M103.931 5.99207H59.9421C58.8798 5.99207 58.0186 6.84707 58.0186 7.90177V26.8273C58.0186 27.882 58.8798 28.737 59.9421 28.737H103.931C104.994 28.737 105.855 27.882 105.855 26.8273V7.90177C105.855 6.84707 104.994 5.99207 103.931 5.99207Z" stroke="white" stroke-width="0.5" stroke-miterlimit="10"/>
<path d="M51.142 5.99207H7.15296C6.09059 5.99207 5.22937 6.84707 5.22937 7.90177V26.8273C5.22937 27.882 6.09059 28.737 7.15296 28.737H51.142C52.2044 28.737 53.0656 27.882 53.0656 26.8273V7.90177C53.0656 6.84707 52.2044 5.99207 51.142 5.99207Z" fill="#2CB6BF" stroke="white" stroke-width="0.5" stroke-miterlimit="10"/>
<path d="M47.5483 6.09498L47.3755 6.34656V7.92464V12.7046L47.364 28.634H50.4049L51.4761 28.5769L52.2133 28.2681L52.8353 27.7421L52.9965 26.6557V23.7626V14.8316V8.06186L52.651 6.72393L51.7641 6.09498L49.3682 5.99207L47.5483 6.09498Z" fill="#227EB0"/>
<path d="M47.2488 28.7484V5.99207" stroke="white" stroke-width="0.5" stroke-miterlimit="10"/>
<path d="M53.0656 16.2954H47.2488V18.4567H53.0656V16.2954Z" stroke="white" stroke-width="0.5" stroke-miterlimit="10"/>
<path d="M50.163 24.4145C50.7291 24.4145 51.1881 23.9589 51.1881 23.3968C51.1881 22.8347 50.7291 22.379 50.163 22.379C49.5968 22.379 49.1378 22.8347 49.1378 23.3968C49.1378 23.9589 49.5968 24.4145 50.163 24.4145Z" stroke="white" stroke-width="0.5" stroke-miterlimit="10"/>
<path d="M51.142 5.99207H7.15296C6.09059 5.99207 5.22937 6.84707 5.22937 7.90177V26.8273C5.22937 27.882 6.09059 28.737 7.15296 28.737H51.142C52.2044 28.737 53.0656 27.882 53.0656 26.8273V7.90177C53.0656 6.84707 52.2044 5.99207 51.142 5.99207Z" stroke="white" stroke-width="0.5" stroke-miterlimit="10"/>
<path d="M156.709 5.99207H112.72C111.657 5.99207 110.796 6.84707 110.796 7.90177V26.8273C110.796 27.882 111.657 28.737 112.72 28.737H156.709C157.771 28.737 158.632 27.882 158.632 26.8273V7.90177C158.632 6.84707 157.771 5.99207 156.709 5.99207Z" fill="#2CB6BF" stroke="white" stroke-width="0.5" stroke-miterlimit="10"/>
<path d="M153.115 6.09498L152.942 6.34656V7.92464V12.7046L152.919 28.634H155.972L157.043 28.5769L157.768 28.2681L158.402 27.7421L158.563 26.6557V23.7626V14.8316V8.06186L158.218 6.72393L157.331 6.09498L154.935 5.99207L153.115 6.09498Z" fill="#227EB0"/>
<path d="M152.816 28.7484V5.99207" stroke="white" stroke-width="0.5" stroke-miterlimit="10"/>
<path d="M158.632 16.2954H152.816V18.4567H158.632V16.2954Z" stroke="white" stroke-width="0.5" stroke-miterlimit="10"/>
<path d="M155.718 24.4145C156.284 24.4145 156.743 23.9589 156.743 23.3968C156.743 22.8347 156.284 22.379 155.718 22.379C155.152 22.379 154.693 22.8347 154.693 23.3968C154.693 23.9589 155.152 24.4145 155.718 24.4145Z" stroke="white" stroke-width="0.5" stroke-miterlimit="10"/>
<path d="M156.709 5.99207H112.72C111.657 5.99207 110.796 6.84707 110.796 7.90177V26.8273C110.796 27.882 111.657 28.737 112.72 28.737H156.709C157.771 28.737 158.632 27.882 158.632 26.8273V7.90177C158.632 6.84707 157.771 5.99207 156.709 5.99207Z" stroke="white" stroke-width="0.5" stroke-miterlimit="10"/>
<path d="M103.931 34.7406H59.9421C58.8798 34.7406 58.0186 35.5956 58.0186 36.6503V55.5758C58.0186 56.6305 58.8798 57.4855 59.9421 57.4855H103.931C104.994 57.4855 105.855 56.6305 105.855 55.5758V36.6503C105.855 35.5956 104.994 34.7406 103.931 34.7406Z" fill="#2CB6BF" stroke="white" stroke-width="0.5" stroke-miterlimit="10"/>
<path d="M100.337 34.8321L100.153 35.0837V36.6732V41.4417L100.142 57.3711H103.194L104.265 57.314L104.991 57.0052L105.613 56.4906L105.774 55.3928V52.4997V43.5687V36.799L105.44 35.461L104.553 34.8321L102.146 34.7406L100.337 34.8321Z" fill="#227EB0"/>
<path d="M100.038 57.4855V34.7406" stroke="white" stroke-width="0.5" stroke-miterlimit="10"/>
<path d="M105.855 45.0323H100.038V47.1936H105.855V45.0323Z" stroke="white" stroke-width="0.5" stroke-miterlimit="10"/>
<path d="M102.941 53.1515C103.507 53.1515 103.966 52.6958 103.966 52.1337C103.966 51.5716 103.507 51.116 102.941 51.116C102.374 51.116 101.915 51.5716 101.915 52.1337C101.915 52.6958 102.374 53.1515 102.941 53.1515Z" stroke="white" stroke-width="0.5" stroke-miterlimit="10"/>
<path d="M103.931 34.7406H59.9421C58.8798 34.7406 58.0186 35.5956 58.0186 36.6503V55.5758C58.0186 56.6305 58.8798 57.4855 59.9421 57.4855H103.931C104.994 57.4855 105.855 56.6305 105.855 55.5758V36.6503C105.855 35.5956 104.994 34.7406 103.931 34.7406Z" stroke="white" stroke-width="0.5" stroke-miterlimit="10"/>
<path d="M51.142 34.7406H7.15296C6.09059 34.7406 5.22937 35.5956 5.22937 36.6503V55.5758C5.22937 56.6305 6.09059 57.4855 7.15296 57.4855H51.142C52.2044 57.4855 53.0656 56.6305 53.0656 55.5758V36.6503C53.0656 35.5956 52.2044 34.7406 51.142 34.7406Z" fill="#2CB6BF" stroke="white" stroke-width="0.5" stroke-miterlimit="10"/>
<path d="M47.5483 34.8321L47.3755 35.0837V36.6732V41.4417L47.364 57.3711H50.4049L51.4761 57.314L52.2133 57.0052L52.8353 56.4906L52.9965 55.3928V52.4997V43.5687V36.799L52.651 35.461L51.7641 34.8321L49.3682 34.7406L47.5483 34.8321Z" fill="#227EB0"/>
<path d="M47.2488 57.4855V34.7406" stroke="white" stroke-width="0.5" stroke-miterlimit="10"/>
<path d="M53.0656 45.0323H47.2488V47.1936H53.0656V45.0323Z" stroke="white" stroke-width="0.5" stroke-miterlimit="10"/>
<path d="M50.163 53.1515C50.7291 53.1515 51.1881 52.6958 51.1881 52.1337C51.1881 51.5716 50.7291 51.116 50.163 51.116C49.5968 51.116 49.1378 51.5716 49.1378 52.1337C49.1378 52.6958 49.5968 53.1515 50.163 53.1515Z" stroke="white" stroke-width="0.5" stroke-miterlimit="10"/>
<path d="M51.142 34.7406H7.15296C6.09059 34.7406 5.22937 35.5956 5.22937 36.6503V55.5758C5.22937 56.6305 6.09059 57.4855 7.15296 57.4855H51.142C52.2044 57.4855 53.0656 56.6305 53.0656 55.5758V36.6503C53.0656 35.5956 52.2044 34.7406 51.142 34.7406Z" stroke="white" stroke-width="0.5" stroke-miterlimit="10"/>
<path d="M156.709 34.7406H112.72C111.657 34.7406 110.796 35.5956 110.796 36.6503V55.5758C110.796 56.6305 111.657 57.4855 112.72 57.4855H156.709C157.771 57.4855 158.632 56.6305 158.632 55.5758V36.6503C158.632 35.5956 157.771 34.7406 156.709 34.7406Z" fill="#2CB6BF" stroke="white" stroke-width="0.5" stroke-miterlimit="10"/>
<path d="M153.115 34.8321L152.942 35.0837V36.6732V41.4417L152.919 57.3711H155.972L157.043 57.314L157.768 57.0052L158.402 56.4906L158.563 55.3928V52.4997V43.5687V36.799L158.218 35.461L157.331 34.8321L154.935 34.7406L153.115 34.8321Z" fill="#227EB0"/>
<path d="M152.816 57.4855V34.7406" stroke="white" stroke-width="0.5" stroke-miterlimit="10"/>
<path d="M158.632 45.0323H152.816V47.1936H158.632V45.0323Z" stroke="white" stroke-width="0.5" stroke-miterlimit="10"/>
<path d="M155.718 53.1515C156.284 53.1515 156.743 52.6958 156.743 52.1337C156.743 51.5716 156.284 51.116 155.718 51.116C155.152 51.116 154.693 51.5716 154.693 52.1337C154.693 52.6958 155.152 53.1515 155.718 53.1515Z" stroke="white" stroke-width="0.5" stroke-miterlimit="10"/>
<path d="M156.709 34.7406H112.72C111.657 34.7406 110.796 35.5956 110.796 36.6503V55.5758C110.796 56.6305 111.657 57.4855 112.72 57.4855H156.709C157.771 57.4855 158.632 56.6305 158.632 55.5758V36.6503C158.632 35.5956 157.771 34.7406 156.709 34.7406Z" stroke="white" stroke-width="0.5" stroke-miterlimit="10"/>
<path d="M51.142 62.78H7.15296C6.09059 62.78 5.22937 63.635 5.22937 64.6897V83.6152C5.22937 84.6699 6.09059 85.5249 7.15296 85.5249H51.142C52.2044 85.5249 53.0656 84.6699 53.0656 83.6152V64.6897C53.0656 63.635 52.2044 62.78 51.142 62.78Z" fill="#2CB6BF" stroke="white" stroke-width="0.5" stroke-miterlimit="10"/>
<path d="M47.5483 62.8829L47.3755 63.1345V64.7126V69.4926L47.364 85.422H50.4049L51.4761 85.3648L52.2133 85.0561L52.8353 84.5301L52.9965 83.4437V80.5506V71.6195V64.8498L52.651 63.5119L51.7641 62.8829L49.3682 62.78L47.5483 62.8829Z" fill="#227EB0"/>
<path d="M47.2488 85.5364V62.78" stroke="white" stroke-width="0.5" stroke-miterlimit="10"/>
<path d="M53.0656 73.0833H47.2488V75.2445H53.0656V73.0833Z" stroke="white" stroke-width="0.5" stroke-miterlimit="10"/>
<path d="M50.163 81.2024C50.7291 81.2024 51.1881 80.7467 51.1881 80.1846C51.1881 79.6225 50.7291 79.1669 50.163 79.1669C49.5968 79.1669 49.1378 79.6225 49.1378 80.1846C49.1378 80.7467 49.5968 81.2024 50.163 81.2024Z" stroke="white" stroke-width="0.5" stroke-miterlimit="10"/>
<path d="M51.142 62.78H7.15296C6.09059 62.78 5.22937 63.635 5.22937 64.6897V83.6152C5.22937 84.6699 6.09059 85.5249 7.15296 85.5249H51.142C52.2044 85.5249 53.0656 84.6699 53.0656 83.6152V64.6897C53.0656 63.635 52.2044 62.78 51.142 62.78Z" stroke="white" stroke-width="0.5" stroke-miterlimit="10"/>
<path d="M156.709 62.78H112.72C111.657 62.78 110.796 63.635 110.796 64.6897V83.6152C110.796 84.6699 111.657 85.5249 112.72 85.5249H156.709C157.771 85.5249 158.632 84.6699 158.632 83.6152V64.6897C158.632 63.635 157.771 62.78 156.709 62.78Z" fill="#2CB6BF" stroke="white" stroke-width="0.5" stroke-miterlimit="10"/>
<path d="M153.115 62.8829L152.942 63.1345V64.7126V69.4926L152.919 85.422H155.972L157.043 85.3648L157.768 85.0561L158.402 84.5301L158.563 83.4437V80.5506V71.6195V64.8498L158.218 63.5119L157.331 62.8829L154.935 62.78L153.115 62.8829Z" fill="#227EB0"/>
<path d="M152.816 85.5364V62.78" stroke="white" stroke-width="0.5" stroke-miterlimit="10"/>
<path d="M158.632 73.0833H152.816V75.2445H158.632V73.0833Z" stroke="white" stroke-width="0.5" stroke-miterlimit="10"/>
<path d="M155.718 81.2024C156.284 81.2024 156.743 80.7467 156.743 80.1846C156.743 79.6225 156.284 79.1669 155.718 79.1669C155.152 79.1669 154.693 79.6225 154.693 80.1846C154.693 80.7467 155.152 81.2024 155.718 81.2024Z" stroke="white" stroke-width="0.5" stroke-miterlimit="10"/>
<path d="M156.709 62.78H112.72C111.657 62.78 110.796 63.635 110.796 64.6897V83.6152C110.796 84.6699 111.657 85.5249 112.72 85.5249H156.709C157.771 85.5249 158.632 84.6699 158.632 83.6152V64.6897C158.632 63.635 157.771 62.78 156.709 62.78Z" stroke="white" stroke-width="0.5" stroke-miterlimit="10"/>
<path d="M51.142 90.8309H7.15296C6.09059 90.8309 5.22937 91.6859 5.22937 92.7406V111.666C5.22937 112.721 6.09059 113.576 7.15296 113.576H51.142C52.2044 113.576 53.0656 112.721 53.0656 111.666V92.7406C53.0656 91.6859 52.2044 90.8309 51.142 90.8309Z" fill="#2CB6BF" stroke="white" stroke-width="0.5" stroke-miterlimit="10"/>
<path d="M47.5483 90.9338L47.3755 91.174V92.7635V97.532L47.364 113.461H50.4049L51.4761 113.404L52.2133 113.096L52.8353 112.581L52.9965 111.483V108.59V99.659V92.8893L52.651 91.5514L51.7641 90.9338L49.3682 90.8309L47.5483 90.9338Z" fill="#227EB0"/>
<path d="M47.2488 113.576V90.8309" stroke="white" stroke-width="0.5" stroke-miterlimit="10"/>
<path d="M53.0656 101.123H47.2488V103.284H53.0656V101.123Z" stroke="white" stroke-width="0.5" stroke-miterlimit="10"/>
<path d="M50.163 109.242C50.7291 109.242 51.1881 108.786 51.1881 108.224C51.1881 107.662 50.7291 107.206 50.163 107.206C49.5968 107.206 49.1378 107.662 49.1378 108.224C49.1378 108.786 49.5968 109.242 50.163 109.242Z" stroke="white" stroke-width="0.5" stroke-miterlimit="10"/>
<path d="M51.142 90.8309H7.15296C6.09059 90.8309 5.22937 91.6859 5.22937 92.7406V111.666C5.22937 112.721 6.09059 113.576 7.15296 113.576H51.142C52.2044 113.576 53.0656 112.721 53.0656 111.666V92.7406C53.0656 91.6859 52.2044 90.8309 51.142 90.8309Z" stroke="white" stroke-width="0.5" stroke-miterlimit="10"/>
<path d="M156.709 90.8309H112.72C111.657 90.8309 110.796 91.6859 110.796 92.7406V111.666C110.796 112.721 111.657 113.576 112.72 113.576H156.709C157.771 113.576 158.632 112.721 158.632 111.666V92.7406C158.632 91.6859 157.771 90.8309 156.709 90.8309Z" fill="#2CB6BF" stroke="white" stroke-width="0.5" stroke-miterlimit="10"/>
<path d="M153.115 90.9338L152.942 91.174V92.7635V97.532L152.919 113.461H155.972L157.043 113.404L157.768 113.096L158.402 112.581L158.563 111.483V108.59V99.659V92.8893L158.218 91.5514L157.331 90.9338L154.935 90.8309L153.115 90.9338Z" fill="#227EB0"/>
<path d="M152.816 113.576V90.8309" stroke="white" stroke-width="0.5" stroke-miterlimit="10"/>
<path d="M158.632 101.123H152.816V103.284H158.632V101.123Z" stroke="white" stroke-width="0.5" stroke-miterlimit="10"/>
<path d="M155.718 109.242C156.284 109.242 156.743 108.786 156.743 108.224C156.743 107.662 156.284 107.206 155.718 107.206C155.152 107.206 154.693 107.662 154.693 108.224C154.693 108.786 155.152 109.242 155.718 109.242Z" stroke="white" stroke-width="0.5" stroke-miterlimit="10"/>
<path d="M156.709 90.8309H112.72C111.657 90.8309 110.796 91.6859 110.796 92.7406V111.666C110.796 112.721 111.657 113.576 112.72 113.576H156.709C157.771 113.576 158.632 112.721 158.632 111.666V92.7406C158.632 91.6859 157.771 90.8309 156.709 90.8309Z" stroke="white" stroke-width="0.5" stroke-miterlimit="10"/>
<path d="M103.931 125.514H59.9421C58.8798 125.514 58.0186 126.369 58.0186 127.424V146.349C58.0186 147.404 58.8798 148.259 59.9421 148.259H103.931C104.994 148.259 105.855 147.404 105.855 146.349V127.424C105.855 126.369 104.994 125.514 103.931 125.514Z" fill="#2CB6BF" stroke="white" stroke-width="0.5" stroke-miterlimit="10"/>
<path d="M100.337 125.617L100.153 125.869V127.447V132.215L100.142 148.156H103.194L104.265 148.088L104.991 147.779L105.613 147.264L105.774 146.178V143.273V134.342V127.584L105.44 126.246L104.553 125.617L102.146 125.514L100.337 125.617Z" fill="#227EB0"/>
<path d="M100.038 148.259V125.514" stroke="white" stroke-width="0.5" stroke-miterlimit="10"/>
<path d="M105.855 135.806H100.038V137.967H105.855V135.806Z" stroke="white" stroke-width="0.5" stroke-miterlimit="10"/>
<path d="M102.941 143.925C103.507 143.925 103.966 143.47 103.966 142.908C103.966 142.345 103.507 141.89 102.941 141.89C102.374 141.89 101.915 142.345 101.915 142.908C101.915 143.47 102.374 143.925 102.941 143.925Z" stroke="white" stroke-width="0.5" stroke-miterlimit="10"/>
<path d="M103.931 125.514H59.9421C58.8798 125.514 58.0186 126.369 58.0186 127.424V146.349C58.0186 147.404 58.8798 148.259 59.9421 148.259H103.931C104.994 148.259 105.855 147.404 105.855 146.349V127.424C105.855 126.369 104.994 125.514 103.931 125.514Z" stroke="white" stroke-width="0.5" stroke-miterlimit="10"/>
<path d="M51.142 125.514H7.15296C6.09059 125.514 5.22937 126.369 5.22937 127.424V146.349C5.22937 147.404 6.09059 148.259 7.15296 148.259H51.142C52.2044 148.259 53.0656 147.404 53.0656 146.349V127.424C53.0656 126.369 52.2044 125.514 51.142 125.514Z" fill="#2CB6BF" stroke="white" stroke-width="0.5" stroke-miterlimit="10"/>
<path d="M47.5483 125.617L47.3755 125.869V127.447V132.215L47.364 148.156H50.4049L51.4761 148.088L52.2133 147.779L52.8353 147.264L52.9965 146.178V143.273V134.342V127.584L52.651 126.246L51.7641 125.617L49.3682 125.514L47.5483 125.617Z" fill="#227EB0"/>
<path d="M47.2488 148.259V125.514" stroke="white" stroke-width="0.5" stroke-miterlimit="10"/>
<path d="M53.0656 135.806H47.2488V137.967H53.0656V135.806Z" stroke="white" stroke-width="0.5" stroke-miterlimit="10"/>
<path d="M50.163 143.925C50.7291 143.925 51.1881 143.47 51.1881 142.908C51.1881 142.345 50.7291 141.89 50.163 141.89C49.5968 141.89 49.1378 142.345 49.1378 142.908C49.1378 143.47 49.5968 143.925 50.163 143.925Z" stroke="white" stroke-width="0.5" stroke-miterlimit="10"/>
<path d="M51.142 125.514H7.15296C6.09059 125.514 5.22937 126.369 5.22937 127.424V146.349C5.22937 147.404 6.09059 148.259 7.15296 148.259H51.142C52.2044 148.259 53.0656 147.404 53.0656 146.349V127.424C53.0656 126.369 52.2044 125.514 51.142 125.514Z" stroke="white" stroke-width="0.5" stroke-miterlimit="10"/>
<path d="M156.709 125.514H112.72C111.657 125.514 110.796 126.369 110.796 127.424V146.349C110.796 147.404 111.657 148.259 112.72 148.259H156.709C157.771 148.259 158.632 147.404 158.632 146.349V127.424C158.632 126.369 157.771 125.514 156.709 125.514Z" fill="#2CB6BF" stroke="white" stroke-width="0.5" stroke-miterlimit="10"/>
<path d="M153.115 125.617L152.942 125.869V127.447V132.215L152.919 148.156H155.972L157.043 148.088L157.768 147.779L158.402 147.264L158.563 146.178V143.273V134.342V127.584L158.218 126.246L157.331 125.617L154.935 125.514L153.115 125.617Z" fill="#227EB0"/>
<path d="M152.816 148.259V125.514" stroke="white" stroke-width="0.5" stroke-miterlimit="10"/>
<path d="M158.632 135.806H152.816V137.967H158.632V135.806Z" stroke="white" stroke-width="0.5" stroke-miterlimit="10"/>
<path d="M155.718 143.925C156.284 143.925 156.743 143.47 156.743 142.908C156.743 142.345 156.284 141.89 155.718 141.89C155.152 141.89 154.693 142.345 154.693 142.908C154.693 143.47 155.152 143.925 155.718 143.925Z" stroke="white" stroke-width="0.5" stroke-miterlimit="10"/>
<path d="M156.709 125.514H112.72C111.657 125.514 110.796 126.369 110.796 127.424V146.349C110.796 147.404 111.657 148.259 112.72 148.259H156.709C157.771 148.259 158.632 147.404 158.632 146.349V127.424C158.632 126.369 157.771 125.514 156.709 125.514Z" stroke="white" stroke-width="0.5" stroke-miterlimit="10"/>
<path d="M103.931 154.251H59.9421C58.8798 154.251 58.0186 155.106 58.0186 156.161V175.087C58.0186 176.141 58.8798 176.996 59.9421 176.996H103.931C104.994 176.996 105.855 176.141 105.855 175.087V156.161C105.855 155.106 104.994 154.251 103.931 154.251Z" fill="#2CB6BF" stroke="white" stroke-width="0.5" stroke-miterlimit="10"/>
<path d="M100.337 154.354L100.153 154.606V156.184V160.953L100.142 176.893H103.194L104.265 176.825L104.991 176.516L105.613 176.001L105.774 174.915V172.022V163.08V156.321L105.44 154.983L104.553 154.354L102.146 154.251L100.337 154.354Z" fill="#227EB0"/>
<path d="M100.038 176.996V154.251" stroke="white" stroke-width="0.5" stroke-miterlimit="10"/>
<path d="M105.855 164.543H100.038V166.704H105.855V164.543Z" stroke="white" stroke-width="0.5" stroke-miterlimit="10"/>
<path d="M102.941 172.662C103.507 172.662 103.966 172.207 103.966 171.644C103.966 171.082 103.507 170.627 102.941 170.627C102.374 170.627 101.915 171.082 101.915 171.644C101.915 172.207 102.374 172.662 102.941 172.662Z" stroke="white" stroke-width="0.5" stroke-miterlimit="10"/>
<path d="M103.931 154.251H59.9421C58.8798 154.251 58.0186 155.106 58.0186 156.161V175.087C58.0186 176.141 58.8798 176.996 59.9421 176.996H103.931C104.994 176.996 105.855 176.141 105.855 175.087V156.161C105.855 155.106 104.994 154.251 103.931 154.251Z" stroke="white" stroke-width="0.5" stroke-miterlimit="10"/>
<path d="M51.142 154.251H7.15296C6.09059 154.251 5.22937 155.106 5.22937 156.161V175.087C5.22937 176.141 6.09059 176.996 7.15296 176.996H51.142C52.2044 176.996 53.0656 176.141 53.0656 175.087V156.161C53.0656 155.106 52.2044 154.251 51.142 154.251Z" fill="#2CB6BF" stroke="white" stroke-width="0.5" stroke-miterlimit="10"/>
<path d="M47.5483 154.354L47.3755 154.606V156.184V160.953L47.364 176.893H50.4049L51.4761 176.825L52.2133 176.516L52.8353 176.001L52.9965 174.915V172.022V163.08V156.321L52.651 154.983L51.7641 154.354L49.3682 154.251L47.5483 154.354Z" fill="#227EB0"/>
<path d="M47.2488 176.996V154.251" stroke="white" stroke-width="0.5" stroke-miterlimit="10"/>
<path d="M53.0656 164.543H47.2488V166.704H53.0656V164.543Z" stroke="white" stroke-width="0.5" stroke-miterlimit="10"/>
<path d="M50.163 172.662C50.7291 172.662 51.1881 172.207 51.1881 171.644C51.1881 171.082 50.7291 170.627 50.163 170.627C49.5968 170.627 49.1378 171.082 49.1378 171.644C49.1378 172.207 49.5968 172.662 50.163 172.662Z" stroke="white" stroke-width="0.5" stroke-miterlimit="10"/>
<path d="M51.142 154.251H7.15296C6.09059 154.251 5.22937 155.106 5.22937 156.161V175.087C5.22937 176.141 6.09059 176.996 7.15296 176.996H51.142C52.2044 176.996 53.0656 176.141 53.0656 175.087V156.161C53.0656 155.106 52.2044 154.251 51.142 154.251Z" stroke="white" stroke-width="0.5" stroke-miterlimit="10"/>
<path d="M156.709 154.251H112.72C111.657 154.251 110.796 155.106 110.796 156.161V175.087C110.796 176.141 111.657 176.996 112.72 176.996H156.709C157.771 176.996 158.632 176.141 158.632 175.087V156.161C158.632 155.106 157.771 154.251 156.709 154.251Z" fill="#2CB6BF" stroke="white" stroke-width="0.5" stroke-miterlimit="10"/>
<path d="M153.115 154.354L152.942 154.606V156.184V160.953L152.919 176.893H155.972L157.043 176.825L157.768 176.516L158.402 176.001L158.563 174.915V172.022V163.08V156.321L158.218 154.983L157.331 154.354L154.935 154.251L153.115 154.354Z" fill="#227EB0"/>
<path d="M152.816 176.996V154.251" stroke="white" stroke-width="0.5" stroke-miterlimit="10"/>
<path d="M158.632 164.543H152.816V166.704H158.632V164.543Z" stroke="white" stroke-width="0.5" stroke-miterlimit="10"/>
<path d="M155.718 172.662C156.284 172.662 156.743 172.207 156.743 171.644C156.743 171.082 156.284 170.627 155.718 170.627C155.152 170.627 154.693 171.082 154.693 171.644C154.693 172.207 155.152 172.662 155.718 172.662Z" stroke="white" stroke-width="0.5" stroke-miterlimit="10"/>
<path d="M156.709 154.251H112.72C111.657 154.251 110.796 155.106 110.796 156.161V175.087C110.796 176.141 111.657 176.996 112.72 176.996H156.709C157.771 176.996 158.632 176.141 158.632 175.087V156.161C158.632 155.106 157.771 154.251 156.709 154.251Z" stroke="white" stroke-width="0.5" stroke-miterlimit="10"/>
<path d="M103.931 182.302H59.9421C58.8798 182.302 58.0186 183.157 58.0186 184.212V203.137C58.0186 204.192 58.8798 205.047 59.9421 205.047H103.931C104.994 205.047 105.855 204.192 105.855 203.137V184.212C105.855 183.157 104.994 182.302 103.931 182.302Z" fill="#2CB6BF" stroke="white" stroke-width="0.5" stroke-miterlimit="10"/>
<path d="M100.337 182.405L100.153 182.657V184.235V189.003L100.142 204.944H103.194L104.265 204.876L104.991 204.567L105.613 204.052L105.774 202.966V200.061V191.13V184.372L105.44 183.034L104.553 182.405L102.146 182.302L100.337 182.405Z" fill="#227EB0"/>
<path d="M100.038 205.047V182.302" stroke="white" stroke-width="0.5" stroke-miterlimit="10"/>
<path d="M105.855 192.594H100.038V194.755H105.855V192.594Z" stroke="white" stroke-width="0.5" stroke-miterlimit="10"/>
<path d="M102.941 200.713C103.507 200.713 103.966 200.258 103.966 199.695C103.966 199.133 103.507 198.678 102.941 198.678C102.374 198.678 101.915 199.133 101.915 199.695C101.915 200.258 102.374 200.713 102.941 200.713Z" stroke="white" stroke-width="0.5" stroke-miterlimit="10"/>
<path d="M103.931 182.302H59.9421C58.8798 182.302 58.0186 183.157 58.0186 184.212V203.137C58.0186 204.192 58.8798 205.047 59.9421 205.047H103.931C104.994 205.047 105.855 204.192 105.855 203.137V184.212C105.855 183.157 104.994 182.302 103.931 182.302Z" stroke="white" stroke-width="0.5" stroke-miterlimit="10"/>
<path d="M51.142 182.302H7.15296C6.09059 182.302 5.22937 183.157 5.22937 184.212V203.137C5.22937 204.192 6.09059 205.047 7.15296 205.047H51.142C52.2044 205.047 53.0656 204.192 53.0656 203.137V184.212C53.0656 183.157 52.2044 182.302 51.142 182.302Z" fill="#2CB6BF" stroke="white" stroke-width="0.5" stroke-miterlimit="10"/>
<path d="M47.5483 182.405L47.3755 182.657V184.235V189.003L47.364 204.944H50.4049L51.4761 204.876L52.2133 204.567L52.8353 204.052L52.9965 202.966V200.061V191.13V184.372L52.651 183.034L51.7641 182.405L49.3682 182.302L47.5483 182.405Z" fill="#227EB0"/>
<path d="M47.2488 205.047V182.302" stroke="white" stroke-width="0.5" stroke-miterlimit="10"/>
<path d="M53.0656 192.594H47.2488V194.755H53.0656V192.594Z" stroke="white" stroke-width="0.5" stroke-miterlimit="10"/>
<path d="M50.163 200.713C50.7291 200.713 51.1881 200.258 51.1881 199.695C51.1881 199.133 50.7291 198.678 50.163 198.678C49.5968 198.678 49.1378 199.133 49.1378 199.695C49.1378 200.258 49.5968 200.713 50.163 200.713Z" stroke="white" stroke-width="0.5" stroke-miterlimit="10"/>
<path d="M51.142 182.302H7.15296C6.09059 182.302 5.22937 183.157 5.22937 184.212V203.137C5.22937 204.192 6.09059 205.047 7.15296 205.047H51.142C52.2044 205.047 53.0656 204.192 53.0656 203.137V184.212C53.0656 183.157 52.2044 182.302 51.142 182.302Z" stroke="white" stroke-width="0.5" stroke-miterlimit="10"/>
<path d="M156.709 182.302H112.72C111.657 182.302 110.796 183.157 110.796 184.212V203.137C110.796 204.192 111.657 205.047 112.72 205.047H156.709C157.771 205.047 158.632 204.192 158.632 203.137V184.212C158.632 183.157 157.771 182.302 156.709 182.302Z" fill="#2CB6BF" stroke="white" stroke-width="0.5" stroke-miterlimit="10"/>
<path d="M153.115 182.405L152.942 182.657V184.235V189.003L152.919 204.944H155.972L157.043 204.876L157.768 204.567L158.402 204.052L158.563 202.966V200.061V191.13V184.372L158.218 183.034L157.331 182.405L154.935 182.302L153.115 182.405Z" fill="#227EB0"/>
<path d="M152.816 205.047V182.302" stroke="white" stroke-width="0.5" stroke-miterlimit="10"/>
<path d="M158.632 192.594H152.816V194.755H158.632V192.594Z" stroke="white" stroke-width="0.5" stroke-miterlimit="10"/>
<path d="M155.718 200.713C156.284 200.713 156.743 200.258 156.743 199.695C156.743 199.133 156.284 198.678 155.718 198.678C155.152 198.678 154.693 199.133 154.693 199.695C154.693 200.258 155.152 200.713 155.718 200.713Z" stroke="white" stroke-width="0.5" stroke-miterlimit="10"/>
<path d="M156.709 182.302H112.72C111.657 182.302 110.796 183.157 110.796 184.212V203.137C110.796 204.192 111.657 205.047 112.72 205.047H156.709C157.771 205.047 158.632 204.192 158.632 203.137V184.212C158.632 183.157 157.771 182.302 156.709 182.302Z" stroke="white" stroke-width="0.5" stroke-miterlimit="10"/>
<path d="M103.931 210.342H59.9421C58.8798 210.342 58.0186 211.197 58.0186 212.251V231.177C58.0186 232.232 58.8798 233.087 59.9421 233.087H103.931C104.994 233.087 105.855 232.232 105.855 231.177V212.251C105.855 211.197 104.994 210.342 103.931 210.342Z" fill="#2CB6BF" stroke="white" stroke-width="0.5" stroke-miterlimit="10"/>
<path d="M100.337 210.445L100.153 210.696V212.274V217.043L100.142 232.984H103.194L104.265 232.927L104.991 232.606L105.613 232.092L105.774 231.005V228.112V219.17V212.412L105.44 211.074L104.553 210.445L102.146 210.342L100.337 210.445Z" fill="#227EB0"/>
<path d="M100.038 233.098V210.342" stroke="white" stroke-width="0.5" stroke-miterlimit="10"/>
<path d="M105.855 220.634H100.038V222.795H105.855V220.634Z" stroke="white" stroke-width="0.5" stroke-miterlimit="10"/>
<path d="M102.941 228.753C103.507 228.753 103.966 228.297 103.966 227.735C103.966 227.173 103.507 226.717 102.941 226.717C102.374 226.717 101.915 227.173 101.915 227.735C101.915 228.297 102.374 228.753 102.941 228.753Z" stroke="white" stroke-width="0.5" stroke-miterlimit="10"/>
<path d="M103.931 210.342H59.9421C58.8798 210.342 58.0186 211.197 58.0186 212.251V231.177C58.0186 232.232 58.8798 233.087 59.9421 233.087H103.931C104.994 233.087 105.855 232.232 105.855 231.177V212.251C105.855 211.197 104.994 210.342 103.931 210.342Z" stroke="white" stroke-width="0.5" stroke-miterlimit="10"/>
<path d="M51.142 210.342H7.15296C6.09059 210.342 5.22937 211.197 5.22937 212.251V231.177C5.22937 232.232 6.09059 233.087 7.15296 233.087H51.142C52.2044 233.087 53.0656 232.232 53.0656 231.177V212.251C53.0656 211.197 52.2044 210.342 51.142 210.342Z" fill="#2CB6BF" stroke="white" stroke-width="0.5" stroke-miterlimit="10"/>
<path d="M47.5483 210.445L47.3755 210.696V212.274V217.043L47.364 232.984H50.4049L51.4761 232.927L52.2133 232.606L52.8353 232.092L52.9965 231.005V228.112V219.17V212.412L52.651 211.074L51.7641 210.445L49.3682 210.342L47.5483 210.445Z" fill="#227EB0"/>
<path d="M47.2488 233.098V210.342" stroke="white" stroke-width="0.5" stroke-miterlimit="10"/>
<path d="M53.0656 220.634H47.2488V222.795H53.0656V220.634Z" stroke="white" stroke-width="0.5" stroke-miterlimit="10"/>
<path d="M50.163 228.753C50.7291 228.753 51.1881 228.297 51.1881 227.735C51.1881 227.173 50.7291 226.717 50.163 226.717C49.5968 226.717 49.1378 227.173 49.1378 227.735C49.1378 228.297 49.5968 228.753 50.163 228.753Z" stroke="white" stroke-width="0.5" stroke-miterlimit="10"/>
<path d="M51.142 210.342H7.15296C6.09059 210.342 5.22937 211.197 5.22937 212.251V231.177C5.22937 232.232 6.09059 233.087 7.15296 233.087H51.142C52.2044 233.087 53.0656 232.232 53.0656 231.177V212.251C53.0656 211.197 52.2044 210.342 51.142 210.342Z" stroke="white" stroke-width="0.5" stroke-miterlimit="10"/>
<path d="M156.709 210.342H112.72C111.657 210.342 110.796 211.197 110.796 212.251V231.177C110.796 232.232 111.657 233.087 112.72 233.087H156.709C157.771 233.087 158.632 232.232 158.632 231.177V212.251C158.632 211.197 157.771 210.342 156.709 210.342Z" fill="#2CB6BF" stroke="white" stroke-width="0.5" stroke-miterlimit="10"/>
<path d="M153.115 210.445L152.942 210.696V212.274V217.043L152.919 232.984H155.972L157.043 232.927L157.768 232.606L158.402 232.092L158.563 231.005V228.112V219.17V212.412L158.218 211.074L157.331 210.445L154.935 210.342L153.115 210.445Z" fill="#227EB0"/>
<path d="M152.816 233.098V210.342" stroke="white" stroke-width="0.5" stroke-miterlimit="10"/>
<path d="M158.632 220.634H152.816V222.795H158.632V220.634Z" stroke="white" stroke-width="0.5" stroke-miterlimit="10"/>
<path d="M155.718 228.753C156.284 228.753 156.743 228.297 156.743 227.735C156.743 227.173 156.284 226.717 155.718 226.717C155.152 226.717 154.693 227.173 154.693 227.735C154.693 228.297 155.152 228.753 155.718 228.753Z" stroke="white" stroke-width="0.5" stroke-miterlimit="10"/>
<path d="M156.709 210.342H112.72C111.657 210.342 110.796 211.197 110.796 212.251V231.177C110.796 232.232 111.657 233.087 112.72 233.087H156.709C157.771 233.087 158.632 232.232 158.632 231.177V212.251C158.632 211.197 157.771 210.342 156.709 210.342Z" stroke="white" stroke-width="0.5" stroke-miterlimit="10"/>
<path d="M103.931 244.099H59.9421C58.8798 244.099 58.0186 244.954 58.0186 246.009V264.934C58.0186 265.989 58.8798 266.844 59.9421 266.844H103.931C104.994 266.844 105.855 265.989 105.855 264.934V246.009C105.855 244.954 104.994 244.099 103.931 244.099Z" fill="#2CB6BF" stroke="white" stroke-width="0.5" stroke-miterlimit="10"/>
<path d="M100.337 244.202L100.153 244.453V246.031V250.8L100.142 266.741H103.194L104.265 266.684L104.991 266.375L105.613 265.849L105.774 264.763V261.869V252.927V246.169L105.44 244.831L104.553 244.202L102.146 244.099L100.337 244.202Z" fill="#227EB0"/>
<path d="M100.038 266.855V244.099" stroke="white" stroke-width="0.5" stroke-miterlimit="10"/>
<path d="M105.855 254.391H100.038V256.552H105.855V254.391Z" stroke="white" stroke-width="0.5" stroke-miterlimit="10"/>
<path d="M102.941 262.51C103.507 262.51 103.966 262.054 103.966 261.492C103.966 260.93 103.507 260.474 102.941 260.474C102.374 260.474 101.915 260.93 101.915 261.492C101.915 262.054 102.374 262.51 102.941 262.51Z" stroke="white" stroke-width="0.5" stroke-miterlimit="10"/>
<path d="M103.931 244.099H59.9421C58.8798 244.099 58.0186 244.954 58.0186 246.009V264.934C58.0186 265.989 58.8798 266.844 59.9421 266.844H103.931C104.994 266.844 105.855 265.989 105.855 264.934V246.009C105.855 244.954 104.994 244.099 103.931 244.099Z" stroke="white" stroke-width="0.5" stroke-miterlimit="10"/>
<path d="M51.142 244.099H7.15296C6.09059 244.099 5.22937 244.954 5.22937 246.009V264.934C5.22937 265.989 6.09059 266.844 7.15296 266.844H51.142C52.2044 266.844 53.0656 265.989 53.0656 264.934V246.009C53.0656 244.954 52.2044 244.099 51.142 244.099Z" fill="#2CB6BF" stroke="white" stroke-width="0.5" stroke-miterlimit="10"/>
<path d="M47.5483 244.202L47.3755 244.453V246.031V250.8L47.364 266.741H50.4049L51.4761 266.684L52.2133 266.375L52.8353 265.849L52.9965 264.763V261.869V252.927V246.169L52.651 244.831L51.7641 244.202L49.3682 244.099L47.5483 244.202Z" fill="#227EB0"/>
<path d="M47.2488 266.855V244.099" stroke="white" stroke-width="0.5" stroke-miterlimit="10"/>
<path d="M53.0656 254.391H47.2488V256.552H53.0656V254.391Z" stroke="white" stroke-width="0.5" stroke-miterlimit="10"/>
<path d="M50.163 262.51C50.7291 262.51 51.1881 262.054 51.1881 261.492C51.1881 260.93 50.7291 260.474 50.163 260.474C49.5968 260.474 49.1378 260.93 49.1378 261.492C49.1378 262.054 49.5968 262.51 50.163 262.51Z" stroke="white" stroke-width="0.5" stroke-miterlimit="10"/>
<path d="M51.142 244.099H7.15296C6.09059 244.099 5.22937 244.954 5.22937 246.009V264.934C5.22937 265.989 6.09059 266.844 7.15296 266.844H51.142C52.2044 266.844 53.0656 265.989 53.0656 264.934V246.009C53.0656 244.954 52.2044 244.099 51.142 244.099Z" stroke="white" stroke-width="0.5" stroke-miterlimit="10"/>
<path d="M156.709 244.099H112.72C111.657 244.099 110.796 244.954 110.796 246.009V264.934C110.796 265.989 111.657 266.844 112.72 266.844H156.709C157.771 266.844 158.632 265.989 158.632 264.934V246.009C158.632 244.954 157.771 244.099 156.709 244.099Z" fill="#2CB6BF" stroke="white" stroke-width="0.5" stroke-miterlimit="10"/>
<path d="M153.115 244.202L152.942 244.453V246.031V250.8L152.919 266.741H155.972L157.043 266.684L157.768 266.375L158.402 265.849L158.563 264.763V261.869V252.927V246.169L158.218 244.831L157.331 244.202L154.935 244.099L153.115 244.202Z" fill="#227EB0"/>
<path d="M152.816 266.855V244.099" stroke="white" stroke-width="0.5" stroke-miterlimit="10"/>
<path d="M158.632 254.391H152.816V256.552H158.632V254.391Z" stroke="white" stroke-width="0.5" stroke-miterlimit="10"/>
<path d="M155.718 262.51C156.284 262.51 156.743 262.054 156.743 261.492C156.743 260.93 156.284 260.474 155.718 260.474C155.152 260.474 154.693 260.93 154.693 261.492C154.693 262.054 155.152 262.51 155.718 262.51Z" stroke="white" stroke-width="0.5" stroke-miterlimit="10"/>
<path d="M156.709 244.099H112.72C111.657 244.099 110.796 244.954 110.796 246.009V264.934C110.796 265.989 111.657 266.844 112.72 266.844H156.709C157.771 266.844 158.632 265.989 158.632 264.934V246.009C158.632 244.954 157.771 244.099 156.709 244.099Z" stroke="white" stroke-width="0.5" stroke-miterlimit="10"/>
<path d="M103.931 272.836H59.9421C58.8798 272.836 58.0186 273.691 58.0186 274.746V293.671C58.0186 294.726 58.8798 295.581 59.9421 295.581H103.931C104.994 295.581 105.855 294.726 105.855 293.671V274.746C105.855 273.691 104.994 272.836 103.931 272.836Z" fill="#2CB6BF" stroke="white" stroke-width="0.5" stroke-miterlimit="10"/>
<path d="M100.337 272.939L100.153 273.19V274.769V279.548L100.142 295.478H103.194L104.265 295.421L104.991 295.112L105.613 294.586L105.774 293.5V290.606V281.664V274.906L105.44 273.568L104.553 272.939L102.146 272.836L100.337 272.939Z" fill="#227EB0"/>
<path d="M100.038 295.592V272.836" stroke="white" stroke-width="0.5" stroke-miterlimit="10"/>
<path d="M105.855 283.128H100.038V285.289H105.855V283.128Z" stroke="white" stroke-width="0.5" stroke-miterlimit="10"/>
<path d="M102.941 291.247C103.507 291.247 103.966 290.791 103.966 290.229C103.966 289.667 103.507 289.211 102.941 289.211C102.374 289.211 101.915 289.667 101.915 290.229C101.915 290.791 102.374 291.247 102.941 291.247Z" stroke="white" stroke-width="0.5" stroke-miterlimit="10"/>
<path d="M103.931 272.836H59.9421C58.8798 272.836 58.0186 273.691 58.0186 274.746V293.671C58.0186 294.726 58.8798 295.581 59.9421 295.581H103.931C104.994 295.581 105.855 294.726 105.855 293.671V274.746C105.855 273.691 104.994 272.836 103.931 272.836Z" stroke="white" stroke-width="0.5" stroke-miterlimit="10"/>
<path d="M51.142 272.836H7.15296C6.09059 272.836 5.22937 273.691 5.22937 274.746V293.671C5.22937 294.726 6.09059 295.581 7.15296 295.581H51.142C52.2044 295.581 53.0656 294.726 53.0656 293.671V274.746C53.0656 273.691 52.2044 272.836 51.142 272.836Z" fill="#2CB6BF" stroke="white" stroke-width="0.5" stroke-miterlimit="10"/>
<path d="M47.5483 272.939L47.3755 273.19V274.769V279.548L47.364 295.478H50.4049L51.4761 295.421L52.2133 295.112L52.8353 294.586L52.9965 293.5V290.606V281.664V274.906L52.651 273.568L51.7641 272.939L49.3682 272.836L47.5483 272.939Z" fill="#227EB0"/>
<path d="M47.2488 295.592V272.836" stroke="white" stroke-width="0.5" stroke-miterlimit="10"/>
<path d="M53.0656 283.128H47.2488V285.289H53.0656V283.128Z" stroke="white" stroke-width="0.5" stroke-miterlimit="10"/>
<path d="M50.163 291.247C50.7291 291.247 51.1881 290.791 51.1881 290.229C51.1881 289.667 50.7291 289.211 50.163 289.211C49.5968 289.211 49.1378 289.667 49.1378 290.229C49.1378 290.791 49.5968 291.247 50.163 291.247Z" stroke="white" stroke-width="0.5" stroke-miterlimit="10"/>
<path d="M51.142 272.836H7.15296C6.09059 272.836 5.22937 273.691 5.22937 274.746V293.671C5.22937 294.726 6.09059 295.581 7.15296 295.581H51.142C52.2044 295.581 53.0656 294.726 53.0656 293.671V274.746C53.0656 273.691 52.2044 272.836 51.142 272.836Z" stroke="white" stroke-width="0.5" stroke-miterlimit="10"/>
<path d="M156.709 272.836H112.72C111.657 272.836 110.796 273.691 110.796 274.746V293.671C110.796 294.726 111.657 295.581 112.72 295.581H156.709C157.771 295.581 158.632 294.726 158.632 293.671V274.746C158.632 273.691 157.771 272.836 156.709 272.836Z" fill="#2CB6BF" stroke="white" stroke-width="0.5" stroke-miterlimit="10"/>
<path d="M153.115 272.939L152.942 273.19V274.769V279.548L152.919 295.478H155.972L157.043 295.421L157.768 295.112L158.402 294.586L158.563 293.5V290.606V281.664V274.906L158.218 273.568L157.331 272.939L154.935 272.836L153.115 272.939Z" fill="#227EB0"/>
<path d="M152.816 295.592V272.836" stroke="white" stroke-width="0.5" stroke-miterlimit="10"/>
<path d="M158.632 283.128H152.816V285.289H158.632V283.128Z" stroke="white" stroke-width="0.5" stroke-miterlimit="10"/>
<path d="M155.718 291.247C156.284 291.247 156.743 290.791 156.743 290.229C156.743 289.667 156.284 289.211 155.718 289.211C155.152 289.211 154.693 289.667 154.693 290.229C154.693 290.791 155.152 291.247 155.718 291.247Z" stroke="white" stroke-width="0.5" stroke-miterlimit="10"/>
<path d="M156.709 272.836H112.72C111.657 272.836 110.796 273.691 110.796 274.746V293.671C110.796 294.726 111.657 295.581 112.72 295.581H156.709C157.771 295.581 158.632 294.726 158.632 293.671V274.746C158.632 273.691 157.771 272.836 156.709 272.836Z" stroke="white" stroke-width="0.5" stroke-miterlimit="10"/>
<path d="M103.931 300.887H59.9421C58.8798 300.887 58.0186 301.742 58.0186 302.796V321.722C58.0186 322.777 58.8798 323.632 59.9421 323.632H103.931C104.994 323.632 105.855 322.777 105.855 321.722V302.796C105.855 301.742 104.994 300.887 103.931 300.887Z" fill="#2CB6BF" stroke="white" stroke-width="0.5" stroke-miterlimit="10"/>
<path d="M100.337 300.99L100.153 301.241V302.819V307.588L100.142 323.529H103.194L104.265 323.472L104.991 323.163L105.613 322.637L105.774 321.55V318.657V309.715V302.957L105.44 301.619L104.553 300.99L102.146 300.887L100.337 300.99Z" fill="#227EB0"/>
<path d="M100.038 323.643V300.887" stroke="white" stroke-width="0.5" stroke-miterlimit="10"/>
<path d="M105.855 311.178H100.038V313.34H105.855V311.178Z" stroke="white" stroke-width="0.5" stroke-miterlimit="10"/>
<path d="M102.941 319.298C103.507 319.298 103.966 318.842 103.966 318.28C103.966 317.718 103.507 317.262 102.941 317.262C102.374 317.262 101.915 317.718 101.915 318.28C101.915 318.842 102.374 319.298 102.941 319.298Z" stroke="white" stroke-width="0.5" stroke-miterlimit="10"/>
<path d="M103.931 300.887H59.9421C58.8798 300.887 58.0186 301.742 58.0186 302.796V321.722C58.0186 322.777 58.8798 323.632 59.9421 323.632H103.931C104.994 323.632 105.855 322.777 105.855 321.722V302.796C105.855 301.742 104.994 300.887 103.931 300.887Z" stroke="white" stroke-width="0.5" stroke-miterlimit="10"/>
<path d="M51.142 300.887H7.15296C6.09059 300.887 5.22937 301.742 5.22937 302.796V321.722C5.22937 322.777 6.09059 323.632 7.15296 323.632H51.142C52.2044 323.632 53.0656 322.777 53.0656 321.722V302.796C53.0656 301.742 52.2044 300.887 51.142 300.887Z" fill="#2CB6BF" stroke="white" stroke-width="0.5" stroke-miterlimit="10"/>
<path d="M47.5483 300.99L47.3755 301.241V302.819V307.588L47.364 323.529H50.4049L51.4761 323.472L52.2133 323.163L52.8353 322.637L52.9965 321.55V318.657V309.715V302.957L52.651 301.619L51.7641 300.99L49.3682 300.887L47.5483 300.99Z" fill="#227EB0"/>
<path d="M47.2488 323.643V300.887" stroke="white" stroke-width="0.5" stroke-miterlimit="10"/>
<path d="M53.0656 311.178H47.2488V313.34H53.0656V311.178Z" stroke="white" stroke-width="0.5" stroke-miterlimit="10"/>
<path d="M50.163 319.298C50.7291 319.298 51.1881 318.842 51.1881 318.28C51.1881 317.718 50.7291 317.262 50.163 317.262C49.5968 317.262 49.1378 317.718 49.1378 318.28C49.1378 318.842 49.5968 319.298 50.163 319.298Z" stroke="white" stroke-width="0.5" stroke-miterlimit="10"/>
<path d="M51.142 300.887H7.15296C6.09059 300.887 5.22937 301.742 5.22937 302.796V321.722C5.22937 322.777 6.09059 323.632 7.15296 323.632H51.142C52.2044 323.632 53.0656 322.777 53.0656 321.722V302.796C53.0656 301.742 52.2044 300.887 51.142 300.887Z" stroke="white" stroke-width="0.5" stroke-miterlimit="10"/>
<path d="M156.709 300.887H112.72C111.657 300.887 110.796 301.742 110.796 302.796V321.722C110.796 322.777 111.657 323.632 112.72 323.632H156.709C157.771 323.632 158.632 322.777 158.632 321.722V302.796C158.632 301.742 157.771 300.887 156.709 300.887Z" fill="#2CB6BF" stroke="white" stroke-width="0.5" stroke-miterlimit="10"/>
<path d="M153.115 300.99L152.942 301.241V302.819V307.588L152.919 323.529H155.972L157.043 323.472L157.768 323.163L158.402 322.637L158.563 321.55V318.657V309.715V302.957L158.218 301.619L157.331 300.99L154.935 300.887L153.115 300.99Z" fill="#227EB0"/>
<path d="M152.816 323.643V300.887" stroke="white" stroke-width="0.5" stroke-miterlimit="10"/>
<path d="M158.632 311.178H152.816V313.34H158.632V311.178Z" stroke="white" stroke-width="0.5" stroke-miterlimit="10"/>
<path d="M155.718 319.298C156.284 319.298 156.743 318.842 156.743 318.28C156.743 317.718 156.284 317.262 155.718 317.262C155.152 317.262 154.693 317.718 154.693 318.28C154.693 318.842 155.152 319.298 155.718 319.298Z" stroke="white" stroke-width="0.5" stroke-miterlimit="10"/>
<path d="M156.709 300.887H112.72C111.657 300.887 110.796 301.742 110.796 302.796V321.722C110.796 322.777 111.657 323.632 112.72 323.632H156.709C157.771 323.632 158.632 322.777 158.632 321.722V302.796C158.632 301.742 157.771 300.887 156.709 300.887Z" stroke="white" stroke-width="0.5" stroke-miterlimit="10"/>
<path d="M103.931 328.926H59.9421C58.8798 328.926 58.0186 329.781 58.0186 330.836V349.761C58.0186 350.816 58.8798 351.671 59.9421 351.671H103.931C104.994 351.671 105.855 350.816 105.855 349.761V330.836C105.855 329.781 104.994 328.926 103.931 328.926Z" fill="#2CB6BF" stroke="white" stroke-width="0.5" stroke-miterlimit="10"/>
<path d="M100.337 329.029L100.153 329.281V330.859V335.639L100.142 351.568H103.194L104.265 351.511L104.991 351.202L105.613 350.676L105.774 349.59V346.697V337.766V330.996L105.44 329.658L104.553 329.029L102.146 328.926L100.337 329.029Z" fill="#227EB0"/>
<path d="M100.038 351.683V328.926" stroke="white" stroke-width="0.5" stroke-miterlimit="10"/>
<path d="M105.855 339.229H100.038V341.391H105.855V339.229Z" stroke="white" stroke-width="0.5" stroke-miterlimit="10"/>
<path d="M102.941 347.348C103.507 347.348 103.966 346.893 103.966 346.331C103.966 345.769 103.507 345.313 102.941 345.313C102.374 345.313 101.915 345.769 101.915 346.331C101.915 346.893 102.374 347.348 102.941 347.348Z" stroke="white" stroke-width="0.5" stroke-miterlimit="10"/>
<path d="M103.931 328.926H59.9421C58.8798 328.926 58.0186 329.781 58.0186 330.836V349.761C58.0186 350.816 58.8798 351.671 59.9421 351.671H103.931C104.994 351.671 105.855 350.816 105.855 349.761V330.836C105.855 329.781 104.994 328.926 103.931 328.926Z" stroke="white" stroke-width="0.5" stroke-miterlimit="10"/>
<path d="M51.142 328.926H7.15296C6.09059 328.926 5.22937 329.781 5.22937 330.836V349.761C5.22937 350.816 6.09059 351.671 7.15296 351.671H51.142C52.2044 351.671 53.0656 350.816 53.0656 349.761V330.836C53.0656 329.781 52.2044 328.926 51.142 328.926Z" fill="#2CB6BF" stroke="white" stroke-width="0.5" stroke-miterlimit="10"/>
<path d="M47.5483 329.029L47.3755 329.281V330.859V335.639L47.364 351.568H50.4049L51.4761 351.511L52.2133 351.202L52.8353 350.676L52.9965 349.59V346.697V337.766V330.996L52.651 329.658L51.7641 329.029L49.3682 328.926L47.5483 329.029Z" fill="#227EB0"/>
<path d="M47.2488 351.683V328.926" stroke="white" stroke-width="0.5" stroke-miterlimit="10"/>
<path d="M53.0656 339.229H47.2488V341.391H53.0656V339.229Z" stroke="white" stroke-width="0.5" stroke-miterlimit="10"/>
<path d="M50.163 347.348C50.7291 347.348 51.1881 346.893 51.1881 346.331C51.1881 345.769 50.7291 345.313 50.163 345.313C49.5968 345.313 49.1378 345.769 49.1378 346.331C49.1378 346.893 49.5968 347.348 50.163 347.348Z" stroke="white" stroke-width="0.5" stroke-miterlimit="10"/>
<path d="M51.142 328.926H7.15296C6.09059 328.926 5.22937 329.781 5.22937 330.836V349.761C5.22937 350.816 6.09059 351.671 7.15296 351.671H51.142C52.2044 351.671 53.0656 350.816 53.0656 349.761V330.836C53.0656 329.781 52.2044 328.926 51.142 328.926Z" stroke="white" stroke-width="0.5" stroke-miterlimit="10"/>
<path d="M156.709 328.926H112.72C111.657 328.926 110.796 329.781 110.796 330.836V349.761C110.796 350.816 111.657 351.671 112.72 351.671H156.709C157.771 351.671 158.632 350.816 158.632 349.761V330.836C158.632 329.781 157.771 328.926 156.709 328.926Z" fill="#2CB6BF" stroke="white" stroke-width="0.5" stroke-miterlimit="10"/>
<path d="M153.115 329.029L152.942 329.281V330.859V335.639L152.919 351.568H155.972L157.043 351.511L157.768 351.202L158.402 350.676L158.563 349.59V346.697V337.766V330.996L158.218 329.658L157.331 329.029L154.935 328.926L153.115 329.029Z" fill="#227EB0"/>
<path d="M152.816 351.683V328.926" stroke="white" stroke-width="0.5" stroke-miterlimit="10"/>
<path d="M158.632 339.229H152.816V341.391H158.632V339.229Z" stroke="white" stroke-width="0.5" stroke-miterlimit="10"/>
<path d="M155.718 347.348C156.284 347.348 156.743 346.893 156.743 346.331C156.743 345.769 156.284 345.313 155.718 345.313C155.152 345.313 154.693 345.769 154.693 346.331C154.693 346.893 155.152 347.348 155.718 347.348Z" stroke="white" stroke-width="0.5" stroke-miterlimit="10"/>
<path d="M156.709 328.926H112.72C111.657 328.926 110.796 329.781 110.796 330.836V349.761C110.796 350.816 111.657 351.671 112.72 351.671H156.709C157.771 351.671 158.632 350.816 158.632 349.761V330.836C158.632 329.781 157.771 328.926 156.709 328.926Z" stroke="white" stroke-width="0.5" stroke-miterlimit="10"/>
<path d="M70.0323 62.8601H72.7392V63.6377H71.8407V66.2678H70.9193V63.6377H70.0323V62.8601Z" fill="white"/>
<path d="M73.0271 65.0899V64.0379C73.0119 63.8642 73.0349 63.6894 73.0946 63.5255C73.1543 63.3616 73.2492 63.2126 73.3727 63.0887C73.7626 62.8522 74.2194 62.7478 74.6743 62.7914C75.0809 62.7596 75.4866 62.8643 75.8261 63.0887C75.9558 63.2158 76.0551 63.3701 76.1169 63.5403C76.1787 63.7105 76.2014 63.8922 76.1832 64.0722V65.0327C76.2039 65.2149 76.1801 65.3994 76.114 65.5705C76.0478 65.7417 75.9412 65.8945 75.8031 66.0162C75.4195 66.2238 74.983 66.3153 74.5476 66.2792C74.1453 66.3137 73.7424 66.2217 73.3957 66.0162C73.2589 65.898 73.1521 65.7494 73.084 65.5825C73.016 65.4155 72.9886 65.235 73.0041 65.0556M73.9486 64.1294V64.907C73.9331 65.0644 73.9739 65.2223 74.0638 65.3529C74.1329 65.4444 74.3287 65.4673 74.5936 65.4673C74.768 65.4887 74.9448 65.4568 75.1005 65.3758C75.2001 65.2451 75.2455 65.0813 75.2272 64.9184V64.1179C75.2461 63.9585 75.2005 63.7981 75.1005 63.6719C74.9453 63.5896 74.7681 63.5576 74.5936 63.5805C74.4121 63.5662 74.2299 63.5977 74.0638 63.6719C73.974 63.8069 73.9333 63.9683 73.9486 64.1294Z" fill="white"/>
<path d="M76.6209 65.09V64.038C76.6057 63.8644 76.6287 63.6895 76.6884 63.5256C76.748 63.3617 76.8429 63.2127 76.9665 63.0888C77.3754 62.8482 77.8556 62.7553 78.3256 62.8258C78.7321 62.7957 79.1372 62.9003 79.4775 63.1232C79.6071 63.2502 79.7065 63.4045 79.7683 63.5747C79.8301 63.7449 79.8527 63.9266 79.8346 64.1066V65.0672C79.8538 65.2503 79.8283 65.4353 79.7601 65.6065C79.6919 65.7777 79.5831 65.9301 79.4429 66.0506C79.0641 66.2599 78.6308 66.3515 78.1989 66.3136C77.7969 66.3451 77.3949 66.2533 77.0471 66.0506C76.9123 65.9313 76.8077 65.7822 76.7417 65.6153C76.6756 65.4485 76.6501 65.2685 76.667 65.09M77.6115 64.1638V64.9414C77.596 65.0988 77.6368 65.2567 77.7267 65.3874C77.7958 65.4788 77.9801 65.5017 78.2565 65.5017C78.4308 65.5197 78.6066 65.4879 78.7633 65.4102C78.863 65.2795 78.9083 65.1158 78.89 64.9528V64.1523C78.909 63.9929 78.8634 63.8325 78.7633 63.7064C78.6072 63.6268 78.4309 63.5949 78.2565 63.6149C78.0748 63.5974 77.8918 63.6291 77.7267 63.7064C77.6368 63.8413 77.5962 64.0027 77.6115 64.1638Z" fill="white"/>
<path d="M80.3298 62.8601H81.2513V65.4788H82.6911V66.2678H80.3298V62.8601Z" fill="white"/>
<path d="M83.912 65.1814C83.9057 65.2364 83.9106 65.2921 83.9264 65.3451C83.9423 65.3982 83.9687 65.4475 84.0042 65.4902C84.1564 65.5553 84.3234 65.579 84.4879 65.5588C84.6412 65.5756 84.7961 65.5519 84.9372 65.4902C84.9752 65.4559 85.0045 65.4132 85.0225 65.3654C85.0405 65.3177 85.0468 65.2664 85.0408 65.2157C85.0408 65.0785 85.0408 65.0099 84.9602 64.9641C84.8236 64.9344 84.6821 64.9344 84.5455 64.9641C84.1255 64.9942 83.7047 64.9154 83.3246 64.7354C83.2098 64.6357 83.1215 64.5095 83.0673 64.3679C83.0131 64.2264 82.9946 64.0738 83.0136 63.9235C83.0136 63.4776 83.1173 63.1917 83.3361 63.0544C83.6958 62.8885 84.0926 62.8176 84.4879 62.8486C84.8839 62.8053 85.2839 62.8768 85.6398 63.0544C85.7407 63.1511 85.818 63.2693 85.8659 63.4001C85.9138 63.5309 85.931 63.6708 85.9162 63.8092V63.9464H85.0408C85.0384 63.8425 85.002 63.7422 84.9372 63.6605C84.8142 63.6064 84.6798 63.5829 84.5455 63.5919C84.3971 63.574 84.2466 63.5937 84.1078 63.6491C84.0272 63.6491 84.0042 63.7749 84.0042 63.9121C84.0003 63.9493 84.0044 63.9869 84.0164 64.0224C84.0283 64.0579 84.0477 64.0905 84.0733 64.1179C84.1761 64.1833 84.2969 64.2153 84.4188 64.2094C84.7348 64.2203 85.0501 64.247 85.3634 64.2895C85.4799 64.2964 85.5929 64.3325 85.6916 64.3945C85.7903 64.4565 85.8715 64.5423 85.9278 64.644C86.0081 64.8555 86.0434 65.0814 86.0314 65.3072C86.0449 65.4499 86.0261 65.5939 85.9762 65.7284C85.9264 65.863 85.8469 65.9847 85.7435 66.0848C85.3926 66.2782 84.9912 66.3619 84.5916 66.325C83.9235 66.325 83.5204 66.2335 83.3591 66.0276C83.188 65.7839 83.1066 65.4891 83.1288 65.1928H84.0387L83.912 65.1814Z" fill="white"/>
<path d="M86.4462 62.8944H87.2409V63.489H86.4462V62.8944ZM86.4462 63.9122H87.2409V66.2907H86.4462V63.9122Z" fill="white"/>
<path d="M87.7822 66.2564V62.8944H89.5791C89.9427 62.8623 90.305 62.9686 90.5927 63.1917C90.7151 63.323 90.8081 63.4785 90.8656 63.648C90.9232 63.8175 90.944 63.9971 90.9268 64.1752V64.9756C90.9609 65.3403 90.8538 65.7042 90.6273 65.9934C90.495 66.1107 90.3398 66.1997 90.1714 66.2548C90.0029 66.3099 89.8248 66.3299 89.6482 66.3136H87.7822V66.2564ZM88.7037 65.4788H89.487C89.6211 65.4827 89.7521 65.438 89.8556 65.353C89.9555 65.2093 90.0005 65.0349 89.9823 64.8613V64.198C89.9958 64.0459 89.9594 63.8935 89.8786 63.7635C89.8249 63.7185 89.7623 63.6851 89.6949 63.6654C89.6275 63.6457 89.5567 63.6402 89.487 63.6491H88.6922L88.7037 65.4788Z" fill="white"/>
</g>
<defs>
<clipPath id="clip0_45_5393">
<rect width="164" height="357" fill="white"/>
</clipPath>
</defs>
</svg>
