<svg width="216" height="357" viewBox="0 0 216 357" fill="none" xmlns="http://www.w3.org/2000/svg">
<g clip-path="url(#clip0_45_5615)">
<path d="M215.712 0.285889H0.287842V356.714H215.712V0.285889Z" fill="#2E5985" stroke="white" stroke-width="0.5" stroke-miterlimit="10"/>
<path d="M100.982 69.8127H59.9213C58.8593 69.8127 57.9984 70.6677 57.9984 71.7224V98.6298C57.9984 99.6845 58.8593 100.54 59.9213 100.54H100.982C102.044 100.54 102.905 99.6845 102.905 98.6298V71.7224C102.905 70.6677 102.044 69.8127 100.982 69.8127Z" fill="#237EB0" stroke="white" stroke-width="0.5" stroke-miterlimit="10"/>
<path d="M60.428 73.2777C60.994 73.2777 61.4528 72.822 61.4528 72.2599C61.4528 71.6978 60.994 71.2422 60.428 71.2422C59.862 71.2422 59.4032 71.6978 59.4032 72.2599C59.4032 72.822 59.862 73.2777 60.428 73.2777Z" stroke="white" stroke-width="0.5" stroke-miterlimit="10"/>
<path d="M98.1263 73.0833H62.7423V97.7607H98.1263V73.0833Z" fill="white" stroke="white" stroke-width="0.5" stroke-miterlimit="10"/>
<path d="M87.7518 103.284H73.1169C71.4254 103.284 70.0541 104.646 70.0541 106.326V113.644C70.0541 115.324 71.4254 116.686 73.1169 116.686H87.7518C89.4434 116.686 90.8147 115.324 90.8147 113.644V106.326C90.8147 104.646 89.4434 103.284 87.7518 103.284Z" fill="#2CB6BF" stroke="white" stroke-width="0.5" stroke-miterlimit="10"/>
<path d="M91.7934 116.538C91.9523 116.538 92.0812 116.41 92.0812 116.252C92.0812 116.094 91.9523 115.966 91.7934 115.966C91.6344 115.966 91.5055 116.094 91.5055 116.252C91.5055 116.41 91.6344 116.538 91.7934 116.538Z" stroke="white" stroke-width="0.5" stroke-miterlimit="10"/>
<path d="M91.7934 104.279C91.9523 104.279 92.0812 104.151 92.0812 103.993C92.0812 103.835 91.9523 103.707 91.7934 103.707C91.6344 103.707 91.5055 103.835 91.5055 103.993C91.5055 104.151 91.6344 104.279 91.7934 104.279Z" stroke="white" stroke-width="0.5" stroke-miterlimit="10"/>
<path d="M69.133 116.4C69.2919 116.4 69.4208 116.272 69.4208 116.114C69.4208 115.957 69.2919 115.829 69.133 115.829C68.974 115.829 68.8451 115.957 68.8451 116.114C68.8451 116.272 68.974 116.4 69.133 116.4Z" stroke="white" stroke-width="0.5" stroke-miterlimit="10"/>
<path d="M69.133 104.142C69.2919 104.142 69.4208 104.014 69.4208 103.856C69.4208 103.698 69.2919 103.57 69.133 103.57C68.974 103.57 68.8451 103.698 68.8451 103.856C68.8451 104.014 68.974 104.142 69.133 104.142Z" stroke="white" stroke-width="0.5" stroke-miterlimit="10"/>
<path d="M0.287842 119.488H215.712" stroke="white" stroke-width="0.5" stroke-miterlimit="10"/>
<path d="M215.666 238.633H0.241821" stroke="white" stroke-width="0.5" stroke-miterlimit="10"/>
<path d="M103.895 5.99207H59.9213C58.8593 5.99207 57.9984 6.84707 57.9984 7.90177V26.8273C57.9984 27.882 58.8593 28.737 59.9213 28.737H103.895C104.957 28.737 105.818 27.882 105.818 26.8273V7.90177C105.818 6.84707 104.957 5.99207 103.895 5.99207Z" fill="#2CB6BF" stroke="white" stroke-width="0.5" stroke-miterlimit="10"/>
<path d="M100.303 6.09498L100.118 6.34656V7.92464V12.7046L100.107 28.634H103.158L104.229 28.5769L104.954 28.2681L105.576 27.7421L105.737 26.6557V23.7626V14.8316V8.06186L105.403 6.72393L104.517 6.09498L102.11 5.99207L100.303 6.09498Z" fill="#227EB0"/>
<path d="M100.003 28.7484V5.99207" stroke="white" stroke-width="0.5" stroke-miterlimit="10"/>
<path d="M105.818 16.2954H100.003V18.4567H105.818V16.2954Z" stroke="white" stroke-width="0.5" stroke-miterlimit="10"/>
<path d="M102.905 24.4144C103.471 24.4144 103.93 23.9587 103.93 23.3967C103.93 22.8346 103.471 22.3789 102.905 22.3789C102.339 22.3789 101.88 22.8346 101.88 23.3967C101.88 23.9587 102.339 24.4144 102.905 24.4144Z" stroke="white" stroke-width="0.5" stroke-miterlimit="10"/>
<path d="M103.895 5.99207H59.9213C58.8593 5.99207 57.9984 6.84707 57.9984 7.90177V26.8273C57.9984 27.882 58.8593 28.737 59.9213 28.737H103.895C104.957 28.737 105.818 27.882 105.818 26.8273V7.90177C105.818 6.84707 104.957 5.99207 103.895 5.99207Z" stroke="white" stroke-width="0.5" stroke-miterlimit="10"/>
<path d="M51.1242 5.99207H7.15046C6.08846 5.99207 5.22754 6.84707 5.22754 7.90177V26.8273C5.22754 27.882 6.08846 28.737 7.15046 28.737H51.1242C52.1862 28.737 53.0471 27.882 53.0471 26.8273V7.90177C53.0471 6.84707 52.1862 5.99207 51.1242 5.99207Z" fill="#2CB6BF" stroke="white" stroke-width="0.5" stroke-miterlimit="10"/>
<path d="M47.5318 6.09498L47.3591 6.34656V7.92464V12.7046L47.3475 28.634H50.3874L51.4582 28.5769L52.1951 28.2681L52.8169 27.7421L52.9781 26.6557V23.7626V14.8316V8.06186L52.6327 6.72393L51.7461 6.09498L49.3511 5.99207L47.5318 6.09498Z" fill="#227EB0"/>
<path d="M47.2324 28.7484V5.99207" stroke="white" stroke-width="0.5" stroke-miterlimit="10"/>
<path d="M53.0472 16.2954H47.2324V18.4567H53.0472V16.2954Z" stroke="white" stroke-width="0.5" stroke-miterlimit="10"/>
<path d="M50.1455 24.4144C50.7115 24.4144 51.1703 23.9587 51.1703 23.3967C51.1703 22.8346 50.7115 22.3789 50.1455 22.3789C49.5795 22.3789 49.1207 22.8346 49.1207 23.3967C49.1207 23.9587 49.5795 24.4144 50.1455 24.4144Z" stroke="white" stroke-width="0.5" stroke-miterlimit="10"/>
<path d="M51.1242 5.99207H7.15046C6.08846 5.99207 5.22754 6.84707 5.22754 7.90177V26.8273C5.22754 27.882 6.08846 28.737 7.15046 28.737H51.1242C52.1862 28.737 53.0471 27.882 53.0471 26.8273V7.90177C53.0471 6.84707 52.1862 5.99207 51.1242 5.99207Z" stroke="white" stroke-width="0.5" stroke-miterlimit="10"/>
<path d="M156.654 5.99207H112.681C111.619 5.99207 110.758 6.84707 110.758 7.90177V26.8273C110.758 27.882 111.619 28.737 112.681 28.737H156.654C157.716 28.737 158.577 27.882 158.577 26.8273V7.90177C158.577 6.84707 157.716 5.99207 156.654 5.99207Z" fill="#2CB6BF" stroke="white" stroke-width="0.5" stroke-miterlimit="10"/>
<path d="M153.062 6.09498L152.889 6.34656V7.92464V12.7046L152.866 28.634H155.917L156.988 28.5769L157.714 28.2681L158.347 27.7421L158.508 26.6557V23.7626V14.8316V8.06186L158.163 6.72393L157.276 6.09498L154.881 5.99207L153.062 6.09498Z" fill="#227EB0"/>
<path d="M152.762 28.7484V5.99207" stroke="white" stroke-width="0.5" stroke-miterlimit="10"/>
<path d="M158.577 16.2954H152.762V18.4567H158.577V16.2954Z" stroke="white" stroke-width="0.5" stroke-miterlimit="10"/>
<path d="M155.664 24.4144C156.23 24.4144 156.689 23.9587 156.689 23.3967C156.689 22.8346 156.23 22.3789 155.664 22.3789C155.098 22.3789 154.639 22.8346 154.639 23.3967C154.639 23.9587 155.098 24.4144 155.664 24.4144Z" stroke="white" stroke-width="0.5" stroke-miterlimit="10"/>
<path d="M156.654 5.99207H112.681C111.619 5.99207 110.758 6.84707 110.758 7.90177V26.8273C110.758 27.882 111.619 28.737 112.681 28.737H156.654C157.716 28.737 158.577 27.882 158.577 26.8273V7.90177C158.577 6.84707 157.716 5.99207 156.654 5.99207Z" stroke="white" stroke-width="0.5" stroke-miterlimit="10"/>
<path d="M209.425 5.99207H165.451C164.389 5.99207 163.529 6.84707 163.529 7.90177V26.8273C163.529 27.882 164.389 28.737 165.451 28.737H209.425C210.487 28.737 211.348 27.882 211.348 26.8273V7.90177C211.348 6.84707 210.487 5.99207 209.425 5.99207Z" fill="#2CB6BF" stroke="white" stroke-width="0.5" stroke-miterlimit="10"/>
<path d="M205.833 6.09498L205.648 6.34656V7.92464V12.7046L205.637 28.634H208.688L209.759 28.5769L210.485 28.2681L211.106 27.7421L211.268 26.6557V23.7626V14.8316V8.06186L210.934 6.72393L210.036 6.09498L207.64 5.99207L205.833 6.09498Z" fill="#227EB0"/>
<path d="M205.522 28.7484V5.99207" stroke="white" stroke-width="0.5" stroke-miterlimit="10"/>
<path d="M211.337 16.2954H205.522V18.4567H211.337V16.2954Z" stroke="white" stroke-width="0.5" stroke-miterlimit="10"/>
<path d="M208.435 24.4144C209.001 24.4144 209.46 23.9587 209.46 23.3967C209.46 22.8346 209.001 22.3789 208.435 22.3789C207.869 22.3789 207.41 22.8346 207.41 23.3967C207.41 23.9587 207.869 24.4144 208.435 24.4144Z" stroke="white" stroke-width="0.5" stroke-miterlimit="10"/>
<path d="M209.425 5.99207H165.451C164.389 5.99207 163.529 6.84707 163.529 7.90177V26.8273C163.529 27.882 164.389 28.737 165.451 28.737H209.425C210.487 28.737 211.348 27.882 211.348 26.8273V7.90177C211.348 6.84707 210.487 5.99207 209.425 5.99207Z" stroke="white" stroke-width="0.5" stroke-miterlimit="10"/>
<path d="M103.895 34.7406H59.9213C58.8593 34.7406 57.9984 35.5956 57.9984 36.6503V55.5758C57.9984 56.6305 58.8593 57.4855 59.9213 57.4855H103.895C104.957 57.4855 105.818 56.6305 105.818 55.5758V36.6503C105.818 35.5956 104.957 34.7406 103.895 34.7406Z" fill="#2CB6BF" stroke="white" stroke-width="0.5" stroke-miterlimit="10"/>
<path d="M100.303 34.8321L100.118 35.0837V36.6732V41.4417L100.107 57.3711H103.158L104.229 57.314L104.954 57.0052L105.576 56.4906L105.737 55.3928V52.4997V43.5687V36.799L105.403 35.461L104.517 34.8321L102.11 34.7406L100.303 34.8321Z" fill="#227EB0"/>
<path d="M100.003 57.4855V34.7406" stroke="white" stroke-width="0.5" stroke-miterlimit="10"/>
<path d="M105.818 45.0323H100.003V47.1936H105.818V45.0323Z" stroke="white" stroke-width="0.5" stroke-miterlimit="10"/>
<path d="M102.905 53.1515C103.471 53.1515 103.93 52.6958 103.93 52.1337C103.93 51.5716 103.471 51.116 102.905 51.116C102.339 51.116 101.88 51.5716 101.88 52.1337C101.88 52.6958 102.339 53.1515 102.905 53.1515Z" stroke="white" stroke-width="0.5" stroke-miterlimit="10"/>
<path d="M103.895 34.7406H59.9213C58.8593 34.7406 57.9984 35.5956 57.9984 36.6503V55.5758C57.9984 56.6305 58.8593 57.4855 59.9213 57.4855H103.895C104.957 57.4855 105.818 56.6305 105.818 55.5758V36.6503C105.818 35.5956 104.957 34.7406 103.895 34.7406Z" stroke="white" stroke-width="0.5" stroke-miterlimit="10"/>
<path d="M51.1242 34.7406H7.15046C6.08846 34.7406 5.22754 35.5956 5.22754 36.6503V55.5758C5.22754 56.6305 6.08846 57.4855 7.15046 57.4855H51.1242C52.1862 57.4855 53.0471 56.6305 53.0471 55.5758V36.6503C53.0471 35.5956 52.1862 34.7406 51.1242 34.7406Z" fill="#2CB6BF" stroke="white" stroke-width="0.5" stroke-miterlimit="10"/>
<path d="M47.5318 34.8321L47.3591 35.0837V36.6732V41.4417L47.3475 57.3711H50.3874L51.4582 57.314L52.1951 57.0052L52.8169 56.4906L52.9781 55.3928V52.4997V43.5687V36.799L52.6327 35.461L51.7461 34.8321L49.3511 34.7406L47.5318 34.8321Z" fill="#227EB0"/>
<path d="M47.2324 57.4855V34.7406" stroke="white" stroke-width="0.5" stroke-miterlimit="10"/>
<path d="M53.0472 45.0323H47.2324V47.1936H53.0472V45.0323Z" stroke="white" stroke-width="0.5" stroke-miterlimit="10"/>
<path d="M50.1455 53.1515C50.7115 53.1515 51.1703 52.6958 51.1703 52.1337C51.1703 51.5716 50.7115 51.116 50.1455 51.116C49.5795 51.116 49.1207 51.5716 49.1207 52.1337C49.1207 52.6958 49.5795 53.1515 50.1455 53.1515Z" stroke="white" stroke-width="0.5" stroke-miterlimit="10"/>
<path d="M51.1242 34.7406H7.15046C6.08846 34.7406 5.22754 35.5956 5.22754 36.6503V55.5758C5.22754 56.6305 6.08846 57.4855 7.15046 57.4855H51.1242C52.1862 57.4855 53.0471 56.6305 53.0471 55.5758V36.6503C53.0471 35.5956 52.1862 34.7406 51.1242 34.7406Z" stroke="white" stroke-width="0.5" stroke-miterlimit="10"/>
<path d="M156.654 34.7406H112.681C111.619 34.7406 110.758 35.5956 110.758 36.6503V55.5758C110.758 56.6305 111.619 57.4855 112.681 57.4855H156.654C157.716 57.4855 158.577 56.6305 158.577 55.5758V36.6503C158.577 35.5956 157.716 34.7406 156.654 34.7406Z" fill="#2CB6BF" stroke="white" stroke-width="0.5" stroke-miterlimit="10"/>
<path d="M153.062 34.8321L152.889 35.0837V36.6732V41.4417L152.866 57.3711H155.917L156.988 57.314L157.714 57.0052L158.347 56.4906L158.508 55.3928V52.4997V43.5687V36.799L158.163 35.461L157.276 34.8321L154.881 34.7406L153.062 34.8321Z" fill="#227EB0"/>
<path d="M152.762 57.4855V34.7406" stroke="white" stroke-width="0.5" stroke-miterlimit="10"/>
<path d="M158.577 45.0323H152.762V47.1936H158.577V45.0323Z" stroke="white" stroke-width="0.5" stroke-miterlimit="10"/>
<path d="M155.664 53.1515C156.23 53.1515 156.689 52.6958 156.689 52.1337C156.689 51.5716 156.23 51.116 155.664 51.116C155.098 51.116 154.639 51.5716 154.639 52.1337C154.639 52.6958 155.098 53.1515 155.664 53.1515Z" stroke="white" stroke-width="0.5" stroke-miterlimit="10"/>
<path d="M156.654 34.7406H112.681C111.619 34.7406 110.758 35.5956 110.758 36.6503V55.5758C110.758 56.6305 111.619 57.4855 112.681 57.4855H156.654C157.716 57.4855 158.577 56.6305 158.577 55.5758V36.6503C158.577 35.5956 157.716 34.7406 156.654 34.7406Z" stroke="white" stroke-width="0.5" stroke-miterlimit="10"/>
<path d="M209.425 34.7406H165.451C164.389 34.7406 163.529 35.5956 163.529 36.6503V55.5758C163.529 56.6305 164.389 57.4855 165.451 57.4855H209.425C210.487 57.4855 211.348 56.6305 211.348 55.5758V36.6503C211.348 35.5956 210.487 34.7406 209.425 34.7406Z" fill="#2CB6BF" stroke="white" stroke-width="0.5" stroke-miterlimit="10"/>
<path d="M205.833 34.8321L205.648 35.0837V36.6732V41.4417L205.637 57.3711H208.688L209.759 57.314L210.485 57.0052L211.106 56.4906L211.268 55.3928V52.4997V43.5687V36.799L210.934 35.461L210.036 34.8321L207.64 34.7406L205.833 34.8321Z" fill="#227EB0"/>
<path d="M205.522 57.4855V34.7406" stroke="white" stroke-width="0.5" stroke-miterlimit="10"/>
<path d="M211.337 45.0323H205.522V47.1936H211.337V45.0323Z" stroke="white" stroke-width="0.5" stroke-miterlimit="10"/>
<path d="M208.435 53.1515C209.001 53.1515 209.46 52.6958 209.46 52.1337C209.46 51.5716 209.001 51.116 208.435 51.116C207.869 51.116 207.41 51.5716 207.41 52.1337C207.41 52.6958 207.869 53.1515 208.435 53.1515Z" stroke="white" stroke-width="0.5" stroke-miterlimit="10"/>
<path d="M209.425 34.7406H165.451C164.389 34.7406 163.529 35.5956 163.529 36.6503V55.5758C163.529 56.6305 164.389 57.4855 165.451 57.4855H209.425C210.487 57.4855 211.348 56.6305 211.348 55.5758V36.6503C211.348 35.5956 210.487 34.7406 209.425 34.7406Z" stroke="white" stroke-width="0.5" stroke-miterlimit="10"/>
<path d="M51.1242 62.78H7.15046C6.08846 62.78 5.22754 63.635 5.22754 64.6897V83.6152C5.22754 84.6699 6.08846 85.5249 7.15046 85.5249H51.1242C52.1862 85.5249 53.0471 84.6699 53.0471 83.6152V64.6897C53.0471 63.635 52.1862 62.78 51.1242 62.78Z" fill="#2CB6BF" stroke="white" stroke-width="0.5" stroke-miterlimit="10"/>
<path d="M47.5318 62.8829L47.3591 63.1345V64.7126V69.4926L47.3475 85.422H50.3874L51.4582 85.3648L52.1951 85.0561L52.8169 84.5301L52.9781 83.4437V80.5506V71.6195V64.8498L52.6327 63.5119L51.7461 62.8829L49.3511 62.78L47.5318 62.8829Z" fill="#227EB0"/>
<path d="M47.2324 85.5364V62.78" stroke="white" stroke-width="0.5" stroke-miterlimit="10"/>
<path d="M53.0472 73.0833H47.2324V75.2445H53.0472V73.0833Z" stroke="white" stroke-width="0.5" stroke-miterlimit="10"/>
<path d="M50.1455 81.2024C50.7115 81.2024 51.1703 80.7467 51.1703 80.1846C51.1703 79.6225 50.7115 79.1669 50.1455 79.1669C49.5795 79.1669 49.1207 79.6225 49.1207 80.1846C49.1207 80.7467 49.5795 81.2024 50.1455 81.2024Z" stroke="white" stroke-width="0.5" stroke-miterlimit="10"/>
<path d="M51.1242 62.78H7.15046C6.08846 62.78 5.22754 63.635 5.22754 64.6897V83.6152C5.22754 84.6699 6.08846 85.5249 7.15046 85.5249H51.1242C52.1862 85.5249 53.0471 84.6699 53.0471 83.6152V64.6897C53.0471 63.635 52.1862 62.78 51.1242 62.78Z" stroke="white" stroke-width="0.5" stroke-miterlimit="10"/>
<path d="M156.654 62.78H112.681C111.619 62.78 110.758 63.635 110.758 64.6897V83.6152C110.758 84.6699 111.619 85.5249 112.681 85.5249H156.654C157.716 85.5249 158.577 84.6699 158.577 83.6152V64.6897C158.577 63.635 157.716 62.78 156.654 62.78Z" fill="#2CB6BF" stroke="white" stroke-width="0.5" stroke-miterlimit="10"/>
<path d="M153.062 62.8829L152.889 63.1345V64.7126V69.4926L152.866 85.422H155.917L156.988 85.3648L157.714 85.0561L158.347 84.5301L158.508 83.4437V80.5506V71.6195V64.8498L158.163 63.5119L157.276 62.8829L154.881 62.78L153.062 62.8829Z" fill="#227EB0"/>
<path d="M152.762 85.5364V62.78" stroke="white" stroke-width="0.5" stroke-miterlimit="10"/>
<path d="M158.577 73.0833H152.762V75.2445H158.577V73.0833Z" stroke="white" stroke-width="0.5" stroke-miterlimit="10"/>
<path d="M155.664 81.2024C156.23 81.2024 156.689 80.7467 156.689 80.1846C156.689 79.6225 156.23 79.1669 155.664 79.1669C155.098 79.1669 154.639 79.6225 154.639 80.1846C154.639 80.7467 155.098 81.2024 155.664 81.2024Z" stroke="white" stroke-width="0.5" stroke-miterlimit="10"/>
<path d="M156.654 62.78H112.681C111.619 62.78 110.758 63.635 110.758 64.6897V83.6152C110.758 84.6699 111.619 85.5249 112.681 85.5249H156.654C157.716 85.5249 158.577 84.6699 158.577 83.6152V64.6897C158.577 63.635 157.716 62.78 156.654 62.78Z" stroke="white" stroke-width="0.5" stroke-miterlimit="10"/>
<path d="M209.425 62.78H165.451C164.389 62.78 163.529 63.635 163.529 64.6897V83.6152C163.529 84.6699 164.389 85.5249 165.451 85.5249H209.425C210.487 85.5249 211.348 84.6699 211.348 83.6152V64.6897C211.348 63.635 210.487 62.78 209.425 62.78Z" fill="#2CB6BF" stroke="white" stroke-width="0.5" stroke-miterlimit="10"/>
<path d="M205.833 62.8829L205.648 63.1345V64.7126V69.4926L205.637 85.422H208.688L209.759 85.3648L210.485 85.0561L211.106 84.5301L211.268 83.4437V80.5506V71.6195V64.8498L210.934 63.5119L210.036 62.8829L207.64 62.78L205.833 62.8829Z" fill="#227EB0"/>
<path d="M205.522 85.5364V62.78" stroke="white" stroke-width="0.5" stroke-miterlimit="10"/>
<path d="M211.337 73.0833H205.522V75.2445H211.337V73.0833Z" stroke="white" stroke-width="0.5" stroke-miterlimit="10"/>
<path d="M208.435 81.2024C209.001 81.2024 209.46 80.7467 209.46 80.1846C209.46 79.6225 209.001 79.1669 208.435 79.1669C207.869 79.1669 207.41 79.6225 207.41 80.1846C207.41 80.7467 207.869 81.2024 208.435 81.2024Z" stroke="white" stroke-width="0.5" stroke-miterlimit="10"/>
<path d="M209.425 62.78H165.451C164.389 62.78 163.529 63.635 163.529 64.6897V83.6152C163.529 84.6699 164.389 85.5249 165.451 85.5249H209.425C210.487 85.5249 211.348 84.6699 211.348 83.6152V64.6897C211.348 63.635 210.487 62.78 209.425 62.78Z" stroke="white" stroke-width="0.5" stroke-miterlimit="10"/>
<path d="M51.1242 90.8309H7.15046C6.08846 90.8309 5.22754 91.6859 5.22754 92.7406V111.666C5.22754 112.721 6.08846 113.576 7.15046 113.576H51.1242C52.1862 113.576 53.0471 112.721 53.0471 111.666V92.7406C53.0471 91.6859 52.1862 90.8309 51.1242 90.8309Z" fill="#2CB6BF" stroke="white" stroke-width="0.5" stroke-miterlimit="10"/>
<path d="M47.5318 90.9338L47.3591 91.174V92.7635V97.532L47.3475 113.461H50.3874L51.4582 113.404L52.1951 113.096L52.8169 112.581L52.9781 111.483V108.59V99.659V92.8893L52.6327 91.5514L51.7461 90.9338L49.3511 90.8309L47.5318 90.9338Z" fill="#227EB0"/>
<path d="M47.2324 113.576V90.8309" stroke="white" stroke-width="0.5" stroke-miterlimit="10"/>
<path d="M53.0472 101.123H47.2324V103.284H53.0472V101.123Z" stroke="white" stroke-width="0.5" stroke-miterlimit="10"/>
<path d="M50.1455 109.242C50.7115 109.242 51.1703 108.786 51.1703 108.224C51.1703 107.662 50.7115 107.206 50.1455 107.206C49.5795 107.206 49.1207 107.662 49.1207 108.224C49.1207 108.786 49.5795 109.242 50.1455 109.242Z" stroke="white" stroke-width="0.5" stroke-miterlimit="10"/>
<path d="M51.1242 90.8309H7.15046C6.08846 90.8309 5.22754 91.6859 5.22754 92.7406V111.666C5.22754 112.721 6.08846 113.576 7.15046 113.576H51.1242C52.1862 113.576 53.0471 112.721 53.0471 111.666V92.7406C53.0471 91.6859 52.1862 90.8309 51.1242 90.8309Z" stroke="white" stroke-width="0.5" stroke-miterlimit="10"/>
<path d="M156.654 90.8309H112.681C111.619 90.8309 110.758 91.6859 110.758 92.7406V111.666C110.758 112.721 111.619 113.576 112.681 113.576H156.654C157.716 113.576 158.577 112.721 158.577 111.666V92.7406C158.577 91.6859 157.716 90.8309 156.654 90.8309Z" fill="#2CB6BF" stroke="white" stroke-width="0.5" stroke-miterlimit="10"/>
<path d="M153.062 90.9338L152.889 91.174V92.7635V97.532L152.866 113.461H155.917L156.988 113.404L157.714 113.096L158.347 112.581L158.508 111.483V108.59V99.659V92.8893L158.163 91.5514L157.276 90.9338L154.881 90.8309L153.062 90.9338Z" fill="#227EB0"/>
<path d="M152.762 113.576V90.8309" stroke="white" stroke-width="0.5" stroke-miterlimit="10"/>
<path d="M158.577 101.123H152.762V103.284H158.577V101.123Z" stroke="white" stroke-width="0.5" stroke-miterlimit="10"/>
<path d="M155.664 109.242C156.23 109.242 156.689 108.786 156.689 108.224C156.689 107.662 156.23 107.206 155.664 107.206C155.098 107.206 154.639 107.662 154.639 108.224C154.639 108.786 155.098 109.242 155.664 109.242Z" stroke="white" stroke-width="0.5" stroke-miterlimit="10"/>
<path d="M156.654 90.8309H112.681C111.619 90.8309 110.758 91.6859 110.758 92.7406V111.666C110.758 112.721 111.619 113.576 112.681 113.576H156.654C157.716 113.576 158.577 112.721 158.577 111.666V92.7406C158.577 91.6859 157.716 90.8309 156.654 90.8309Z" stroke="white" stroke-width="0.5" stroke-miterlimit="10"/>
<path d="M209.425 90.8309H165.451C164.389 90.8309 163.529 91.6859 163.529 92.7406V111.666C163.529 112.721 164.389 113.576 165.451 113.576H209.425C210.487 113.576 211.348 112.721 211.348 111.666V92.7406C211.348 91.6859 210.487 90.8309 209.425 90.8309Z" fill="#2CB6BF" stroke="white" stroke-width="0.5" stroke-miterlimit="10"/>
<path d="M205.833 90.9338L205.648 91.174V92.7635V97.532L205.637 113.461H208.688L209.759 113.404L210.485 113.096L211.106 112.581L211.268 111.483V108.59V99.659V92.8893L210.934 91.5514L210.036 90.9338L207.64 90.8309L205.833 90.9338Z" fill="#227EB0"/>
<path d="M205.522 113.576V90.8309" stroke="white" stroke-width="0.5" stroke-miterlimit="10"/>
<path d="M211.337 101.123H205.522V103.284H211.337V101.123Z" stroke="white" stroke-width="0.5" stroke-miterlimit="10"/>
<path d="M208.435 109.242C209.001 109.242 209.46 108.786 209.46 108.224C209.46 107.662 209.001 107.206 208.435 107.206C207.869 107.206 207.41 107.662 207.41 108.224C207.41 108.786 207.869 109.242 208.435 109.242Z" stroke="white" stroke-width="0.5" stroke-miterlimit="10"/>
<path d="M209.425 90.8309H165.451C164.389 90.8309 163.529 91.6859 163.529 92.7406V111.666C163.529 112.721 164.389 113.576 165.451 113.576H209.425C210.487 113.576 211.348 112.721 211.348 111.666V92.7406C211.348 91.6859 210.487 90.8309 209.425 90.8309Z" stroke="white" stroke-width="0.5" stroke-miterlimit="10"/>
<path d="M103.895 125.514H59.9213C58.8593 125.514 57.9984 126.369 57.9984 127.424V146.349C57.9984 147.404 58.8593 148.259 59.9213 148.259H103.895C104.957 148.259 105.818 147.404 105.818 146.349V127.424C105.818 126.369 104.957 125.514 103.895 125.514Z" fill="#2CB6BF" stroke="white" stroke-width="0.5" stroke-miterlimit="10"/>
<path d="M100.303 125.617L100.118 125.869V127.447V132.215L100.107 148.156H103.158L104.229 148.088L104.954 147.779L105.576 147.264L105.737 146.178V143.273V134.342V127.584L105.403 126.246L104.517 125.617L102.11 125.514L100.303 125.617Z" fill="#227EB0"/>
<path d="M100.003 148.259V125.514" stroke="white" stroke-width="0.5" stroke-miterlimit="10"/>
<path d="M105.818 135.806H100.003V137.967H105.818V135.806Z" stroke="white" stroke-width="0.5" stroke-miterlimit="10"/>
<path d="M102.905 143.925C103.471 143.925 103.93 143.47 103.93 142.908C103.93 142.345 103.471 141.89 102.905 141.89C102.339 141.89 101.88 142.345 101.88 142.908C101.88 143.47 102.339 143.925 102.905 143.925Z" stroke="white" stroke-width="0.5" stroke-miterlimit="10"/>
<path d="M103.895 125.514H59.9213C58.8593 125.514 57.9984 126.369 57.9984 127.424V146.349C57.9984 147.404 58.8593 148.259 59.9213 148.259H103.895C104.957 148.259 105.818 147.404 105.818 146.349V127.424C105.818 126.369 104.957 125.514 103.895 125.514Z" stroke="white" stroke-width="0.5" stroke-miterlimit="10"/>
<path d="M51.1242 125.514H7.15046C6.08846 125.514 5.22754 126.369 5.22754 127.424V146.349C5.22754 147.404 6.08846 148.259 7.15046 148.259H51.1242C52.1862 148.259 53.0471 147.404 53.0471 146.349V127.424C53.0471 126.369 52.1862 125.514 51.1242 125.514Z" fill="#2CB6BF" stroke="white" stroke-width="0.5" stroke-miterlimit="10"/>
<path d="M47.5318 125.617L47.3591 125.869V127.447V132.215L47.3475 148.156H50.3874L51.4582 148.088L52.1951 147.779L52.8169 147.264L52.9781 146.178V143.273V134.342V127.584L52.6327 126.246L51.7461 125.617L49.3511 125.514L47.5318 125.617Z" fill="#227EB0"/>
<path d="M47.2324 148.259V125.514" stroke="white" stroke-width="0.5" stroke-miterlimit="10"/>
<path d="M53.0472 135.806H47.2324V137.967H53.0472V135.806Z" stroke="white" stroke-width="0.5" stroke-miterlimit="10"/>
<path d="M50.1455 143.925C50.7115 143.925 51.1703 143.47 51.1703 142.908C51.1703 142.345 50.7115 141.89 50.1455 141.89C49.5795 141.89 49.1207 142.345 49.1207 142.908C49.1207 143.47 49.5795 143.925 50.1455 143.925Z" stroke="white" stroke-width="0.5" stroke-miterlimit="10"/>
<path d="M51.1242 125.514H7.15046C6.08846 125.514 5.22754 126.369 5.22754 127.424V146.349C5.22754 147.404 6.08846 148.259 7.15046 148.259H51.1242C52.1862 148.259 53.0471 147.404 53.0471 146.349V127.424C53.0471 126.369 52.1862 125.514 51.1242 125.514Z" stroke="white" stroke-width="0.5" stroke-miterlimit="10"/>
<path d="M156.654 125.514H112.681C111.619 125.514 110.758 126.369 110.758 127.424V146.349C110.758 147.404 111.619 148.259 112.681 148.259H156.654C157.716 148.259 158.577 147.404 158.577 146.349V127.424C158.577 126.369 157.716 125.514 156.654 125.514Z" fill="#2CB6BF" stroke="white" stroke-width="0.5" stroke-miterlimit="10"/>
<path d="M153.062 125.617L152.889 125.869V127.447V132.215L152.866 148.156H155.917L156.988 148.088L157.714 147.779L158.347 147.264L158.508 146.178V143.273V134.342V127.584L158.163 126.246L157.276 125.617L154.881 125.514L153.062 125.617Z" fill="#227EB0"/>
<path d="M152.762 148.259V125.514" stroke="white" stroke-width="0.5" stroke-miterlimit="10"/>
<path d="M158.577 135.806H152.762V137.967H158.577V135.806Z" stroke="white" stroke-width="0.5" stroke-miterlimit="10"/>
<path d="M155.664 143.925C156.23 143.925 156.689 143.47 156.689 142.908C156.689 142.345 156.23 141.89 155.664 141.89C155.098 141.89 154.639 142.345 154.639 142.908C154.639 143.47 155.098 143.925 155.664 143.925Z" stroke="white" stroke-width="0.5" stroke-miterlimit="10"/>
<path d="M156.654 125.514H112.681C111.619 125.514 110.758 126.369 110.758 127.424V146.349C110.758 147.404 111.619 148.259 112.681 148.259H156.654C157.716 148.259 158.577 147.404 158.577 146.349V127.424C158.577 126.369 157.716 125.514 156.654 125.514Z" stroke="white" stroke-width="0.5" stroke-miterlimit="10"/>
<path d="M209.425 125.514H165.451C164.389 125.514 163.529 126.369 163.529 127.424V146.349C163.529 147.404 164.389 148.259 165.451 148.259H209.425C210.487 148.259 211.348 147.404 211.348 146.349V127.424C211.348 126.369 210.487 125.514 209.425 125.514Z" fill="#2CB6BF" stroke="white" stroke-width="0.5" stroke-miterlimit="10"/>
<path d="M205.833 125.617L205.648 125.869V127.447V132.215L205.637 148.156H208.688L209.759 148.088L210.485 147.779L211.106 147.264L211.268 146.178V143.273V134.342V127.584L210.934 126.246L210.036 125.617L207.64 125.514L205.833 125.617Z" fill="#227EB0"/>
<path d="M205.522 148.259V125.514" stroke="white" stroke-width="0.5" stroke-miterlimit="10"/>
<path d="M211.337 135.806H205.522V137.967H211.337V135.806Z" stroke="white" stroke-width="0.5" stroke-miterlimit="10"/>
<path d="M208.435 143.925C209.001 143.925 209.46 143.47 209.46 142.908C209.46 142.345 209.001 141.89 208.435 141.89C207.869 141.89 207.41 142.345 207.41 142.908C207.41 143.47 207.869 143.925 208.435 143.925Z" stroke="white" stroke-width="0.5" stroke-miterlimit="10"/>
<path d="M209.425 125.514H165.451C164.389 125.514 163.529 126.369 163.529 127.424V146.349C163.529 147.404 164.389 148.259 165.451 148.259H209.425C210.487 148.259 211.348 147.404 211.348 146.349V127.424C211.348 126.369 210.487 125.514 209.425 125.514Z" stroke="white" stroke-width="0.5" stroke-miterlimit="10"/>
<path d="M103.895 154.251H59.9213C58.8593 154.251 57.9984 155.106 57.9984 156.161V175.087C57.9984 176.141 58.8593 176.996 59.9213 176.996H103.895C104.957 176.996 105.818 176.141 105.818 175.087V156.161C105.818 155.106 104.957 154.251 103.895 154.251Z" fill="#2CB6BF" stroke="white" stroke-width="0.5" stroke-miterlimit="10"/>
<path d="M100.303 154.354L100.118 154.606V156.184V160.953L100.107 176.893H103.158L104.229 176.825L104.954 176.516L105.576 176.001L105.737 174.915V172.022V163.08V156.321L105.403 154.983L104.517 154.354L102.11 154.251L100.303 154.354Z" fill="#227EB0"/>
<path d="M100.003 176.996V154.251" stroke="white" stroke-width="0.5" stroke-miterlimit="10"/>
<path d="M105.818 164.543H100.003V166.704H105.818V164.543Z" stroke="white" stroke-width="0.5" stroke-miterlimit="10"/>
<path d="M102.905 172.662C103.471 172.662 103.93 172.207 103.93 171.644C103.93 171.082 103.471 170.627 102.905 170.627C102.339 170.627 101.88 171.082 101.88 171.644C101.88 172.207 102.339 172.662 102.905 172.662Z" stroke="white" stroke-width="0.5" stroke-miterlimit="10"/>
<path d="M103.895 154.251H59.9213C58.8593 154.251 57.9984 155.106 57.9984 156.161V175.087C57.9984 176.141 58.8593 176.996 59.9213 176.996H103.895C104.957 176.996 105.818 176.141 105.818 175.087V156.161C105.818 155.106 104.957 154.251 103.895 154.251Z" stroke="white" stroke-width="0.5" stroke-miterlimit="10"/>
<path d="M51.1242 154.251H7.15046C6.08846 154.251 5.22754 155.106 5.22754 156.161V175.087C5.22754 176.141 6.08846 176.996 7.15046 176.996H51.1242C52.1862 176.996 53.0471 176.141 53.0471 175.087V156.161C53.0471 155.106 52.1862 154.251 51.1242 154.251Z" fill="#2CB6BF" stroke="white" stroke-width="0.5" stroke-miterlimit="10"/>
<path d="M47.5318 154.354L47.3591 154.606V156.184V160.953L47.3475 176.893H50.3874L51.4582 176.825L52.1951 176.516L52.8169 176.001L52.9781 174.915V172.022V163.08V156.321L52.6327 154.983L51.7461 154.354L49.3511 154.251L47.5318 154.354Z" fill="#227EB0"/>
<path d="M47.2324 176.996V154.251" stroke="white" stroke-width="0.5" stroke-miterlimit="10"/>
<path d="M53.0472 164.543H47.2324V166.704H53.0472V164.543Z" stroke="white" stroke-width="0.5" stroke-miterlimit="10"/>
<path d="M50.1455 172.662C50.7115 172.662 51.1703 172.207 51.1703 171.644C51.1703 171.082 50.7115 170.627 50.1455 170.627C49.5795 170.627 49.1207 171.082 49.1207 171.644C49.1207 172.207 49.5795 172.662 50.1455 172.662Z" stroke="white" stroke-width="0.5" stroke-miterlimit="10"/>
<path d="M51.1242 154.251H7.15046C6.08846 154.251 5.22754 155.106 5.22754 156.161V175.087C5.22754 176.141 6.08846 176.996 7.15046 176.996H51.1242C52.1862 176.996 53.0471 176.141 53.0471 175.087V156.161C53.0471 155.106 52.1862 154.251 51.1242 154.251Z" stroke="white" stroke-width="0.5" stroke-miterlimit="10"/>
<path d="M156.654 154.251H112.681C111.619 154.251 110.758 155.106 110.758 156.161V175.087C110.758 176.141 111.619 176.996 112.681 176.996H156.654C157.716 176.996 158.577 176.141 158.577 175.087V156.161C158.577 155.106 157.716 154.251 156.654 154.251Z" fill="#2CB6BF" stroke="white" stroke-width="0.5" stroke-miterlimit="10"/>
<path d="M153.062 154.354L152.889 154.606V156.184V160.953L152.866 176.893H155.917L156.988 176.825L157.714 176.516L158.347 176.001L158.508 174.915V172.022V163.08V156.321L158.163 154.983L157.276 154.354L154.881 154.251L153.062 154.354Z" fill="#227EB0"/>
<path d="M152.762 176.996V154.251" stroke="white" stroke-width="0.5" stroke-miterlimit="10"/>
<path d="M158.577 164.543H152.762V166.704H158.577V164.543Z" stroke="white" stroke-width="0.5" stroke-miterlimit="10"/>
<path d="M155.664 172.662C156.23 172.662 156.689 172.207 156.689 171.644C156.689 171.082 156.23 170.627 155.664 170.627C155.098 170.627 154.639 171.082 154.639 171.644C154.639 172.207 155.098 172.662 155.664 172.662Z" stroke="white" stroke-width="0.5" stroke-miterlimit="10"/>
<path d="M156.654 154.251H112.681C111.619 154.251 110.758 155.106 110.758 156.161V175.087C110.758 176.141 111.619 176.996 112.681 176.996H156.654C157.716 176.996 158.577 176.141 158.577 175.087V156.161C158.577 155.106 157.716 154.251 156.654 154.251Z" stroke="white" stroke-width="0.5" stroke-miterlimit="10"/>
<path d="M209.425 154.251H165.451C164.389 154.251 163.529 155.106 163.529 156.161V175.087C163.529 176.141 164.389 176.996 165.451 176.996H209.425C210.487 176.996 211.348 176.141 211.348 175.087V156.161C211.348 155.106 210.487 154.251 209.425 154.251Z" fill="#2CB6BF" stroke="white" stroke-width="0.5" stroke-miterlimit="10"/>
<path d="M205.833 154.354L205.648 154.606V156.184V160.953L205.637 176.893H208.688L209.759 176.825L210.485 176.516L211.106 176.001L211.268 174.915V172.022V163.08V156.321L210.934 154.983L210.036 154.354L207.64 154.251L205.833 154.354Z" fill="#227EB0"/>
<path d="M205.522 176.996V154.251" stroke="white" stroke-width="0.5" stroke-miterlimit="10"/>
<path d="M211.337 164.543H205.522V166.704H211.337V164.543Z" stroke="white" stroke-width="0.5" stroke-miterlimit="10"/>
<path d="M208.435 172.662C209.001 172.662 209.46 172.207 209.46 171.644C209.46 171.082 209.001 170.627 208.435 170.627C207.869 170.627 207.41 171.082 207.41 171.644C207.41 172.207 207.869 172.662 208.435 172.662Z" stroke="white" stroke-width="0.5" stroke-miterlimit="10"/>
<path d="M209.425 154.251H165.451C164.389 154.251 163.529 155.106 163.529 156.161V175.087C163.529 176.141 164.389 176.996 165.451 176.996H209.425C210.487 176.996 211.348 176.141 211.348 175.087V156.161C211.348 155.106 210.487 154.251 209.425 154.251Z" stroke="white" stroke-width="0.5" stroke-miterlimit="10"/>
<path d="M103.895 182.302H59.9213C58.8593 182.302 57.9984 183.157 57.9984 184.212V203.137C57.9984 204.192 58.8593 205.047 59.9213 205.047H103.895C104.957 205.047 105.818 204.192 105.818 203.137V184.212C105.818 183.157 104.957 182.302 103.895 182.302Z" fill="#2CB6BF" stroke="white" stroke-width="0.5" stroke-miterlimit="10"/>
<path d="M100.303 182.405L100.118 182.657V184.235V189.003L100.107 204.944H103.158L104.229 204.876L104.954 204.567L105.576 204.052L105.737 202.966V200.061V191.13V184.372L105.403 183.034L104.517 182.405L102.11 182.302L100.303 182.405Z" fill="#227EB0"/>
<path d="M100.003 205.047V182.302" stroke="white" stroke-width="0.5" stroke-miterlimit="10"/>
<path d="M105.818 192.594H100.003V194.755H105.818V192.594Z" stroke="white" stroke-width="0.5" stroke-miterlimit="10"/>
<path d="M102.905 200.713C103.471 200.713 103.93 200.258 103.93 199.695C103.93 199.133 103.471 198.678 102.905 198.678C102.339 198.678 101.88 199.133 101.88 199.695C101.88 200.258 102.339 200.713 102.905 200.713Z" stroke="white" stroke-width="0.5" stroke-miterlimit="10"/>
<path d="M103.895 182.302H59.9213C58.8593 182.302 57.9984 183.157 57.9984 184.212V203.137C57.9984 204.192 58.8593 205.047 59.9213 205.047H103.895C104.957 205.047 105.818 204.192 105.818 203.137V184.212C105.818 183.157 104.957 182.302 103.895 182.302Z" stroke="white" stroke-width="0.5" stroke-miterlimit="10"/>
<path d="M51.1242 182.302H7.15046C6.08846 182.302 5.22754 183.157 5.22754 184.212V203.137C5.22754 204.192 6.08846 205.047 7.15046 205.047H51.1242C52.1862 205.047 53.0471 204.192 53.0471 203.137V184.212C53.0471 183.157 52.1862 182.302 51.1242 182.302Z" fill="#2CB6BF" stroke="white" stroke-width="0.5" stroke-miterlimit="10"/>
<path d="M47.5318 182.405L47.3591 182.657V184.235V189.003L47.3475 204.944H50.3874L51.4582 204.876L52.1951 204.567L52.8169 204.052L52.9781 202.966V200.061V191.13V184.372L52.6327 183.034L51.7461 182.405L49.3511 182.302L47.5318 182.405Z" fill="#227EB0"/>
<path d="M47.2324 205.047V182.302" stroke="white" stroke-width="0.5" stroke-miterlimit="10"/>
<path d="M53.0472 192.594H47.2324V194.755H53.0472V192.594Z" stroke="white" stroke-width="0.5" stroke-miterlimit="10"/>
<path d="M50.1455 200.713C50.7115 200.713 51.1703 200.258 51.1703 199.695C51.1703 199.133 50.7115 198.678 50.1455 198.678C49.5795 198.678 49.1207 199.133 49.1207 199.695C49.1207 200.258 49.5795 200.713 50.1455 200.713Z" stroke="white" stroke-width="0.5" stroke-miterlimit="10"/>
<path d="M51.1242 182.302H7.15046C6.08846 182.302 5.22754 183.157 5.22754 184.212V203.137C5.22754 204.192 6.08846 205.047 7.15046 205.047H51.1242C52.1862 205.047 53.0471 204.192 53.0471 203.137V184.212C53.0471 183.157 52.1862 182.302 51.1242 182.302Z" stroke="white" stroke-width="0.5" stroke-miterlimit="10"/>
<path d="M156.654 182.302H112.681C111.619 182.302 110.758 183.157 110.758 184.212V203.137C110.758 204.192 111.619 205.047 112.681 205.047H156.654C157.716 205.047 158.577 204.192 158.577 203.137V184.212C158.577 183.157 157.716 182.302 156.654 182.302Z" fill="#2CB6BF" stroke="white" stroke-width="0.5" stroke-miterlimit="10"/>
<path d="M153.062 182.405L152.889 182.657V184.235V189.003L152.866 204.944H155.917L156.988 204.876L157.714 204.567L158.347 204.052L158.508 202.966V200.061V191.13V184.372L158.163 183.034L157.276 182.405L154.881 182.302L153.062 182.405Z" fill="#227EB0"/>
<path d="M152.762 205.047V182.302" stroke="white" stroke-width="0.5" stroke-miterlimit="10"/>
<path d="M158.577 192.594H152.762V194.755H158.577V192.594Z" stroke="white" stroke-width="0.5" stroke-miterlimit="10"/>
<path d="M155.664 200.713C156.23 200.713 156.689 200.258 156.689 199.695C156.689 199.133 156.23 198.678 155.664 198.678C155.098 198.678 154.639 199.133 154.639 199.695C154.639 200.258 155.098 200.713 155.664 200.713Z" stroke="white" stroke-width="0.5" stroke-miterlimit="10"/>
<path d="M156.654 182.302H112.681C111.619 182.302 110.758 183.157 110.758 184.212V203.137C110.758 204.192 111.619 205.047 112.681 205.047H156.654C157.716 205.047 158.577 204.192 158.577 203.137V184.212C158.577 183.157 157.716 182.302 156.654 182.302Z" stroke="white" stroke-width="0.5" stroke-miterlimit="10"/>
<path d="M209.425 182.302H165.451C164.389 182.302 163.529 183.157 163.529 184.212V203.137C163.529 204.192 164.389 205.047 165.451 205.047H209.425C210.487 205.047 211.348 204.192 211.348 203.137V184.212C211.348 183.157 210.487 182.302 209.425 182.302Z" fill="#2CB6BF" stroke="white" stroke-width="0.5" stroke-miterlimit="10"/>
<path d="M205.833 182.405L205.648 182.657V184.235V189.003L205.637 204.944H208.688L209.759 204.876L210.485 204.567L211.106 204.052L211.268 202.966V200.061V191.13V184.372L210.934 183.034L210.036 182.405L207.64 182.302L205.833 182.405Z" fill="#227EB0"/>
<path d="M205.522 205.047V182.302" stroke="white" stroke-width="0.5" stroke-miterlimit="10"/>
<path d="M211.337 192.594H205.522V194.755H211.337V192.594Z" stroke="white" stroke-width="0.5" stroke-miterlimit="10"/>
<path d="M208.435 200.713C209.001 200.713 209.46 200.258 209.46 199.695C209.46 199.133 209.001 198.678 208.435 198.678C207.869 198.678 207.41 199.133 207.41 199.695C207.41 200.258 207.869 200.713 208.435 200.713Z" stroke="white" stroke-width="0.5" stroke-miterlimit="10"/>
<path d="M209.425 182.302H165.451C164.389 182.302 163.529 183.157 163.529 184.212V203.137C163.529 204.192 164.389 205.047 165.451 205.047H209.425C210.487 205.047 211.348 204.192 211.348 203.137V184.212C211.348 183.157 210.487 182.302 209.425 182.302Z" stroke="white" stroke-width="0.5" stroke-miterlimit="10"/>
<path d="M103.895 210.342H59.9213C58.8593 210.342 57.9984 211.197 57.9984 212.251V231.177C57.9984 232.232 58.8593 233.087 59.9213 233.087H103.895C104.957 233.087 105.818 232.232 105.818 231.177V212.251C105.818 211.197 104.957 210.342 103.895 210.342Z" fill="#2CB6BF" stroke="white" stroke-width="0.5" stroke-miterlimit="10"/>
<path d="M100.303 210.445L100.118 210.696V212.274V217.043L100.107 232.984H103.158L104.229 232.927L104.954 232.606L105.576 232.092L105.737 231.005V228.112V219.17V212.412L105.403 211.074L104.517 210.445L102.11 210.342L100.303 210.445Z" fill="#227EB0"/>
<path d="M100.003 233.098V210.342" stroke="white" stroke-width="0.5" stroke-miterlimit="10"/>
<path d="M105.818 220.634H100.003V222.795H105.818V220.634Z" stroke="white" stroke-width="0.5" stroke-miterlimit="10"/>
<path d="M102.905 228.753C103.471 228.753 103.93 228.297 103.93 227.735C103.93 227.173 103.471 226.717 102.905 226.717C102.339 226.717 101.88 227.173 101.88 227.735C101.88 228.297 102.339 228.753 102.905 228.753Z" stroke="white" stroke-width="0.5" stroke-miterlimit="10"/>
<path d="M103.895 210.342H59.9213C58.8593 210.342 57.9984 211.197 57.9984 212.251V231.177C57.9984 232.232 58.8593 233.087 59.9213 233.087H103.895C104.957 233.087 105.818 232.232 105.818 231.177V212.251C105.818 211.197 104.957 210.342 103.895 210.342Z" stroke="white" stroke-width="0.5" stroke-miterlimit="10"/>
<path d="M51.1242 210.342H7.15046C6.08846 210.342 5.22754 211.197 5.22754 212.251V231.177C5.22754 232.232 6.08846 233.087 7.15046 233.087H51.1242C52.1862 233.087 53.0471 232.232 53.0471 231.177V212.251C53.0471 211.197 52.1862 210.342 51.1242 210.342Z" fill="#2CB6BF" stroke="white" stroke-width="0.5" stroke-miterlimit="10"/>
<path d="M47.5318 210.445L47.3591 210.696V212.274V217.043L47.3475 232.984H50.3874L51.4582 232.927L52.1951 232.606L52.8169 232.092L52.9781 231.005V228.112V219.17V212.412L52.6327 211.074L51.7461 210.445L49.3511 210.342L47.5318 210.445Z" fill="#227EB0"/>
<path d="M47.2324 233.098V210.342" stroke="white" stroke-width="0.5" stroke-miterlimit="10"/>
<path d="M53.0472 220.634H47.2324V222.795H53.0472V220.634Z" stroke="white" stroke-width="0.5" stroke-miterlimit="10"/>
<path d="M50.1455 228.753C50.7115 228.753 51.1703 228.297 51.1703 227.735C51.1703 227.173 50.7115 226.717 50.1455 226.717C49.5795 226.717 49.1207 227.173 49.1207 227.735C49.1207 228.297 49.5795 228.753 50.1455 228.753Z" stroke="white" stroke-width="0.5" stroke-miterlimit="10"/>
<path d="M51.1242 210.342H7.15046C6.08846 210.342 5.22754 211.197 5.22754 212.251V231.177C5.22754 232.232 6.08846 233.087 7.15046 233.087H51.1242C52.1862 233.087 53.0471 232.232 53.0471 231.177V212.251C53.0471 211.197 52.1862 210.342 51.1242 210.342Z" stroke="white" stroke-width="0.5" stroke-miterlimit="10"/>
<path d="M156.654 210.342H112.681C111.619 210.342 110.758 211.197 110.758 212.251V231.177C110.758 232.232 111.619 233.087 112.681 233.087H156.654C157.716 233.087 158.577 232.232 158.577 231.177V212.251C158.577 211.197 157.716 210.342 156.654 210.342Z" fill="#2CB6BF" stroke="white" stroke-width="0.5" stroke-miterlimit="10"/>
<path d="M153.062 210.445L152.889 210.696V212.274V217.043L152.866 232.984H155.917L156.988 232.927L157.714 232.606L158.347 232.092L158.508 231.005V228.112V219.17V212.412L158.163 211.074L157.276 210.445L154.881 210.342L153.062 210.445Z" fill="#227EB0"/>
<path d="M152.762 233.098V210.342" stroke="white" stroke-width="0.5" stroke-miterlimit="10"/>
<path d="M158.577 220.634H152.762V222.795H158.577V220.634Z" stroke="white" stroke-width="0.5" stroke-miterlimit="10"/>
<path d="M155.664 228.753C156.23 228.753 156.689 228.297 156.689 227.735C156.689 227.173 156.23 226.717 155.664 226.717C155.098 226.717 154.639 227.173 154.639 227.735C154.639 228.297 155.098 228.753 155.664 228.753Z" stroke="white" stroke-width="0.5" stroke-miterlimit="10"/>
<path d="M156.654 210.342H112.681C111.619 210.342 110.758 211.197 110.758 212.251V231.177C110.758 232.232 111.619 233.087 112.681 233.087H156.654C157.716 233.087 158.577 232.232 158.577 231.177V212.251C158.577 211.197 157.716 210.342 156.654 210.342Z" stroke="white" stroke-width="0.5" stroke-miterlimit="10"/>
<path d="M209.425 210.342H165.451C164.389 210.342 163.529 211.197 163.529 212.251V231.177C163.529 232.232 164.389 233.087 165.451 233.087H209.425C210.487 233.087 211.348 232.232 211.348 231.177V212.251C211.348 211.197 210.487 210.342 209.425 210.342Z" fill="#2CB6BF" stroke="white" stroke-width="0.5" stroke-miterlimit="10"/>
<path d="M205.833 210.445L205.648 210.696V212.274V217.043L205.637 232.984H208.688L209.759 232.927L210.485 232.606L211.106 232.092L211.268 231.005V228.112V219.17V212.412L210.934 211.074L210.036 210.445L207.64 210.342L205.833 210.445Z" fill="#227EB0"/>
<path d="M205.522 233.098V210.342" stroke="white" stroke-width="0.5" stroke-miterlimit="10"/>
<path d="M211.337 220.634H205.522V222.795H211.337V220.634Z" stroke="white" stroke-width="0.5" stroke-miterlimit="10"/>
<path d="M208.435 228.753C209.001 228.753 209.46 228.297 209.46 227.735C209.46 227.173 209.001 226.717 208.435 226.717C207.869 226.717 207.41 227.173 207.41 227.735C207.41 228.297 207.869 228.753 208.435 228.753Z" stroke="white" stroke-width="0.5" stroke-miterlimit="10"/>
<path d="M209.425 210.342H165.451C164.389 210.342 163.529 211.197 163.529 212.251V231.177C163.529 232.232 164.389 233.087 165.451 233.087H209.425C210.487 233.087 211.348 232.232 211.348 231.177V212.251C211.348 211.197 210.487 210.342 209.425 210.342Z" stroke="white" stroke-width="0.5" stroke-miterlimit="10"/>
<path d="M103.895 244.099H59.9213C58.8593 244.099 57.9984 244.954 57.9984 246.009V264.934C57.9984 265.989 58.8593 266.844 59.9213 266.844H103.895C104.957 266.844 105.818 265.989 105.818 264.934V246.009C105.818 244.954 104.957 244.099 103.895 244.099Z" fill="#2CB6BF" stroke="white" stroke-width="0.5" stroke-miterlimit="10"/>
<path d="M100.303 244.202L100.118 244.453V246.031V250.8L100.107 266.741H103.158L104.229 266.684L104.954 266.375L105.576 265.849L105.737 264.763V261.869V252.927V246.169L105.403 244.831L104.517 244.202L102.11 244.099L100.303 244.202Z" fill="#227EB0"/>
<path d="M100.003 266.855V244.099" stroke="white" stroke-width="0.5" stroke-miterlimit="10"/>
<path d="M105.818 254.391H100.003V256.552H105.818V254.391Z" stroke="white" stroke-width="0.5" stroke-miterlimit="10"/>
<path d="M102.905 262.51C103.471 262.51 103.93 262.054 103.93 261.492C103.93 260.93 103.471 260.474 102.905 260.474C102.339 260.474 101.88 260.93 101.88 261.492C101.88 262.054 102.339 262.51 102.905 262.51Z" stroke="white" stroke-width="0.5" stroke-miterlimit="10"/>
<path d="M103.895 244.099H59.9213C58.8593 244.099 57.9984 244.954 57.9984 246.009V264.934C57.9984 265.989 58.8593 266.844 59.9213 266.844H103.895C104.957 266.844 105.818 265.989 105.818 264.934V246.009C105.818 244.954 104.957 244.099 103.895 244.099Z" stroke="white" stroke-width="0.5" stroke-miterlimit="10"/>
<path d="M51.1242 244.099H7.15046C6.08846 244.099 5.22754 244.954 5.22754 246.009V264.934C5.22754 265.989 6.08846 266.844 7.15046 266.844H51.1242C52.1862 266.844 53.0471 265.989 53.0471 264.934V246.009C53.0471 244.954 52.1862 244.099 51.1242 244.099Z" fill="#2CB6BF" stroke="white" stroke-width="0.5" stroke-miterlimit="10"/>
<path d="M47.5318 244.202L47.3591 244.453V246.031V250.8L47.3475 266.741H50.3874L51.4582 266.684L52.1951 266.375L52.8169 265.849L52.9781 264.763V261.869V252.927V246.169L52.6327 244.831L51.7461 244.202L49.3511 244.099L47.5318 244.202Z" fill="#227EB0"/>
<path d="M47.2324 266.855V244.099" stroke="white" stroke-width="0.5" stroke-miterlimit="10"/>
<path d="M53.0472 254.391H47.2324V256.552H53.0472V254.391Z" stroke="white" stroke-width="0.5" stroke-miterlimit="10"/>
<path d="M50.1455 262.51C50.7115 262.51 51.1703 262.054 51.1703 261.492C51.1703 260.93 50.7115 260.474 50.1455 260.474C49.5795 260.474 49.1207 260.93 49.1207 261.492C49.1207 262.054 49.5795 262.51 50.1455 262.51Z" stroke="white" stroke-width="0.5" stroke-miterlimit="10"/>
<path d="M51.1242 244.099H7.15046C6.08846 244.099 5.22754 244.954 5.22754 246.009V264.934C5.22754 265.989 6.08846 266.844 7.15046 266.844H51.1242C52.1862 266.844 53.0471 265.989 53.0471 264.934V246.009C53.0471 244.954 52.1862 244.099 51.1242 244.099Z" stroke="white" stroke-width="0.5" stroke-miterlimit="10"/>
<path d="M156.654 244.099H112.681C111.619 244.099 110.758 244.954 110.758 246.009V264.934C110.758 265.989 111.619 266.844 112.681 266.844H156.654C157.716 266.844 158.577 265.989 158.577 264.934V246.009C158.577 244.954 157.716 244.099 156.654 244.099Z" fill="#2CB6BF" stroke="white" stroke-width="0.5" stroke-miterlimit="10"/>
<path d="M153.062 244.202L152.889 244.453V246.031V250.8L152.866 266.741H155.917L156.988 266.684L157.714 266.375L158.347 265.849L158.508 264.763V261.869V252.927V246.169L158.163 244.831L157.276 244.202L154.881 244.099L153.062 244.202Z" fill="#227EB0"/>
<path d="M152.762 266.855V244.099" stroke="white" stroke-width="0.5" stroke-miterlimit="10"/>
<path d="M158.577 254.391H152.762V256.552H158.577V254.391Z" stroke="white" stroke-width="0.5" stroke-miterlimit="10"/>
<path d="M155.664 262.51C156.23 262.51 156.689 262.054 156.689 261.492C156.689 260.93 156.23 260.474 155.664 260.474C155.098 260.474 154.639 260.93 154.639 261.492C154.639 262.054 155.098 262.51 155.664 262.51Z" stroke="white" stroke-width="0.5" stroke-miterlimit="10"/>
<path d="M156.654 244.099H112.681C111.619 244.099 110.758 244.954 110.758 246.009V264.934C110.758 265.989 111.619 266.844 112.681 266.844H156.654C157.716 266.844 158.577 265.989 158.577 264.934V246.009C158.577 244.954 157.716 244.099 156.654 244.099Z" stroke="white" stroke-width="0.5" stroke-miterlimit="10"/>
<path d="M209.425 244.099H165.451C164.389 244.099 163.529 244.954 163.529 246.009V264.934C163.529 265.989 164.389 266.844 165.451 266.844H209.425C210.487 266.844 211.348 265.989 211.348 264.934V246.009C211.348 244.954 210.487 244.099 209.425 244.099Z" fill="#2CB6BF" stroke="white" stroke-width="0.5" stroke-miterlimit="10"/>
<path d="M205.833 244.202L205.648 244.453V246.031V250.8L205.637 266.741H208.688L209.759 266.684L210.485 266.375L211.106 265.849L211.268 264.763V261.869V252.927V246.169L210.934 244.831L210.036 244.202L207.64 244.099L205.833 244.202Z" fill="#227EB0"/>
<path d="M205.522 266.855V244.099" stroke="white" stroke-width="0.5" stroke-miterlimit="10"/>
<path d="M211.337 254.391H205.522V256.552H211.337V254.391Z" stroke="white" stroke-width="0.5" stroke-miterlimit="10"/>
<path d="M208.435 262.51C209.001 262.51 209.46 262.054 209.46 261.492C209.46 260.93 209.001 260.474 208.435 260.474C207.869 260.474 207.41 260.93 207.41 261.492C207.41 262.054 207.869 262.51 208.435 262.51Z" stroke="white" stroke-width="0.5" stroke-miterlimit="10"/>
<path d="M209.425 244.099H165.451C164.389 244.099 163.529 244.954 163.529 246.009V264.934C163.529 265.989 164.389 266.844 165.451 266.844H209.425C210.487 266.844 211.348 265.989 211.348 264.934V246.009C211.348 244.954 210.487 244.099 209.425 244.099Z" stroke="white" stroke-width="0.5" stroke-miterlimit="10"/>
<path d="M103.895 272.836H59.9213C58.8593 272.836 57.9984 273.691 57.9984 274.746V293.671C57.9984 294.726 58.8593 295.581 59.9213 295.581H103.895C104.957 295.581 105.818 294.726 105.818 293.671V274.746C105.818 273.691 104.957 272.836 103.895 272.836Z" fill="#2CB6BF" stroke="white" stroke-width="0.5" stroke-miterlimit="10"/>
<path d="M100.303 272.939L100.118 273.19V274.769V279.548L100.107 295.478H103.158L104.229 295.421L104.954 295.112L105.576 294.586L105.737 293.5V290.606V281.664V274.906L105.403 273.568L104.517 272.939L102.11 272.836L100.303 272.939Z" fill="#227EB0"/>
<path d="M100.003 295.592V272.836" stroke="white" stroke-width="0.5" stroke-miterlimit="10"/>
<path d="M105.818 283.128H100.003V285.289H105.818V283.128Z" stroke="white" stroke-width="0.5" stroke-miterlimit="10"/>
<path d="M102.905 291.247C103.471 291.247 103.93 290.791 103.93 290.229C103.93 289.667 103.471 289.211 102.905 289.211C102.339 289.211 101.88 289.667 101.88 290.229C101.88 290.791 102.339 291.247 102.905 291.247Z" stroke="white" stroke-width="0.5" stroke-miterlimit="10"/>
<path d="M103.895 272.836H59.9213C58.8593 272.836 57.9984 273.691 57.9984 274.746V293.671C57.9984 294.726 58.8593 295.581 59.9213 295.581H103.895C104.957 295.581 105.818 294.726 105.818 293.671V274.746C105.818 273.691 104.957 272.836 103.895 272.836Z" stroke="white" stroke-width="0.5" stroke-miterlimit="10"/>
<path d="M51.1242 272.836H7.15046C6.08846 272.836 5.22754 273.691 5.22754 274.746V293.671C5.22754 294.726 6.08846 295.581 7.15046 295.581H51.1242C52.1862 295.581 53.0471 294.726 53.0471 293.671V274.746C53.0471 273.691 52.1862 272.836 51.1242 272.836Z" fill="#2CB6BF" stroke="white" stroke-width="0.5" stroke-miterlimit="10"/>
<path d="M47.5318 272.939L47.3591 273.19V274.769V279.548L47.3475 295.478H50.3874L51.4582 295.421L52.1951 295.112L52.8169 294.586L52.9781 293.5V290.606V281.664V274.906L52.6327 273.568L51.7461 272.939L49.3511 272.836L47.5318 272.939Z" fill="#227EB0"/>
<path d="M47.2324 295.592V272.836" stroke="white" stroke-width="0.5" stroke-miterlimit="10"/>
<path d="M53.0472 283.128H47.2324V285.289H53.0472V283.128Z" stroke="white" stroke-width="0.5" stroke-miterlimit="10"/>
<path d="M50.1455 291.247C50.7115 291.247 51.1703 290.791 51.1703 290.229C51.1703 289.667 50.7115 289.211 50.1455 289.211C49.5795 289.211 49.1207 289.667 49.1207 290.229C49.1207 290.791 49.5795 291.247 50.1455 291.247Z" stroke="white" stroke-width="0.5" stroke-miterlimit="10"/>
<path d="M51.1242 272.836H7.15046C6.08846 272.836 5.22754 273.691 5.22754 274.746V293.671C5.22754 294.726 6.08846 295.581 7.15046 295.581H51.1242C52.1862 295.581 53.0471 294.726 53.0471 293.671V274.746C53.0471 273.691 52.1862 272.836 51.1242 272.836Z" stroke="white" stroke-width="0.5" stroke-miterlimit="10"/>
<path d="M156.654 272.836H112.681C111.619 272.836 110.758 273.691 110.758 274.746V293.671C110.758 294.726 111.619 295.581 112.681 295.581H156.654C157.716 295.581 158.577 294.726 158.577 293.671V274.746C158.577 273.691 157.716 272.836 156.654 272.836Z" fill="#2CB6BF" stroke="white" stroke-width="0.5" stroke-miterlimit="10"/>
<path d="M153.062 272.939L152.889 273.19V274.769V279.548L152.866 295.478H155.917L156.988 295.421L157.714 295.112L158.347 294.586L158.508 293.5V290.606V281.664V274.906L158.163 273.568L157.276 272.939L154.881 272.836L153.062 272.939Z" fill="#227EB0"/>
<path d="M152.762 295.592V272.836" stroke="white" stroke-width="0.5" stroke-miterlimit="10"/>
<path d="M158.577 283.128H152.762V285.289H158.577V283.128Z" stroke="white" stroke-width="0.5" stroke-miterlimit="10"/>
<path d="M155.664 291.247C156.23 291.247 156.689 290.791 156.689 290.229C156.689 289.667 156.23 289.211 155.664 289.211C155.098 289.211 154.639 289.667 154.639 290.229C154.639 290.791 155.098 291.247 155.664 291.247Z" stroke="white" stroke-width="0.5" stroke-miterlimit="10"/>
<path d="M156.654 272.836H112.681C111.619 272.836 110.758 273.691 110.758 274.746V293.671C110.758 294.726 111.619 295.581 112.681 295.581H156.654C157.716 295.581 158.577 294.726 158.577 293.671V274.746C158.577 273.691 157.716 272.836 156.654 272.836Z" stroke="white" stroke-width="0.5" stroke-miterlimit="10"/>
<path d="M209.425 272.836H165.451C164.389 272.836 163.529 273.691 163.529 274.746V293.671C163.529 294.726 164.389 295.581 165.451 295.581H209.425C210.487 295.581 211.348 294.726 211.348 293.671V274.746C211.348 273.691 210.487 272.836 209.425 272.836Z" fill="#2CB6BF" stroke="white" stroke-width="0.5" stroke-miterlimit="10"/>
<path d="M205.833 272.939L205.648 273.19V274.769V279.548L205.637 295.478H208.688L209.759 295.421L210.485 295.112L211.106 294.586L211.268 293.5V290.606V281.664V274.906L210.934 273.568L210.036 272.939L207.64 272.836L205.833 272.939Z" fill="#227EB0"/>
<path d="M205.522 295.592V272.836" stroke="white" stroke-width="0.5" stroke-miterlimit="10"/>
<path d="M211.337 283.128H205.522V285.289H211.337V283.128Z" stroke="white" stroke-width="0.5" stroke-miterlimit="10"/>
<path d="M208.435 291.247C209.001 291.247 209.46 290.791 209.46 290.229C209.46 289.667 209.001 289.211 208.435 289.211C207.869 289.211 207.41 289.667 207.41 290.229C207.41 290.791 207.869 291.247 208.435 291.247Z" stroke="white" stroke-width="0.5" stroke-miterlimit="10"/>
<path d="M209.425 272.836H165.451C164.389 272.836 163.529 273.691 163.529 274.746V293.671C163.529 294.726 164.389 295.581 165.451 295.581H209.425C210.487 295.581 211.348 294.726 211.348 293.671V274.746C211.348 273.691 210.487 272.836 209.425 272.836Z" stroke="white" stroke-width="0.5" stroke-miterlimit="10"/>
<path d="M103.895 300.887H59.9213C58.8593 300.887 57.9984 301.742 57.9984 302.796V321.722C57.9984 322.777 58.8593 323.632 59.9213 323.632H103.895C104.957 323.632 105.818 322.777 105.818 321.722V302.796C105.818 301.742 104.957 300.887 103.895 300.887Z" fill="#2CB6BF" stroke="white" stroke-width="0.5" stroke-miterlimit="10"/>
<path d="M100.303 300.99L100.118 301.241V302.819V307.588L100.107 323.529H103.158L104.229 323.472L104.954 323.163L105.576 322.637L105.737 321.55V318.657V309.715V302.957L105.403 301.619L104.517 300.99L102.11 300.887L100.303 300.99Z" fill="#227EB0"/>
<path d="M100.003 323.643V300.887" stroke="white" stroke-width="0.5" stroke-miterlimit="10"/>
<path d="M105.818 311.179H100.003V313.34H105.818V311.179Z" stroke="white" stroke-width="0.5" stroke-miterlimit="10"/>
<path d="M102.905 319.298C103.471 319.298 103.93 318.842 103.93 318.28C103.93 317.718 103.471 317.262 102.905 317.262C102.339 317.262 101.88 317.718 101.88 318.28C101.88 318.842 102.339 319.298 102.905 319.298Z" stroke="white" stroke-width="0.5" stroke-miterlimit="10"/>
<path d="M103.895 300.887H59.9213C58.8593 300.887 57.9984 301.742 57.9984 302.796V321.722C57.9984 322.777 58.8593 323.632 59.9213 323.632H103.895C104.957 323.632 105.818 322.777 105.818 321.722V302.796C105.818 301.742 104.957 300.887 103.895 300.887Z" stroke="white" stroke-width="0.5" stroke-miterlimit="10"/>
<path d="M51.1242 300.887H7.15046C6.08846 300.887 5.22754 301.742 5.22754 302.796V321.722C5.22754 322.777 6.08846 323.632 7.15046 323.632H51.1242C52.1862 323.632 53.0471 322.777 53.0471 321.722V302.796C53.0471 301.742 52.1862 300.887 51.1242 300.887Z" fill="#2CB6BF" stroke="white" stroke-width="0.5" stroke-miterlimit="10"/>
<path d="M47.5318 300.99L47.3591 301.241V302.819V307.588L47.3475 323.529H50.3874L51.4582 323.472L52.1951 323.163L52.8169 322.637L52.9781 321.55V318.657V309.715V302.957L52.6327 301.619L51.7461 300.99L49.3511 300.887L47.5318 300.99Z" fill="#227EB0"/>
<path d="M47.2324 323.643V300.887" stroke="white" stroke-width="0.5" stroke-miterlimit="10"/>
<path d="M53.0472 311.179H47.2324V313.34H53.0472V311.179Z" stroke="white" stroke-width="0.5" stroke-miterlimit="10"/>
<path d="M50.1455 319.298C50.7115 319.298 51.1703 318.842 51.1703 318.28C51.1703 317.718 50.7115 317.262 50.1455 317.262C49.5795 317.262 49.1207 317.718 49.1207 318.28C49.1207 318.842 49.5795 319.298 50.1455 319.298Z" stroke="white" stroke-width="0.5" stroke-miterlimit="10"/>
<path d="M51.1242 300.887H7.15046C6.08846 300.887 5.22754 301.742 5.22754 302.796V321.722C5.22754 322.777 6.08846 323.632 7.15046 323.632H51.1242C52.1862 323.632 53.0471 322.777 53.0471 321.722V302.796C53.0471 301.742 52.1862 300.887 51.1242 300.887Z" stroke="white" stroke-width="0.5" stroke-miterlimit="10"/>
<path d="M156.654 300.887H112.681C111.619 300.887 110.758 301.742 110.758 302.796V321.722C110.758 322.777 111.619 323.632 112.681 323.632H156.654C157.716 323.632 158.577 322.777 158.577 321.722V302.796C158.577 301.742 157.716 300.887 156.654 300.887Z" fill="#2CB6BF" stroke="white" stroke-width="0.5" stroke-miterlimit="10"/>
<path d="M153.062 300.99L152.889 301.241V302.819V307.588L152.866 323.529H155.917L156.988 323.472L157.714 323.163L158.347 322.637L158.508 321.55V318.657V309.715V302.957L158.163 301.619L157.276 300.99L154.881 300.887L153.062 300.99Z" fill="#227EB0"/>
<path d="M152.762 323.643V300.887" stroke="white" stroke-width="0.5" stroke-miterlimit="10"/>
<path d="M158.577 311.179H152.762V313.34H158.577V311.179Z" stroke="white" stroke-width="0.5" stroke-miterlimit="10"/>
<path d="M155.664 319.298C156.23 319.298 156.689 318.842 156.689 318.28C156.689 317.718 156.23 317.262 155.664 317.262C155.098 317.262 154.639 317.718 154.639 318.28C154.639 318.842 155.098 319.298 155.664 319.298Z" stroke="white" stroke-width="0.5" stroke-miterlimit="10"/>
<path d="M156.654 300.887H112.681C111.619 300.887 110.758 301.742 110.758 302.796V321.722C110.758 322.777 111.619 323.632 112.681 323.632H156.654C157.716 323.632 158.577 322.777 158.577 321.722V302.796C158.577 301.742 157.716 300.887 156.654 300.887Z" stroke="white" stroke-width="0.5" stroke-miterlimit="10"/>
<path d="M209.425 300.887H165.451C164.389 300.887 163.529 301.742 163.529 302.796V321.722C163.529 322.777 164.389 323.632 165.451 323.632H209.425C210.487 323.632 211.348 322.777 211.348 321.722V302.796C211.348 301.742 210.487 300.887 209.425 300.887Z" fill="#2CB6BF" stroke="white" stroke-width="0.5" stroke-miterlimit="10"/>
<path d="M205.833 300.99L205.648 301.241V302.819V307.588L205.637 323.529H208.688L209.759 323.472L210.485 323.163L211.106 322.637L211.268 321.55V318.657V309.715V302.957L210.934 301.619L210.036 300.99L207.64 300.887L205.833 300.99Z" fill="#227EB0"/>
<path d="M205.522 323.643V300.887" stroke="white" stroke-width="0.5" stroke-miterlimit="10"/>
<path d="M211.337 311.179H205.522V313.34H211.337V311.179Z" stroke="white" stroke-width="0.5" stroke-miterlimit="10"/>
<path d="M208.435 319.298C209.001 319.298 209.46 318.842 209.46 318.28C209.46 317.718 209.001 317.262 208.435 317.262C207.869 317.262 207.41 317.718 207.41 318.28C207.41 318.842 207.869 319.298 208.435 319.298Z" stroke="white" stroke-width="0.5" stroke-miterlimit="10"/>
<path d="M209.425 300.887H165.451C164.389 300.887 163.529 301.742 163.529 302.796V321.722C163.529 322.777 164.389 323.632 165.451 323.632H209.425C210.487 323.632 211.348 322.777 211.348 321.722V302.796C211.348 301.742 210.487 300.887 209.425 300.887Z" stroke="white" stroke-width="0.5" stroke-miterlimit="10"/>
<path d="M103.895 328.926H59.9213C58.8593 328.926 57.9984 329.781 57.9984 330.836V349.761C57.9984 350.816 58.8593 351.671 59.9213 351.671H103.895C104.957 351.671 105.818 350.816 105.818 349.761V330.836C105.818 329.781 104.957 328.926 103.895 328.926Z" fill="#2CB6BF" stroke="white" stroke-width="0.5" stroke-miterlimit="10"/>
<path d="M100.303 329.029L100.118 329.281V330.859V335.639L100.107 351.568H103.158L104.229 351.511L104.954 351.202L105.576 350.676L105.737 349.59V346.697V337.766V330.996L105.403 329.658L104.517 329.029L102.11 328.926L100.303 329.029Z" fill="#227EB0"/>
<path d="M100.003 351.683V328.926" stroke="white" stroke-width="0.5" stroke-miterlimit="10"/>
<path d="M105.818 339.229H100.003V341.391H105.818V339.229Z" stroke="white" stroke-width="0.5" stroke-miterlimit="10"/>
<path d="M102.905 347.348C103.471 347.348 103.93 346.893 103.93 346.331C103.93 345.769 103.471 345.313 102.905 345.313C102.339 345.313 101.88 345.769 101.88 346.331C101.88 346.893 102.339 347.348 102.905 347.348Z" stroke="white" stroke-width="0.5" stroke-miterlimit="10"/>
<path d="M103.895 328.926H59.9213C58.8593 328.926 57.9984 329.781 57.9984 330.836V349.761C57.9984 350.816 58.8593 351.671 59.9213 351.671H103.895C104.957 351.671 105.818 350.816 105.818 349.761V330.836C105.818 329.781 104.957 328.926 103.895 328.926Z" stroke="white" stroke-width="0.5" stroke-miterlimit="10"/>
<path d="M51.1242 328.926H7.15046C6.08846 328.926 5.22754 329.781 5.22754 330.836V349.761C5.22754 350.816 6.08846 351.671 7.15046 351.671H51.1242C52.1862 351.671 53.0471 350.816 53.0471 349.761V330.836C53.0471 329.781 52.1862 328.926 51.1242 328.926Z" fill="#2CB6BF" stroke="white" stroke-width="0.5" stroke-miterlimit="10"/>
<path d="M47.5318 329.029L47.3591 329.281V330.859V335.639L47.3475 351.568H50.3874L51.4582 351.511L52.1951 351.202L52.8169 350.676L52.9781 349.59V346.697V337.766V330.996L52.6327 329.658L51.7461 329.029L49.3511 328.926L47.5318 329.029Z" fill="#227EB0"/>
<path d="M47.2324 351.683V328.926" stroke="white" stroke-width="0.5" stroke-miterlimit="10"/>
<path d="M53.0472 339.229H47.2324V341.391H53.0472V339.229Z" stroke="white" stroke-width="0.5" stroke-miterlimit="10"/>
<path d="M50.1455 347.348C50.7115 347.348 51.1703 346.893 51.1703 346.331C51.1703 345.769 50.7115 345.313 50.1455 345.313C49.5795 345.313 49.1207 345.769 49.1207 346.331C49.1207 346.893 49.5795 347.348 50.1455 347.348Z" stroke="white" stroke-width="0.5" stroke-miterlimit="10"/>
<path d="M51.1242 328.926H7.15046C6.08846 328.926 5.22754 329.781 5.22754 330.836V349.761C5.22754 350.816 6.08846 351.671 7.15046 351.671H51.1242C52.1862 351.671 53.0471 350.816 53.0471 349.761V330.836C53.0471 329.781 52.1862 328.926 51.1242 328.926Z" stroke="white" stroke-width="0.5" stroke-miterlimit="10"/>
<path d="M156.654 328.926H112.681C111.619 328.926 110.758 329.781 110.758 330.836V349.761C110.758 350.816 111.619 351.671 112.681 351.671H156.654C157.716 351.671 158.577 350.816 158.577 349.761V330.836C158.577 329.781 157.716 328.926 156.654 328.926Z" fill="#2CB6BF" stroke="white" stroke-width="0.5" stroke-miterlimit="10"/>
<path d="M153.062 329.029L152.889 329.281V330.859V335.639L152.866 351.568H155.917L156.988 351.511L157.714 351.202L158.347 350.676L158.508 349.59V346.697V337.766V330.996L158.163 329.658L157.276 329.029L154.881 328.926L153.062 329.029Z" fill="#227EB0"/>
<path d="M152.762 351.683V328.926" stroke="white" stroke-width="0.5" stroke-miterlimit="10"/>
<path d="M158.577 339.229H152.762V341.391H158.577V339.229Z" stroke="white" stroke-width="0.5" stroke-miterlimit="10"/>
<path d="M155.664 347.348C156.23 347.348 156.689 346.893 156.689 346.331C156.689 345.769 156.23 345.313 155.664 345.313C155.098 345.313 154.639 345.769 154.639 346.331C154.639 346.893 155.098 347.348 155.664 347.348Z" stroke="white" stroke-width="0.5" stroke-miterlimit="10"/>
<path d="M156.654 328.926H112.681C111.619 328.926 110.758 329.781 110.758 330.836V349.761C110.758 350.816 111.619 351.671 112.681 351.671H156.654C157.716 351.671 158.577 350.816 158.577 349.761V330.836C158.577 329.781 157.716 328.926 156.654 328.926Z" stroke="white" stroke-width="0.5" stroke-miterlimit="10"/>
<path d="M209.425 328.926H165.451C164.389 328.926 163.529 329.781 163.529 330.836V349.761C163.529 350.816 164.389 351.671 165.451 351.671H209.425C210.487 351.671 211.348 350.816 211.348 349.761V330.836C211.348 329.781 210.487 328.926 209.425 328.926Z" fill="#2CB6BF" stroke="white" stroke-width="0.5" stroke-miterlimit="10"/>
<path d="M205.833 329.029L205.648 329.281V330.859V335.639L205.637 351.568H208.688L209.759 351.511L210.485 351.202L211.106 350.676L211.268 349.59V346.697V337.766V330.996L210.934 329.658L210.036 329.029L207.64 328.926L205.833 329.029Z" fill="#227EB0"/>
<path d="M205.522 351.683V328.926" stroke="white" stroke-width="0.5" stroke-miterlimit="10"/>
<path d="M211.337 339.229H205.522V341.391H211.337V339.229Z" stroke="white" stroke-width="0.5" stroke-miterlimit="10"/>
<path d="M208.435 347.348C209.001 347.348 209.46 346.893 209.46 346.331C209.46 345.769 209.001 345.313 208.435 345.313C207.869 345.313 207.41 345.769 207.41 346.331C207.41 346.893 207.869 347.348 208.435 347.348Z" stroke="white" stroke-width="0.5" stroke-miterlimit="10"/>
<path d="M209.425 328.926H165.451C164.389 328.926 163.529 329.781 163.529 330.836V349.761C163.529 350.816 164.389 351.671 165.451 351.671H209.425C210.487 351.671 211.348 350.816 211.348 349.761V330.836C211.348 329.781 210.487 328.926 209.425 328.926Z" stroke="white" stroke-width="0.5" stroke-miterlimit="10"/>
<path d="M69.985 62.8715H72.6909V63.6605H71.7928V66.2792H70.8716V63.6605H69.985V62.8715Z" fill="white"/>
<path d="M72.9788 65.1129V64.038C72.9612 63.8659 72.9832 63.6921 73.043 63.5297C73.1028 63.3673 73.199 63.2204 73.3242 63.1003C73.7285 62.8944 74.1884 62.8223 74.6369 62.8944C75.0437 62.8589 75.4504 62.9639 75.7883 63.1917C75.9243 63.3145 76.0287 63.4679 76.0928 63.639C76.1569 63.8101 76.1789 63.9939 76.1568 64.1752V65.1357C76.176 65.3189 76.1505 65.5039 76.0824 65.6751C76.0142 65.8463 75.9054 65.9987 75.7653 66.1192C75.3854 66.3253 74.9532 66.4167 74.5217 66.3822C74.1197 66.4152 73.7174 66.3233 73.3703 66.1192C73.2335 66.001 73.1267 65.8524 73.0587 65.6855C72.9906 65.5185 72.9633 65.338 72.9788 65.1586M73.9345 64.2324V64.9985C73.914 65.1599 73.9551 65.3231 74.0496 65.4559C74.1187 65.5474 74.3029 65.5703 74.5793 65.5703C74.7498 65.59 74.9224 65.5581 75.0744 65.4788C75.128 65.4162 75.168 65.3432 75.1918 65.2645C75.2155 65.1858 75.2226 65.103 75.2126 65.0214V64.2209C75.224 64.1411 75.2175 64.0597 75.1936 63.9826C75.1697 63.9055 75.129 63.8346 75.0744 63.7749C74.9229 63.6942 74.7499 63.6622 74.5793 63.6835C74.3977 63.666 74.2147 63.6976 74.0496 63.7749C73.953 63.9068 73.9117 64.0708 73.9345 64.2324Z" fill="white"/>
<path d="M76.5712 65.1128V64.0379C76.5536 63.8658 76.5756 63.692 76.6354 63.5296C76.6952 63.3672 76.7914 63.2204 76.9166 63.1002C77.3165 62.8937 77.773 62.8214 78.2178 62.8944C78.6243 62.8625 79.0298 62.9672 79.3692 63.1917C79.4988 63.3188 79.5982 63.473 79.6599 63.6432C79.7217 63.8134 79.7443 63.9951 79.7262 64.1751V65.1357C79.7454 65.3188 79.7199 65.5038 79.6518 65.675C79.5836 65.8463 79.4748 65.9986 79.3347 66.1191C78.956 66.3284 78.5228 66.4201 78.0911 66.3821C77.6889 66.4182 77.2856 66.3261 76.9397 66.1191C76.8029 66.0009 76.6961 65.8523 76.6281 65.6854C76.56 65.5185 76.5327 65.338 76.5482 65.1586M77.4924 64.2323V64.9985C77.4771 65.1595 77.5177 65.3209 77.6075 65.4559C77.6766 65.5474 77.8723 65.5702 78.1372 65.5702C78.3114 65.5882 78.4871 65.5564 78.6438 65.4787C78.7434 65.348 78.7888 65.1843 78.7705 65.0213V64.2209C78.7805 64.1419 78.7744 64.0617 78.7527 63.9851C78.7309 63.9085 78.6939 63.837 78.6438 63.7749C78.4882 63.6939 78.3115 63.662 78.1372 63.6834C77.9557 63.6692 77.7735 63.7006 77.6075 63.7749C77.5159 63.9091 77.4751 64.0711 77.4924 64.2323Z" fill="white"/>
<path d="M80.2904 62.8715H81.2116V65.5016H82.6393V66.2792H80.2904V62.8715Z" fill="white"/>
<path d="M83.8599 65.1815C83.8542 65.2391 83.8605 65.2972 83.8783 65.3522C83.8961 65.4073 83.9251 65.4582 83.9635 65.5017C84.1116 65.567 84.2749 65.5907 84.4356 65.5703C84.5925 65.5865 84.751 65.5629 84.8962 65.5017C84.9342 65.4674 84.9635 65.4247 84.9815 65.3769C84.9995 65.3292 85.0058 65.2779 84.9998 65.2272C84.9998 65.09 84.9998 65.01 84.9077 64.9756C84.7713 64.9448 84.6296 64.9448 84.4932 64.9756C84.0736 64.9998 83.6545 64.9212 83.2727 64.7469C83.1623 64.6443 83.0778 64.5173 83.0258 64.3763C82.9738 64.2353 82.9558 64.0842 82.9733 63.935C82.9733 63.4891 83.0769 63.2032 83.2842 63.0659C83.6422 62.8953 84.0401 62.8242 84.4356 62.8601C84.8316 62.8105 85.2334 62.8824 85.5871 63.0659C85.6879 63.1626 85.7652 63.2808 85.8131 63.4116C85.861 63.5424 85.8782 63.6823 85.8634 63.8207V63.9579H84.9883C84.9906 63.8532 84.9537 63.7513 84.8847 63.672C84.7655 63.6189 84.6351 63.5954 84.5047 63.6034C84.3572 63.5675 84.2031 63.5675 84.0556 63.6034C84.0179 63.6328 83.9884 63.6714 83.9703 63.7156C83.9521 63.7597 83.9458 63.8077 83.952 63.855C83.9501 63.8947 83.9563 63.9344 83.9701 63.9717C83.984 64.0091 84.0052 64.0432 84.0326 64.0723C84.0326 64.0723 84.1823 64.1409 84.3665 64.1637C84.6865 64.1689 85.0059 64.1957 85.3222 64.2438C85.4373 64.2505 85.5487 64.2866 85.6456 64.3488C85.7424 64.4109 85.8215 64.4968 85.8749 64.5983C85.962 64.8081 85.9975 65.0354 85.9786 65.2615C85.9912 65.4042 85.972 65.5479 85.9222 65.6823C85.8725 65.8167 85.7934 65.9386 85.6907 66.0391C85.3405 66.2339 84.9387 66.3176 84.5392 66.2793C83.8599 66.2793 83.4569 66.1878 83.2957 65.982C83.1343 65.7343 83.0576 65.4416 83.0769 65.1472H83.975L83.8599 65.1815Z" fill="white"/>
<path d="M86.3585 62.8944H87.1415V63.5005H86.3585V62.8944ZM86.3585 63.9236H87.1415V66.325H86.3585V63.9236Z" fill="white"/>
<path d="M87.7402 66.325V62.8944H89.525C89.8935 62.8661 90.2592 62.9763 90.5498 63.2031C90.67 63.3354 90.7609 63.4913 90.8164 63.6608C90.872 63.8302 90.891 64.0094 90.8722 64.1866V64.9756C90.913 65.3445 90.8054 65.7144 90.5728 66.0048C90.4431 66.1224 90.29 66.2117 90.1234 66.2668C89.9568 66.322 89.7804 66.3418 89.6056 66.325H87.7402ZM88.6499 65.5474H89.4444C89.5751 65.5517 89.7026 65.5068 89.8013 65.4216C89.9003 65.2775 89.9452 65.1035 89.928 64.9299V64.2666C89.9471 64.1141 89.9103 63.9599 89.8244 63.8321C89.7732 63.7868 89.7127 63.7531 89.6471 63.7333C89.5814 63.7136 89.5123 63.7082 89.4444 63.7177H88.6614L88.6499 65.5474Z" fill="white"/>
</g>
<defs>
<clipPath id="clip0_45_5615">
<rect width="216" height="357" fill="white"/>
</clipPath>
</defs>
</svg>
