<svg width="39" height="39" viewBox="0 0 39 39" fill="none" xmlns="http://www.w3.org/2000/svg">
<g clip-path="url(#clip0_76_2178)">
<mask id="mask0_76_2178" style="mask-type:luminance" maskUnits="userSpaceOnUse" x="0" y="0" width="39" height="39">
<path d="M0 3.8147e-06H39V39H0V3.8147e-06Z" fill="white"/>
</mask>
<g mask="url(#mask0_76_2178)">
<path d="M7.56685 2.05995L5.48865 3.80376C5.29213 3.96867 5.26654 4.2617 5.43145 4.45823L7.23124 6.60315L10.0211 4.26216L8.22132 2.11724C8.05641 1.92071 7.76337 1.89504 7.56685 2.05995Z" stroke="#2CB6BF" stroke-width="1.3" stroke-miterlimit="10" stroke-linecap="round" stroke-linejoin="round"/>
<path d="M7.23126 6.60316L9.05962 7.9015L11.0546 6.22763L10.0211 4.26217L7.23126 6.60316Z" stroke="#2CB6BF" stroke-width="1.3" stroke-miterlimit="10" stroke-linecap="round" stroke-linejoin="round"/>
<path d="M18.7611 15.4854L11.0184 6.2579L9.02348 7.93185L17.0614 17.5111L18.7611 15.4854Z" stroke="#2CB6BF" stroke-width="1.3" stroke-miterlimit="10" stroke-linecap="round" stroke-linejoin="round"/>
<path d="M23.9147 18.0878C23.7575 17.9005 23.5185 17.8229 23.2938 17.8625L18.8401 23.1702L19.4146 23.8548C19.649 24.1342 20.0656 24.1706 20.345 23.9362L24.8137 20.1865C25.0931 19.9521 25.1295 19.5356 24.8951 19.2562L23.9147 18.0878Z" stroke="#2CB6BF" stroke-width="1.3" stroke-miterlimit="10" stroke-linecap="round" stroke-linejoin="round"/>
<path d="M25.6781 22.6315L22.6027 25.2122C21.6844 25.9826 21.5636 27.3642 22.3341 28.2825L30.1967 37.6528C30.9672 38.5709 32.3488 38.6918 33.2671 37.9214L36.3425 35.3407C37.2608 34.5702 37.3816 33.1886 36.6111 32.2704L28.7486 22.9001C27.978 21.9819 26.5964 21.861 25.6781 22.6315Z" stroke="#2CB6BF" stroke-width="1.3" stroke-miterlimit="10" stroke-linecap="round" stroke-linejoin="round"/>
<path d="M21.1983 23.2202L22.7593 25.0806L25.5215 22.7629L23.9604 20.9025L21.1983 23.2202Z" stroke="#2CB6BF" stroke-width="1.3" stroke-miterlimit="10" stroke-linecap="round" stroke-linejoin="round"/>
<path d="M23.1134 14.188C22.06 13.3041 20.475 13.4429 19.5912 14.4962L11.3907 24.2692C10.5068 25.3225 10.6455 26.9075 11.6988 27.7913C12.7522 28.6752 14.3371 28.5365 15.221 27.4832L23.4215 17.7102C24.3053 16.6569 24.1667 15.0719 23.1134 14.188Z" stroke="#2CB6BF" stroke-width="1.3" stroke-miterlimit="10" stroke-linecap="round" stroke-linejoin="round"/>
<path d="M21.1966 16.4723L13.6467 25.47" stroke="#2CB6BF" stroke-width="1.3" stroke-miterlimit="10" stroke-linecap="round" stroke-linejoin="round"/>
<path d="M34.5303 11.4129C35.7202 9.58693 35.956 7.34329 35.297 5.35741C35.1909 5.03734 34.7739 4.95797 34.5572 5.21634L30.7977 9.69669C30.5572 9.98325 30.1821 10.1198 29.8137 10.0549L27.5935 9.66341C27.225 9.59843 26.9192 9.34189 26.7912 8.99028L26.0202 6.87178C25.8922 6.52025 25.9616 6.12705 26.202 5.84049L29.9675 1.35306C30.1842 1.09476 30.0338 0.698816 29.7003 0.648847C27.3664 0.299294 24.9116 1.13505 23.2835 3.0753C21.5124 5.1861 21.1985 8.03341 22.2326 10.3976C22.4011 10.7829 22.3311 11.2309 22.0608 11.553L9.16483 26.9218C8.92131 27.212 8.54715 27.36 8.17139 27.3118C6.29239 27.0707 4.33134 27.7893 3.0643 29.4022C1.80952 30.9995 1.56714 33.1081 2.27059 34.901C2.38919 35.2033 2.7916 35.2645 3.00031 35.0157L6.18857 31.2162C6.25293 31.1395 6.35332 31.1029 6.45197 31.1203L8.42992 31.4691C8.52856 31.4864 8.61037 31.5551 8.64465 31.6493L9.33157 33.5365C9.36585 33.6307 9.34726 33.7359 9.28289 33.8126L6.09144 37.616C5.88266 37.8648 6.01307 38.2497 6.33131 38.3149C8.27423 38.7131 10.3682 38.061 11.7326 36.435C13.004 34.9197 13.3317 32.9275 12.78 31.1706C12.6677 30.8131 12.7546 30.4225 12.9955 30.1354L25.8912 14.7669C26.1609 14.4456 26.5891 14.2977 26.9969 14.3967C28.9309 14.8661 31.0086 14.4953 32.6709 13.3334" stroke="#2CB6BF" stroke-width="1.3" stroke-miterlimit="10" stroke-linecap="round" stroke-linejoin="round"/>
<path d="M29.89 27.9167L26.9482 24.4108C26.1778 23.4925 25.2178 23.0178 24.815 23.3558L23.4659 24.4879C23.0631 24.8258 23.3639 25.8536 24.1344 26.7719L31.997 36.1422C32.7674 37.0604 33.7274 37.535 34.1302 37.1971L35.4793 36.0651C35.8821 35.727 35.5813 34.6992 34.8108 33.7811L31.6074 29.9633" stroke="#2CB6BF" stroke-width="1.3" stroke-miterlimit="10" stroke-linecap="round" stroke-linejoin="round"/>
</g>
</g>
<defs>
<clipPath id="clip0_76_2178">
<rect width="39" height="39" fill="white"/>
</clipPath>
</defs>
</svg>
