<svg width="39" height="39" viewBox="0 0 39 39" fill="none" xmlns="http://www.w3.org/2000/svg">
<g clip-path="url(#clip0_87_1400)">
<path d="M8.93197 7.73381C14.6899 2.52544 23.3068 2.4458 29.1443 7.20023L24.5173 7.37544C23.92 7.39933 23.4581 7.89309 23.482 8.49038C23.5059 9.07175 23.9837 9.52569 24.5571 9.52569C24.573 9.52569 24.581 9.52569 24.5969 9.52569L31.7007 9.26288C32.2821 9.23899 32.736 8.76912 32.736 8.18776V8.10812C32.736 8.09219 32.736 8.08423 32.736 8.0683V8.06033L32.4732 1.03619C32.4493 0.4389 31.9476 -0.0230051 31.3583 0.00088653C30.761 0.0247782 30.2991 0.518539 30.323 1.11583L30.4902 5.51986C27.5993 3.15458 24.0395 1.7848 20.2327 1.59366C15.5181 1.35475 10.9867 2.97141 7.49051 6.14104C2.68033 10.4973 0.641572 17.1232 2.17064 23.4306C2.2901 23.9244 2.72811 24.2509 3.21391 24.2509C3.30151 24.2509 3.38115 24.2429 3.46875 24.219C4.04215 24.0757 4.40052 23.4943 4.25717 22.9209C2.91924 17.3781 4.70315 11.5565 8.93197 7.73381Z" fill="#2CB6BF"/>
<path d="M36.8294 15.5703C36.6861 14.9969 36.1047 14.6385 35.5313 14.7819C34.9579 14.9252 34.5996 15.5066 34.7429 16.08C36.0888 21.6228 34.2969 27.4444 30.0681 31.2671C27.0976 33.9509 23.3705 35.2729 19.6593 35.2729C16.1154 35.2729 12.5794 34.0704 9.72836 31.6971L14.4111 31.275C15.0005 31.2193 15.4385 30.7016 15.3827 30.1044C15.327 29.5071 14.8093 29.077 14.212 29.1328L7.13214 29.7699C6.54281 29.8256 6.1048 30.3433 6.16055 30.9406L6.79766 38.0205C6.84544 38.5779 7.31531 39 7.86482 39C7.89667 39 7.92853 39 7.96038 38.9921C8.54971 38.9363 8.98772 38.4187 8.93198 37.8214L8.54971 33.5129C11.4406 35.8543 14.9845 37.2161 18.7674 37.4072C19.07 37.4232 19.3726 37.4311 19.6673 37.4311C24.0554 37.4311 28.2285 35.8224 31.5096 32.8599C36.3198 28.5036 38.3585 21.8856 36.8294 15.5703Z" fill="#2CB6BF"/>
</g>
<defs>
<clipPath id="clip0_87_1400">
<rect width="39" height="39" fill="white"/>
</clipPath>
</defs>
</svg>
