<svg width="39" height="39" viewBox="0 0 39 39" fill="none" xmlns="http://www.w3.org/2000/svg">
<g clip-path="url(#clip0_76_2209)">
<mask id="mask0_76_2209" style="mask-type:luminance" maskUnits="userSpaceOnUse" x="0" y="0" width="39" height="39">
<path d="M0 3.8147e-06H39V39H0V3.8147e-06Z" fill="white"/>
</mask>
<g mask="url(#mask0_76_2209)">
<path d="M19.5 1.14258C29.6315 1.14258 37.8574 9.36853 37.8574 19.5C37.8574 29.6315 29.6315 37.8574 19.5 37.8574C9.36853 37.8574 1.14258 29.6315 1.14258 19.5C1.14258 9.36853 9.36853 1.14258 19.5 1.14258Z" stroke="#2CB6BF" stroke-width="1.8" stroke-miterlimit="10" stroke-linecap="round" stroke-linejoin="round"/>
<path d="M19.5 10.9332V19.5L23.1715 25.859" stroke="#2CB6BF" stroke-width="1.8" stroke-miterlimit="10" stroke-linecap="round" stroke-linejoin="round"/>
<path fill-rule="evenodd" clip-rule="evenodd" d="M19.5 4.89531C20.1307 4.89531 20.6426 5.40718 20.6426 6.03789C20.6426 6.66859 20.1307 7.18047 19.5 7.18047C18.8693 7.18047 18.3574 6.66859 18.3574 6.03789C18.3574 5.40718 18.8693 4.89531 19.5 4.89531Z" fill="#2CB6BF"/>
<path fill-rule="evenodd" clip-rule="evenodd" d="M19.5 31.8195C20.1307 31.8195 20.6426 32.3314 20.6426 32.9621C20.6426 33.5928 20.1307 34.1047 19.5 34.1047C18.8693 34.1047 18.3574 33.5928 18.3574 32.9621C18.3574 32.3314 18.8693 31.8195 19.5 31.8195Z" fill="#2CB6BF"/>
<path fill-rule="evenodd" clip-rule="evenodd" d="M34.1047 19.5C34.1047 20.1307 33.5928 20.6426 32.9621 20.6426C32.3314 20.6426 31.8195 20.1307 31.8195 19.5C31.8195 18.8693 32.3314 18.3574 32.9621 18.3574C33.5928 18.3574 34.1047 18.8693 34.1047 19.5Z" fill="#2CB6BF"/>
<path fill-rule="evenodd" clip-rule="evenodd" d="M32.3014 12.769C32.3014 13.3996 31.7895 13.9116 31.1588 13.9116C30.5281 13.9116 30.0162 13.3996 30.0162 12.769C30.0162 12.1383 30.5281 11.6264 31.1588 11.6264C31.7895 11.6264 32.3014 12.1383 32.3014 12.769Z" fill="#2CB6BF"/>
<path fill-rule="evenodd" clip-rule="evenodd" d="M32.3014 26.231C32.3014 26.8617 31.7895 27.3736 31.1588 27.3736C30.5281 27.3736 30.0162 26.8617 30.0162 26.231C30.0162 25.6004 30.5281 25.0884 31.1588 25.0884C31.7895 25.0884 32.3014 25.6004 32.3014 26.231Z" fill="#2CB6BF"/>
<path fill-rule="evenodd" clip-rule="evenodd" d="M8.98378 26.231C8.98378 26.8617 8.4719 27.3736 7.8412 27.3736C7.2105 27.3736 6.69862 26.8617 6.69862 26.231C6.69862 25.6004 7.2105 25.0884 7.8412 25.0884C8.4719 25.0884 8.98378 25.6004 8.98378 26.231Z" fill="#2CB6BF"/>
<path fill-rule="evenodd" clip-rule="evenodd" d="M8.98378 12.769C8.98378 13.3996 8.4719 13.9116 7.8412 13.9116C7.2105 13.9116 6.69862 13.3996 6.69862 12.769C6.69862 12.1383 7.2105 11.6264 7.8412 11.6264C8.4719 11.6264 8.98378 12.1383 8.98378 12.769Z" fill="#2CB6BF"/>
<path fill-rule="evenodd" clip-rule="evenodd" d="M27.3736 7.84117C27.3736 8.47187 26.8618 8.98375 26.231 8.98375C25.6003 8.98375 25.0885 8.47187 25.0885 7.84117C25.0885 7.21054 25.6003 6.69859 26.231 6.69859C26.8618 6.69859 27.3736 7.21054 27.3736 7.84117Z" fill="#2CB6BF"/>
<path fill-rule="evenodd" clip-rule="evenodd" d="M27.3736 31.1588C27.3736 31.7895 26.8618 32.3014 26.231 32.3014C25.6003 32.3014 25.0885 31.7895 25.0885 31.1588C25.0885 30.5281 25.6003 30.0163 26.231 30.0163C26.8618 30.0163 27.3736 30.5281 27.3736 31.1588Z" fill="#2CB6BF"/>
<path fill-rule="evenodd" clip-rule="evenodd" d="M13.9115 31.1588C13.9115 31.7895 13.3996 32.3014 12.7689 32.3014C12.1382 32.3014 11.6264 31.7895 11.6264 31.1588C11.6264 30.5281 12.1382 30.0163 12.7689 30.0163C13.3996 30.0163 13.9115 30.5281 13.9115 31.1588Z" fill="#2CB6BF"/>
<path fill-rule="evenodd" clip-rule="evenodd" d="M13.9115 7.84117C13.9115 8.47187 13.3996 8.98375 12.7689 8.98375C12.1382 8.98375 11.6264 8.47187 11.6264 7.84117C11.6264 7.21054 12.1382 6.69859 12.7689 6.69859C13.3996 6.69859 13.9115 7.21054 13.9115 7.84117Z" fill="#2CB6BF"/>
<path fill-rule="evenodd" clip-rule="evenodd" d="M7.18047 19.5C7.18047 20.1307 6.66859 20.6426 6.03789 20.6426C5.40718 20.6426 4.89531 20.1307 4.89531 19.5C4.89531 18.8693 5.40718 18.3574 6.03789 18.3574C6.66859 18.3574 7.18047 18.8693 7.18047 19.5Z" fill="#2CB6BF"/>
</g>
</g>
<defs>
<clipPath id="clip0_76_2209">
<rect width="39" height="39" fill="white"/>
</clipPath>
</defs>
</svg>
