<svg width="191" height="45" viewBox="0 0 191 45" fill="none" xmlns="http://www.w3.org/2000/svg">
<g clip-path="url(#clip0_76_3719)">
<path d="M139.836 35.2058V39.2646H148.083L149.945 42.8823L165.285 40.4117L161.561 36.4411L154.999 36.3529V35.2058H140.013H139.836Z" fill="#203132"/>
<path d="M176.546 1.58813V2.20578V4.14696H170.339L166.349 7.76461H161.916L156.063 3.26461H140.723H139.836V10.3234H167.058L171.137 6.61755H176.369V9.17637H183.818V1.58813H176.546ZM181.778 6.97049H178.763V4.14696H181.778V6.97049Z" fill="#3B4A95"/>
<path d="M172.911 12.9705V15.3529H166.438V13.0588L157.216 13.2352V11.2058L139.747 11.3823V17.9117H172.645L172.822 20.7352H180.271V13.0588L172.911 12.9705ZM178.231 18.2646H175.216V15.4411H178.231V18.2646Z" fill="#97C9D3"/>
<path d="M181.689 24.0001V26.5589H177.167L174.33 22.7648H166.97V20.3825L152.516 20.6472V18.9707H140.102H139.659V27.5295L159.167 27.1766V25.2354H172.734L175.394 29.0295L181.689 28.6766V31.0589H189.049V23.9119H181.689V24.0001ZM187.01 28.8531H183.995V26.0295H187.01V28.8531Z" fill="#548F90"/>
<path d="M173.354 34.5001V36.5295H170.96L166.26 31.3236H164.044L165.108 28.853L139.659 29.0295L139.836 34.2354H165.019L169.807 39.2648L173.354 39.0883V41.4707H180.448V34.4119L173.354 34.5001ZM178.054 39.353H175.039V36.5295H178.054V39.353Z" fill="#365A59"/>
<path d="M2.30548 6H19.0645V10.8529H13.4782V27.0882H7.80316V10.8529H2.30548V6Z" fill="#3B4A95"/>
<mask id="mask0_76_3719" style="mask-type:luminance" maskUnits="userSpaceOnUse" x="0" y="0" width="191" height="45">
<path d="M191 0H0V45H191V0Z" fill="white"/>
</mask>
<g mask="url(#mask0_76_3719)">
<path d="M20.838 19.8529V13.5C20.838 10.8529 21.5473 8.91172 22.9661 7.67643C24.3848 6.44113 27.1337 5.82349 31.0353 5.82349C34.3161 5.82349 36.6216 6.44113 38.129 7.67643C39.6365 8.91172 40.3458 10.9411 40.3458 13.7647V19.6764C40.3458 22.5882 39.5478 24.6176 37.9517 25.7647C36.3556 26.9117 33.7841 27.4411 30.2372 27.4411C27.1337 27.4411 24.8282 26.9117 23.2321 25.7647C21.636 24.5294 20.838 22.5882 20.838 19.8529ZM26.6903 14.1176V18.8823C26.6903 20.2941 26.9563 21.1764 27.3997 21.7058C27.8431 22.2353 28.9958 22.4117 30.6806 22.4117C32.188 22.4117 33.2521 22.2353 33.7841 21.7941C34.3161 21.3529 34.5821 20.3823 34.5821 18.9705V14.0294C34.5821 12.6176 34.3161 11.7353 33.7841 11.2941C33.2521 10.8529 32.2767 10.6764 30.6806 10.6764C28.9958 10.6764 27.9317 10.9411 27.3997 11.2941C26.9563 11.7353 26.6903 12.7058 26.6903 14.1176Z" fill="#3B4A95"/>
</g>
<mask id="mask1_76_3719" style="mask-type:luminance" maskUnits="userSpaceOnUse" x="0" y="0" width="191" height="45">
<path d="M191 0H0V45H191V0Z" fill="white"/>
</mask>
<g mask="url(#mask1_76_3719)">
<path d="M43.006 19.8529V13.5C43.006 10.8529 43.7154 8.91172 45.1342 7.67643C46.5529 6.44113 49.3018 5.82349 53.2034 5.82349C56.4842 5.82349 58.7897 6.44113 60.2971 7.67643C61.8046 8.91172 62.5139 10.9411 62.5139 13.7647V19.6764C62.5139 22.5882 61.7159 24.6176 60.1198 25.7647C58.5237 26.9117 55.9522 27.4411 52.4053 27.4411C49.3018 27.4411 46.9963 26.9117 45.4002 25.7647C43.8928 24.5294 43.006 22.5882 43.006 19.8529ZM48.8584 14.1176V18.8823C48.8584 20.2941 49.1244 21.1764 49.5678 21.7058C50.0112 22.2353 51.1639 22.4117 52.8487 22.4117C54.3561 22.4117 55.4202 22.2353 55.9522 21.7941C56.4842 21.3529 56.7502 20.3823 56.7502 18.9705V14.0294C56.7502 12.6176 56.4842 11.7353 55.9522 11.2941C55.4202 10.8529 54.4448 10.6764 52.8487 10.6764C51.1639 10.6764 50.0998 10.9411 49.5678 11.2941C49.1244 11.7353 48.8584 12.7058 48.8584 14.1176Z" fill="#3B4A95"/>
</g>
<mask id="mask2_76_3719" style="mask-type:luminance" maskUnits="userSpaceOnUse" x="0" y="0" width="191" height="45">
<path d="M191 0H0V45H191V0Z" fill="white"/>
</mask>
<g mask="url(#mask2_76_3719)">
<path d="M65.9722 6H71.6472V22.2353H80.5144V27.0882H65.9722V6Z" fill="#3B4A95"/>
</g>
<mask id="mask3_76_3719" style="mask-type:luminance" maskUnits="userSpaceOnUse" x="0" y="0" width="191" height="45">
<path d="M191 0H0V45H191V0Z" fill="white"/>
</mask>
<g mask="url(#mask3_76_3719)">
<path d="M88.0516 20.2941C88.0516 21.2647 88.3176 21.9706 88.6723 22.2353C89.1156 22.5882 90.091 22.6765 91.5985 22.6765C93.1059 22.6765 94.0813 22.5 94.436 22.2353C94.7907 21.9706 95.0567 21.4412 95.0567 20.5588C95.0567 19.6765 94.8793 19.2353 94.5246 18.9706C94.1699 18.7941 93.3719 18.6177 91.9531 18.6177C88.1402 18.5294 85.6574 18.0882 84.416 17.2059C83.1746 16.3235 82.5539 14.6471 82.5539 12.1765C82.5539 9.44119 83.1746 7.67648 84.5047 6.79413C85.8348 6.00001 88.1402 5.55884 91.4211 5.55884C94.8793 5.55884 97.1848 6.00001 98.2489 6.79413C99.3129 7.67648 99.9336 9.17648 99.9336 11.4706V12.353H94.5246C94.436 11.4706 94.2586 10.853 93.9039 10.5882C93.5492 10.3235 92.7512 10.1471 91.5098 10.1471C90.091 10.1471 89.1156 10.2353 88.7609 10.5C88.3176 10.7647 88.1402 11.2941 88.1402 12.0882C88.1402 12.7059 88.3176 13.1471 88.5836 13.4118C88.8496 13.6765 89.559 13.853 90.7117 13.9412C92.9285 14.0294 94.968 14.2059 96.5641 14.4706C98.2489 14.6471 99.4016 15.4412 100.022 16.6765C100.466 17.5588 100.643 18.8824 100.643 20.7353C100.643 23.0294 100.022 24.6177 98.8696 25.5882C97.7168 26.5588 95.234 27.0882 91.5098 27.0882C87.3422 27.0882 84.8594 26.4706 83.884 25.2353C82.9086 24 82.4652 22.2353 82.4652 20.0294H88.0516V20.2941Z" fill="#3B4A95"/>
</g>
<mask id="mask4_76_3719" style="mask-type:luminance" maskUnits="userSpaceOnUse" x="0" y="0" width="191" height="45">
<path d="M191 0H0V45H191V0Z" fill="white"/>
</mask>
<g mask="url(#mask4_76_3719)">
<path d="M103.747 6H108.623V9.70588H103.747V6ZM103.747 12.3529H108.623V27.0882H103.747V12.3529Z" fill="#3B4A95"/>
</g>
<mask id="mask5_76_3719" style="mask-type:luminance" maskUnits="userSpaceOnUse" x="0" y="0" width="191" height="45">
<path d="M191 0H0V45H191V0Z" fill="white"/>
</mask>
<g mask="url(#mask5_76_3719)">
<path d="M111.993 27.0882V6H123.077C125.915 6 127.954 6.61765 129.373 7.85294C130.703 9.08823 131.412 11.1176 131.412 13.9412V18.8824C131.412 21.7941 130.792 24 129.55 25.2353C128.309 26.5588 126.269 27.1765 123.52 27.1765H111.993V27.0882ZM117.668 22.2353H122.545C123.432 22.2353 124.23 21.9706 124.762 21.4412C125.294 20.9118 125.56 19.9412 125.56 18.4412V14.2941C125.56 13.0588 125.383 12.1765 124.939 11.6471C124.584 11.2059 123.786 10.9412 122.545 10.9412H117.668V22.2353Z" fill="#3B4A95"/>
</g>
<mask id="mask6_76_3719" style="mask-type:luminance" maskUnits="userSpaceOnUse" x="0" y="0" width="191" height="45">
<path d="M191 0H0V45H191V0Z" fill="white"/>
</mask>
<g mask="url(#mask6_76_3719)">
<path d="M21.0153 31.4119H19.5079V38.9119H21.0153V31.4119Z" fill="#3B4A95"/>
</g>
<mask id="mask7_76_3719" style="mask-type:luminance" maskUnits="userSpaceOnUse" x="0" y="0" width="191" height="45">
<path d="M191 0H0V45H191V0Z" fill="white"/>
</mask>
<g mask="url(#mask7_76_3719)">
<path d="M24.8282 31.4119L27.3997 36.1766L27.7544 37.1472H27.8431L27.7544 35.8236V31.4119H29.3505V38.9119H27.311L24.7395 34.0589L24.3849 33.1766H24.2962L24.3849 34.5001V38.9119H22.7888V31.4119H24.8282Z" fill="#3B4A95"/>
</g>
<mask id="mask8_76_3719" style="mask-type:luminance" maskUnits="userSpaceOnUse" x="0" y="0" width="191" height="45">
<path d="M191 0H0V45H191V0Z" fill="white"/>
</mask>
<g mask="url(#mask8_76_3719)">
<path d="M36.3556 31.4119V32.7354H34.1388V38.9119H32.6314V32.7354H30.5032V31.4119H36.3556Z" fill="#3B4A95"/>
</g>
<mask id="mask9_76_3719" style="mask-type:luminance" maskUnits="userSpaceOnUse" x="0" y="0" width="191" height="45">
<path d="M191 0H0V45H191V0Z" fill="white"/>
</mask>
<g mask="url(#mask9_76_3719)">
<path d="M42.0306 31.4119V32.7354H39.0158V34.4119H41.7646V35.6472H39.0158V37.5883H42.0306V38.9119H37.5084V31.4119H42.0306Z" fill="#3B4A95"/>
</g>
<mask id="mask10_76_3719" style="mask-type:luminance" maskUnits="userSpaceOnUse" x="0" y="0" width="191" height="45">
<path d="M191 0H0V45H191V0Z" fill="white"/>
</mask>
<g mask="url(#mask10_76_3719)">
<path d="M45.0455 31.4119V37.6766H48.0604V38.9119H43.5381V31.4119H45.0455Z" fill="#3B4A95"/>
</g>
<mask id="mask11_76_3719" style="mask-type:luminance" maskUnits="userSpaceOnUse" x="0" y="0" width="191" height="45">
<path d="M191 0H0V45H191V0Z" fill="white"/>
</mask>
<g mask="url(#mask11_76_3719)">
<path d="M50.8092 31.4119V37.6766H53.824V38.9119H49.3018V31.4119H50.8092Z" fill="#3B4A95"/>
</g>
<mask id="mask12_76_3719" style="mask-type:luminance" maskUnits="userSpaceOnUse" x="0" y="0" width="191" height="45">
<path d="M191 0H0V45H191V0Z" fill="white"/>
</mask>
<g mask="url(#mask12_76_3719)">
<path d="M56.5729 31.4119H55.0654V38.9119H56.5729V31.4119Z" fill="#3B4A95"/>
</g>
<mask id="mask13_76_3719" style="mask-type:luminance" maskUnits="userSpaceOnUse" x="0" y="0" width="191" height="45">
<path d="M191 0H0V45H191V0Z" fill="white"/>
</mask>
<g mask="url(#mask13_76_3719)">
<path d="M64.2874 33.0001C64.11 32.9119 64.0214 32.9119 63.844 32.8236C63.6667 32.7354 63.578 32.7354 63.4007 32.7354C63.2233 32.6472 63.046 32.6472 62.78 32.6472C62.5139 32.6472 62.3366 32.6472 62.1593 32.6472C61.3612 32.6472 60.7405 32.9119 60.2971 33.353C59.8538 33.8825 59.6764 34.5001 59.6764 35.206C59.6764 35.9119 59.8538 36.5295 60.2971 37.0589C60.7405 37.5883 61.3612 37.7648 62.1593 37.7648C62.3366 37.7648 62.5139 37.7648 62.6026 37.7648C62.78 37.7648 62.8686 37.7648 63.046 37.6766H63.1347H63.2233V35.9119H61.7159V34.7648H64.7308V38.7354C64.5534 38.7354 64.3761 38.8236 64.2874 38.8236C64.11 38.8236 63.9327 38.9119 63.7554 38.9119C63.4893 39.0001 63.2233 39.0001 62.8686 39.0001C62.6026 39.0001 62.3366 39.0001 62.0706 39.0001C60.8292 39.0001 59.7651 38.6472 59.1444 37.9413C58.435 37.2354 58.169 36.353 58.169 35.206C58.169 33.8825 58.6124 32.9119 59.4104 32.2942C60.2085 31.6766 61.1839 31.4119 62.3366 31.4119C62.6026 31.4119 62.9573 31.4119 63.1347 31.4119C63.4007 31.4119 63.6667 31.5001 63.9327 31.5001C64.0214 31.5001 64.11 31.5883 64.1987 31.5883C64.2874 31.5883 64.3761 31.6766 64.4647 31.6766L64.2874 33.0001Z" fill="#3B4A95"/>
</g>
<mask id="mask14_76_3719" style="mask-type:luminance" maskUnits="userSpaceOnUse" x="0" y="0" width="191" height="45">
<path d="M191 0H0V45H191V0Z" fill="white"/>
</mask>
<g mask="url(#mask14_76_3719)">
<path d="M70.8491 31.4119V32.7354H67.923V34.4119H70.5831V35.6472H67.923V37.5883H70.8491V38.9119H66.4155V31.4119H70.8491Z" fill="#3B4A95"/>
</g>
<mask id="mask15_76_3719" style="mask-type:luminance" maskUnits="userSpaceOnUse" x="0" y="0" width="191" height="45">
<path d="M191 0H0V45H191V0Z" fill="white"/>
</mask>
<g mask="url(#mask15_76_3719)">
<path d="M74.396 31.4119L76.9675 36.1766L77.4108 37.1472V35.8236V31.4119H78.9183V38.9119H76.9675L74.3073 34.0589L73.9526 33.1766V34.5001V38.9119H72.4452V31.4119H74.396Z" fill="#3B4A95"/>
</g>
<mask id="mask16_76_3719" style="mask-type:luminance" maskUnits="userSpaceOnUse" x="0" y="0" width="191" height="45">
<path d="M191 0H0V45H191V0Z" fill="white"/>
</mask>
<g mask="url(#mask16_76_3719)">
<path d="M85.9234 31.4119V32.7354H83.7953V38.9119H82.2879V32.7354H80.071V31.4119H85.9234Z" fill="#3B4A95"/>
</g>
<mask id="mask17_76_3719" style="mask-type:luminance" maskUnits="userSpaceOnUse" x="0" y="0" width="191" height="45">
<path d="M191 0H0V45H191V0Z" fill="white"/>
</mask>
<g mask="url(#mask17_76_3719)">
<path d="M91.1551 37.3236C91.3324 37.4118 91.4211 37.4118 91.5984 37.5001C91.7758 37.5883 91.9531 37.5883 92.0418 37.6765C92.2191 37.6765 92.3965 37.7648 92.4851 37.7648C92.6625 37.7648 92.7512 37.7648 92.9285 37.7648C93.2832 37.7648 93.6379 37.6765 93.8152 37.5001C93.9926 37.3236 94.1699 37.1471 94.1699 36.8824C94.1699 36.6177 94.0812 36.4412 93.9039 36.2648C93.7266 36.0883 93.5492 36.0001 93.2832 35.8236C93.1945 35.7353 93.1058 35.7354 92.9285 35.6471C92.8398 35.5589 92.6625 35.5589 92.5738 35.4706C92.5738 35.4706 92.4851 35.4706 92.4851 35.3824C92.4851 35.3824 92.3965 35.3824 92.3965 35.2942C91.9531 35.0295 91.5984 34.7648 91.3324 34.5001C91.0664 34.2353 90.889 33.7942 90.889 33.353C90.889 33.2648 90.889 33.0883 90.889 32.9118C90.889 32.7353 90.9777 32.5589 91.0664 32.3824C91.2437 32.1177 91.4211 31.853 91.7758 31.5883C92.1304 31.3236 92.5738 31.2354 93.2832 31.2354C93.6379 31.2354 93.9926 31.2354 94.2586 31.3236C94.5246 31.3236 94.7906 31.4118 95.0566 31.5001C95.1453 31.5001 95.234 31.5001 95.3227 31.5883C95.4113 31.5883 95.4113 31.5883 95.5 31.6765L95.3227 32.9118C95.1453 32.8236 95.0566 32.8236 94.8793 32.7353C94.7019 32.6471 94.6133 32.6471 94.4359 32.6471C94.2586 32.6471 94.1699 32.5589 94.0812 32.5589C93.9926 32.5589 93.8152 32.5589 93.7265 32.5589C93.3719 32.5589 93.1945 32.6471 93.0172 32.7353C92.8398 32.8236 92.7512 32.9118 92.6625 33.0883C92.6625 33.1765 92.5738 33.1765 92.5738 33.2648C92.5738 33.353 92.5738 33.353 92.5738 33.4412C92.5738 33.7059 92.6625 33.8824 92.7512 34.0589C92.9285 34.2353 93.0172 34.3236 93.1945 34.4118C93.2832 34.4118 93.2832 34.5001 93.3719 34.5001C93.4605 34.5001 93.4605 34.5001 93.5492 34.5883C94.0812 34.853 94.6133 35.1177 95.0566 35.3824C95.5 35.7353 95.6773 36.2648 95.6773 36.9706V37.0589V37.1471C95.6773 37.6765 95.4113 38.1177 94.968 38.5589C94.5246 39.0001 93.8152 39.1765 92.8398 39.1765C92.4851 39.1765 92.1304 39.1765 91.7758 39.0883C91.4211 39.0001 91.1551 38.9118 90.889 38.8236L91.1551 37.3236Z" fill="#3B4A95"/>
</g>
<mask id="mask18_76_3719" style="mask-type:luminance" maskUnits="userSpaceOnUse" x="0" y="0" width="191" height="45">
<path d="M191 0H0V45H191V0Z" fill="white"/>
</mask>
<g mask="url(#mask18_76_3719)">
<path d="M98.3375 31.4119L99.9336 34.0589L100.2 34.5883L100.466 34.0589L101.973 31.4119H103.569L100.909 35.9119V38.9119H99.4016V35.8236L96.6527 31.4119H98.3375Z" fill="#3B4A95"/>
</g>
<mask id="mask19_76_3719" style="mask-type:luminance" maskUnits="userSpaceOnUse" x="0" y="0" width="191" height="45">
<path d="M191 0H0V45H191V0Z" fill="white"/>
</mask>
<g mask="url(#mask19_76_3719)">
<path d="M104.633 37.3236C104.811 37.4118 104.899 37.4118 105.077 37.5001C105.254 37.5883 105.431 37.5883 105.52 37.6765C105.697 37.6765 105.875 37.7648 105.963 37.7648C106.141 37.7648 106.229 37.7648 106.407 37.7648C106.761 37.7648 107.116 37.6765 107.293 37.5001C107.471 37.3236 107.648 37.1471 107.648 36.8824C107.648 36.6177 107.559 36.4412 107.382 36.2648C107.205 36.0883 107.027 36.0001 106.761 35.8236C106.673 35.7353 106.584 35.7354 106.407 35.6471C106.318 35.5589 106.141 35.5589 106.052 35.4706C106.052 35.4706 105.963 35.4706 105.963 35.3824C105.963 35.3824 105.875 35.3824 105.875 35.2942C105.431 35.0295 105.077 34.7648 104.811 34.5001C104.545 34.2353 104.367 33.7942 104.367 33.353C104.367 33.2648 104.367 33.0883 104.367 32.9118C104.367 32.7353 104.456 32.5589 104.545 32.3824C104.722 32.1177 104.899 31.853 105.254 31.5883C105.609 31.3236 106.052 31.2354 106.761 31.2354C107.116 31.2354 107.471 31.2354 107.737 31.3236C108.003 31.3236 108.269 31.4118 108.535 31.5001C108.623 31.5001 108.712 31.5001 108.801 31.5883C108.89 31.5883 108.89 31.5883 108.978 31.6765L108.801 32.9118C108.623 32.8236 108.535 32.8236 108.357 32.7353C108.18 32.6471 108.091 32.6471 107.914 32.6471C107.737 32.6471 107.648 32.5589 107.559 32.5589C107.471 32.5589 107.293 32.5589 107.205 32.5589C106.85 32.5589 106.673 32.6471 106.495 32.7353C106.318 32.8236 106.229 32.9118 106.141 33.0883C106.141 33.1765 106.052 33.1765 106.052 33.2648C106.052 33.353 106.052 33.353 106.052 33.4412C106.052 33.7059 106.141 33.8824 106.229 34.0589C106.407 34.2353 106.495 34.3236 106.673 34.4118C106.761 34.4118 106.761 34.5001 106.85 34.5001C106.939 34.5001 106.939 34.5001 107.027 34.5883C107.559 34.853 108.091 35.1177 108.535 35.3824C108.978 35.7353 109.156 36.2648 109.156 36.9706V37.0589V37.1471C109.156 37.6765 108.89 38.1177 108.446 38.5589C108.003 39.0001 107.293 39.1765 106.318 39.1765C105.963 39.1765 105.609 39.1765 105.254 39.0883C104.899 39.0001 104.633 38.9118 104.367 38.8236L104.633 37.3236Z" fill="#3B4A95"/>
</g>
<mask id="mask20_76_3719" style="mask-type:luminance" maskUnits="userSpaceOnUse" x="0" y="0" width="191" height="45">
<path d="M191 0H0V45H191V0Z" fill="white"/>
</mask>
<g mask="url(#mask20_76_3719)">
<path d="M116.072 31.4119V32.7354H113.944V38.9119H112.436V32.7354H110.22V31.4119H116.072Z" fill="#3B4A95"/>
</g>
<mask id="mask21_76_3719" style="mask-type:luminance" maskUnits="userSpaceOnUse" x="0" y="0" width="191" height="45">
<path d="M191 0H0V45H191V0Z" fill="white"/>
</mask>
<g mask="url(#mask21_76_3719)">
<path d="M121.747 31.4119V32.7354H118.821V34.4119H121.481V35.6472H118.821V37.5883H121.747V38.9119H117.313V31.4119H121.747Z" fill="#3B4A95"/>
</g>
<mask id="mask22_76_3719" style="mask-type:luminance" maskUnits="userSpaceOnUse" x="0" y="0" width="191" height="45">
<path d="M191 0H0V45H191V0Z" fill="white"/>
</mask>
<g mask="url(#mask22_76_3719)">
<path d="M126.979 38.9119L125.205 33.5295L124.851 32.4707V33.6177V38.9119H123.343V31.4119H125.915L127.422 35.8236L127.688 37.0589H127.777L128.043 35.8236L129.55 31.4119H132.122V38.9119H130.614V33.6177V32.4707L130.26 33.5295L128.486 38.9119H126.979Z" fill="#3B4A95"/>
</g>
</g>
<defs>
<clipPath id="clip0_76_3719">
<rect width="191" height="45" fill="white"/>
</clipPath>
</defs>
</svg>
