<svg width="145" height="143" viewBox="0 0 145 143" fill="none" xmlns="http://www.w3.org/2000/svg">
<path d="M136.329 72.5C141.118 72.5 145.054 68.6041 144.482 63.8495C143.18 53.0134 139.442 42.5717 133.505 33.3254C126 21.6379 115.295 12.3523 102.665 6.57325C90.0344 0.794206 76.0097 -1.23504 62.2592 0.726909C48.5088 2.68886 35.6113 8.55944 25.1011 17.6402C14.5909 26.7211 6.91046 38.6299 2.97342 51.9499C-0.963613 65.27 -0.991506 79.4407 2.89306 92.7762C6.77762 106.112 14.4111 118.051 24.8855 127.173C33.172 134.389 42.9607 139.603 53.493 142.464C58.1144 143.72 62.5402 140.391 63.2353 135.653C63.9304 130.915 60.6195 126.576 56.0486 125.148C48.7934 122.88 42.0539 119.128 36.2748 114.095C28.3059 107.155 22.4983 98.0718 19.5429 87.9262C16.5875 77.7805 16.6088 66.9994 19.6041 56.8655C22.5994 46.7315 28.4427 37.6713 36.4388 30.7626C44.435 23.8539 54.2474 19.3876 64.7088 17.8949C75.1702 16.4022 85.8402 17.9461 95.4494 22.3428C105.059 26.7395 113.203 33.804 118.913 42.6959C123.054 49.1444 125.788 56.3571 126.978 63.8646C127.728 68.5943 131.54 72.5 136.329 72.5Z" fill="white"/>
</svg>
