<svg width="158" height="40" viewBox="0 0 158 40" fill="none" xmlns="http://www.w3.org/2000/svg">
<g clip-path="url(#clip0_76_3850)">
<path d="M12.9683 30.4133L15.3957 36.2579H20.8949L25.4417 25.2129L12.9683 30.4133Z" fill="#006DA6"/>
<path d="M12.9683 30.4133L15.3957 36.2579H20.8949L25.4417 25.2129L12.9683 30.4133Z" fill="#006CA6"/>
<path d="M18.0239 28.3267L29.0502 32.8875L32.9388 28.9989L30.4834 23.1169L18.0239 28.3267Z" fill="white"/>
<path d="M29.1016 3.44971L0 15.2789V20.7314L10.8256 25.2456L15.4051 36.2578H20.8995L32.8548 7.21228L29.1016 3.44971ZM18.164 26.7907C16.3976 26.7907 14.6709 26.2672 13.2019 25.2862C11.733 24.3052 10.5878 22.9109 9.91097 21.2793C9.23416 19.6478 9.05613 17.8522 9.39938 16.1195C9.74262 14.3868 10.5917 12.7947 11.8394 11.5444C13.0872 10.2941 14.6775 9.44167 16.4094 9.09481C18.1414 8.74794 19.9373 8.92222 21.5703 9.59563C23.2033 10.269 24.6 11.4113 25.584 12.8782C26.5681 14.3451 27.0952 16.0707 27.0989 17.8371C27.0989 19.0105 26.8678 20.1723 26.4188 21.2564C25.9698 22.3404 25.3116 23.3254 24.4819 24.1551C23.6523 24.9848 22.6673 25.6429 21.5832 26.0919C20.4992 26.5409 19.3373 26.7721 18.164 26.7721V26.7907Z" fill="#07A9B3"/>
<path d="M69.4395 30.1286H64.1598L62.5539 25.7171H52.1438L50.4726 30.1286H45.3376L54.674 6.56348H59.809L69.4395 30.1286ZM60.9761 21.7258L57.1948 12.0439L53.633 21.7258H60.9761Z" fill="#007BB8"/>
<path d="M79.9663 13.071V16.6749H76.8153V23.5372C76.7862 24.3506 76.8174 25.1651 76.9087 25.974C76.9714 26.2076 77.1175 26.4102 77.3195 26.5435C77.5478 26.6977 77.8189 26.7761 78.0944 26.7675C78.736 26.7232 79.3663 26.5767 79.9617 26.3334L80.3585 29.8392C79.2015 30.3032 77.9636 30.5317 76.7173 30.5114C75.9495 30.523 75.1869 30.385 74.4719 30.1053C73.892 29.8947 73.3826 29.526 73.0014 29.041C72.6544 28.5116 72.4339 27.9094 72.3572 27.281C72.2284 26.2266 72.1784 25.1639 72.2078 24.102V16.6609H70.0931V13.071H72.2078V8.28613H76.8293V13.071H79.9663Z" fill="#007BB8"/>
<path d="M93.6955 26.6368C92.9917 27.0193 92.1931 27.1926 91.3941 27.1363C90.8759 27.1504 90.3603 27.0588 89.8787 26.867C89.3971 26.6751 88.9597 26.3872 88.5932 26.0206C87.7761 25.1751 87.312 24.0499 87.2954 22.8742H99.1666C99.232 19.4151 98.3777 16.8476 96.8792 15.167C95.3807 13.4865 93.336 12.6555 90.7452 12.6555C89.6762 12.6256 88.6131 12.8242 87.6269 13.2379C86.6407 13.6517 85.7542 14.2712 85.0266 15.055C83.375 16.867 82.4957 19.252 82.5758 21.7025C82.5535 23.8262 83.2274 25.8987 84.4945 27.6031C85.9478 29.5451 88.1886 30.5145 91.2167 30.5114C93.126 30.5114 94.7972 30.1473 96.0716 29.2837C96.7467 28.8271 97.3507 28.2734 97.8642 27.6405L94.8626 25.6751C94.5262 26.047 94.1321 26.3623 93.6955 26.6088M88.5278 17.179C88.8389 16.8442 89.2148 16.576 89.6326 16.3907C90.0504 16.2055 90.5016 16.107 90.9586 16.1014C91.4156 16.0957 91.8691 16.1829 92.2914 16.3577C92.7137 16.5325 93.0961 16.7913 93.4154 17.1183C94.1697 17.9284 94.5885 18.9945 94.5871 20.1013H87.3748C87.3667 19.0148 87.78 17.9674 88.5278 17.179Z" fill="#007BB8"/>
<path d="M114.077 30.1287V27.5705C113.435 28.4883 112.573 29.2299 111.57 29.7272C110.558 30.2441 109.438 30.5129 108.302 30.5115C107.207 30.5285 106.125 30.2701 105.156 29.7599C104.276 29.2913 103.577 28.5443 103.167 27.6358C102.701 26.4336 102.489 25.1475 102.546 23.8593V13.071H107.149V20.9136C107.149 23.3193 107.235 24.7913 107.406 25.3297C107.553 25.8443 107.869 26.2946 108.302 26.6088C108.807 26.9391 109.403 27.1024 110.006 27.0757C110.759 27.085 111.497 26.8634 112.121 26.4408C112.705 26.0655 113.154 25.5124 113.4 24.8629C113.633 24.2374 113.745 22.7015 113.745 20.2601V13.071H118.353V30.1287H114.077Z" fill="#007BB8"/>
<path d="M134.061 25.4837C133.679 25.91 133.211 26.251 132.689 26.4845C132.166 26.7179 131.6 26.8385 131.027 26.8385C130.455 26.8385 129.888 26.7179 129.366 26.4845C128.843 26.251 128.375 25.91 127.993 25.4837C127.171 24.5828 126.765 23.285 126.765 21.5951C126.765 19.9052 127.171 18.6028 127.993 17.7018C128.37 17.2659 128.837 16.9179 129.363 16.6824C129.889 16.4468 130.46 16.3295 131.036 16.3387C132.199 16.3387 133.273 17.095 134.071 17.9352L137.245 15.5498C135.07 13.5565 133.595 12.6695 131.013 12.6695C129.401 12.6487 127.809 13.0306 126.382 13.7805C125.014 14.5043 123.898 15.6258 123.18 16.9969C122.442 18.3303 122.051 19.8283 122.045 21.3524C121.992 23.0853 122.383 24.803 123.18 26.3427C123.93 27.7066 125.096 28.7957 126.508 29.4517C127.928 30.1532 129.49 30.516 131.074 30.5114C133.655 30.5114 135.355 29.5777 137.245 27.5891L134.136 25.4184C134.118 25.4392 134.101 25.4611 134.085 25.4837" fill="#007BB8"/>
<path d="M139.64 21.3524C139.647 19.8289 140.035 18.3315 140.77 16.9969C141.489 15.6254 142.607 14.5041 143.977 13.7805C145.404 13.032 146.996 12.6518 148.608 12.6742C149.801 12.6311 150.99 12.8316 152.104 13.2634C153.217 13.6952 154.23 14.3492 155.082 15.1857C155.915 16.0171 156.568 17.0101 157.003 18.1035C157.437 19.197 157.643 20.3677 157.608 21.5438C157.644 22.7312 157.437 23.9135 156.999 25.0179C156.561 26.1223 155.902 27.1254 155.062 27.9654C154.222 28.8055 153.219 29.4647 152.114 29.9026C151.01 30.3404 149.828 30.5476 148.64 30.5114C147.057 30.516 145.494 30.1532 144.075 29.4517C142.672 28.7908 141.515 27.7024 140.77 26.3427C139.976 24.8018 139.588 23.0847 139.64 21.3524ZM144.36 21.5951C144.36 23.285 144.77 24.5812 145.592 25.4837C145.974 25.9107 146.441 26.2523 146.964 26.4861C147.487 26.72 148.053 26.8409 148.626 26.8409C149.199 26.8409 149.765 26.72 150.288 26.4861C150.811 26.2523 151.279 25.9107 151.661 25.4837C152.479 24.5812 152.887 23.2741 152.884 21.5624C152.881 19.8508 152.473 18.5639 151.661 17.7018C151.279 17.2749 150.811 16.9333 150.288 16.6994C149.765 16.4656 149.199 16.3447 148.626 16.3447C148.053 16.3447 147.487 16.4656 146.964 16.6994C146.441 16.9333 145.974 17.2749 145.592 17.7018C144.77 18.6012 144.36 19.899 144.36 21.5951Z" fill="#007BB8"/>
<g opacity="0.96">
<path d="M7.32439 3.17432L3.47312 7.03025L7.97794 17.9538L3.37976 28.9008L7.26837 32.7894L36.2626 20.7034V15.405L7.32439 3.17432ZM18.206 26.7581C16.4376 26.7627 14.7077 26.2425 13.2352 25.2633C11.7626 24.2841 10.6138 22.89 9.93409 21.2575C9.25439 19.625 9.07438 17.8275 9.41688 16.0927C9.75937 14.3578 10.609 12.7636 11.8581 11.5118C13.1072 10.2601 14.6996 9.40718 16.4338 9.06105C18.1679 8.71493 19.9658 8.89117 21.5997 9.56746C23.2336 10.2437 24.6301 11.3897 25.6124 12.8601C26.5947 14.3306 27.1185 16.0595 27.1176 17.8278C27.1176 20.193 26.1793 22.4617 24.5086 24.1359C22.8378 25.8101 20.5712 26.7531 18.206 26.7581Z" fill="#007BB8"/>
</g>
<g opacity="0.85">
<path d="M20.8529 0H15.5358L3.32843 28.9429L7.1797 32.7941L18.0286 28.336L29.0502 32.8875L32.9388 28.9989L20.8529 0ZM18.164 26.7721C16.3968 26.7721 14.6693 26.2481 13.2 25.2663C11.7306 24.2846 10.5854 22.8891 9.90917 21.2565C9.23291 19.6238 9.05596 17.8273 9.40072 16.0941C9.74548 14.3609 10.5964 12.7688 11.846 11.5192C13.0956 10.2697 14.6876 9.4187 16.4209 9.07395C18.1541 8.72919 19.9506 8.90613 21.5832 9.58239C23.2159 10.2587 24.6113 11.4039 25.5931 12.8732C26.5749 14.3426 27.0989 16.07 27.0989 17.8372C27.0989 19.0106 26.8678 20.1724 26.4188 21.2565C25.9698 22.3405 25.3116 23.3255 24.4819 24.1552C23.6523 24.9848 22.6673 25.643 21.5832 26.092C20.4992 26.541 19.3373 26.7721 18.164 26.7721Z" fill="#00AABD"/>
</g>
<path d="M36.8788 38.172C36.4347 38.3527 35.9576 38.4385 35.4784 38.4241C33.9705 38.4241 32.8455 37.4904 32.8455 35.7118C32.8245 35.3385 32.8826 34.965 33.016 34.6157C33.1493 34.2663 33.3549 33.9491 33.6193 33.6847C33.8837 33.4203 34.2009 33.2147 34.5502 33.0814C34.8996 32.9481 35.2731 32.89 35.6464 32.9109C36.0692 32.8987 36.4897 32.9784 36.8788 33.1443L36.7014 33.7092C36.3665 33.5549 36.0011 33.4783 35.6324 33.4851C34.3767 33.4851 33.5457 34.288 33.5457 35.6932C33.5457 37.0096 34.2973 37.8405 35.5951 37.8405C35.9843 37.847 36.3707 37.7723 36.7294 37.6211L36.8788 38.172Z" fill="#006AA3"/>
<path d="M40.7254 35.8285H38.6527V37.7565H40.9868V38.3353H37.9572V32.9902H40.8514V33.5691H38.6527V35.259H40.7254V35.8285Z" fill="#006AA3"/>
<path d="M42.0839 33.0509C42.524 32.9818 42.9688 32.9475 43.4143 32.9482C43.9542 32.9142 44.4877 33.0804 44.9128 33.415C45.0656 33.558 45.1863 33.7318 45.2668 33.925C45.3473 34.1181 45.3857 34.3262 45.3796 34.5354C45.3904 34.7438 45.3596 34.9522 45.2891 35.1485C45.2186 35.3449 45.1097 35.5252 44.9688 35.6791C44.6654 35.9234 44.3121 36.0981 43.9338 36.1908C43.5555 36.2836 43.1614 36.2922 42.7794 36.216V38.3587H42.0839V33.0509ZM42.7748 35.6324C42.9617 35.6736 43.1529 35.6924 43.3443 35.6884C44.1752 35.6884 44.6841 35.273 44.6841 34.5541C44.6841 33.8352 44.1752 33.4991 43.4236 33.4991C43.2062 33.4939 42.9887 33.5111 42.7748 33.5504V35.6324Z" fill="#006AA3"/>
<path d="M46.5186 33.0696C46.9335 32.9859 47.3559 32.9453 47.7791 32.9483C48.2974 32.8995 48.8159 33.0387 49.2402 33.3404C49.3879 33.4464 49.5077 33.5869 49.589 33.7495C49.6703 33.9122 49.7108 34.0922 49.707 34.274C49.7051 34.5473 49.6143 34.8126 49.4484 35.0299C49.2825 35.2471 49.0505 35.4045 48.7874 35.4784C49.0972 35.5371 49.3769 35.7022 49.578 35.9451C49.7791 36.188 49.8892 36.4935 49.8891 36.8089C49.8933 37.0109 49.8538 37.2115 49.7733 37.3968C49.6927 37.5822 49.5729 37.7479 49.4223 37.8825C49.0581 38.2233 48.4513 38.382 47.555 38.382C47.1976 38.3846 46.8404 38.3628 46.486 38.3167L46.5186 33.0696ZM47.2095 35.259H47.8351C48.5586 35.259 48.9881 34.8716 48.9881 34.3534C48.9881 33.7372 48.5213 33.4804 47.8211 33.4804C47.6162 33.4753 47.4113 33.4909 47.2095 33.5271V35.259ZM47.2095 37.8125C47.4013 37.8384 47.5949 37.8493 47.7884 37.8452C48.5026 37.8452 49.1608 37.5838 49.1608 36.8042C49.1608 36.0246 48.5353 35.7725 47.7604 35.7725H47.1909L47.2095 37.8125Z" fill="#006AA3"/>
<path d="M51.6863 32.9903V35.245C51.6863 36.0853 51.6863 36.7902 51.621 37.5044C51.9178 36.8977 52.2465 36.3071 52.606 35.7352L54.3379 32.981H55.0241V38.3354H54.3752V36.062C54.3752 35.1937 54.3752 34.5588 54.4406 33.8866C54.1479 34.5048 53.8158 35.1036 53.4462 35.6792L51.7704 38.3447H51.0328V32.9903H51.6863Z" fill="#006AA3"/>
<path d="M60.2198 38.172C59.7758 38.3531 59.2987 38.439 58.8194 38.4241C57.3115 38.4241 56.1865 37.4904 56.1865 35.7118C56.1655 35.3385 56.2236 34.965 56.357 34.6157C56.4903 34.2663 56.6959 33.9491 56.9603 33.6847C57.2247 33.4203 57.5419 33.2147 57.8912 33.0814C58.2406 32.9481 58.6141 32.89 58.9874 32.9109C59.4103 32.8987 59.8307 32.9784 60.2198 33.1443L60.0471 33.7092C59.7104 33.5554 59.3435 33.4788 58.9734 33.4851C57.7223 33.4851 56.8867 34.288 56.8867 35.6932C56.8867 37.0096 57.643 37.8405 58.9361 37.8405C59.3254 37.8479 59.7119 37.7731 60.0704 37.6211L60.2198 38.172Z" fill="#006AA3"/>
<path d="M60.8127 39.3204C61.0196 38.6992 61.1758 38.0622 61.2795 37.4157L62.0871 37.3457C61.9007 38.0129 61.6457 38.659 61.3262 39.2737L60.8127 39.3204Z" fill="#006AA3"/>
<path d="M65.733 32.9902V35.3617H65.9477L67.7777 32.9902H68.6226L66.5966 35.441C67.4882 35.5624 67.829 36.0993 68.0998 36.8415C68.3052 37.3877 68.4545 37.8825 68.688 38.354H67.9457C67.7607 37.9453 67.6047 37.5242 67.4789 37.0936C67.2315 36.3887 66.9 35.9032 65.9944 35.9032H65.775V38.354H65.0841V32.9902H65.733Z" fill="#006AA3"/>
<path d="M70.4619 36.6548L69.9064 38.3353H69.1921L71.0174 32.9902H71.8437L73.6689 38.3353H72.9267L72.3572 36.6548H70.4619ZM72.2218 36.1133L71.6896 34.5774C71.5729 34.2273 71.4936 33.9099 71.4142 33.6018C71.3348 33.9099 71.2555 34.2413 71.1481 34.5681L70.6206 36.1133H72.2218Z" fill="#006AA3"/>
<path d="M75.3588 32.9902V35.3617H75.5736L77.4035 32.9902H78.2298L76.2085 35.441C77.0954 35.5624 77.4362 36.0993 77.7069 36.8415C77.9123 37.3877 78.0617 37.8825 78.2951 38.354H77.5576C77.3611 37.9469 77.1957 37.5256 77.0627 37.0936C76.8153 36.3887 76.4839 35.9032 75.5782 35.9032H75.3588V38.354H74.6913V32.9902H75.3588Z" fill="#006AA3"/>
<path d="M79.8263 32.9902V35.245C79.8263 36.0853 79.8263 36.7902 79.7656 37.5044H79.7889C80.0797 36.9002 80.4038 36.3126 80.7599 35.7445L82.4871 32.9902H83.178V38.3353H82.5292V36.0619C82.5292 35.1936 82.5292 34.5587 82.5899 33.8865H82.5665C82.2774 34.5057 81.9467 35.1046 81.5769 35.6791L79.901 38.3447H79.1634V32.9902H79.8263Z" fill="#006AA3"/>
<path d="M89.1254 35.9872C89.088 35.245 89.0367 34.3393 89.0367 33.6811C88.8453 34.2973 88.6305 34.9742 88.3644 35.7118L87.4308 38.3073H86.908L86.035 35.7585C85.7829 34.9976 85.5682 34.316 85.4235 33.6811C85.4235 34.344 85.3675 35.2356 85.3208 36.0432L85.1761 38.3353H84.4945L84.868 32.9902H85.7503L86.6606 35.5764C86.8846 36.2346 87.0574 36.8228 87.2021 37.3783C87.3468 36.8368 87.5335 36.2486 87.7716 35.5764L88.7052 32.9902H89.5875L89.919 38.3353H89.2374L89.1254 35.9872Z" fill="#006AA3"/>
<path d="M97.6822 35.609C97.6822 37.439 96.5618 38.4099 95.1987 38.4099C93.8356 38.4099 92.7946 37.3082 92.7946 35.6884C92.7946 33.9891 93.8402 32.8875 95.2687 32.8875C96.6972 32.8875 97.6822 34.0125 97.6822 35.609ZM93.5228 35.6884C93.5228 36.8368 94.1437 37.8638 95.236 37.8638C96.3284 37.8638 96.9493 36.8554 96.9493 35.6417C96.9493 34.568 96.3937 33.457 95.2454 33.457C94.097 33.457 93.5228 34.5447 93.5228 35.6884Z" fill="#006AA3"/>
<path d="M99.4841 32.9902V35.2263H102.07V32.9902H102.766V38.3353H102.07V35.8285H99.4841V38.3353H98.7838V32.9902H99.4841Z" fill="#006AA3"/>
<path d="M109.735 32.9902V37.7751H110.202L110.156 39.6097H109.614L109.567 38.3213H106.197L106.15 39.6097H105.609L105.571 37.8125H105.968C106.182 37.439 106.357 37.0448 106.491 36.6361C106.683 35.9005 106.768 35.1411 106.743 34.3814V33.0276L109.735 32.9902ZM107.401 34.5681C107.422 35.3058 107.331 36.0424 107.131 36.7528C107.017 37.1031 106.872 37.4422 106.696 37.7658H109.059V33.5644H107.369L107.401 34.5681Z" fill="#006AA3"/>
<path d="M115.771 35.609C115.771 37.439 114.651 38.4099 113.288 38.4099C111.925 38.4099 110.884 37.3082 110.884 35.6884C110.884 33.9891 111.929 32.8875 113.358 32.8875C114.786 32.8875 115.771 34.0125 115.771 35.609ZM111.612 35.6884C111.612 36.8368 112.233 37.8638 113.33 37.8638C114.427 37.8638 115.043 36.8554 115.043 35.6417C115.043 34.568 114.488 33.457 113.335 33.457C112.182 33.457 111.631 34.5447 111.631 35.6884H111.612Z" fill="#006AA3"/>
<path d="M120.384 32.9902V38.3353H119.688V33.5691H117.923V35.189C117.923 36.3467 117.872 37.6398 117.125 38.1486C116.877 38.304 116.592 38.391 116.299 38.4007L116.21 37.8452C116.422 37.8075 116.619 37.7085 116.775 37.5604C117.205 37.1449 117.242 36.0993 117.242 35.2263V32.9902H120.384Z" fill="#006AA3"/>
<path d="M122.172 32.9902L123.829 35.3617H124.043V32.9902H124.711V35.3617H124.926L126.583 32.9902H127.386L125.486 35.4504C126.331 35.5297 126.672 36.0619 126.942 36.8228C127.091 37.3356 127.265 37.8404 127.465 38.3353H126.756C126.583 37.9287 126.438 37.5107 126.322 37.0843C126.069 36.3513 125.803 35.8845 124.949 35.8845H124.711V38.3353H124.043V35.8845H123.796C122.942 35.8845 122.68 36.3513 122.424 37.0843C122.288 37.4624 122.162 37.9805 121.989 38.3353H121.285C121.496 37.8444 121.681 37.3426 121.84 36.8322C122.111 36.0666 122.442 35.5531 123.278 35.4317L121.373 32.9902H122.172Z" fill="#006AA3"/>
<path d="M131.13 35.8285H129.062V37.7565H131.396V38.3353H128.376V32.9902H131.27V33.5691H129.076V35.259H131.144L131.13 35.8285Z" fill="#006AA3"/>
<path d="M133.179 32.9902V35.2263H135.765V32.9902H136.466V38.3353H135.765V35.8285H133.179V38.3353H132.479V32.9902H133.179Z" fill="#006AA3"/>
<path d="M142.772 32.9902V33.5691H140.462V35.0116C140.681 34.9833 140.903 34.9692 141.124 34.9696C141.608 34.9549 142.086 35.0796 142.502 35.329C142.72 35.4655 142.899 35.6575 143.019 35.8854C143.14 36.1134 143.198 36.3691 143.188 36.6268C143.192 36.8427 143.154 37.0573 143.073 37.2579C142.993 37.4584 142.873 37.6407 142.721 37.7938C142.195 38.2197 141.529 38.4329 140.854 38.3913C140.493 38.3944 140.133 38.3726 139.775 38.326V32.9902H142.772ZM140.462 37.8125C140.655 37.8416 140.85 37.8541 141.045 37.8498C141.46 37.8661 141.864 37.7185 142.17 37.439C142.368 37.2251 142.474 36.9416 142.464 36.6501C142.471 36.4794 142.434 36.3099 142.357 36.1572C142.28 36.0046 142.166 35.8739 142.025 35.7772C141.722 35.5899 141.369 35.4972 141.012 35.5111C140.858 35.5111 140.639 35.5111 140.462 35.5391V37.8125Z" fill="#006AA3"/>
<path d="M144.985 32.9902V35.0116C145.198 34.9793 145.414 34.9637 145.629 34.9649C146.726 34.9649 147.683 35.4317 147.683 36.6361C147.7 37.0535 147.553 37.4609 147.272 37.7705C146.746 38.2241 146.061 38.4507 145.368 38.4007C145.01 38.4035 144.653 38.3816 144.299 38.3353V32.9902H144.985ZM144.985 37.8078C145.169 37.8372 145.355 37.8497 145.541 37.8452C146.306 37.8452 146.964 37.4577 146.964 36.6454C146.964 35.8332 146.25 35.5064 145.536 35.5064C145.279 35.5064 145.069 35.5064 144.985 35.5344V37.8078ZM148.981 32.9902V38.3353H148.281V32.9902H148.981Z" fill="#006AA3"/>
<path d="M151.446 33.5784H149.821V32.9902H153.78V33.5784H152.146V38.3353H151.446V33.5784Z" fill="#006AA3"/>
<path d="M155.278 32.9902V35.0116C155.497 34.9868 155.717 34.9744 155.937 34.9742C157.034 34.9742 158 35.441 158 36.6408C158.018 37.0597 157.87 37.4688 157.589 37.7798C157.058 38.2352 156.368 38.4618 155.671 38.41C155.308 38.4128 154.947 38.391 154.588 38.3447V32.9902H155.278ZM155.278 37.8078C155.468 37.8369 155.66 37.8494 155.853 37.8452C156.623 37.8452 157.281 37.481 157.281 36.6548C157.281 35.8285 156.604 35.5064 155.843 35.5064C155.671 35.5064 155.456 35.5064 155.278 35.5344V37.8078Z" fill="#006AA3"/>
</g>
<defs>
<clipPath id="clip0_76_3850">
<rect width="158" height="39.6237" fill="white"/>
</clipPath>
</defs>
</svg>
