<svg width="223" height="357" viewBox="0 0 223 357" fill="none" xmlns="http://www.w3.org/2000/svg">
<g clip-path="url(#clip0_165_2)">
<path d="M222.72 0.28125H0.280273V356.719H222.72V0.28125Z" fill="#2E5985" stroke="white" stroke-width="0.5" stroke-miterlimit="10"/>
<path d="M132.903 69.769H90.4893C89.4552 69.769 88.6169 70.61 88.6169 71.6474V98.4618C88.6169 99.4992 89.4552 100.34 90.4893 100.34H132.903C133.937 100.34 134.775 99.4992 134.775 98.4618V71.6474C134.775 70.61 133.937 69.769 132.903 69.769Z" fill="#237EB0" stroke="white" stroke-width="0.5" stroke-miterlimit="10"/>
<path d="M132.69 71.5349H90.7249V98.5742H132.69V71.5349Z" fill="white" stroke="white" stroke-width="0.5" stroke-miterlimit="10"/>
<path d="M104.302 117.178H119.18C120.827 117.178 122.162 115.838 122.162 114.186V106.571C122.162 104.919 120.827 103.579 119.18 103.579H104.302C102.655 103.579 101.32 104.919 101.32 106.571V114.186C101.32 115.838 102.655 117.178 104.302 117.178Z" fill="#2CB6BF" stroke="white" stroke-width="0.5" stroke-miterlimit="10"/>
<path d="M100.322 104.299C100.477 104.299 100.602 104.173 100.602 104.018C100.602 103.863 100.477 103.737 100.322 103.737C100.167 103.737 100.042 103.863 100.042 104.018C100.042 104.173 100.167 104.299 100.322 104.299Z" stroke="white" stroke-width="0.5" stroke-miterlimit="10"/>
<path d="M100.322 116.739C100.477 116.739 100.602 116.613 100.602 116.458C100.602 116.303 100.477 116.177 100.322 116.177C100.167 116.177 100.042 116.303 100.042 116.458C100.042 116.613 100.167 116.739 100.322 116.739Z" stroke="white" stroke-width="0.5" stroke-miterlimit="10"/>
<path d="M123.082 104.434C123.236 104.434 123.362 104.308 123.362 104.153C123.362 103.998 123.236 103.872 123.082 103.872C122.927 103.872 122.801 103.998 122.801 104.153C122.801 104.308 122.927 104.434 123.082 104.434Z" stroke="white" stroke-width="0.5" stroke-miterlimit="10"/>
<path d="M123.082 116.874C123.236 116.874 123.362 116.748 123.362 116.593C123.362 116.438 123.236 116.312 123.082 116.312C122.927 116.312 122.801 116.438 122.801 116.593C122.801 116.748 122.927 116.874 123.082 116.874Z" stroke="white" stroke-width="0.5" stroke-miterlimit="10"/>
<path d="M98.1021 61.9969H101.634V63.0205H100.456V66.4735H99.2569V63.0205H98.1021V61.9969Z" fill="white"/>
<path d="M102.026 64.9326V63.5829C102.009 63.3565 102.04 63.1291 102.117 62.9157C102.195 62.7024 102.317 62.508 102.475 62.3456C102.985 62.0317 103.583 61.8934 104.179 61.952C104.706 61.908 105.233 62.0469 105.67 62.3456C105.841 62.5114 105.972 62.7139 106.054 62.938C106.135 63.1621 106.165 63.4018 106.141 63.6391V64.8989C106.167 65.1393 106.135 65.3826 106.047 65.6079C105.959 65.8332 105.818 66.0337 105.636 66.1923C105.14 66.4656 104.575 66.5869 104.011 66.541C103.494 66.5766 102.978 66.4551 102.531 66.1923C102.354 66.0371 102.215 65.8421 102.128 65.6232C102.04 65.4042 102.005 65.1676 102.026 64.9326ZM103.259 63.7178V64.7301C103.238 64.9413 103.294 65.1532 103.416 65.3263C103.506 65.4387 103.753 65.4725 104.1 65.4725C104.328 65.5002 104.559 65.457 104.762 65.3488C104.828 65.2636 104.877 65.1661 104.906 65.0619C104.935 64.9577 104.943 64.8487 104.93 64.7414V63.6954C104.944 63.5932 104.936 63.4894 104.907 63.3905C104.878 63.2916 104.829 63.2 104.762 63.1217C104.563 63.0036 104.33 62.956 104.1 62.9868C103.864 62.9673 103.628 63.014 103.416 63.1217C103.289 63.2924 103.233 63.5062 103.259 63.7178Z" fill="white"/>
<path d="M106.679 64.9326V63.5829C106.66 63.3563 106.69 63.1283 106.767 62.9146C106.845 62.7009 106.968 62.5067 107.128 62.3456C107.634 62.0318 108.228 61.8934 108.82 61.952C109.351 61.9099 109.88 62.0486 110.323 62.3456C110.49 62.5138 110.618 62.717 110.697 62.9407C110.777 63.1643 110.806 63.4028 110.783 63.6391V64.8988C110.809 65.1393 110.777 65.3826 110.689 65.6079C110.601 65.8332 110.46 66.0337 110.278 66.1923C109.782 66.4656 109.217 66.5869 108.652 66.541C108.139 66.5771 107.627 66.4555 107.184 66.1923C107.011 66.0339 106.875 65.8384 106.788 65.6203C106.701 65.4022 106.663 65.1671 106.679 64.9326ZM107.912 63.7178V64.7301C107.894 64.9395 107.946 65.149 108.058 65.3263C108.159 65.4387 108.394 65.4725 108.753 65.4725C108.977 65.4978 109.204 65.4547 109.404 65.3488C109.47 65.2636 109.519 65.1661 109.548 65.0619C109.577 64.9577 109.585 64.8487 109.572 64.7414V63.6954C109.586 63.5932 109.578 63.4894 109.549 63.3905C109.52 63.2916 109.47 63.2 109.404 63.1217C109.208 63.0036 108.979 62.9559 108.753 62.9867C108.514 62.9664 108.273 63.0131 108.058 63.1217C107.94 63.2968 107.889 63.5081 107.912 63.7178Z" fill="white"/>
<path d="M111.511 61.9969H112.711V65.4387H114.583V66.4735H111.511V61.9969Z" fill="white"/>
<path d="M116.164 65.0226C116.155 65.0976 116.162 65.1738 116.185 65.2457C116.209 65.3176 116.247 65.3835 116.299 65.4388C116.492 65.5266 116.705 65.5578 116.915 65.5288C117.118 65.5493 117.322 65.5184 117.509 65.4388C117.559 65.3941 117.597 65.338 117.621 65.2753C117.644 65.2127 117.652 65.1453 117.644 65.0789C117.644 64.8989 117.644 64.7977 117.532 64.7414C117.358 64.6866 117.176 64.6638 116.994 64.6739C116.446 64.7143 115.897 64.6095 115.402 64.3703C115.256 64.2367 115.144 64.0699 115.076 63.884C115.007 63.698 114.985 63.4984 115.009 63.3017C114.981 63.0945 115.004 62.8834 115.076 62.6872C115.149 62.491 115.268 62.3157 115.424 62.177C115.88 61.9654 116.381 61.8725 116.882 61.907C117.376 61.8602 117.873 61.9537 118.317 62.177C118.445 62.3049 118.544 62.4604 118.604 62.6319C118.664 62.8033 118.685 62.9862 118.664 63.1668V63.358H117.543C117.543 63.1668 117.543 63.0318 117.409 62.9756C117.253 62.8976 117.077 62.8664 116.904 62.8856C116.71 62.8652 116.514 62.8922 116.332 62.9643C116.231 63.0205 116.198 63.133 116.198 63.3017C116.191 63.4035 116.223 63.5039 116.287 63.5829C116.424 63.6596 116.579 63.6984 116.736 63.6954C117.149 63.7043 117.561 63.7419 117.969 63.8079C118.121 63.8128 118.268 63.8582 118.396 63.9392C118.524 64.0203 118.628 64.1341 118.698 64.269C118.803 64.545 118.849 64.8401 118.832 65.1351C118.85 65.3235 118.825 65.5136 118.759 65.6909C118.693 65.8683 118.588 66.0282 118.451 66.1586C117.984 66.4316 117.441 66.546 116.904 66.4848C116.03 66.4848 115.503 66.3498 115.301 66.0911C115.08 65.7596 114.974 65.3644 114.998 64.9664H116.119L116.164 65.0226Z" fill="white"/>
<path d="M119.471 61.9969H120.503V62.7843H119.471V61.9969ZM119.471 63.3467H120.503V66.4735H119.471V63.3467Z" fill="white"/>
<path d="M121.209 66.4735V61.9745H123.541C124.019 61.9336 124.495 62.074 124.875 62.3682C125.032 62.5422 125.151 62.7471 125.224 62.9698C125.298 63.1926 125.324 63.4282 125.301 63.6616V64.7077C125.344 65.191 125.204 65.6728 124.909 66.0574C124.737 66.2083 124.535 66.3221 124.318 66.3917C124.1 66.4614 123.87 66.4854 123.642 66.4623H121.209V66.4735ZM122.409 65.4388H123.429C123.515 65.4432 123.601 65.4306 123.681 65.4016C123.762 65.3727 123.837 65.328 123.9 65.2701C124.035 65.0856 124.096 64.8563 124.068 64.6289V63.7516C124.091 63.5541 124.043 63.3549 123.934 63.1892C123.866 63.0993 123.698 63.043 123.429 63.043H122.409V65.4388Z" fill="white"/>
<path d="M0.280273 119.416H222.72" stroke="white" stroke-width="0.5" stroke-miterlimit="10"/>
<path d="M0.280273 238.54H222.72" stroke="white" stroke-width="0.5" stroke-miterlimit="10"/>
<path d="M5.6731 8.447L5.6731 52.8077C5.6731 53.8451 6.51137 54.686 7.54544 54.686H34.4422C35.4763 54.686 36.3146 53.8451 36.3146 52.8077V8.447C36.3146 7.40961 35.4763 6.56865 34.4422 6.56865H7.54544C6.51137 6.56865 5.6731 7.40961 5.6731 8.447Z" fill="#2CB6BF" stroke="white" stroke-width="0.5" stroke-miterlimit="10"/>
<path d="M31.1013 6.63614L30.9219 7.17603V54.686H33.8481L34.8796 54.5623L36.0008 53.8087C36.0905 53.4713 36.1914 53.1339 36.2811 52.7964V10.8203C36.2811 9.79673 36.1914 8.76194 36.1353 7.72716L35.1038 6.6024L32.8615 6.53491L31.1013 6.63614Z" fill="#227EB0"/>
<path d="M30.9106 54.686V6.57983" stroke="white" stroke-width="0.5" stroke-miterlimit="10"/>
<path d="M36.3147 27.9954H30.9106V30.0874H36.3147V27.9954Z" stroke="white" stroke-width="0.5" stroke-miterlimit="10"/>
<path d="M14.8779 32.0783C16.2215 32.0783 17.3108 30.9855 17.3108 29.6375C17.3108 28.2895 16.2215 27.1968 14.8779 27.1968C13.5342 27.1968 12.4449 28.2895 12.4449 29.6375C12.4449 30.9855 13.5342 32.0783 14.8779 32.0783Z" stroke="white" stroke-width="0.5" stroke-miterlimit="10"/>
<path d="M5.6731 8.447L5.6731 52.8077C5.6731 53.8451 6.51137 54.686 7.54544 54.686H34.4422C35.4763 54.686 36.3146 53.8451 36.3146 52.8077V8.447C36.3146 7.40961 35.4763 6.56865 34.4422 6.56865H7.54544C6.51137 6.56865 5.6731 7.40961 5.6731 8.447Z" stroke="white" stroke-width="0.5" stroke-miterlimit="10"/>
<path d="M33.6126 35.6326C34.0089 35.6326 34.3301 35.3103 34.3301 34.9127C34.3301 34.5152 34.0089 34.1929 33.6126 34.1929C33.2163 34.1929 32.895 34.5152 32.895 34.9127C32.895 35.3103 33.2163 35.6326 33.6126 35.6326Z" fill="white" stroke="white" stroke-width="0.5" stroke-miterlimit="10"/>
<path d="M8.91324 51.503C9.38384 51.503 9.76533 51.1203 9.76533 50.6482C9.76533 50.176 9.38384 49.7933 8.91324 49.7933C8.44265 49.7933 8.06116 50.176 8.06116 50.6482C8.06116 51.1203 8.44265 51.503 8.91324 51.503Z" stroke="white" stroke-width="0.5" stroke-miterlimit="10"/>
<path d="M41.9653 8.447V52.8077C41.9653 53.8451 42.8036 54.686 43.8377 54.686H70.7345C71.7685 54.686 72.6068 53.8451 72.6068 52.8077V8.447C72.6068 7.40961 71.7685 6.56864 70.7345 6.56864H43.8377C42.8036 6.56864 41.9653 7.40961 41.9653 8.447Z" fill="#2CB6BF" stroke="white" stroke-width="0.5" stroke-miterlimit="10"/>
<path d="M67.3821 6.63614L67.27 7.17603V20.6732V54.6523H70.1963L71.2277 54.5286L72.3489 53.775C72.4386 53.4376 72.5395 53.1001 72.6292 52.7627V10.8203C72.6292 9.79673 72.5395 8.76194 72.4834 7.72716L71.452 6.6024L69.2096 6.53491L67.3821 6.63614Z" fill="#227EB0"/>
<path d="M67.1914 54.686V6.57983" stroke="white" stroke-width="0.5" stroke-miterlimit="10"/>
<path d="M72.5954 27.9954H67.1914V30.0874H72.5954V27.9954Z" stroke="white" stroke-width="0.5" stroke-miterlimit="10"/>
<path d="M51.17 32.0783C52.5137 32.0783 53.6029 30.9855 53.6029 29.6375C53.6029 28.2895 52.5137 27.1968 51.17 27.1968C49.8263 27.1968 48.7371 28.2895 48.7371 29.6375C48.7371 30.9855 49.8263 32.0783 51.17 32.0783Z" stroke="white" stroke-width="0.5" stroke-miterlimit="10"/>
<path d="M41.9653 8.447V52.8077C41.9653 53.8451 42.8036 54.686 43.8377 54.686H70.7345C71.7685 54.686 72.6068 53.8451 72.6068 52.8077V8.447C72.6068 7.40961 71.7685 6.56864 70.7345 6.56864H43.8377C42.8036 6.56864 41.9653 7.40961 41.9653 8.447Z" stroke="white" stroke-width="0.5" stroke-miterlimit="10"/>
<path d="M69.8936 35.6326C70.2899 35.6326 70.6111 35.3103 70.6111 34.9127C70.6111 34.5152 70.2899 34.1929 69.8936 34.1929C69.4973 34.1929 69.176 34.5152 69.176 34.9127C69.176 35.3103 69.4973 35.6326 69.8936 35.6326Z" fill="white" stroke="white" stroke-width="0.5" stroke-miterlimit="10"/>
<path d="M45.1941 51.503C45.6647 51.503 46.0462 51.1203 46.0462 50.6482C46.0462 50.176 45.6647 49.7933 45.1941 49.7933C44.7235 49.7933 44.342 50.176 44.342 50.6482C44.342 51.1203 44.7235 51.503 45.1941 51.503Z" stroke="white" stroke-width="0.5" stroke-miterlimit="10"/>
<path d="M78.2461 8.447V52.8077C78.2461 53.8451 79.0844 54.686 80.1184 54.686H107.015C108.049 54.686 108.888 53.8451 108.888 52.8077V8.447C108.888 7.40961 108.049 6.56865 107.015 6.56865H80.1184C79.0844 6.56865 78.2461 7.40961 78.2461 8.447Z" fill="#2CB6BF" stroke="white" stroke-width="0.5" stroke-miterlimit="10"/>
<path d="M103.663 6.63614L103.495 7.17603V20.6732V54.6523H106.399L107.43 54.5286L108.551 53.775C108.641 53.4376 108.742 53.1001 108.843 52.7627V10.8203C108.832 9.79673 108.753 8.76194 108.753 7.72716L107.722 6.6024L105.479 6.53491L103.663 6.63614Z" fill="#227EB0"/>
<path d="M103.472 54.686V6.57983" stroke="white" stroke-width="0.5" stroke-miterlimit="10"/>
<path d="M108.876 27.9954H103.472V30.0874H108.876V27.9954Z" stroke="white" stroke-width="0.5" stroke-miterlimit="10"/>
<path d="M87.451 32.0783C88.7947 32.0783 89.8839 30.9855 89.8839 29.6375C89.8839 28.2895 88.7947 27.1968 87.451 27.1968C86.1073 27.1968 85.0181 28.2895 85.0181 29.6375C85.0181 30.9855 86.1073 32.0783 87.451 32.0783Z" stroke="white" stroke-width="0.5" stroke-miterlimit="10"/>
<path d="M78.2461 8.447V52.8077C78.2461 53.8451 79.0844 54.686 80.1184 54.686H107.015C108.049 54.686 108.888 53.8451 108.888 52.8077V8.447C108.888 7.40961 108.049 6.56865 107.015 6.56865H80.1184C79.0844 6.56865 78.2461 7.40961 78.2461 8.447Z" stroke="white" stroke-width="0.5" stroke-miterlimit="10"/>
<path d="M106.175 35.6326C106.571 35.6326 106.892 35.3103 106.892 34.9127C106.892 34.5152 106.571 34.1929 106.175 34.1929C105.778 34.1929 105.457 34.5152 105.457 34.9127C105.457 35.3103 105.778 35.6326 106.175 35.6326Z" fill="white" stroke="white" stroke-width="0.5" stroke-miterlimit="10"/>
<path d="M81.4751 51.503C81.9457 51.503 82.3272 51.1203 82.3272 50.6482C82.3272 50.176 81.9457 49.7933 81.4751 49.7933C81.0045 49.7933 80.623 50.176 80.623 50.6482C80.623 51.1203 81.0045 51.503 81.4751 51.503Z" stroke="white" stroke-width="0.5" stroke-miterlimit="10"/>
<path d="M114.527 8.45823V52.8189C114.527 53.8563 115.365 54.6973 116.399 54.6973H143.296C144.33 54.6973 145.169 53.8563 145.169 52.8189V8.45823C145.169 7.42084 144.33 6.57988 143.296 6.57988H116.399C115.365 6.57988 114.527 7.42084 114.527 8.45823Z" fill="#2CB6BF" stroke="white" stroke-width="0.5" stroke-miterlimit="10"/>
<path d="M139.944 6.63614L139.776 7.17603V20.6732V54.6523H142.702L143.734 54.5286L144.855 53.775C144.944 53.4376 145.045 53.1001 145.146 52.7627V10.8203C145.146 9.79673 145.045 8.76194 144.989 7.72716L143.958 6.6024L141.716 6.53491L139.944 6.63614Z" fill="#227EB0"/>
<path d="M139.753 54.686V6.57983" stroke="white" stroke-width="0.5" stroke-miterlimit="10"/>
<path d="M145.157 27.9954H139.753V30.0874H145.157V27.9954Z" stroke="white" stroke-width="0.5" stroke-miterlimit="10"/>
<path d="M123.732 32.0783C125.076 32.0783 126.165 30.9855 126.165 29.6375C126.165 28.2895 125.076 27.1968 123.732 27.1968C122.388 27.1968 121.299 28.2895 121.299 29.6375C121.299 30.9855 122.388 32.0783 123.732 32.0783Z" stroke="white" stroke-width="0.5" stroke-miterlimit="10"/>
<path d="M114.527 8.45823V52.8189C114.527 53.8563 115.365 54.6973 116.399 54.6973H143.296C144.33 54.6973 145.169 53.8563 145.169 52.8189V8.45823C145.169 7.42084 144.33 6.57988 143.296 6.57988H116.399C115.365 6.57988 114.527 7.42084 114.527 8.45823Z" stroke="white" stroke-width="0.5" stroke-miterlimit="10"/>
<path d="M142.467 35.6326C142.863 35.6326 143.184 35.3103 143.184 34.9127C143.184 34.5152 142.863 34.1929 142.467 34.1929C142.07 34.1929 141.749 34.5152 141.749 34.9127C141.749 35.3103 142.07 35.6326 142.467 35.6326Z" fill="white" stroke="white" stroke-width="0.5" stroke-miterlimit="10"/>
<path d="M117.756 51.503C118.227 51.503 118.608 51.1203 118.608 50.6482C118.608 50.176 118.227 49.7933 117.756 49.7933C117.286 49.7933 116.904 50.176 116.904 50.6482C116.904 51.1203 117.286 51.503 117.756 51.503Z" stroke="white" stroke-width="0.5" stroke-miterlimit="10"/>
<path d="M150.808 8.45823V52.8189C150.808 53.8563 151.646 54.6973 152.68 54.6973H179.577C180.611 54.6973 181.45 53.8563 181.45 52.8189V8.45823C181.45 7.42084 180.611 6.57988 179.577 6.57988H152.68C151.646 6.57988 150.808 7.42084 150.808 8.45823Z" fill="#2CB6BF" stroke="white" stroke-width="0.5" stroke-miterlimit="10"/>
<path d="M176.225 6.63614L176.057 7.17603V54.686H178.972L180.003 54.5623L181.124 53.8087C181.214 53.4713 181.315 53.1339 181.416 52.7964V10.8203C181.36 9.79673 181.315 8.76194 181.27 7.72716L180.227 6.6024L177.985 6.53491L176.225 6.63614Z" fill="#227EB0"/>
<path d="M176.046 54.686V6.57983" stroke="white" stroke-width="0.5" stroke-miterlimit="10"/>
<path d="M181.45 27.9954H176.046V30.0874H181.45V27.9954Z" stroke="white" stroke-width="0.5" stroke-miterlimit="10"/>
<path d="M160.013 32.0783C161.357 32.0783 162.446 30.9855 162.446 29.6375C162.446 28.2895 161.357 27.1968 160.013 27.1968C158.669 27.1968 157.58 28.2895 157.58 29.6375C157.58 30.9855 158.669 32.0783 160.013 32.0783Z" stroke="white" stroke-width="0.5" stroke-miterlimit="10"/>
<path d="M150.808 8.45823V52.8189C150.808 53.8563 151.646 54.6973 152.68 54.6973H179.577C180.611 54.6973 181.45 53.8563 181.45 52.8189V8.45823C181.45 7.42084 180.611 6.57988 179.577 6.57988H152.68C151.646 6.57988 150.808 7.42084 150.808 8.45823Z" stroke="white" stroke-width="0.5" stroke-miterlimit="10"/>
<path d="M178.748 35.6326C179.144 35.6326 179.465 35.3103 179.465 34.9127C179.465 34.5152 179.144 34.1929 178.748 34.1929C178.351 34.1929 178.03 34.5152 178.03 34.9127C178.03 35.3103 178.351 35.6326 178.748 35.6326Z" fill="white" stroke="white" stroke-width="0.5" stroke-miterlimit="10"/>
<path d="M154.037 51.503C154.508 51.503 154.889 51.1203 154.889 50.6482C154.889 50.176 154.508 49.7933 154.037 49.7933C153.567 49.7933 153.185 50.176 153.185 50.6482C153.185 51.1203 153.567 51.503 154.037 51.503Z" stroke="white" stroke-width="0.5" stroke-miterlimit="10"/>
<path d="M187.089 8.45823V52.8189C187.089 53.8563 187.927 54.6973 188.961 54.6973H215.858C216.892 54.6973 217.731 53.8563 217.731 52.8189V8.45823C217.731 7.42084 216.892 6.57988 215.858 6.57988H188.961C187.927 6.57988 187.089 7.42084 187.089 8.45823Z" fill="#2CB6BF" stroke="white" stroke-width="0.5" stroke-miterlimit="10"/>
<path d="M212.506 6.63614L212.338 7.17603V54.686H215.264L216.295 54.5623L217.417 53.8087C217.517 53.4713 217.607 53.1339 217.708 52.7964V10.8203C217.708 9.79673 217.607 8.76194 217.562 7.72716L216.52 6.6024L214.277 6.53491L212.506 6.63614Z" fill="#227EB0"/>
<path d="M212.326 54.686V6.57983" stroke="white" stroke-width="0.5" stroke-miterlimit="10"/>
<path d="M217.73 27.9954H212.326V30.0874H217.73V27.9954Z" stroke="white" stroke-width="0.5" stroke-miterlimit="10"/>
<path d="M196.294 32.0783C197.637 32.0783 198.727 30.9855 198.727 29.6375C198.727 28.2895 197.637 27.1968 196.294 27.1968C194.95 27.1968 193.861 28.2895 193.861 29.6375C193.861 30.9855 194.95 32.0783 196.294 32.0783Z" stroke="white" stroke-width="0.5" stroke-miterlimit="10"/>
<path d="M187.089 8.45823V52.8189C187.089 53.8563 187.927 54.6973 188.961 54.6973H215.858C216.892 54.6973 217.731 53.8563 217.731 52.8189V8.45823C217.731 7.42084 216.892 6.57988 215.858 6.57988H188.961C187.927 6.57988 187.089 7.42084 187.089 8.45823Z" stroke="white" stroke-width="0.5" stroke-miterlimit="10"/>
<path d="M215.029 35.6326C215.425 35.6326 215.746 35.3103 215.746 34.9127C215.746 34.5152 215.425 34.1929 215.029 34.1929C214.632 34.1929 214.311 34.5152 214.311 34.9127C214.311 35.3103 214.632 35.6326 215.029 35.6326Z" fill="white" stroke="white" stroke-width="0.5" stroke-miterlimit="10"/>
<path d="M190.318 51.503C190.788 51.503 191.17 51.1203 191.17 50.6482C191.17 50.176 190.788 49.7933 190.318 49.7933C189.847 49.7933 189.466 50.176 189.466 50.6482C189.466 51.1203 189.847 51.503 190.318 51.503Z" stroke="white" stroke-width="0.5" stroke-miterlimit="10"/>
<path d="M5.68433 66.811L5.68433 111.172C5.68433 112.209 6.5226 113.05 7.55667 113.05H34.4535C35.4875 113.05 36.3258 112.209 36.3258 111.172V66.811C36.3258 65.7736 35.4875 64.9327 34.4535 64.9327H7.55667C6.5226 64.9327 5.68433 65.7736 5.68433 66.811Z" fill="#2CB6BF" stroke="white" stroke-width="0.5" stroke-miterlimit="10"/>
<path d="M31.1013 65.0002L30.9219 65.5288V113.05H33.8481L34.8796 112.926C35.2608 112.668 35.6532 112.42 36.0008 112.173L36.2811 111.149V69.1843C36.2811 68.1495 36.1914 67.126 36.1353 66.0912L35.1038 64.9664L32.8615 64.8989L31.1013 65.0002Z" fill="#227EB0"/>
<path d="M30.9106 113.05V64.9326" stroke="white" stroke-width="0.5" stroke-miterlimit="10"/>
<path d="M36.3147 86.3594H30.9106V88.4514H36.3147V86.3594Z" stroke="white" stroke-width="0.5" stroke-miterlimit="10"/>
<path d="M14.8779 90.431C16.2215 90.431 17.3108 89.3383 17.3108 87.9903C17.3108 86.6423 16.2215 85.5496 14.8779 85.5496C13.5342 85.5496 12.4449 86.6423 12.4449 87.9903C12.4449 89.3383 13.5342 90.431 14.8779 90.431Z" stroke="white" stroke-width="0.5" stroke-miterlimit="10"/>
<path d="M5.68433 66.811L5.68433 111.172C5.68433 112.209 6.5226 113.05 7.55667 113.05H34.4535C35.4875 113.05 36.3258 112.209 36.3258 111.172V66.811C36.3258 65.7736 35.4875 64.9327 34.4535 64.9327H7.55667C6.5226 64.9327 5.68433 65.7736 5.68433 66.811Z" stroke="white" stroke-width="0.5" stroke-miterlimit="10"/>
<path d="M33.6126 93.9965C34.0089 93.9965 34.3301 93.6742 34.3301 93.2766C34.3301 92.879 34.0089 92.5568 33.6126 92.5568C33.2163 92.5568 32.895 92.879 32.895 93.2766C32.895 93.6742 33.2163 93.9965 33.6126 93.9965Z" fill="white" stroke="white" stroke-width="0.5" stroke-miterlimit="10"/>
<path d="M8.91324 109.867C9.38384 109.867 9.76533 109.484 9.76533 109.012C9.76533 108.54 9.38384 108.157 8.91324 108.157C8.44265 108.157 8.06116 108.54 8.06116 109.012C8.06116 109.484 8.44265 109.867 8.91324 109.867Z" stroke="white" stroke-width="0.5" stroke-miterlimit="10"/>
<path d="M41.9653 66.811V111.172C41.9653 112.209 42.8036 113.05 43.8377 113.05H70.7345C71.7685 113.05 72.6068 112.209 72.6068 111.172V66.811C72.6068 65.7736 71.7685 64.9327 70.7345 64.9327H43.8377C42.8036 64.9327 41.9653 65.7736 41.9653 66.811Z" fill="#2CB6BF" stroke="white" stroke-width="0.5" stroke-miterlimit="10"/>
<path d="M67.382 65.0002L67.2139 65.5288V79.026V113.005H70.1401L71.1716 112.881C71.5528 112.623 71.9452 112.375 72.2928 112.128L72.573 111.104V69.1843C72.573 68.1495 72.4833 67.126 72.4273 66.0912C72.0909 65.72 71.7434 65.3601 71.3958 64.9664L69.1535 64.8989L67.382 65.0002Z" fill="#227EB0"/>
<path d="M67.1914 113.05V64.9326" stroke="white" stroke-width="0.5" stroke-miterlimit="10"/>
<path d="M72.5954 86.3594H67.1914V88.4514H72.5954V86.3594Z" stroke="white" stroke-width="0.5" stroke-miterlimit="10"/>
<path d="M51.17 90.431C52.5137 90.431 53.6029 89.3383 53.6029 87.9903C53.6029 86.6423 52.5137 85.5496 51.17 85.5496C49.8263 85.5496 48.7371 86.6423 48.7371 87.9903C48.7371 89.3383 49.8263 90.431 51.17 90.431Z" stroke="white" stroke-width="0.5" stroke-miterlimit="10"/>
<path d="M41.9653 66.811V111.172C41.9653 112.209 42.8036 113.05 43.8377 113.05H70.7345C71.7685 113.05 72.6068 112.209 72.6068 111.172V66.811C72.6068 65.7736 71.7685 64.9327 70.7345 64.9327H43.8377C42.8036 64.9327 41.9653 65.7736 41.9653 66.811Z" stroke="white" stroke-width="0.5" stroke-miterlimit="10"/>
<path d="M69.8936 93.9965C70.2899 93.9965 70.6111 93.6742 70.6111 93.2766C70.6111 92.879 70.2899 92.5568 69.8936 92.5568C69.4973 92.5568 69.176 92.879 69.176 93.2766C69.176 93.6742 69.4973 93.9965 69.8936 93.9965Z" fill="white" stroke="white" stroke-width="0.5" stroke-miterlimit="10"/>
<path d="M45.1941 109.867C45.6647 109.867 46.0462 109.484 46.0462 109.012C46.0462 108.54 45.6647 108.157 45.1941 108.157C44.7235 108.157 44.342 108.54 44.342 109.012C44.342 109.484 44.7235 109.867 45.1941 109.867Z" stroke="white" stroke-width="0.5" stroke-miterlimit="10"/>
<path d="M150.808 66.811V111.172C150.808 112.209 151.646 113.05 152.68 113.05H179.577C180.611 113.05 181.45 112.209 181.45 111.172V66.811C181.45 65.7736 180.611 64.9327 179.577 64.9327H152.68C151.646 64.9327 150.808 65.7736 150.808 66.811Z" fill="#2CB6BF" stroke="white" stroke-width="0.5" stroke-miterlimit="10"/>
<path d="M176.225 65.0002L176.057 65.5288V113.05H178.972L180.003 112.926L181.124 112.173C181.214 111.835 181.315 111.487 181.416 111.149V69.1843C181.36 68.1495 181.315 67.126 181.27 66.0912L180.227 64.9664L177.985 64.8989L176.225 65.0002Z" fill="#227EB0"/>
<path d="M176.046 113.05V64.9326" stroke="white" stroke-width="0.5" stroke-miterlimit="10"/>
<path d="M181.45 86.3594H176.046V88.4514H181.45V86.3594Z" stroke="white" stroke-width="0.5" stroke-miterlimit="10"/>
<path d="M160.013 90.431C161.357 90.431 162.446 89.3383 162.446 87.9903C162.446 86.6423 161.357 85.5496 160.013 85.5496C158.669 85.5496 157.58 86.6423 157.58 87.9903C157.58 89.3383 158.669 90.431 160.013 90.431Z" stroke="white" stroke-width="0.5" stroke-miterlimit="10"/>
<path d="M150.808 66.811V111.172C150.808 112.209 151.646 113.05 152.68 113.05H179.577C180.611 113.05 181.45 112.209 181.45 111.172V66.811C181.45 65.7736 180.611 64.9327 179.577 64.9327H152.68C151.646 64.9327 150.808 65.7736 150.808 66.811Z" stroke="white" stroke-width="0.5" stroke-miterlimit="10"/>
<path d="M178.748 93.9965C179.144 93.9965 179.465 93.6742 179.465 93.2766C179.465 92.879 179.144 92.5568 178.748 92.5568C178.351 92.5568 178.03 92.879 178.03 93.2766C178.03 93.6742 178.351 93.9965 178.748 93.9965Z" fill="white" stroke="white" stroke-width="0.5" stroke-miterlimit="10"/>
<path d="M154.037 109.867C154.508 109.867 154.889 109.484 154.889 109.012C154.889 108.54 154.508 108.157 154.037 108.157C153.567 108.157 153.185 108.54 153.185 109.012C153.185 109.484 153.567 109.867 154.037 109.867Z" stroke="white" stroke-width="0.5" stroke-miterlimit="10"/>
<path d="M187.089 66.811V111.172C187.089 112.209 187.927 113.05 188.961 113.05H215.858C216.892 113.05 217.731 112.209 217.731 111.172V66.811C217.731 65.7736 216.892 64.9327 215.858 64.9327H188.961C187.927 64.9327 187.089 65.7736 187.089 66.811Z" fill="#2CB6BF" stroke="white" stroke-width="0.5" stroke-miterlimit="10"/>
<path d="M212.506 65.0002L212.338 65.5288V113.05H215.264L216.295 112.926L217.417 112.173C217.517 111.835 217.607 111.487 217.708 111.149V69.1843C217.708 68.1495 217.607 67.126 217.562 66.0912L216.52 64.9664L214.277 64.8989L212.506 65.0002Z" fill="#227EB0"/>
<path d="M212.326 113.05V64.9326" stroke="white" stroke-width="0.5" stroke-miterlimit="10"/>
<path d="M217.73 86.3594H212.326V88.4514H217.73V86.3594Z" stroke="white" stroke-width="0.5" stroke-miterlimit="10"/>
<path d="M196.294 90.431C197.637 90.431 198.727 89.3383 198.727 87.9903C198.727 86.6423 197.637 85.5496 196.294 85.5496C194.95 85.5496 193.861 86.6423 193.861 87.9903C193.861 89.3383 194.95 90.431 196.294 90.431Z" stroke="white" stroke-width="0.5" stroke-miterlimit="10"/>
<path d="M187.089 66.811V111.172C187.089 112.209 187.927 113.05 188.961 113.05H215.858C216.892 113.05 217.731 112.209 217.731 111.172V66.811C217.731 65.7736 216.892 64.9327 215.858 64.9327H188.961C187.927 64.9327 187.089 65.7736 187.089 66.811Z" stroke="white" stroke-width="0.5" stroke-miterlimit="10"/>
<path d="M215.029 93.9965C215.425 93.9965 215.746 93.6742 215.746 93.2766C215.746 92.879 215.425 92.5568 215.029 92.5568C214.632 92.5568 214.311 92.879 214.311 93.2766C214.311 93.6742 214.632 93.9965 215.029 93.9965Z" fill="white" stroke="white" stroke-width="0.5" stroke-miterlimit="10"/>
<path d="M190.318 109.867C190.788 109.867 191.17 109.484 191.17 109.012C191.17 108.54 190.788 108.157 190.318 108.157C189.847 108.157 189.466 108.54 189.466 109.012C189.466 109.484 189.847 109.867 190.318 109.867Z" stroke="white" stroke-width="0.5" stroke-miterlimit="10"/>
<path d="M5.6731 127.661L5.6731 172.021C5.6731 173.059 6.51137 173.9 7.54544 173.9H34.4422C35.4763 173.9 36.3146 173.059 36.3146 172.021V127.661C36.3146 126.623 35.4763 125.782 34.4422 125.782H7.54544C6.51137 125.782 5.6731 126.623 5.6731 127.661Z" fill="#2CB6BF" stroke="white" stroke-width="0.5" stroke-miterlimit="10"/>
<path d="M31.1013 125.85L30.9219 126.378V173.9H33.8481L34.8796 173.776C35.2608 173.517 35.6532 173.27 36.0008 173.022C36.0905 172.674 36.1914 172.336 36.2811 171.999V130.034C36.2811 128.999 36.1914 127.964 36.1353 126.941L35.1038 125.816L32.8615 125.749L31.1013 125.85Z" fill="#227EB0"/>
<path d="M30.9106 173.9V125.782" stroke="white" stroke-width="0.5" stroke-miterlimit="10"/>
<path d="M36.3147 147.209H30.9106V149.301H36.3147V147.209Z" stroke="white" stroke-width="0.5" stroke-miterlimit="10"/>
<path d="M14.8779 151.281C16.2215 151.281 17.3108 150.188 17.3108 148.84C17.3108 147.492 16.2215 146.399 14.8779 146.399C13.5342 146.399 12.4449 147.492 12.4449 148.84C12.4449 150.188 13.5342 151.281 14.8779 151.281Z" stroke="white" stroke-width="0.5" stroke-miterlimit="10"/>
<path d="M5.6731 127.661L5.6731 172.021C5.6731 173.059 6.51137 173.9 7.54544 173.9H34.4422C35.4763 173.9 36.3146 173.059 36.3146 172.021V127.661C36.3146 126.623 35.4763 125.782 34.4422 125.782H7.54544C6.51137 125.782 5.6731 126.623 5.6731 127.661Z" stroke="white" stroke-width="0.5" stroke-miterlimit="10"/>
<path d="M33.6126 154.835C34.0089 154.835 34.3301 154.513 34.3301 154.115C34.3301 153.718 34.0089 153.395 33.6126 153.395C33.2163 153.395 32.895 153.718 32.895 154.115C32.895 154.513 33.2163 154.835 33.6126 154.835Z" fill="white" stroke="white" stroke-width="0.5" stroke-miterlimit="10"/>
<path d="M8.91324 170.717C9.38384 170.717 9.76533 170.334 9.76533 169.862C9.76533 169.39 9.38384 169.007 8.91324 169.007C8.44265 169.007 8.06116 169.39 8.06116 169.862C8.06116 170.334 8.44265 170.717 8.91324 170.717Z" stroke="white" stroke-width="0.5" stroke-miterlimit="10"/>
<path d="M41.9541 127.661V172.021C41.9541 173.059 42.7924 173.9 43.8264 173.9H70.7232C71.7573 173.9 72.5956 173.059 72.5956 172.021V127.661C72.5956 126.623 71.7573 125.782 70.7232 125.782H43.8264C42.7924 125.782 41.9541 126.623 41.9541 127.661Z" fill="#2CB6BF" stroke="white" stroke-width="0.5" stroke-miterlimit="10"/>
<path d="M67.382 125.85L67.2139 126.378V139.876V173.855H70.1401L71.1716 173.731C71.5528 173.472 71.9452 173.225 72.2928 172.977C72.3824 172.629 72.4834 172.291 72.573 171.954V130.034C72.573 128.999 72.4833 127.964 72.4273 126.941C72.0909 126.57 71.7434 126.21 71.3958 125.816L69.1535 125.749L67.382 125.85Z" fill="#227EB0"/>
<path d="M67.1914 173.9V125.782" stroke="white" stroke-width="0.5" stroke-miterlimit="10"/>
<path d="M72.5954 147.209H67.1914V149.301H72.5954V147.209Z" stroke="white" stroke-width="0.5" stroke-miterlimit="10"/>
<path d="M51.17 151.281C52.5137 151.281 53.6029 150.188 53.6029 148.84C53.6029 147.492 52.5137 146.399 51.17 146.399C49.8263 146.399 48.7371 147.492 48.7371 148.84C48.7371 150.188 49.8263 151.281 51.17 151.281Z" stroke="white" stroke-width="0.5" stroke-miterlimit="10"/>
<path d="M41.9541 127.661V172.021C41.9541 173.059 42.7924 173.9 43.8264 173.9H70.7232C71.7573 173.9 72.5956 173.059 72.5956 172.021V127.661C72.5956 126.623 71.7573 125.782 70.7232 125.782H43.8264C42.7924 125.782 41.9541 126.623 41.9541 127.661Z" stroke="white" stroke-width="0.5" stroke-miterlimit="10"/>
<path d="M69.8936 154.835C70.2899 154.835 70.6111 154.513 70.6111 154.115C70.6111 153.718 70.2899 153.395 69.8936 153.395C69.4973 153.395 69.176 153.718 69.176 154.115C69.176 154.513 69.4973 154.835 69.8936 154.835Z" fill="white" stroke="white" stroke-width="0.5" stroke-miterlimit="10"/>
<path d="M45.1941 170.717C45.6647 170.717 46.0462 170.334 46.0462 169.862C46.0462 169.39 45.6647 169.007 45.1941 169.007C44.7235 169.007 44.342 169.39 44.342 169.862C44.342 170.334 44.7235 170.717 45.1941 170.717Z" stroke="white" stroke-width="0.5" stroke-miterlimit="10"/>
<path d="M78.2351 127.661V172.021C78.2351 173.059 79.0734 173.9 80.1075 173.9H107.004C108.038 173.9 108.877 173.059 108.877 172.021V127.661C108.877 126.623 108.038 125.782 107.004 125.782H80.1075C79.0734 125.782 78.2351 126.623 78.2351 127.661Z" fill="#2CB6BF" stroke="white" stroke-width="0.5" stroke-miterlimit="10"/>
<path d="M103.663 125.85L103.495 126.378V139.876V173.855H106.399L107.43 173.731C107.811 173.472 108.204 173.225 108.551 172.977C108.641 172.629 108.742 172.291 108.843 171.954V130.034C108.787 128.999 108.742 127.964 108.686 126.941C108.35 126.57 108.002 126.21 107.654 125.816L105.412 125.749L103.663 125.85Z" fill="#227EB0"/>
<path d="M103.472 173.9V125.782" stroke="white" stroke-width="0.5" stroke-miterlimit="10"/>
<path d="M108.876 147.209H103.472V149.301H108.876V147.209Z" stroke="white" stroke-width="0.5" stroke-miterlimit="10"/>
<path d="M87.451 151.281C88.7947 151.281 89.8839 150.188 89.8839 148.84C89.8839 147.492 88.7947 146.399 87.451 146.399C86.1073 146.399 85.0181 147.492 85.0181 148.84C85.0181 150.188 86.1073 151.281 87.451 151.281Z" stroke="white" stroke-width="0.5" stroke-miterlimit="10"/>
<path d="M78.2351 127.661V172.021C78.2351 173.059 79.0734 173.9 80.1075 173.9H107.004C108.038 173.9 108.877 173.059 108.877 172.021V127.661C108.877 126.623 108.038 125.782 107.004 125.782H80.1075C79.0734 125.782 78.2351 126.623 78.2351 127.661Z" stroke="white" stroke-width="0.5" stroke-miterlimit="10"/>
<path d="M106.175 154.835C106.571 154.835 106.892 154.513 106.892 154.115C106.892 153.718 106.571 153.395 106.175 153.395C105.778 153.395 105.457 153.718 105.457 154.115C105.457 154.513 105.778 154.835 106.175 154.835Z" fill="white" stroke="white" stroke-width="0.5" stroke-miterlimit="10"/>
<path d="M81.4751 170.717C81.9457 170.717 82.3272 170.334 82.3272 169.862C82.3272 169.39 81.9457 169.007 81.4751 169.007C81.0045 169.007 80.623 169.39 80.623 169.862C80.623 170.334 81.0045 170.717 81.4751 170.717Z" stroke="white" stroke-width="0.5" stroke-miterlimit="10"/>
<path d="M114.516 127.661V172.021C114.516 173.059 115.354 173.9 116.388 173.9H143.285C144.319 173.9 145.157 173.059 145.157 172.021V127.661C145.157 126.623 144.319 125.782 143.285 125.782H116.388C115.354 125.782 114.516 126.623 114.516 127.661Z" fill="#2CB6BF" stroke="white" stroke-width="0.5" stroke-miterlimit="10"/>
<path d="M139.944 125.85L139.776 126.378V139.876V173.855H142.702L143.734 173.731L144.855 172.977C144.944 172.629 145.045 172.291 145.146 171.954V130.034C145.146 128.999 145.045 127.964 144.989 126.941C144.653 126.57 144.305 126.21 143.958 125.816L141.716 125.749L139.944 125.85Z" fill="#227EB0"/>
<path d="M139.753 173.9V125.782" stroke="white" stroke-width="0.5" stroke-miterlimit="10"/>
<path d="M145.157 147.209H139.753V149.301H145.157V147.209Z" stroke="white" stroke-width="0.5" stroke-miterlimit="10"/>
<path d="M123.732 151.281C125.076 151.281 126.165 150.188 126.165 148.84C126.165 147.492 125.076 146.399 123.732 146.399C122.388 146.399 121.299 147.492 121.299 148.84C121.299 150.188 122.388 151.281 123.732 151.281Z" stroke="white" stroke-width="0.5" stroke-miterlimit="10"/>
<path d="M114.516 127.661V172.021C114.516 173.059 115.354 173.9 116.388 173.9H143.285C144.319 173.9 145.157 173.059 145.157 172.021V127.661C145.157 126.623 144.319 125.782 143.285 125.782H116.388C115.354 125.782 114.516 126.623 114.516 127.661Z" stroke="white" stroke-width="0.5" stroke-miterlimit="10"/>
<path d="M142.467 154.835C142.863 154.835 143.184 154.513 143.184 154.115C143.184 153.718 142.863 153.395 142.467 153.395C142.07 153.395 141.749 153.718 141.749 154.115C141.749 154.513 142.07 154.835 142.467 154.835Z" fill="white" stroke="white" stroke-width="0.5" stroke-miterlimit="10"/>
<path d="M117.756 170.717C118.227 170.717 118.608 170.334 118.608 169.862C118.608 169.39 118.227 169.007 117.756 169.007C117.286 169.007 116.904 169.39 116.904 169.862C116.904 170.334 117.286 170.717 117.756 170.717Z" stroke="white" stroke-width="0.5" stroke-miterlimit="10"/>
<path d="M150.797 127.661V172.021C150.797 173.059 151.635 173.9 152.669 173.9H179.566C180.6 173.9 181.438 173.059 181.438 172.021V127.661C181.438 126.623 180.6 125.782 179.566 125.782H152.669C151.635 125.782 150.797 126.623 150.797 127.661Z" fill="#2CB6BF" stroke="white" stroke-width="0.5" stroke-miterlimit="10"/>
<path d="M176.225 125.85L176.057 126.378V173.9H178.972L180.003 173.776L181.124 173.022C181.214 172.674 181.315 172.336 181.416 171.999V130.034C181.36 128.999 181.315 127.964 181.27 126.941L180.227 125.816L177.985 125.749L176.225 125.85Z" fill="#227EB0"/>
<path d="M176.046 173.9V125.782" stroke="white" stroke-width="0.5" stroke-miterlimit="10"/>
<path d="M181.45 147.209H176.046V149.301H181.45V147.209Z" stroke="white" stroke-width="0.5" stroke-miterlimit="10"/>
<path d="M160.013 151.281C161.357 151.281 162.446 150.188 162.446 148.84C162.446 147.492 161.357 146.399 160.013 146.399C158.669 146.399 157.58 147.492 157.58 148.84C157.58 150.188 158.669 151.281 160.013 151.281Z" stroke="white" stroke-width="0.5" stroke-miterlimit="10"/>
<path d="M150.797 127.661V172.021C150.797 173.059 151.635 173.9 152.669 173.9H179.566C180.6 173.9 181.438 173.059 181.438 172.021V127.661C181.438 126.623 180.6 125.782 179.566 125.782H152.669C151.635 125.782 150.797 126.623 150.797 127.661Z" stroke="white" stroke-width="0.5" stroke-miterlimit="10"/>
<path d="M178.748 154.835C179.144 154.835 179.465 154.513 179.465 154.115C179.465 153.718 179.144 153.395 178.748 153.395C178.351 153.395 178.03 153.718 178.03 154.115C178.03 154.513 178.351 154.835 178.748 154.835Z" fill="white" stroke="white" stroke-width="0.5" stroke-miterlimit="10"/>
<path d="M154.037 170.717C154.508 170.717 154.889 170.334 154.889 169.862C154.889 169.39 154.508 169.007 154.037 169.007C153.567 169.007 153.185 169.39 153.185 169.862C153.185 170.334 153.567 170.717 154.037 170.717Z" stroke="white" stroke-width="0.5" stroke-miterlimit="10"/>
<path d="M187.078 127.661V172.021C187.078 173.059 187.916 173.9 188.95 173.9H215.847C216.881 173.9 217.719 173.059 217.719 172.021V127.661C217.719 126.623 216.881 125.782 215.847 125.782H188.95C187.916 125.782 187.078 126.623 187.078 127.661Z" fill="#2CB6BF" stroke="white" stroke-width="0.5" stroke-miterlimit="10"/>
<path d="M212.506 125.85L212.338 126.378V173.9H215.264L216.295 173.776L217.417 173.022C217.517 172.674 217.607 172.336 217.708 171.999V130.034C217.708 128.999 217.607 127.964 217.562 126.941L216.52 125.816L214.277 125.749L212.506 125.85Z" fill="#227EB0"/>
<path d="M212.326 173.9V125.782" stroke="white" stroke-width="0.5" stroke-miterlimit="10"/>
<path d="M217.73 147.209H212.326V149.301H217.73V147.209Z" stroke="white" stroke-width="0.5" stroke-miterlimit="10"/>
<path d="M196.294 151.281C197.637 151.281 198.727 150.188 198.727 148.84C198.727 147.492 197.637 146.399 196.294 146.399C194.95 146.399 193.861 147.492 193.861 148.84C193.861 150.188 194.95 151.281 196.294 151.281Z" stroke="white" stroke-width="0.5" stroke-miterlimit="10"/>
<path d="M187.078 127.661V172.021C187.078 173.059 187.916 173.9 188.95 173.9H215.847C216.881 173.9 217.719 173.059 217.719 172.021V127.661C217.719 126.623 216.881 125.782 215.847 125.782H188.95C187.916 125.782 187.078 126.623 187.078 127.661Z" stroke="white" stroke-width="0.5" stroke-miterlimit="10"/>
<path d="M215.029 154.835C215.425 154.835 215.746 154.513 215.746 154.115C215.746 153.718 215.425 153.395 215.029 153.395C214.632 153.395 214.311 153.718 214.311 154.115C214.311 154.513 214.632 154.835 215.029 154.835Z" fill="white" stroke="white" stroke-width="0.5" stroke-miterlimit="10"/>
<path d="M190.318 170.717C190.788 170.717 191.17 170.334 191.17 169.862C191.17 169.39 190.788 169.007 190.318 169.007C189.847 169.007 189.466 169.39 189.466 169.862C189.466 170.334 189.847 170.717 190.318 170.717Z" stroke="white" stroke-width="0.5" stroke-miterlimit="10"/>
<path d="M5.6731 186.328L5.6731 230.689C5.6731 231.726 6.51137 232.567 7.54544 232.567H34.4422C35.4763 232.567 36.3146 231.726 36.3146 230.689V186.328C36.3146 185.291 35.4763 184.45 34.4422 184.45H7.54544C6.51137 184.45 5.6731 185.291 5.6731 186.328Z" fill="#2CB6BF" stroke="white" stroke-width="0.5" stroke-miterlimit="10"/>
<path d="M31.1013 184.461L30.9219 185.001V232.522H33.8481L34.8796 232.387L36.0008 231.634C36.0905 231.296 36.1914 230.959 36.2811 230.621V188.702C36.2811 187.667 36.1914 186.632 36.1353 185.597L35.1038 184.472H32.8615L31.1013 184.461Z" fill="#227EB0"/>
<path d="M30.9106 232.567V184.45" stroke="white" stroke-width="0.5" stroke-miterlimit="10"/>
<path d="M36.3147 205.877H30.9106V207.969H36.3147V205.877Z" stroke="white" stroke-width="0.5" stroke-miterlimit="10"/>
<path d="M14.8779 209.948C16.2215 209.948 17.3108 208.856 17.3108 207.508C17.3108 206.16 16.2215 205.067 14.8779 205.067C13.5342 205.067 12.4449 206.16 12.4449 207.508C12.4449 208.856 13.5342 209.948 14.8779 209.948Z" stroke="white" stroke-width="0.5" stroke-miterlimit="10"/>
<path d="M5.6731 186.328L5.6731 230.689C5.6731 231.726 6.51137 232.567 7.54544 232.567H34.4422C35.4763 232.567 36.3146 231.726 36.3146 230.689V186.328C36.3146 185.291 35.4763 184.45 34.4422 184.45H7.54544C6.51137 184.45 5.6731 185.291 5.6731 186.328Z" stroke="white" stroke-width="0.5" stroke-miterlimit="10"/>
<path d="M33.6126 213.503C34.0089 213.503 34.3301 213.18 34.3301 212.783C34.3301 212.385 34.0089 212.063 33.6126 212.063C33.2163 212.063 32.895 212.385 32.895 212.783C32.895 213.18 33.2163 213.503 33.6126 213.503Z" fill="white" stroke="white" stroke-width="0.5" stroke-miterlimit="10"/>
<path d="M8.91324 229.373C9.38384 229.373 9.76533 228.99 9.76533 228.518C9.76533 228.046 9.38384 227.663 8.91324 227.663C8.44265 227.663 8.06116 228.046 8.06116 228.518C8.06116 228.99 8.44265 229.373 8.91324 229.373Z" stroke="white" stroke-width="0.5" stroke-miterlimit="10"/>
<path d="M41.9541 186.328V230.689C41.9541 231.726 42.7924 232.567 43.8264 232.567H70.7232C71.7573 232.567 72.5956 231.726 72.5956 230.689V186.328C72.5956 185.291 71.7573 184.45 70.7232 184.45H43.8264C42.7924 184.45 41.9541 185.291 41.9541 186.328Z" fill="#2CB6BF" stroke="white" stroke-width="0.5" stroke-miterlimit="10"/>
<path d="M67.382 184.461L67.2139 185.001V198.498V232.477H70.1401L71.1716 232.342L72.2928 231.589C72.3824 231.251 72.4834 230.914 72.573 230.576V188.702C72.573 187.667 72.4833 186.632 72.4273 185.597L71.3958 184.472H69.1535L67.382 184.461Z" fill="#227EB0"/>
<path d="M67.1914 232.567V184.45" stroke="white" stroke-width="0.5" stroke-miterlimit="10"/>
<path d="M72.5954 205.877H67.1914V207.969H72.5954V205.877Z" stroke="white" stroke-width="0.5" stroke-miterlimit="10"/>
<path d="M51.17 209.948C52.5137 209.948 53.6029 208.856 53.6029 207.508C53.6029 206.16 52.5137 205.067 51.17 205.067C49.8263 205.067 48.7371 206.16 48.7371 207.508C48.7371 208.856 49.8263 209.948 51.17 209.948Z" stroke="white" stroke-width="0.5" stroke-miterlimit="10"/>
<path d="M41.9541 186.328V230.689C41.9541 231.726 42.7924 232.567 43.8264 232.567H70.7232C71.7573 232.567 72.5956 231.726 72.5956 230.689V186.328C72.5956 185.291 71.7573 184.45 70.7232 184.45H43.8264C42.7924 184.45 41.9541 185.291 41.9541 186.328Z" stroke="white" stroke-width="0.5" stroke-miterlimit="10"/>
<path d="M69.8936 213.503C70.2899 213.503 70.6111 213.18 70.6111 212.783C70.6111 212.385 70.2899 212.063 69.8936 212.063C69.4973 212.063 69.176 212.385 69.176 212.783C69.176 213.18 69.4973 213.503 69.8936 213.503Z" fill="white" stroke="white" stroke-width="0.5" stroke-miterlimit="10"/>
<path d="M45.1941 229.373C45.6647 229.373 46.0462 228.99 46.0462 228.518C46.0462 228.046 45.6647 227.663 45.1941 227.663C44.7235 227.663 44.342 228.046 44.342 228.518C44.342 228.99 44.7235 229.373 45.1941 229.373Z" stroke="white" stroke-width="0.5" stroke-miterlimit="10"/>
<path d="M78.2351 186.328V230.689C78.2351 231.726 79.0734 232.567 80.1075 232.567H107.004C108.038 232.567 108.877 231.726 108.877 230.689V186.328C108.877 185.291 108.038 184.45 107.004 184.45H80.1075C79.0734 184.45 78.2351 185.291 78.2351 186.328Z" fill="#2CB6BF" stroke="white" stroke-width="0.5" stroke-miterlimit="10"/>
<path d="M103.663 184.461L103.495 185.001V198.498V232.477H106.399L107.43 232.342L108.551 231.589C108.641 231.251 108.742 230.914 108.843 230.576V188.702C108.787 187.667 108.742 186.632 108.686 185.597L107.654 184.472H105.412L103.663 184.461Z" fill="#227EB0"/>
<path d="M103.472 232.567V184.45" stroke="white" stroke-width="0.5" stroke-miterlimit="10"/>
<path d="M108.876 205.877H103.472V207.969H108.876V205.877Z" stroke="white" stroke-width="0.5" stroke-miterlimit="10"/>
<path d="M87.451 209.948C88.7947 209.948 89.8839 208.856 89.8839 207.508C89.8839 206.16 88.7947 205.067 87.451 205.067C86.1073 205.067 85.0181 206.16 85.0181 207.508C85.0181 208.856 86.1073 209.948 87.451 209.948Z" stroke="white" stroke-width="0.5" stroke-miterlimit="10"/>
<path d="M78.2351 186.328V230.689C78.2351 231.726 79.0734 232.567 80.1075 232.567H107.004C108.038 232.567 108.877 231.726 108.877 230.689V186.328C108.877 185.291 108.038 184.45 107.004 184.45H80.1075C79.0734 184.45 78.2351 185.291 78.2351 186.328Z" stroke="white" stroke-width="0.5" stroke-miterlimit="10"/>
<path d="M106.175 213.503C106.571 213.503 106.892 213.18 106.892 212.783C106.892 212.385 106.571 212.063 106.175 212.063C105.778 212.063 105.457 212.385 105.457 212.783C105.457 213.18 105.778 213.503 106.175 213.503Z" fill="white" stroke="white" stroke-width="0.5" stroke-miterlimit="10"/>
<path d="M81.4751 229.373C81.9457 229.373 82.3272 228.99 82.3272 228.518C82.3272 228.046 81.9457 227.663 81.4751 227.663C81.0045 227.663 80.623 228.046 80.623 228.518C80.623 228.99 81.0045 229.373 81.4751 229.373Z" stroke="white" stroke-width="0.5" stroke-miterlimit="10"/>
<path d="M114.516 186.328V230.689C114.516 231.726 115.354 232.567 116.388 232.567H143.285C144.319 232.567 145.157 231.726 145.157 230.689V186.328C145.157 185.291 144.319 184.45 143.285 184.45H116.388C115.354 184.45 114.516 185.291 114.516 186.328Z" fill="#2CB6BF" stroke="white" stroke-width="0.5" stroke-miterlimit="10"/>
<path d="M139.944 184.461L139.776 185.001V198.498V232.477H142.702L143.734 232.342L144.855 231.589C144.944 231.251 145.045 230.914 145.146 230.576V188.702C145.146 187.667 145.045 186.632 144.989 185.597L143.958 184.472H141.716L139.944 184.461Z" fill="#227EB0"/>
<path d="M139.753 232.567V184.45" stroke="white" stroke-width="0.5" stroke-miterlimit="10"/>
<path d="M145.157 205.877H139.753V207.969H145.157V205.877Z" stroke="white" stroke-width="0.5" stroke-miterlimit="10"/>
<path d="M123.732 209.948C125.076 209.948 126.165 208.856 126.165 207.508C126.165 206.16 125.076 205.067 123.732 205.067C122.388 205.067 121.299 206.16 121.299 207.508C121.299 208.856 122.388 209.948 123.732 209.948Z" stroke="white" stroke-width="0.5" stroke-miterlimit="10"/>
<path d="M114.516 186.328V230.689C114.516 231.726 115.354 232.567 116.388 232.567H143.285C144.319 232.567 145.157 231.726 145.157 230.689V186.328C145.157 185.291 144.319 184.45 143.285 184.45H116.388C115.354 184.45 114.516 185.291 114.516 186.328Z" stroke="white" stroke-width="0.5" stroke-miterlimit="10"/>
<path d="M142.467 213.503C142.863 213.503 143.184 213.18 143.184 212.783C143.184 212.385 142.863 212.063 142.467 212.063C142.07 212.063 141.749 212.385 141.749 212.783C141.749 213.18 142.07 213.503 142.467 213.503Z" fill="white" stroke="white" stroke-width="0.5" stroke-miterlimit="10"/>
<path d="M117.756 229.373C118.227 229.373 118.608 228.99 118.608 228.518C118.608 228.046 118.227 227.663 117.756 227.663C117.286 227.663 116.904 228.046 116.904 228.518C116.904 228.99 117.286 229.373 117.756 229.373Z" stroke="white" stroke-width="0.5" stroke-miterlimit="10"/>
<path d="M150.797 186.328V230.689C150.797 231.726 151.635 232.567 152.669 232.567H179.566C180.6 232.567 181.438 231.726 181.438 230.689V186.328C181.438 185.291 180.6 184.45 179.566 184.45H152.669C151.635 184.45 150.797 185.291 150.797 186.328Z" fill="#2CB6BF" stroke="white" stroke-width="0.5" stroke-miterlimit="10"/>
<path d="M176.225 184.461L176.057 185.001V232.522H178.972L180.003 232.387L181.124 231.634C181.214 231.296 181.315 230.959 181.416 230.621V188.702C181.36 187.667 181.315 186.632 181.27 185.597L180.227 184.472H177.985L176.225 184.461Z" fill="#227EB0"/>
<path d="M176.046 232.567V184.45" stroke="white" stroke-width="0.5" stroke-miterlimit="10"/>
<path d="M181.45 205.877H176.046V207.969H181.45V205.877Z" stroke="white" stroke-width="0.5" stroke-miterlimit="10"/>
<path d="M160.013 209.948C161.357 209.948 162.446 208.856 162.446 207.508C162.446 206.16 161.357 205.067 160.013 205.067C158.669 205.067 157.58 206.16 157.58 207.508C157.58 208.856 158.669 209.948 160.013 209.948Z" stroke="white" stroke-width="0.5" stroke-miterlimit="10"/>
<path d="M150.797 186.328V230.689C150.797 231.726 151.635 232.567 152.669 232.567H179.566C180.6 232.567 181.438 231.726 181.438 230.689V186.328C181.438 185.291 180.6 184.45 179.566 184.45H152.669C151.635 184.45 150.797 185.291 150.797 186.328Z" stroke="white" stroke-width="0.5" stroke-miterlimit="10"/>
<path d="M178.748 213.503C179.144 213.503 179.465 213.18 179.465 212.783C179.465 212.385 179.144 212.063 178.748 212.063C178.351 212.063 178.03 212.385 178.03 212.783C178.03 213.18 178.351 213.503 178.748 213.503Z" fill="white" stroke="white" stroke-width="0.5" stroke-miterlimit="10"/>
<path d="M154.037 229.373C154.508 229.373 154.889 228.99 154.889 228.518C154.889 228.046 154.508 227.663 154.037 227.663C153.567 227.663 153.185 228.046 153.185 228.518C153.185 228.99 153.567 229.373 154.037 229.373Z" stroke="white" stroke-width="0.5" stroke-miterlimit="10"/>
<path d="M187.089 186.328V230.689C187.089 231.726 187.927 232.567 188.961 232.567H215.858C216.892 232.567 217.731 231.726 217.731 230.689V186.328C217.731 185.291 216.892 184.45 215.858 184.45H188.961C187.927 184.45 187.089 185.291 187.089 186.328Z" fill="#2CB6BF" stroke="white" stroke-width="0.5" stroke-miterlimit="10"/>
<path d="M212.506 184.461L212.338 185.001V232.522H215.264L216.295 232.387L217.417 231.634C217.517 231.296 217.607 230.959 217.708 230.621V188.702C217.708 187.667 217.607 186.632 217.562 185.597L216.52 184.472H214.277L212.506 184.461Z" fill="#227EB0"/>
<path d="M212.326 232.567V184.45" stroke="white" stroke-width="0.5" stroke-miterlimit="10"/>
<path d="M217.73 205.877H212.326V207.969H217.73V205.877Z" stroke="white" stroke-width="0.5" stroke-miterlimit="10"/>
<path d="M196.294 209.948C197.637 209.948 198.727 208.856 198.727 207.508C198.727 206.16 197.637 205.067 196.294 205.067C194.95 205.067 193.861 206.16 193.861 207.508C193.861 208.856 194.95 209.948 196.294 209.948Z" stroke="white" stroke-width="0.5" stroke-miterlimit="10"/>
<path d="M187.089 186.328V230.689C187.089 231.726 187.927 232.567 188.961 232.567H215.858C216.892 232.567 217.731 231.726 217.731 230.689V186.328C217.731 185.291 216.892 184.45 215.858 184.45H188.961C187.927 184.45 187.089 185.291 187.089 186.328Z" stroke="white" stroke-width="0.5" stroke-miterlimit="10"/>
<path d="M215.029 213.503C215.425 213.503 215.746 213.18 215.746 212.783C215.746 212.385 215.425 212.063 215.029 212.063C214.632 212.063 214.311 212.385 214.311 212.783C214.311 213.18 214.632 213.503 215.029 213.503Z" fill="white" stroke="white" stroke-width="0.5" stroke-miterlimit="10"/>
<path d="M190.318 229.373C190.788 229.373 191.17 228.99 191.17 228.518C191.17 228.046 190.788 227.663 190.318 227.663C189.847 227.663 189.466 228.046 189.466 228.518C189.466 228.99 189.847 229.373 190.318 229.373Z" stroke="white" stroke-width="0.5" stroke-miterlimit="10"/>
<path d="M5.6731 246.391L5.6731 290.752C5.6731 291.789 6.51137 292.63 7.54544 292.63H34.4422C35.4763 292.63 36.3146 291.789 36.3146 290.752V246.391C36.3146 245.353 35.4763 244.512 34.4422 244.512H7.54544C6.51137 244.512 5.6731 245.353 5.6731 246.391Z" fill="#2CB6BF" stroke="white" stroke-width="0.5" stroke-miterlimit="10"/>
<path d="M31.1013 244.569L30.9219 245.109V292.63H33.8481L34.8796 292.506L36.0008 291.741C36.0905 291.404 36.1914 291.066 36.2811 290.729V248.764C36.2811 247.729 36.1914 246.695 36.1353 245.671L35.1038 244.546L32.8615 244.49L31.1013 244.569Z" fill="#227EB0"/>
<path d="M30.9106 292.63V244.512" stroke="white" stroke-width="0.5" stroke-miterlimit="10"/>
<path d="M36.3147 265.939H30.9106V268.031H36.3147V265.939Z" stroke="white" stroke-width="0.5" stroke-miterlimit="10"/>
<path d="M14.8779 270.011C16.2215 270.011 17.3108 268.918 17.3108 267.57C17.3108 266.222 16.2215 265.129 14.8779 265.129C13.5342 265.129 12.4449 266.222 12.4449 267.57C12.4449 268.918 13.5342 270.011 14.8779 270.011Z" stroke="white" stroke-width="0.5" stroke-miterlimit="10"/>
<path d="M5.6731 246.391L5.6731 290.752C5.6731 291.789 6.51137 292.63 7.54544 292.63H34.4422C35.4763 292.63 36.3146 291.789 36.3146 290.752V246.391C36.3146 245.353 35.4763 244.512 34.4422 244.512H7.54544C6.51137 244.512 5.6731 245.353 5.6731 246.391Z" stroke="white" stroke-width="0.5" stroke-miterlimit="10"/>
<path d="M33.6126 273.565C34.0089 273.565 34.3301 273.243 34.3301 272.845C34.3301 272.448 34.0089 272.125 33.6126 272.125C33.2163 272.125 32.895 272.448 32.895 272.845C32.895 273.243 33.2163 273.565 33.6126 273.565Z" fill="white" stroke="white" stroke-width="0.5" stroke-miterlimit="10"/>
<path d="M8.91324 289.447C9.38384 289.447 9.76533 289.064 9.76533 288.592C9.76533 288.12 9.38384 287.737 8.91324 287.737C8.44265 287.737 8.06116 288.12 8.06116 288.592C8.06116 289.064 8.44265 289.447 8.91324 289.447Z" stroke="white" stroke-width="0.5" stroke-miterlimit="10"/>
<path d="M41.9541 246.391V290.752C41.9541 291.789 42.7924 292.63 43.8264 292.63H70.7232C71.7573 292.63 72.5956 291.789 72.5956 290.752V246.391C72.5956 245.353 71.7573 244.512 70.7232 244.512H43.8264C42.7924 244.512 41.9541 245.353 41.9541 246.391Z" fill="#2CB6BF" stroke="white" stroke-width="0.5" stroke-miterlimit="10"/>
<path d="M67.382 244.569L67.2139 245.109V258.606V292.585H70.1401L71.1716 292.461L72.2928 291.696C72.3824 291.359 72.4834 291.021 72.573 290.684V248.764C72.573 247.729 72.4833 246.695 72.4273 245.671C72.0909 245.3 71.7434 244.94 71.3958 244.546L69.1535 244.49L67.382 244.569Z" fill="#227EB0"/>
<path d="M67.1914 292.63V244.512" stroke="white" stroke-width="0.5" stroke-miterlimit="10"/>
<path d="M72.5954 265.939H67.1914V268.031H72.5954V265.939Z" stroke="white" stroke-width="0.5" stroke-miterlimit="10"/>
<path d="M51.17 270.011C52.5137 270.011 53.6029 268.918 53.6029 267.57C53.6029 266.222 52.5137 265.129 51.17 265.129C49.8263 265.129 48.7371 266.222 48.7371 267.57C48.7371 268.918 49.8263 270.011 51.17 270.011Z" stroke="white" stroke-width="0.5" stroke-miterlimit="10"/>
<path d="M41.9541 246.391V290.752C41.9541 291.789 42.7924 292.63 43.8264 292.63H70.7232C71.7573 292.63 72.5956 291.789 72.5956 290.752V246.391C72.5956 245.353 71.7573 244.512 70.7232 244.512H43.8264C42.7924 244.512 41.9541 245.353 41.9541 246.391Z" stroke="white" stroke-width="0.5" stroke-miterlimit="10"/>
<path d="M69.8936 273.565C70.2899 273.565 70.6111 273.243 70.6111 272.845C70.6111 272.448 70.2899 272.125 69.8936 272.125C69.4973 272.125 69.176 272.448 69.176 272.845C69.176 273.243 69.4973 273.565 69.8936 273.565Z" fill="white" stroke="white" stroke-width="0.5" stroke-miterlimit="10"/>
<path d="M45.1941 289.447C45.6647 289.447 46.0462 289.064 46.0462 288.592C46.0462 288.12 45.6647 287.737 45.1941 287.737C44.7235 287.737 44.342 288.12 44.342 288.592C44.342 289.064 44.7235 289.447 45.1941 289.447Z" stroke="white" stroke-width="0.5" stroke-miterlimit="10"/>
<path d="M78.2351 246.391V290.752C78.2351 291.789 79.0734 292.63 80.1075 292.63H107.004C108.038 292.63 108.877 291.789 108.877 290.752V246.391C108.877 245.353 108.038 244.512 107.004 244.512H80.1075C79.0734 244.512 78.2351 245.353 78.2351 246.391Z" fill="#2CB6BF" stroke="white" stroke-width="0.5" stroke-miterlimit="10"/>
<path d="M103.663 244.569L103.495 245.109V258.606V292.585H106.399L107.43 292.461L108.551 291.696C108.641 291.359 108.742 291.021 108.843 290.684V248.764C108.787 247.729 108.742 246.695 108.686 245.671C108.35 245.3 108.002 244.94 107.654 244.546L105.412 244.49L103.663 244.569Z" fill="#227EB0"/>
<path d="M103.472 292.63V244.512" stroke="white" stroke-width="0.5" stroke-miterlimit="10"/>
<path d="M108.876 265.939H103.472V268.031H108.876V265.939Z" stroke="white" stroke-width="0.5" stroke-miterlimit="10"/>
<path d="M87.451 270.011C88.7947 270.011 89.8839 268.918 89.8839 267.57C89.8839 266.222 88.7947 265.129 87.451 265.129C86.1073 265.129 85.0181 266.222 85.0181 267.57C85.0181 268.918 86.1073 270.011 87.451 270.011Z" stroke="white" stroke-width="0.5" stroke-miterlimit="10"/>
<path d="M78.2351 246.391V290.752C78.2351 291.789 79.0734 292.63 80.1075 292.63H107.004C108.038 292.63 108.877 291.789 108.877 290.752V246.391C108.877 245.353 108.038 244.512 107.004 244.512H80.1075C79.0734 244.512 78.2351 245.353 78.2351 246.391Z" stroke="white" stroke-width="0.5" stroke-miterlimit="10"/>
<path d="M106.175 273.565C106.571 273.565 106.892 273.243 106.892 272.845C106.892 272.448 106.571 272.125 106.175 272.125C105.778 272.125 105.457 272.448 105.457 272.845C105.457 273.243 105.778 273.565 106.175 273.565Z" fill="white" stroke="white" stroke-width="0.5" stroke-miterlimit="10"/>
<path d="M81.4751 289.447C81.9457 289.447 82.3272 289.064 82.3272 288.592C82.3272 288.12 81.9457 287.737 81.4751 287.737C81.0045 287.737 80.623 288.12 80.623 288.592C80.623 289.064 81.0045 289.447 81.4751 289.447Z" stroke="white" stroke-width="0.5" stroke-miterlimit="10"/>
<path d="M114.516 246.391V290.752C114.516 291.789 115.354 292.63 116.388 292.63H143.285C144.319 292.63 145.157 291.789 145.157 290.752V246.391C145.157 245.353 144.319 244.512 143.285 244.512H116.388C115.354 244.512 114.516 245.353 114.516 246.391Z" fill="#2CB6BF" stroke="white" stroke-width="0.5" stroke-miterlimit="10"/>
<path d="M139.944 244.569L139.776 245.109V258.606V292.585H142.702L143.734 292.461L144.855 291.696C144.944 291.359 145.045 291.021 145.146 290.684V248.764C145.146 247.729 145.045 246.695 144.989 245.671C144.653 245.3 144.305 244.94 143.958 244.546L141.716 244.49L139.944 244.569Z" fill="#227EB0"/>
<path d="M139.753 292.63V244.512" stroke="white" stroke-width="0.5" stroke-miterlimit="10"/>
<path d="M145.157 265.939H139.753V268.031H145.157V265.939Z" stroke="white" stroke-width="0.5" stroke-miterlimit="10"/>
<path d="M123.732 270.011C125.076 270.011 126.165 268.918 126.165 267.57C126.165 266.222 125.076 265.129 123.732 265.129C122.388 265.129 121.299 266.222 121.299 267.57C121.299 268.918 122.388 270.011 123.732 270.011Z" stroke="white" stroke-width="0.5" stroke-miterlimit="10"/>
<path d="M114.516 246.391V290.752C114.516 291.789 115.354 292.63 116.388 292.63H143.285C144.319 292.63 145.157 291.789 145.157 290.752V246.391C145.157 245.353 144.319 244.512 143.285 244.512H116.388C115.354 244.512 114.516 245.353 114.516 246.391Z" stroke="white" stroke-width="0.5" stroke-miterlimit="10"/>
<path d="M142.467 273.565C142.863 273.565 143.184 273.243 143.184 272.845C143.184 272.448 142.863 272.125 142.467 272.125C142.07 272.125 141.749 272.448 141.749 272.845C141.749 273.243 142.07 273.565 142.467 273.565Z" fill="white" stroke="white" stroke-width="0.5" stroke-miterlimit="10"/>
<path d="M117.756 289.447C118.227 289.447 118.608 289.064 118.608 288.592C118.608 288.12 118.227 287.737 117.756 287.737C117.286 287.737 116.904 288.12 116.904 288.592C116.904 289.064 117.286 289.447 117.756 289.447Z" stroke="white" stroke-width="0.5" stroke-miterlimit="10"/>
<path d="M150.797 246.391V290.752C150.797 291.789 151.635 292.63 152.669 292.63H179.566C180.6 292.63 181.438 291.789 181.438 290.752V246.391C181.438 245.353 180.6 244.512 179.566 244.512H152.669C151.635 244.512 150.797 245.353 150.797 246.391Z" fill="#2CB6BF" stroke="white" stroke-width="0.5" stroke-miterlimit="10"/>
<path d="M176.225 244.569L176.057 245.109V292.63H178.972L180.003 292.506L181.124 291.741C181.214 291.404 181.315 291.066 181.416 290.729V248.764C181.36 247.729 181.315 246.695 181.27 245.671L180.227 244.546L177.985 244.49L176.225 244.569Z" fill="#227EB0"/>
<path d="M176.046 292.63V244.512" stroke="white" stroke-width="0.5" stroke-miterlimit="10"/>
<path d="M181.45 265.939H176.046V268.031H181.45V265.939Z" stroke="white" stroke-width="0.5" stroke-miterlimit="10"/>
<path d="M160.013 270.011C161.357 270.011 162.446 268.918 162.446 267.57C162.446 266.222 161.357 265.129 160.013 265.129C158.669 265.129 157.58 266.222 157.58 267.57C157.58 268.918 158.669 270.011 160.013 270.011Z" stroke="white" stroke-width="0.5" stroke-miterlimit="10"/>
<path d="M150.797 246.391V290.752C150.797 291.789 151.635 292.63 152.669 292.63H179.566C180.6 292.63 181.438 291.789 181.438 290.752V246.391C181.438 245.353 180.6 244.512 179.566 244.512H152.669C151.635 244.512 150.797 245.353 150.797 246.391Z" stroke="white" stroke-width="0.5" stroke-miterlimit="10"/>
<path d="M178.748 273.565C179.144 273.565 179.465 273.243 179.465 272.845C179.465 272.448 179.144 272.125 178.748 272.125C178.351 272.125 178.03 272.448 178.03 272.845C178.03 273.243 178.351 273.565 178.748 273.565Z" fill="white" stroke="white" stroke-width="0.5" stroke-miterlimit="10"/>
<path d="M154.037 289.447C154.508 289.447 154.889 289.064 154.889 288.592C154.889 288.12 154.508 287.737 154.037 287.737C153.567 287.737 153.185 288.12 153.185 288.592C153.185 289.064 153.567 289.447 154.037 289.447Z" stroke="white" stroke-width="0.5" stroke-miterlimit="10"/>
<path d="M187.078 246.391V290.752C187.078 291.789 187.916 292.63 188.95 292.63H215.847C216.881 292.63 217.719 291.789 217.719 290.752V246.391C217.719 245.353 216.881 244.512 215.847 244.512H188.95C187.916 244.512 187.078 245.353 187.078 246.391Z" fill="#2CB6BF" stroke="white" stroke-width="0.5" stroke-miterlimit="10"/>
<path d="M212.506 244.569L212.338 245.109V292.63H215.264L216.295 292.506L217.417 291.741C217.517 291.404 217.607 291.066 217.708 290.729V248.764C217.708 247.729 217.607 246.695 217.562 245.671L216.52 244.546L214.277 244.49L212.506 244.569Z" fill="#227EB0"/>
<path d="M212.326 292.63V244.512" stroke="white" stroke-width="0.5" stroke-miterlimit="10"/>
<path d="M217.73 265.939H212.326V268.031H217.73V265.939Z" stroke="white" stroke-width="0.5" stroke-miterlimit="10"/>
<path d="M196.294 270.011C197.637 270.011 198.727 268.918 198.727 267.57C198.727 266.222 197.637 265.129 196.294 265.129C194.95 265.129 193.861 266.222 193.861 267.57C193.861 268.918 194.95 270.011 196.294 270.011Z" stroke="white" stroke-width="0.5" stroke-miterlimit="10"/>
<path d="M187.078 246.391V290.752C187.078 291.789 187.916 292.63 188.95 292.63H215.847C216.881 292.63 217.719 291.789 217.719 290.752V246.391C217.719 245.353 216.881 244.512 215.847 244.512H188.95C187.916 244.512 187.078 245.353 187.078 246.391Z" stroke="white" stroke-width="0.5" stroke-miterlimit="10"/>
<path d="M215.029 273.565C215.425 273.565 215.746 273.243 215.746 272.845C215.746 272.448 215.425 272.125 215.029 272.125C214.632 272.125 214.311 272.448 214.311 272.845C214.311 273.243 214.632 273.565 215.029 273.565Z" fill="white" stroke="white" stroke-width="0.5" stroke-miterlimit="10"/>
<path d="M190.318 289.447C190.788 289.447 191.17 289.064 191.17 288.592C191.17 288.12 190.788 287.737 190.318 287.737C189.847 287.737 189.466 288.12 189.466 288.592C189.466 289.064 189.847 289.447 190.318 289.447Z" stroke="white" stroke-width="0.5" stroke-miterlimit="10"/>
<path d="M5.68433 304.642L5.68433 349.003C5.68433 350.04 6.52259 350.881 7.55666 350.881H34.4535C35.4875 350.881 36.3258 350.04 36.3258 349.003V304.642C36.3258 303.605 35.4875 302.764 34.4535 302.764H7.55666C6.52259 302.764 5.68433 303.605 5.68433 304.642Z" fill="#2CB6BF" stroke="white" stroke-width="0.5" stroke-miterlimit="10"/>
<path d="M31.1013 302.831L30.9219 303.36V350.926H33.8481L34.8796 350.803L36.0008 350.049C36.0905 349.712 36.1914 349.374 36.2811 349.025V307.06C36.2811 306.026 36.1914 305.002 36.1353 303.967L35.1038 302.843L32.8615 302.775L31.1013 302.831Z" fill="#227EB0"/>
<path d="M30.9106 350.881V302.764" stroke="white" stroke-width="0.5" stroke-miterlimit="10"/>
<path d="M36.3147 324.191H30.9106V326.283H36.3147V324.191Z" stroke="white" stroke-width="0.5" stroke-miterlimit="10"/>
<path d="M14.8779 328.274C16.2215 328.274 17.3108 327.181 17.3108 325.833C17.3108 324.485 16.2215 323.392 14.8779 323.392C13.5342 323.392 12.4449 324.485 12.4449 325.833C12.4449 327.181 13.5342 328.274 14.8779 328.274Z" stroke="white" stroke-width="0.5" stroke-miterlimit="10"/>
<path d="M5.68433 304.642L5.68433 349.003C5.68433 350.04 6.52259 350.881 7.55666 350.881H34.4535C35.4875 350.881 36.3258 350.04 36.3258 349.003V304.642C36.3258 303.605 35.4875 302.764 34.4535 302.764H7.55666C6.52259 302.764 5.68433 303.605 5.68433 304.642Z" stroke="white" stroke-width="0.5" stroke-miterlimit="10"/>
<path d="M33.6126 331.828C34.0089 331.828 34.3301 331.506 34.3301 331.108C34.3301 330.71 34.0089 330.388 33.6126 330.388C33.2163 330.388 32.895 330.71 32.895 331.108C32.895 331.506 33.2163 331.828 33.6126 331.828Z" fill="white" stroke="white" stroke-width="0.5" stroke-miterlimit="10"/>
<path d="M8.91324 347.698C9.38384 347.698 9.76533 347.315 9.76533 346.843C9.76533 346.371 9.38384 345.989 8.91324 345.989C8.44265 345.989 8.06116 346.371 8.06116 346.843C8.06116 347.315 8.44265 347.698 8.91324 347.698Z" stroke="white" stroke-width="0.5" stroke-miterlimit="10"/>
<path d="M41.9653 304.642V349.003C41.9653 350.04 42.8036 350.881 43.8377 350.881H70.7345C71.7685 350.881 72.6068 350.04 72.6068 349.003V304.642C72.6068 303.605 71.7685 302.764 70.7345 302.764H43.8377C42.8036 302.764 41.9653 303.605 41.9653 304.642Z" fill="#2CB6BF" stroke="white" stroke-width="0.5" stroke-miterlimit="10"/>
<path d="M67.382 302.831L67.2139 303.36V316.857V350.836H70.1401L71.1716 350.713L72.2928 349.959C72.3824 349.622 72.4834 349.284 72.573 348.935V307.06C72.573 306.026 72.4833 305.002 72.4273 303.967L71.3958 302.843L69.1535 302.775L67.382 302.831Z" fill="#227EB0"/>
<path d="M67.1914 350.881V302.764" stroke="white" stroke-width="0.5" stroke-miterlimit="10"/>
<path d="M72.5954 324.191H67.1914V326.283H72.5954V324.191Z" stroke="white" stroke-width="0.5" stroke-miterlimit="10"/>
<path d="M51.17 328.274C52.5137 328.274 53.6029 327.181 53.6029 325.833C53.6029 324.485 52.5137 323.392 51.17 323.392C49.8263 323.392 48.7371 324.485 48.7371 325.833C48.7371 327.181 49.8263 328.274 51.17 328.274Z" stroke="white" stroke-width="0.5" stroke-miterlimit="10"/>
<path d="M41.9653 304.642V349.003C41.9653 350.04 42.8036 350.881 43.8377 350.881H70.7345C71.7685 350.881 72.6068 350.04 72.6068 349.003V304.642C72.6068 303.605 71.7685 302.764 70.7345 302.764H43.8377C42.8036 302.764 41.9653 303.605 41.9653 304.642Z" stroke="white" stroke-width="0.5" stroke-miterlimit="10"/>
<path d="M69.8936 331.828C70.2899 331.828 70.6111 331.506 70.6111 331.108C70.6111 330.71 70.2899 330.388 69.8936 330.388C69.4973 330.388 69.176 330.71 69.176 331.108C69.176 331.506 69.4973 331.828 69.8936 331.828Z" fill="white" stroke="white" stroke-width="0.5" stroke-miterlimit="10"/>
<path d="M45.1941 347.698C45.6647 347.698 46.0462 347.315 46.0462 346.843C46.0462 346.371 45.6647 345.989 45.1941 345.989C44.7235 345.989 44.342 346.371 44.342 346.843C44.342 347.315 44.7235 347.698 45.1941 347.698Z" stroke="white" stroke-width="0.5" stroke-miterlimit="10"/>
<path d="M78.2461 304.642V349.003C78.2461 350.04 79.0844 350.881 80.1184 350.881H107.015C108.049 350.881 108.888 350.04 108.888 349.003V304.642C108.888 303.605 108.049 302.764 107.015 302.764H80.1184C79.0844 302.764 78.2461 303.605 78.2461 304.642Z" fill="#2CB6BF" stroke="white" stroke-width="0.5" stroke-miterlimit="10"/>
<path d="M103.663 302.831L103.495 303.36V316.857V350.836H106.399L107.43 350.713L108.551 349.959C108.641 349.622 108.742 349.284 108.843 348.935V307.06C108.787 306.026 108.742 305.002 108.686 303.967L107.654 302.843L105.412 302.775L103.663 302.831Z" fill="#227EB0"/>
<path d="M103.472 350.881V302.764" stroke="white" stroke-width="0.5" stroke-miterlimit="10"/>
<path d="M108.876 324.191H103.472V326.283H108.876V324.191Z" stroke="white" stroke-width="0.5" stroke-miterlimit="10"/>
<path d="M87.451 328.274C88.7947 328.274 89.8839 327.181 89.8839 325.833C89.8839 324.485 88.7947 323.392 87.451 323.392C86.1073 323.392 85.0181 324.485 85.0181 325.833C85.0181 327.181 86.1073 328.274 87.451 328.274Z" stroke="white" stroke-width="0.5" stroke-miterlimit="10"/>
<path d="M78.2461 304.642V349.003C78.2461 350.04 79.0844 350.881 80.1184 350.881H107.015C108.049 350.881 108.888 350.04 108.888 349.003V304.642C108.888 303.605 108.049 302.764 107.015 302.764H80.1184C79.0844 302.764 78.2461 303.605 78.2461 304.642Z" stroke="white" stroke-width="0.5" stroke-miterlimit="10"/>
<path d="M106.175 331.828C106.571 331.828 106.892 331.506 106.892 331.108C106.892 330.71 106.571 330.388 106.175 330.388C105.778 330.388 105.457 330.71 105.457 331.108C105.457 331.506 105.778 331.828 106.175 331.828Z" fill="white" stroke="white" stroke-width="0.5" stroke-miterlimit="10"/>
<path d="M81.4751 347.698C81.9457 347.698 82.3272 347.315 82.3272 346.843C82.3272 346.371 81.9457 345.989 81.4751 345.989C81.0045 345.989 80.623 346.371 80.623 346.843C80.623 347.315 81.0045 347.698 81.4751 347.698Z" stroke="white" stroke-width="0.5" stroke-miterlimit="10"/>
<path d="M114.527 304.642V349.003C114.527 350.04 115.365 350.881 116.399 350.881H143.296C144.33 350.881 145.169 350.04 145.169 349.003V304.642C145.169 303.605 144.33 302.764 143.296 302.764H116.399C115.365 302.764 114.527 303.605 114.527 304.642Z" fill="#2CB6BF" stroke="white" stroke-width="0.5" stroke-miterlimit="10"/>
<path d="M139.944 302.831L139.776 303.36V316.857V350.836H142.702L143.734 350.713L144.855 349.959C144.944 349.622 145.045 349.284 145.146 348.935V307.06C145.146 306.026 145.045 305.002 144.989 303.967L143.958 302.843L141.716 302.775L139.944 302.831Z" fill="#227EB0"/>
<path d="M139.753 350.881V302.764" stroke="white" stroke-width="0.5" stroke-miterlimit="10"/>
<path d="M145.157 324.191H139.753V326.283H145.157V324.191Z" stroke="white" stroke-width="0.5" stroke-miterlimit="10"/>
<path d="M123.732 328.274C125.076 328.274 126.165 327.181 126.165 325.833C126.165 324.485 125.076 323.392 123.732 323.392C122.388 323.392 121.299 324.485 121.299 325.833C121.299 327.181 122.388 328.274 123.732 328.274Z" stroke="white" stroke-width="0.5" stroke-miterlimit="10"/>
<path d="M114.527 304.642V349.003C114.527 350.04 115.365 350.881 116.399 350.881H143.296C144.33 350.881 145.169 350.04 145.169 349.003V304.642C145.169 303.605 144.33 302.764 143.296 302.764H116.399C115.365 302.764 114.527 303.605 114.527 304.642Z" stroke="white" stroke-width="0.5" stroke-miterlimit="10"/>
<path d="M142.467 331.828C142.863 331.828 143.184 331.506 143.184 331.108C143.184 330.71 142.863 330.388 142.467 330.388C142.07 330.388 141.749 330.71 141.749 331.108C141.749 331.506 142.07 331.828 142.467 331.828Z" fill="white" stroke="white" stroke-width="0.5" stroke-miterlimit="10"/>
<path d="M117.756 347.698C118.227 347.698 118.608 347.315 118.608 346.843C118.608 346.371 118.227 345.989 117.756 345.989C117.286 345.989 116.904 346.371 116.904 346.843C116.904 347.315 117.286 347.698 117.756 347.698Z" stroke="white" stroke-width="0.5" stroke-miterlimit="10"/>
<path d="M150.808 304.642V349.003C150.808 350.04 151.646 350.881 152.68 350.881H179.577C180.611 350.881 181.45 350.04 181.45 349.003V304.642C181.45 303.605 180.611 302.764 179.577 302.764H152.68C151.646 302.764 150.808 303.605 150.808 304.642Z" fill="#2CB6BF" stroke="white" stroke-width="0.5" stroke-miterlimit="10"/>
<path d="M176.225 302.831L176.057 303.36V350.926H178.972L180.003 350.803L181.124 350.049C181.214 349.712 181.315 349.374 181.416 349.025V307.06C181.36 306.026 181.315 305.002 181.27 303.967L180.227 302.843L177.985 302.775L176.225 302.831Z" fill="#227EB0"/>
<path d="M176.046 350.881V302.764" stroke="white" stroke-width="0.5" stroke-miterlimit="10"/>
<path d="M181.45 324.191H176.046V326.283H181.45V324.191Z" stroke="white" stroke-width="0.5" stroke-miterlimit="10"/>
<path d="M160.013 328.274C161.357 328.274 162.446 327.181 162.446 325.833C162.446 324.485 161.357 323.392 160.013 323.392C158.669 323.392 157.58 324.485 157.58 325.833C157.58 327.181 158.669 328.274 160.013 328.274Z" stroke="white" stroke-width="0.5" stroke-miterlimit="10"/>
<path d="M150.808 304.642V349.003C150.808 350.04 151.646 350.881 152.68 350.881H179.577C180.611 350.881 181.45 350.04 181.45 349.003V304.642C181.45 303.605 180.611 302.764 179.577 302.764H152.68C151.646 302.764 150.808 303.605 150.808 304.642Z" stroke="white" stroke-width="0.5" stroke-miterlimit="10"/>
<path d="M178.748 331.828C179.144 331.828 179.465 331.506 179.465 331.108C179.465 330.71 179.144 330.388 178.748 330.388C178.351 330.388 178.03 330.71 178.03 331.108C178.03 331.506 178.351 331.828 178.748 331.828Z" fill="white" stroke="white" stroke-width="0.5" stroke-miterlimit="10"/>
<path d="M154.037 347.698C154.508 347.698 154.889 347.315 154.889 346.843C154.889 346.371 154.508 345.989 154.037 345.989C153.567 345.989 153.185 346.371 153.185 346.843C153.185 347.315 153.567 347.698 154.037 347.698Z" stroke="white" stroke-width="0.5" stroke-miterlimit="10"/>
<path d="M187.089 304.654V349.014C187.089 350.052 187.927 350.893 188.961 350.893H215.858C216.892 350.893 217.731 350.052 217.731 349.014V304.654C217.731 303.616 216.892 302.775 215.858 302.775H188.961C187.927 302.775 187.089 303.616 187.089 304.654Z" fill="#2CB6BF" stroke="white" stroke-width="0.5" stroke-miterlimit="10"/>
<path d="M212.506 302.831L212.338 303.36V350.926H215.264L216.295 350.803L217.417 350.049C217.517 349.712 217.607 349.374 217.708 349.025V307.06C217.708 306.026 217.607 305.002 217.562 303.967L216.52 302.843L214.277 302.775L212.506 302.831Z" fill="#227EB0"/>
<path d="M212.326 350.881V302.764" stroke="white" stroke-width="0.5" stroke-miterlimit="10"/>
<path d="M217.73 324.191H212.326V326.283H217.73V324.191Z" stroke="white" stroke-width="0.5" stroke-miterlimit="10"/>
<path d="M196.294 328.274C197.637 328.274 198.727 327.181 198.727 325.833C198.727 324.485 197.637 323.392 196.294 323.392C194.95 323.392 193.861 324.485 193.861 325.833C193.861 327.181 194.95 328.274 196.294 328.274Z" stroke="white" stroke-width="0.5" stroke-miterlimit="10"/>
<path d="M187.089 304.654V349.014C187.089 350.052 187.927 350.893 188.961 350.893H215.858C216.892 350.893 217.731 350.052 217.731 349.014V304.654C217.731 303.616 216.892 302.775 215.858 302.775H188.961C187.927 302.775 187.089 303.616 187.089 304.654Z" stroke="white" stroke-width="0.5" stroke-miterlimit="10"/>
<path d="M215.029 331.828C215.425 331.828 215.746 331.506 215.746 331.108C215.746 330.71 215.425 330.388 215.029 330.388C214.632 330.388 214.311 330.71 214.311 331.108C214.311 331.506 214.632 331.828 215.029 331.828Z" fill="white" stroke="white" stroke-width="0.5" stroke-miterlimit="10"/>
<path d="M190.318 347.698C190.788 347.698 191.17 347.315 191.17 346.843C191.17 346.371 190.788 345.989 190.318 345.989C189.847 345.989 189.466 346.371 189.466 346.843C189.466 347.315 189.847 347.698 190.318 347.698Z" stroke="white" stroke-width="0.5" stroke-miterlimit="10"/>
</g>
<defs>
<clipPath id="clip0_165_2">
<rect width="223" height="357" fill="white"/>
</clipPath>
</defs>
</svg>
