<svg width="203" height="357" viewBox="0 0 203 357" fill="none" xmlns="http://www.w3.org/2000/svg">
<g clip-path="url(#clip0_165_587)">
<path d="M202.719 0.281494H0.281006V356.718H202.719V0.281494Z" fill="#2E5985" stroke="white" stroke-width="0.5" stroke-miterlimit="10"/>
<path d="M122.466 83.3549H80.5344C79.4972 83.3549 78.6565 84.1968 78.6565 85.2355V111.429C78.6565 112.467 79.4972 113.309 80.5344 113.309H122.466C123.503 113.309 124.344 112.467 124.344 111.429V85.2355C124.344 84.1968 123.503 83.3549 122.466 83.3549Z" fill="#237EB0" stroke="white" stroke-width="0.5" stroke-miterlimit="10"/>
<path d="M122.263 85.089H80.7256V111.586H122.263V85.089Z" fill="white" stroke="white" stroke-width="0.5" stroke-miterlimit="10"/>
<path d="M134.902 91.2939V101.519C134.902 103.173 136.242 104.514 137.893 104.514H142.448C144.099 104.514 145.439 103.173 145.439 101.519V91.2939C145.439 89.6395 144.099 88.2984 142.448 88.2984H137.893C136.242 88.2984 134.902 89.6395 134.902 91.2939Z" fill="#2CB6BF" stroke="white" stroke-width="0.5" stroke-miterlimit="10"/>
<path d="M145.101 87.7579C145.225 87.7579 145.326 87.6571 145.326 87.5327C145.326 87.4083 145.225 87.3075 145.101 87.3075C144.977 87.3075 144.876 87.4083 144.876 87.5327C144.876 87.6571 144.977 87.7579 145.101 87.7579Z" stroke="white" stroke-width="0.5" stroke-miterlimit="10"/>
<path d="M135.465 87.7579C135.589 87.7579 135.69 87.6571 135.69 87.5327C135.69 87.4083 135.589 87.3075 135.465 87.3075C135.34 87.3075 135.24 87.4083 135.24 87.5327C135.24 87.6571 135.34 87.7579 135.465 87.7579Z" stroke="white" stroke-width="0.5" stroke-miterlimit="10"/>
<path d="M144.989 105.46C145.113 105.46 145.214 105.359 145.214 105.235C145.214 105.111 145.113 105.01 144.989 105.01C144.865 105.01 144.764 105.111 144.764 105.235C144.764 105.359 144.865 105.46 144.989 105.46Z" stroke="white" stroke-width="0.5" stroke-miterlimit="10"/>
<path d="M135.352 105.46C135.476 105.46 135.577 105.359 135.577 105.235C135.577 105.111 135.476 105.01 135.352 105.01C135.228 105.01 135.127 105.111 135.127 105.235C135.127 105.359 135.228 105.46 135.352 105.46Z" stroke="white" stroke-width="0.5" stroke-miterlimit="10"/>
<path d="M88.3494 74.8977H91.7565V75.8887H90.6208V79.222H89.4626V75.8887H88.3494V74.8977Z" fill="white"/>
<path d="M92.1163 77.7017V76.4404C92.0958 76.2213 92.1246 76.0004 92.2005 75.7938C92.2764 75.5873 92.3974 75.4003 92.5548 75.2467C93.044 74.9391 93.622 74.8043 94.1965 74.8639C94.7096 74.8215 95.2216 74.9566 95.6471 75.2467C95.8108 75.4057 95.9363 75.5998 96.0142 75.8143C96.0921 76.0289 96.1204 76.2584 96.0969 76.4855V77.7017C96.1165 77.9362 96.0798 78.1721 95.9898 78.3895C95.8998 78.607 95.7592 78.7997 95.5796 78.9517C95.1002 79.2187 94.552 79.3364 94.0054 79.2895C93.5059 79.3278 93.0069 79.2097 92.5773 78.9517C92.4057 78.7958 92.2742 78.6008 92.1939 78.3832C92.1136 78.1656 92.087 77.9318 92.1163 77.7017ZM93.3307 76.5756V77.5553C93.3133 77.7577 93.3649 77.9601 93.4769 78.1296C93.5668 78.2422 93.803 78.276 94.1516 78.276C94.369 78.2968 94.5878 78.2538 94.7813 78.1521C94.8937 78.062 94.9387 77.8593 94.9387 77.5665V76.5756C94.9387 76.294 94.9387 76.1026 94.7813 76.0125C94.5898 75.9054 94.3693 75.862 94.1516 75.8886C93.9198 75.8725 93.6878 75.9151 93.4769 76.0125C93.3657 76.1781 93.3141 76.3767 93.3307 76.5756Z" fill="white"/>
<path d="M96.6368 77.7017V76.4405C96.6164 76.2214 96.6451 76.0004 96.721 75.7939C96.7969 75.5873 96.918 75.4004 97.0753 75.2468C97.5631 74.9358 98.1423 74.8008 98.7171 74.8639C99.2268 74.8185 99.7363 74.9541 100.156 75.2468C100.323 75.4037 100.452 75.5971 100.532 75.812C100.612 76.0269 100.641 76.2574 100.617 76.4855V77.7017C100.637 77.9385 100.598 78.1765 100.504 78.3946C100.41 78.6127 100.264 78.8041 100.078 78.9517C99.5987 79.2201 99.0501 79.3378 98.5034 79.2896C98.0073 79.33 97.5112 79.2117 97.0866 78.9517C96.9192 78.7931 96.7913 78.5974 96.7132 78.3803C96.6351 78.1632 96.6089 77.9308 96.6368 77.7017ZM97.8287 76.5756V77.5553C97.8114 77.7578 97.8629 77.9602 97.9749 78.1297C98.0649 78.2423 98.301 78.2761 98.6383 78.2761C98.8595 78.2991 99.0826 78.256 99.2793 78.1522C99.4054 77.9847 99.4618 77.7748 99.4367 77.5666V76.5756C99.4607 76.3745 99.4041 76.172 99.2793 76.0126C99.0826 75.9087 98.8595 75.8656 98.6383 75.8887C98.4103 75.8735 98.1822 75.9161 97.9749 76.0126C97.8637 76.1782 97.8122 76.3768 97.8287 76.5756Z" fill="white"/>
<path d="M101.314 74.8977H102.473V78.231H104.283V79.222H101.314V74.8977Z" fill="white"/>
<path d="M105.812 77.8256C105.804 77.8989 105.812 77.9732 105.835 78.0432C105.858 78.1132 105.897 78.1773 105.947 78.231C106.134 78.3148 106.34 78.3459 106.543 78.3211C106.739 78.3353 106.935 78.3045 107.117 78.231C107.162 78.1853 107.196 78.1304 107.217 78.0701C107.239 78.0098 107.247 77.9456 107.241 77.8819C107.241 77.7017 107.241 77.6116 107.139 77.5553C106.969 77.5 106.79 77.4771 106.611 77.4877C106.081 77.5218 105.551 77.4211 105.07 77.195C104.932 77.0654 104.827 76.905 104.762 76.727C104.698 76.549 104.676 76.3582 104.699 76.1702C104.699 75.6071 104.823 75.2468 105.093 75.0441C105.531 74.8384 106.015 74.7492 106.498 74.7851C106.978 74.7359 107.462 74.8258 107.893 75.0441C108.022 75.165 108.121 75.3146 108.181 75.4809C108.242 75.6473 108.262 75.8255 108.241 76.0013V76.1815H107.117C107.117 76.0013 107.117 75.8661 106.982 75.8211C106.833 75.7455 106.665 75.7142 106.498 75.731C106.308 75.7097 106.116 75.7328 105.936 75.7986C105.846 75.7986 105.812 75.9562 105.812 76.1251C105.809 76.1739 105.815 76.2229 105.831 76.2693C105.846 76.3156 105.87 76.3585 105.902 76.3954C106.035 76.4728 106.187 76.5118 106.341 76.508C106.74 76.514 107.138 76.5479 107.533 76.6094C107.678 76.6168 107.819 76.6623 107.942 76.7414C108.064 76.8204 108.163 76.9302 108.23 77.0598C108.329 77.3259 108.371 77.6098 108.354 77.8931C108.371 78.0764 108.348 78.2613 108.286 78.4346C108.224 78.6078 108.124 78.7652 107.994 78.8954C107.537 79.1444 107.016 79.2503 106.498 79.1994C105.644 79.1994 105.138 79.0756 104.947 78.8166C104.731 78.5077 104.628 78.134 104.654 77.758H105.779L105.812 77.8256Z" fill="white"/>
<path d="M109.073 74.8977H110.063V75.6635H109.073V74.8977ZM109.073 76.204H110.063V79.222H109.073V76.204Z" fill="white"/>
<path d="M110.693 79.222V74.8978H112.942C113.402 74.8613 113.859 74.9978 114.223 75.2806C114.392 75.4489 114.521 75.6521 114.603 75.8758C114.684 76.0995 114.716 76.3384 114.696 76.5757V77.5892C114.743 78.0544 114.606 78.5196 114.313 78.8842C114.148 79.0329 113.954 79.1457 113.743 79.2155C113.532 79.2852 113.309 79.3105 113.088 79.2896H110.693V79.222ZM111.817 78.231H112.807C112.889 78.235 112.972 78.2221 113.049 78.193C113.126 78.164 113.197 78.1194 113.256 78.0621C113.323 77.9769 113.372 77.8793 113.401 77.7749C113.43 77.6706 113.438 77.5615 113.425 77.454V76.5757C113.444 76.3868 113.401 76.1969 113.301 76.0351C113.234 75.9777 113.155 75.9351 113.069 75.9099C112.984 75.8847 112.895 75.8775 112.807 75.8887H111.817V78.231Z" fill="white"/>
<path d="M46.3392 7.17334H11.6044C10.5673 7.17334 9.72656 8.01532 9.72656 9.05395V23.761C9.72656 24.7996 10.5673 25.6416 11.6044 25.6416H46.3392C47.3763 25.6416 48.2171 24.7996 48.2171 23.761V9.05395C48.2171 8.01532 47.3763 7.17334 46.3392 7.17334Z" fill="#2CB6BF" stroke="white" stroke-width="0.5" stroke-miterlimit="10"/>
<path d="M43.7756 7.26343L43.6406 7.46613V8.7499V12.6125L43.6294 25.5515H46.0807L46.9353 25.5064L47.5313 25.2587L48.0261 24.8308L48.161 23.9524V21.5988V14.3467V8.85125L47.8911 7.77018L47.1715 7.26343L45.2374 7.17334L43.7756 7.26343Z" fill="#227EB0"/>
<path d="M43.5393 25.6416V7.17334" stroke="white" stroke-width="0.5" stroke-miterlimit="10"/>
<path d="M48.2171 15.5291H43.5393V17.2858H48.2171V15.5291Z" stroke="white" stroke-width="0.5" stroke-miterlimit="10"/>
<path d="M45.8782 22.1168C46.3316 22.1168 46.6991 21.7487 46.6991 21.2947C46.6991 20.8407 46.3316 20.4727 45.8782 20.4727C45.4249 20.4727 45.0574 20.8407 45.0574 21.2947C45.0574 21.7487 45.4249 22.1168 45.8782 22.1168Z" stroke="white" stroke-width="0.5" stroke-miterlimit="10"/>
<path d="M46.3392 7.17334H11.6044C10.5673 7.17334 9.72656 8.01532 9.72656 9.05395V23.761C9.72656 24.7996 10.5673 25.6416 11.6044 25.6416H46.3392C47.3763 25.6416 48.2171 24.7996 48.2171 23.761V9.05395C48.2171 8.01532 47.3763 7.17334 46.3392 7.17334Z" stroke="white" stroke-width="0.5" stroke-miterlimit="10"/>
<path d="M94.6912 7.17334H59.9565C58.9194 7.17334 58.0786 8.01532 58.0786 9.05395V23.761C58.0786 24.7996 58.9194 25.6416 59.9565 25.6416H94.6912C95.7284 25.6416 96.5691 24.7996 96.5691 23.761V9.05395C96.5691 8.01532 95.7284 7.17334 94.6912 7.17334Z" fill="#2CB6BF" stroke="white" stroke-width="0.5" stroke-miterlimit="10"/>
<path d="M92.1276 7.26343L91.9927 7.46613V8.7499V12.6125L91.9814 25.5515H94.4328L95.2986 25.5064L95.8833 25.2587L96.3781 24.8308L96.513 23.9524V21.5988V14.3467V8.85125L96.2319 7.77018L95.5235 7.26343L93.5894 7.17334L92.1276 7.26343Z" fill="#227EB0"/>
<path d="M91.8914 25.6416V7.17334" stroke="white" stroke-width="0.5" stroke-miterlimit="10"/>
<path d="M96.5691 15.5291H91.8914V17.2858H96.5691V15.5291Z" stroke="white" stroke-width="0.5" stroke-miterlimit="10"/>
<path d="M94.2303 22.1168C94.6836 22.1168 95.0511 21.7487 95.0511 21.2947C95.0511 20.8407 94.6836 20.4727 94.2303 20.4727C93.7769 20.4727 93.4094 20.8407 93.4094 21.2947C93.4094 21.7487 93.7769 22.1168 94.2303 22.1168Z" stroke="white" stroke-width="0.5" stroke-miterlimit="10"/>
<path d="M94.6912 7.17334H59.9565C58.9194 7.17334 58.0786 8.01532 58.0786 9.05395V23.761C58.0786 24.7996 58.9194 25.6416 59.9565 25.6416H94.6912C95.7284 25.6416 96.5691 24.7996 96.5691 23.761V9.05395C96.5691 8.01532 95.7284 7.17334 94.6912 7.17334Z" stroke="white" stroke-width="0.5" stroke-miterlimit="10"/>
<path d="M143.043 7.17334H108.309C107.271 7.17334 106.431 8.01532 106.431 9.05395V23.761C106.431 24.7996 107.271 25.6416 108.309 25.6416H143.043C144.08 25.6416 144.921 24.7996 144.921 23.761V9.05395C144.921 8.01532 144.08 7.17334 143.043 7.17334Z" fill="#2CB6BF" stroke="white" stroke-width="0.5" stroke-miterlimit="10"/>
<path d="M140.491 7.26343L140.345 7.46613V8.7499V12.6125L140.333 25.5515H142.785L143.651 25.5064L144.235 25.2587L144.73 24.8308L144.865 23.9524V21.5988V14.3467V8.85125L144.595 7.77018L143.876 7.26343L141.941 7.17334L140.491 7.26343Z" fill="#227EB0"/>
<path d="M140.243 25.6416V7.17334" stroke="white" stroke-width="0.5" stroke-miterlimit="10"/>
<path d="M144.921 15.5291H140.243V17.2858H144.921V15.5291Z" stroke="white" stroke-width="0.5" stroke-miterlimit="10"/>
<path d="M142.582 22.1168C143.036 22.1168 143.403 21.7487 143.403 21.2947C143.403 20.8407 143.036 20.4727 142.582 20.4727C142.129 20.4727 141.761 20.8407 141.761 21.2947C141.761 21.7487 142.129 22.1168 142.582 22.1168Z" stroke="white" stroke-width="0.5" stroke-miterlimit="10"/>
<path d="M143.043 7.17334H108.309C107.271 7.17334 106.431 8.01532 106.431 9.05395V23.761C106.431 24.7996 107.271 25.6416 108.309 25.6416H143.043C144.08 25.6416 144.921 24.7996 144.921 23.761V9.05395C144.921 8.01532 144.08 7.17334 143.043 7.17334Z" stroke="white" stroke-width="0.5" stroke-miterlimit="10"/>
<path d="M191.395 7.17334H156.661C155.623 7.17334 154.783 8.01532 154.783 9.05395V23.761C154.783 24.7996 155.623 25.6416 156.661 25.6416H191.395C192.432 25.6416 193.273 24.7996 193.273 23.761V9.05395C193.273 8.01532 192.432 7.17334 191.395 7.17334Z" fill="#2CB6BF" stroke="white" stroke-width="0.5" stroke-miterlimit="10"/>
<path d="M188.843 7.26343L188.697 7.46613V8.7499V12.6125L188.686 25.5515H191.137L192.003 25.5064L192.587 25.2587L193.082 24.8308L193.217 23.9524V21.5988V14.3467V8.85125L192.947 7.77018L192.228 7.26343L190.294 7.17334L188.843 7.26343Z" fill="#227EB0"/>
<path d="M188.596 25.6416V7.17334" stroke="white" stroke-width="0.5" stroke-miterlimit="10"/>
<path d="M193.273 15.5291H188.596V17.2858H193.273V15.5291Z" stroke="white" stroke-width="0.5" stroke-miterlimit="10"/>
<path d="M190.934 22.1168C191.388 22.1168 191.755 21.7487 191.755 21.2947C191.755 20.8407 191.388 20.4727 190.934 20.4727C190.481 20.4727 190.114 20.8407 190.114 21.2947C190.114 21.7487 190.481 22.1168 190.934 22.1168Z" stroke="white" stroke-width="0.5" stroke-miterlimit="10"/>
<path d="M191.395 7.17334H156.661C155.623 7.17334 154.783 8.01532 154.783 9.05395V23.761C154.783 24.7996 155.623 25.6416 156.661 25.6416H191.395C192.432 25.6416 193.273 24.7996 193.273 23.761V9.05395C193.273 8.01532 192.432 7.17334 191.395 7.17334Z" stroke="white" stroke-width="0.5" stroke-miterlimit="10"/>
<path d="M202.719 237.452H0.281006" stroke="white" stroke-width="0.5" stroke-miterlimit="10"/>
<path d="M202.719 119.199H0.281006" stroke="white" stroke-width="0.5" stroke-miterlimit="10"/>
<path d="M46.3392 29.3802H11.6044C10.5673 29.3802 9.72656 30.2222 9.72656 31.2609V45.9679C9.72656 47.0065 10.5673 47.8485 11.6044 47.8485H46.3392C47.3763 47.8485 48.2171 47.0065 48.2171 45.9679V31.2609C48.2171 30.2222 47.3763 29.3802 46.3392 29.3802Z" fill="#2CB6BF" stroke="white" stroke-width="0.5" stroke-miterlimit="10"/>
<path d="M43.7756 29.4591L43.6406 29.673V30.9455V34.8194L43.6294 47.7584H46.0807L46.9353 47.7134L47.5313 47.4656L48.0261 47.0377L48.161 46.1481V43.8057V36.5536V31.0582L47.8911 29.9771L47.1715 29.4591L45.2374 29.3802L43.7756 29.4591Z" fill="#227EB0"/>
<path d="M43.5393 47.8485V29.3802" stroke="white" stroke-width="0.5" stroke-miterlimit="10"/>
<path d="M48.2171 37.736H43.5393V39.4927H48.2171V37.736Z" stroke="white" stroke-width="0.5" stroke-miterlimit="10"/>
<path d="M45.8782 44.3238C46.3316 44.3238 46.6991 43.9558 46.6991 43.5017C46.6991 43.0477 46.3316 42.6797 45.8782 42.6797C45.4249 42.6797 45.0574 43.0477 45.0574 43.5017C45.0574 43.9558 45.4249 44.3238 45.8782 44.3238Z" stroke="white" stroke-width="0.5" stroke-miterlimit="10"/>
<path d="M46.3392 29.3802H11.6044C10.5673 29.3802 9.72656 30.2222 9.72656 31.2609V45.9679C9.72656 47.0065 10.5673 47.8485 11.6044 47.8485H46.3392C47.3763 47.8485 48.2171 47.0065 48.2171 45.9679V31.2609C48.2171 30.2222 47.3763 29.3802 46.3392 29.3802Z" stroke="white" stroke-width="0.5" stroke-miterlimit="10"/>
<path d="M94.6912 29.3802H59.9565C58.9194 29.3802 58.0786 30.2222 58.0786 31.2609V45.9679C58.0786 47.0065 58.9194 47.8485 59.9565 47.8485H94.6912C95.7284 47.8485 96.5691 47.0065 96.5691 45.9679V31.2609C96.5691 30.2222 95.7284 29.3802 94.6912 29.3802Z" fill="#2CB6BF" stroke="white" stroke-width="0.5" stroke-miterlimit="10"/>
<path d="M92.1276 29.4591L91.9927 29.673V30.9455V34.8194L91.9814 47.7584H94.4328L95.2986 47.7134L95.8833 47.4656L96.3781 47.0377L96.513 46.1481V43.8057V36.5536V31.0582L96.2319 29.9771L95.5235 29.4591L93.5894 29.3802L92.1276 29.4591Z" fill="#227EB0"/>
<path d="M91.8914 47.8485V29.3802" stroke="white" stroke-width="0.5" stroke-miterlimit="10"/>
<path d="M96.5691 37.736H91.8914V39.4927H96.5691V37.736Z" stroke="white" stroke-width="0.5" stroke-miterlimit="10"/>
<path d="M94.2303 44.3238C94.6836 44.3238 95.0511 43.9558 95.0511 43.5017C95.0511 43.0477 94.6836 42.6797 94.2303 42.6797C93.7769 42.6797 93.4094 43.0477 93.4094 43.5017C93.4094 43.9558 93.7769 44.3238 94.2303 44.3238Z" stroke="white" stroke-width="0.5" stroke-miterlimit="10"/>
<path d="M94.6912 29.3802H59.9565C58.9194 29.3802 58.0786 30.2222 58.0786 31.2609V45.9679C58.0786 47.0065 58.9194 47.8485 59.9565 47.8485H94.6912C95.7284 47.8485 96.5691 47.0065 96.5691 45.9679V31.2609C96.5691 30.2222 95.7284 29.3802 94.6912 29.3802Z" stroke="white" stroke-width="0.5" stroke-miterlimit="10"/>
<path d="M143.043 29.3802H108.309C107.271 29.3802 106.431 30.2222 106.431 31.2609V45.9679C106.431 47.0065 107.271 47.8485 108.309 47.8485H143.043C144.08 47.8485 144.921 47.0065 144.921 45.9679V31.2609C144.921 30.2222 144.08 29.3802 143.043 29.3802Z" fill="#2CB6BF" stroke="white" stroke-width="0.5" stroke-miterlimit="10"/>
<path d="M140.491 29.4591L140.345 29.673V30.9455V34.8194L140.333 47.7584H142.785L143.651 47.7134L144.235 47.4656L144.73 47.0377L144.865 46.1481V43.8057V36.5536V31.0582L144.595 29.9771L143.876 29.4591L141.941 29.3802L140.491 29.4591Z" fill="#227EB0"/>
<path d="M140.243 47.8485V29.3802" stroke="white" stroke-width="0.5" stroke-miterlimit="10"/>
<path d="M144.921 37.736H140.243V39.4927H144.921V37.736Z" stroke="white" stroke-width="0.5" stroke-miterlimit="10"/>
<path d="M142.582 44.3238C143.036 44.3238 143.403 43.9558 143.403 43.5017C143.403 43.0477 143.036 42.6797 142.582 42.6797C142.129 42.6797 141.761 43.0477 141.761 43.5017C141.761 43.9558 142.129 44.3238 142.582 44.3238Z" stroke="white" stroke-width="0.5" stroke-miterlimit="10"/>
<path d="M143.043 29.3802H108.309C107.271 29.3802 106.431 30.2222 106.431 31.2609V45.9679C106.431 47.0065 107.271 47.8485 108.309 47.8485H143.043C144.08 47.8485 144.921 47.0065 144.921 45.9679V31.2609C144.921 30.2222 144.08 29.3802 143.043 29.3802Z" stroke="white" stroke-width="0.5" stroke-miterlimit="10"/>
<path d="M191.395 29.3802H156.661C155.623 29.3802 154.783 30.2222 154.783 31.2609V45.9679C154.783 47.0065 155.623 47.8485 156.661 47.8485H191.395C192.432 47.8485 193.273 47.0065 193.273 45.9679V31.2609C193.273 30.2222 192.432 29.3802 191.395 29.3802Z" fill="#2CB6BF" stroke="white" stroke-width="0.5" stroke-miterlimit="10"/>
<path d="M188.843 29.4591L188.697 29.673V30.9455V34.8194L188.686 47.7584H191.137L192.003 47.7134L192.587 47.4656L193.082 47.0377L193.217 46.1481V43.8057V36.5536V31.0582L192.947 29.9771L192.228 29.4591L190.294 29.3802L188.843 29.4591Z" fill="#227EB0"/>
<path d="M188.596 47.8485V29.3802" stroke="white" stroke-width="0.5" stroke-miterlimit="10"/>
<path d="M193.273 37.736H188.596V39.4927H193.273V37.736Z" stroke="white" stroke-width="0.5" stroke-miterlimit="10"/>
<path d="M190.934 44.3238C191.388 44.3238 191.755 43.9558 191.755 43.5017C191.755 43.0477 191.388 42.6797 190.934 42.6797C190.481 42.6797 190.114 43.0477 190.114 43.5017C190.114 43.9558 190.481 44.3238 190.934 44.3238Z" stroke="white" stroke-width="0.5" stroke-miterlimit="10"/>
<path d="M191.395 29.3802H156.661C155.623 29.3802 154.783 30.2222 154.783 31.2609V45.9679C154.783 47.0065 155.623 47.8485 156.661 47.8485H191.395C192.432 47.8485 193.273 47.0065 193.273 45.9679V31.2609C193.273 30.2222 192.432 29.3802 191.395 29.3802Z" stroke="white" stroke-width="0.5" stroke-miterlimit="10"/>
<path d="M46.3392 51.5872H11.6044C10.5673 51.5872 9.72656 52.4291 9.72656 53.4678V68.1748C9.72656 69.2134 10.5673 70.0554 11.6044 70.0554H46.3392C47.3763 70.0554 48.2171 69.2134 48.2171 68.1748V53.4678C48.2171 52.4291 47.3763 51.5872 46.3392 51.5872Z" fill="#2CB6BF" stroke="white" stroke-width="0.5" stroke-miterlimit="10"/>
<path d="M43.7756 51.666L43.6406 51.8799V53.1525V57.0263L43.6294 69.9653H46.0807L46.9353 69.9203L47.5313 69.6613L48.0261 69.2446L48.161 68.355V66.0126V58.7605V53.2651L47.8911 52.184L47.1715 51.666L45.2374 51.5872L43.7756 51.666Z" fill="#227EB0"/>
<path d="M43.5393 70.0554V51.5872" stroke="white" stroke-width="0.5" stroke-miterlimit="10"/>
<path d="M48.2171 59.943H43.5393V61.6997H48.2171V59.943Z" stroke="white" stroke-width="0.5" stroke-miterlimit="10"/>
<path d="M45.8782 66.5307C46.3316 66.5307 46.6991 66.1627 46.6991 65.7087C46.6991 65.2546 46.3316 64.8866 45.8782 64.8866C45.4249 64.8866 45.0574 65.2546 45.0574 65.7087C45.0574 66.1627 45.4249 66.5307 45.8782 66.5307Z" stroke="white" stroke-width="0.5" stroke-miterlimit="10"/>
<path d="M46.3392 51.5872H11.6044C10.5673 51.5872 9.72656 52.4291 9.72656 53.4678V68.1748C9.72656 69.2134 10.5673 70.0554 11.6044 70.0554H46.3392C47.3763 70.0554 48.2171 69.2134 48.2171 68.1748V53.4678C48.2171 52.4291 47.3763 51.5872 46.3392 51.5872Z" stroke="white" stroke-width="0.5" stroke-miterlimit="10"/>
<path d="M94.6912 51.5872H59.9565C58.9194 51.5872 58.0786 52.4291 58.0786 53.4678V68.1748C58.0786 69.2134 58.9194 70.0554 59.9565 70.0554H94.6912C95.7284 70.0554 96.5691 69.2134 96.5691 68.1748V53.4678C96.5691 52.4291 95.7284 51.5872 94.6912 51.5872Z" fill="#2CB6BF" stroke="white" stroke-width="0.5" stroke-miterlimit="10"/>
<path d="M92.1276 51.666L91.9927 51.8799V53.1525V57.0263L91.9814 69.9653H94.4328L95.2986 69.9203L95.8833 69.6613L96.3781 69.2446L96.513 68.355V66.0126V58.7605V53.2651L96.2319 52.184L95.5235 51.666L93.5894 51.5872L92.1276 51.666Z" fill="#227EB0"/>
<path d="M91.8914 70.0554V51.5872" stroke="white" stroke-width="0.5" stroke-miterlimit="10"/>
<path d="M96.5691 59.943H91.8914V61.6997H96.5691V59.943Z" stroke="white" stroke-width="0.5" stroke-miterlimit="10"/>
<path d="M94.2303 66.5307C94.6836 66.5307 95.0511 66.1627 95.0511 65.7087C95.0511 65.2546 94.6836 64.8866 94.2303 64.8866C93.7769 64.8866 93.4094 65.2546 93.4094 65.7087C93.4094 66.1627 93.7769 66.5307 94.2303 66.5307Z" stroke="white" stroke-width="0.5" stroke-miterlimit="10"/>
<path d="M94.6912 51.5872H59.9565C58.9194 51.5872 58.0786 52.4291 58.0786 53.4678V68.1748C58.0786 69.2134 58.9194 70.0554 59.9565 70.0554H94.6912C95.7284 70.0554 96.5691 69.2134 96.5691 68.1748V53.4678C96.5691 52.4291 95.7284 51.5872 94.6912 51.5872Z" stroke="white" stroke-width="0.5" stroke-miterlimit="10"/>
<path d="M143.043 51.5872H108.309C107.271 51.5872 106.431 52.4291 106.431 53.4678V68.1748C106.431 69.2134 107.271 70.0554 108.309 70.0554H143.043C144.08 70.0554 144.921 69.2134 144.921 68.1748V53.4678C144.921 52.4291 144.08 51.5872 143.043 51.5872Z" fill="#2CB6BF" stroke="white" stroke-width="0.5" stroke-miterlimit="10"/>
<path d="M140.491 51.666L140.345 51.8799V53.1525V57.0263L140.333 69.9653H142.785L143.651 69.9203L144.235 69.6613L144.73 69.2446L144.865 68.355V66.0126V58.7605V53.2651L144.595 52.184L143.876 51.666L141.941 51.5872L140.491 51.666Z" fill="#227EB0"/>
<path d="M140.243 70.0554V51.5872" stroke="white" stroke-width="0.5" stroke-miterlimit="10"/>
<path d="M144.921 59.943H140.243V61.6997H144.921V59.943Z" stroke="white" stroke-width="0.5" stroke-miterlimit="10"/>
<path d="M142.582 66.5307C143.036 66.5307 143.403 66.1627 143.403 65.7087C143.403 65.2546 143.036 64.8866 142.582 64.8866C142.129 64.8866 141.761 65.2546 141.761 65.7087C141.761 66.1627 142.129 66.5307 142.582 66.5307Z" stroke="white" stroke-width="0.5" stroke-miterlimit="10"/>
<path d="M143.043 51.5872H108.309C107.271 51.5872 106.431 52.4291 106.431 53.4678V68.1748C106.431 69.2134 107.271 70.0554 108.309 70.0554H143.043C144.08 70.0554 144.921 69.2134 144.921 68.1748V53.4678C144.921 52.4291 144.08 51.5872 143.043 51.5872Z" stroke="white" stroke-width="0.5" stroke-miterlimit="10"/>
<path d="M191.395 51.5872H156.661C155.623 51.5872 154.783 52.4291 154.783 53.4678V68.1748C154.783 69.2134 155.623 70.0554 156.661 70.0554H191.395C192.432 70.0554 193.273 69.2134 193.273 68.1748V53.4678C193.273 52.4291 192.432 51.5872 191.395 51.5872Z" fill="#2CB6BF" stroke="white" stroke-width="0.5" stroke-miterlimit="10"/>
<path d="M188.843 51.666L188.697 51.8799V53.1525V57.0263L188.686 69.9653H191.137L192.003 69.9203L192.587 69.6613L193.082 69.2446L193.217 68.355V66.0126V58.7605V53.2651L192.947 52.184L192.228 51.666L190.294 51.5872L188.843 51.666Z" fill="#227EB0"/>
<path d="M188.596 70.0554V51.5872" stroke="white" stroke-width="0.5" stroke-miterlimit="10"/>
<path d="M193.273 59.943H188.596V61.6997H193.273V59.943Z" stroke="white" stroke-width="0.5" stroke-miterlimit="10"/>
<path d="M190.934 66.5307C191.388 66.5307 191.755 66.1627 191.755 65.7087C191.755 65.2546 191.388 64.8866 190.934 64.8866C190.481 64.8866 190.114 65.2546 190.114 65.7087C190.114 66.1627 190.481 66.5307 190.934 66.5307Z" stroke="white" stroke-width="0.5" stroke-miterlimit="10"/>
<path d="M191.395 51.5872H156.661C155.623 51.5872 154.783 52.4291 154.783 53.4678V68.1748C154.783 69.2134 155.623 70.0554 156.661 70.0554H191.395C192.432 70.0554 193.273 69.2134 193.273 68.1748V53.4678C193.273 52.4291 192.432 51.5872 191.395 51.5872Z" stroke="white" stroke-width="0.5" stroke-miterlimit="10"/>
<path d="M46.3392 73.7941H11.6044C10.5673 73.7941 9.72656 74.636 9.72656 75.6747V90.3817C9.72656 91.4203 10.5673 92.2623 11.6044 92.2623H46.3392C47.3763 92.2623 48.2171 91.4203 48.2171 90.3817V75.6747C48.2171 74.636 47.3763 73.7941 46.3392 73.7941Z" fill="#2CB6BF" stroke="white" stroke-width="0.5" stroke-miterlimit="10"/>
<path d="M43.7756 73.8842L43.6406 74.0869V75.3594V79.2332L43.6294 92.1722H46.0807L46.9353 92.1272L47.5313 91.8682L48.0261 91.4515L48.161 90.5619V88.2196V80.9674V75.472L47.8911 74.3909L47.1715 73.8842L45.2374 73.7941L43.7756 73.8842Z" fill="#227EB0"/>
<path d="M43.5393 92.2623V73.7941" stroke="white" stroke-width="0.5" stroke-miterlimit="10"/>
<path d="M48.2171 82.1499H43.5393V83.9066H48.2171V82.1499Z" stroke="white" stroke-width="0.5" stroke-miterlimit="10"/>
<path d="M45.8782 88.7376C46.3316 88.7376 46.6991 88.3696 46.6991 87.9156C46.6991 87.4616 46.3316 87.0935 45.8782 87.0935C45.4249 87.0935 45.0574 87.4616 45.0574 87.9156C45.0574 88.3696 45.4249 88.7376 45.8782 88.7376Z" stroke="white" stroke-width="0.5" stroke-miterlimit="10"/>
<path d="M46.3392 73.7941H11.6044C10.5673 73.7941 9.72656 74.636 9.72656 75.6747V90.3817C9.72656 91.4203 10.5673 92.2623 11.6044 92.2623H46.3392C47.3763 92.2623 48.2171 91.4203 48.2171 90.3817V75.6747C48.2171 74.636 47.3763 73.7941 46.3392 73.7941Z" stroke="white" stroke-width="0.5" stroke-miterlimit="10"/>
<path d="M191.395 73.7941H156.661C155.623 73.7941 154.783 74.636 154.783 75.6747V90.3817C154.783 91.4203 155.623 92.2623 156.661 92.2623H191.395C192.432 92.2623 193.273 91.4203 193.273 90.3817V75.6747C193.273 74.636 192.432 73.7941 191.395 73.7941Z" fill="#2CB6BF" stroke="white" stroke-width="0.5" stroke-miterlimit="10"/>
<path d="M188.843 73.8842L188.697 74.0869V75.3594V79.2332L188.686 92.1722H191.137L192.003 92.1272L192.587 91.8682L193.082 91.4515L193.217 90.5619V88.2196V80.9674V75.472L192.947 74.3909L192.228 73.8842L190.294 73.7941L188.843 73.8842Z" fill="#227EB0"/>
<path d="M188.596 92.2623V73.7941" stroke="white" stroke-width="0.5" stroke-miterlimit="10"/>
<path d="M193.273 82.1499H188.596V83.9066H193.273V82.1499Z" stroke="white" stroke-width="0.5" stroke-miterlimit="10"/>
<path d="M190.934 88.7376C191.388 88.7376 191.755 88.3696 191.755 87.9156C191.755 87.4616 191.388 87.0935 190.934 87.0935C190.481 87.0935 190.114 87.4616 190.114 87.9156C190.114 88.3696 190.481 88.7376 190.934 88.7376Z" stroke="white" stroke-width="0.5" stroke-miterlimit="10"/>
<path d="M191.395 73.7941H156.661C155.623 73.7941 154.783 74.636 154.783 75.6747V90.3817C154.783 91.4203 155.623 92.2623 156.661 92.2623H191.395C192.432 92.2623 193.273 91.4203 193.273 90.3817V75.6747C193.273 74.636 192.432 73.7941 191.395 73.7941Z" stroke="white" stroke-width="0.5" stroke-miterlimit="10"/>
<path d="M46.3392 96.0011H11.6044C10.5673 96.0011 9.72656 96.8431 9.72656 97.8817V112.589C9.72656 113.627 10.5673 114.469 11.6044 114.469H46.3392C47.3763 114.469 48.2171 113.627 48.2171 112.589V97.8817C48.2171 96.8431 47.3763 96.0011 46.3392 96.0011Z" fill="#2CB6BF" stroke="white" stroke-width="0.5" stroke-miterlimit="10"/>
<path d="M43.7756 96.0799L43.6406 96.2826V97.5664V101.44L43.6294 114.379H46.0807L46.9353 114.334L47.5313 114.075L48.0261 113.659L48.161 112.769V110.427V103.174V97.679L47.8911 96.5979L47.1715 96.0799L45.2374 96.0011L43.7756 96.0799Z" fill="#227EB0"/>
<path d="M43.5393 114.469V96.0011" stroke="white" stroke-width="0.5" stroke-miterlimit="10"/>
<path d="M48.2171 104.357H43.5393V106.114H48.2171V104.357Z" stroke="white" stroke-width="0.5" stroke-miterlimit="10"/>
<path d="M45.8782 110.945C46.3316 110.945 46.6991 110.576 46.6991 110.122C46.6991 109.668 46.3316 109.3 45.8782 109.3C45.4249 109.3 45.0574 109.668 45.0574 110.122C45.0574 110.576 45.4249 110.945 45.8782 110.945Z" stroke="white" stroke-width="0.5" stroke-miterlimit="10"/>
<path d="M46.3392 96.0011H11.6044C10.5673 96.0011 9.72656 96.8431 9.72656 97.8817V112.589C9.72656 113.627 10.5673 114.469 11.6044 114.469H46.3392C47.3763 114.469 48.2171 113.627 48.2171 112.589V97.8817C48.2171 96.8431 47.3763 96.0011 46.3392 96.0011Z" stroke="white" stroke-width="0.5" stroke-miterlimit="10"/>
<path d="M191.395 96.0011H156.661C155.623 96.0011 154.783 96.8431 154.783 97.8817V112.589C154.783 113.627 155.623 114.469 156.661 114.469H191.395C192.432 114.469 193.273 113.627 193.273 112.589V97.8817C193.273 96.8431 192.432 96.0011 191.395 96.0011Z" fill="#2CB6BF" stroke="white" stroke-width="0.5" stroke-miterlimit="10"/>
<path d="M188.843 96.0799L188.697 96.2826V97.5664V101.44L188.686 114.379H191.137L192.003 114.334L192.587 114.075L193.082 113.659L193.217 112.769V110.427V103.174V97.679L192.947 96.5979L192.228 96.0799L190.294 96.0011L188.843 96.0799Z" fill="#227EB0"/>
<path d="M188.596 114.469V96.0011" stroke="white" stroke-width="0.5" stroke-miterlimit="10"/>
<path d="M193.273 104.357H188.596V106.114H193.273V104.357Z" stroke="white" stroke-width="0.5" stroke-miterlimit="10"/>
<path d="M190.934 110.945C191.388 110.945 191.755 110.576 191.755 110.122C191.755 109.668 191.388 109.3 190.934 109.3C190.481 109.3 190.114 109.668 190.114 110.122C190.114 110.576 190.481 110.945 190.934 110.945Z" stroke="white" stroke-width="0.5" stroke-miterlimit="10"/>
<path d="M191.395 96.0011H156.661C155.623 96.0011 154.783 96.8431 154.783 97.8817V112.589C154.783 113.627 155.623 114.469 156.661 114.469H191.395C192.432 114.469 193.273 113.627 193.273 112.589V97.8817C193.273 96.8431 192.432 96.0011 191.395 96.0011Z" stroke="white" stroke-width="0.5" stroke-miterlimit="10"/>
<path d="M46.3392 125.179H11.6044C10.5673 125.179 9.72656 126.021 9.72656 127.059V141.766C9.72656 142.805 10.5673 143.647 11.6044 143.647H46.3392C47.3763 143.647 48.2171 142.805 48.2171 141.766V127.059C48.2171 126.021 47.3763 125.179 46.3392 125.179Z" fill="#2CB6BF" stroke="white" stroke-width="0.5" stroke-miterlimit="10"/>
<path d="M43.7756 125.257L43.6406 125.46V126.744V130.618L43.6294 143.557H46.0807L46.9353 143.512L47.5313 143.253L48.0261 142.836L48.161 141.946V139.604V132.352V126.856L47.8911 125.775L47.1715 125.257L45.2374 125.179L43.7756 125.257Z" fill="#227EB0"/>
<path d="M43.5393 143.647V125.179" stroke="white" stroke-width="0.5" stroke-miterlimit="10"/>
<path d="M48.2171 133.534H43.5393V135.291H48.2171V133.534Z" stroke="white" stroke-width="0.5" stroke-miterlimit="10"/>
<path d="M45.8782 140.122C46.3316 140.122 46.6991 139.754 46.6991 139.3C46.6991 138.846 46.3316 138.478 45.8782 138.478C45.4249 138.478 45.0574 138.846 45.0574 139.3C45.0574 139.754 45.4249 140.122 45.8782 140.122Z" stroke="white" stroke-width="0.5" stroke-miterlimit="10"/>
<path d="M46.3392 125.179H11.6044C10.5673 125.179 9.72656 126.021 9.72656 127.059V141.766C9.72656 142.805 10.5673 143.647 11.6044 143.647H46.3392C47.3763 143.647 48.2171 142.805 48.2171 141.766V127.059C48.2171 126.021 47.3763 125.179 46.3392 125.179Z" stroke="white" stroke-width="0.5" stroke-miterlimit="10"/>
<path d="M94.6912 125.179H59.9565C58.9194 125.179 58.0786 126.021 58.0786 127.059V141.766C58.0786 142.805 58.9194 143.647 59.9565 143.647H94.6912C95.7284 143.647 96.5691 142.805 96.5691 141.766V127.059C96.5691 126.021 95.7284 125.179 94.6912 125.179Z" fill="#2CB6BF" stroke="white" stroke-width="0.5" stroke-miterlimit="10"/>
<path d="M92.1276 125.257L91.9927 125.46V126.744V130.618L91.9814 143.557H94.4328L95.2986 143.512L95.8833 143.253L96.3781 142.836L96.513 141.946V139.604V132.352V126.856L96.2319 125.775L95.5235 125.257L93.5894 125.179L92.1276 125.257Z" fill="#227EB0"/>
<path d="M91.8914 143.647V125.179" stroke="white" stroke-width="0.5" stroke-miterlimit="10"/>
<path d="M96.5691 133.534H91.8914V135.291H96.5691V133.534Z" stroke="white" stroke-width="0.5" stroke-miterlimit="10"/>
<path d="M94.2303 140.122C94.6836 140.122 95.0511 139.754 95.0511 139.3C95.0511 138.846 94.6836 138.478 94.2303 138.478C93.7769 138.478 93.4094 138.846 93.4094 139.3C93.4094 139.754 93.7769 140.122 94.2303 140.122Z" stroke="white" stroke-width="0.5" stroke-miterlimit="10"/>
<path d="M94.6912 125.179H59.9565C58.9194 125.179 58.0786 126.021 58.0786 127.059V141.766C58.0786 142.805 58.9194 143.647 59.9565 143.647H94.6912C95.7284 143.647 96.5691 142.805 96.5691 141.766V127.059C96.5691 126.021 95.7284 125.179 94.6912 125.179Z" stroke="white" stroke-width="0.5" stroke-miterlimit="10"/>
<path d="M143.043 125.179H108.309C107.271 125.179 106.431 126.021 106.431 127.059V141.766C106.431 142.805 107.271 143.647 108.309 143.647H143.043C144.08 143.647 144.921 142.805 144.921 141.766V127.059C144.921 126.021 144.08 125.179 143.043 125.179Z" fill="#2CB6BF" stroke="white" stroke-width="0.5" stroke-miterlimit="10"/>
<path d="M140.491 125.257L140.345 125.46V126.744V130.618L140.333 143.557H142.785L143.651 143.512L144.235 143.253L144.73 142.836L144.865 141.946V139.604V132.352V126.856L144.595 125.775L143.876 125.257L141.941 125.179L140.491 125.257Z" fill="#227EB0"/>
<path d="M140.243 143.647V125.179" stroke="white" stroke-width="0.5" stroke-miterlimit="10"/>
<path d="M144.921 133.534H140.243V135.291H144.921V133.534Z" stroke="white" stroke-width="0.5" stroke-miterlimit="10"/>
<path d="M142.582 140.122C143.036 140.122 143.403 139.754 143.403 139.3C143.403 138.846 143.036 138.478 142.582 138.478C142.129 138.478 141.761 138.846 141.761 139.3C141.761 139.754 142.129 140.122 142.582 140.122Z" stroke="white" stroke-width="0.5" stroke-miterlimit="10"/>
<path d="M143.043 125.179H108.309C107.271 125.179 106.431 126.021 106.431 127.059V141.766C106.431 142.805 107.271 143.647 108.309 143.647H143.043C144.08 143.647 144.921 142.805 144.921 141.766V127.059C144.921 126.021 144.08 125.179 143.043 125.179Z" stroke="white" stroke-width="0.5" stroke-miterlimit="10"/>
<path d="M191.395 125.179H156.661C155.623 125.179 154.783 126.021 154.783 127.059V141.766C154.783 142.805 155.623 143.647 156.661 143.647H191.395C192.432 143.647 193.273 142.805 193.273 141.766V127.059C193.273 126.021 192.432 125.179 191.395 125.179Z" fill="#2CB6BF" stroke="white" stroke-width="0.5" stroke-miterlimit="10"/>
<path d="M188.843 125.257L188.697 125.46V126.744V130.618L188.686 143.557H191.137L192.003 143.512L192.587 143.253L193.082 142.836L193.217 141.946V139.604V132.352V126.856L192.947 125.775L192.228 125.257L190.294 125.179L188.843 125.257Z" fill="#227EB0"/>
<path d="M188.596 143.647V125.179" stroke="white" stroke-width="0.5" stroke-miterlimit="10"/>
<path d="M193.273 133.534H188.596V135.291H193.273V133.534Z" stroke="white" stroke-width="0.5" stroke-miterlimit="10"/>
<path d="M190.934 140.122C191.388 140.122 191.755 139.754 191.755 139.3C191.755 138.846 191.388 138.478 190.934 138.478C190.481 138.478 190.114 138.846 190.114 139.3C190.114 139.754 190.481 140.122 190.934 140.122Z" stroke="white" stroke-width="0.5" stroke-miterlimit="10"/>
<path d="M191.395 125.179H156.661C155.623 125.179 154.783 126.021 154.783 127.059V141.766C154.783 142.805 155.623 143.647 156.661 143.647H191.395C192.432 143.647 193.273 142.805 193.273 141.766V127.059C193.273 126.021 192.432 125.179 191.395 125.179Z" stroke="white" stroke-width="0.5" stroke-miterlimit="10"/>
<path d="M46.3392 147.577H11.6044C10.5673 147.577 9.72656 148.419 9.72656 149.458V164.165C9.72656 165.203 10.5673 166.045 11.6044 166.045H46.3392C47.3763 166.045 48.2171 165.203 48.2171 164.165V149.458C48.2171 148.419 47.3763 147.577 46.3392 147.577Z" fill="#2CB6BF" stroke="white" stroke-width="0.5" stroke-miterlimit="10"/>
<path d="M43.7756 147.667L43.6406 147.87V149.153V153.027L43.6294 165.955H46.0807L46.9353 165.91L47.5313 165.662L48.0261 165.234L48.161 164.356V162.002V154.75V149.255L47.8911 148.174L47.1715 147.667L45.2374 147.577L43.7756 147.667Z" fill="#227EB0"/>
<path d="M43.5393 166.045V147.577" stroke="white" stroke-width="0.5" stroke-miterlimit="10"/>
<path d="M48.2171 155.933H43.5393V157.689H48.2171V155.933Z" stroke="white" stroke-width="0.5" stroke-miterlimit="10"/>
<path d="M45.8782 162.521C46.3316 162.521 46.6991 162.153 46.6991 161.699C46.6991 161.245 46.3316 160.876 45.8782 160.876C45.4249 160.876 45.0574 161.245 45.0574 161.699C45.0574 162.153 45.4249 162.521 45.8782 162.521Z" stroke="white" stroke-width="0.5" stroke-miterlimit="10"/>
<path d="M46.3392 147.577H11.6044C10.5673 147.577 9.72656 148.419 9.72656 149.458V164.165C9.72656 165.203 10.5673 166.045 11.6044 166.045H46.3392C47.3763 166.045 48.2171 165.203 48.2171 164.165V149.458C48.2171 148.419 47.3763 147.577 46.3392 147.577Z" stroke="white" stroke-width="0.5" stroke-miterlimit="10"/>
<path d="M94.6912 147.577H59.9565C58.9194 147.577 58.0786 148.419 58.0786 149.458V164.165C58.0786 165.203 58.9194 166.045 59.9565 166.045H94.6912C95.7284 166.045 96.5691 165.203 96.5691 164.165V149.458C96.5691 148.419 95.7284 147.577 94.6912 147.577Z" fill="#2CB6BF" stroke="white" stroke-width="0.5" stroke-miterlimit="10"/>
<path d="M92.1276 147.667L91.9927 147.87V149.153V153.027L91.9814 165.955H94.4328L95.2986 165.91L95.8833 165.662L96.3781 165.234L96.513 164.356V162.002V154.75V149.255L96.2319 148.174L95.5235 147.667L93.5894 147.577L92.1276 147.667Z" fill="#227EB0"/>
<path d="M91.8914 166.045V147.577" stroke="white" stroke-width="0.5" stroke-miterlimit="10"/>
<path d="M96.5691 155.933H91.8914V157.689H96.5691V155.933Z" stroke="white" stroke-width="0.5" stroke-miterlimit="10"/>
<path d="M94.2303 162.521C94.6836 162.521 95.0511 162.153 95.0511 161.699C95.0511 161.245 94.6836 160.876 94.2303 160.876C93.7769 160.876 93.4094 161.245 93.4094 161.699C93.4094 162.153 93.7769 162.521 94.2303 162.521Z" stroke="white" stroke-width="0.5" stroke-miterlimit="10"/>
<path d="M94.6912 147.577H59.9565C58.9194 147.577 58.0786 148.419 58.0786 149.458V164.165C58.0786 165.203 58.9194 166.045 59.9565 166.045H94.6912C95.7284 166.045 96.5691 165.203 96.5691 164.165V149.458C96.5691 148.419 95.7284 147.577 94.6912 147.577Z" stroke="white" stroke-width="0.5" stroke-miterlimit="10"/>
<path d="M143.043 147.577H108.309C107.271 147.577 106.431 148.419 106.431 149.458V164.165C106.431 165.203 107.271 166.045 108.309 166.045H143.043C144.08 166.045 144.921 165.203 144.921 164.165V149.458C144.921 148.419 144.08 147.577 143.043 147.577Z" fill="#2CB6BF" stroke="white" stroke-width="0.5" stroke-miterlimit="10"/>
<path d="M140.491 147.667L140.345 147.87V149.153V153.027L140.333 165.955H142.785L143.651 165.91L144.235 165.662L144.73 165.234L144.865 164.356V162.002V154.75V149.255L144.595 148.174L143.876 147.667L141.941 147.577L140.491 147.667Z" fill="#227EB0"/>
<path d="M140.243 166.045V147.577" stroke="white" stroke-width="0.5" stroke-miterlimit="10"/>
<path d="M144.921 155.933H140.243V157.689H144.921V155.933Z" stroke="white" stroke-width="0.5" stroke-miterlimit="10"/>
<path d="M142.582 162.521C143.036 162.521 143.403 162.153 143.403 161.699C143.403 161.245 143.036 160.876 142.582 160.876C142.129 160.876 141.761 161.245 141.761 161.699C141.761 162.153 142.129 162.521 142.582 162.521Z" stroke="white" stroke-width="0.5" stroke-miterlimit="10"/>
<path d="M143.043 147.577H108.309C107.271 147.577 106.431 148.419 106.431 149.458V164.165C106.431 165.203 107.271 166.045 108.309 166.045H143.043C144.08 166.045 144.921 165.203 144.921 164.165V149.458C144.921 148.419 144.08 147.577 143.043 147.577Z" stroke="white" stroke-width="0.5" stroke-miterlimit="10"/>
<path d="M191.395 147.577H156.661C155.623 147.577 154.783 148.419 154.783 149.458V164.165C154.783 165.203 155.623 166.045 156.661 166.045H191.395C192.432 166.045 193.273 165.203 193.273 164.165V149.458C193.273 148.419 192.432 147.577 191.395 147.577Z" fill="#2CB6BF" stroke="white" stroke-width="0.5" stroke-miterlimit="10"/>
<path d="M188.843 147.667L188.697 147.87V149.153V153.027L188.686 165.955H191.137L192.003 165.91L192.587 165.662L193.082 165.234L193.217 164.356V162.002V154.75V149.255L192.947 148.174L192.228 147.667L190.294 147.577L188.843 147.667Z" fill="#227EB0"/>
<path d="M188.596 166.045V147.577" stroke="white" stroke-width="0.5" stroke-miterlimit="10"/>
<path d="M193.273 155.933H188.596V157.689H193.273V155.933Z" stroke="white" stroke-width="0.5" stroke-miterlimit="10"/>
<path d="M190.934 162.521C191.388 162.521 191.755 162.153 191.755 161.699C191.755 161.245 191.388 160.876 190.934 160.876C190.481 160.876 190.114 161.245 190.114 161.699C190.114 162.153 190.481 162.521 190.934 162.521Z" stroke="white" stroke-width="0.5" stroke-miterlimit="10"/>
<path d="M191.395 147.577H156.661C155.623 147.577 154.783 148.419 154.783 149.458V164.165C154.783 165.203 155.623 166.045 156.661 166.045H191.395C192.432 166.045 193.273 165.203 193.273 164.165V149.458C193.273 148.419 192.432 147.577 191.395 147.577Z" stroke="white" stroke-width="0.5" stroke-miterlimit="10"/>
<path d="M46.3392 170.234H11.6044C10.5673 170.234 9.72656 171.076 9.72656 172.115V186.822C9.72656 187.861 10.5673 188.703 11.6044 188.703H46.3392C47.3763 188.703 48.2171 187.861 48.2171 186.822V172.115C48.2171 171.076 47.3763 170.234 46.3392 170.234Z" fill="#2CB6BF" stroke="white" stroke-width="0.5" stroke-miterlimit="10"/>
<path d="M43.7756 170.313L43.6406 170.516V171.8V175.673L43.6294 188.613H46.0807L46.9353 188.556L47.5313 188.308L48.0261 187.892L48.161 187.002V184.649V177.396V171.912L47.8911 170.82L47.1715 170.313L45.2374 170.234L43.7756 170.313Z" fill="#227EB0"/>
<path d="M43.5393 188.703V170.234" stroke="white" stroke-width="0.5" stroke-miterlimit="10"/>
<path d="M48.2171 178.59H43.5393V180.347H48.2171V178.59Z" stroke="white" stroke-width="0.5" stroke-miterlimit="10"/>
<path d="M45.8782 185.178C46.3316 185.178 46.6991 184.81 46.6991 184.356C46.6991 183.902 46.3316 183.534 45.8782 183.534C45.4249 183.534 45.0574 183.902 45.0574 184.356C45.0574 184.81 45.4249 185.178 45.8782 185.178Z" stroke="white" stroke-width="0.5" stroke-miterlimit="10"/>
<path d="M46.3392 170.234H11.6044C10.5673 170.234 9.72656 171.076 9.72656 172.115V186.822C9.72656 187.861 10.5673 188.703 11.6044 188.703H46.3392C47.3763 188.703 48.2171 187.861 48.2171 186.822V172.115C48.2171 171.076 47.3763 170.234 46.3392 170.234Z" stroke="white" stroke-width="0.5" stroke-miterlimit="10"/>
<path d="M94.6912 170.234H59.9565C58.9194 170.234 58.0786 171.076 58.0786 172.115V186.822C58.0786 187.861 58.9194 188.703 59.9565 188.703H94.6912C95.7284 188.703 96.5691 187.861 96.5691 186.822V172.115C96.5691 171.076 95.7284 170.234 94.6912 170.234Z" fill="#2CB6BF" stroke="white" stroke-width="0.5" stroke-miterlimit="10"/>
<path d="M92.1276 170.313L91.9927 170.516V171.8V175.673L91.9814 188.613H94.4328L95.2986 188.556L95.8833 188.308L96.3781 187.892L96.513 187.002V184.649V177.396V171.912L96.2319 170.82L95.5235 170.313L93.5894 170.234L92.1276 170.313Z" fill="#227EB0"/>
<path d="M91.8914 188.703V170.234" stroke="white" stroke-width="0.5" stroke-miterlimit="10"/>
<path d="M96.5691 178.59H91.8914V180.347H96.5691V178.59Z" stroke="white" stroke-width="0.5" stroke-miterlimit="10"/>
<path d="M94.2303 185.178C94.6836 185.178 95.0511 184.81 95.0511 184.356C95.0511 183.902 94.6836 183.534 94.2303 183.534C93.7769 183.534 93.4094 183.902 93.4094 184.356C93.4094 184.81 93.7769 185.178 94.2303 185.178Z" stroke="white" stroke-width="0.5" stroke-miterlimit="10"/>
<path d="M94.6912 170.234H59.9565C58.9194 170.234 58.0786 171.076 58.0786 172.115V186.822C58.0786 187.861 58.9194 188.703 59.9565 188.703H94.6912C95.7284 188.703 96.5691 187.861 96.5691 186.822V172.115C96.5691 171.076 95.7284 170.234 94.6912 170.234Z" stroke="white" stroke-width="0.5" stroke-miterlimit="10"/>
<path d="M143.043 170.234H108.309C107.271 170.234 106.431 171.076 106.431 172.115V186.822C106.431 187.861 107.271 188.703 108.309 188.703H143.043C144.08 188.703 144.921 187.861 144.921 186.822V172.115C144.921 171.076 144.08 170.234 143.043 170.234Z" fill="#2CB6BF" stroke="white" stroke-width="0.5" stroke-miterlimit="10"/>
<path d="M140.491 170.313L140.345 170.516V171.8V175.673L140.333 188.613H142.785L143.651 188.556L144.235 188.308L144.73 187.892L144.865 187.002V184.649V177.396V171.912L144.595 170.82L143.876 170.313L141.941 170.234L140.491 170.313Z" fill="#227EB0"/>
<path d="M140.243 188.703V170.234" stroke="white" stroke-width="0.5" stroke-miterlimit="10"/>
<path d="M144.921 178.59H140.243V180.347H144.921V178.59Z" stroke="white" stroke-width="0.5" stroke-miterlimit="10"/>
<path d="M142.582 185.178C143.036 185.178 143.403 184.81 143.403 184.356C143.403 183.902 143.036 183.534 142.582 183.534C142.129 183.534 141.761 183.902 141.761 184.356C141.761 184.81 142.129 185.178 142.582 185.178Z" stroke="white" stroke-width="0.5" stroke-miterlimit="10"/>
<path d="M143.043 170.234H108.309C107.271 170.234 106.431 171.076 106.431 172.115V186.822C106.431 187.861 107.271 188.703 108.309 188.703H143.043C144.08 188.703 144.921 187.861 144.921 186.822V172.115C144.921 171.076 144.08 170.234 143.043 170.234Z" stroke="white" stroke-width="0.5" stroke-miterlimit="10"/>
<path d="M191.395 170.234H156.661C155.623 170.234 154.783 171.076 154.783 172.115V186.822C154.783 187.861 155.623 188.703 156.661 188.703H191.395C192.432 188.703 193.273 187.861 193.273 186.822V172.115C193.273 171.076 192.432 170.234 191.395 170.234Z" fill="#2CB6BF" stroke="white" stroke-width="0.5" stroke-miterlimit="10"/>
<path d="M188.843 170.313L188.697 170.516V171.8V175.673L188.686 188.613H191.137L192.003 188.556L192.587 188.308L193.082 187.892L193.217 187.002V184.649V177.396V171.912L192.947 170.82L192.228 170.313L190.294 170.234L188.843 170.313Z" fill="#227EB0"/>
<path d="M188.596 188.703V170.234" stroke="white" stroke-width="0.5" stroke-miterlimit="10"/>
<path d="M193.273 178.59H188.596V180.347H193.273V178.59Z" stroke="white" stroke-width="0.5" stroke-miterlimit="10"/>
<path d="M190.934 185.178C191.388 185.178 191.755 184.81 191.755 184.356C191.755 183.902 191.388 183.534 190.934 183.534C190.481 183.534 190.114 183.902 190.114 184.356C190.114 184.81 190.481 185.178 190.934 185.178Z" stroke="white" stroke-width="0.5" stroke-miterlimit="10"/>
<path d="M191.395 170.234H156.661C155.623 170.234 154.783 171.076 154.783 172.115V186.822C154.783 187.861 155.623 188.703 156.661 188.703H191.395C192.432 188.703 193.273 187.861 193.273 186.822V172.115C193.273 171.076 192.432 170.234 191.395 170.234Z" stroke="white" stroke-width="0.5" stroke-miterlimit="10"/>
<path d="M46.3392 191.889H11.6044C10.5673 191.889 9.72656 192.731 9.72656 193.77V208.477C9.72656 209.516 10.5673 210.358 11.6044 210.358H46.3392C47.3763 210.358 48.2171 209.516 48.2171 208.477V193.77C48.2171 192.731 47.3763 191.889 46.3392 191.889Z" fill="#2CB6BF" stroke="white" stroke-width="0.5" stroke-miterlimit="10"/>
<path d="M43.7756 191.979L43.6406 192.182V193.466V197.34L43.6294 210.268H46.0807L46.9353 210.223L47.5313 209.975L48.0261 209.547L48.161 208.657V206.315V199.063V193.567L47.8911 192.486L47.1715 191.979L45.2374 191.889L43.7756 191.979Z" fill="#227EB0"/>
<path d="M43.5393 210.358V191.889" stroke="white" stroke-width="0.5" stroke-miterlimit="10"/>
<path d="M48.2171 200.245H43.5393V202.002H48.2171V200.245Z" stroke="white" stroke-width="0.5" stroke-miterlimit="10"/>
<path d="M45.8782 206.833C46.3316 206.833 46.6991 206.465 46.6991 206.011C46.6991 205.557 46.3316 205.189 45.8782 205.189C45.4249 205.189 45.0574 205.557 45.0574 206.011C45.0574 206.465 45.4249 206.833 45.8782 206.833Z" stroke="white" stroke-width="0.5" stroke-miterlimit="10"/>
<path d="M46.3392 191.889H11.6044C10.5673 191.889 9.72656 192.731 9.72656 193.77V208.477C9.72656 209.516 10.5673 210.358 11.6044 210.358H46.3392C47.3763 210.358 48.2171 209.516 48.2171 208.477V193.77C48.2171 192.731 47.3763 191.889 46.3392 191.889Z" stroke="white" stroke-width="0.5" stroke-miterlimit="10"/>
<path d="M94.6912 191.889H59.9565C58.9194 191.889 58.0786 192.731 58.0786 193.77V208.477C58.0786 209.516 58.9194 210.358 59.9565 210.358H94.6912C95.7284 210.358 96.5691 209.516 96.5691 208.477V193.77C96.5691 192.731 95.7284 191.889 94.6912 191.889Z" fill="#2CB6BF" stroke="white" stroke-width="0.5" stroke-miterlimit="10"/>
<path d="M92.1276 191.979L91.9927 192.182V193.466V197.34L91.9814 210.268H94.4328L95.2986 210.223L95.8833 209.975L96.3781 209.547L96.513 208.657V206.315V199.063V193.567L96.2319 192.486L95.5235 191.979L93.5894 191.889L92.1276 191.979Z" fill="#227EB0"/>
<path d="M91.8914 210.358V191.889" stroke="white" stroke-width="0.5" stroke-miterlimit="10"/>
<path d="M96.5691 200.245H91.8914V202.002H96.5691V200.245Z" stroke="white" stroke-width="0.5" stroke-miterlimit="10"/>
<path d="M94.2303 206.833C94.6836 206.833 95.0511 206.465 95.0511 206.011C95.0511 205.557 94.6836 205.189 94.2303 205.189C93.7769 205.189 93.4094 205.557 93.4094 206.011C93.4094 206.465 93.7769 206.833 94.2303 206.833Z" stroke="white" stroke-width="0.5" stroke-miterlimit="10"/>
<path d="M94.6912 191.889H59.9565C58.9194 191.889 58.0786 192.731 58.0786 193.77V208.477C58.0786 209.516 58.9194 210.358 59.9565 210.358H94.6912C95.7284 210.358 96.5691 209.516 96.5691 208.477V193.77C96.5691 192.731 95.7284 191.889 94.6912 191.889Z" stroke="white" stroke-width="0.5" stroke-miterlimit="10"/>
<path d="M143.043 191.889H108.309C107.271 191.889 106.431 192.731 106.431 193.77V208.477C106.431 209.516 107.271 210.358 108.309 210.358H143.043C144.08 210.358 144.921 209.516 144.921 208.477V193.77C144.921 192.731 144.08 191.889 143.043 191.889Z" fill="#2CB6BF" stroke="white" stroke-width="0.5" stroke-miterlimit="10"/>
<path d="M140.491 191.979L140.345 192.182V193.466V197.34L140.333 210.268H142.785L143.651 210.223L144.235 209.975L144.73 209.547L144.865 208.657V206.315V199.063V193.567L144.595 192.486L143.876 191.979L141.941 191.889L140.491 191.979Z" fill="#227EB0"/>
<path d="M140.243 210.358V191.889" stroke="white" stroke-width="0.5" stroke-miterlimit="10"/>
<path d="M144.921 200.245H140.243V202.002H144.921V200.245Z" stroke="white" stroke-width="0.5" stroke-miterlimit="10"/>
<path d="M142.582 206.833C143.036 206.833 143.403 206.465 143.403 206.011C143.403 205.557 143.036 205.189 142.582 205.189C142.129 205.189 141.761 205.557 141.761 206.011C141.761 206.465 142.129 206.833 142.582 206.833Z" stroke="white" stroke-width="0.5" stroke-miterlimit="10"/>
<path d="M143.043 191.889H108.309C107.271 191.889 106.431 192.731 106.431 193.77V208.477C106.431 209.516 107.271 210.358 108.309 210.358H143.043C144.08 210.358 144.921 209.516 144.921 208.477V193.77C144.921 192.731 144.08 191.889 143.043 191.889Z" stroke="white" stroke-width="0.5" stroke-miterlimit="10"/>
<path d="M191.395 191.889H156.661C155.623 191.889 154.783 192.731 154.783 193.77V208.477C154.783 209.516 155.623 210.358 156.661 210.358H191.395C192.432 210.358 193.273 209.516 193.273 208.477V193.77C193.273 192.731 192.432 191.889 191.395 191.889Z" fill="#2CB6BF" stroke="white" stroke-width="0.5" stroke-miterlimit="10"/>
<path d="M188.843 191.979L188.697 192.182V193.466V197.34L188.686 210.268H191.137L192.003 210.223L192.587 209.975L193.082 209.547L193.217 208.657V206.315V199.063V193.567L192.947 192.486L192.228 191.979L190.294 191.889L188.843 191.979Z" fill="#227EB0"/>
<path d="M188.596 210.358V191.889" stroke="white" stroke-width="0.5" stroke-miterlimit="10"/>
<path d="M193.273 200.245H188.596V202.002H193.273V200.245Z" stroke="white" stroke-width="0.5" stroke-miterlimit="10"/>
<path d="M190.934 206.833C191.388 206.833 191.755 206.465 191.755 206.011C191.755 205.557 191.388 205.189 190.934 205.189C190.481 205.189 190.114 205.557 190.114 206.011C190.114 206.465 190.481 206.833 190.934 206.833Z" stroke="white" stroke-width="0.5" stroke-miterlimit="10"/>
<path d="M191.395 191.889H156.661C155.623 191.889 154.783 192.731 154.783 193.77V208.477C154.783 209.516 155.623 210.358 156.661 210.358H191.395C192.432 210.358 193.273 209.516 193.273 208.477V193.77C193.273 192.731 192.432 191.889 191.395 191.889Z" stroke="white" stroke-width="0.5" stroke-miterlimit="10"/>
<path d="M46.3392 213.972H11.6044C10.5673 213.972 9.72656 214.814 9.72656 215.853V230.56C9.72656 231.599 10.5673 232.441 11.6044 232.441H46.3392C47.3763 232.441 48.2171 231.599 48.2171 230.56V215.853C48.2171 214.814 47.3763 213.972 46.3392 213.972Z" fill="#2CB6BF" stroke="white" stroke-width="0.5" stroke-miterlimit="10"/>
<path d="M43.7756 214.063L43.6406 214.265V215.549V219.423L43.6294 232.351H46.0807L46.9353 232.306L47.5313 232.058L48.0261 231.63L48.161 230.751V228.398V221.146V215.65L47.8911 214.569L47.1715 214.063L45.2374 213.972L43.7756 214.063Z" fill="#227EB0"/>
<path d="M43.5393 232.441V213.972" stroke="white" stroke-width="0.5" stroke-miterlimit="10"/>
<path d="M48.2171 222.34H43.5393V224.096H48.2171V222.34Z" stroke="white" stroke-width="0.5" stroke-miterlimit="10"/>
<path d="M45.8782 228.916C46.3316 228.916 46.6991 228.548 46.6991 228.094C46.6991 227.64 46.3316 227.272 45.8782 227.272C45.4249 227.272 45.0574 227.64 45.0574 228.094C45.0574 228.548 45.4249 228.916 45.8782 228.916Z" stroke="white" stroke-width="0.5" stroke-miterlimit="10"/>
<path d="M46.3392 213.972H11.6044C10.5673 213.972 9.72656 214.814 9.72656 215.853V230.56C9.72656 231.599 10.5673 232.441 11.6044 232.441H46.3392C47.3763 232.441 48.2171 231.599 48.2171 230.56V215.853C48.2171 214.814 47.3763 213.972 46.3392 213.972Z" stroke="white" stroke-width="0.5" stroke-miterlimit="10"/>
<path d="M94.6912 213.972H59.9565C58.9194 213.972 58.0786 214.814 58.0786 215.853V230.56C58.0786 231.599 58.9194 232.441 59.9565 232.441H94.6912C95.7284 232.441 96.5691 231.599 96.5691 230.56V215.853C96.5691 214.814 95.7284 213.972 94.6912 213.972Z" fill="#2CB6BF" stroke="white" stroke-width="0.5" stroke-miterlimit="10"/>
<path d="M92.1276 214.063L91.9927 214.265V215.549V219.423L91.9814 232.351H94.4328L95.2986 232.306L95.8833 232.058L96.3781 231.63L96.513 230.751V228.398V221.146V215.65L96.2319 214.569L95.5235 214.063L93.5894 213.972L92.1276 214.063Z" fill="#227EB0"/>
<path d="M91.8914 232.441V213.972" stroke="white" stroke-width="0.5" stroke-miterlimit="10"/>
<path d="M96.5691 222.34H91.8914V224.096H96.5691V222.34Z" stroke="white" stroke-width="0.5" stroke-miterlimit="10"/>
<path d="M94.2303 228.916C94.6836 228.916 95.0511 228.548 95.0511 228.094C95.0511 227.64 94.6836 227.272 94.2303 227.272C93.7769 227.272 93.4094 227.64 93.4094 228.094C93.4094 228.548 93.7769 228.916 94.2303 228.916Z" stroke="white" stroke-width="0.5" stroke-miterlimit="10"/>
<path d="M94.6912 213.972H59.9565C58.9194 213.972 58.0786 214.814 58.0786 215.853V230.56C58.0786 231.599 58.9194 232.441 59.9565 232.441H94.6912C95.7284 232.441 96.5691 231.599 96.5691 230.56V215.853C96.5691 214.814 95.7284 213.972 94.6912 213.972Z" stroke="white" stroke-width="0.5" stroke-miterlimit="10"/>
<path d="M143.043 213.972H108.309C107.271 213.972 106.431 214.814 106.431 215.853V230.56C106.431 231.599 107.271 232.441 108.309 232.441H143.043C144.08 232.441 144.921 231.599 144.921 230.56V215.853C144.921 214.814 144.08 213.972 143.043 213.972Z" fill="#2CB6BF" stroke="white" stroke-width="0.5" stroke-miterlimit="10"/>
<path d="M140.491 214.063L140.345 214.265V215.549V219.423L140.333 232.351H142.785L143.651 232.306L144.235 232.058L144.73 231.63L144.865 230.751V228.398V221.146V215.65L144.595 214.569L143.876 214.063L141.941 213.972L140.491 214.063Z" fill="#227EB0"/>
<path d="M140.243 232.441V213.972" stroke="white" stroke-width="0.5" stroke-miterlimit="10"/>
<path d="M144.921 222.34H140.243V224.096H144.921V222.34Z" stroke="white" stroke-width="0.5" stroke-miterlimit="10"/>
<path d="M142.582 228.916C143.036 228.916 143.403 228.548 143.403 228.094C143.403 227.64 143.036 227.272 142.582 227.272C142.129 227.272 141.761 227.64 141.761 228.094C141.761 228.548 142.129 228.916 142.582 228.916Z" stroke="white" stroke-width="0.5" stroke-miterlimit="10"/>
<path d="M143.043 213.972H108.309C107.271 213.972 106.431 214.814 106.431 215.853V230.56C106.431 231.599 107.271 232.441 108.309 232.441H143.043C144.08 232.441 144.921 231.599 144.921 230.56V215.853C144.921 214.814 144.08 213.972 143.043 213.972Z" stroke="white" stroke-width="0.5" stroke-miterlimit="10"/>
<path d="M191.395 213.972H156.661C155.623 213.972 154.783 214.814 154.783 215.853V230.56C154.783 231.599 155.623 232.441 156.661 232.441H191.395C192.432 232.441 193.273 231.599 193.273 230.56V215.853C193.273 214.814 192.432 213.972 191.395 213.972Z" fill="#2CB6BF" stroke="white" stroke-width="0.5" stroke-miterlimit="10"/>
<path d="M188.843 214.063L188.697 214.265V215.549V219.423L188.686 232.351H191.137L192.003 232.306L192.587 232.058L193.082 231.63L193.217 230.751V228.398V221.146V215.65L192.947 214.569L192.228 214.063L190.294 213.972L188.843 214.063Z" fill="#227EB0"/>
<path d="M188.596 232.441V213.972" stroke="white" stroke-width="0.5" stroke-miterlimit="10"/>
<path d="M193.273 222.34H188.596V224.096H193.273V222.34Z" stroke="white" stroke-width="0.5" stroke-miterlimit="10"/>
<path d="M190.934 228.916C191.388 228.916 191.755 228.548 191.755 228.094C191.755 227.64 191.388 227.272 190.934 227.272C190.481 227.272 190.114 227.64 190.114 228.094C190.114 228.548 190.481 228.916 190.934 228.916Z" stroke="white" stroke-width="0.5" stroke-miterlimit="10"/>
<path d="M191.395 213.972H156.661C155.623 213.972 154.783 214.814 154.783 215.853V230.56C154.783 231.599 155.623 232.441 156.661 232.441H191.395C192.432 232.441 193.273 231.599 193.273 230.56V215.853C193.273 214.814 192.432 213.972 191.395 213.972Z" stroke="white" stroke-width="0.5" stroke-miterlimit="10"/>
<path d="M46.3392 243.319H11.6044C10.5673 243.319 9.72656 244.161 9.72656 245.2V259.907C9.72656 260.945 10.5673 261.787 11.6044 261.787H46.3392C47.3763 261.787 48.2171 260.945 48.2171 259.907V245.2C48.2171 244.161 47.3763 243.319 46.3392 243.319Z" fill="#2CB6BF" stroke="white" stroke-width="0.5" stroke-miterlimit="10"/>
<path d="M43.7756 243.398L43.6406 243.601V244.884V248.758L43.6294 261.697H46.0807L46.9353 261.641L47.5313 261.393L48.0261 260.977L48.161 260.087V257.733V250.481V244.997L47.8911 243.905L47.1715 243.398L45.2374 243.319L43.7756 243.398Z" fill="#227EB0"/>
<path d="M43.5393 261.787V243.319" stroke="white" stroke-width="0.5" stroke-miterlimit="10"/>
<path d="M48.2171 251.675H43.5393V253.432H48.2171V251.675Z" stroke="white" stroke-width="0.5" stroke-miterlimit="10"/>
<path d="M45.8782 258.263C46.3316 258.263 46.6991 257.894 46.6991 257.44C46.6991 256.986 46.3316 256.618 45.8782 256.618C45.4249 256.618 45.0574 256.986 45.0574 257.44C45.0574 257.894 45.4249 258.263 45.8782 258.263Z" stroke="white" stroke-width="0.5" stroke-miterlimit="10"/>
<path d="M46.3392 243.319H11.6044C10.5673 243.319 9.72656 244.161 9.72656 245.2V259.907C9.72656 260.945 10.5673 261.787 11.6044 261.787H46.3392C47.3763 261.787 48.2171 260.945 48.2171 259.907V245.2C48.2171 244.161 47.3763 243.319 46.3392 243.319Z" stroke="white" stroke-width="0.5" stroke-miterlimit="10"/>
<path d="M94.6912 243.319H59.9565C58.9194 243.319 58.0786 244.161 58.0786 245.2V259.907C58.0786 260.945 58.9194 261.787 59.9565 261.787H94.6912C95.7284 261.787 96.5691 260.945 96.5691 259.907V245.2C96.5691 244.161 95.7284 243.319 94.6912 243.319Z" fill="#2CB6BF" stroke="white" stroke-width="0.5" stroke-miterlimit="10"/>
<path d="M92.1276 243.398L91.9927 243.601V244.884V248.758L91.9814 261.697H94.4328L95.2986 261.641L95.8833 261.393L96.3781 260.977L96.513 260.087V257.733V250.481V244.997L96.2319 243.905L95.5235 243.398L93.5894 243.319L92.1276 243.398Z" fill="#227EB0"/>
<path d="M91.8914 261.787V243.319" stroke="white" stroke-width="0.5" stroke-miterlimit="10"/>
<path d="M96.5691 251.675H91.8914V253.432H96.5691V251.675Z" stroke="white" stroke-width="0.5" stroke-miterlimit="10"/>
<path d="M94.2303 258.263C94.6836 258.263 95.0511 257.894 95.0511 257.44C95.0511 256.986 94.6836 256.618 94.2303 256.618C93.7769 256.618 93.4094 256.986 93.4094 257.44C93.4094 257.894 93.7769 258.263 94.2303 258.263Z" stroke="white" stroke-width="0.5" stroke-miterlimit="10"/>
<path d="M94.6912 243.319H59.9565C58.9194 243.319 58.0786 244.161 58.0786 245.2V259.907C58.0786 260.945 58.9194 261.787 59.9565 261.787H94.6912C95.7284 261.787 96.5691 260.945 96.5691 259.907V245.2C96.5691 244.161 95.7284 243.319 94.6912 243.319Z" stroke="white" stroke-width="0.5" stroke-miterlimit="10"/>
<path d="M143.043 243.319H108.309C107.271 243.319 106.431 244.161 106.431 245.2V259.907C106.431 260.945 107.271 261.787 108.309 261.787H143.043C144.08 261.787 144.921 260.945 144.921 259.907V245.2C144.921 244.161 144.08 243.319 143.043 243.319Z" fill="#2CB6BF" stroke="white" stroke-width="0.5" stroke-miterlimit="10"/>
<path d="M140.491 243.398L140.345 243.601V244.884V248.758L140.333 261.697H142.785L143.651 261.641L144.235 261.393L144.73 260.977L144.865 260.087V257.733V250.481V244.997L144.595 243.905L143.876 243.398L141.941 243.319L140.491 243.398Z" fill="#227EB0"/>
<path d="M140.243 261.787V243.319" stroke="white" stroke-width="0.5" stroke-miterlimit="10"/>
<path d="M144.921 251.675H140.243V253.432H144.921V251.675Z" stroke="white" stroke-width="0.5" stroke-miterlimit="10"/>
<path d="M142.582 258.263C143.036 258.263 143.403 257.894 143.403 257.44C143.403 256.986 143.036 256.618 142.582 256.618C142.129 256.618 141.761 256.986 141.761 257.44C141.761 257.894 142.129 258.263 142.582 258.263Z" stroke="white" stroke-width="0.5" stroke-miterlimit="10"/>
<path d="M143.043 243.319H108.309C107.271 243.319 106.431 244.161 106.431 245.2V259.907C106.431 260.945 107.271 261.787 108.309 261.787H143.043C144.08 261.787 144.921 260.945 144.921 259.907V245.2C144.921 244.161 144.08 243.319 143.043 243.319Z" stroke="white" stroke-width="0.5" stroke-miterlimit="10"/>
<path d="M191.395 243.319H156.661C155.623 243.319 154.783 244.161 154.783 245.2V259.907C154.783 260.945 155.623 261.787 156.661 261.787H191.395C192.432 261.787 193.273 260.945 193.273 259.907V245.2C193.273 244.161 192.432 243.319 191.395 243.319Z" fill="#2CB6BF" stroke="white" stroke-width="0.5" stroke-miterlimit="10"/>
<path d="M188.843 243.398L188.697 243.601V244.884V248.758L188.686 261.697H191.137L192.003 261.641L192.587 261.393L193.082 260.977L193.217 260.087V257.733V250.481V244.997L192.947 243.905L192.228 243.398L190.294 243.319L188.843 243.398Z" fill="#227EB0"/>
<path d="M188.596 261.787V243.319" stroke="white" stroke-width="0.5" stroke-miterlimit="10"/>
<path d="M193.273 251.675H188.596V253.432H193.273V251.675Z" stroke="white" stroke-width="0.5" stroke-miterlimit="10"/>
<path d="M190.934 258.263C191.388 258.263 191.755 257.894 191.755 257.44C191.755 256.986 191.388 256.618 190.934 256.618C190.481 256.618 190.114 256.986 190.114 257.44C190.114 257.894 190.481 258.263 190.934 258.263Z" stroke="white" stroke-width="0.5" stroke-miterlimit="10"/>
<path d="M191.395 243.319H156.661C155.623 243.319 154.783 244.161 154.783 245.2V259.907C154.783 260.945 155.623 261.787 156.661 261.787H191.395C192.432 261.787 193.273 260.945 193.273 259.907V245.2C193.273 244.161 192.432 243.319 191.395 243.319Z" stroke="white" stroke-width="0.5" stroke-miterlimit="10"/>
<path d="M46.3392 265.717H11.6044C10.5673 265.717 9.72656 266.559 9.72656 267.598V282.305C9.72656 283.344 10.5673 284.186 11.6044 284.186H46.3392C47.3763 284.186 48.2171 283.344 48.2171 282.305V267.598C48.2171 266.559 47.3763 265.717 46.3392 265.717Z" fill="#2CB6BF" stroke="white" stroke-width="0.5" stroke-miterlimit="10"/>
<path d="M43.7756 265.796L43.6406 266.01V267.283V271.156L43.6294 284.095H46.0807L46.9353 284.05L47.5313 283.791L48.0261 283.375L48.161 282.485V280.143V272.891V267.395L47.8911 266.314L47.1715 265.796L45.2374 265.717L43.7756 265.796Z" fill="#227EB0"/>
<path d="M43.5393 284.186V265.717" stroke="white" stroke-width="0.5" stroke-miterlimit="10"/>
<path d="M48.2171 274.073H43.5393V275.83H48.2171V274.073Z" stroke="white" stroke-width="0.5" stroke-miterlimit="10"/>
<path d="M45.8782 280.661C46.3316 280.661 46.6991 280.293 46.6991 279.839C46.6991 279.385 46.3316 279.017 45.8782 279.017C45.4249 279.017 45.0574 279.385 45.0574 279.839C45.0574 280.293 45.4249 280.661 45.8782 280.661Z" stroke="white" stroke-width="0.5" stroke-miterlimit="10"/>
<path d="M46.3392 265.717H11.6044C10.5673 265.717 9.72656 266.559 9.72656 267.598V282.305C9.72656 283.344 10.5673 284.186 11.6044 284.186H46.3392C47.3763 284.186 48.2171 283.344 48.2171 282.305V267.598C48.2171 266.559 47.3763 265.717 46.3392 265.717Z" stroke="white" stroke-width="0.5" stroke-miterlimit="10"/>
<path d="M94.6912 265.717H59.9565C58.9194 265.717 58.0786 266.559 58.0786 267.598V282.305C58.0786 283.344 58.9194 284.186 59.9565 284.186H94.6912C95.7284 284.186 96.5691 283.344 96.5691 282.305V267.598C96.5691 266.559 95.7284 265.717 94.6912 265.717Z" fill="#2CB6BF" stroke="white" stroke-width="0.5" stroke-miterlimit="10"/>
<path d="M92.1276 265.796L91.9927 266.01V267.283V271.156L91.9814 284.095H94.4328L95.2986 284.05L95.8833 283.791L96.3781 283.375L96.513 282.485V280.143V272.891V267.395L96.2319 266.314L95.5235 265.796L93.5894 265.717L92.1276 265.796Z" fill="#227EB0"/>
<path d="M91.8914 284.186V265.717" stroke="white" stroke-width="0.5" stroke-miterlimit="10"/>
<path d="M96.5691 274.073H91.8914V275.83H96.5691V274.073Z" stroke="white" stroke-width="0.5" stroke-miterlimit="10"/>
<path d="M94.2303 280.661C94.6836 280.661 95.0511 280.293 95.0511 279.839C95.0511 279.385 94.6836 279.017 94.2303 279.017C93.7769 279.017 93.4094 279.385 93.4094 279.839C93.4094 280.293 93.7769 280.661 94.2303 280.661Z" stroke="white" stroke-width="0.5" stroke-miterlimit="10"/>
<path d="M94.6912 265.717H59.9565C58.9194 265.717 58.0786 266.559 58.0786 267.598V282.305C58.0786 283.344 58.9194 284.186 59.9565 284.186H94.6912C95.7284 284.186 96.5691 283.344 96.5691 282.305V267.598C96.5691 266.559 95.7284 265.717 94.6912 265.717Z" stroke="white" stroke-width="0.5" stroke-miterlimit="10"/>
<path d="M143.043 265.717H108.309C107.271 265.717 106.431 266.559 106.431 267.598V282.305C106.431 283.344 107.271 284.186 108.309 284.186H143.043C144.08 284.186 144.921 283.344 144.921 282.305V267.598C144.921 266.559 144.08 265.717 143.043 265.717Z" fill="#2CB6BF" stroke="white" stroke-width="0.5" stroke-miterlimit="10"/>
<path d="M140.491 265.796L140.345 266.01V267.283V271.156L140.333 284.095H142.785L143.651 284.05L144.235 283.791L144.73 283.375L144.865 282.485V280.143V272.891V267.395L144.595 266.314L143.876 265.796L141.941 265.717L140.491 265.796Z" fill="#227EB0"/>
<path d="M140.243 284.186V265.717" stroke="white" stroke-width="0.5" stroke-miterlimit="10"/>
<path d="M144.921 274.073H140.243V275.83H144.921V274.073Z" stroke="white" stroke-width="0.5" stroke-miterlimit="10"/>
<path d="M142.582 280.661C143.036 280.661 143.403 280.293 143.403 279.839C143.403 279.385 143.036 279.017 142.582 279.017C142.129 279.017 141.761 279.385 141.761 279.839C141.761 280.293 142.129 280.661 142.582 280.661Z" stroke="white" stroke-width="0.5" stroke-miterlimit="10"/>
<path d="M143.043 265.717H108.309C107.271 265.717 106.431 266.559 106.431 267.598V282.305C106.431 283.344 107.271 284.186 108.309 284.186H143.043C144.08 284.186 144.921 283.344 144.921 282.305V267.598C144.921 266.559 144.08 265.717 143.043 265.717Z" stroke="white" stroke-width="0.5" stroke-miterlimit="10"/>
<path d="M191.395 265.717H156.661C155.623 265.717 154.783 266.559 154.783 267.598V282.305C154.783 283.344 155.623 284.186 156.661 284.186H191.395C192.432 284.186 193.273 283.344 193.273 282.305V267.598C193.273 266.559 192.432 265.717 191.395 265.717Z" fill="#2CB6BF" stroke="white" stroke-width="0.5" stroke-miterlimit="10"/>
<path d="M188.843 265.796L188.697 266.01V267.283V271.156L188.686 284.095H191.137L192.003 284.05L192.587 283.791L193.082 283.375L193.217 282.485V280.143V272.891V267.395L192.947 266.314L192.228 265.796L190.294 265.717L188.843 265.796Z" fill="#227EB0"/>
<path d="M188.596 284.186V265.717" stroke="white" stroke-width="0.5" stroke-miterlimit="10"/>
<path d="M193.273 274.073H188.596V275.83H193.273V274.073Z" stroke="white" stroke-width="0.5" stroke-miterlimit="10"/>
<path d="M190.934 280.661C191.388 280.661 191.755 280.293 191.755 279.839C191.755 279.385 191.388 279.017 190.934 279.017C190.481 279.017 190.114 279.385 190.114 279.839C190.114 280.293 190.481 280.661 190.934 280.661Z" stroke="white" stroke-width="0.5" stroke-miterlimit="10"/>
<path d="M191.395 265.717H156.661C155.623 265.717 154.783 266.559 154.783 267.598V282.305C154.783 283.344 155.623 284.186 156.661 284.186H191.395C192.432 284.186 193.273 283.344 193.273 282.305V267.598C193.273 266.559 192.432 265.717 191.395 265.717Z" stroke="white" stroke-width="0.5" stroke-miterlimit="10"/>
<path d="M46.3392 288.364H11.6044C10.5673 288.364 9.72656 289.205 9.72656 290.244V304.951C9.72656 305.99 10.5673 306.832 11.6044 306.832H46.3392C47.3763 306.832 48.2171 305.99 48.2171 304.951V290.244C48.2171 289.205 47.3763 288.364 46.3392 288.364Z" fill="#2CB6BF" stroke="white" stroke-width="0.5" stroke-miterlimit="10"/>
<path d="M43.7756 288.454L43.6406 288.656V289.94V293.814L43.6294 306.742H46.0807L46.9353 306.697L47.5313 306.449L48.0261 306.021L48.161 305.143V302.789V295.537V290.041L47.8911 288.96L47.1715 288.454L45.2374 288.364L43.7756 288.454Z" fill="#227EB0"/>
<path d="M43.5393 306.832V288.364" stroke="white" stroke-width="0.5" stroke-miterlimit="10"/>
<path d="M48.2171 296.73H43.5393V298.487H48.2171V296.73Z" stroke="white" stroke-width="0.5" stroke-miterlimit="10"/>
<path d="M45.8782 303.307C46.3316 303.307 46.6991 302.939 46.6991 302.485C46.6991 302.031 46.3316 301.663 45.8782 301.663C45.4249 301.663 45.0574 302.031 45.0574 302.485C45.0574 302.939 45.4249 303.307 45.8782 303.307Z" stroke="white" stroke-width="0.5" stroke-miterlimit="10"/>
<path d="M46.3392 288.364H11.6044C10.5673 288.364 9.72656 289.205 9.72656 290.244V304.951C9.72656 305.99 10.5673 306.832 11.6044 306.832H46.3392C47.3763 306.832 48.2171 305.99 48.2171 304.951V290.244C48.2171 289.205 47.3763 288.364 46.3392 288.364Z" stroke="white" stroke-width="0.5" stroke-miterlimit="10"/>
<path d="M94.6912 288.364H59.9565C58.9194 288.364 58.0786 289.205 58.0786 290.244V304.951C58.0786 305.99 58.9194 306.832 59.9565 306.832H94.6912C95.7284 306.832 96.5691 305.99 96.5691 304.951V290.244C96.5691 289.205 95.7284 288.364 94.6912 288.364Z" fill="#2CB6BF" stroke="white" stroke-width="0.5" stroke-miterlimit="10"/>
<path d="M92.1276 288.454L91.9927 288.656V289.94V293.814L91.9814 306.742H94.4328L95.2986 306.697L95.8833 306.449L96.3781 306.021L96.513 305.143V302.789V295.537V290.041L96.2319 288.96L95.5235 288.454L93.5894 288.364L92.1276 288.454Z" fill="#227EB0"/>
<path d="M91.8914 306.832V288.364" stroke="white" stroke-width="0.5" stroke-miterlimit="10"/>
<path d="M96.5691 296.73H91.8914V298.487H96.5691V296.73Z" stroke="white" stroke-width="0.5" stroke-miterlimit="10"/>
<path d="M94.2303 303.307C94.6836 303.307 95.0511 302.939 95.0511 302.485C95.0511 302.031 94.6836 301.663 94.2303 301.663C93.7769 301.663 93.4094 302.031 93.4094 302.485C93.4094 302.939 93.7769 303.307 94.2303 303.307Z" stroke="white" stroke-width="0.5" stroke-miterlimit="10"/>
<path d="M94.6912 288.364H59.9565C58.9194 288.364 58.0786 289.205 58.0786 290.244V304.951C58.0786 305.99 58.9194 306.832 59.9565 306.832H94.6912C95.7284 306.832 96.5691 305.99 96.5691 304.951V290.244C96.5691 289.205 95.7284 288.364 94.6912 288.364Z" stroke="white" stroke-width="0.5" stroke-miterlimit="10"/>
<path d="M143.043 288.364H108.309C107.271 288.364 106.431 289.205 106.431 290.244V304.951C106.431 305.99 107.271 306.832 108.309 306.832H143.043C144.08 306.832 144.921 305.99 144.921 304.951V290.244C144.921 289.205 144.08 288.364 143.043 288.364Z" fill="#2CB6BF" stroke="white" stroke-width="0.5" stroke-miterlimit="10"/>
<path d="M140.491 288.454L140.345 288.656V289.94V293.814L140.333 306.742H142.785L143.651 306.697L144.235 306.449L144.73 306.021L144.865 305.143V302.789V295.537V290.041L144.595 288.96L143.876 288.454L141.941 288.364L140.491 288.454Z" fill="#227EB0"/>
<path d="M140.243 306.832V288.364" stroke="white" stroke-width="0.5" stroke-miterlimit="10"/>
<path d="M144.921 296.73H140.243V298.487H144.921V296.73Z" stroke="white" stroke-width="0.5" stroke-miterlimit="10"/>
<path d="M142.582 303.307C143.036 303.307 143.403 302.939 143.403 302.485C143.403 302.031 143.036 301.663 142.582 301.663C142.129 301.663 141.761 302.031 141.761 302.485C141.761 302.939 142.129 303.307 142.582 303.307Z" stroke="white" stroke-width="0.5" stroke-miterlimit="10"/>
<path d="M143.043 288.364H108.309C107.271 288.364 106.431 289.205 106.431 290.244V304.951C106.431 305.99 107.271 306.832 108.309 306.832H143.043C144.08 306.832 144.921 305.99 144.921 304.951V290.244C144.921 289.205 144.08 288.364 143.043 288.364Z" stroke="white" stroke-width="0.5" stroke-miterlimit="10"/>
<path d="M191.395 288.364H156.661C155.623 288.364 154.783 289.205 154.783 290.244V304.951C154.783 305.99 155.623 306.832 156.661 306.832H191.395C192.432 306.832 193.273 305.99 193.273 304.951V290.244C193.273 289.205 192.432 288.364 191.395 288.364Z" fill="#2CB6BF" stroke="white" stroke-width="0.5" stroke-miterlimit="10"/>
<path d="M188.843 288.454L188.697 288.656V289.94V293.814L188.686 306.742H191.137L192.003 306.697L192.587 306.449L193.082 306.021L193.217 305.143V302.789V295.537V290.041L192.947 288.96L192.228 288.454L190.294 288.364L188.843 288.454Z" fill="#227EB0"/>
<path d="M188.596 306.832V288.364" stroke="white" stroke-width="0.5" stroke-miterlimit="10"/>
<path d="M193.273 296.73H188.596V298.487H193.273V296.73Z" stroke="white" stroke-width="0.5" stroke-miterlimit="10"/>
<path d="M190.934 303.307C191.388 303.307 191.755 302.939 191.755 302.485C191.755 302.031 191.388 301.663 190.934 301.663C190.481 301.663 190.114 302.031 190.114 302.485C190.114 302.939 190.481 303.307 190.934 303.307Z" stroke="white" stroke-width="0.5" stroke-miterlimit="10"/>
<path d="M191.395 288.364H156.661C155.623 288.364 154.783 289.205 154.783 290.244V304.951C154.783 305.99 155.623 306.832 156.661 306.832H191.395C192.432 306.832 193.273 305.99 193.273 304.951V290.244C193.273 289.205 192.432 288.364 191.395 288.364Z" stroke="white" stroke-width="0.5" stroke-miterlimit="10"/>
<path d="M46.3392 310.03H11.6044C10.5673 310.03 9.72656 310.872 9.72656 311.91V326.617C9.72656 327.656 10.5673 328.498 11.6044 328.498H46.3392C47.3763 328.498 48.2171 327.656 48.2171 326.617V311.91C48.2171 310.872 47.3763 310.03 46.3392 310.03Z" fill="#2CB6BF" stroke="white" stroke-width="0.5" stroke-miterlimit="10"/>
<path d="M43.7756 310.109L43.6406 310.311V311.595V315.469L43.6294 328.408H46.0807L46.9353 328.363L47.5313 328.104L48.0261 327.687L48.161 326.798V324.455V317.203V311.708L47.8911 310.615L47.1715 310.109L45.2374 310.03L43.7756 310.109Z" fill="#227EB0"/>
<path d="M43.5393 328.498V310.03" stroke="white" stroke-width="0.5" stroke-miterlimit="10"/>
<path d="M48.2171 318.386H43.5393V320.142H48.2171V318.386Z" stroke="white" stroke-width="0.5" stroke-miterlimit="10"/>
<path d="M45.8782 324.973C46.3316 324.973 46.6991 324.605 46.6991 324.151C46.6991 323.697 46.3316 323.329 45.8782 323.329C45.4249 323.329 45.0574 323.697 45.0574 324.151C45.0574 324.605 45.4249 324.973 45.8782 324.973Z" stroke="white" stroke-width="0.5" stroke-miterlimit="10"/>
<path d="M46.3392 310.03H11.6044C10.5673 310.03 9.72656 310.872 9.72656 311.91V326.617C9.72656 327.656 10.5673 328.498 11.6044 328.498H46.3392C47.3763 328.498 48.2171 327.656 48.2171 326.617V311.91C48.2171 310.872 47.3763 310.03 46.3392 310.03Z" stroke="white" stroke-width="0.5" stroke-miterlimit="10"/>
<path d="M94.6912 310.03H59.9565C58.9194 310.03 58.0786 310.872 58.0786 311.91V326.617C58.0786 327.656 58.9194 328.498 59.9565 328.498H94.6912C95.7284 328.498 96.5691 327.656 96.5691 326.617V311.91C96.5691 310.872 95.7284 310.03 94.6912 310.03Z" fill="#2CB6BF" stroke="white" stroke-width="0.5" stroke-miterlimit="10"/>
<path d="M92.1276 310.109L91.9927 310.311V311.595V315.469L91.9814 328.408H94.4328L95.2986 328.363L95.8833 328.104L96.3781 327.687L96.513 326.798V324.455V317.203V311.708L96.2319 310.615L95.5235 310.109L93.5894 310.03L92.1276 310.109Z" fill="#227EB0"/>
<path d="M91.8914 328.498V310.03" stroke="white" stroke-width="0.5" stroke-miterlimit="10"/>
<path d="M96.5691 318.386H91.8914V320.142H96.5691V318.386Z" stroke="white" stroke-width="0.5" stroke-miterlimit="10"/>
<path d="M94.2303 324.973C94.6836 324.973 95.0511 324.605 95.0511 324.151C95.0511 323.697 94.6836 323.329 94.2303 323.329C93.7769 323.329 93.4094 323.697 93.4094 324.151C93.4094 324.605 93.7769 324.973 94.2303 324.973Z" stroke="white" stroke-width="0.5" stroke-miterlimit="10"/>
<path d="M94.6912 310.03H59.9565C58.9194 310.03 58.0786 310.872 58.0786 311.91V326.617C58.0786 327.656 58.9194 328.498 59.9565 328.498H94.6912C95.7284 328.498 96.5691 327.656 96.5691 326.617V311.91C96.5691 310.872 95.7284 310.03 94.6912 310.03Z" stroke="white" stroke-width="0.5" stroke-miterlimit="10"/>
<path d="M143.043 310.03H108.309C107.271 310.03 106.431 310.872 106.431 311.91V326.617C106.431 327.656 107.271 328.498 108.309 328.498H143.043C144.08 328.498 144.921 327.656 144.921 326.617V311.91C144.921 310.872 144.08 310.03 143.043 310.03Z" fill="#2CB6BF" stroke="white" stroke-width="0.5" stroke-miterlimit="10"/>
<path d="M140.491 310.109L140.345 310.311V311.595V315.469L140.333 328.408H142.785L143.651 328.363L144.235 328.104L144.73 327.687L144.865 326.798V324.455V317.203V311.708L144.595 310.615L143.876 310.109L141.941 310.03L140.491 310.109Z" fill="#227EB0"/>
<path d="M140.243 328.498V310.03" stroke="white" stroke-width="0.5" stroke-miterlimit="10"/>
<path d="M144.921 318.386H140.243V320.142H144.921V318.386Z" stroke="white" stroke-width="0.5" stroke-miterlimit="10"/>
<path d="M142.582 324.973C143.036 324.973 143.403 324.605 143.403 324.151C143.403 323.697 143.036 323.329 142.582 323.329C142.129 323.329 141.761 323.697 141.761 324.151C141.761 324.605 142.129 324.973 142.582 324.973Z" stroke="white" stroke-width="0.5" stroke-miterlimit="10"/>
<path d="M143.043 310.03H108.309C107.271 310.03 106.431 310.872 106.431 311.91V326.617C106.431 327.656 107.271 328.498 108.309 328.498H143.043C144.08 328.498 144.921 327.656 144.921 326.617V311.91C144.921 310.872 144.08 310.03 143.043 310.03Z" stroke="white" stroke-width="0.5" stroke-miterlimit="10"/>
<path d="M191.395 310.03H156.661C155.623 310.03 154.783 310.872 154.783 311.91V326.617C154.783 327.656 155.623 328.498 156.661 328.498H191.395C192.432 328.498 193.273 327.656 193.273 326.617V311.91C193.273 310.872 192.432 310.03 191.395 310.03Z" fill="#2CB6BF" stroke="white" stroke-width="0.5" stroke-miterlimit="10"/>
<path d="M188.843 310.109L188.697 310.311V311.595V315.469L188.686 328.408H191.137L192.003 328.363L192.587 328.104L193.082 327.687L193.217 326.798V324.455V317.203V311.708L192.947 310.615L192.228 310.109L190.294 310.03L188.843 310.109Z" fill="#227EB0"/>
<path d="M188.596 328.498V310.03" stroke="white" stroke-width="0.5" stroke-miterlimit="10"/>
<path d="M193.273 318.386H188.596V320.142H193.273V318.386Z" stroke="white" stroke-width="0.5" stroke-miterlimit="10"/>
<path d="M190.934 324.973C191.388 324.973 191.755 324.605 191.755 324.151C191.755 323.697 191.388 323.329 190.934 323.329C190.481 323.329 190.114 323.697 190.114 324.151C190.114 324.605 190.481 324.973 190.934 324.973Z" stroke="white" stroke-width="0.5" stroke-miterlimit="10"/>
<path d="M191.395 310.03H156.661C155.623 310.03 154.783 310.872 154.783 311.91V326.617C154.783 327.656 155.623 328.498 156.661 328.498H191.395C192.432 328.498 193.273 327.656 193.273 326.617V311.91C193.273 310.872 192.432 310.03 191.395 310.03Z" stroke="white" stroke-width="0.5" stroke-miterlimit="10"/>
<path d="M46.3392 332.113H11.6044C10.5673 332.113 9.72656 332.955 9.72656 333.994V348.701C9.72656 349.739 10.5673 350.581 11.6044 350.581H46.3392C47.3763 350.581 48.2171 349.739 48.2171 348.701V333.994C48.2171 332.955 47.3763 332.113 46.3392 332.113Z" fill="#2CB6BF" stroke="white" stroke-width="0.5" stroke-miterlimit="10"/>
<path d="M43.7756 332.203L43.6406 332.406V333.69V337.552L43.6294 350.491H46.0807L46.9353 350.446L47.5313 350.198L48.0261 349.77L48.161 348.881V346.539V339.286V333.791L47.8911 332.71L47.1715 332.203L45.2374 332.113L43.7756 332.203Z" fill="#227EB0"/>
<path d="M43.5393 350.581V332.113" stroke="white" stroke-width="0.5" stroke-miterlimit="10"/>
<path d="M48.2171 340.469H43.5393V342.225H48.2171V340.469Z" stroke="white" stroke-width="0.5" stroke-miterlimit="10"/>
<path d="M45.8782 347.056C46.3316 347.056 46.6991 346.688 46.6991 346.234C46.6991 345.78 46.3316 345.412 45.8782 345.412C45.4249 345.412 45.0574 345.78 45.0574 346.234C45.0574 346.688 45.4249 347.056 45.8782 347.056Z" stroke="white" stroke-width="0.5" stroke-miterlimit="10"/>
<path d="M46.3392 332.113H11.6044C10.5673 332.113 9.72656 332.955 9.72656 333.994V348.701C9.72656 349.739 10.5673 350.581 11.6044 350.581H46.3392C47.3763 350.581 48.2171 349.739 48.2171 348.701V333.994C48.2171 332.955 47.3763 332.113 46.3392 332.113Z" stroke="white" stroke-width="0.5" stroke-miterlimit="10"/>
<path d="M94.6912 332.113H59.9565C58.9194 332.113 58.0786 332.955 58.0786 333.994V348.701C58.0786 349.739 58.9194 350.581 59.9565 350.581H94.6912C95.7284 350.581 96.5691 349.739 96.5691 348.701V333.994C96.5691 332.955 95.7284 332.113 94.6912 332.113Z" fill="#2CB6BF" stroke="white" stroke-width="0.5" stroke-miterlimit="10"/>
<path d="M92.1276 332.203L91.9927 332.406V333.69V337.552L91.9814 350.491H94.4328L95.2986 350.446L95.8833 350.198L96.3781 349.77L96.513 348.881V346.539V339.286V333.791L96.2319 332.71L95.5235 332.203L93.5894 332.113L92.1276 332.203Z" fill="#227EB0"/>
<path d="M91.8914 350.581V332.113" stroke="white" stroke-width="0.5" stroke-miterlimit="10"/>
<path d="M96.5691 340.469H91.8914V342.225H96.5691V340.469Z" stroke="white" stroke-width="0.5" stroke-miterlimit="10"/>
<path d="M94.2303 347.056C94.6836 347.056 95.0511 346.688 95.0511 346.234C95.0511 345.78 94.6836 345.412 94.2303 345.412C93.7769 345.412 93.4094 345.78 93.4094 346.234C93.4094 346.688 93.7769 347.056 94.2303 347.056Z" stroke="white" stroke-width="0.5" stroke-miterlimit="10"/>
<path d="M94.6912 332.113H59.9565C58.9194 332.113 58.0786 332.955 58.0786 333.994V348.701C58.0786 349.739 58.9194 350.581 59.9565 350.581H94.6912C95.7284 350.581 96.5691 349.739 96.5691 348.701V333.994C96.5691 332.955 95.7284 332.113 94.6912 332.113Z" stroke="white" stroke-width="0.5" stroke-miterlimit="10"/>
<path d="M143.043 332.113H108.309C107.271 332.113 106.431 332.955 106.431 333.994V348.701C106.431 349.739 107.271 350.581 108.309 350.581H143.043C144.08 350.581 144.921 349.739 144.921 348.701V333.994C144.921 332.955 144.08 332.113 143.043 332.113Z" fill="#2CB6BF" stroke="white" stroke-width="0.5" stroke-miterlimit="10"/>
<path d="M140.491 332.203L140.345 332.406V333.69V337.552L140.333 350.491H142.785L143.651 350.446L144.235 350.198L144.73 349.77L144.865 348.881V346.539V339.286V333.791L144.595 332.71L143.876 332.203L141.941 332.113L140.491 332.203Z" fill="#227EB0"/>
<path d="M140.243 350.581V332.113" stroke="white" stroke-width="0.5" stroke-miterlimit="10"/>
<path d="M144.921 340.469H140.243V342.225H144.921V340.469Z" stroke="white" stroke-width="0.5" stroke-miterlimit="10"/>
<path d="M142.582 347.056C143.036 347.056 143.403 346.688 143.403 346.234C143.403 345.78 143.036 345.412 142.582 345.412C142.129 345.412 141.761 345.78 141.761 346.234C141.761 346.688 142.129 347.056 142.582 347.056Z" stroke="white" stroke-width="0.5" stroke-miterlimit="10"/>
<path d="M143.043 332.113H108.309C107.271 332.113 106.431 332.955 106.431 333.994V348.701C106.431 349.739 107.271 350.581 108.309 350.581H143.043C144.08 350.581 144.921 349.739 144.921 348.701V333.994C144.921 332.955 144.08 332.113 143.043 332.113Z" stroke="white" stroke-width="0.5" stroke-miterlimit="10"/>
<path d="M191.395 332.113H156.661C155.623 332.113 154.783 332.955 154.783 333.994V348.701C154.783 349.739 155.623 350.581 156.661 350.581H191.395C192.432 350.581 193.273 349.739 193.273 348.701V333.994C193.273 332.955 192.432 332.113 191.395 332.113Z" fill="#2CB6BF" stroke="white" stroke-width="0.5" stroke-miterlimit="10"/>
<path d="M188.843 332.203L188.697 332.406V333.69V337.552L188.686 350.491H191.137L192.003 350.446L192.587 350.198L193.082 349.77L193.217 348.881V346.539V339.286V333.791L192.947 332.71L192.228 332.203L190.294 332.113L188.843 332.203Z" fill="#227EB0"/>
<path d="M188.596 350.581V332.113" stroke="white" stroke-width="0.5" stroke-miterlimit="10"/>
<path d="M193.273 340.469H188.596V342.225H193.273V340.469Z" stroke="white" stroke-width="0.5" stroke-miterlimit="10"/>
<path d="M190.934 347.056C191.388 347.056 191.755 346.688 191.755 346.234C191.755 345.78 191.388 345.412 190.934 345.412C190.481 345.412 190.114 345.78 190.114 346.234C190.114 346.688 190.481 347.056 190.934 347.056Z" stroke="white" stroke-width="0.5" stroke-miterlimit="10"/>
<path d="M191.395 332.113H156.661C155.623 332.113 154.783 332.955 154.783 333.994V348.701C154.783 349.739 155.623 350.581 156.661 350.581H191.395C192.432 350.581 193.273 349.739 193.273 348.701V333.994C193.273 332.955 192.432 332.113 191.395 332.113Z" stroke="white" stroke-width="0.5" stroke-miterlimit="10"/>
</g>
<defs>
<clipPath id="clip0_165_587">
<rect width="203" height="357" fill="white"/>
</clipPath>
</defs>
</svg>
