<svg width="221" height="357" viewBox="0 0 221 357" fill="none" xmlns="http://www.w3.org/2000/svg">
<g clip-path="url(#clip0_165_292)">
<path d="M220.719 0.281372H0.280762V356.719H220.719V0.281372Z" fill="#2E5985" stroke="white" stroke-width="0.5" stroke-miterlimit="10"/>
<path d="M102.466 70.3549H60.5344C59.4972 70.3549 58.6565 71.1968 58.6565 72.2355V98.4288C58.6565 99.4675 59.4972 100.309 60.5344 100.309H102.466C103.503 100.309 104.344 99.4675 104.344 98.4288V72.2355C104.344 71.1968 103.503 70.3549 102.466 70.3549Z" fill="#237EB0" stroke="white" stroke-width="0.5" stroke-miterlimit="10"/>
<path d="M102.263 72.089H60.7256V98.5864H102.263V72.089Z" fill="white" stroke="white" stroke-width="0.5" stroke-miterlimit="10"/>
<path d="M88.7975 103.807H74.5239C72.8741 103.807 71.5366 105.148 71.5366 106.802V114.006C71.5366 115.66 72.8741 117 74.5239 117H88.7975C90.4473 117 91.7848 115.66 91.7848 114.006V106.802C91.7848 105.148 90.4473 103.807 88.7975 103.807Z" fill="#2CB6BF" stroke="white" stroke-width="0.5" stroke-miterlimit="10"/>
<path d="M92.7393 116.854C92.8943 116.854 93.02 116.728 93.02 116.572C93.02 116.417 92.8943 116.291 92.7393 116.291C92.5842 116.291 92.4585 116.417 92.4585 116.572C92.4585 116.728 92.5842 116.854 92.7393 116.854Z" stroke="white" stroke-width="0.5" stroke-miterlimit="10"/>
<path d="M92.7393 104.787C92.8943 104.787 93.02 104.661 93.02 104.505C93.02 104.35 92.8943 104.224 92.7393 104.224C92.5842 104.224 92.4585 104.35 92.4585 104.505C92.4585 104.661 92.5842 104.787 92.7393 104.787Z" stroke="white" stroke-width="0.5" stroke-miterlimit="10"/>
<path d="M70.6382 116.73C70.7932 116.73 70.9189 116.604 70.9189 116.449C70.9189 116.293 70.7932 116.167 70.6382 116.167C70.4831 116.167 70.3574 116.293 70.3574 116.449C70.3574 116.604 70.4831 116.73 70.6382 116.73Z" stroke="white" stroke-width="0.5" stroke-miterlimit="10"/>
<path d="M70.6382 104.652C70.7932 104.652 70.9189 104.526 70.9189 104.37C70.9189 104.215 70.7932 104.089 70.6382 104.089C70.4831 104.089 70.3574 104.215 70.3574 104.37C70.3574 104.526 70.4831 104.652 70.6382 104.652Z" stroke="white" stroke-width="0.5" stroke-miterlimit="10"/>
<path d="M0.280762 119.769H220.719" stroke="white" stroke-width="0.5" stroke-miterlimit="10"/>
<path d="M220.719 237.04H0.280762" stroke="white" stroke-width="0.5" stroke-miterlimit="10"/>
<path d="M68.9199 62.3047H72.2328V63.2727H71.1323V66.5034H70.0093V63.2727H68.9199V62.3047Z" fill="white"/>
<path d="M72.5812 65.0626V63.7906C72.5693 63.5834 72.6012 63.3761 72.6747 63.1821C72.7482 62.9881 72.8618 62.8119 73.0079 62.6649C73.4847 62.3703 74.0459 62.2435 74.6026 62.3047C75.0979 62.2598 75.5936 62.387 76.0064 62.6649C76.1647 62.8224 76.2862 63.0131 76.3619 63.2234C76.4376 63.4336 76.4658 63.6581 76.4444 63.8806V65.0626C76.4696 65.2866 76.4398 65.5135 76.3576 65.7234C76.2754 65.9333 76.1433 66.1199 75.9727 66.267C75.5101 66.5337 74.977 66.6516 74.4454 66.6047C73.9606 66.645 73.4759 66.5265 73.0641 66.267C72.9008 66.1308 72.7719 65.9578 72.688 65.7622C72.6041 65.5666 72.5675 65.3539 72.5812 65.1414M73.7042 64.0157V64.9725C73.6868 65.1714 73.7383 65.3702 73.8502 65.5353C73.94 65.6366 74.1646 65.6704 74.5016 65.6704C74.7117 65.6945 74.924 65.6511 75.108 65.5466C75.2203 65.4565 75.2652 65.2652 75.2652 64.9838V64.0044C75.2652 63.723 75.2652 63.5429 75.108 63.4529C74.9232 63.3505 74.7116 63.3072 74.5016 63.3291C74.2773 63.3118 74.0525 63.3545 73.8502 63.4529C73.7347 63.6164 73.6828 63.8165 73.7042 64.0157Z" fill="white"/>
<path d="M76.9721 65.0626V63.7906C76.9587 63.5843 76.9888 63.3774 77.0604 63.1835C77.132 62.9896 77.2435 62.8129 77.3876 62.665C77.865 62.3719 78.4256 62.2453 78.9823 62.3047C79.4777 62.258 79.974 62.3853 80.3861 62.665C80.5478 62.8141 80.6741 62.9977 80.7557 63.2023C80.8373 63.4068 80.8722 63.6271 80.8577 63.8469V65.0288C80.8829 65.2529 80.8531 65.4798 80.7709 65.6897C80.6887 65.8996 80.5566 66.0862 80.3861 66.2333C79.924 66.5013 79.3904 66.6193 78.8588 66.571C78.374 66.6113 77.8892 66.4928 77.4774 66.2333C77.3195 66.0932 77.1951 65.9193 77.1134 65.7244C77.0318 65.5295 76.995 65.3187 77.0058 65.1076M78.1288 63.982V64.9388C78.1147 65.1358 78.1617 65.3324 78.2636 65.5016C78.3534 65.6029 78.578 65.6367 78.9149 65.6367C79.1286 65.6609 79.3446 65.6176 79.5326 65.5129C79.6572 65.3535 79.7137 65.1511 79.6898 64.95V63.9707C79.702 63.8729 79.6944 63.7736 79.6674 63.6788C79.6403 63.5841 79.5945 63.4957 79.5326 63.4191C79.3427 63.3197 79.1284 63.2767 78.9149 63.2953C78.6908 63.2796 78.4664 63.3223 78.2636 63.4191C78.1581 63.5868 78.1107 63.7846 78.1288 63.982Z" fill="white"/>
<path d="M81.509 62.3047H82.6321V65.5353H84.384V66.5034H81.509V62.3047Z" fill="white"/>
<path d="M85.8777 65.1526C85.8712 65.2215 85.8787 65.2909 85.9 65.3568C85.9212 65.4226 85.9557 65.4834 86.0013 65.5353C86.181 65.6151 86.3785 65.6461 86.574 65.6254C86.7658 65.6441 86.9592 65.6131 87.1355 65.5353C87.1822 65.4935 87.2178 65.4408 87.2393 65.3819C87.2609 65.323 87.2677 65.2597 87.2591 65.1976C87.2677 65.1408 87.263 65.0828 87.2455 65.0281C87.228 64.9734 87.198 64.9236 87.158 64.8824C86.9957 64.8265 86.8239 64.8035 86.6526 64.8149C86.1389 64.8517 85.6244 64.7548 85.159 64.5335C85.0193 64.4103 84.9123 64.2543 84.8476 64.0794C84.7829 63.9046 84.7626 63.7163 84.7884 63.5316C84.7884 62.9913 84.9119 62.6311 85.1815 62.4623C85.6066 62.2671 86.0738 62.182 86.5403 62.2146C87.0074 62.1709 87.4774 62.2565 87.8992 62.4623C88.0209 62.5829 88.1135 62.7297 88.17 62.8916C88.2264 63.0535 88.2452 63.2263 88.2249 63.3966V63.5654H87.1018C87.1011 63.4385 87.0576 63.3155 86.9783 63.2165C86.8333 63.1406 86.6693 63.1093 86.5066 63.1264C86.3242 63.1104 86.1405 63.1334 85.9676 63.194C85.8778 63.194 85.8441 63.3515 85.8441 63.5091C85.8391 63.6055 85.8668 63.7007 85.9227 63.7793C86.0515 63.8554 86.2002 63.8908 86.3494 63.8806C86.7256 63.8966 87.1006 63.9342 87.4724 63.9932C87.6154 63.998 87.7545 64.0413 87.875 64.1186C87.9955 64.1958 88.0931 64.3041 88.1575 64.4322C88.2582 64.6858 88.3004 64.9591 88.281 65.2314C88.2979 65.4085 88.2755 65.5872 88.2153 65.7546C88.1551 65.9219 88.0586 66.0739 87.9329 66.1994C87.4907 66.4533 86.9794 66.5598 86.4729 66.5034C85.6531 66.5034 85.159 66.3795 84.9681 66.1319C84.7582 65.8294 84.6591 65.4636 84.6873 65.0963H85.8104L85.8777 65.1526Z" fill="white"/>
<path d="M88.9773 62.3047H89.9431V63.0364H88.9773V62.3047ZM88.9773 63.5654H89.9431V66.5034H88.9773V63.5654Z" fill="white"/>
<path d="M90.6169 66.5034V62.3047H92.863C93.308 62.2724 93.75 62.4001 94.1096 62.665C94.2558 62.8294 94.3671 63.022 94.4366 63.2311C94.5061 63.4401 94.5324 63.6611 94.5138 63.8807V64.8712C94.5554 65.3235 94.4228 65.7746 94.1432 66.132C93.9822 66.2751 93.7932 66.3831 93.5882 66.449C93.3833 66.5149 93.1669 66.5372 92.9528 66.5147H90.7068L90.6169 66.5034ZM91.74 65.5354H92.6945C92.8554 65.5421 93.0126 65.4855 93.1325 65.3778C93.1988 65.2946 93.2479 65.199 93.2768 65.0965C93.3057 64.9941 93.314 64.8869 93.301 64.7812V63.9482C93.3143 63.7669 93.2711 63.586 93.1774 63.4304C93.1114 63.3739 93.0344 63.3318 92.9513 63.3066C92.8682 63.2814 92.7807 63.2737 92.6945 63.2841H91.74V65.5354Z" fill="white"/>
<path d="M51.0865 7.37305H6.86178C5.826 7.37305 4.98633 8.21468 4.98633 9.25288V27.8824C4.98633 28.9206 5.826 29.7622 6.86178 29.7622H51.0865C52.1223 29.7622 52.9619 28.9206 52.9619 27.8824V9.25288C52.9619 8.21468 52.1223 7.37305 51.0865 7.37305Z" fill="#2CB6BF" stroke="white" stroke-width="0.5" stroke-miterlimit="10"/>
<path d="M47.5937 7.47436L47.4253 7.722V9.2754V13.9694L47.4141 29.6497H50.3788L51.4233 29.5934L52.1308 29.2895L52.7484 28.7829L52.9057 27.7023V24.8544V16.0631V9.39922L52.5687 8.08221L51.704 7.47436L49.3681 7.37305L47.5937 7.47436Z" fill="#227EB0"/>
<path d="M47.3018 29.7622V7.37305" stroke="white" stroke-width="0.5" stroke-miterlimit="10"/>
<path d="M52.973 17.5039H47.3018V19.6314H52.973V17.5039Z" stroke="white" stroke-width="0.5" stroke-miterlimit="10"/>
<path d="M50.1318 25.496C50.6838 25.496 51.1313 25.0474 51.1313 24.4941C51.1313 23.9408 50.6838 23.4923 50.1318 23.4923C49.5798 23.4923 49.1323 23.9408 49.1323 24.4941C49.1323 25.0474 49.5798 25.496 50.1318 25.496Z" stroke="white" stroke-width="0.5" stroke-miterlimit="10"/>
<path d="M51.0865 7.37305H6.86178C5.826 7.37305 4.98633 8.21468 4.98633 9.25288V27.8824C4.98633 28.9206 5.826 29.7622 6.86178 29.7622H51.0865C52.1223 29.7622 52.9619 28.9206 52.9619 27.8824V9.25288C52.9619 8.21468 52.1223 7.37305 51.0865 7.37305Z" stroke="white" stroke-width="0.5" stroke-miterlimit="10"/>
<path d="M105.441 7.31677H61.216C60.1802 7.31677 59.3406 8.1584 59.3406 9.19661V27.8261C59.3406 28.8643 60.1802 29.706 61.216 29.706H105.441C106.477 29.706 107.316 28.8643 107.316 27.8261V9.19661C107.316 8.1584 106.477 7.31677 105.441 7.31677Z" fill="#2CB6BF" stroke="white" stroke-width="0.5" stroke-miterlimit="10"/>
<path d="M101.948 7.41808L101.769 7.66572V9.21912V13.9131L101.757 29.5934H104.722L105.767 29.5371L106.485 29.2332L107.092 28.7266L107.249 27.646V24.7981V16.0068V9.34294L106.912 8.02593L106.047 7.41808L103.711 7.31677L101.948 7.41808Z" fill="#227EB0"/>
<path d="M101.645 29.706V7.31677" stroke="white" stroke-width="0.5" stroke-miterlimit="10"/>
<path d="M107.316 17.4476H101.645V19.5751H107.316V17.4476Z" stroke="white" stroke-width="0.5" stroke-miterlimit="10"/>
<path d="M104.486 25.4397C105.038 25.4397 105.486 24.9912 105.486 24.4379C105.486 23.8846 105.038 23.436 104.486 23.436C103.934 23.436 103.487 23.8846 103.487 24.4379C103.487 24.9912 103.934 25.4397 104.486 25.4397Z" stroke="white" stroke-width="0.5" stroke-miterlimit="10"/>
<path d="M105.441 7.31677H61.216C60.1802 7.31677 59.3406 8.1584 59.3406 9.19661V27.8261C59.3406 28.8643 60.1802 29.706 61.216 29.706H105.441C106.477 29.706 107.316 28.8643 107.316 27.8261V9.19661C107.316 8.1584 106.477 7.31677 105.441 7.31677Z" stroke="white" stroke-width="0.5" stroke-miterlimit="10"/>
<path d="M159.784 7.37305H115.559C114.524 7.37305 113.684 8.21468 113.684 9.25288V27.8824C113.684 28.9206 114.524 29.7622 115.559 29.7622H159.784C160.82 29.7622 161.659 28.9206 161.659 27.8824V9.25288C161.659 8.21468 160.82 7.37305 159.784 7.37305Z" fill="#2CB6BF" stroke="white" stroke-width="0.5" stroke-miterlimit="10"/>
<path d="M156.291 7.47436L156.112 7.722V9.2754V13.9694L156.1 29.6497H159.076L160.121 29.5934L160.828 29.2895L161.435 28.7829L161.592 27.7023V24.8544V16.0631V9.39922L161.266 8.08221L160.39 7.47436L158.054 7.37305L156.291 7.47436Z" fill="#227EB0"/>
<path d="M155.988 29.7622V7.37305" stroke="white" stroke-width="0.5" stroke-miterlimit="10"/>
<path d="M161.659 17.5039H155.988V19.6314H161.659V17.5039Z" stroke="white" stroke-width="0.5" stroke-miterlimit="10"/>
<path d="M158.829 25.496C159.381 25.496 159.829 25.0474 159.829 24.4941C159.829 23.9408 159.381 23.4923 158.829 23.4923C158.277 23.4923 157.83 23.9408 157.83 24.4941C157.83 25.0474 158.277 25.496 158.829 25.496Z" stroke="white" stroke-width="0.5" stroke-miterlimit="10"/>
<path d="M159.784 7.37305H115.559C114.524 7.37305 113.684 8.21468 113.684 9.25288V27.8824C113.684 28.9206 114.524 29.7622 115.559 29.7622H159.784C160.82 29.7622 161.659 28.9206 161.659 27.8824V9.25288C161.659 8.21468 160.82 7.37305 159.784 7.37305Z" stroke="white" stroke-width="0.5" stroke-miterlimit="10"/>
<path d="M214.127 7.2605H169.902C168.867 7.2605 168.027 8.10213 168.027 9.14033V27.7698C168.027 28.8081 168.867 29.6497 169.902 29.6497H214.127C215.163 29.6497 216.002 28.8081 216.002 27.7698V9.14033C216.002 8.10213 215.163 7.2605 214.127 7.2605Z" fill="#2CB6BF" stroke="white" stroke-width="0.5" stroke-miterlimit="10"/>
<path d="M210.635 7.36181L210.455 7.60945V9.16285V13.8568L210.444 29.5484H213.42L214.464 29.4808L215.172 29.1769L215.778 28.6704L215.946 27.601V24.7418V15.9505V9.29793L215.61 7.98091L214.745 7.36181L212.398 7.2605L210.635 7.36181Z" fill="#227EB0"/>
<path d="M210.343 29.6497V7.2605" stroke="white" stroke-width="0.5" stroke-miterlimit="10"/>
<path d="M216.014 17.3914H210.343V19.5188H216.014V17.3914Z" stroke="white" stroke-width="0.5" stroke-miterlimit="10"/>
<path d="M213.173 25.3834C213.725 25.3834 214.172 24.9349 214.172 24.3816C214.172 23.8283 213.725 23.3798 213.173 23.3798C212.621 23.3798 212.173 23.8283 212.173 24.3816C212.173 24.9349 212.621 25.3834 213.173 25.3834Z" stroke="white" stroke-width="0.5" stroke-miterlimit="10"/>
<path d="M214.127 7.2605H169.902C168.867 7.2605 168.027 8.10213 168.027 9.14033V27.7698C168.027 28.8081 168.867 29.6497 169.902 29.6497H214.127C215.163 29.6497 216.002 28.8081 216.002 27.7698V9.14033C216.002 8.10213 215.163 7.2605 214.127 7.2605Z" stroke="white" stroke-width="0.5" stroke-miterlimit="10"/>
<path d="M51.0865 35.5593H6.86178C5.826 35.5593 4.98633 36.401 4.98633 37.4392V56.0687C4.98633 57.1069 5.826 57.9485 6.86178 57.9485H51.0865C52.1223 57.9485 52.9619 57.1069 52.9619 56.0687V37.4392C52.9619 36.401 52.1223 35.5593 51.0865 35.5593Z" fill="#2CB6BF" stroke="white" stroke-width="0.5" stroke-miterlimit="10"/>
<path d="M47.5937 35.6606L47.4253 35.9083V37.4617V42.1556L47.4141 57.8472H50.3788L51.4233 57.7909L52.1308 57.4757L52.7484 56.9692L52.9057 55.8998V53.0519V44.2493V37.5968L52.5687 36.2797L51.704 35.6606L49.3681 35.5593L47.5937 35.6606Z" fill="#227EB0"/>
<path d="M47.3018 57.9485V35.5593" stroke="white" stroke-width="0.5" stroke-miterlimit="10"/>
<path d="M52.973 45.6902H47.3018V47.8177H52.973V45.6902Z" stroke="white" stroke-width="0.5" stroke-miterlimit="10"/>
<path d="M50.1318 53.6822C50.6838 53.6822 51.1313 53.2337 51.1313 52.6804C51.1313 52.1271 50.6838 51.6786 50.1318 51.6786C49.5798 51.6786 49.1323 52.1271 49.1323 52.6804C49.1323 53.2337 49.5798 53.6822 50.1318 53.6822Z" stroke="white" stroke-width="0.5" stroke-miterlimit="10"/>
<path d="M51.0865 35.5593H6.86178C5.826 35.5593 4.98633 36.401 4.98633 37.4392V56.0687C4.98633 57.1069 5.826 57.9485 6.86178 57.9485H51.0865C52.1223 57.9485 52.9619 57.1069 52.9619 56.0687V37.4392C52.9619 36.401 52.1223 35.5593 51.0865 35.5593Z" stroke="white" stroke-width="0.5" stroke-miterlimit="10"/>
<path d="M105.441 35.5031H61.216C60.1802 35.5031 59.3406 36.3447 59.3406 37.3829V56.0124C59.3406 57.0506 60.1802 57.8922 61.216 57.8922H105.441C106.477 57.8922 107.316 57.0506 107.316 56.0124V37.3829C107.316 36.3447 106.477 35.5031 105.441 35.5031Z" fill="#2CB6BF" stroke="white" stroke-width="0.5" stroke-miterlimit="10"/>
<path d="M101.948 35.6044L101.769 35.852V37.4054V42.1106L101.757 57.7909H104.722L105.767 57.7346L106.485 57.4307L107.092 56.9129L107.249 55.8436V52.9957V44.1931V37.5405L106.912 36.2235L106.047 35.6044L103.711 35.5031L101.948 35.6044Z" fill="#227EB0"/>
<path d="M101.645 57.9035V35.5031" stroke="white" stroke-width="0.5" stroke-miterlimit="10"/>
<path d="M107.316 45.6339H101.645V47.7614H107.316V45.6339Z" stroke="white" stroke-width="0.5" stroke-miterlimit="10"/>
<path d="M104.486 53.626C105.038 53.626 105.486 53.1774 105.486 52.6241C105.486 52.0708 105.038 51.6223 104.486 51.6223C103.934 51.6223 103.487 52.0708 103.487 52.6241C103.487 53.1774 103.934 53.626 104.486 53.626Z" stroke="white" stroke-width="0.5" stroke-miterlimit="10"/>
<path d="M105.441 35.5031H61.216C60.1802 35.5031 59.3406 36.3447 59.3406 37.3829V56.0124C59.3406 57.0506 60.1802 57.8922 61.216 57.8922H105.441C106.477 57.8922 107.316 57.0506 107.316 56.0124V37.3829C107.316 36.3447 106.477 35.5031 105.441 35.5031Z" stroke="white" stroke-width="0.5" stroke-miterlimit="10"/>
<path d="M159.784 35.5593H115.559C114.524 35.5593 113.684 36.401 113.684 37.4392V56.0687C113.684 57.1069 114.524 57.9485 115.559 57.9485H159.784C160.82 57.9485 161.659 57.1069 161.659 56.0687V37.4392C161.659 36.401 160.82 35.5593 159.784 35.5593Z" fill="#2CB6BF" stroke="white" stroke-width="0.5" stroke-miterlimit="10"/>
<path d="M156.291 35.6606L156.112 35.9083V37.4617V42.1556L156.1 57.8472H159.076L160.121 57.7909L160.828 57.4757L161.435 56.9692L161.592 55.8998V53.0519V44.2493V37.5968L161.266 36.2797L160.39 35.6606L158.054 35.5593L156.291 35.6606Z" fill="#227EB0"/>
<path d="M155.988 57.9485V35.5593" stroke="white" stroke-width="0.5" stroke-miterlimit="10"/>
<path d="M161.659 45.6902H155.988V47.8177H161.659V45.6902Z" stroke="white" stroke-width="0.5" stroke-miterlimit="10"/>
<path d="M158.829 53.6822C159.381 53.6822 159.829 53.2337 159.829 52.6804C159.829 52.1271 159.381 51.6786 158.829 51.6786C158.277 51.6786 157.83 52.1271 157.83 52.6804C157.83 53.2337 158.277 53.6822 158.829 53.6822Z" stroke="white" stroke-width="0.5" stroke-miterlimit="10"/>
<path d="M159.784 35.5593H115.559C114.524 35.5593 113.684 36.401 113.684 37.4392V56.0687C113.684 57.1069 114.524 57.9485 115.559 57.9485H159.784C160.82 57.9485 161.659 57.1069 161.659 56.0687V37.4392C161.659 36.401 160.82 35.5593 159.784 35.5593Z" stroke="white" stroke-width="0.5" stroke-miterlimit="10"/>
<path d="M214.127 35.4468H169.902C168.867 35.4468 168.027 36.2884 168.027 37.3266V55.9561C168.027 56.9943 168.867 57.836 169.902 57.836H214.127C215.163 57.836 216.002 56.9943 216.002 55.9561V37.3266C216.002 36.2884 215.163 35.4468 214.127 35.4468Z" fill="#2CB6BF" stroke="white" stroke-width="0.5" stroke-miterlimit="10"/>
<path d="M210.635 35.5481L210.455 35.7957V37.3604V42.0543L210.444 57.7347H213.42L214.464 57.6784L215.172 57.3744L215.778 56.8566L215.946 55.7873V52.9394V44.1481V37.4842L215.61 36.1672L214.745 35.5481L212.398 35.4468L210.635 35.5481Z" fill="#227EB0"/>
<path d="M210.343 57.8472V35.4468" stroke="white" stroke-width="0.5" stroke-miterlimit="10"/>
<path d="M216.014 45.5889H210.343V47.7163H216.014V45.5889Z" stroke="white" stroke-width="0.5" stroke-miterlimit="10"/>
<path d="M213.173 53.5809C213.725 53.5809 214.172 53.1324 214.172 52.5791C214.172 52.0258 213.725 51.5773 213.173 51.5773C212.621 51.5773 212.173 52.0258 212.173 52.5791C212.173 53.1324 212.621 53.5809 213.173 53.5809Z" stroke="white" stroke-width="0.5" stroke-miterlimit="10"/>
<path d="M214.127 35.4468H169.902C168.867 35.4468 168.027 36.2884 168.027 37.3266V55.9561C168.027 56.9943 168.867 57.836 169.902 57.836H214.127C215.163 57.836 216.002 56.9943 216.002 55.9561V37.3266C216.002 36.2884 215.163 35.4468 214.127 35.4468Z" stroke="white" stroke-width="0.5" stroke-miterlimit="10"/>
<path d="M51.0865 63.7568H6.86178C5.826 63.7568 4.98633 64.5985 4.98633 65.6367V84.2662C4.98633 85.3044 5.826 86.146 6.86178 86.146H51.0865C52.1223 86.146 52.9619 85.3044 52.9619 84.2662V65.6367C52.9619 64.5985 52.1223 63.7568 51.0865 63.7568Z" fill="#2CB6BF" stroke="white" stroke-width="0.5" stroke-miterlimit="10"/>
<path d="M47.5937 63.8581L47.4253 64.1058V65.6592V70.3531L47.4141 86.0335H50.3788L51.4233 85.9772L52.1308 85.6732L52.7484 85.1667L52.9057 84.0861V81.2382V72.4469V65.783L52.5687 64.466L51.704 63.8581L49.3681 63.7568L47.5937 63.8581Z" fill="#227EB0"/>
<path d="M47.3018 86.146V63.7568" stroke="white" stroke-width="0.5" stroke-miterlimit="10"/>
<path d="M52.973 73.8877H47.3018V76.0152H52.973V73.8877Z" stroke="white" stroke-width="0.5" stroke-miterlimit="10"/>
<path d="M50.1318 81.8798C50.6838 81.8798 51.1313 81.4312 51.1313 80.8779C51.1313 80.3246 50.6838 79.8761 50.1318 79.8761C49.5798 79.8761 49.1323 80.3246 49.1323 80.8779C49.1323 81.4312 49.5798 81.8798 50.1318 81.8798Z" stroke="white" stroke-width="0.5" stroke-miterlimit="10"/>
<path d="M51.0865 63.7568H6.86178C5.826 63.7568 4.98633 64.5985 4.98633 65.6367V84.2662C4.98633 85.3044 5.826 86.146 6.86178 86.146H51.0865C52.1223 86.146 52.9619 85.3044 52.9619 84.2662V65.6367C52.9619 64.5985 52.1223 63.7568 51.0865 63.7568Z" stroke="white" stroke-width="0.5" stroke-miterlimit="10"/>
<path d="M159.784 63.7568H115.559C114.524 63.7568 113.684 64.5985 113.684 65.6367V84.2662C113.684 85.3044 114.524 86.146 115.559 86.146H159.784C160.82 86.146 161.659 85.3044 161.659 84.2662V65.6367C161.659 64.5985 160.82 63.7568 159.784 63.7568Z" fill="#2CB6BF" stroke="white" stroke-width="0.5" stroke-miterlimit="10"/>
<path d="M156.291 63.8581L156.112 64.1058V65.6592V70.3531L156.1 86.0335H159.076L160.121 85.9772L160.828 85.6732L161.435 85.1667L161.592 84.0861V81.2382V72.4469V65.783L161.266 64.466L160.39 63.8581L158.054 63.7568L156.291 63.8581Z" fill="#227EB0"/>
<path d="M155.988 86.146V63.7568" stroke="white" stroke-width="0.5" stroke-miterlimit="10"/>
<path d="M161.659 73.8877H155.988V76.0152H161.659V73.8877Z" stroke="white" stroke-width="0.5" stroke-miterlimit="10"/>
<path d="M158.829 81.8798C159.381 81.8798 159.829 81.4312 159.829 80.8779C159.829 80.3246 159.381 79.8761 158.829 79.8761C158.277 79.8761 157.83 80.3246 157.83 80.8779C157.83 81.4312 158.277 81.8798 158.829 81.8798Z" stroke="white" stroke-width="0.5" stroke-miterlimit="10"/>
<path d="M159.784 63.7568H115.559C114.524 63.7568 113.684 64.5985 113.684 65.6367V84.2662C113.684 85.3044 114.524 86.146 115.559 86.146H159.784C160.82 86.146 161.659 85.3044 161.659 84.2662V65.6367C161.659 64.5985 160.82 63.7568 159.784 63.7568Z" stroke="white" stroke-width="0.5" stroke-miterlimit="10"/>
<path d="M214.127 63.6443H169.902C168.867 63.6443 168.027 64.4859 168.027 65.5241V84.1536C168.027 85.1918 168.867 86.0335 169.902 86.0335H214.127C215.163 86.0335 216.002 85.1918 216.002 84.1536V65.5241C216.002 64.4859 215.163 63.6443 214.127 63.6443Z" fill="#2CB6BF" stroke="white" stroke-width="0.5" stroke-miterlimit="10"/>
<path d="M210.635 63.7456L210.455 63.9932V65.5466V70.2406L210.444 85.9322H213.42L214.464 85.8646L215.172 85.5607L215.778 85.0542L215.946 83.9848V81.1256V72.3343V65.6817L215.61 64.3647L214.745 63.7456L212.398 63.6443L210.635 63.7456Z" fill="#227EB0"/>
<path d="M210.343 86.0335V63.6443" stroke="white" stroke-width="0.5" stroke-miterlimit="10"/>
<path d="M216.014 73.7751H210.343V75.9026H216.014V73.7751Z" stroke="white" stroke-width="0.5" stroke-miterlimit="10"/>
<path d="M213.173 81.7672C213.725 81.7672 214.172 81.3187 214.172 80.7654C214.172 80.2121 213.725 79.7635 213.173 79.7635C212.621 79.7635 212.173 80.2121 212.173 80.7654C212.173 81.3187 212.621 81.7672 213.173 81.7672Z" stroke="white" stroke-width="0.5" stroke-miterlimit="10"/>
<path d="M214.127 63.6443H169.902C168.867 63.6443 168.027 64.4859 168.027 65.5241V84.1536C168.027 85.1918 168.867 86.0335 169.902 86.0335H214.127C215.163 86.0335 216.002 85.1918 216.002 84.1536V65.5241C216.002 64.4859 215.163 63.6443 214.127 63.6443Z" stroke="white" stroke-width="0.5" stroke-miterlimit="10"/>
<path d="M51.0865 91.9431H6.86178C5.826 91.9431 4.98633 92.7847 4.98633 93.8229V112.452C4.98633 113.491 5.826 114.332 6.86178 114.332H51.0865C52.1223 114.332 52.9619 113.491 52.9619 112.452V93.8229C52.9619 92.7847 52.1223 91.9431 51.0865 91.9431Z" fill="#2CB6BF" stroke="white" stroke-width="0.5" stroke-miterlimit="10"/>
<path d="M47.5937 92.0444L47.4253 92.2921V93.8455V98.5394L47.4141 114.231H50.3788L51.4233 114.175L52.1308 113.871L52.7484 113.353L52.9057 112.284V109.436V100.633V93.9805L52.5687 92.6635L51.704 92.0444L49.3681 91.9431L47.5937 92.0444Z" fill="#227EB0"/>
<path d="M47.3018 114.344V91.9431" stroke="white" stroke-width="0.5" stroke-miterlimit="10"/>
<path d="M52.973 102.074H47.3018V104.201H52.973V102.074Z" stroke="white" stroke-width="0.5" stroke-miterlimit="10"/>
<path d="M50.1318 110.066C50.6838 110.066 51.1313 109.618 51.1313 109.064C51.1313 108.511 50.6838 108.062 50.1318 108.062C49.5798 108.062 49.1323 108.511 49.1323 109.064C49.1323 109.618 49.5798 110.066 50.1318 110.066Z" stroke="white" stroke-width="0.5" stroke-miterlimit="10"/>
<path d="M51.0865 91.9431H6.86178C5.826 91.9431 4.98633 92.7847 4.98633 93.8229V112.452C4.98633 113.491 5.826 114.332 6.86178 114.332H51.0865C52.1223 114.332 52.9619 113.491 52.9619 112.452V93.8229C52.9619 92.7847 52.1223 91.9431 51.0865 91.9431Z" stroke="white" stroke-width="0.5" stroke-miterlimit="10"/>
<path d="M159.784 91.9431H115.559C114.524 91.9431 113.684 92.7847 113.684 93.8229V112.452C113.684 113.491 114.524 114.332 115.559 114.332H159.784C160.82 114.332 161.659 113.491 161.659 112.452V93.8229C161.659 92.7847 160.82 91.9431 159.784 91.9431Z" fill="#2CB6BF" stroke="white" stroke-width="0.5" stroke-miterlimit="10"/>
<path d="M156.291 92.0444L156.112 92.2921V93.8455V98.5394L156.1 114.231H159.076L160.121 114.175L160.828 113.871L161.435 113.353L161.592 112.284V109.436V100.633V93.9805L161.266 92.6635L160.39 92.0444L158.054 91.9431L156.291 92.0444Z" fill="#227EB0"/>
<path d="M155.988 114.344V91.9431" stroke="white" stroke-width="0.5" stroke-miterlimit="10"/>
<path d="M161.659 102.074H155.988V104.201H161.659V102.074Z" stroke="white" stroke-width="0.5" stroke-miterlimit="10"/>
<path d="M158.829 110.066C159.381 110.066 159.829 109.618 159.829 109.064C159.829 108.511 159.381 108.062 158.829 108.062C158.277 108.062 157.83 108.511 157.83 109.064C157.83 109.618 158.277 110.066 158.829 110.066Z" stroke="white" stroke-width="0.5" stroke-miterlimit="10"/>
<path d="M159.784 91.9431H115.559C114.524 91.9431 113.684 92.7847 113.684 93.8229V112.452C113.684 113.491 114.524 114.332 115.559 114.332H159.784C160.82 114.332 161.659 113.491 161.659 112.452V93.8229C161.659 92.7847 160.82 91.9431 159.784 91.9431Z" stroke="white" stroke-width="0.5" stroke-miterlimit="10"/>
<path d="M214.127 91.8306H169.902C168.867 91.8306 168.027 92.6722 168.027 93.7104V112.34C168.027 113.378 168.867 114.22 169.902 114.22H214.127C215.163 114.22 216.002 113.378 216.002 112.34V93.7104C216.002 92.6722 215.163 91.8306 214.127 91.8306Z" fill="#2CB6BF" stroke="white" stroke-width="0.5" stroke-miterlimit="10"/>
<path d="M210.635 91.9319L210.455 92.1795V93.7442V98.4381L210.444 114.118H213.42L214.464 114.062L215.172 113.758L215.778 113.24L215.946 112.171V109.323V100.532V93.868L215.61 92.551L214.745 91.9319L212.398 91.8306L210.635 91.9319Z" fill="#227EB0"/>
<path d="M210.343 114.231V91.8306" stroke="white" stroke-width="0.5" stroke-miterlimit="10"/>
<path d="M216.014 101.973H210.343V104.1H216.014V101.973Z" stroke="white" stroke-width="0.5" stroke-miterlimit="10"/>
<path d="M213.173 109.965C213.725 109.965 214.172 109.516 214.172 108.963C214.172 108.41 213.725 107.961 213.173 107.961C212.621 107.961 212.173 108.41 212.173 108.963C212.173 109.516 212.621 109.965 213.173 109.965Z" stroke="white" stroke-width="0.5" stroke-miterlimit="10"/>
<path d="M214.127 91.8306H169.902C168.867 91.8306 168.027 92.6722 168.027 93.7104V112.34C168.027 113.378 168.867 114.22 169.902 114.22H214.127C215.163 114.22 216.002 113.378 216.002 112.34V93.7104C216.002 92.6722 215.163 91.8306 214.127 91.8306Z" stroke="white" stroke-width="0.5" stroke-miterlimit="10"/>
<path d="M51.0865 125.296H6.86178C5.826 125.296 4.98633 126.138 4.98633 127.176V145.805C4.98633 146.844 5.826 147.685 6.86178 147.685H51.0865C52.1223 147.685 52.9619 146.844 52.9619 145.805V127.176C52.9619 126.138 52.1223 125.296 51.0865 125.296Z" fill="#2CB6BF" stroke="white" stroke-width="0.5" stroke-miterlimit="10"/>
<path d="M47.5937 125.397L47.4253 125.645V127.198V131.892L47.4141 147.584H50.3788L51.4233 147.528L52.1308 147.224L52.7484 146.706L52.9057 145.637V142.789V133.986V127.334L52.5687 126.017L51.704 125.397L49.3681 125.296L47.5937 125.397Z" fill="#227EB0"/>
<path d="M47.3018 147.697V125.296" stroke="white" stroke-width="0.5" stroke-miterlimit="10"/>
<path d="M52.973 135.438H47.3018V137.566H52.973V135.438Z" stroke="white" stroke-width="0.5" stroke-miterlimit="10"/>
<path d="M50.1318 143.419C50.6838 143.419 51.1313 142.971 51.1313 142.417C51.1313 141.864 50.6838 141.415 50.1318 141.415C49.5798 141.415 49.1323 141.864 49.1323 142.417C49.1323 142.971 49.5798 143.419 50.1318 143.419Z" stroke="white" stroke-width="0.5" stroke-miterlimit="10"/>
<path d="M51.0865 125.296H6.86178C5.826 125.296 4.98633 126.138 4.98633 127.176V145.805C4.98633 146.844 5.826 147.685 6.86178 147.685H51.0865C52.1223 147.685 52.9619 146.844 52.9619 145.805V127.176C52.9619 126.138 52.1223 125.296 51.0865 125.296Z" stroke="white" stroke-width="0.5" stroke-miterlimit="10"/>
<path d="M105.441 125.24H61.216C60.1802 125.24 59.3406 126.081 59.3406 127.12V145.749C59.3406 146.787 60.1802 147.629 61.216 147.629H105.441C106.477 147.629 107.316 146.787 107.316 145.749V127.12C107.316 126.081 106.477 125.24 105.441 125.24Z" fill="#2CB6BF" stroke="white" stroke-width="0.5" stroke-miterlimit="10"/>
<path d="M101.948 125.341L101.769 125.589V127.153V131.847L101.757 147.528H104.722L105.767 147.471L106.485 147.168L107.092 146.65L107.249 145.58V142.732V133.941V127.277L106.912 125.96L106.047 125.341L103.711 125.251L101.948 125.341Z" fill="#227EB0"/>
<path d="M101.645 147.64V125.24" stroke="white" stroke-width="0.5" stroke-miterlimit="10"/>
<path d="M107.316 135.382H101.645V137.509H107.316V135.382Z" stroke="white" stroke-width="0.5" stroke-miterlimit="10"/>
<path d="M104.486 143.374C105.038 143.374 105.486 142.925 105.486 142.372C105.486 141.819 105.038 141.37 104.486 141.37C103.934 141.37 103.487 141.819 103.487 142.372C103.487 142.925 103.934 143.374 104.486 143.374Z" stroke="white" stroke-width="0.5" stroke-miterlimit="10"/>
<path d="M105.441 125.24H61.216C60.1802 125.24 59.3406 126.081 59.3406 127.12V145.749C59.3406 146.787 60.1802 147.629 61.216 147.629H105.441C106.477 147.629 107.316 146.787 107.316 145.749V127.12C107.316 126.081 106.477 125.24 105.441 125.24Z" stroke="white" stroke-width="0.5" stroke-miterlimit="10"/>
<path d="M159.784 125.296H115.559C114.524 125.296 113.684 126.138 113.684 127.176V145.805C113.684 146.844 114.524 147.685 115.559 147.685H159.784C160.82 147.685 161.659 146.844 161.659 145.805V127.176C161.659 126.138 160.82 125.296 159.784 125.296Z" fill="#2CB6BF" stroke="white" stroke-width="0.5" stroke-miterlimit="10"/>
<path d="M156.291 125.397L156.112 125.645V127.198V131.892L156.1 147.584H159.076L160.121 147.528L160.828 147.224L161.435 146.706L161.592 145.637V142.789V133.986V127.334L161.266 126.017L160.39 125.397L158.054 125.296L156.291 125.397Z" fill="#227EB0"/>
<path d="M155.988 147.697V125.296" stroke="white" stroke-width="0.5" stroke-miterlimit="10"/>
<path d="M161.659 135.438H155.988V137.566H161.659V135.438Z" stroke="white" stroke-width="0.5" stroke-miterlimit="10"/>
<path d="M158.829 143.419C159.381 143.419 159.829 142.971 159.829 142.417C159.829 141.864 159.381 141.415 158.829 141.415C158.277 141.415 157.83 141.864 157.83 142.417C157.83 142.971 158.277 143.419 158.829 143.419Z" stroke="white" stroke-width="0.5" stroke-miterlimit="10"/>
<path d="M159.784 125.296H115.559C114.524 125.296 113.684 126.138 113.684 127.176V145.805C113.684 146.844 114.524 147.685 115.559 147.685H159.784C160.82 147.685 161.659 146.844 161.659 145.805V127.176C161.659 126.138 160.82 125.296 159.784 125.296Z" stroke="white" stroke-width="0.5" stroke-miterlimit="10"/>
<path d="M214.127 125.195H169.902C168.867 125.195 168.027 126.036 168.027 127.075V145.704C168.027 146.742 168.867 147.584 169.902 147.584H214.127C215.163 147.584 216.002 146.742 216.002 145.704V127.075C216.002 126.036 215.163 125.195 214.127 125.195Z" fill="#2CB6BF" stroke="white" stroke-width="0.5" stroke-miterlimit="10"/>
<path d="M210.635 125.296L210.455 125.544V127.097V131.791L210.444 147.471H213.42L214.464 147.415L215.172 147.111L215.778 146.605L215.946 145.524V142.676V133.885V127.221L215.61 125.904L214.745 125.296L212.398 125.195L210.635 125.296Z" fill="#227EB0"/>
<path d="M210.343 147.584V125.195" stroke="white" stroke-width="0.5" stroke-miterlimit="10"/>
<path d="M216.014 135.326H210.343V137.453H216.014V135.326Z" stroke="white" stroke-width="0.5" stroke-miterlimit="10"/>
<path d="M213.173 143.318C213.725 143.318 214.172 142.869 214.172 142.316C214.172 141.763 213.725 141.314 213.173 141.314C212.621 141.314 212.173 141.763 212.173 142.316C212.173 142.869 212.621 143.318 213.173 143.318Z" stroke="white" stroke-width="0.5" stroke-miterlimit="10"/>
<path d="M214.127 125.195H169.902C168.867 125.195 168.027 126.036 168.027 127.075V145.704C168.027 146.742 168.867 147.584 169.902 147.584H214.127C215.163 147.584 216.002 146.742 216.002 145.704V127.075C216.002 126.036 215.163 125.195 214.127 125.195Z" stroke="white" stroke-width="0.5" stroke-miterlimit="10"/>
<path d="M51.0865 153.573H6.86178C5.826 153.573 4.98633 154.414 4.98633 155.452V174.082C4.98633 175.12 5.826 175.962 6.86178 175.962H51.0865C52.1223 175.962 52.9619 175.12 52.9619 174.082V155.452C52.9619 154.414 52.1223 153.573 51.0865 153.573Z" fill="#2CB6BF" stroke="white" stroke-width="0.5" stroke-miterlimit="10"/>
<path d="M47.5937 153.674L47.4253 153.921V155.475V160.18L47.4141 175.86H50.3788L51.4233 175.804L52.1308 175.5L52.7484 174.982L52.9057 173.913V171.065V162.274V155.61L52.5687 154.293L51.704 153.674L49.3681 153.573L47.5937 153.674Z" fill="#227EB0"/>
<path d="M47.3018 175.973V153.573" stroke="white" stroke-width="0.5" stroke-miterlimit="10"/>
<path d="M52.973 163.715H47.3018V165.842H52.973V163.715Z" stroke="white" stroke-width="0.5" stroke-miterlimit="10"/>
<path d="M50.1318 171.696C50.6838 171.696 51.1313 171.247 51.1313 170.694C51.1313 170.14 50.6838 169.692 50.1318 169.692C49.5798 169.692 49.1323 170.14 49.1323 170.694C49.1323 171.247 49.5798 171.696 50.1318 171.696Z" stroke="white" stroke-width="0.5" stroke-miterlimit="10"/>
<path d="M51.0865 153.573H6.86178C5.826 153.573 4.98633 154.414 4.98633 155.452V174.082C4.98633 175.12 5.826 175.962 6.86178 175.962H51.0865C52.1223 175.962 52.9619 175.12 52.9619 174.082V155.452C52.9619 154.414 52.1223 153.573 51.0865 153.573Z" stroke="white" stroke-width="0.5" stroke-miterlimit="10"/>
<path d="M105.441 153.516H61.216C60.1802 153.516 59.3406 154.358 59.3406 155.396V174.025C59.3406 175.064 60.1802 175.905 61.216 175.905H105.441C106.477 175.905 107.316 175.064 107.316 174.025V155.396C107.316 154.358 106.477 153.516 105.441 153.516Z" fill="#2CB6BF" stroke="white" stroke-width="0.5" stroke-miterlimit="10"/>
<path d="M101.948 153.617L101.769 153.865V155.43V160.124L101.757 175.804H104.722L105.767 175.748L106.485 175.444L107.092 174.937L107.249 173.857V171.009V162.217V155.554L106.912 154.237L106.047 153.617L103.711 153.516L101.948 153.617Z" fill="#227EB0"/>
<path d="M101.645 175.917V153.516" stroke="white" stroke-width="0.5" stroke-miterlimit="10"/>
<path d="M107.316 163.658H101.645V165.786H107.316V163.658Z" stroke="white" stroke-width="0.5" stroke-miterlimit="10"/>
<path d="M104.486 171.65C105.038 171.65 105.486 171.202 105.486 170.649C105.486 170.095 105.038 169.647 104.486 169.647C103.934 169.647 103.487 170.095 103.487 170.649C103.487 171.202 103.934 171.65 104.486 171.65Z" stroke="white" stroke-width="0.5" stroke-miterlimit="10"/>
<path d="M105.441 153.516H61.216C60.1802 153.516 59.3406 154.358 59.3406 155.396V174.025C59.3406 175.064 60.1802 175.905 61.216 175.905H105.441C106.477 175.905 107.316 175.064 107.316 174.025V155.396C107.316 154.358 106.477 153.516 105.441 153.516Z" stroke="white" stroke-width="0.5" stroke-miterlimit="10"/>
<path d="M159.784 153.573H115.559C114.524 153.573 113.684 154.414 113.684 155.452V174.082C113.684 175.12 114.524 175.962 115.559 175.962H159.784C160.82 175.962 161.659 175.12 161.659 174.082V155.452C161.659 154.414 160.82 153.573 159.784 153.573Z" fill="#2CB6BF" stroke="white" stroke-width="0.5" stroke-miterlimit="10"/>
<path d="M156.291 153.674L156.112 153.921V155.475V160.18L156.1 175.86H159.076L160.121 175.804L160.828 175.5L161.435 174.982L161.592 173.913V171.065V162.274V155.61L161.266 154.293L160.39 153.674L158.054 153.573L156.291 153.674Z" fill="#227EB0"/>
<path d="M155.988 175.973V153.573" stroke="white" stroke-width="0.5" stroke-miterlimit="10"/>
<path d="M161.659 163.715H155.988V165.842H161.659V163.715Z" stroke="white" stroke-width="0.5" stroke-miterlimit="10"/>
<path d="M158.829 171.696C159.381 171.696 159.829 171.247 159.829 170.694C159.829 170.14 159.381 169.692 158.829 169.692C158.277 169.692 157.83 170.14 157.83 170.694C157.83 171.247 158.277 171.696 158.829 171.696Z" stroke="white" stroke-width="0.5" stroke-miterlimit="10"/>
<path d="M159.784 153.573H115.559C114.524 153.573 113.684 154.414 113.684 155.452V174.082C113.684 175.12 114.524 175.962 115.559 175.962H159.784C160.82 175.962 161.659 175.12 161.659 174.082V155.452C161.659 154.414 160.82 153.573 159.784 153.573Z" stroke="white" stroke-width="0.5" stroke-miterlimit="10"/>
<path d="M214.127 153.471H169.902C168.867 153.471 168.027 154.313 168.027 155.351V173.981C168.027 175.019 168.867 175.86 169.902 175.86H214.127C215.163 175.86 216.002 175.019 216.002 173.981V155.351C216.002 154.313 215.163 153.471 214.127 153.471Z" fill="#2CB6BF" stroke="white" stroke-width="0.5" stroke-miterlimit="10"/>
<path d="M210.635 153.572L210.455 153.82V155.374V160.068L210.444 175.748H213.42L214.464 175.692L215.172 175.388L215.778 174.881L215.946 173.8V170.953V162.161V155.497L215.61 154.18L214.745 153.572L212.398 153.471L210.635 153.572Z" fill="#227EB0"/>
<path d="M210.343 175.86V153.471" stroke="white" stroke-width="0.5" stroke-miterlimit="10"/>
<path d="M216.014 163.602H210.343V165.73H216.014V163.602Z" stroke="white" stroke-width="0.5" stroke-miterlimit="10"/>
<path d="M213.173 171.594C213.725 171.594 214.172 171.146 214.172 170.592C214.172 170.039 213.725 169.591 213.173 169.591C212.621 169.591 212.173 170.039 212.173 170.592C212.173 171.146 212.621 171.594 213.173 171.594Z" stroke="white" stroke-width="0.5" stroke-miterlimit="10"/>
<path d="M214.127 153.471H169.902C168.867 153.471 168.027 154.313 168.027 155.351V173.981C168.027 175.019 168.867 175.86 169.902 175.86H214.127C215.163 175.86 216.002 175.019 216.002 173.981V155.351C216.002 154.313 215.163 153.471 214.127 153.471Z" stroke="white" stroke-width="0.5" stroke-miterlimit="10"/>
<path d="M51.0865 181.849H6.86178C5.826 181.849 4.98633 182.691 4.98633 183.729V202.358C4.98633 203.396 5.826 204.238 6.86178 204.238H51.0865C52.1223 204.238 52.9619 203.396 52.9619 202.358V183.729C52.9619 182.691 52.1223 181.849 51.0865 181.849Z" fill="#2CB6BF" stroke="white" stroke-width="0.5" stroke-miterlimit="10"/>
<path d="M47.5937 181.95L47.4253 182.198V183.762V188.456L47.4141 204.137H50.3788L51.4233 204.08L52.1308 203.777L52.7484 203.259L52.9057 202.189V199.341V190.55V183.886L52.5687 182.569L51.704 181.95L49.3681 181.849L47.5937 181.95Z" fill="#227EB0"/>
<path d="M47.3018 204.249V181.849" stroke="white" stroke-width="0.5" stroke-miterlimit="10"/>
<path d="M52.973 191.991H47.3018V194.118H52.973V191.991Z" stroke="white" stroke-width="0.5" stroke-miterlimit="10"/>
<path d="M50.1318 199.983C50.6838 199.983 51.1313 199.535 51.1313 198.981C51.1313 198.428 50.6838 197.979 50.1318 197.979C49.5798 197.979 49.1323 198.428 49.1323 198.981C49.1323 199.535 49.5798 199.983 50.1318 199.983Z" stroke="white" stroke-width="0.5" stroke-miterlimit="10"/>
<path d="M51.0865 181.849H6.86178C5.826 181.849 4.98633 182.691 4.98633 183.729V202.358C4.98633 203.396 5.826 204.238 6.86178 204.238H51.0865C52.1223 204.238 52.9619 203.396 52.9619 202.358V183.729C52.9619 182.691 52.1223 181.849 51.0865 181.849Z" stroke="white" stroke-width="0.5" stroke-miterlimit="10"/>
<path d="M105.441 181.792H61.216C60.1802 181.792 59.3406 182.634 59.3406 183.672V202.302C59.3406 203.34 60.1802 204.182 61.216 204.182H105.441C106.477 204.182 107.316 203.34 107.316 202.302V183.672C107.316 182.634 106.477 181.792 105.441 181.792Z" fill="#2CB6BF" stroke="white" stroke-width="0.5" stroke-miterlimit="10"/>
<path d="M101.948 181.894L101.769 182.141V183.706V188.4L101.757 204.08H104.722L105.767 204.024L106.485 203.72L107.092 203.214L107.249 202.133V199.285V190.494V183.83L106.912 182.513L106.047 181.894L103.711 181.792L101.948 181.894Z" fill="#227EB0"/>
<path d="M101.645 204.193V181.804" stroke="white" stroke-width="0.5" stroke-miterlimit="10"/>
<path d="M107.316 191.935H101.645V194.062H107.316V191.935Z" stroke="white" stroke-width="0.5" stroke-miterlimit="10"/>
<path d="M104.486 199.927C105.038 199.927 105.486 199.478 105.486 198.925C105.486 198.372 105.038 197.923 104.486 197.923C103.934 197.923 103.487 198.372 103.487 198.925C103.487 199.478 103.934 199.927 104.486 199.927Z" stroke="white" stroke-width="0.5" stroke-miterlimit="10"/>
<path d="M105.441 181.792H61.216C60.1802 181.792 59.3406 182.634 59.3406 183.672V202.302C59.3406 203.34 60.1802 204.182 61.216 204.182H105.441C106.477 204.182 107.316 203.34 107.316 202.302V183.672C107.316 182.634 106.477 181.792 105.441 181.792Z" stroke="white" stroke-width="0.5" stroke-miterlimit="10"/>
<path d="M159.784 181.849H115.559C114.524 181.849 113.684 182.691 113.684 183.729V202.358C113.684 203.396 114.524 204.238 115.559 204.238H159.784C160.82 204.238 161.659 203.396 161.659 202.358V183.729C161.659 182.691 160.82 181.849 159.784 181.849Z" fill="#2CB6BF" stroke="white" stroke-width="0.5" stroke-miterlimit="10"/>
<path d="M156.291 181.95L156.112 182.198V183.762V188.456L156.1 204.137H159.076L160.121 204.08L160.828 203.777L161.435 203.259L161.592 202.189V199.341V190.55V183.886L161.266 182.569L160.39 181.95L158.054 181.849L156.291 181.95Z" fill="#227EB0"/>
<path d="M155.988 204.249V181.849" stroke="white" stroke-width="0.5" stroke-miterlimit="10"/>
<path d="M161.659 191.991H155.988V194.118H161.659V191.991Z" stroke="white" stroke-width="0.5" stroke-miterlimit="10"/>
<path d="M158.829 199.983C159.381 199.983 159.829 199.535 159.829 198.981C159.829 198.428 159.381 197.979 158.829 197.979C158.277 197.979 157.83 198.428 157.83 198.981C157.83 199.535 158.277 199.983 158.829 199.983Z" stroke="white" stroke-width="0.5" stroke-miterlimit="10"/>
<path d="M159.784 181.849H115.559C114.524 181.849 113.684 182.691 113.684 183.729V202.358C113.684 203.396 114.524 204.238 115.559 204.238H159.784C160.82 204.238 161.659 203.396 161.659 202.358V183.729C161.659 182.691 160.82 181.849 159.784 181.849Z" stroke="white" stroke-width="0.5" stroke-miterlimit="10"/>
<path d="M214.127 181.748H169.902C168.867 181.748 168.027 182.589 168.027 183.627V202.257C168.027 203.295 168.867 204.137 169.902 204.137H214.127C215.163 204.137 216.002 203.295 216.002 202.257V183.627C216.002 182.589 215.163 181.748 214.127 181.748Z" fill="#2CB6BF" stroke="white" stroke-width="0.5" stroke-miterlimit="10"/>
<path d="M210.635 181.849L210.455 182.097V183.65V188.344L210.444 204.024H213.42L214.464 203.968L215.172 203.664L215.778 203.157L215.946 202.077V199.229V190.438V183.774L215.61 182.457L214.745 181.849L212.398 181.748L210.635 181.849Z" fill="#227EB0"/>
<path d="M210.343 204.137V181.748" stroke="white" stroke-width="0.5" stroke-miterlimit="10"/>
<path d="M216.014 191.878H210.343V194.006H216.014V191.878Z" stroke="white" stroke-width="0.5" stroke-miterlimit="10"/>
<path d="M213.173 199.87C213.725 199.87 214.172 199.422 214.172 198.869C214.172 198.315 213.725 197.867 213.173 197.867C212.621 197.867 212.173 198.315 212.173 198.869C212.173 199.422 212.621 199.87 213.173 199.87Z" stroke="white" stroke-width="0.5" stroke-miterlimit="10"/>
<path d="M214.127 181.748H169.902C168.867 181.748 168.027 182.589 168.027 183.627V202.257C168.027 203.295 168.867 204.137 169.902 204.137H214.127C215.163 204.137 216.002 203.295 216.002 202.257V183.627C216.002 182.589 215.163 181.748 214.127 181.748Z" stroke="white" stroke-width="0.5" stroke-miterlimit="10"/>
<path d="M51.0865 210.125H6.86178C5.826 210.125 4.98633 210.967 4.98633 212.005V230.635C4.98633 231.673 5.826 232.514 6.86178 232.514H51.0865C52.1223 232.514 52.9619 231.673 52.9619 230.635V212.005C52.9619 210.967 52.1223 210.125 51.0865 210.125Z" fill="#2CB6BF" stroke="white" stroke-width="0.5" stroke-miterlimit="10"/>
<path d="M47.5937 210.227L47.4253 210.474V212.039V216.733L47.4141 232.413H50.3788L51.4233 232.357L52.1308 232.053L52.7484 231.535L52.9057 230.466V227.618V218.827V212.163L52.5687 210.846L51.704 210.227L49.3681 210.125L47.5937 210.227Z" fill="#227EB0"/>
<path d="M47.3018 232.526V210.125" stroke="white" stroke-width="0.5" stroke-miterlimit="10"/>
<path d="M52.973 220.267H47.3018V222.395H52.973V220.267Z" stroke="white" stroke-width="0.5" stroke-miterlimit="10"/>
<path d="M50.1318 228.259C50.6838 228.259 51.1313 227.811 51.1313 227.257C51.1313 226.704 50.6838 226.256 50.1318 226.256C49.5798 226.256 49.1323 226.704 49.1323 227.257C49.1323 227.811 49.5798 228.259 50.1318 228.259Z" stroke="white" stroke-width="0.5" stroke-miterlimit="10"/>
<path d="M51.0865 210.125H6.86178C5.826 210.125 4.98633 210.967 4.98633 212.005V230.635C4.98633 231.673 5.826 232.514 6.86178 232.514H51.0865C52.1223 232.514 52.9619 231.673 52.9619 230.635V212.005C52.9619 210.967 52.1223 210.125 51.0865 210.125Z" stroke="white" stroke-width="0.5" stroke-miterlimit="10"/>
<path d="M105.441 210.08H61.216C60.1802 210.08 59.3406 210.922 59.3406 211.96V230.589C59.3406 231.628 60.1802 232.469 61.216 232.469H105.441C106.477 232.469 107.316 231.628 107.316 230.589V211.96C107.316 210.922 106.477 210.08 105.441 210.08Z" fill="#2CB6BF" stroke="white" stroke-width="0.5" stroke-miterlimit="10"/>
<path d="M101.948 210.181L101.769 210.418V211.982V216.676L101.757 232.357H104.722L105.767 232.3L106.485 231.996L107.092 231.49L107.249 230.409V227.561V218.77V212.106L106.912 210.789L106.047 210.181L103.711 210.08L101.948 210.181Z" fill="#227EB0"/>
<path d="M101.645 232.469V210.08" stroke="white" stroke-width="0.5" stroke-miterlimit="10"/>
<path d="M107.316 220.211H101.645V222.338H107.316V220.211Z" stroke="white" stroke-width="0.5" stroke-miterlimit="10"/>
<path d="M104.486 228.203C105.038 228.203 105.486 227.755 105.486 227.201C105.486 226.648 105.038 226.199 104.486 226.199C103.934 226.199 103.487 226.648 103.487 227.201C103.487 227.755 103.934 228.203 104.486 228.203Z" stroke="white" stroke-width="0.5" stroke-miterlimit="10"/>
<path d="M105.441 210.08H61.216C60.1802 210.08 59.3406 210.922 59.3406 211.96V230.589C59.3406 231.628 60.1802 232.469 61.216 232.469H105.441C106.477 232.469 107.316 231.628 107.316 230.589V211.96C107.316 210.922 106.477 210.08 105.441 210.08Z" stroke="white" stroke-width="0.5" stroke-miterlimit="10"/>
<path d="M159.784 210.125H115.559C114.524 210.125 113.684 210.967 113.684 212.005V230.635C113.684 231.673 114.524 232.514 115.559 232.514H159.784C160.82 232.514 161.659 231.673 161.659 230.635V212.005C161.659 210.967 160.82 210.125 159.784 210.125Z" fill="#2CB6BF" stroke="white" stroke-width="0.5" stroke-miterlimit="10"/>
<path d="M156.291 210.227L156.112 210.474V212.039V216.733L156.1 232.413H159.076L160.121 232.357L160.828 232.053L161.435 231.535L161.592 230.466V227.618V218.827V212.163L161.266 210.846L160.39 210.227L158.054 210.125L156.291 210.227Z" fill="#227EB0"/>
<path d="M155.988 232.526V210.125" stroke="white" stroke-width="0.5" stroke-miterlimit="10"/>
<path d="M161.659 220.267H155.988V222.395H161.659V220.267Z" stroke="white" stroke-width="0.5" stroke-miterlimit="10"/>
<path d="M158.829 228.259C159.381 228.259 159.829 227.811 159.829 227.257C159.829 226.704 159.381 226.256 158.829 226.256C158.277 226.256 157.83 226.704 157.83 227.257C157.83 227.811 158.277 228.259 158.829 228.259Z" stroke="white" stroke-width="0.5" stroke-miterlimit="10"/>
<path d="M159.784 210.125H115.559C114.524 210.125 113.684 210.967 113.684 212.005V230.635C113.684 231.673 114.524 232.514 115.559 232.514H159.784C160.82 232.514 161.659 231.673 161.659 230.635V212.005C161.659 210.967 160.82 210.125 159.784 210.125Z" stroke="white" stroke-width="0.5" stroke-miterlimit="10"/>
<path d="M214.127 210.024H169.902C168.867 210.024 168.027 210.866 168.027 211.904V230.533C168.027 231.571 168.867 232.413 169.902 232.413H214.127C215.163 232.413 216.002 231.571 216.002 230.533V211.904C216.002 210.866 215.163 210.024 214.127 210.024Z" fill="#2CB6BF" stroke="white" stroke-width="0.5" stroke-miterlimit="10"/>
<path d="M210.635 210.125L210.455 210.373V211.926V216.62L210.444 232.301H213.42L214.464 232.244L215.172 231.94L215.778 231.434L215.946 230.353V227.505V218.714V212.05L215.61 210.744L214.745 210.125L212.398 210.024L210.635 210.125Z" fill="#227EB0"/>
<path d="M210.343 232.413V210.024" stroke="white" stroke-width="0.5" stroke-miterlimit="10"/>
<path d="M216.014 220.155H210.343V222.282H216.014V220.155Z" stroke="white" stroke-width="0.5" stroke-miterlimit="10"/>
<path d="M213.173 228.147C213.725 228.147 214.172 227.698 214.172 227.145C214.172 226.592 213.725 226.143 213.173 226.143C212.621 226.143 212.173 226.592 212.173 227.145C212.173 227.698 212.621 228.147 213.173 228.147Z" stroke="white" stroke-width="0.5" stroke-miterlimit="10"/>
<path d="M214.127 210.024H169.902C168.867 210.024 168.027 210.866 168.027 211.904V230.533C168.027 231.571 168.867 232.413 169.902 232.413H214.127C215.163 232.413 216.002 231.571 216.002 230.533V211.904C216.002 210.866 215.163 210.024 214.127 210.024Z" stroke="white" stroke-width="0.5" stroke-miterlimit="10"/>
<path d="M51.0865 243.388H6.86178C5.826 243.388 4.98633 244.23 4.98633 245.268V263.898C4.98633 264.936 5.826 265.777 6.86178 265.777H51.0865C52.1223 265.777 52.9619 264.936 52.9619 263.898V245.268C52.9619 244.23 52.1223 243.388 51.0865 243.388Z" fill="#2CB6BF" stroke="white" stroke-width="0.5" stroke-miterlimit="10"/>
<path d="M47.5937 243.489L47.4253 243.737V245.291V249.984L47.4141 265.676H50.3788L51.4233 265.62L52.1308 265.305L52.7484 264.798L52.9057 263.729V260.881V252.078V245.426L52.5687 244.109L51.704 243.489L49.3681 243.388L47.5937 243.489Z" fill="#227EB0"/>
<path d="M47.3018 265.777V243.388" stroke="white" stroke-width="0.5" stroke-miterlimit="10"/>
<path d="M52.973 253.519H47.3018V255.647H52.973V253.519Z" stroke="white" stroke-width="0.5" stroke-miterlimit="10"/>
<path d="M50.1318 261.511C50.6838 261.511 51.1313 261.062 51.1313 260.509C51.1313 259.956 50.6838 259.507 50.1318 259.507C49.5798 259.507 49.1323 259.956 49.1323 260.509C49.1323 261.062 49.5798 261.511 50.1318 261.511Z" stroke="white" stroke-width="0.5" stroke-miterlimit="10"/>
<path d="M51.0865 243.388H6.86178C5.826 243.388 4.98633 244.23 4.98633 245.268V263.898C4.98633 264.936 5.826 265.777 6.86178 265.777H51.0865C52.1223 265.777 52.9619 264.936 52.9619 263.898V245.268C52.9619 244.23 52.1223 243.388 51.0865 243.388Z" stroke="white" stroke-width="0.5" stroke-miterlimit="10"/>
<path d="M105.441 243.332H61.216C60.1802 243.332 59.3406 244.173 59.3406 245.212V263.841C59.3406 264.879 60.1802 265.721 61.216 265.721H105.441C106.477 265.721 107.316 264.879 107.316 263.841V245.212C107.316 244.173 106.477 243.332 105.441 243.332Z" fill="#2CB6BF" stroke="white" stroke-width="0.5" stroke-miterlimit="10"/>
<path d="M101.948 243.433L101.769 243.681V245.234V249.928L101.757 265.62H104.722L105.767 265.563L106.485 265.259L107.092 264.742L107.249 263.672V260.824V252.022V245.369L106.912 244.052L106.047 243.433L103.711 243.332L101.948 243.433Z" fill="#227EB0"/>
<path d="M101.645 265.732V243.332" stroke="white" stroke-width="0.5" stroke-miterlimit="10"/>
<path d="M107.316 253.463H101.645V255.59H107.316V253.463Z" stroke="white" stroke-width="0.5" stroke-miterlimit="10"/>
<path d="M104.486 261.455C105.038 261.455 105.486 261.006 105.486 260.453C105.486 259.9 105.038 259.451 104.486 259.451C103.934 259.451 103.487 259.9 103.487 260.453C103.487 261.006 103.934 261.455 104.486 261.455Z" stroke="white" stroke-width="0.5" stroke-miterlimit="10"/>
<path d="M105.441 243.332H61.216C60.1802 243.332 59.3406 244.173 59.3406 245.212V263.841C59.3406 264.879 60.1802 265.721 61.216 265.721H105.441C106.477 265.721 107.316 264.879 107.316 263.841V245.212C107.316 244.173 106.477 243.332 105.441 243.332Z" stroke="white" stroke-width="0.5" stroke-miterlimit="10"/>
<path d="M159.784 243.388H115.559C114.524 243.388 113.684 244.23 113.684 245.268V263.898C113.684 264.936 114.524 265.777 115.559 265.777H159.784C160.82 265.777 161.659 264.936 161.659 263.898V245.268C161.659 244.23 160.82 243.388 159.784 243.388Z" fill="#2CB6BF" stroke="white" stroke-width="0.5" stroke-miterlimit="10"/>
<path d="M156.291 243.489L156.112 243.737V245.291V249.984L156.1 265.676H159.076L160.121 265.62L160.828 265.305L161.435 264.798L161.592 263.729V260.881V252.078V245.426L161.266 244.109L160.39 243.489L158.054 243.388L156.291 243.489Z" fill="#227EB0"/>
<path d="M155.988 265.777V243.388" stroke="white" stroke-width="0.5" stroke-miterlimit="10"/>
<path d="M161.659 253.519H155.988V255.647H161.659V253.519Z" stroke="white" stroke-width="0.5" stroke-miterlimit="10"/>
<path d="M158.829 261.511C159.381 261.511 159.829 261.062 159.829 260.509C159.829 259.956 159.381 259.507 158.829 259.507C158.277 259.507 157.83 259.956 157.83 260.509C157.83 261.062 158.277 261.511 158.829 261.511Z" stroke="white" stroke-width="0.5" stroke-miterlimit="10"/>
<path d="M159.784 243.388H115.559C114.524 243.388 113.684 244.23 113.684 245.268V263.898C113.684 264.936 114.524 265.777 115.559 265.777H159.784C160.82 265.777 161.659 264.936 161.659 263.898V245.268C161.659 244.23 160.82 243.388 159.784 243.388Z" stroke="white" stroke-width="0.5" stroke-miterlimit="10"/>
<path d="M214.127 243.276H169.902C168.867 243.276 168.027 244.117 168.027 245.155V263.785C168.027 264.823 168.867 265.665 169.902 265.665H214.127C215.163 265.665 216.002 264.823 216.002 263.785V245.155C216.002 244.117 215.163 243.276 214.127 243.276Z" fill="#2CB6BF" stroke="white" stroke-width="0.5" stroke-miterlimit="10"/>
<path d="M210.635 243.377L210.455 243.625V245.178V249.883L210.444 265.564H213.42L214.464 265.507L215.172 265.203L215.778 264.686L215.946 263.616V260.768V251.966V245.313L215.61 243.996L214.745 243.377L212.398 243.276L210.635 243.377Z" fill="#227EB0"/>
<path d="M210.343 265.676V243.276" stroke="white" stroke-width="0.5" stroke-miterlimit="10"/>
<path d="M216.014 253.418H210.343V255.545H216.014V253.418Z" stroke="white" stroke-width="0.5" stroke-miterlimit="10"/>
<path d="M213.173 261.398C213.725 261.398 214.172 260.95 214.172 260.397C214.172 259.843 213.725 259.395 213.173 259.395C212.621 259.395 212.173 259.843 212.173 260.397C212.173 260.95 212.621 261.398 213.173 261.398Z" stroke="white" stroke-width="0.5" stroke-miterlimit="10"/>
<path d="M214.127 243.276H169.902C168.867 243.276 168.027 244.117 168.027 245.155V263.785C168.027 264.823 168.867 265.665 169.902 265.665H214.127C215.163 265.665 216.002 264.823 216.002 263.785V245.155C216.002 244.117 215.163 243.276 214.127 243.276Z" stroke="white" stroke-width="0.5" stroke-miterlimit="10"/>
<path d="M51.0865 271.248H6.86178C5.826 271.248 4.98633 272.09 4.98633 273.128V291.757C4.98633 292.796 5.826 293.637 6.86178 293.637H51.0865C52.1223 293.637 52.9619 292.796 52.9619 291.757V273.128C52.9619 272.09 52.1223 271.248 51.0865 271.248Z" fill="#2CB6BF" stroke="white" stroke-width="0.5" stroke-miterlimit="10"/>
<path d="M47.5937 271.349L47.4253 271.597V273.15V277.856L47.4141 293.536H50.3788L51.4233 293.48L52.1308 293.176L52.7484 292.658L52.9057 291.589V288.741V279.938V273.285L52.5687 271.968L51.704 271.349L49.3681 271.248L47.5937 271.349Z" fill="#227EB0"/>
<path d="M47.3018 293.648V271.248" stroke="white" stroke-width="0.5" stroke-miterlimit="10"/>
<path d="M52.973 281.379H47.3018V283.506H52.973V281.379Z" stroke="white" stroke-width="0.5" stroke-miterlimit="10"/>
<path d="M50.1318 289.371C50.6838 289.371 51.1313 288.922 51.1313 288.369C51.1313 287.816 50.6838 287.367 50.1318 287.367C49.5798 287.367 49.1323 287.816 49.1323 288.369C49.1323 288.922 49.5798 289.371 50.1318 289.371Z" stroke="white" stroke-width="0.5" stroke-miterlimit="10"/>
<path d="M51.0865 271.248H6.86178C5.826 271.248 4.98633 272.09 4.98633 273.128V291.757C4.98633 292.796 5.826 293.637 6.86178 293.637H51.0865C52.1223 293.637 52.9619 292.796 52.9619 291.757V273.128C52.9619 272.09 52.1223 271.248 51.0865 271.248Z" stroke="white" stroke-width="0.5" stroke-miterlimit="10"/>
<path d="M105.441 271.192H61.216C60.1802 271.192 59.3406 272.033 59.3406 273.071V291.701C59.3406 292.739 60.1802 293.581 61.216 293.581H105.441C106.477 293.581 107.316 292.739 107.316 291.701V273.071C107.316 272.033 106.477 271.192 105.441 271.192Z" fill="#2CB6BF" stroke="white" stroke-width="0.5" stroke-miterlimit="10"/>
<path d="M101.948 271.293L101.769 271.541V273.105V277.799L101.757 293.48H104.722L105.767 293.423L106.485 293.119L107.092 292.602L107.249 291.532V288.684V279.893V273.229L106.912 271.912L106.047 271.293L103.711 271.192L101.948 271.293Z" fill="#227EB0"/>
<path d="M101.645 293.592V271.192" stroke="white" stroke-width="0.5" stroke-miterlimit="10"/>
<path d="M107.316 281.334H101.645V283.461H107.316V281.334Z" stroke="white" stroke-width="0.5" stroke-miterlimit="10"/>
<path d="M104.486 289.326C105.038 289.326 105.486 288.877 105.486 288.324C105.486 287.771 105.038 287.322 104.486 287.322C103.934 287.322 103.487 287.771 103.487 288.324C103.487 288.877 103.934 289.326 104.486 289.326Z" stroke="white" stroke-width="0.5" stroke-miterlimit="10"/>
<path d="M105.441 271.192H61.216C60.1802 271.192 59.3406 272.033 59.3406 273.071V291.701C59.3406 292.739 60.1802 293.581 61.216 293.581H105.441C106.477 293.581 107.316 292.739 107.316 291.701V273.071C107.316 272.033 106.477 271.192 105.441 271.192Z" stroke="white" stroke-width="0.5" stroke-miterlimit="10"/>
<path d="M159.784 271.248H115.559C114.524 271.248 113.684 272.09 113.684 273.128V291.757C113.684 292.796 114.524 293.637 115.559 293.637H159.784C160.82 293.637 161.659 292.796 161.659 291.757V273.128C161.659 272.09 160.82 271.248 159.784 271.248Z" fill="#2CB6BF" stroke="white" stroke-width="0.5" stroke-miterlimit="10"/>
<path d="M156.291 271.349L156.112 271.597V273.15V277.856L156.1 293.536H159.076L160.121 293.48L160.828 293.176L161.435 292.658L161.592 291.589V288.741V279.938V273.285L161.266 271.968L160.39 271.349L158.054 271.248L156.291 271.349Z" fill="#227EB0"/>
<path d="M155.988 293.648V271.248" stroke="white" stroke-width="0.5" stroke-miterlimit="10"/>
<path d="M161.659 281.379H155.988V283.506H161.659V281.379Z" stroke="white" stroke-width="0.5" stroke-miterlimit="10"/>
<path d="M158.829 289.371C159.381 289.371 159.829 288.922 159.829 288.369C159.829 287.816 159.381 287.367 158.829 287.367C158.277 287.367 157.83 287.816 157.83 288.369C157.83 288.922 158.277 289.371 158.829 289.371Z" stroke="white" stroke-width="0.5" stroke-miterlimit="10"/>
<path d="M159.784 271.248H115.559C114.524 271.248 113.684 272.09 113.684 273.128V291.757C113.684 292.796 114.524 293.637 115.559 293.637H159.784C160.82 293.637 161.659 292.796 161.659 291.757V273.128C161.659 272.09 160.82 271.248 159.784 271.248Z" stroke="white" stroke-width="0.5" stroke-miterlimit="10"/>
<path d="M214.127 271.147H169.902C168.867 271.147 168.027 271.988 168.027 273.027V291.656C168.027 292.694 168.867 293.536 169.902 293.536H214.127C215.163 293.536 216.002 292.694 216.002 291.656V273.027C216.002 271.988 215.163 271.147 214.127 271.147Z" fill="#2CB6BF" stroke="white" stroke-width="0.5" stroke-miterlimit="10"/>
<path d="M210.635 271.248L210.455 271.484V273.049V277.743L210.444 293.423H213.42L214.464 293.367L215.172 293.063L215.778 292.557L215.946 291.476V288.628V279.837V273.173L215.61 271.856L214.745 271.248L212.398 271.147L210.635 271.248Z" fill="#227EB0"/>
<path d="M210.343 293.536V271.147" stroke="white" stroke-width="0.5" stroke-miterlimit="10"/>
<path d="M216.014 281.278H210.343V283.405H216.014V281.278Z" stroke="white" stroke-width="0.5" stroke-miterlimit="10"/>
<path d="M213.173 289.27C213.725 289.27 214.172 288.821 214.172 288.268C214.172 287.714 213.725 287.266 213.173 287.266C212.621 287.266 212.173 287.714 212.173 288.268C212.173 288.821 212.621 289.27 213.173 289.27Z" stroke="white" stroke-width="0.5" stroke-miterlimit="10"/>
<path d="M214.127 271.147H169.902C168.867 271.147 168.027 271.988 168.027 273.027V291.656C168.027 292.694 168.867 293.536 169.902 293.536H214.127C215.163 293.536 216.002 292.694 216.002 291.656V273.027C216.002 271.988 215.163 271.147 214.127 271.147Z" stroke="white" stroke-width="0.5" stroke-miterlimit="10"/>
<path d="M51.0865 299.108H6.86178C5.826 299.108 4.98633 299.95 4.98633 300.988V319.617C4.98633 320.655 5.826 321.497 6.86178 321.497H51.0865C52.1223 321.497 52.9619 320.655 52.9619 319.617V300.988C52.9619 299.95 52.1223 299.108 51.0865 299.108Z" fill="#2CB6BF" stroke="white" stroke-width="0.5" stroke-miterlimit="10"/>
<path d="M47.5937 299.209L47.4253 299.457V301.022V305.715L47.4141 321.396H50.3788L51.4233 321.34L52.1308 321.036L52.7484 320.529L52.9057 319.448V316.601V307.809V301.145L52.5687 299.828L51.704 299.209L49.3681 299.108L47.5937 299.209Z" fill="#227EB0"/>
<path d="M47.3018 321.508V299.108" stroke="white" stroke-width="0.5" stroke-miterlimit="10"/>
<path d="M52.973 309.25H47.3018V311.377H52.973V309.25Z" stroke="white" stroke-width="0.5" stroke-miterlimit="10"/>
<path d="M50.1318 317.242C50.6838 317.242 51.1313 316.793 51.1313 316.24C51.1313 315.687 50.6838 315.238 50.1318 315.238C49.5798 315.238 49.1323 315.687 49.1323 316.24C49.1323 316.793 49.5798 317.242 50.1318 317.242Z" stroke="white" stroke-width="0.5" stroke-miterlimit="10"/>
<path d="M51.0865 299.108H6.86178C5.826 299.108 4.98633 299.95 4.98633 300.988V319.617C4.98633 320.655 5.826 321.497 6.86178 321.497H51.0865C52.1223 321.497 52.9619 320.655 52.9619 319.617V300.988C52.9619 299.95 52.1223 299.108 51.0865 299.108Z" stroke="white" stroke-width="0.5" stroke-miterlimit="10"/>
<path d="M105.441 299.063H61.216C60.1802 299.063 59.3406 299.904 59.3406 300.943V319.572C59.3406 320.61 60.1802 321.452 61.216 321.452H105.441C106.477 321.452 107.316 320.61 107.316 319.572V300.943C107.316 299.904 106.477 299.063 105.441 299.063Z" fill="#2CB6BF" stroke="white" stroke-width="0.5" stroke-miterlimit="10"/>
<path d="M101.948 299.153L101.769 299.412V300.965V305.659L101.757 321.339H104.722L105.767 321.283L106.485 320.979L107.092 320.473L107.249 319.392V316.544V307.753V301.089L106.912 299.772L106.047 299.153L103.711 299.063L101.948 299.153Z" fill="#227EB0"/>
<path d="M101.645 321.452V299.063" stroke="white" stroke-width="0.5" stroke-miterlimit="10"/>
<path d="M107.316 309.194H101.645V311.321H107.316V309.194Z" stroke="white" stroke-width="0.5" stroke-miterlimit="10"/>
<path d="M104.486 317.186C105.038 317.186 105.486 316.737 105.486 316.184C105.486 315.631 105.038 315.182 104.486 315.182C103.934 315.182 103.487 315.631 103.487 316.184C103.487 316.737 103.934 317.186 104.486 317.186Z" stroke="white" stroke-width="0.5" stroke-miterlimit="10"/>
<path d="M105.441 299.063H61.216C60.1802 299.063 59.3406 299.904 59.3406 300.943V319.572C59.3406 320.61 60.1802 321.452 61.216 321.452H105.441C106.477 321.452 107.316 320.61 107.316 319.572V300.943C107.316 299.904 106.477 299.063 105.441 299.063Z" stroke="white" stroke-width="0.5" stroke-miterlimit="10"/>
<path d="M159.784 299.108H115.559C114.524 299.108 113.684 299.95 113.684 300.988V319.617C113.684 320.655 114.524 321.497 115.559 321.497H159.784C160.82 321.497 161.659 320.655 161.659 319.617V300.988C161.659 299.95 160.82 299.108 159.784 299.108Z" fill="#2CB6BF" stroke="white" stroke-width="0.5" stroke-miterlimit="10"/>
<path d="M156.291 299.209L156.112 299.457V301.022V305.715L156.1 321.396H159.076L160.121 321.34L160.828 321.036L161.435 320.529L161.592 319.448V316.601V307.809V301.145L161.266 299.828L160.39 299.209L158.054 299.108L156.291 299.209Z" fill="#227EB0"/>
<path d="M155.988 321.508V299.108" stroke="white" stroke-width="0.5" stroke-miterlimit="10"/>
<path d="M161.659 309.25H155.988V311.377H161.659V309.25Z" stroke="white" stroke-width="0.5" stroke-miterlimit="10"/>
<path d="M158.829 317.242C159.381 317.242 159.829 316.793 159.829 316.24C159.829 315.687 159.381 315.238 158.829 315.238C158.277 315.238 157.83 315.687 157.83 316.24C157.83 316.793 158.277 317.242 158.829 317.242Z" stroke="white" stroke-width="0.5" stroke-miterlimit="10"/>
<path d="M159.784 299.108H115.559C114.524 299.108 113.684 299.95 113.684 300.988V319.617C113.684 320.655 114.524 321.497 115.559 321.497H159.784C160.82 321.497 161.659 320.655 161.659 319.617V300.988C161.659 299.95 160.82 299.108 159.784 299.108Z" stroke="white" stroke-width="0.5" stroke-miterlimit="10"/>
<path d="M214.127 299.007H169.902C168.867 299.007 168.027 299.848 168.027 300.886V319.516C168.027 320.554 168.867 321.396 169.902 321.396H214.127C215.163 321.396 216.002 320.554 216.002 319.516V300.886C216.002 299.848 215.163 299.007 214.127 299.007Z" fill="#2CB6BF" stroke="white" stroke-width="0.5" stroke-miterlimit="10"/>
<path d="M210.635 299.108L210.455 299.356V300.909V305.603L210.444 321.283H213.42L214.464 321.227L215.172 320.923L215.778 320.416L215.946 319.336V316.488V307.697V301.033L215.61 299.716L214.745 299.108L212.398 299.007L210.635 299.108Z" fill="#227EB0"/>
<path d="M210.343 321.396V299.007" stroke="white" stroke-width="0.5" stroke-miterlimit="10"/>
<path d="M216.014 309.137H210.343V311.265H216.014V309.137Z" stroke="white" stroke-width="0.5" stroke-miterlimit="10"/>
<path d="M213.173 317.129C213.725 317.129 214.172 316.681 214.172 316.128C214.172 315.574 213.725 315.126 213.173 315.126C212.621 315.126 212.173 315.574 212.173 316.128C212.173 316.681 212.621 317.129 213.173 317.129Z" stroke="white" stroke-width="0.5" stroke-miterlimit="10"/>
<path d="M214.127 299.007H169.902C168.867 299.007 168.027 299.848 168.027 300.886V319.516C168.027 320.554 168.867 321.396 169.902 321.396H214.127C215.163 321.396 216.002 320.554 216.002 319.516V300.886C216.002 299.848 215.163 299.007 214.127 299.007Z" stroke="white" stroke-width="0.5" stroke-miterlimit="10"/>
<path d="M51.0865 326.979H6.86178C5.826 326.979 4.98633 327.821 4.98633 328.859V347.488C4.98633 348.527 5.826 349.368 6.86178 349.368H51.0865C52.1223 349.368 52.9619 348.527 52.9619 347.488V328.859C52.9619 327.821 52.1223 326.979 51.0865 326.979Z" fill="#2CB6BF" stroke="white" stroke-width="0.5" stroke-miterlimit="10"/>
<path d="M47.5937 327.08L47.4253 327.328V328.881V333.575L47.4141 349.256H50.3788L51.4233 349.199L52.1308 348.895L52.7484 348.389L52.9057 347.308V344.46V335.669V329.005L52.5687 327.688L51.704 327.08L49.3681 326.979L47.5937 327.08Z" fill="#227EB0"/>
<path d="M47.3018 349.368V326.979" stroke="white" stroke-width="0.5" stroke-miterlimit="10"/>
<path d="M52.973 337.11H47.3018V339.237H52.973V337.11Z" stroke="white" stroke-width="0.5" stroke-miterlimit="10"/>
<path d="M50.1318 345.102C50.6838 345.102 51.1313 344.653 51.1313 344.1C51.1313 343.547 50.6838 343.098 50.1318 343.098C49.5798 343.098 49.1323 343.547 49.1323 344.1C49.1323 344.653 49.5798 345.102 50.1318 345.102Z" stroke="white" stroke-width="0.5" stroke-miterlimit="10"/>
<path d="M51.0865 326.979H6.86178C5.826 326.979 4.98633 327.821 4.98633 328.859V347.488C4.98633 348.527 5.826 349.368 6.86178 349.368H51.0865C52.1223 349.368 52.9619 348.527 52.9619 347.488V328.859C52.9619 327.821 52.1223 326.979 51.0865 326.979Z" stroke="white" stroke-width="0.5" stroke-miterlimit="10"/>
<path d="M105.441 326.923H61.216C60.1802 326.923 59.3406 327.764 59.3406 328.802V347.432C59.3406 348.47 60.1802 349.312 61.216 349.312H105.441C106.477 349.312 107.316 348.47 107.316 347.432V328.802C107.316 327.764 106.477 326.923 105.441 326.923Z" fill="#2CB6BF" stroke="white" stroke-width="0.5" stroke-miterlimit="10"/>
<path d="M101.948 327.024L101.769 327.272V328.825V333.519L101.757 349.199H104.722L105.767 349.143L106.485 348.839L107.092 348.332L107.249 347.252V344.404V335.613V328.96L106.912 327.643L106.047 327.024L103.711 326.923L101.948 327.024Z" fill="#227EB0"/>
<path d="M101.645 349.312V326.923" stroke="white" stroke-width="0.5" stroke-miterlimit="10"/>
<path d="M107.316 337.053H101.645V339.181H107.316V337.053Z" stroke="white" stroke-width="0.5" stroke-miterlimit="10"/>
<path d="M104.486 345.046C105.038 345.046 105.486 344.597 105.486 344.044C105.486 343.491 105.038 343.042 104.486 343.042C103.934 343.042 103.487 343.491 103.487 344.044C103.487 344.597 103.934 345.046 104.486 345.046Z" stroke="white" stroke-width="0.5" stroke-miterlimit="10"/>
<path d="M105.441 326.923H61.216C60.1802 326.923 59.3406 327.764 59.3406 328.802V347.432C59.3406 348.47 60.1802 349.312 61.216 349.312H105.441C106.477 349.312 107.316 348.47 107.316 347.432V328.802C107.316 327.764 106.477 326.923 105.441 326.923Z" stroke="white" stroke-width="0.5" stroke-miterlimit="10"/>
<path d="M159.784 326.979H115.559C114.524 326.979 113.684 327.821 113.684 328.859V347.488C113.684 348.527 114.524 349.368 115.559 349.368H159.784C160.82 349.368 161.659 348.527 161.659 347.488V328.859C161.659 327.821 160.82 326.979 159.784 326.979Z" fill="#2CB6BF" stroke="white" stroke-width="0.5" stroke-miterlimit="10"/>
<path d="M156.291 327.08L156.112 327.328V328.881V333.575L156.1 349.256H159.076L160.121 349.199L160.828 348.895L161.435 348.389L161.592 347.308V344.46V335.669V329.005L161.266 327.688L160.39 327.08L158.054 326.979L156.291 327.08Z" fill="#227EB0"/>
<path d="M155.988 349.368V326.979" stroke="white" stroke-width="0.5" stroke-miterlimit="10"/>
<path d="M161.659 337.11H155.988V339.237H161.659V337.11Z" stroke="white" stroke-width="0.5" stroke-miterlimit="10"/>
<path d="M158.829 345.102C159.381 345.102 159.829 344.653 159.829 344.1C159.829 343.547 159.381 343.098 158.829 343.098C158.277 343.098 157.83 343.547 157.83 344.1C157.83 344.653 158.277 345.102 158.829 345.102Z" stroke="white" stroke-width="0.5" stroke-miterlimit="10"/>
<path d="M159.784 326.979H115.559C114.524 326.979 113.684 327.821 113.684 328.859V347.488C113.684 348.527 114.524 349.368 115.559 349.368H159.784C160.82 349.368 161.659 348.527 161.659 347.488V328.859C161.659 327.821 160.82 326.979 159.784 326.979Z" stroke="white" stroke-width="0.5" stroke-miterlimit="10"/>
<path d="M214.127 326.866H169.902C168.867 326.866 168.027 327.708 168.027 328.746V347.376C168.027 348.414 168.867 349.255 169.902 349.255H214.127C215.163 349.255 216.002 348.414 216.002 347.376V328.746C216.002 327.708 215.163 326.866 214.127 326.866Z" fill="#2CB6BF" stroke="white" stroke-width="0.5" stroke-miterlimit="10"/>
<path d="M210.635 326.968L210.455 327.215V328.769V333.463L210.444 349.154H213.42L214.464 349.087L215.172 348.783L215.778 348.276L215.946 347.195V344.348V335.556V328.904L215.61 327.587L214.745 326.968L212.398 326.866L210.635 326.968Z" fill="#227EB0"/>
<path d="M210.343 349.255V326.866" stroke="white" stroke-width="0.5" stroke-miterlimit="10"/>
<path d="M216.014 336.997H210.343V339.125H216.014V336.997Z" stroke="white" stroke-width="0.5" stroke-miterlimit="10"/>
<path d="M213.173 344.989C213.725 344.989 214.172 344.541 214.172 343.987C214.172 343.434 213.725 342.986 213.173 342.986C212.621 342.986 212.173 343.434 212.173 343.987C212.173 344.541 212.621 344.989 213.173 344.989Z" stroke="white" stroke-width="0.5" stroke-miterlimit="10"/>
<path d="M214.127 326.866H169.902C168.867 326.866 168.027 327.708 168.027 328.746V347.376C168.027 348.414 168.867 349.255 169.902 349.255H214.127C215.163 349.255 216.002 348.414 216.002 347.376V328.746C216.002 327.708 215.163 326.866 214.127 326.866Z" stroke="white" stroke-width="0.5" stroke-miterlimit="10"/>
</g>
<defs>
<clipPath id="clip0_165_292">
<rect width="221" height="357" fill="white"/>
</clipPath>
</defs>
</svg>
