<svg width="402" height="400" viewBox="0 0 402 400" fill="none" xmlns="http://www.w3.org/2000/svg">
<g clip-path="url(#clip0_87_4946)">
<path d="M335.33 53.1402C335.2 53.1615 335.08 53.2232 334.986 53.3164C334.893 53.4097 334.831 53.53 334.81 53.6602L333.61 61.3302C330.233 62.7827 327.116 64.7754 324.38 67.2302L316.93 65.1102C316.802 65.0753 316.666 65.0806 316.541 65.1253C316.416 65.17 316.307 65.252 316.23 65.3602L310.91 73.0002C310.832 73.1078 310.79 73.2373 310.79 73.3702C310.79 73.5031 310.832 73.6326 310.91 73.7402L315.48 80.0002C314.122 83.4154 313.331 87.0298 313.14 90.7002L306.36 94.4802C306.245 94.5458 306.152 94.6452 306.095 94.765C306.038 94.8848 306.019 95.0192 306.04 95.1502L307.68 104.31C307.703 104.441 307.767 104.562 307.862 104.655C307.957 104.748 308.079 104.809 308.21 104.83L315.88 106.03C317.327 109.407 319.32 112.522 321.78 115.25L319.66 122.71C319.62 122.838 319.623 122.976 319.668 123.102C319.714 123.228 319.798 123.336 319.91 123.41L327.54 128.73C327.648 128.808 327.777 128.85 327.91 128.85C328.043 128.85 328.172 128.808 328.28 128.73L334.55 124.16C337.965 125.519 341.579 126.31 345.25 126.5L349.02 133.28C349.086 133.395 349.186 133.486 349.306 133.542C349.426 133.597 349.56 133.614 349.69 133.59L358.86 131.96C358.989 131.935 359.108 131.871 359.199 131.776C359.29 131.681 359.35 131.56 359.37 131.43L360.57 123.76C363.95 122.314 367.068 120.32 369.8 117.86L377.26 119.98C377.388 120.018 377.525 120.014 377.651 119.969C377.777 119.924 377.885 119.841 377.96 119.73L383.28 112.1C383.355 111.991 383.396 111.862 383.396 111.73C383.396 111.598 383.355 111.469 383.28 111.36L378.71 105.09C380.068 101.674 380.861 98.0606 381.06 94.3902L387.83 90.6102C387.947 90.5485 388.041 90.4513 388.098 90.3326C388.156 90.2139 388.174 90.0799 388.15 89.9502L386.51 80.7802C386.487 80.6518 386.424 80.5338 386.331 80.4424C386.238 80.3511 386.119 80.2909 385.99 80.2702L378.32 79.0602C376.867 75.6867 374.875 72.5725 372.42 69.8402L374.54 62.3802C374.574 62.2519 374.568 62.1165 374.523 61.9917C374.478 61.8668 374.397 61.7583 374.29 61.6802L366.65 56.3602C366.542 56.2821 366.413 56.2401 366.28 56.2401C366.147 56.2401 366.018 56.2821 365.91 56.3602L359.65 60.9302C356.234 59.5736 352.62 58.78 348.95 58.5802L345.17 51.8102C345.107 51.6928 345.008 51.5985 344.887 51.541C344.767 51.4835 344.631 51.4657 344.5 51.4902L335.33 53.1402Z" fill="#2CB6BF"/>
<path d="M353 99.4398C352.331 100.006 351.588 100.477 350.79 100.84C348.713 101.764 346.363 101.869 344.213 101.132C342.062 100.395 340.27 98.8713 339.196 96.8672C338.123 94.8632 337.848 92.5271 338.426 90.3285C339.004 88.1298 340.393 86.2315 342.314 85.0148C344.234 83.7982 346.544 83.3535 348.779 83.7701C351.014 84.1866 353.008 85.4335 354.362 87.2602C355.715 89.087 356.327 91.3582 356.074 93.6176C355.822 95.8769 354.723 97.957 353 99.4398ZM342.2 86.9198C341.261 87.729 340.539 88.7603 340.1 89.9198C339.495 91.5254 339.465 93.2912 340.015 94.9165C340.565 96.5418 341.662 97.9262 343.118 98.8339C344.574 99.7416 346.3 100.117 348.001 99.895C349.703 99.6734 351.275 98.8689 352.45 97.6184C353.625 96.368 354.331 94.749 354.446 93.037C354.562 91.325 354.081 89.6258 353.084 88.2288C352.088 86.8317 350.638 85.8232 348.982 85.3749C347.326 84.9265 345.565 85.0661 344 85.7698C343.362 86.0681 342.769 86.4553 342.24 86.9198H342.2Z" fill="white"/>
<path d="M362.34 110.4C358.042 114.122 352.531 116.144 346.846 116.084C341.161 116.024 335.694 113.886 331.476 110.074C327.258 106.262 324.58 101.038 323.947 95.388C323.314 89.7378 324.77 84.0513 328.04 79.4002L328.38 78.9202C329.17 77.875 330.046 76.8982 331 76.0002L331.33 75.6802L332.47 76.9002C331.351 77.9517 330.345 79.1181 329.47 80.3802C326.757 84.2985 325.415 89.0041 325.655 93.764C325.895 98.524 327.702 103.071 330.796 106.697C333.889 110.322 338.095 112.823 342.758 113.81C347.42 114.796 352.279 114.212 356.575 112.15C360.872 110.087 364.366 106.662 366.512 102.407C368.659 98.1517 369.338 93.306 368.444 88.6246C367.55 83.9433 365.133 79.6891 361.569 76.5248C358.005 73.3605 353.494 71.4638 348.74 71.1302L348.85 69.4702C353.454 69.7965 357.858 71.4824 361.503 74.3142C365.148 77.1459 367.87 80.996 369.324 85.3766C370.779 89.7571 370.9 94.4709 369.673 98.9204C368.445 103.37 365.925 107.355 362.43 110.37L362.34 110.4Z" fill="white"/>
<path d="M317.14 0.910116C317.098 0.946151 317.048 0.971365 316.994 0.983565C316.94 0.995765 316.883 0.994581 316.83 0.980116C316.41 0.860116 315.98 0.750116 315.55 0.660116C315.462 0.640225 315.386 0.58638 315.339 0.510428C315.291 0.434476 315.275 0.342637 315.295 0.255116C315.315 0.167594 315.369 0.0915594 315.445 0.0437376C315.521 -0.00408418 315.613 -0.0197754 315.7 0.000115844C316.13 0.100116 316.57 0.200116 317.01 0.320116C317.052 0.33165 317.092 0.351458 317.126 0.378388C317.161 0.405319 317.189 0.438834 317.211 0.476986C317.232 0.515137 317.246 0.557162 317.251 0.600618C317.256 0.644074 317.252 0.688094 317.24 0.730116C317.232 0.80097 317.196 0.865681 317.14 0.910116Z" fill="#2CB6BF"/>
<path d="M329.61 55.9999C329.02 56.4999 328.41 56.9999 327.78 57.4599C327.71 57.5114 327.622 57.5329 327.536 57.5198C327.449 57.5066 327.372 57.46 327.32 57.3899C327.293 57.3547 327.273 57.3145 327.262 57.2716C327.251 57.2286 327.249 57.1839 327.255 57.14C327.262 57.0961 327.277 57.054 327.3 57.0162C327.323 56.9784 327.354 56.9456 327.39 56.9199C328.1 56.3899 328.81 55.8199 329.48 55.2199C329.549 55.1753 329.632 55.1572 329.713 55.1688C329.794 55.1804 329.869 55.2211 329.922 55.2833C329.976 55.3454 330.005 55.4249 330.005 55.507C330.004 55.5891 329.974 55.6683 329.92 55.7299L329.61 55.9999ZM333 52.5399C332.937 52.5886 332.86 52.6149 332.78 52.6149C332.7 52.6149 332.623 52.5886 332.56 52.5399C332.529 52.5092 332.504 52.4726 332.487 52.4323C332.47 52.3919 332.462 52.3486 332.462 52.3049C332.462 52.2612 332.47 52.2179 332.487 52.1775C332.504 52.1372 332.529 52.1006 332.56 52.0699C333.15 51.3899 333.71 50.6699 334.23 49.9499C334.255 49.913 334.287 49.8815 334.325 49.8574C334.362 49.8333 334.404 49.817 334.448 49.8095C334.492 49.8021 334.537 49.8036 334.58 49.8139C334.623 49.8243 334.664 49.8433 334.7 49.8699C334.77 49.9218 334.817 49.9993 334.83 50.0855C334.843 50.1716 334.821 50.2595 334.77 50.3299C334.24 51.0812 333.673 51.8054 333.07 52.4999L333 52.5399ZM337 46.6299C336.946 46.6682 336.881 46.6888 336.815 46.6888C336.749 46.6888 336.684 46.6682 336.63 46.6299C336.59 46.611 336.554 46.5839 336.525 46.5505C336.496 46.517 336.474 46.4779 336.461 46.4356C336.448 46.3933 336.444 46.3488 336.449 46.3047C336.454 46.2607 336.468 46.2182 336.49 46.1799C336.91 45.3899 337.3 44.5699 337.65 43.7499C337.683 43.6691 337.747 43.6047 337.828 43.571C337.908 43.5372 337.999 43.5368 338.08 43.5699C338.162 43.6052 338.226 43.671 338.26 43.7532C338.293 43.8354 338.293 43.9276 338.26 44.0099C337.9 44.8499 337.51 45.6899 337.08 46.4999C337.064 46.5487 337.036 46.5932 337 46.6299ZM339.65 39.9999C339.61 40.0359 339.561 40.0611 339.509 40.0734C339.457 40.0856 339.402 40.0844 339.35 40.0699C339.307 40.0595 339.266 40.0404 339.231 40.014C339.195 39.9875 339.165 39.9542 339.143 39.9159C339.121 39.8776 339.106 39.8352 339.1 39.7912C339.095 39.7473 339.098 39.7026 339.11 39.6599C339.34 38.7999 339.54 37.9099 339.69 37.0299C339.707 36.943 339.757 36.8661 339.83 36.8157C339.903 36.7652 339.993 36.7452 340.08 36.7599C340.167 36.7769 340.244 36.8272 340.294 36.9C340.345 36.9729 340.365 37.0625 340.35 37.1499C340.19 38.0499 339.99 38.9499 339.75 39.8299C339.739 39.8971 339.704 39.9579 339.65 39.9999ZM340.71 32.9399C340.681 32.9703 340.644 32.9934 340.605 33.0073C340.565 33.0212 340.522 33.0255 340.48 33.0199C340.437 33.0186 340.394 33.0088 340.354 32.991C340.315 32.9732 340.279 32.9478 340.25 32.9162C340.22 32.8846 340.197 32.8475 340.181 32.807C340.166 32.7664 340.159 32.7232 340.16 32.6799C340.16 31.7899 340.16 30.8799 340.16 29.9799C340.157 29.8914 340.189 29.8053 340.249 29.7399C340.309 29.6745 340.392 29.6351 340.48 29.6299C340.568 29.6296 340.653 29.6623 340.717 29.7216C340.782 29.7809 340.822 29.8624 340.83 29.9499C340.83 30.8699 340.88 31.7899 340.83 32.6999C340.829 32.7449 340.818 32.7891 340.797 32.8291C340.776 32.869 340.746 32.9035 340.71 32.9299V32.9399ZM340.17 25.8299C340.126 25.8649 340.075 25.8889 340.02 25.8999C339.977 25.9101 339.933 25.9113 339.89 25.9036C339.846 25.8958 339.805 25.8793 339.768 25.8549C339.732 25.8305 339.701 25.7988 339.677 25.7618C339.653 25.7248 339.637 25.6833 339.63 25.6399C339.46 24.7499 339.26 23.8699 339.02 23.0099C338.996 22.925 339.007 22.8342 339.05 22.7573C339.093 22.6804 339.165 22.6238 339.25 22.5999C339.335 22.576 339.426 22.5869 339.503 22.63C339.58 22.6731 339.636 22.745 339.66 22.8299C339.9 23.7099 340.11 24.6099 340.28 25.5099C340.29 25.5667 340.286 25.6252 340.266 25.6796C340.247 25.734 340.214 25.7824 340.17 25.8199V25.8299ZM338.08 18.9999L337.99 19.0599C337.908 19.0933 337.816 19.0932 337.733 19.0596C337.651 19.0259 337.585 18.9614 337.55 18.8799C337.2 18.0599 336.8 17.2499 336.38 16.4599C336.338 16.383 336.327 16.2924 336.352 16.208C336.376 16.1236 336.433 16.0523 336.51 16.0099C336.587 15.9675 336.678 15.9573 336.762 15.9817C336.846 16.0061 336.918 16.063 336.96 16.1399C337.4 16.9499 337.8 17.7799 338.17 18.6199C338.199 18.6843 338.206 18.7565 338.19 18.8252C338.173 18.894 338.135 18.9554 338.08 18.9999ZM334.52 12.8099C334.448 12.8619 334.359 12.8837 334.271 12.8706C334.183 12.8576 334.104 12.8106 334.05 12.7399C333.58 12.0999 333.05 11.4799 332.57 10.8799L332.36 10.6399C332.299 10.5766 332.266 10.4924 332.266 10.4049C332.266 10.3173 332.299 10.2332 332.36 10.1699C332.391 10.1388 332.427 10.114 332.468 10.0971C332.508 10.0803 332.551 10.0716 332.595 10.0716C332.639 10.0716 332.682 10.0803 332.722 10.0971C332.763 10.114 332.799 10.1388 332.83 10.1699L333.04 10.4099C333.56 11.0199 334.04 11.6599 334.55 12.3099C334.581 12.3436 334.605 12.3832 334.62 12.4264C334.636 12.4696 334.642 12.5155 334.64 12.5613C334.637 12.6071 334.625 12.6518 334.604 12.6928C334.584 12.7338 334.555 12.7702 334.52 12.7999V12.8099ZM329.67 7.5799C329.608 7.63023 329.53 7.65768 329.45 7.65768C329.37 7.65768 329.292 7.63023 329.23 7.5799C328.56 6.9899 327.84 6.4299 327.12 5.9099C327.048 5.85818 327 5.78013 326.986 5.69293C326.972 5.60573 326.993 5.51651 327.045 5.4449C327.097 5.37329 327.175 5.32516 327.262 5.31109C327.349 5.29703 327.438 5.31818 327.51 5.3699C328.25 5.8999 328.98 6.4799 329.67 7.0699C329.701 7.1006 329.726 7.13719 329.743 7.17753C329.76 7.21787 329.768 7.26117 329.768 7.3049C329.768 7.34863 329.76 7.39192 329.743 7.43227C329.726 7.47261 329.701 7.5092 329.67 7.5399V7.5799ZM323.78 3.5799C323.723 3.61426 323.657 3.63241 323.59 3.63241C323.523 3.63241 323.457 3.61426 323.4 3.5799C322.61 3.1599 321.79 2.7599 320.97 2.4099C320.889 2.37666 320.825 2.31273 320.791 2.23212C320.757 2.1515 320.757 2.0608 320.79 1.9799C320.825 1.89835 320.891 1.83386 320.973 1.80022C321.056 1.76658 321.148 1.76646 321.23 1.7999C322.07 2.1599 322.91 2.5599 323.71 2.9899C323.749 3.00992 323.784 3.03754 323.812 3.07113C323.84 3.10471 323.861 3.14359 323.875 3.1855C323.888 3.2274 323.892 3.27148 323.888 3.31517C323.884 3.35885 323.871 3.40125 323.85 3.4399C323.833 3.47697 323.809 3.51079 323.78 3.5399V3.5799Z" fill="#2CB6BF"/>
<path d="M324.06 59.79H324L322.8 60.41C322.719 60.4479 322.626 60.4523 322.542 60.4224C322.458 60.3924 322.389 60.3305 322.35 60.25C322.331 60.2107 322.321 60.168 322.319 60.1246C322.317 60.0811 322.324 60.0377 322.338 59.9968C322.353 59.9559 322.376 59.9183 322.406 59.8863C322.435 59.8542 322.471 59.8283 322.51 59.81L323.68 59.2C323.719 59.1792 323.761 59.1664 323.805 59.1622C323.848 59.158 323.892 59.1625 323.934 59.1755C323.976 59.1886 324.015 59.2098 324.049 59.2381C324.082 59.2663 324.11 59.301 324.13 59.34C324.178 59.4097 324.198 59.4953 324.185 59.5791C324.172 59.6628 324.127 59.7384 324.06 59.79Z" fill="#2CB6BF"/>
<path d="M331.05 143.38C330.978 143.442 330.892 143.484 330.799 143.503C330.706 143.523 330.61 143.518 330.52 143.49C329.82 143.27 329.1 143.02 328.4 142.77C328.271 142.712 328.17 142.607 328.115 142.477C328.06 142.348 328.056 142.202 328.104 142.069C328.152 141.937 328.248 141.827 328.374 141.762C328.499 141.697 328.644 141.682 328.78 141.72C329.47 141.97 330.17 142.21 330.86 142.43C331 142.476 331.116 142.575 331.184 142.706C331.251 142.837 331.264 142.989 331.22 143.13C331.191 143.229 331.132 143.317 331.05 143.38Z" fill="#2CB6BF"/>
<path d="M322.33 139.72C322.247 139.795 322.142 139.841 322.031 139.854C321.92 139.866 321.808 139.844 321.71 139.79C320.39 139.1 319.08 138.33 317.82 137.52C317.759 137.481 317.706 137.431 317.664 137.372C317.623 137.313 317.593 137.246 317.578 137.175C317.562 137.105 317.56 137.032 317.572 136.961C317.585 136.889 317.611 136.821 317.65 136.76C317.689 136.699 317.739 136.646 317.798 136.605C317.857 136.563 317.924 136.534 317.995 136.518C318.065 136.502 318.138 136.5 318.21 136.513C318.281 136.525 318.349 136.551 318.41 136.59C319.65 137.38 320.94 138.13 322.23 138.81C322.359 138.88 322.455 138.998 322.498 139.138C322.541 139.278 322.527 139.43 322.46 139.56C322.428 139.622 322.384 139.676 322.33 139.72ZM312.65 133.17C312.55 133.257 312.422 133.304 312.29 133.304C312.158 133.304 312.03 133.257 311.93 133.17C310.79 132.17 309.68 131.17 308.62 130.11C308.569 130.059 308.528 129.998 308.5 129.931C308.472 129.864 308.458 129.793 308.458 129.72C308.458 129.648 308.472 129.576 308.5 129.509C308.528 129.442 308.569 129.381 308.62 129.33C308.67 129.278 308.731 129.236 308.798 129.207C308.865 129.178 308.937 129.164 309.01 129.164C309.083 129.164 309.155 129.178 309.222 129.207C309.289 129.236 309.35 129.278 309.4 129.33C310.4 130.33 311.52 131.33 312.64 132.33C312.696 132.377 312.741 132.435 312.774 132.5C312.807 132.564 312.827 132.635 312.833 132.708C312.838 132.78 312.83 132.853 312.807 132.922C312.784 132.991 312.748 133.055 312.7 133.11L312.65 133.17ZM304.65 124.66C304.53 124.747 304.381 124.783 304.235 124.761C304.089 124.738 303.958 124.659 303.87 124.54C302.97 123.35 302.11 122.1 301.32 120.83C301.244 120.706 301.219 120.558 301.251 120.416C301.283 120.274 301.369 120.15 301.49 120.07C301.551 120.03 301.62 120.002 301.693 119.989C301.765 119.975 301.839 119.977 301.911 119.993C301.983 120.008 302.051 120.039 302.111 120.081C302.17 120.124 302.221 120.178 302.26 120.24C303.04 121.48 303.88 122.71 304.76 123.88C304.804 123.939 304.837 124.006 304.855 124.077C304.873 124.149 304.876 124.223 304.865 124.296C304.854 124.368 304.828 124.438 304.789 124.501C304.751 124.563 304.7 124.618 304.64 124.66H304.65ZM298.7 114.6L298.57 114.69C298.434 114.748 298.281 114.752 298.143 114.7C298.005 114.647 297.893 114.544 297.83 114.41C297.22 113.04 296.65 111.64 296.16 110.23C296.113 110.161 296.081 110.082 296.069 110C296.057 109.917 296.063 109.832 296.089 109.752C296.114 109.672 296.157 109.599 296.215 109.539C296.273 109.478 296.344 109.432 296.422 109.403C296.501 109.374 296.585 109.363 296.668 109.371C296.751 109.38 296.832 109.407 296.903 109.451C296.974 109.495 297.034 109.555 297.079 109.626C297.123 109.697 297.151 109.777 297.16 109.86C297.65 111.24 298.16 112.62 298.8 113.95C298.854 114.056 298.873 114.176 298.853 114.294C298.833 114.411 298.776 114.518 298.69 114.6H298.7ZM295.1 103.48C295.028 103.543 294.942 103.587 294.85 103.61C294.706 103.64 294.555 103.611 294.432 103.531C294.308 103.45 294.221 103.324 294.19 103.18C293.89 101.71 293.64 100.18 293.46 98.7302C293.453 98.5883 293.5 98.4488 293.592 98.3403C293.683 98.2317 293.813 98.1621 293.954 98.1455C294.095 98.129 294.238 98.1668 294.352 98.2512C294.466 98.3356 294.544 98.4604 294.57 98.6002C294.74 100.05 294.98 101.52 295.28 102.95C295.3 103.047 295.293 103.148 295.26 103.242C295.226 103.335 295.167 103.418 295.09 103.48H295.1ZM294 91.8502C293.898 91.9412 293.766 91.9911 293.63 91.9902C293.482 91.985 293.342 91.9227 293.24 91.8164C293.137 91.71 293.08 91.568 293.08 91.4202C293.08 89.9202 293.19 88.4202 293.34 86.9202C293.366 86.7829 293.443 86.6604 293.555 86.5768C293.667 86.4932 293.806 86.4544 293.945 86.4682C294.084 86.482 294.213 86.5473 294.307 86.6513C294.4 86.7553 294.451 86.8905 294.45 87.0302C294.3 88.4902 294.21 89.9702 294.19 91.4402C294.188 91.5179 294.17 91.5944 294.137 91.6649C294.105 91.7354 294.058 91.7984 294 91.8502ZM295.47 80.2602C295.406 80.321 295.327 80.364 295.241 80.3851C295.155 80.4061 295.065 80.4044 294.98 80.3802C294.909 80.3638 294.841 80.3333 294.782 80.2906C294.723 80.2479 294.672 80.1937 294.634 80.1313C294.596 80.0689 294.571 79.9996 294.56 79.9273C294.549 79.855 294.552 79.7812 294.57 79.7102C294.92 78.2602 295.34 76.8002 295.81 75.3802C295.833 75.3113 295.869 75.2475 295.917 75.1926C295.965 75.1377 296.022 75.0928 296.087 75.0603C296.152 75.0278 296.223 75.0084 296.296 75.0032C296.368 74.9981 296.441 75.0072 296.51 75.0302C296.579 75.0532 296.643 75.0895 296.698 75.1372C296.752 75.1848 296.797 75.2427 296.83 75.3077C296.862 75.3727 296.882 75.4435 296.887 75.516C296.892 75.5885 296.883 75.6613 296.86 75.7302C296.4 77.1202 295.99 78.5502 295.65 79.9702C295.618 80.084 295.551 80.1852 295.46 80.2602H295.47ZM299.47 69.2602C299.387 69.3317 299.285 69.3773 299.177 69.3915C299.069 69.4057 298.958 69.3879 298.86 69.3402C298.729 69.2718 298.63 69.1555 298.584 69.0156C298.537 68.8758 298.547 68.7233 298.61 68.5902C299.27 67.2602 300 65.9302 300.77 64.5902C300.807 64.5275 300.856 64.4727 300.915 64.4291C300.973 64.3855 301.04 64.3539 301.11 64.3362C301.181 64.3186 301.254 64.3151 301.327 64.3261C301.399 64.3371 301.468 64.3623 301.53 64.4002C301.593 64.4373 301.648 64.4864 301.691 64.5449C301.735 64.6033 301.766 64.6698 301.784 64.7405C301.802 64.8112 301.805 64.8847 301.794 64.9568C301.783 65.0288 301.758 65.098 301.72 65.1602C300.97 66.4202 300.25 67.7202 299.61 69.0302C299.575 69.1263 299.516 69.2122 299.44 69.2802L299.47 69.2602ZM305.75 59.4102C305.648 59.515 305.508 59.5749 305.362 59.5768C305.216 59.5786 305.075 59.5223 304.97 59.4202C304.865 59.3181 304.805 59.1786 304.803 59.0323C304.802 58.886 304.858 58.745 304.96 58.6402C305.9 57.4702 306.9 56.3202 307.96 55.2402C308.01 55.1876 308.071 55.1457 308.138 55.1171C308.205 55.0885 308.277 55.0737 308.35 55.0737C308.423 55.0737 308.495 55.0885 308.562 55.1171C308.629 55.1457 308.69 55.1876 308.74 55.2402C308.791 55.2913 308.832 55.3521 308.86 55.419C308.888 55.486 308.902 55.5577 308.902 55.6302C308.902 55.7027 308.888 55.7745 308.86 55.8414C308.832 55.9084 308.791 55.9691 308.74 56.0202C307.74 57.0802 306.74 58.2002 305.83 59.3402L305.75 59.4102ZM317.6 48.5502H317.55C316.33 49.3602 315.13 50.2402 313.99 51.1502C313.874 51.2405 313.727 51.2817 313.582 51.2648C313.436 51.248 313.302 51.1745 313.21 51.0602C313.163 51.004 313.129 50.9391 313.107 50.8693C313.086 50.7994 313.079 50.7261 313.087 50.6535C313.094 50.5809 313.116 50.5105 313.151 50.4464C313.186 50.3823 313.233 50.3258 313.29 50.2802C314.46 49.3502 315.69 48.4502 316.93 47.6202C317.049 47.5488 317.19 47.5239 317.326 47.5503C317.461 47.5767 317.583 47.6526 317.666 47.7632C317.749 47.8739 317.789 48.0115 317.777 48.1494C317.764 48.2874 317.701 48.4159 317.6 48.5102V48.5502Z" fill="#2CB6BF"/>
<path d="M325.93 43.9999C325.892 44.041 325.843 44.072 325.79 44.0899C325.12 44.3799 324.45 44.6899 323.79 44.9999C323.725 45.0324 323.654 45.0517 323.582 45.0567C323.509 45.0617 323.437 45.0523 323.368 45.0291C323.299 45.0058 323.236 44.9692 323.181 44.9213C323.126 44.8734 323.082 44.8151 323.05 44.7499C322.984 44.6172 322.973 44.4638 323.02 44.3232C323.067 44.1827 323.168 44.0664 323.3 43.9999C323.967 43.6799 324.633 43.3699 325.3 43.0699C325.435 43.0128 325.588 43.0112 325.724 43.0654C325.861 43.1197 325.971 43.2254 326.03 43.3599C326.083 43.4634 326.102 43.5812 326.084 43.6962C326.066 43.8112 326.012 43.9175 325.93 43.9999Z" fill="#2CB6BF"/>
<path d="M361 41.4402C360.932 41.501 360.849 41.5439 360.76 41.5648C360.671 41.5858 360.578 41.5842 360.49 41.5602C359.78 41.3702 359.06 41.1902 358.36 41.0302C358.289 41.0144 358.222 40.9849 358.162 40.9432C358.103 40.9015 358.052 40.8485 358.013 40.7872C357.974 40.7259 357.948 40.6575 357.935 40.586C357.923 40.5144 357.924 40.4411 357.94 40.3702C357.956 40.2993 357.985 40.2322 358.027 40.1727C358.069 40.1132 358.122 40.0625 358.183 40.0235C358.244 39.9845 358.313 39.9579 358.384 39.9454C358.456 39.9328 358.529 39.9344 358.6 39.9502C359.32 40.1102 360.06 40.2902 360.78 40.4902C360.877 40.5154 360.966 40.5668 361.036 40.6388C361.106 40.7108 361.155 40.8006 361.178 40.8985C361.2 40.9964 361.196 41.0987 361.165 41.1942C361.133 41.2897 361.076 41.3748 361 41.4402Z" fill="#2CB6BF"/>
<path d="M381.73 133C380.73 133.85 379.73 134.67 378.73 135.43C378.672 135.473 378.605 135.505 378.535 135.522C378.464 135.54 378.391 135.544 378.319 135.533C378.247 135.522 378.178 135.498 378.115 135.46C378.053 135.423 377.998 135.373 377.955 135.315C377.912 135.257 377.88 135.19 377.863 135.12C377.845 135.049 377.841 134.976 377.852 134.904C377.863 134.832 377.887 134.763 377.925 134.7C377.962 134.638 378.012 134.583 378.07 134.54C379.26 133.66 380.43 132.71 381.55 131.72C381.604 131.672 381.668 131.635 381.737 131.612C381.805 131.588 381.878 131.579 381.95 131.583C382.023 131.588 382.094 131.607 382.159 131.639C382.224 131.671 382.282 131.715 382.33 131.77C382.378 131.824 382.415 131.888 382.438 131.957C382.461 132.025 382.471 132.098 382.467 132.17C382.462 132.243 382.443 132.314 382.411 132.379C382.379 132.444 382.334 132.502 382.28 132.55L381.73 133ZM387.41 127.31C387.359 127.361 387.298 127.402 387.231 127.43C387.164 127.457 387.092 127.472 387.02 127.472C386.948 127.472 386.876 127.457 386.809 127.43C386.742 127.402 386.681 127.361 386.63 127.31C386.579 127.259 386.538 127.198 386.51 127.131C386.483 127.064 386.468 126.992 386.468 126.92C386.468 126.848 386.483 126.776 386.51 126.709C386.538 126.642 386.579 126.581 386.63 126.53C387.63 125.4 388.53 124.21 389.4 123C389.493 122.901 389.619 122.84 389.754 122.827C389.889 122.815 390.025 122.852 390.135 122.931C390.245 123.01 390.322 123.127 390.352 123.259C390.383 123.392 390.364 123.53 390.3 123.65C389.41 124.89 388.46 126.1 387.47 127.25L387.41 127.31ZM394.09 117.49C394.005 117.562 393.901 117.607 393.791 117.619C393.68 117.632 393.569 117.611 393.47 117.56C393.405 117.526 393.348 117.48 393.301 117.424C393.254 117.368 393.219 117.303 393.198 117.233C393.176 117.163 393.169 117.09 393.176 117.017C393.184 116.945 393.205 116.874 393.24 116.81C393.93 115.49 394.58 114.13 395.16 112.81C395.235 112.71 395.342 112.637 395.464 112.605C395.585 112.573 395.714 112.582 395.829 112.632C395.944 112.681 396.04 112.768 396.1 112.879C396.16 112.989 396.181 113.116 396.16 113.24C395.56 114.64 394.9 116.03 394.16 117.38C394.142 117.429 394.118 117.476 394.09 117.52V117.49ZM398.43 106.49C398.339 106.566 398.226 106.61 398.108 106.618C397.99 106.625 397.873 106.595 397.773 106.532C397.673 106.469 397.596 106.375 397.552 106.265C397.508 106.156 397.501 106.035 397.53 105.92C397.92 104.49 398.25 103.02 398.53 101.55C398.542 101.478 398.568 101.41 398.607 101.348C398.646 101.286 398.696 101.233 398.756 101.191C398.816 101.149 398.883 101.12 398.954 101.104C399.025 101.088 399.098 101.087 399.17 101.1C399.314 101.127 399.441 101.209 399.525 101.328C399.609 101.448 399.643 101.596 399.62 101.74C399.35 103.24 399.02 104.74 398.62 106.21C398.582 106.313 398.516 106.403 398.43 106.47V106.49ZM400.19 94.75C400.139 94.7962 400.079 94.8316 400.013 94.854C399.948 94.8763 399.879 94.8852 399.81 94.88C399.665 94.8722 399.529 94.8085 399.43 94.7021C399.331 94.5958 399.277 94.4552 399.28 94.31C399.33 92.82 399.28 91.31 399.28 89.82C399.298 89.6856 399.364 89.5624 399.466 89.4731C399.568 89.3838 399.699 89.3346 399.835 89.3346C399.971 89.3346 400.102 89.3838 400.204 89.4731C400.306 89.5624 400.372 89.6856 400.39 89.82C400.46 91.34 400.47 92.88 400.39 94.4C400.365 94.5302 400.294 94.6472 400.19 94.73V94.75ZM399.3 82.91C399.21 82.9674 399.106 82.9986 399 83C398.929 83.0144 398.856 83.0144 398.785 82.9999C398.714 82.9854 398.646 82.9568 398.587 82.9158C398.527 82.8747 398.476 82.822 398.437 82.7609C398.398 82.6998 398.372 82.6315 398.36 82.56C398.08 81.09 397.74 79.62 397.36 78.19C397.323 78.0495 397.341 77.9 397.412 77.7731C397.483 77.6462 397.601 77.5518 397.74 77.51C397.882 77.4697 398.034 77.487 398.163 77.5582C398.292 77.6293 398.388 77.7485 398.43 77.89C398.83 79.36 399.18 80.89 399.43 82.35C399.456 82.4436 399.458 82.5424 399.435 82.6369C399.412 82.7314 399.366 82.8185 399.3 82.89V82.91ZM395.82 71.55C395.78 71.589 395.732 71.6196 395.68 71.64C395.613 71.6696 395.541 71.6856 395.468 71.687C395.395 71.6885 395.322 71.6753 395.254 71.6483C395.186 71.6213 395.124 71.581 395.072 71.5298C395.02 71.4786 394.978 71.4174 394.95 71.35C394.35 69.99 393.69 68.63 392.95 67.35C392.915 67.2843 392.894 67.2125 392.887 67.1385C392.88 67.0645 392.887 66.9899 392.909 66.9188C392.931 66.8478 392.966 66.7817 393.014 66.7245C393.061 66.6672 393.119 66.6198 393.185 66.585C393.251 66.5502 393.323 66.5287 393.396 66.5216C393.47 66.5146 393.545 66.5222 393.616 66.544C393.687 66.5659 393.753 66.6015 393.81 66.6488C393.868 66.6962 393.915 66.7543 393.95 66.82C394.67 68.16 395.35 69.55 395.95 70.94C395.988 71.0403 395.996 71.1496 395.973 71.2544C395.95 71.3593 395.897 71.4551 395.82 71.53V71.55ZM389.9 61.24C389.842 61.2828 389.775 61.3137 389.705 61.3308C389.635 61.3479 389.562 61.351 389.49 61.3399C389.419 61.3287 389.35 61.3036 389.288 61.2658C389.226 61.2281 389.173 61.1785 389.13 61.12C388.35 60.06 387.52 59.02 386.66 58.03C386.55 57.89 386.43 57.76 386.32 57.63C386.27 57.5763 386.232 57.5131 386.208 57.4442C386.183 57.3753 386.173 57.3022 386.178 57.2293C386.183 57.1564 386.202 57.0851 386.235 57.0199C386.268 56.9547 386.314 56.8969 386.37 56.85C386.425 56.8023 386.489 56.766 386.558 56.7432C386.627 56.7204 386.7 56.7115 386.773 56.7171C386.845 56.7227 386.916 56.7426 386.981 56.7757C387.045 56.8088 387.103 56.8545 387.15 56.91L387.5 57.31C388.38 58.31 389.22 59.39 390.02 60.48C390.099 60.5988 390.13 60.7426 390.108 60.8833C390.085 61.0239 390.011 61.1512 389.9 61.24ZM381.82 52.52C381.721 52.6085 381.593 52.6575 381.46 52.6575C381.327 52.6575 381.199 52.6085 381.1 52.52C379.97 51.52 378.79 50.62 377.58 49.74C377.481 49.6467 377.42 49.5208 377.407 49.3857C377.395 49.2506 377.432 49.1154 377.511 49.0054C377.59 48.8954 377.707 48.818 377.839 48.7876C377.972 48.7571 378.11 48.7758 378.23 48.84C379.47 49.74 380.68 50.69 381.82 51.68C381.876 51.7279 381.922 51.7864 381.955 51.852C381.988 51.9176 382.008 51.9892 382.014 52.0625C382.019 52.1359 382.01 52.2097 381.987 52.2796C381.964 52.3495 381.928 52.4142 381.88 52.47C381.88 52.47 381.85 52.51 381.82 52.52ZM372.02 45.82C371.935 45.8918 371.831 45.9369 371.721 45.9493C371.61 45.9618 371.499 45.9411 371.4 45.89C370.08 45.18 368.72 44.53 367.4 43.95C367.318 43.9339 367.24 43.8995 367.172 43.8493C367.105 43.799 367.05 43.7343 367.011 43.6599C366.972 43.5854 366.95 43.5032 366.947 43.4192C366.945 43.3352 366.961 43.2517 366.995 43.1748C367.028 43.0979 367.079 43.0296 367.143 42.975C367.207 42.9203 367.282 42.8807 367.363 42.8591C367.444 42.8375 367.529 42.8345 367.612 42.8502C367.694 42.866 367.772 42.9 367.84 42.95C369.23 43.54 370.62 44.21 371.97 44.95C372.099 45.02 372.195 45.1377 372.238 45.278C372.281 45.4182 372.268 45.5698 372.2 45.7C372.141 45.7517 372.073 45.7924 372 45.82H372.02Z" fill="#2CB6BF"/>
<path d="M372.49 139.41L372.39 139.48C371.73 139.83 371.05 140.18 370.39 140.48C370.257 140.546 370.104 140.557 369.963 140.51C369.823 140.463 369.707 140.362 369.64 140.23C369.608 140.164 369.589 140.093 369.585 140.02C369.581 139.947 369.591 139.874 369.615 139.806C369.639 139.737 369.677 139.673 369.726 139.619C369.775 139.565 369.834 139.521 369.9 139.49C370.54 139.17 371.2 138.83 371.85 138.49C371.914 138.455 371.984 138.433 372.056 138.425C372.128 138.417 372.201 138.423 372.271 138.444C372.341 138.464 372.406 138.498 372.462 138.544C372.519 138.59 372.566 138.646 372.6 138.71C372.665 138.822 372.69 138.952 372.67 139.08C372.65 139.207 372.586 139.324 372.49 139.41Z" fill="#2CB6BF"/>
<path d="M299.15 62.1801C299.106 62.2169 299.054 62.2418 298.998 62.2523C298.942 62.2628 298.884 62.2586 298.83 62.2401C298.41 62.1101 297.98 61.9601 297.56 61.8101C297.477 61.7786 297.41 61.716 297.373 61.6357C297.335 61.5554 297.331 61.4637 297.36 61.3801C297.374 61.3383 297.397 61.2998 297.427 61.267C297.457 61.2342 297.493 61.2076 297.533 61.189C297.573 61.1703 297.616 61.1599 297.66 61.1584C297.705 61.1569 297.749 61.1643 297.79 61.1801C298.2 61.3301 298.62 61.4701 299.04 61.6001C299.095 61.6219 299.143 61.6572 299.18 61.7026C299.218 61.748 299.243 61.8021 299.254 61.8599C299.265 61.9177 299.261 61.9774 299.243 62.0334C299.225 62.0893 299.193 62.1398 299.15 62.1801Z" fill="#95B0DD"/>
<path d="M293.91 60C293.855 60.0346 293.79 60.0529 293.725 60.0529C293.66 60.0529 293.596 60.0346 293.54 60C292.74 59.58 291.96 59.12 291.2 58.63C291.163 58.6066 291.131 58.5761 291.106 58.5402C291.081 58.5043 291.063 58.4638 291.054 58.421C291.044 58.3782 291.044 58.3339 291.052 58.2908C291.06 58.2477 291.076 58.2067 291.1 58.17C291.149 58.0972 291.224 58.0462 291.31 58.0275C291.396 58.0089 291.485 58.0241 291.56 58.07C292.3 58.55 293.07 59 293.85 59.41C293.927 59.4524 293.985 59.5229 294.011 59.6068C294.037 59.6907 294.029 59.7814 293.99 59.86C293.973 59.9117 293.946 59.9594 293.91 60ZM288.09 56C288.03 56.0514 287.954 56.0797 287.875 56.0797C287.796 56.0797 287.72 56.0514 287.66 56C286.97 55.42 286.3 54.8 285.66 54.16C285.629 54.1293 285.604 54.0927 285.587 54.0524C285.57 54.012 285.562 53.9687 285.562 53.925C285.562 53.8813 285.57 53.838 285.587 53.7976C285.604 53.7573 285.629 53.7207 285.66 53.69C285.724 53.6265 285.81 53.5908 285.9 53.5908C285.99 53.5908 286.076 53.6265 286.14 53.69C286.75 54.31 287.41 54.92 288.08 55.49C288.111 55.5207 288.136 55.5573 288.153 55.5976C288.17 55.638 288.178 55.6813 288.178 55.725C288.178 55.7687 288.17 55.812 288.153 55.8524C288.136 55.8927 288.111 55.9293 288.08 55.96C288.08 55.96 288.11 56 288.09 56ZM283.28 50.88C283.208 50.932 283.119 50.9538 283.031 50.9407C282.943 50.9277 282.864 50.8807 282.81 50.81C282.27 50.09 281.76 49.34 281.28 48.58C281.234 48.5052 281.219 48.4156 281.238 48.3299C281.256 48.2442 281.307 48.169 281.38 48.12C281.417 48.0964 281.459 48.0806 281.502 48.0733C281.546 48.0661 281.59 48.0676 281.633 48.0779C281.676 48.0882 281.717 48.1069 281.752 48.133C281.788 48.1591 281.817 48.1921 281.84 48.23C282.31 48.97 282.84 49.71 283.35 50.41C283.382 50.4467 283.406 50.4898 283.421 50.5366C283.435 50.5834 283.438 50.6326 283.432 50.681C283.425 50.7294 283.408 50.7758 283.382 50.8171C283.356 50.8583 283.321 50.8934 283.28 50.92V50.88ZM279.7 44.88H279.62C279.539 44.9141 279.448 44.9154 279.366 44.8837C279.284 44.852 279.217 44.7897 279.18 44.71C278.81 43.89 278.47 43.05 278.18 42.2C278.164 42.1581 278.157 42.1134 278.16 42.0687C278.162 42.0239 278.173 41.9801 278.193 41.9399C278.212 41.8997 278.24 41.8639 278.274 41.8347C278.308 41.8055 278.347 41.7835 278.39 41.77C278.431 41.7559 278.475 41.7502 278.519 41.7532C278.562 41.7561 278.605 41.7677 278.644 41.7873C278.683 41.8068 278.718 41.8339 278.746 41.867C278.775 41.9001 278.797 41.9385 278.81 41.98C279.1 42.81 279.44 43.64 279.81 44.44C279.849 44.514 279.859 44.5998 279.839 44.681C279.819 44.7622 279.769 44.8331 279.7 44.88ZM277.54 38.2C277.494 38.2313 277.444 38.255 277.39 38.27C277.303 38.2847 277.213 38.2647 277.14 38.2142C277.067 38.1638 277.017 38.0869 277 38C276.82 37.12 276.67 36.22 276.56 35.33C276.552 35.2413 276.578 35.1529 276.634 35.0837C276.691 35.0145 276.772 34.9701 276.86 34.96C276.903 34.9544 276.948 34.9575 276.99 34.9691C277.032 34.9807 277.071 35.0006 277.106 35.0276C277.14 35.0546 277.169 35.0881 277.19 35.1263C277.212 35.1645 277.225 35.2065 277.23 35.25C277.33 36.12 277.48 37 277.66 37.87C277.671 37.9307 277.666 37.9932 277.644 38.0511C277.623 38.1091 277.587 38.1604 277.54 38.2ZM276.88 31.2C276.851 31.2304 276.815 31.2535 276.775 31.2674C276.735 31.2813 276.692 31.2856 276.65 31.28C276.563 31.28 276.479 31.2452 276.417 31.1834C276.355 31.1215 276.32 31.0375 276.32 30.95C276.32 30.05 276.39 29.14 276.48 28.24C276.49 28.1515 276.535 28.0705 276.604 28.0144C276.673 27.9583 276.761 27.9316 276.85 27.94C276.937 27.9525 277.015 27.9979 277.069 28.0668C277.123 28.1357 277.149 28.2229 277.14 28.31C277.06 29.18 277.01 30.08 276.99 30.96C276.991 31.0057 276.982 31.0512 276.963 31.0928C276.944 31.1344 276.915 31.171 276.88 31.2ZM277.76 24.2C277.707 24.2477 277.64 24.277 277.57 24.2837C277.499 24.2903 277.428 24.2738 277.367 24.2367C277.306 24.1995 277.259 24.1438 277.233 24.0777C277.206 24.0116 277.202 23.9388 277.22 23.87C277.43 22.99 277.68 22.12 277.96 21.26C277.971 21.2138 277.992 21.1705 278.02 21.1327C278.049 21.095 278.085 21.0637 278.127 21.0408C278.168 21.0179 278.214 21.004 278.262 20.9999C278.309 20.9958 278.356 21.0017 278.401 21.0171C278.446 21.0325 278.487 21.0572 278.522 21.0895C278.557 21.1217 278.585 21.1609 278.603 21.2045C278.622 21.2481 278.631 21.2952 278.631 21.3426C278.63 21.3901 278.62 21.4369 278.6 21.48C278.32 22.31 278.07 23.17 277.87 24.02C277.863 24.1048 277.824 24.1836 277.76 24.24V24.2ZM280.15 17.6C280.092 17.6504 280.019 17.679 279.942 17.6809C279.865 17.6829 279.79 17.658 279.73 17.6107C279.669 17.5633 279.627 17.4964 279.611 17.4215C279.595 17.3465 279.605 17.2682 279.64 17.2C280.03 16.39 280.47 15.59 280.93 14.82C280.953 14.7821 280.983 14.7492 281.018 14.723C281.054 14.6969 281.094 14.6782 281.137 14.6679C281.18 14.6577 281.224 14.6561 281.268 14.6633C281.311 14.6706 281.353 14.6864 281.39 14.71C281.466 14.7558 281.521 14.8296 281.544 14.9155C281.566 15.0015 281.554 15.0929 281.51 15.17C281.05 15.92 280.62 16.71 280.23 17.49C280.22 17.5471 280.192 17.5995 280.15 17.64V17.6ZM283.93 11.68C283.869 11.7278 283.793 11.7538 283.715 11.7538C283.637 11.7538 283.562 11.7278 283.5 11.68C283.432 11.6234 283.389 11.5428 283.38 11.4551C283.371 11.3674 283.396 11.2795 283.45 11.21C284.02 10.51 284.62 9.82001 285.23 9.21001C285.295 9.14883 285.381 9.11476 285.47 9.11476C285.559 9.11476 285.645 9.14883 285.71 9.21001C285.771 9.27328 285.804 9.35745 285.804 9.445C285.804 9.53256 285.771 9.61673 285.71 9.68001C285.1 10.32 284.51 10.99 283.96 11.68H283.93ZM291.07 5.14001C290.33 5.63001 289.61 6.14001 288.92 6.70001C288.891 6.73217 288.856 6.75788 288.816 6.77547C288.776 6.79307 288.733 6.80216 288.69 6.80216C288.647 6.80216 288.604 6.79307 288.564 6.77547C288.525 6.75788 288.489 6.73217 288.46 6.70001C288.432 6.6661 288.411 6.6269 288.398 6.58473C288.385 6.54256 288.381 6.49826 288.386 6.45446C288.391 6.41066 288.404 6.36823 288.425 6.32968C288.447 6.29113 288.475 6.25724 288.51 6.23001C289.21 5.67001 289.95 5.14001 290.7 4.64001C290.736 4.61552 290.777 4.59842 290.819 4.5897C290.862 4.58097 290.906 4.58078 290.949 4.58915C290.992 4.59752 291.032 4.61427 291.069 4.63845C291.105 4.66262 291.136 4.69374 291.16 4.73001C291.204 4.8027 291.219 4.8892 291.202 4.97248C291.186 5.05576 291.139 5.12979 291.07 5.18001V5.14001Z" fill="#95B0DD"/>
<path d="M296.08 2.44998H295.99C295.59 2.62998 295.18 2.80998 294.79 2.99998C294.71 3.03844 294.619 3.04371 294.535 3.01464C294.452 2.98557 294.383 2.92454 294.345 2.84498C294.307 2.76541 294.301 2.67383 294.33 2.59038C294.359 2.50692 294.42 2.43844 294.5 2.39998C294.9 2.20998 295.31 2.01998 295.73 1.83998C295.81 1.80633 295.899 1.80529 295.98 1.83708C296.06 1.86887 296.125 1.93096 296.16 2.00998C296.2 2.08113 296.214 2.16407 296.199 2.24442C296.185 2.32478 296.143 2.39749 296.08 2.44998Z" fill="#95B0DD"/>
<path d="M301.72 7.92991C301.642 7.94521 301.57 7.98408 301.515 8.04129C301.459 8.09849 301.423 8.1713 301.41 8.24991L300.69 12.8599C298.661 13.7311 296.789 14.9304 295.15 16.4099L290.66 15.1299C290.583 15.1104 290.502 15.1142 290.427 15.1409C290.352 15.1677 290.287 15.216 290.24 15.2799L287 19.8699C286.953 19.9357 286.929 20.0143 286.929 20.0949C286.929 20.1755 286.953 20.2541 287 20.3199L289.74 24.0799C288.929 26.1336 288.456 28.305 288.34 30.5099L284.26 32.7799C284.191 32.8211 284.135 32.8823 284.102 32.9555C284.068 33.0287 284.057 33.1104 284.07 33.1899L285.07 38.6899C285.08 38.7685 285.116 38.8415 285.172 38.8975C285.228 38.9536 285.301 38.9896 285.38 38.9999L289.99 39.7299C290.864 41.7577 292.063 43.629 293.54 45.2699L292.26 49.7499C292.24 49.8269 292.244 49.908 292.271 49.9828C292.298 50.0576 292.346 50.1227 292.41 50.1699L297 53.3699C297.066 53.4164 297.144 53.4414 297.225 53.4414C297.306 53.4414 297.384 53.4164 297.45 53.3699L301.21 50.6199C303.277 51.4278 305.463 51.8939 307.68 51.9999L310 56.0999C310.039 56.1713 310.1 56.2283 310.174 56.2625C310.247 56.2967 310.33 56.3063 310.41 56.2899L315.91 55.2899C315.989 55.276 316.061 55.2376 316.117 55.1801C316.172 55.1227 316.209 55.0491 316.22 54.9699L316.95 50.3699C318.976 49.4926 320.846 48.2938 322.49 46.8199L326.97 48.0899C327.047 48.114 327.129 48.1124 327.205 48.0853C327.281 48.0582 327.346 48.0072 327.39 47.9399L330.59 43.3499C330.636 43.2856 330.66 43.2087 330.66 43.1299C330.66 43.0511 330.636 42.9742 330.59 42.9099L327.84 39.1399C328.656 37.0874 329.132 34.9156 329.25 32.7099L333.32 30.4399C333.391 30.4026 333.447 30.3436 333.481 30.2715C333.516 30.1994 333.526 30.1182 333.51 30.0399L332.51 24.5299C332.495 24.4517 332.456 24.3801 332.399 24.3247C332.341 24.2693 332.269 24.2327 332.19 24.2199L327.59 23.4999C326.696 21.486 325.484 19.6289 324 17.9999L325.27 13.5199C325.294 13.4431 325.292 13.3606 325.265 13.2848C325.238 13.209 325.187 13.1441 325.12 13.0999L320.53 9.89991C320.466 9.85427 320.389 9.82975 320.31 9.82975C320.231 9.82975 320.154 9.85427 320.09 9.89991L316.32 12.6399C314.267 11.827 312.095 11.3541 309.89 11.2399L307.62 7.15991C307.582 7.09041 307.522 7.0347 307.45 7.00062C307.379 6.96654 307.298 6.9558 307.22 6.96991L301.72 7.92991Z" fill="#2CB6BF"/>
<path d="M312.37 35.77C311.966 36.1084 311.519 36.391 311.04 36.61C309.882 37.1247 308.582 37.2215 307.36 36.8837C306.139 36.546 305.073 35.7947 304.344 34.7582C303.615 33.7218 303.268 32.4644 303.364 31.2008C303.459 29.9373 303.99 28.7459 304.866 27.8303C305.742 26.9147 306.908 26.3316 308.166 26.1806C309.424 26.0296 310.696 26.32 311.764 27.0024C312.831 27.6847 313.629 28.7165 314.021 29.9217C314.412 31.1268 314.373 32.4305 313.91 33.61C313.579 34.4437 313.05 35.1848 312.37 35.77ZM305.87 28.24C305.308 28.725 304.878 29.3442 304.62 30.04C304.411 30.5882 304.312 31.1723 304.33 31.7587C304.347 32.3451 304.479 32.9223 304.72 33.4574C304.961 33.9925 305.304 34.4748 305.732 34.8768C306.159 35.2788 306.661 35.5925 307.21 35.8C307.759 36.0077 308.344 36.1049 308.931 36.0861C309.518 36.0672 310.095 35.9326 310.63 35.69C311.165 35.4501 311.647 35.1069 312.049 34.6802C312.45 34.2534 312.764 33.7516 312.971 33.2033C313.178 32.6551 313.275 32.0714 313.256 31.4856C313.237 30.8999 313.102 30.3236 312.86 29.79C312.621 29.2545 312.279 28.7714 311.852 28.3687C311.426 27.9659 310.924 27.6514 310.376 27.4432C309.828 27.2351 309.243 27.1373 308.657 27.1557C308.071 27.174 307.494 27.308 306.96 27.55C306.566 27.7273 306.199 27.9596 305.87 28.24Z" fill="white"/>
<path d="M318 42.35C315.415 44.5689 312.11 45.7691 308.704 45.7259C305.297 45.6827 302.024 44.399 299.496 42.1153C296.968 39.8317 295.36 36.7047 294.972 33.3202C294.584 29.9358 295.444 26.5261 297.39 23.73L297.59 23.45C298.055 22.8139 298.574 22.2184 299.14 21.67L299.34 21.48L300.02 22.21C299.343 22.8435 298.737 23.5475 298.21 24.31C296.824 26.3072 296.025 28.6532 295.905 31.0814C295.785 33.5097 296.348 35.9229 297.531 38.0471C298.714 40.1713 300.468 41.9212 302.596 43.0982C304.723 44.2752 307.138 44.832 309.566 44.7055C311.994 44.5789 314.338 43.7741 316.331 42.3823C318.324 40.9906 319.888 39.0677 320.843 36.8321C321.799 34.5965 322.108 32.1378 321.736 29.7351C321.365 27.3325 320.326 25.0823 318.74 23.24C318.026 22.4138 317.213 21.6783 316.32 21.05C314.39 19.7099 312.134 18.9153 309.79 18.75L309.86 17.75C312.334 17.9194 314.719 18.7431 316.771 20.1369C318.823 21.5307 320.467 23.4444 321.536 25.6824C322.605 27.9204 323.061 30.4022 322.856 32.8739C322.651 35.3457 321.793 37.7186 320.37 39.75C319.695 40.7147 318.898 41.5885 318 42.35Z" fill="white"/>
<path d="M27.6 338.84C27.6053 340.507 28.2697 342.104 29.4481 343.282C30.6266 344.46 32.2234 345.125 33.89 345.13H374.14C375.807 345.125 377.403 344.46 378.582 343.282C379.76 342.104 380.425 340.507 380.43 338.84L383.26 143.31C383.26 139.85 379.19 133.1 371.72 133.61L39.2 125C37.0525 124.941 34.9154 125.32 32.9187 126.113C30.9221 126.906 29.1076 128.097 27.5857 129.613C26.0638 131.129 24.8662 132.939 24.0658 134.933C23.2654 136.927 22.879 139.062 22.93 141.21L27.6 338.84Z" fill="#2CB6BF"/>
<path d="M33.81 332.81C33.8232 334.393 34.4612 335.906 35.585 337.02C36.7088 338.135 38.2273 338.76 39.81 338.76H365.93C367.513 338.76 369.031 338.135 370.155 337.02C371.279 335.906 371.917 334.393 371.93 332.81L374.6 155.31C374.28 144.63 364.92 140.79 359.24 141.01L40.51 132.46C38.9998 132.422 37.4975 132.691 36.0942 133.25C34.6909 133.809 33.4158 134.648 32.3462 135.715C31.2766 136.782 30.4347 138.055 29.8715 139.456C29.3084 140.858 29.0357 142.36 29.07 143.87L33.81 332.81Z" fill="#2E5985"/>
<path d="M368.36 248.48C368.245 248.48 368.132 248.457 368.026 248.413C367.921 248.368 367.825 248.303 367.745 248.221C367.665 248.139 367.602 248.042 367.56 247.935C367.518 247.828 367.497 247.714 367.5 247.6L367.71 233.2C367.715 232.972 367.809 232.754 367.971 232.594C368.133 232.433 368.352 232.342 368.58 232.34C368.694 232.342 368.807 232.368 368.911 232.414C369.016 232.46 369.11 232.526 369.189 232.609C369.268 232.691 369.33 232.789 369.371 232.895C369.413 233.002 369.433 233.116 369.43 233.23L369.22 247.62C369.22 247.733 369.198 247.845 369.155 247.949C369.111 248.053 369.048 248.148 368.968 248.228C368.888 248.308 368.793 248.371 368.689 248.414C368.585 248.458 368.473 248.48 368.36 248.48Z" fill="white"/>
<path d="M368.88 213.21C368.765 213.209 368.651 213.185 368.545 213.139C368.44 213.094 368.344 213.027 368.264 212.945C368.184 212.862 368.121 212.764 368.079 212.657C368.038 212.55 368.017 212.435 368.02 212.32L368.83 157.19C368.893 155.76 368.659 154.332 368.142 152.996C367.626 151.661 366.839 150.446 365.83 149.43C362.2 145.95 356.43 146.13 356.19 146.14L254.33 143.41C254.216 143.408 254.103 143.382 253.999 143.336C253.894 143.29 253.8 143.224 253.721 143.141C253.642 143.059 253.58 142.961 253.538 142.855C253.497 142.748 253.477 142.634 253.48 142.52C253.478 142.404 253.501 142.288 253.546 142.181C253.591 142.074 253.659 141.977 253.743 141.897C253.828 141.817 253.928 141.756 254.038 141.717C254.147 141.678 254.264 141.662 254.38 141.67L356.18 144.4C356.81 144.4 362.95 144.26 367.04 148.17C368.21 149.349 369.124 150.757 369.725 152.306C370.325 153.854 370.599 155.51 370.53 157.17L369.72 212.32C369.725 212.549 369.64 212.771 369.483 212.938C369.326 213.104 369.109 213.202 368.88 213.21Z" fill="white"/>
<path d="M5.64999 361.36L395.48 361.36C398.6 361.36 401.13 358.83 401.13 355.71V349.83C401.13 346.709 398.6 344.18 395.48 344.18L5.64999 344.18C2.52957 344.18 0 346.709 0 349.83V355.71C0 358.83 2.52957 361.36 5.64999 361.36Z" fill="#2CB6BF"/>
<path d="M144.34 337.1L120.7 336.79C116.886 336.727 113.249 335.171 110.57 332.456C107.89 329.741 106.383 326.084 106.37 322.27V286.58C106.369 286.513 106.381 286.447 106.405 286.385C106.43 286.324 106.466 286.267 106.513 286.22C106.559 286.172 106.615 286.135 106.676 286.109C106.738 286.083 106.803 286.07 106.87 286.07C107.005 286.07 107.135 286.124 107.231 286.219C107.326 286.315 107.38 286.445 107.38 286.58V322.27C107.39 325.82 108.793 329.225 111.288 331.752C113.783 334.278 117.17 335.725 120.72 335.78L144.36 336.09C144.475 336.113 144.579 336.176 144.654 336.267C144.729 336.358 144.769 336.472 144.769 336.59C144.769 336.708 144.729 336.822 144.654 336.913C144.579 337.004 144.475 337.067 144.36 337.09L144.34 337.1Z" fill="white"/>
<path d="M106.86 276C106.793 276 106.728 275.987 106.666 275.961C106.605 275.935 106.549 275.898 106.503 275.85C106.456 275.803 106.42 275.746 106.395 275.684C106.371 275.623 106.359 275.557 106.36 275.49V269.71C106.36 269.577 106.413 269.45 106.506 269.357C106.6 269.263 106.727 269.21 106.86 269.21C106.926 269.209 106.993 269.221 107.054 269.245C107.116 269.27 107.173 269.306 107.22 269.353C107.267 269.4 107.305 269.455 107.331 269.516C107.357 269.578 107.37 269.644 107.37 269.71V275.49C107.37 275.625 107.316 275.755 107.221 275.851C107.125 275.946 106.995 276 106.86 276Z" fill="white"/>
<path d="M113.12 41.7401C113.121 40.8307 113.317 39.932 113.695 39.1049C114.074 38.2779 114.625 37.5417 115.312 36.9463C116 36.3508 116.807 35.91 117.68 35.6536C118.552 35.3972 119.47 35.3312 120.37 35.4601C145.91 38.8701 233.76 49.4601 306.37 43.9301C307.149 43.8661 307.934 43.9579 308.677 44.2003C309.421 44.4426 310.109 44.8306 310.701 45.3417C311.293 45.8527 311.777 46.4766 312.126 47.1768C312.474 47.877 312.68 48.6396 312.73 49.4201L327.21 317.87C327.294 319.652 326.669 321.394 325.471 322.715C324.274 324.037 322.601 324.829 320.82 324.92C290.27 326.7 164.47 333.59 119.59 328.92C118.28 328.79 117.064 328.181 116.175 327.211C115.286 326.24 114.786 324.976 114.77 323.66L113.12 41.7401Z" fill="#237EB0"/>
<path d="M117.92 48.4601C117.921 47.5964 118.106 46.7428 118.464 45.9566C118.822 45.1703 119.343 44.4696 119.994 43.9014C120.644 43.3333 121.409 42.9107 122.236 42.6621C123.063 42.4136 123.934 42.3447 124.79 42.4601C149 45.7001 232.32 55.8601 301.2 50.5801C301.942 50.5259 302.688 50.6201 303.393 50.8572C304.098 51.0943 304.749 51.4697 305.308 51.9612C305.866 52.4528 306.322 53.0508 306.646 53.7202C306.971 54.3897 307.16 55.1171 307.2 55.8601L321 314.2C321.047 315.047 320.927 315.896 320.646 316.696C320.364 317.497 319.928 318.234 319.361 318.866C318.795 319.498 318.109 320.012 317.343 320.378C316.578 320.744 315.747 320.955 314.9 321C285.9 322.72 166.64 329.34 124.09 324.89C122.838 324.757 121.679 324.168 120.834 323.235C119.989 322.301 119.518 321.089 119.51 319.83L117.92 48.4601Z" fill="#2CB6BF"/>
<path d="M140.34 68.3802L142.92 123.77C142.958 124.657 143.331 125.496 143.964 126.118C144.597 126.74 145.443 127.098 146.33 127.12C156.59 127.41 188.55 128.19 206.6 127.25C207.584 127.198 208.514 126.779 209.204 126.076C209.895 125.372 210.296 124.435 210.33 123.45C210.67 113.06 211.42 82.8302 209.06 70.2002C208.872 69.2083 208.351 68.3102 207.584 67.654C206.817 66.9977 205.849 66.6225 204.84 66.5902L144.21 64.4702C143.693 64.4517 143.179 64.5404 142.698 64.7309C142.217 64.9214 141.782 65.2094 141.418 65.5768C141.054 65.9442 140.771 66.383 140.585 66.8655C140.4 67.3481 140.316 67.8638 140.34 68.3802Z" fill="white"/>
<path d="M292 73.1998C292.524 73.2273 293.038 73.0477 293.431 72.6998C293.824 72.3518 294.064 71.8634 294.1 71.3398C294.037 70.8044 293.775 70.3122 293.365 69.9618C292.956 69.6114 292.429 69.4286 291.89 69.4498L225.41 68.2599C225.16 68.2286 224.905 68.2652 224.674 68.3657C224.442 68.4663 224.242 68.6271 224.094 68.8314C223.946 69.0357 223.855 69.276 223.832 69.5273C223.808 69.7786 223.852 70.0315 223.96 70.2599L224.28 71.1599C224.523 71.7309 224.922 72.2216 225.431 72.5755C225.941 72.9294 226.54 73.132 227.16 73.1599L292 73.1998Z" fill="white"/>
<path d="M225.44 78.5899C225.19 78.5587 224.935 78.5953 224.704 78.6958C224.472 78.7963 224.272 78.9572 224.124 79.1615C223.976 79.3658 223.885 79.6061 223.862 79.8574C223.838 80.1086 223.882 80.3616 223.99 80.5899L224.31 81.4899C224.553 82.0609 224.952 82.5517 225.461 82.9056C225.971 83.2595 226.57 83.462 227.19 83.4899H292C292.524 83.5174 293.038 83.3378 293.431 82.9899C293.824 82.6419 294.064 82.1535 294.1 81.6299C294.038 81.0936 293.776 80.6004 293.366 80.2483C292.957 79.8963 292.43 79.7112 291.89 79.7299L225.44 78.5899Z" fill="white"/>
<path d="M225.44 89.0601C225.19 89.0289 224.935 89.0655 224.704 89.166C224.472 89.2666 224.272 89.4274 224.124 89.6317C223.976 89.836 223.885 90.0763 223.862 90.3276C223.838 90.5789 223.882 90.8318 223.99 91.0601L224.31 91.9601C224.551 92.5326 224.949 93.0246 225.459 93.3788C225.969 93.733 226.57 93.9346 227.19 93.9601H292C292.524 93.9876 293.038 93.808 293.431 93.4601C293.824 93.1121 294.064 92.6237 294.1 92.1001C294.037 91.5647 293.775 91.0725 293.365 90.7221C292.956 90.3717 292.429 90.1889 291.89 90.2101L225.44 89.0601Z" fill="white"/>
<path d="M298.49 144.52C298.745 144.536 299.001 144.501 299.242 144.415C299.483 144.329 299.703 144.195 299.89 144.021C300.078 143.846 300.227 143.636 300.33 143.402C300.434 143.168 300.488 142.916 300.49 142.66C300.405 142.123 300.126 141.636 299.705 141.292C299.285 140.947 298.753 140.769 298.21 140.79L142.46 139.56C141.27 139.56 140.9 140.3 141.64 141.23L142.91 142.83C143.81 143.837 145.072 144.444 146.42 144.52H298.49Z" fill="white"/>
<path d="M142.49 152.8C141.3 152.8 140.93 153.55 141.67 154.48L142.94 156.07C143.84 157.076 145.102 157.684 146.45 157.76H298.45C298.705 157.778 298.96 157.743 299.201 157.658C299.442 157.574 299.662 157.44 299.85 157.267C300.037 157.094 300.187 156.884 300.29 156.651C300.394 156.417 300.448 156.165 300.45 155.91C300.367 155.371 300.089 154.882 299.668 154.535C299.248 154.189 298.715 154.009 298.17 154.03L142.49 152.8Z" fill="white"/>
<path d="M161.88 220.29L148.73 220.17C147.866 220.199 147.022 219.91 146.358 219.356C145.694 218.803 145.257 218.025 145.13 217.17L143.97 206.17C143.937 205.847 143.97 205.521 144.068 205.211C144.166 204.901 144.327 204.615 144.54 204.37C144.788 204.076 145.093 203.836 145.437 203.664C145.781 203.492 146.156 203.392 146.54 203.37L150.86 203.02C154.33 202.72 158.66 202.36 161.09 202.32C161.902 202.283 162.704 202.516 163.37 202.983C164.035 203.45 164.528 204.124 164.77 204.9C165.46 207.43 165.4 212.22 165.27 217.33C165.198 218.167 164.805 218.943 164.173 219.495C163.54 220.047 162.718 220.332 161.88 220.29ZM146.59 204.35C146.34 204.36 146.095 204.421 145.87 204.53C145.644 204.638 145.444 204.791 145.28 204.98C145.154 205.122 145.059 205.289 145 205.47C144.942 205.65 144.921 205.841 144.94 206.03L146.1 217.03C146.204 217.638 146.527 218.187 147.008 218.574C147.488 218.961 148.094 219.159 148.71 219.13L161.86 219.26C162.435 219.294 163.001 219.105 163.441 218.733C163.88 218.361 164.159 217.833 164.22 217.26C164.35 212.26 164.41 207.52 163.76 205.12C163.567 204.567 163.202 204.09 162.717 203.761C162.233 203.431 161.655 203.266 161.07 203.29C158.67 203.29 154.36 203.69 150.9 203.99L146.57 204.34L146.59 204.35Z" fill="white"/>
<path d="M148 205.48C150.76 205.3 156.76 204.69 159.61 204.65C160.169 204.623 160.722 204.78 161.183 205.098C161.644 205.416 161.987 205.877 162.16 206.41C162.71 208.41 162.63 212.49 162.54 216.23C162.491 216.799 162.223 217.326 161.791 217.699C161.36 218.073 160.8 218.263 160.23 218.23L149.72 218.13C149.135 218.151 148.562 217.961 148.106 217.593C147.651 217.226 147.343 216.706 147.24 216.13L146.31 207.31C146.295 207.078 146.327 206.845 146.405 206.625C146.483 206.405 146.605 206.204 146.763 206.033C146.921 205.862 147.112 205.725 147.325 205.629C147.537 205.534 147.767 205.484 148 205.48Z" fill="#237EB0"/>
<path d="M173.27 213C173.386 213.663 173.727 214.267 174.235 214.709C174.743 215.151 175.387 215.406 176.06 215.43L282.45 214.43C283.051 214.354 283.603 214.06 284.004 213.606C284.404 213.151 284.625 212.566 284.625 211.96C284.625 211.354 284.404 210.769 284.004 210.315C283.603 209.86 283.051 209.567 282.45 209.49L176 208.87C174.17 208.86 172.79 210.89 173.27 213Z" fill="white"/>
<path d="M161.88 248.47L148.73 248.34C147.866 248.369 147.022 248.079 146.358 247.526C145.694 246.973 145.257 246.195 145.13 245.34L143.97 234.34C143.935 234.017 143.968 233.69 144.066 233.38C144.164 233.07 144.326 232.784 144.54 232.54C144.79 232.248 145.096 232.01 145.439 231.838C145.782 231.666 146.157 231.565 146.54 231.54C147.64 231.47 149.2 231.33 150.86 231.19C154.33 230.9 158.66 230.53 161.09 230.5H161.15C161.952 230.471 162.741 230.707 163.396 231.171C164.05 231.636 164.533 232.303 164.77 233.07C165.46 235.61 165.4 240.4 165.27 245.5C165.199 246.337 164.806 247.114 164.173 247.668C163.541 248.222 162.719 248.509 161.88 248.47ZM146.59 232.52C146.087 232.549 145.617 232.776 145.28 233.15C145.04 233.426 144.917 233.785 144.94 234.15L146.1 245.15C146.202 245.759 146.524 246.309 147.006 246.696C147.487 247.084 148.093 247.281 148.71 247.25L161.86 247.38C162.435 247.414 163.001 247.225 163.441 246.853C163.88 246.48 164.159 245.953 164.22 245.38C164.35 240.38 164.41 235.64 163.76 233.24C163.573 232.683 163.209 232.203 162.723 231.872C162.237 231.542 161.657 231.379 161.07 231.41C158.67 231.41 154.36 231.8 150.9 232.1L146.57 232.45L146.59 232.52Z" fill="white"/>
<path d="M148 233.66C150.76 233.47 156.76 232.86 159.61 232.82C160.169 232.794 160.721 232.953 161.181 233.27C161.642 233.588 161.986 234.048 162.16 234.58C162.71 236.58 162.63 240.66 162.54 244.4C162.491 244.969 162.223 245.496 161.791 245.869C161.36 246.243 160.8 246.433 160.23 246.4L149.72 246.3C149.134 246.323 148.56 246.134 148.104 245.766C147.648 245.398 147.341 244.877 147.24 244.3L146.31 235.49C146.295 235.258 146.327 235.025 146.405 234.805C146.483 234.585 146.605 234.384 146.763 234.213C146.921 234.042 147.112 233.905 147.325 233.81C147.537 233.715 147.767 233.664 148 233.66Z" fill="#237EB0"/>
<path d="M173.27 241.15C173.397 241.809 173.74 242.406 174.246 242.847C174.752 243.287 175.39 243.545 176.06 243.58L282.45 242.58C283.051 242.504 283.603 242.21 284.004 241.756C284.404 241.301 284.625 240.716 284.625 240.11C284.625 239.504 284.404 238.919 284.004 238.465C283.603 238.01 283.051 237.717 282.45 237.64L176 237.05C174.17 237 172.79 239.07 173.27 241.15Z" fill="white"/>
<path d="M161.88 276.64L148.73 276.52C147.866 276.549 147.022 276.259 146.358 275.706C145.694 275.153 145.257 274.375 145.13 273.52L143.97 262.52C143.935 262.197 143.968 261.87 144.066 261.56C144.164 261.25 144.326 260.964 144.54 260.72C144.788 260.426 145.093 260.186 145.437 260.014C145.781 259.842 146.156 259.742 146.54 259.72L150.86 259.37C154.33 259.07 158.66 258.7 161.09 258.67H161.15C161.953 258.641 162.744 258.879 163.398 259.345C164.053 259.812 164.535 260.481 164.77 261.25C165.46 263.78 165.4 268.57 165.27 273.68C165.199 274.516 164.805 275.292 164.173 275.844C163.54 276.397 162.718 276.682 161.88 276.64ZM146.59 260.69C146.34 260.704 146.095 260.768 145.87 260.878C145.646 260.988 145.445 261.141 145.28 261.33C145.154 261.472 145.058 261.638 145 261.819C144.941 262 144.921 262.191 144.94 262.38L146.1 273.38C146.206 273.987 146.53 274.535 147.01 274.921C147.49 275.307 148.094 275.506 148.71 275.48L161.86 275.6C162.436 275.636 163.003 275.448 163.443 275.076C163.883 274.703 164.162 274.174 164.22 273.6C164.35 268.6 164.41 263.86 163.76 261.46C163.573 260.903 163.209 260.422 162.723 260.092C162.237 259.762 161.657 259.599 161.07 259.63C158.67 259.63 154.36 260.03 150.9 260.32C149.25 260.46 147.68 260.6 146.57 260.67L146.59 260.69Z" fill="white"/>
<path d="M148 261.83C150.76 261.64 156.76 261.03 159.61 261C160.17 260.971 160.723 261.128 161.184 261.446C161.646 261.764 161.989 262.226 162.16 262.76C162.71 264.76 162.63 268.84 162.54 272.58C162.491 273.149 162.223 273.676 161.791 274.049C161.36 274.423 160.8 274.613 160.23 274.58L149.72 274.48C149.135 274.499 148.564 274.308 148.108 273.941C147.653 273.574 147.345 273.055 147.24 272.48L146.31 263.66C146.295 263.428 146.327 263.194 146.405 262.975C146.483 262.755 146.605 262.554 146.763 262.383C146.921 262.212 147.112 262.074 147.325 261.979C147.537 261.884 147.767 261.834 148 261.83Z" fill="#237EB0"/>
<path d="M173.27 269.32C173.397 269.978 173.74 270.576 174.246 271.016C174.752 271.457 175.39 271.715 176.06 271.75L282.45 270.75C283.043 270.665 283.586 270.369 283.979 269.916C284.372 269.463 284.588 268.884 284.588 268.285C284.588 267.685 284.372 267.106 283.979 266.653C283.586 266.2 283.043 265.904 282.45 265.82L176 265.22C174.17 265.21 172.79 267.24 173.27 269.32Z" fill="white"/>
<path d="M161.88 304.82L148.73 304.69C147.866 304.719 147.022 304.429 146.358 303.876C145.694 303.323 145.257 302.545 145.13 301.69L143.97 290.69C143.936 290.365 143.969 290.037 144.067 289.726C144.165 289.414 144.326 289.126 144.54 288.88C144.791 288.589 145.097 288.352 145.44 288.18C145.783 288.008 146.157 287.906 146.54 287.88L150.86 287.53C154.33 287.24 158.66 286.87 161.09 286.84H161.15C161.952 286.811 162.741 287.047 163.396 287.511C164.05 287.976 164.533 288.643 164.77 289.41C165.46 291.94 165.4 296.74 165.27 301.84C165.201 302.679 164.809 303.458 164.177 304.014C163.544 304.57 162.721 304.859 161.88 304.82ZM146.59 288.87C146.34 288.88 146.095 288.941 145.87 289.049C145.644 289.158 145.444 289.311 145.28 289.5C145.155 289.642 145.06 289.809 145.001 289.99C144.943 290.17 144.922 290.361 144.94 290.55L146.1 301.55C146.204 302.158 146.527 302.707 147.008 303.094C147.488 303.48 148.094 303.678 148.71 303.65L161.86 303.78C162.435 303.814 163.001 303.625 163.441 303.253C163.88 302.88 164.159 302.353 164.22 301.78C164.35 296.78 164.41 292.04 163.76 289.63C163.571 289.075 163.206 288.597 162.721 288.268C162.235 287.94 161.655 287.779 161.07 287.81C158.67 287.81 154.36 288.2 150.9 288.5L146.57 288.85L146.59 288.87Z" fill="white"/>
<path d="M148 290C150.76 289.81 156.76 289.2 159.61 289.16C160.169 289.134 160.721 289.292 161.182 289.61C161.642 289.928 161.986 290.388 162.16 290.92C162.71 292.92 162.63 297 162.54 300.74C162.491 301.309 162.223 301.836 161.791 302.209C161.36 302.583 160.8 302.773 160.23 302.74L149.72 302.64C149.135 302.663 148.561 302.473 148.104 302.106C147.648 301.738 147.341 301.217 147.24 300.64L146.31 291.83C146.294 291.597 146.325 291.363 146.402 291.143C146.48 290.923 146.601 290.721 146.76 290.55C146.918 290.378 147.11 290.241 147.323 290.146C147.536 290.052 147.767 290.002 148 290Z" fill="#237EB0"/>
<path d="M173.27 297.49C173.385 298.154 173.725 298.758 174.233 299.201C174.741 299.644 175.386 299.898 176.06 299.92L282.45 298.92C283.051 298.843 283.603 298.55 284.004 298.096C284.404 297.641 284.625 297.056 284.625 296.45C284.625 295.844 284.404 295.259 284.004 294.804C283.603 294.35 283.051 294.057 282.45 293.98L176 293.4C174.17 293.39 172.79 295.42 173.27 297.49Z" fill="white"/>
<path d="M160.72 195.78L147.57 195.65C146.706 195.681 145.86 195.392 145.196 194.839C144.532 194.285 144.095 193.506 143.97 192.65L142.81 181.65C142.775 181.327 142.808 181 142.906 180.69C143.004 180.38 143.166 180.094 143.38 179.85C143.63 179.558 143.936 179.32 144.279 179.148C144.622 178.976 144.997 178.875 145.38 178.85C146.48 178.78 148.04 178.65 149.7 178.5C153.17 178.21 157.5 177.84 159.93 177.81H160C160.803 177.782 161.593 178.018 162.249 178.482C162.904 178.947 163.39 179.613 163.63 180.38C164.31 182.92 164.25 187.71 164.12 192.81C164.048 193.649 163.654 194.428 163.02 194.982C162.386 195.536 161.561 195.822 160.72 195.78ZM145.43 179.83C145.18 179.844 144.935 179.908 144.71 180.018C144.485 180.128 144.285 180.281 144.12 180.47C144 180.605 143.907 180.764 143.849 180.935C143.791 181.107 143.767 181.289 143.78 181.47L144.94 192.47C145.042 193.079 145.364 193.629 145.846 194.016C146.327 194.403 146.933 194.6 147.55 194.57L160.7 194.7C161.275 194.734 161.841 194.545 162.281 194.173C162.72 193.8 162.999 193.273 163.06 192.7C163.19 187.7 163.25 182.96 162.6 180.56C162.414 180.002 162.051 179.521 161.564 179.19C161.078 178.859 160.497 178.698 159.91 178.73C157.51 178.73 153.2 179.13 149.74 179.42L145.41 179.77L145.43 179.83Z" fill="white"/>
<path d="M146.84 181C149.6 180.81 155.6 180.2 158.45 180.17C159.006 180.139 159.557 180.292 160.017 180.604C160.478 180.917 160.823 181.372 161 181.9C161.55 183.9 161.47 187.98 161.38 191.71C161.334 192.28 161.066 192.808 160.634 193.182C160.202 193.556 159.64 193.746 159.07 193.71L148.56 193.61C147.975 193.633 147.4 193.443 146.944 193.076C146.488 192.708 146.181 192.187 146.08 191.61L145.15 182.8C145.139 182.57 145.175 182.34 145.254 182.124C145.334 181.908 145.457 181.71 145.614 181.542C145.772 181.375 145.961 181.24 146.172 181.147C146.383 181.054 146.61 181.004 146.84 181Z" fill="#237EB0"/>
<path d="M172.26 188.46C172.386 189.117 172.728 189.713 173.232 190.153C173.736 190.594 174.372 190.853 175.04 190.89L281.44 189.89C282.041 189.813 282.593 189.52 282.994 189.065C283.394 188.611 283.615 188.026 283.615 187.42C283.615 186.814 283.394 186.229 282.994 185.774C282.593 185.32 282.041 185.027 281.44 184.95L175 184.36C173.15 184.35 171.78 186.38 172.26 188.46Z" fill="white"/>
<path d="M226.35 7.5998C219.88 2.6998 214.09 2.5998 209.97 3.5998C208.148 4.06295 206.543 5.14505 205.43 6.66092C204.317 8.1768 203.766 10.0322 203.87 11.9098L204.87 31.1498L225.69 33.8298C225.69 33.8298 239 17.1898 226.35 7.5998ZM216.55 22.6998C215.521 22.6575 214.527 22.311 213.695 21.7042C212.863 21.0974 212.229 20.2574 211.874 19.2905C211.518 18.3236 211.458 17.2731 211.7 16.2718C211.941 15.2704 212.474 14.3632 213.231 13.6648C213.989 12.9663 214.936 12.508 215.953 12.3477C216.971 12.1874 218.013 12.3323 218.948 12.7641C219.883 13.1959 220.67 13.8953 221.207 14.7738C221.745 15.6523 222.011 16.6705 221.97 17.6998C221.944 18.3846 221.783 19.0575 221.497 19.68C221.21 20.3024 220.803 20.862 220.3 21.3267C219.796 21.7913 219.205 22.1518 218.562 22.3875C217.918 22.6231 217.235 22.7293 216.55 22.6998Z" fill="#2CB6BF"/>
<path d="M207.27 23.1798C207.143 23.1773 207.023 23.1259 206.933 23.0364C206.844 22.9469 206.792 22.8263 206.79 22.6998L206.63 19.6398C206.626 19.5733 206.635 19.5067 206.657 19.4439C206.679 19.381 206.714 19.3232 206.758 19.2738C206.803 19.2245 206.857 19.1845 206.918 19.1564C206.978 19.1282 207.043 19.1124 207.11 19.1098C207.176 19.1058 207.243 19.1151 207.306 19.1371C207.369 19.1592 207.427 19.1936 207.476 19.2383C207.525 19.283 207.565 19.3372 207.593 19.3975C207.622 19.4579 207.637 19.5233 207.64 19.5898L207.8 22.6498C207.804 22.7163 207.795 22.7829 207.773 22.8458C207.751 22.9087 207.716 22.9665 207.671 23.0158C207.627 23.0652 207.573 23.1052 207.512 23.1333C207.452 23.1615 207.387 23.1773 207.32 23.1798H207.27ZM206.96 17.1798C206.834 17.1749 206.715 17.1227 206.626 17.0338C206.537 16.9448 206.485 16.8256 206.48 16.6998L206.35 14.3698C206.259 12.5812 206.788 10.8159 207.849 9.37271C208.909 7.9295 210.436 6.89698 212.17 6.44983C214.68 5.8149 217.309 5.8149 219.82 6.44983C219.886 6.46559 219.948 6.49413 220.002 6.53381C220.057 6.5735 220.103 6.62356 220.138 6.68113C220.174 6.7387 220.197 6.80266 220.208 6.86936C220.218 6.93605 220.216 7.00417 220.2 7.06983C220.184 7.13549 220.156 7.19741 220.116 7.25204C220.076 7.30667 220.026 7.35295 219.969 7.38824C219.911 7.42352 219.847 7.44713 219.78 7.45769C219.714 7.46826 219.646 7.46559 219.58 7.44983C217.23 6.85469 214.77 6.85469 212.42 7.44983C210.911 7.83781 209.583 8.73591 208.66 9.99175C207.738 11.2476 207.279 12.7838 207.36 14.3398L207.48 16.6698C207.486 16.8019 207.44 16.9309 207.352 17.0297C207.264 17.1286 207.142 17.1896 207.01 17.1998L206.96 17.1798Z" fill="white"/>
<path d="M175.86 42.4301L176.23 32.7901C176.263 32.0008 176.454 31.2261 176.792 30.5119C177.129 29.7978 177.607 29.1588 178.197 28.6327C178.786 28.1067 179.475 27.7045 180.223 27.4498C180.971 27.1951 181.762 27.0932 182.55 27.1501L248.91 32.0001C250.332 32.1068 251.663 32.7398 252.643 33.7753C253.623 34.8109 254.182 36.1746 254.21 37.6001L254.4 46.8801L175.86 42.4301Z" fill="#2CB6BF"/>
<path d="M201.1 31.5198L198.24 31.4098C198.173 31.4073 198.108 31.3915 198.048 31.3633C197.987 31.3351 197.933 31.2952 197.888 31.2458C197.844 31.1965 197.809 31.1387 197.787 31.0758C197.765 31.0129 197.756 30.9463 197.76 30.8798C197.763 30.8142 197.778 30.7496 197.806 30.6899C197.833 30.6303 197.872 30.5766 197.92 30.532C197.969 30.4874 198.025 30.4528 198.087 30.4301C198.149 30.4074 198.214 30.3972 198.28 30.3998L201.14 30.5098C201.206 30.5124 201.27 30.5279 201.33 30.5554C201.39 30.583 201.443 30.622 201.488 30.6703C201.532 30.7186 201.567 30.7752 201.59 30.8369C201.612 30.8986 201.623 30.9642 201.62 31.0298C201.619 31.0964 201.604 31.162 201.577 31.2228C201.55 31.2836 201.511 31.3385 201.463 31.3841C201.415 31.4298 201.357 31.4653 201.295 31.4886C201.233 31.5119 201.166 31.5225 201.1 31.5198Z" fill="white"/>
<path d="M179.57 39.54C179.504 39.5375 179.44 39.522 179.38 39.4944C179.32 39.4669 179.267 39.4279 179.222 39.3796C179.178 39.3313 179.143 39.2746 179.12 39.213C179.098 39.1513 179.087 39.0857 179.09 39.02L179.24 35.12C179.3 33.6716 179.931 32.3059 180.996 31.3219C182.06 30.338 183.471 29.8159 184.92 29.87L195.42 30.29C195.487 30.2913 195.552 30.3059 195.613 30.3328C195.674 30.3598 195.729 30.3986 195.774 30.447C195.82 30.4955 195.855 30.5525 195.879 30.6149C195.902 30.6772 195.913 30.7435 195.91 30.81C195.907 30.8757 195.892 30.9402 195.864 30.9999C195.837 31.0596 195.798 31.1133 195.75 31.1579C195.701 31.2024 195.645 31.2371 195.583 31.2597C195.521 31.2824 195.456 31.2927 195.39 31.29L184.88 30.88C183.699 30.834 182.547 31.259 181.679 32.0616C180.811 32.8642 180.297 33.9786 180.25 35.16L180.1 39.06C180.092 39.1936 180.032 39.3187 179.933 39.4085C179.834 39.4983 179.704 39.5455 179.57 39.54Z" fill="white"/>
<path d="M170.71 104.76V102.39C170.667 100.459 171.007 98.5386 171.71 96.7398C172.594 94.8064 173.824 93.0509 175.34 91.5598C176.599 90.2927 177.67 88.8513 178.52 87.2798C179.031 86.0102 179.269 84.6474 179.22 83.2798C179.282 82.0098 178.931 80.7539 178.22 79.6998C177.841 79.2246 177.351 78.8501 176.793 78.6094C176.234 78.3688 175.626 78.2693 175.02 78.3198C172.268 78.4203 169.605 79.3241 167.36 80.9198L164.19 74.1698C167.638 71.786 171.738 70.5252 175.93 70.5598C179.643 70.5598 182.573 71.5864 184.72 73.6398C186.87 75.6998 187.94 78.5698 187.94 82.2298C188 84.458 187.623 86.6765 186.83 88.7598C185.661 91.1581 184.095 93.342 182.2 95.2198C181.078 96.3547 180.109 97.6324 179.32 99.0198C178.855 100.171 178.644 101.409 178.7 102.65V104.71L170.71 104.76ZM169.13 116C169.079 115.255 169.179 114.508 169.425 113.803C169.671 113.099 170.057 112.451 170.56 111.9C171.123 111.392 171.782 111.003 172.499 110.756C173.215 110.509 173.974 110.408 174.73 110.46C175.893 110.423 177.04 110.737 178.022 111.361C179.004 111.986 179.775 112.891 180.234 113.96C180.694 115.029 180.82 116.212 180.598 117.354C180.375 118.496 179.814 119.545 178.987 120.363C178.16 121.181 177.105 121.731 175.961 121.942C174.816 122.152 173.635 122.012 172.571 121.541C171.507 121.07 170.61 120.29 169.996 119.301C169.382 118.313 169.08 117.162 169.13 116Z" fill="#2E5985"/>
<path d="M89.74 386.55C89.74 386.55 88.97 390.87 88.6 395.14C88.5659 395.536 88.6123 395.934 88.7366 396.312C88.8609 396.689 89.0603 397.037 89.323 397.336C89.5856 397.634 89.9059 397.876 90.2646 398.046C90.6233 398.217 91.013 398.314 91.41 398.33C97.1 398.57 109.27 399.03 113.64 398.83C113.788 398.814 113.931 398.764 114.058 398.686C114.185 398.607 114.292 398.501 114.373 398.376C114.454 398.25 114.505 398.108 114.523 397.96C114.542 397.812 114.527 397.661 114.48 397.52C114.273 397.008 113.88 396.594 113.38 396.36L93.28 387.13L89.74 386.55Z" fill="#237EB0"/>
<path d="M89.11 384L89.72 389.16C89.72 389.16 93.24 390.8 95.65 388.95L94.19 383.2L89.11 384Z" fill="white"/>
<path d="M89.57 287C89.3099 288.35 88.1499 354.26 95.1999 383.79C95.2589 384.023 95.2317 384.27 95.1233 384.485C95.0149 384.7 94.8326 384.869 94.61 384.96C92.7754 385.668 90.8352 386.063 88.87 386.13C88.488 386.141 88.1131 386.026 87.8037 385.801C87.4944 385.577 87.268 385.257 87.16 384.89C85.16 378.03 75.4899 343.7 74.2399 310.89C72.8299 274.24 74.2399 309.64 74.2399 309.64L75.0599 287H89.57Z" fill="#237EB0"/>
<path d="M66.6199 388.8C66.6199 388.8 65.3999 390.98 64.2299 396.8C64.1781 397.046 64.1789 397.301 64.2322 397.547C64.2855 397.793 64.3901 398.025 64.5393 398.228C64.6884 398.431 64.8786 398.6 65.0976 398.725C65.3165 398.849 65.5593 398.926 65.8099 398.95C67.6899 399.14 70.5799 399.37 72.8899 399.36C73.1424 399.359 73.3919 399.304 73.622 399.2C73.8521 399.096 74.0578 398.945 74.2257 398.757C74.3936 398.568 74.5199 398.346 74.5964 398.105C74.6729 397.865 74.698 397.611 74.6699 397.36C74.3605 394.306 73.1294 391.418 71.1399 389.08L66.6199 388.8Z" fill="#237EB0"/>
<path d="M65.55 382.17L67 390C67 390 68.42 391 71.22 390.29L70.53 381.89L65.55 382.17Z" fill="white"/>
<path d="M61.69 289C55.92 323.78 62.94 374.95 65.3 385C65.3705 385.299 65.5277 385.57 65.7519 385.78C65.976 385.99 66.2571 386.129 66.56 386.18C68.0583 386.451 69.598 386.39 71.07 386C71.3522 385.91 71.5997 385.734 71.7787 385.498C71.9577 385.262 72.0594 384.976 72.07 384.68C72.39 376.59 71.81 326.88 77.18 307.23C77.4541 306.237 78.0614 305.368 78.9 304.77L89.33 297.36L90.12 285.36L61.69 289Z" fill="#237EB0"/>
<path d="M98.4 223.12C81.13 222.84 62.08 227.65 62.08 227.65C56.93 257.65 61.18 292.33 61.18 292.33C74.55 295.84 89.63 290.19 89.63 290.19C91.85 277.63 102.22 242.3 102.22 242.3C109.629 241.476 116.802 239.2 123.33 235.6C118.96 230.54 116.91 224.1 116.01 220.3C110.321 222.146 104.381 223.097 98.4 223.12Z" fill="#2CB6BF"/>
<path d="M149.41 197.69C148.974 197.115 148.362 196.698 147.667 196.503C146.971 196.308 146.232 196.346 145.56 196.61C143 207.34 129.7 216 116 220.3C116.9 224.1 118.95 230.54 123.32 235.6C146.05 222.83 149.41 197.69 149.41 197.69Z" fill="white"/>
<path d="M149 198.21C149.17 198.77 147.12 199.63 145.91 197.32C145.91 196.22 145.19 191.48 145.85 190.58C149.37 185.78 156.2 179.76 156.2 179.76C156.52 180.037 156.72 180.427 156.758 180.849C156.795 181.271 156.667 181.691 156.4 182.02L153.09 185.47C153.902 186.65 154.551 187.935 155.02 189.29C155.311 190.443 155.147 191.665 154.56 192.7C153.98 193.75 153.19 195.11 152.44 196.18C152.056 196.755 151.547 197.236 150.952 197.588C150.356 197.939 149.689 198.152 149 198.21Z" fill="white"/>
<path d="M151.64 187.71L148.64 190.26L147.69 192.81L150.38 195.81C150.38 195.81 151.28 190.81 151.96 189.67C152.64 188.53 152.27 188 151.64 187.71Z" fill="white"/>
<path d="M68.7 244.38L62.0801 227.65C62.0801 227.65 46 238.61 43.3 252.51C48.1643 252.856 52.917 254.132 57.3 256.27C58.51 249.71 68.7 244.38 68.7 244.38Z" fill="#2CB6BF"/>
<path d="M82.8 260.11C82.8 260.11 64.69 270.34 58.58 261.6C58.0146 260.846 57.6109 259.983 57.3941 259.066C57.1773 258.149 57.1521 257.197 57.32 256.27C52.937 254.132 48.1843 252.856 43.32 252.51C42.4219 257.001 43.1596 261.665 45.4 265.66C56.11 285.23 85.22 264.57 85.22 264.57L82.8 260.11Z" fill="white"/>
<path d="M80.6199 273.06L90.5099 238.54C90.5642 238.349 90.6741 238.179 90.8254 238.05C90.9768 237.922 91.1628 237.842 91.3599 237.82C93.1499 237.61 98.3599 237.02 104.36 236.51C111.57 235.9 119.95 235.41 124.96 235.83C125.125 235.84 125.285 235.891 125.426 235.979C125.567 236.066 125.683 236.187 125.766 236.331C125.848 236.475 125.893 236.637 125.898 236.802C125.902 236.968 125.865 237.132 125.79 237.28C122.94 243.05 111.23 266.48 105.36 274.16C105.266 274.285 105.143 274.387 105.003 274.456C104.862 274.526 104.707 274.561 104.55 274.56L81.6199 274.34C81.4614 274.346 81.3035 274.315 81.1595 274.248C81.0155 274.181 80.8894 274.081 80.7917 273.956C80.694 273.831 80.6274 273.685 80.5976 273.529C80.5677 273.373 80.5754 273.212 80.6199 273.06Z" fill="#237EB0"/>
<path d="M105.35 233.52L112.52 232.33C112.608 232.315 112.698 232.322 112.781 232.352C112.865 232.383 112.939 232.434 112.997 232.502C113.054 232.57 113.093 232.651 113.11 232.738C113.126 232.826 113.119 232.916 113.09 233L112.38 235.15C112.349 235.242 112.294 235.323 112.22 235.385C112.146 235.446 112.056 235.486 111.96 235.5L105.07 236.42C104.987 236.43 104.904 236.42 104.826 236.391C104.748 236.362 104.678 236.314 104.622 236.253C104.566 236.191 104.526 236.117 104.505 236.036C104.483 235.956 104.482 235.871 104.5 235.79L104.94 233.91C104.962 233.812 105.013 233.722 105.086 233.653C105.159 233.583 105.251 233.537 105.35 233.52Z" fill="#2CB6BF"/>
<path d="M100 239.59L100.59 236.51C100.619 236.361 100.695 236.226 100.806 236.123C100.918 236.021 101.059 235.957 101.21 235.94L115.69 234.47C115.803 234.461 115.916 234.479 116.021 234.521C116.126 234.564 116.219 234.631 116.293 234.717C116.368 234.803 116.42 234.905 116.448 235.015C116.475 235.125 116.476 235.24 116.45 235.35L115.53 239.18C115.492 239.329 115.407 239.461 115.289 239.558C115.17 239.656 115.023 239.712 114.87 239.72L100.73 240.43C100.623 240.437 100.515 240.419 100.416 240.377C100.316 240.336 100.228 240.272 100.157 240.191C100.087 240.109 100.036 240.013 100.008 239.909C99.9811 239.805 99.9783 239.696 100 239.59Z" fill="#2CB6BF"/>
<path d="M83 264.72C83 264.72 81.62 259.06 82.18 257.05C82.74 255.04 83.81 252.46 87.4 253.05C90.057 253.542 92.6716 254.241 95.22 255.14C95.2049 255.479 95.1061 255.81 94.9324 256.102C94.7587 256.394 94.5156 256.638 94.2245 256.813C93.9335 256.988 93.6037 257.089 93.2644 257.106C92.9251 257.123 92.587 257.055 92.28 256.91L94 258.2C94 258.2 93.75 260.29 91.45 259.2L93 260.91C92.8771 261.14 92.7062 261.34 92.4991 261.499C92.2919 261.657 92.0532 261.768 91.7991 261.826C91.545 261.884 91.2815 261.887 91.0263 261.834C90.7711 261.781 90.5302 261.674 90.32 261.52C88.63 260.42 87.82 265.4 83 264.72Z" fill="white"/>
<path d="M80.9101 209.1L75.42 225C75.3746 225.127 75.3758 225.266 75.4235 225.393C75.4711 225.519 75.562 225.625 75.6801 225.69C77.1801 226.52 82.5701 228.91 89.0701 224.79C89.4067 224.579 89.6931 224.297 89.909 223.964C90.125 223.63 90.2653 223.254 90.3201 222.86L92.09 209.11L80.9101 209.1Z" fill="white"/>
<path d="M92.87 194.39C92.87 194.39 98.87 205.75 98.13 210.33C97.39 214.91 89.88 214.59 83.35 210.87L78.78 198.6L92.87 194.39Z" fill="white"/>
<path d="M83.63 204.84C83.6931 204.814 83.7496 204.775 83.7956 204.725C83.8416 204.675 83.8759 204.615 83.896 204.55C83.9161 204.485 83.9215 204.416 83.9118 204.349C83.9021 204.281 83.8776 204.217 83.84 204.16C83.0928 203.067 82.5256 201.862 82.16 200.59C82.16 200.59 81.08 199.9 84.92 198.98C88.76 198.06 94.5 196.63 95.71 193.36C96.92 190.09 93.79 182.14 88.87 188.54C88.826 188.596 88.7699 188.641 88.7058 188.673C88.6417 188.704 88.5713 188.72 88.5 188.72C88.4287 188.72 88.3583 188.704 88.2942 188.673C88.2301 188.641 88.174 188.596 88.13 188.54C87.32 187.54 85.19 185.31 82.25 186.63C79.49 187.87 79.18 189.89 79.25 190.91C79.2533 190.981 79.2402 191.051 79.2118 191.116C79.1833 191.181 79.1404 191.238 79.0862 191.283C79.032 191.329 78.9681 191.361 78.8994 191.378C78.8307 191.395 78.759 191.395 78.69 191.38C77.4618 191.052 76.1573 191.166 75.0052 191.704C73.8532 192.242 72.9273 193.168 72.39 194.32C71.11 197.15 71.94 198.75 72.7 199.53C72.7569 199.588 72.7978 199.659 72.8189 199.737C72.84 199.816 72.8405 199.898 72.8204 199.976C72.8003 200.055 72.7602 200.127 72.7041 200.185C72.6479 200.244 72.5776 200.287 72.5 200.31C71.829 200.5 71.2526 200.933 70.8829 201.524C70.5133 202.116 70.3768 202.823 70.5 203.51C70.67 206.51 73.98 206.22 74.93 206.09C75.0061 206.078 75.084 206.084 75.1571 206.109C75.2302 206.133 75.2964 206.175 75.35 206.23C76.16 207.13 79.81 210.94 83.76 211.4C83.8394 211.408 83.9197 211.396 83.9932 211.365C84.0667 211.334 84.131 211.284 84.18 211.221C84.229 211.158 84.2612 211.084 84.2735 211.005C84.2857 210.926 84.2776 210.845 84.25 210.77L82.54 205.77C82.5004 205.658 82.5053 205.536 82.5537 205.428C82.6022 205.32 82.6904 205.235 82.8 205.19L83.63 204.84Z" fill="#237EB0"/>
<path d="M84.32 205.55C84.32 205.55 80.03 202.55 79.71 205.08C79.39 207.61 83.58 208.68 85.65 207.75L84.32 205.55Z" fill="white"/>
<path d="M288.76 202.22C288.823 202.101 288.92 202.004 289.039 201.941C289.158 201.878 289.294 201.852 289.428 201.867C289.562 201.882 289.688 201.937 289.79 202.025C289.892 202.113 289.965 202.23 290 202.36C290.61 204.53 292.07 208.36 295.14 209.68L295.58 209.89C295.662 209.655 295.688 209.404 295.655 209.157C295.622 208.911 295.531 208.675 295.39 208.47C294.44 207.01 296.16 205.02 296.16 205.02C296.267 206.122 296.785 207.143 297.61 207.88C298.238 208.491 298.662 209.281 298.825 210.141C298.988 211.002 298.881 211.892 298.52 212.69C296.86 219.15 294.37 227.69 304.07 233.92C313.77 240.15 327.41 222.15 327.41 222.15L320.64 243.63C320.64 243.63 310.18 251.35 298.01 240.5C285.84 229.65 293.91 213.85 293.91 213.85C293.91 213.85 284.63 210.11 288.76 202.22Z" fill="white"/>
<path d="M329.11 190.59C329.11 190.59 326.3 177.99 340.73 181.32C340.73 181.32 347.73 180.18 348.1 186.79C348.1 186.79 352.61 189.79 349.31 195.49C349.31 195.49 362.73 190.3 368.57 202.07C374.41 213.84 369 220.3 363.41 222C364.706 222.683 365.684 223.846 366.132 225.24C366.581 226.635 366.465 228.15 365.81 229.46C363.65 234.64 352.71 238.29 346.25 231.99C346.25 231.99 327.86 234.42 328.25 221.43C328.25 221.43 319.7 215.91 328.68 205.17C337.66 194.43 329.11 190.59 329.11 190.59Z" fill="#237EB0"/>
<path d="M328.32 219.79C331.22 218.92 339.66 217.31 347.69 224.73C348.366 225.351 348.858 226.146 349.112 227.028C349.366 227.91 349.372 228.845 349.13 229.73C346.97 237.67 341.28 261.14 346.27 271.29C346.27 271.29 337.47 280.98 327.88 273.17C327.88 273.17 323.58 254.41 317.94 246.17C314.04 240.49 324.14 224.82 326.7 221.04C327.077 220.446 327.65 220.004 328.32 219.79Z" fill="#2CB6BF"/>
<path d="M336.33 204C336.33 204 340.62 216.13 340.94 221.48C339.413 222.08 337.753 222.259 336.133 221.999C334.513 221.738 332.992 221.048 331.73 220C331.73 220 331.26 207.88 330.59 205.72L336.33 204Z" fill="white"/>
<path d="M330.37 187.47C330.37 187.47 319.15 203.17 325.86 207.73C332.57 212.29 340.55 201.13 340.55 201.13C340.55 201.13 343.15 192.54 340.43 189.63C337.71 186.72 330.37 187.47 330.37 187.47Z" fill="white"/>
<path d="M335.56 183.72C335.56 183.72 330.41 184.94 329.69 187.27C328.97 189.6 336.99 191.77 339.24 191.87L341.06 201.28C341.06 201.28 346.42 192.43 344.29 187.28C342.16 182.13 335.56 183.72 335.56 183.72Z" fill="#237EB0"/>
<path d="M338.37 200C338.37 200 342.74 194.94 344.48 198.24C346.22 201.54 340.55 204.01 338.58 202.39L338.37 200Z" fill="white"/>
<path d="M316.68 312.51C316.68 313.36 315.22 320.12 314.4 323.72C314.061 325.171 314.275 326.697 315 328L343.19 375.44C343.531 376.011 343.78 376.632 343.93 377.28C344.919 381.419 345.257 385.687 344.93 389.93L343.47 392.93L349.77 391.49L351.15 374.56L349.36 373.47C347.82 372.535 346.619 371.134 345.93 369.47C343.38 363.28 337.05 347.53 335.42 339.85C333.64 331.11 324 324 324 324L325.7 320L316.68 312.51Z" fill="white"/>
<path d="M356.85 385.68C356.85 385.68 353.45 380.28 353.05 378.18C352.65 376.08 351.53 372.36 349.43 373.48C349.43 373.48 348.43 383.69 348.78 387.68C349.13 391.67 344.27 391.54 344.27 391.54C343.403 391.697 342.6 392.104 341.96 392.71C341.814 392.868 341.716 393.064 341.677 393.275C341.638 393.487 341.66 393.705 341.739 393.904C341.818 394.104 341.953 394.277 342.126 394.404C342.3 394.53 342.506 394.605 342.72 394.62C344.978 394.768 347.245 394.637 349.47 394.23C349.921 394.146 350.33 393.913 350.633 393.568C350.936 393.224 351.114 392.788 351.14 392.33L351.84 380.58L356.14 386L356.85 385.68Z" fill="#237EB0"/>
<path d="M333.52 320.07C333.52 320.07 334.52 362.5 334.65 368.53C334.78 374.56 333.65 387.91 327.65 391.9L330.28 393.9C332.84 391.514 335.031 388.761 336.78 385.73C340.38 379.73 341.47 378.59 341.47 378.59L340.28 376.14C339.752 375.068 339.598 373.85 339.84 372.68C341.14 366.37 345.5 345.35 346.69 340.82C348.09 335.48 348.19 328.35 343.31 322.37C338.43 316.39 333.52 320.07 333.52 320.07Z" fill="white"/>
<path d="M339.1 395.76C339.189 395.759 339.276 395.726 339.343 395.667C339.411 395.609 339.456 395.528 339.47 395.44C339.67 394.03 340.47 388.35 341.19 386.89C341.98 385.2 344.54 378.13 341.19 377.52C341.19 377.52 332.87 389.69 331.27 391.33C330.802 391.792 330.201 392.096 329.552 392.198C328.902 392.3 328.237 392.196 327.65 391.9C326.567 392.291 325.619 392.985 324.92 393.9C324.795 394.063 324.718 394.257 324.698 394.461C324.677 394.665 324.715 394.871 324.805 395.055C324.896 395.239 325.036 395.395 325.21 395.503C325.384 395.612 325.585 395.67 325.79 395.67L331.4 395.72C332.195 395.728 332.974 395.496 333.634 395.053C334.294 394.61 334.805 393.978 335.1 393.24C336.1 390.77 337.78 387.16 339.76 385.55L338.76 395.39C338.762 395.483 338.798 395.571 338.86 395.639C338.923 395.707 339.008 395.75 339.1 395.76Z" fill="#237EB0"/>
<path d="M326.55 268.55C326.55 268.55 327.82 272.55 325.88 279.21L313.83 321.26C313.74 321.578 313.775 321.919 313.927 322.212C314.08 322.506 314.338 322.73 314.65 322.84C324.822 326.214 335.567 327.516 346.25 326.67C346.646 326.647 347.024 326.497 347.327 326.241C347.63 325.984 347.842 325.637 347.93 325.25C348.99 320.45 352.63 304.1 353.38 300.73C356.23 287.93 359.38 274.12 345.38 265.73C339 268.53 332.93 270.16 326.55 268.55Z" fill="#237EB0"/>
<path d="M348.84 226.31C348.84 226.31 362.54 237.7 365.94 253.26C369.34 268.82 345.94 270.47 345.94 270.47C345.94 270.47 342.76 266.92 338.99 268.18C335.22 269.44 338.7 261.99 343.11 262.01C347.52 262.03 345.48 265.52 351.73 262.69C357.82 259.93 361.58 251.41 346.05 238.48C345.162 237.73 344.475 236.771 344.05 235.69C341 228.1 343.36 223.12 348.84 226.31Z" fill="white"/>
</g>
<defs>
<clipPath id="clip0_87_4946">
<rect width="401.13" height="399.33" fill="white"/>
</clipPath>
</defs>
</svg>
