<svg width="381" height="174" viewBox="0 0 381 174" fill="none" xmlns="http://www.w3.org/2000/svg">
<g clip-path="url(#clip0_139_3)">
<path d="M142.569 158.648V83.9027C142.57 82.8481 142.361 81.8038 141.956 80.8292C141.55 79.8546 140.955 78.9688 140.204 78.2226C139.454 77.4763 138.563 76.8841 137.582 76.4798C136.601 76.0754 135.549 75.8669 134.487 75.8661M142.569 158.648L142.369 158.647M142.569 158.648C142.567 160.775 141.715 162.815 140.2 164.32C138.685 165.824 136.63 166.67 134.487 166.672M142.569 158.648H142.369V158.647M142.369 158.647V83.9027V83.9025C142.37 82.8745 142.166 81.8562 141.771 80.906C141.375 79.9558 140.795 79.0921 140.063 78.3644C139.331 77.6366 138.462 77.0591 137.505 76.6647C136.549 76.2703 135.523 76.0669 134.487 76.0661M142.369 158.647C142.367 160.722 141.537 162.711 140.059 164.178C138.581 165.645 136.577 166.47 134.487 166.472M134.487 76.0661H134.487V75.8661M134.487 76.0661C134.487 76.0661 134.487 76.0661 134.487 76.0661L134.487 75.8661M134.487 76.0661H23.5132M134.487 75.8661H23.5131M23.5131 75.8661L23.5134 76.0661C23.5133 76.0661 23.5133 76.0661 23.5132 76.0661M23.5131 75.8661C21.3691 75.8694 19.3141 76.7178 17.7998 78.2248C16.2856 79.7318 15.4359 81.774 15.4376 83.9027V158.648M23.5131 75.8661V76.0661H23.5132M23.5132 76.0661C21.4218 76.0694 19.4176 76.897 17.9409 78.3666C16.4643 79.8361 15.636 81.8274 15.6376 83.9025L15.6376 83.9027L15.6376 158.647M15.6376 158.647L15.4376 158.648M15.6376 158.647L15.6376 158.648H15.4376M15.6376 158.647C15.6393 160.72 16.469 162.709 17.9453 164.175C19.4217 165.642 21.4241 166.468 23.5134 166.472M15.4376 158.648C15.4393 160.774 16.2905 162.813 17.8043 164.317C19.3182 165.822 21.3713 166.668 23.5131 166.672M23.5131 166.672V166.472H23.5134M23.5131 166.672L23.5134 166.472M23.5131 166.672H134.487M23.5134 166.472H134.487M134.487 166.672L134.487 166.472M134.487 166.672V166.472H134.487M23.1795 83.8937L23.1793 83.8937V83.9027V158.629C23.1793 158.717 23.2148 158.802 23.2776 158.864C23.3403 158.927 23.425 158.961 23.5131 158.961H134.487C134.575 158.961 134.66 158.927 134.722 158.864C134.785 158.802 134.821 158.717 134.821 158.629V83.9027C134.821 83.814 134.785 83.7292 134.722 83.6669L134.582 83.8081L134.722 83.6669C134.66 83.6046 134.575 83.5699 134.487 83.5699H23.5131V83.5697L23.5043 83.5701C23.4198 83.5738 23.3395 83.6088 23.2793 83.6686L23.4202 83.8104L23.2793 83.6686C23.2191 83.7284 23.1834 83.8087 23.1795 83.8937Z" fill="#2CB6BF" stroke="white" stroke-width="0.4"/>
<path d="M134.421 83.9699V158.58H23.5793V83.9699H134.421Z" fill="white" stroke="white" stroke-width="0.4"/>
<path d="M0.20247 166.872H157.817C157.794 167.743 157.611 168.604 157.274 169.411C156.914 170.273 156.387 171.057 155.722 171.717C155.057 172.377 154.267 172.901 153.398 173.259C152.529 173.616 151.598 173.8 150.657 173.8H7.36233C6.42023 173.799 5.48755 173.614 4.61762 173.255C3.7477 172.896 2.95763 172.371 2.29253 171.709C1.62743 171.047 1.10034 170.261 0.741321 169.397C0.407882 168.594 0.225467 167.738 0.20247 166.872Z" fill="#2CB6BF" stroke="white" stroke-width="0.4"/>
<path d="M70.5329 170.434H87.4735C88.5057 170.434 89.5007 170.051 90.2639 169.361C90.9773 168.716 91.4403 167.846 91.5767 166.902L70.5329 170.434ZM70.5329 170.434C69.5003 170.435 68.5045 170.053 67.741 169.363C67.0272 168.718 66.5646 167.847 66.4295 166.902L70.5329 170.434ZM91.3774 166.882C91.2461 167.777 90.8064 168.601 90.1298 169.213C89.4035 169.869 88.4563 170.234 87.4735 170.234C87.4735 170.234 87.4735 170.234 87.4735 170.234H70.5329L70.5326 170.234C69.5495 170.235 68.6017 169.871 67.8751 169.214C67.1981 168.603 66.7588 167.777 66.6287 166.882L66.9378 166.852C67.06 167.672 67.4636 168.428 68.0833 168.99C68.753 169.596 69.6268 169.932 70.5329 169.932C70.5329 169.932 70.5329 169.932 70.533 169.932H87.4735L87.4738 169.932C88.3793 169.931 89.2522 169.594 89.9215 168.988C90.541 168.427 90.9449 167.672 91.0683 166.852L91.3774 166.882ZM66.406 166.703L66.41 166.744C66.4086 166.73 66.4072 166.717 66.406 166.703Z" fill="white" stroke="white" stroke-width="0.4"/>
<path d="M23.5793 166.819V166.517H134.421V166.819H23.5793Z" fill="white" stroke="white" stroke-width="0.4"/>
<path d="M35.7435 158.58V129.041H122.263V158.58H35.7435Z" fill="#227EB0" stroke="white" stroke-width="0.4"/>
<path d="M39.3991 128.641V124.387H118.601V128.641H39.3991Z" fill="#2E5985" stroke="white" stroke-width="0.4"/>
<path d="M49.38 144.351C49.38 145.49 48.4501 146.415 47.3 146.415C46.1499 146.415 45.22 145.49 45.22 144.351C45.22 143.213 46.1499 142.288 47.3 142.288C48.4501 142.288 49.38 143.213 49.38 144.351Z" fill="white" stroke="white" stroke-width="0.4"/>
<path d="M57.9036 146.769C57.4214 146.769 56.9502 146.627 56.5496 146.361C56.1488 146.095 55.8367 145.718 55.6525 145.276C55.4683 144.834 55.4201 144.348 55.514 143.88C55.6079 143.411 55.8397 142.98 56.1804 142.642C56.5211 142.304 56.9553 142.073 57.4282 141.98C57.9011 141.887 58.3913 141.934 58.8368 142.118C59.2822 142.301 59.6626 142.611 59.9302 143.009C60.1977 143.406 60.3404 143.873 60.3405 144.351C60.3389 144.991 60.0819 145.605 59.6254 146.058C59.1689 146.512 58.5498 146.767 57.9036 146.769ZM57.9038 142.242C57.4867 142.242 57.0788 142.364 56.7318 142.595C56.3847 142.825 56.114 143.152 55.9541 143.536C55.7942 143.919 55.7523 144.341 55.8338 144.748C55.9154 145.155 56.1167 145.529 56.4119 145.822C56.7072 146.115 57.0832 146.314 57.4924 146.395C57.9015 146.476 58.3256 146.435 58.7111 146.276C59.0966 146.117 59.4263 145.849 59.6584 145.504C59.8905 145.159 60.0144 144.754 60.0144 144.339C60.0144 143.782 59.7917 143.248 59.3957 142.855C58.9998 142.462 58.4631 142.242 57.9038 142.242Z" fill="#2E5985" stroke="white" stroke-width="0.4"/>
<path d="M78.3001 138.932V139.132H78.5001H114.305H114.505V138.932V136.567V136.367H114.305H78.5001H78.3001V136.567V138.932ZM114.818 139.44H77.9931V136.047H114.818V139.44Z" fill="#2E5985" stroke="white" stroke-width="0.4"/>
<path d="M78.3001 145.534V145.734H78.5001H114.305H114.505V145.534V143.175V142.975H114.305H78.5001H78.3001V143.175V145.534ZM114.818 146.035H77.9931V142.642H114.818V146.035Z" fill="#2E5985" stroke="white" stroke-width="0.4"/>
<path d="M78.3001 152.129V152.329H78.5001H114.305H114.505V152.129V149.77V149.57H114.305H78.5001H78.3001V149.77V152.129ZM114.818 152.637H77.9931V149.243H114.818V152.637Z" fill="#2E5985" stroke="white" stroke-width="0.4"/>
<path d="M35.7435 123.987V94.4472H122.263V123.987H35.7435Z" fill="#227EB0" stroke="white" stroke-width="0.4"/>
<path d="M39.3991 94.0472V89.7935H118.601V94.0472H39.3991Z" fill="#2E5985" stroke="white" stroke-width="0.4"/>
<path d="M49.38 109.758C49.38 110.896 48.4501 111.821 47.3 111.821C46.1499 111.821 45.22 110.896 45.22 109.758C45.22 108.619 46.1499 107.694 47.3 107.694C48.4501 107.694 49.38 108.619 49.38 109.758Z" fill="white" stroke="white" stroke-width="0.4"/>
<path d="M57.9036 112.175C57.4214 112.175 56.9502 112.033 56.5496 111.768C56.1488 111.502 55.8367 111.124 55.6525 110.682C55.4683 110.241 55.4201 109.755 55.514 109.286C55.6079 108.818 55.8397 108.387 56.1804 108.049C56.521 107.71 56.9553 107.48 57.4282 107.386C57.9011 107.293 58.3913 107.341 58.8368 107.524C59.2822 107.707 59.6626 108.017 59.9302 108.415C60.1977 108.813 60.3404 109.28 60.3405 109.757C60.3389 110.398 60.0819 111.012 59.6254 111.465C59.1689 111.918 58.5498 112.174 57.9036 112.175ZM57.9038 107.648C57.4867 107.648 57.0788 107.771 56.7318 108.001C56.3847 108.231 56.114 108.559 55.9541 108.942C55.7942 109.325 55.7523 109.747 55.8338 110.154C55.9154 110.561 56.1167 110.935 56.4119 111.228C56.7072 111.521 57.0832 111.721 57.4924 111.802C57.9015 111.883 58.3256 111.841 58.7111 111.683C59.0966 111.524 59.4263 111.255 59.6584 110.911C59.8905 110.566 60.0144 110.16 60.0144 109.745C60.0144 109.188 59.7917 108.655 59.3957 108.262C58.9998 107.869 58.4631 107.648 57.9038 107.648Z" fill="#2E5985" stroke="white" stroke-width="0.4"/>
<path d="M78.3001 104.32V104.52H78.5001H114.305H114.505V104.32V101.98V101.78H114.305H78.5001H78.3001V101.98V104.32ZM114.818 104.847H77.9931V101.453H114.818V104.847Z" fill="#2E5985" stroke="white" stroke-width="0.4"/>
<path d="M78.3001 110.94V111.14H78.5001H114.305H114.505V110.94V108.582V108.382H114.305H78.5001H78.3001V108.582V110.94ZM114.818 111.442H77.9931V108.048H114.818V111.442Z" fill="#2E5985" stroke="white" stroke-width="0.4"/>
<path d="M78.3001 117.535V117.735H78.5001H114.305H114.505V117.535V115.177V114.977H114.305H78.5001H78.3001V115.177V117.535ZM114.818 118.031H77.9931V114.637H114.818V118.031Z" fill="#2E5985" stroke="white" stroke-width="0.4"/>
<path d="M35.7435 89.3935V59.8538H122.263V89.3935H35.7435Z" fill="#227EB0" stroke="white" stroke-width="0.4"/>
<path d="M39.3991 59.4538V55.2H118.601V59.4538H39.3991Z" fill="#2E5985" stroke="white" stroke-width="0.4"/>
<path d="M49.38 75.1642C49.38 75.5721 49.2582 75.9709 49.0298 76.3102C48.8014 76.6495 48.4767 76.9142 48.0965 77.0706C47.7162 77.227 47.2977 77.2679 46.894 77.1882C46.4902 77.1084 46.1195 76.9117 45.8287 76.6229C45.538 76.3342 45.3401 75.9666 45.2599 75.5666C45.1798 75.1665 45.2209 74.7519 45.3782 74.375C45.5354 73.9981 45.8018 73.6757 46.1439 73.4487C46.486 73.2218 46.8883 73.1006 47.3 73.1006C47.8521 73.1006 48.3813 73.3183 48.7713 73.7055C49.1612 74.0926 49.38 74.6174 49.38 75.1642Z" fill="white" stroke="white" stroke-width="0.4"/>
<path d="M58.1038 73.0641V73.0357H57.9038C57.4867 73.0357 57.0789 73.1585 56.7318 73.3887C56.3847 73.619 56.114 73.9464 55.9541 74.3297C55.7942 74.713 55.7523 75.1349 55.8338 75.542C55.9154 75.949 56.1167 76.3227 56.4119 76.6159C56.7072 76.909 57.0832 77.1085 57.4924 77.1893C57.9015 77.2701 58.3256 77.2286 58.7111 77.0701C59.0966 76.9116 59.4263 76.643 59.6584 76.2982C59.8905 75.9533 60.0144 75.5477 60.0144 75.1326L60.0144 75.1306C60.0089 74.5777 59.7837 74.0495 59.3883 73.6609C59.0407 73.3192 58.5863 73.1097 58.1038 73.0641ZM57.9036 77.563C57.4214 77.563 56.9502 77.421 56.5496 77.1552C56.1488 76.8894 55.8367 76.5117 55.6525 76.07C55.4683 75.6284 55.4201 75.1426 55.514 74.6739C55.6079 74.2051 55.8397 73.7744 56.1804 73.4362C56.521 73.0979 56.9553 72.8674 57.4282 72.774C57.9011 72.6806 58.3913 72.7286 58.8368 72.9118C59.2822 73.0949 59.6626 73.405 59.9302 73.8026C60.1977 74.2001 60.3404 74.6672 60.3405 75.145C60.3389 75.7853 60.0819 76.3993 59.6254 76.8525C59.1689 77.3058 58.5498 77.5614 57.9036 77.563Z" fill="#2E5985" stroke="white" stroke-width="0.4"/>
<path d="M78.3001 69.7454V69.9454H78.5001H114.305H114.505V69.7454V67.3869V67.1869H114.305H78.5001H78.3001V67.3869V69.7454ZM114.818 70.2536H77.9931V66.8597H114.818V70.2536Z" fill="#2E5985" stroke="white" stroke-width="0.4"/>
<path d="M78.3001 76.3466V76.5466H78.5001H114.305H114.505V76.3466V73.9692V73.7692H114.305H78.5001H78.3001V73.9692V76.3466ZM114.818 76.8485H77.9931V73.4547H114.818V76.8485Z" fill="#2E5985" stroke="white" stroke-width="0.4"/>
<path d="M78.3001 82.9416V83.1416H78.5001H114.305H114.505V82.9416V80.5831V80.3831H114.305H78.5001H78.3001V80.5831V82.9416ZM114.818 83.4498H77.9931V80.056H114.818V83.4498Z" fill="#2E5985" stroke="white" stroke-width="0.4"/>
</g>
<rect width="158" height="35" fill="#2CB6BF"/>
<path d="M25.006 21.168C23.5687 21.168 22.3647 20.692 21.394 19.74C20.4327 18.788 19.952 17.5747 19.952 16.1C19.952 14.6347 20.4327 13.426 21.394 12.474C22.3553 11.5127 23.5593 11.032 25.006 11.032C26.0607 11.032 26.9707 11.27 27.736 11.746V12.908C26.9147 12.3667 26.0093 12.096 25.02 12.096C23.9187 12.096 22.99 12.4787 22.234 13.244C21.4873 14 21.114 14.952 21.114 16.1C21.114 17.2667 21.4873 18.228 22.234 18.984C22.99 19.7307 23.9327 20.104 25.062 20.104C26.182 20.104 27.1433 19.7867 27.946 19.152V20.314C27.1527 20.8833 26.1727 21.168 25.006 21.168ZM33.0623 21.168C32.0077 21.168 31.121 20.8367 30.4023 20.174C29.6837 19.502 29.3243 18.648 29.3243 17.612C29.3243 16.5853 29.6417 15.736 30.2763 15.064C30.9203 14.3827 31.7557 14.042 32.7823 14.042C33.3143 14.042 33.7903 14.154 34.2103 14.378C34.6397 14.5927 34.9757 14.8773 35.2183 15.232C35.461 15.5867 35.643 15.9647 35.7643 16.366C35.895 16.7673 35.9603 17.1733 35.9603 17.584V17.892H30.4583C30.533 18.592 30.8223 19.1473 31.3263 19.558C31.8397 19.9687 32.493 20.174 33.2863 20.174C34.0703 20.174 34.7983 19.964 35.4703 19.544V20.524C34.901 20.9533 34.0983 21.168 33.0623 21.168ZM30.4723 16.996H34.8403C34.8123 16.5013 34.621 16.0533 34.2663 15.652C33.921 15.2413 33.4077 15.036 32.7263 15.036C32.073 15.036 31.541 15.232 31.1303 15.624C30.729 16.0067 30.5097 16.464 30.4723 16.996ZM39.3562 23.8H38.2362V14.21H39.3562V15.26C39.9816 14.448 40.8402 14.042 41.9322 14.042C42.9216 14.042 43.7336 14.392 44.3682 15.092C45.0029 15.7827 45.3202 16.618 45.3202 17.598C45.3202 18.5873 45.0029 19.432 44.3682 20.132C43.7336 20.8227 42.9216 21.168 41.9322 21.168C40.8216 21.168 39.9629 20.762 39.3562 19.95V23.8ZM39.3562 16.506V18.718C39.5522 19.1473 39.8556 19.4973 40.2662 19.768C40.6769 20.0387 41.1436 20.174 41.6662 20.174C42.3942 20.174 42.9962 19.9267 43.4722 19.432C43.9482 18.9373 44.1862 18.326 44.1862 17.598C44.1862 16.87 43.9482 16.2633 43.4722 15.778C42.9962 15.2833 42.3942 15.036 41.6662 15.036C41.1716 15.036 40.7096 15.176 40.2802 15.456C39.8602 15.736 39.5522 16.086 39.3562 16.506ZM47.5604 21V14.21H51.1584C51.8304 14.21 52.3438 14.3687 52.6984 14.686C53.0531 15.0033 53.2304 15.4233 53.2304 15.946C53.2304 16.674 52.9458 17.1687 52.3764 17.43C53.2444 17.6913 53.6784 18.27 53.6784 19.166C53.6784 19.7353 53.4824 20.1833 53.0904 20.51C52.6984 20.8367 52.1338 21 51.3964 21H47.5604ZM48.6804 20.048H51.1724C52.0964 20.048 52.5584 19.7073 52.5584 19.026C52.5584 18.326 52.0964 17.976 51.1724 17.976H48.6804V20.048ZM48.6804 17.066H50.8644C51.2658 17.066 51.5784 16.9867 51.8024 16.828C52.0264 16.66 52.1384 16.422 52.1384 16.114C52.1384 15.4793 51.7138 15.162 50.8644 15.162H48.6804V17.066ZM58.9022 21.168C57.8475 21.168 56.9609 20.8367 56.2422 20.174C55.5235 19.502 55.1642 18.648 55.1642 17.612C55.1642 16.5853 55.4815 15.736 56.1162 15.064C56.7602 14.3827 57.5955 14.042 58.6222 14.042C59.1542 14.042 59.6302 14.154 60.0502 14.378C60.4795 14.5927 60.8155 14.8773 61.0582 15.232C61.3009 15.5867 61.4829 15.9647 61.6042 16.366C61.7349 16.7673 61.8002 17.1733 61.8002 17.584V17.892H56.2982C56.3729 18.592 56.6622 19.1473 57.1662 19.558C57.6795 19.9687 58.3329 20.174 59.1262 20.174C59.9102 20.174 60.6382 19.964 61.3102 19.544V20.524C60.7409 20.9533 59.9382 21.168 58.9022 21.168ZM56.3122 16.996H60.6802C60.6522 16.5013 60.4609 16.0533 60.1062 15.652C59.7609 15.2413 59.2475 15.036 58.5662 15.036C57.9129 15.036 57.3809 15.232 56.9702 15.624C56.5689 16.0067 56.3495 16.464 56.3122 16.996ZM65.1961 23.8H64.0761V14.21H65.1961V15.26C65.8214 14.448 66.6801 14.042 67.7721 14.042C68.7614 14.042 69.5734 14.392 70.2081 15.092C70.8427 15.7827 71.1601 16.618 71.1601 17.598C71.1601 18.5873 70.8427 19.432 70.2081 20.132C69.5734 20.8227 68.7614 21.168 67.7721 21.168C66.6614 21.168 65.8027 20.762 65.1961 19.95V23.8ZM65.1961 16.506V18.718C65.3921 19.1473 65.6954 19.4973 66.1061 19.768C66.5167 20.0387 66.9834 20.174 67.5061 20.174C68.2341 20.174 68.8361 19.9267 69.3121 19.432C69.7881 18.9373 70.0261 18.326 70.0261 17.598C70.0261 16.87 69.7881 16.2633 69.3121 15.778C68.8361 15.2833 68.2341 15.036 67.5061 15.036C67.0114 15.036 66.5494 15.176 66.1201 15.456C65.7001 15.736 65.3921 16.086 65.1961 16.506ZM78.6309 21V12.236H75.2849V11.2H83.1529V12.236H79.7789V21H78.6309ZM85.3094 12.488C86.252 11.5173 87.428 11.032 88.8374 11.032C90.2467 11.032 91.4227 11.5173 92.3654 12.488C93.3174 13.4493 93.7934 14.6533 93.7934 16.1C93.7934 17.5467 93.3174 18.7553 92.3654 19.726C91.4227 20.6873 90.2467 21.168 88.8374 21.168C87.428 21.168 86.252 20.6873 85.3094 19.726C84.3667 18.7553 83.8954 17.5467 83.8954 16.1C83.8954 14.6533 84.3667 13.4493 85.3094 12.488ZM88.8374 20.104C89.9107 20.104 90.8114 19.7213 91.5394 18.956C92.2674 18.1907 92.6314 17.2387 92.6314 16.1C92.6314 14.9613 92.2674 14.0093 91.5394 13.244C90.8114 12.4787 89.9107 12.096 88.8374 12.096C87.7734 12.096 86.8774 12.4787 86.1494 13.244C85.4214 14.0093 85.0574 14.9613 85.0574 16.1C85.0574 17.2387 85.4214 18.1907 86.1494 18.956C86.8774 19.7213 87.7734 20.104 88.8374 20.104ZM97.1219 12.488C98.0645 11.5173 99.2405 11.032 100.65 11.032C102.059 11.032 103.235 11.5173 104.178 12.488C105.13 13.4493 105.606 14.6533 105.606 16.1C105.606 17.5467 105.13 18.7553 104.178 19.726C103.235 20.6873 102.059 21.168 100.65 21.168C99.2405 21.168 98.0645 20.6873 97.1219 19.726C96.1792 18.7553 95.7079 17.5467 95.7079 16.1C95.7079 14.6533 96.1792 13.4493 97.1219 12.488ZM100.65 20.104C101.723 20.104 102.624 19.7213 103.352 18.956C104.08 18.1907 104.444 17.2387 104.444 16.1C104.444 14.9613 104.08 14.0093 103.352 13.244C102.624 12.4787 101.723 12.096 100.65 12.096C99.5859 12.096 98.6899 12.4787 97.9619 13.244C97.2339 14.0093 96.8699 14.9613 96.8699 16.1C96.8699 17.2387 97.2339 18.1907 97.9619 18.956C98.6899 19.7213 99.5859 20.104 100.65 20.104ZM107.926 21V11.2H109.06V19.964H114.478V21H107.926ZM119.234 21.168C117.768 21.168 116.555 20.8227 115.594 20.132V18.872C115.967 19.1987 116.48 19.488 117.134 19.74C117.796 19.9827 118.473 20.104 119.164 20.104C119.91 20.104 120.526 19.9453 121.012 19.628C121.497 19.3107 121.74 18.8813 121.74 18.34C121.74 18.1067 121.688 17.9013 121.586 17.724C121.492 17.5373 121.38 17.3833 121.25 17.262C121.128 17.1407 120.928 17.024 120.648 16.912C120.377 16.7907 120.139 16.6973 119.934 16.632C119.738 16.5667 119.439 16.478 119.038 16.366C118.496 16.2167 118.067 16.086 117.75 15.974C117.432 15.8527 117.101 15.6893 116.756 15.484C116.42 15.2693 116.172 15.008 116.014 14.7C115.855 14.392 115.776 14.0233 115.776 13.594C115.776 12.8473 116.079 12.236 116.686 11.76C117.292 11.2747 118.132 11.032 119.206 11.032C120.382 11.032 121.404 11.3027 122.272 11.844V13.006C121.31 12.3993 120.298 12.096 119.234 12.096C118.468 12.096 117.894 12.2407 117.512 12.53C117.129 12.8193 116.938 13.1833 116.938 13.622C116.938 13.7433 116.952 13.86 116.98 13.972C117.008 14.0747 117.054 14.1727 117.12 14.266C117.194 14.35 117.26 14.4247 117.316 14.49C117.372 14.5553 117.47 14.6253 117.61 14.7C117.75 14.7653 117.857 14.8213 117.932 14.868C118.006 14.9053 118.137 14.9567 118.324 15.022C118.52 15.078 118.655 15.12 118.73 15.148C118.814 15.1667 118.968 15.2087 119.192 15.274C119.425 15.3393 119.579 15.3813 119.654 15.4C120.055 15.5213 120.372 15.6287 120.606 15.722C120.848 15.806 121.133 15.932 121.46 16.1C121.786 16.268 122.038 16.4453 122.216 16.632C122.402 16.8187 122.561 17.0613 122.692 17.36C122.832 17.6493 122.902 17.9713 122.902 18.326C122.902 19.2127 122.547 19.908 121.838 20.412C121.138 20.916 120.27 21.168 119.234 21.168ZM125.043 21V14.21H126.149V21H125.043ZM125.057 12.46C124.917 12.3107 124.847 12.1287 124.847 11.914C124.847 11.6993 124.917 11.522 125.057 11.382C125.206 11.2327 125.388 11.158 125.603 11.158C125.817 11.158 125.995 11.2327 126.135 11.382C126.284 11.522 126.359 11.6993 126.359 11.914C126.359 12.1287 126.284 12.3107 126.135 12.46C125.995 12.6 125.817 12.67 125.603 12.67C125.388 12.67 125.206 12.6 125.057 12.46ZM128.844 21V11.2H132.092C133.67 11.2 134.948 11.6527 135.928 12.558C136.918 13.4633 137.412 14.644 137.412 16.1C137.412 17.556 136.918 18.7367 135.928 19.642C134.948 20.5473 133.67 21 132.092 21H128.844ZM129.978 19.964H131.966C133.292 19.964 134.337 19.6187 135.102 18.928C135.868 18.228 136.25 17.2853 136.25 16.1C136.25 14.9147 135.868 13.9767 135.102 13.286C134.337 12.586 133.292 12.236 131.966 12.236H129.978V19.964Z" fill="white"/>
<g clip-path="url(#clip1_139_3)">
<path d="M365.569 158.648V83.9027C365.57 82.8481 365.361 81.8038 364.956 80.8292C364.55 79.8546 363.955 78.9688 363.204 78.2226C362.454 77.4763 361.563 76.8841 360.582 76.4798C359.601 76.0754 358.549 75.8669 357.487 75.8661M365.569 158.648L365.369 158.647M365.569 158.648C365.567 160.775 364.715 162.815 363.2 164.32C361.685 165.824 359.63 166.67 357.487 166.672M365.569 158.648H365.369V158.647M365.369 158.647V83.9027V83.9025C365.37 82.8745 365.166 81.8562 364.771 80.906C364.375 79.9558 363.795 79.0921 363.063 78.3644C362.331 77.6366 361.462 77.0591 360.505 76.6647C359.549 76.2703 358.523 76.0669 357.487 76.0661M365.369 158.647C365.367 160.722 364.537 162.711 363.059 164.178C361.581 165.645 359.577 166.47 357.487 166.472M357.487 76.0661H357.487V75.8661M357.487 76.0661C357.487 76.0661 357.487 76.0661 357.487 76.0661L357.487 75.8661M357.487 76.0661H246.513M357.487 75.8661H246.513M246.513 75.8661L246.513 76.0661C246.513 76.0661 246.513 76.0661 246.513 76.0661M246.513 75.8661C244.369 75.8694 242.314 76.7178 240.8 78.2248C239.286 79.7318 238.436 81.774 238.438 83.9027V158.648M246.513 75.8661V76.0661H246.513M246.513 76.0661C244.422 76.0694 242.418 76.897 240.941 78.3666C239.464 79.8361 238.636 81.8274 238.638 83.9025L238.638 83.9027L238.638 158.647M238.638 158.647L238.438 158.648M238.638 158.647L238.638 158.648H238.438M238.638 158.647C238.639 160.72 239.469 162.709 240.945 164.175C242.422 165.642 244.424 166.468 246.513 166.472M238.438 158.648C238.439 160.774 239.29 162.813 240.804 164.317C242.318 165.822 244.371 166.668 246.513 166.672M246.513 166.672V166.472H246.513M246.513 166.672L246.513 166.472M246.513 166.672H357.487M246.513 166.472H357.487M357.487 166.672L357.487 166.472M357.487 166.672V166.472H357.487M246.18 83.8937L246.179 83.8937V83.9027V158.629C246.179 158.717 246.215 158.802 246.278 158.864C246.34 158.927 246.425 158.961 246.513 158.961H357.487C357.575 158.961 357.66 158.927 357.722 158.864C357.785 158.802 357.821 158.717 357.821 158.629V83.9027C357.821 83.814 357.785 83.7292 357.722 83.6669L357.582 83.8081L357.722 83.6669C357.66 83.6046 357.575 83.5699 357.487 83.5699H246.513V83.5697L246.504 83.5701C246.42 83.5738 246.34 83.6088 246.279 83.6686L246.42 83.8104L246.279 83.6686C246.219 83.7284 246.183 83.8087 246.18 83.8937Z" fill="#2CB6BF" stroke="white" stroke-width="0.4"/>
<path d="M357.421 83.9699V158.58H246.579V83.9699H357.421Z" fill="white" stroke="white" stroke-width="0.4"/>
<path d="M223.202 166.872H380.817C380.794 167.743 380.611 168.604 380.274 169.411C379.914 170.273 379.387 171.057 378.722 171.717C378.057 172.377 377.267 172.901 376.398 173.259C375.529 173.616 374.598 173.8 373.657 173.8H230.362C229.42 173.799 228.488 173.614 227.618 173.255C226.748 172.896 225.958 172.371 225.293 171.709C224.627 171.047 224.1 170.261 223.741 169.397C223.408 168.594 223.225 167.738 223.202 166.872Z" fill="#2CB6BF" stroke="white" stroke-width="0.4"/>
<path d="M293.533 170.434H310.474C311.506 170.434 312.501 170.051 313.264 169.361C313.977 168.716 314.44 167.846 314.577 166.902L293.533 170.434ZM293.533 170.434C292.5 170.435 291.505 170.053 290.741 169.363C290.027 168.718 289.565 167.847 289.429 166.902L293.533 170.434ZM314.377 166.882C314.246 167.777 313.806 168.601 313.13 169.213C312.403 169.869 311.456 170.234 310.474 170.234C310.473 170.234 310.473 170.234 310.473 170.234H293.533L293.533 170.234C292.55 170.235 291.602 169.871 290.875 169.214C290.198 168.603 289.759 167.777 289.629 166.882L289.938 166.852C290.06 167.672 290.464 168.428 291.083 168.99C291.753 169.596 292.627 169.932 293.533 169.932C293.533 169.932 293.533 169.932 293.533 169.932H310.474L310.474 169.932C311.379 169.931 312.252 169.594 312.922 168.988C313.541 168.427 313.945 167.672 314.068 166.852L314.377 166.882ZM289.406 166.703L289.41 166.744C289.409 166.73 289.407 166.717 289.406 166.703Z" fill="white" stroke="white" stroke-width="0.4"/>
<path d="M246.579 166.819V166.517H357.421V166.819H246.579Z" fill="white" stroke="white" stroke-width="0.4"/>
<path d="M258.743 158.58V129.041H345.263V158.58H258.743Z" fill="#227EB0" stroke="white" stroke-width="0.4"/>
<path d="M262.399 128.641V124.387H341.601V128.641H262.399Z" fill="#2E5985" stroke="white" stroke-width="0.4"/>
<path d="M272.38 144.351C272.38 145.49 271.45 146.415 270.3 146.415C269.15 146.415 268.22 145.49 268.22 144.351C268.22 143.213 269.15 142.288 270.3 142.288C271.45 142.288 272.38 143.213 272.38 144.351Z" fill="white" stroke="white" stroke-width="0.4"/>
<path d="M280.904 146.769C280.421 146.769 279.95 146.627 279.55 146.361C279.149 146.095 278.837 145.718 278.652 145.276C278.468 144.834 278.42 144.348 278.514 143.88C278.608 143.411 278.84 142.98 279.18 142.642C279.521 142.304 279.955 142.073 280.428 141.98C280.901 141.887 281.391 141.934 281.837 142.118C282.282 142.301 282.663 142.611 282.93 143.009C283.198 143.406 283.34 143.873 283.34 144.351C283.339 144.991 283.082 145.605 282.625 146.058C282.169 146.512 281.55 146.767 280.904 146.769ZM280.904 142.242C280.487 142.242 280.079 142.364 279.732 142.595C279.385 142.825 279.114 143.152 278.954 143.536C278.794 143.919 278.752 144.341 278.834 144.748C278.915 145.155 279.117 145.529 279.412 145.822C279.707 146.115 280.083 146.314 280.492 146.395C280.901 146.476 281.326 146.435 281.711 146.276C282.097 146.117 282.426 145.849 282.658 145.504C282.89 145.159 283.014 144.754 283.014 144.339C283.014 143.782 282.792 143.248 282.396 142.855C282 142.462 281.463 142.242 280.904 142.242Z" fill="#2E5985" stroke="white" stroke-width="0.4"/>
<path d="M301.3 138.932V139.132H301.5H337.305H337.505V138.932V136.567V136.367H337.305H301.5H301.3V136.567V138.932ZM337.818 139.44H300.993V136.047H337.818V139.44Z" fill="#2E5985" stroke="white" stroke-width="0.4"/>
<path d="M301.3 145.534V145.734H301.5H337.305H337.505V145.534V143.175V142.975H337.305H301.5H301.3V143.175V145.534ZM337.818 146.035H300.993V142.642H337.818V146.035Z" fill="#2E5985" stroke="white" stroke-width="0.4"/>
<path d="M301.3 152.129V152.329H301.5H337.305H337.505V152.129V149.77V149.57H337.305H301.5H301.3V149.77V152.129ZM337.818 152.637H300.993V149.243H337.818V152.637Z" fill="#2E5985" stroke="white" stroke-width="0.4"/>
<path d="M258.743 123.987V94.4472H345.263V123.987H258.743Z" fill="#227EB0" stroke="white" stroke-width="0.4"/>
<path d="M262.399 94.0472V89.7935H341.601V94.0472H262.399Z" fill="#2E5985" stroke="white" stroke-width="0.4"/>
<path d="M272.38 109.758C272.38 110.896 271.45 111.821 270.3 111.821C269.15 111.821 268.22 110.896 268.22 109.758C268.22 108.619 269.15 107.694 270.3 107.694C271.45 107.694 272.38 108.619 272.38 109.758Z" fill="white" stroke="white" stroke-width="0.4"/>
<path d="M280.904 112.175C280.421 112.175 279.95 112.033 279.55 111.768C279.149 111.502 278.837 111.124 278.652 110.682C278.468 110.241 278.42 109.755 278.514 109.286C278.608 108.818 278.84 108.387 279.18 108.049C279.521 107.71 279.955 107.48 280.428 107.386C280.901 107.293 281.391 107.341 281.837 107.524C282.282 107.707 282.663 108.017 282.93 108.415C283.198 108.813 283.34 109.28 283.34 109.757C283.339 110.398 283.082 111.012 282.625 111.465C282.169 111.918 281.55 112.174 280.904 112.175ZM280.904 107.648C280.487 107.648 280.079 107.771 279.732 108.001C279.385 108.231 279.114 108.559 278.954 108.942C278.794 109.325 278.752 109.747 278.834 110.154C278.915 110.561 279.117 110.935 279.412 111.228C279.707 111.521 280.083 111.721 280.492 111.802C280.901 111.883 281.326 111.841 281.711 111.683C282.097 111.524 282.426 111.255 282.658 110.911C282.89 110.566 283.014 110.16 283.014 109.745C283.014 109.188 282.792 108.655 282.396 108.262C282 107.869 281.463 107.648 280.904 107.648Z" fill="#2E5985" stroke="white" stroke-width="0.4"/>
<path d="M301.3 104.32V104.52H301.5H337.305H337.505V104.32V101.98V101.78H337.305H301.5H301.3V101.98V104.32ZM337.818 104.847H300.993V101.453H337.818V104.847Z" fill="#2E5985" stroke="white" stroke-width="0.4"/>
<path d="M301.3 110.94V111.14H301.5H337.305H337.505V110.94V108.582V108.382H337.305H301.5H301.3V108.582V110.94ZM337.818 111.442H300.993V108.048H337.818V111.442Z" fill="#2E5985" stroke="white" stroke-width="0.4"/>
<path d="M301.3 117.535V117.735H301.5H337.305H337.505V117.535V115.177V114.977H337.305H301.5H301.3V115.177V117.535ZM337.818 118.031H300.993V114.637H337.818V118.031Z" fill="#2E5985" stroke="white" stroke-width="0.4"/>
<path d="M258.743 89.3935V59.8538H345.263V89.3935H258.743Z" fill="#227EB0" stroke="white" stroke-width="0.4"/>
<path d="M262.399 59.4538V55.2H341.601V59.4538H262.399Z" fill="#2E5985" stroke="white" stroke-width="0.4"/>
<path d="M272.38 75.1642C272.38 75.5721 272.258 75.9709 272.03 76.3102C271.801 76.6495 271.477 76.9142 271.096 77.0706C270.716 77.227 270.298 77.2679 269.894 77.1882C269.49 77.1084 269.12 76.9117 268.829 76.6229C268.538 76.3342 268.34 75.9666 268.26 75.5666C268.18 75.1665 268.221 74.7519 268.378 74.375C268.535 73.9981 268.802 73.6757 269.144 73.4487C269.486 73.2218 269.888 73.1006 270.3 73.1006C270.852 73.1006 271.381 73.3183 271.771 73.7055C272.161 74.0926 272.38 74.6174 272.38 75.1642Z" fill="white" stroke="white" stroke-width="0.4"/>
<path d="M281.104 73.0641V73.0357H280.904C280.487 73.0357 280.079 73.1585 279.732 73.3887C279.385 73.619 279.114 73.9464 278.954 74.3297C278.794 74.713 278.752 75.1349 278.834 75.542C278.915 75.949 279.117 76.3227 279.412 76.6159C279.707 76.909 280.083 77.1085 280.492 77.1893C280.901 77.2701 281.326 77.2286 281.711 77.0701C282.097 76.9116 282.426 76.643 282.658 76.2982C282.89 75.9533 283.014 75.5477 283.014 75.1326L283.014 75.1306C283.009 74.5777 282.784 74.0495 282.388 73.6609C282.041 73.3192 281.586 73.1097 281.104 73.0641ZM280.904 77.563C280.421 77.563 279.95 77.421 279.55 77.1552C279.149 76.8894 278.837 76.5117 278.652 76.07C278.468 75.6284 278.42 75.1426 278.514 74.6739C278.608 74.2051 278.84 73.7744 279.18 73.4362C279.521 73.0979 279.955 72.8674 280.428 72.774C280.901 72.6806 281.391 72.7286 281.837 72.9118C282.282 73.0949 282.663 73.405 282.93 73.8026C283.198 74.2001 283.34 74.6672 283.34 75.145C283.339 75.7853 283.082 76.3993 282.625 76.8525C282.169 77.3058 281.55 77.5614 280.904 77.563Z" fill="#2E5985" stroke="white" stroke-width="0.4"/>
<path d="M301.3 69.7454V69.9454H301.5H337.305H337.505V69.7454V67.3869V67.1869H337.305H301.5H301.3V67.3869V69.7454ZM337.818 70.2536H300.993V66.8597H337.818V70.2536Z" fill="#2E5985" stroke="white" stroke-width="0.4"/>
<path d="M301.3 76.3466V76.5466H301.5H337.305H337.505V76.3466V73.9692V73.7692H337.305H301.5H301.3V73.9692V76.3466ZM337.818 76.8485H300.993V73.4547H337.818V76.8485Z" fill="#2E5985" stroke="white" stroke-width="0.4"/>
<path d="M301.3 82.9416V83.1416H301.5H337.305H337.505V82.9416V80.5831V80.3831H337.305H301.5H301.3V80.5831V82.9416ZM337.818 83.4498H300.993V80.056H337.818V83.4498Z" fill="#2E5985" stroke="white" stroke-width="0.4"/>
</g>
<rect x="223" width="158" height="35" fill="#2CB6BF"/>
<path d="M261.006 21.168C259.569 21.168 258.365 20.692 257.394 19.74C256.433 18.788 255.952 17.5747 255.952 16.1C255.952 14.6347 256.433 13.426 257.394 12.474C258.355 11.5127 259.559 11.032 261.006 11.032C262.061 11.032 262.971 11.27 263.736 11.746V12.908C262.915 12.3667 262.009 12.096 261.02 12.096C259.919 12.096 258.99 12.4787 258.234 13.244C257.487 14 257.114 14.952 257.114 16.1C257.114 17.2667 257.487 18.228 258.234 18.984C258.99 19.7307 259.933 20.104 261.062 20.104C262.182 20.104 263.143 19.7867 263.946 19.152V20.314C263.153 20.8833 262.173 21.168 261.006 21.168ZM269.062 21.168C268.008 21.168 267.121 20.8367 266.402 20.174C265.684 19.502 265.324 18.648 265.324 17.612C265.324 16.5853 265.642 15.736 266.276 15.064C266.92 14.3827 267.756 14.042 268.782 14.042C269.314 14.042 269.79 14.154 270.21 14.378C270.64 14.5927 270.976 14.8773 271.218 15.232C271.461 15.5867 271.643 15.9647 271.764 16.366C271.895 16.7673 271.96 17.1733 271.96 17.584V17.892H266.458C266.533 18.592 266.822 19.1473 267.326 19.558C267.84 19.9687 268.493 20.174 269.286 20.174C270.07 20.174 270.798 19.964 271.47 19.544V20.524C270.901 20.9533 270.098 21.168 269.062 21.168ZM266.472 16.996H270.84C270.812 16.5013 270.621 16.0533 270.266 15.652C269.921 15.2413 269.408 15.036 268.726 15.036C268.073 15.036 267.541 15.232 267.13 15.624C266.729 16.0067 266.51 16.464 266.472 16.996ZM275.356 23.8H274.236V14.21H275.356V15.26C275.982 14.448 276.84 14.042 277.932 14.042C278.922 14.042 279.734 14.392 280.368 15.092C281.003 15.7827 281.32 16.618 281.32 17.598C281.32 18.5873 281.003 19.432 280.368 20.132C279.734 20.8227 278.922 21.168 277.932 21.168C276.822 21.168 275.963 20.762 275.356 19.95V23.8ZM275.356 16.506V18.718C275.552 19.1473 275.856 19.4973 276.266 19.768C276.677 20.0387 277.144 20.174 277.666 20.174C278.394 20.174 278.996 19.9267 279.472 19.432C279.948 18.9373 280.186 18.326 280.186 17.598C280.186 16.87 279.948 16.2633 279.472 15.778C278.996 15.2833 278.394 15.036 277.666 15.036C277.172 15.036 276.71 15.176 276.28 15.456C275.86 15.736 275.552 16.086 275.356 16.506ZM283.56 21V14.21H287.158C287.83 14.21 288.344 14.3687 288.698 14.686C289.053 15.0033 289.23 15.4233 289.23 15.946C289.23 16.674 288.946 17.1687 288.376 17.43C289.244 17.6913 289.678 18.27 289.678 19.166C289.678 19.7353 289.482 20.1833 289.09 20.51C288.698 20.8367 288.134 21 287.396 21H283.56ZM284.68 20.048H287.172C288.096 20.048 288.558 19.7073 288.558 19.026C288.558 18.326 288.096 17.976 287.172 17.976H284.68V20.048ZM284.68 17.066H286.864C287.266 17.066 287.578 16.9867 287.802 16.828C288.026 16.66 288.138 16.422 288.138 16.114C288.138 15.4793 287.714 15.162 286.864 15.162H284.68V17.066ZM294.902 21.168C293.848 21.168 292.961 20.8367 292.242 20.174C291.524 19.502 291.164 18.648 291.164 17.612C291.164 16.5853 291.482 15.736 292.116 15.064C292.76 14.3827 293.596 14.042 294.622 14.042C295.154 14.042 295.63 14.154 296.05 14.378C296.48 14.5927 296.816 14.8773 297.058 15.232C297.301 15.5867 297.483 15.9647 297.604 16.366C297.735 16.7673 297.8 17.1733 297.8 17.584V17.892H292.298C292.373 18.592 292.662 19.1473 293.166 19.558C293.68 19.9687 294.333 20.174 295.126 20.174C295.91 20.174 296.638 19.964 297.31 19.544V20.524C296.741 20.9533 295.938 21.168 294.902 21.168ZM292.312 16.996H296.68C296.652 16.5013 296.461 16.0533 296.106 15.652C295.761 15.2413 295.248 15.036 294.566 15.036C293.913 15.036 293.381 15.232 292.97 15.624C292.569 16.0067 292.35 16.464 292.312 16.996ZM301.196 23.8H300.076V14.21H301.196V15.26C301.821 14.448 302.68 14.042 303.772 14.042C304.761 14.042 305.573 14.392 306.208 15.092C306.843 15.7827 307.16 16.618 307.16 17.598C307.16 18.5873 306.843 19.432 306.208 20.132C305.573 20.8227 304.761 21.168 303.772 21.168C302.661 21.168 301.803 20.762 301.196 19.95V23.8ZM301.196 16.506V18.718C301.392 19.1473 301.695 19.4973 302.106 19.768C302.517 20.0387 302.983 20.174 303.506 20.174C304.234 20.174 304.836 19.9267 305.312 19.432C305.788 18.9373 306.026 18.326 306.026 17.598C306.026 16.87 305.788 16.2633 305.312 15.778C304.836 15.2833 304.234 15.036 303.506 15.036C303.011 15.036 302.549 15.176 302.12 15.456C301.7 15.736 301.392 16.086 301.196 16.506ZM317.498 21.168C316.061 21.168 314.857 20.692 313.886 19.74C312.925 18.788 312.444 17.5747 312.444 16.1C312.444 14.6347 312.925 13.426 313.886 12.474C314.848 11.5127 316.052 11.032 317.498 11.032C318.553 11.032 319.463 11.27 320.228 11.746V12.908C319.407 12.3667 318.502 12.096 317.512 12.096C316.411 12.096 315.482 12.4787 314.726 13.244C313.98 14 313.606 14.952 313.606 16.1C313.606 17.2667 313.98 18.228 314.726 18.984C315.482 19.7307 316.425 20.104 317.554 20.104C318.674 20.104 319.636 19.7867 320.438 19.152V20.314C319.645 20.8833 318.665 21.168 317.498 21.168ZM323.637 11.2V15.4L328.061 11.2H329.559L324.799 15.68L330.301 21H328.733L323.637 16.086V21H322.503V11.2H323.637ZM332.947 21.168C332.424 21.168 332.004 21.1027 331.687 20.972V19.908C331.986 20.0387 332.345 20.104 332.765 20.104C332.998 20.104 333.204 20.0667 333.381 19.992C333.568 19.908 333.74 19.7633 333.899 19.558C334.067 19.3433 334.198 19.1567 334.291 18.998C334.384 18.8393 334.524 18.5827 334.711 18.228L330.791 11.2H332.051L335.285 17.038L337.973 11.2H339.177L335.565 18.928C335.173 19.7493 334.762 20.328 334.333 20.664C333.913 21 333.451 21.168 332.947 21.168ZM338.65 23.17V19.964H339.588C340.166 19.1333 340.586 18.1627 340.848 17.052C341.118 15.932 341.254 14.3873 341.254 12.418V11.2H347.386V19.964H348.856V23.17H347.792V21H339.714V23.17H338.65ZM340.848 19.964H346.252V12.236H342.36C342.36 14.112 342.248 15.6613 342.024 16.884C341.809 18.0973 341.417 19.124 340.848 19.964Z" fill="white"/>
<path d="M166 128L175.75 121.938L175.75 134.062L166 128Z" fill="#2CB6BF"/>
<line x1="174" y1="128" x2="216" y2="128" stroke="#2CB6BF" stroke-width="2"/>
<path d="M216 103L206.25 109.062L206.25 96.9378L216 103Z" fill="#2CB6BF"/>
<line x1="208" y1="103" x2="166" y2="103" stroke="#2CB6BF" stroke-width="2"/>
<defs>
<clipPath id="clip0_139_3">
<rect width="158" height="119" fill="white" transform="translate(0 55)"/>
</clipPath>
<clipPath id="clip1_139_3">
<rect width="158" height="119" fill="white" transform="translate(223 55)"/>
</clipPath>
</defs>
</svg>
