<svg width="32" height="32" viewBox="0 0 32 32" fill="none" xmlns="http://www.w3.org/2000/svg">
<path d="M17.7778 22.2222C17.7778 23.2041 16.9818 24 16 24C15.0182 24 14.2222 23.2041 14.2222 22.2222C14.2222 21.2404 15.0182 20.4444 16 20.4444C16.9818 20.4444 17.7778 21.2404 17.7778 22.2222Z" fill="#2CB6BF"/>
<path d="M16 8C16.7364 8 17.3333 8.59695 17.3333 9.33333L17.3333 17.3333C17.3333 18.0697 16.7364 18.6667 16 18.6667C15.2636 18.6667 14.6667 18.0697 14.6667 17.3333L14.6667 9.33333C14.6667 8.59695 15.2636 8 16 8Z" fill="#2CB6BF"/>
<path fill-rule="evenodd" clip-rule="evenodd" d="M16 32C24.8366 32 32 24.8366 32 16C32 7.16344 24.8366 1.2811e-06 16 5.08584e-07C7.16344 -2.63932e-07 -1.64342e-06 7.16344 -2.41593e-06 16C-3.18845e-06 24.8366 7.16344 32 16 32ZM29.3333 16C29.3333 23.3638 23.3638 29.3333 16 29.3333C8.6362 29.3333 2.66667 23.3638 2.66667 16C2.66667 8.6362 8.6362 2.66667 16 2.66667C23.3638 2.66667 29.3333 8.6362 29.3333 16Z" fill="#2CB6BF"/>
</svg>
