<svg width="158" height="119" viewBox="0 0 158 119" fill="none" xmlns="http://www.w3.org/2000/svg">
<g clip-path="url(#clip0_76_2109)">
<path d="M15.6376 28.9027L15.6376 28.9025C15.636 26.8274 16.4643 24.8361 17.9409 23.3666C19.4176 21.897 21.4218 21.0694 23.5132 21.0661H134.487C135.523 21.0669 136.549 21.2703 137.505 21.6647C138.462 22.0591 139.331 22.6366 140.063 23.3644C140.795 24.0921 141.375 24.9558 141.771 25.906C142.166 26.8562 142.37 27.8745 142.369 28.9025V28.9027V103.647C142.367 105.722 141.537 107.711 140.059 109.178C138.581 110.645 136.577 111.47 134.487 111.472H23.5134C21.4241 111.468 19.4217 110.642 17.9453 109.175C16.469 107.709 15.6393 105.72 15.6376 103.647L15.6376 28.9027ZM23.1795 28.8937L23.1793 28.8937V28.9027V103.629C23.1793 103.717 23.2148 103.802 23.2776 103.864C23.3403 103.927 23.425 103.961 23.5131 103.961H134.487C134.575 103.961 134.66 103.927 134.722 103.864C134.785 103.802 134.821 103.717 134.821 103.629V28.9027C134.821 28.814 134.785 28.7292 134.722 28.6669C134.66 28.6046 134.575 28.5699 134.487 28.5699H23.5131V28.5697L23.5043 28.5701C23.4198 28.5738 23.3395 28.6088 23.2793 28.6686C23.2191 28.7284 23.1834 28.8087 23.1795 28.8937Z" fill="#2CB6BF" stroke="white" stroke-width="0.4"/>
<path d="M134.421 28.9699V103.58H23.5793V28.9699H134.421Z" fill="white" stroke="white" stroke-width="0.4"/>
<path d="M0.202474 111.872H157.817C157.794 112.743 157.611 113.604 157.274 114.411C156.914 115.273 156.387 116.057 155.722 116.717C155.057 117.377 154.267 117.901 153.398 118.259C152.529 118.616 151.598 118.8 150.657 118.8H7.36234C6.42023 118.799 5.48755 118.614 4.61763 118.255C3.7477 117.896 2.95763 117.371 2.29253 116.709C1.62743 116.047 1.10035 115.261 0.741325 114.397C0.407885 113.594 0.22547 112.738 0.202474 111.872Z" fill="#2CB6BF" stroke="white" stroke-width="0.4"/>
<path d="M91.3774 111.882C91.2461 112.777 90.8064 113.601 90.1298 114.213C89.4035 114.869 88.4563 115.234 87.4735 115.234C87.4735 115.234 87.4735 115.234 87.4735 115.234L70.5329 115.234L70.5326 115.234C69.5495 115.235 68.6017 114.871 67.8751 114.214C67.1981 113.603 66.7588 112.777 66.6287 111.882L66.9378 111.852C67.06 112.672 67.4636 113.428 68.0833 113.99C68.753 114.596 69.6268 114.932 70.5329 114.932C70.5329 114.932 70.5329 114.932 70.533 114.932L87.4735 114.932L87.4738 114.932C88.3793 114.931 89.2522 114.594 89.9215 113.988C90.541 113.427 90.9449 112.672 91.0683 111.852L91.3774 111.882Z" fill="white" stroke="white" stroke-width="0.4"/>
<path d="M23.5793 111.517H134.421V111.819H23.5793V111.517Z" fill="white" stroke="white" stroke-width="0.4"/>
<path d="M35.7435 74.0407H122.263V103.58H35.7435V74.0407Z" fill="#227EB0" stroke="white" stroke-width="0.4"/>
<path d="M39.3991 69.3869H118.601V73.6407H39.3991V69.3869Z" fill="#2E5985" stroke="white" stroke-width="0.4"/>
<path d="M49.38 89.3512C49.38 90.4896 48.4501 91.4148 47.3 91.4148C46.1499 91.4148 45.22 90.4896 45.22 89.3512C45.22 88.2128 46.1499 87.2875 47.3 87.2875C48.4501 87.2875 49.38 88.2128 49.38 89.3512Z" fill="white" stroke="white" stroke-width="0.4"/>
<path d="M57.9036 91.7689C57.4214 91.7689 56.9502 91.6269 56.5496 91.3611C56.1488 91.0953 55.8367 90.7176 55.6525 90.2759C55.4682 89.8343 55.4201 89.3485 55.514 88.8798C55.6079 88.411 55.8397 87.9803 56.1804 87.6421C56.521 87.3038 56.9553 87.0733 57.4282 86.9799C57.9011 86.8865 58.3913 86.9345 58.8368 87.1177C59.2822 87.3008 59.6626 87.6109 59.9302 88.0085C60.1977 88.406 60.3404 88.8731 60.3405 89.3509C60.3388 89.9912 60.0819 90.6052 59.6254 91.0584C59.1689 91.5117 58.5498 91.7673 57.9036 91.7689ZM57.9038 87.2416C57.4867 87.2416 57.0788 87.3644 56.7318 87.5946C56.3847 87.8249 56.114 88.1523 55.9541 88.5356C55.7942 88.9189 55.7523 89.3408 55.8338 89.7479C55.9154 90.1549 56.1166 90.5286 56.4119 90.8218C56.7072 91.1149 57.0832 91.3144 57.4923 91.3952C57.9015 91.476 58.3256 91.4346 58.711 91.276C59.0965 91.1175 59.4263 90.8489 59.6584 90.5041C59.8905 90.1592 60.0144 89.7536 60.0144 89.3385C60.0144 88.7819 59.7917 88.2484 59.3957 87.8553C58.9998 87.4622 58.4631 87.2416 57.9038 87.2416Z" fill="#2E5985" stroke="white" stroke-width="0.4"/>
<path d="M78.3001 83.9323V84.1323H78.5001H114.305H114.505V83.9323V81.5675V81.3675H114.305H78.5001H78.3001V81.5675V83.9323ZM114.818 84.4405H77.9931V81.0466H114.818V84.4405Z" fill="#2E5985" stroke="white" stroke-width="0.4"/>
<path d="M78.3001 90.5336V90.7336H78.5001H114.305H114.505V90.5336V88.1751V87.9751H114.305H78.5001H78.3001V88.1751V90.5336ZM114.818 91.0354H77.9931V87.6416H114.818V91.0354Z" fill="#2E5985" stroke="white" stroke-width="0.4"/>
<path d="M78.3001 97.1285V97.3285H78.5001H114.305H114.505V97.1285V94.77V94.57H114.305H78.5001H78.3001V94.77V97.1285ZM114.818 97.6367H77.9931V94.2429H114.818V97.6367Z" fill="#2E5985" stroke="white" stroke-width="0.4"/>
<path d="M35.7435 39.4472H122.263V68.9869H35.7435V39.4472Z" fill="#227EB0" stroke="white" stroke-width="0.4"/>
<path d="M39.3991 34.7935H118.601V39.0472H39.3991V34.7935Z" fill="#2E5985" stroke="white" stroke-width="0.4"/>
<path d="M49.38 54.7577C49.38 55.8961 48.4501 56.8214 47.3 56.8214C46.1499 56.8214 45.22 55.8961 45.22 54.7577C45.22 53.6193 46.1499 52.694 47.3 52.694C48.4501 52.694 49.38 53.6193 49.38 54.7577Z" fill="white" stroke="white" stroke-width="0.4"/>
<path d="M57.9036 57.1754C57.4214 57.1754 56.9502 57.0334 56.5496 56.7676C56.1488 56.5018 55.8367 56.1241 55.6525 55.6825C55.4682 55.2409 55.4201 54.755 55.514 54.2863C55.6079 53.8176 55.8397 53.3868 56.1804 53.0486C56.521 52.7104 56.9553 52.4799 57.4282 52.3865C57.9011 52.2931 58.3913 52.341 58.8368 52.5242C59.2822 52.7074 59.6626 53.0174 59.9302 53.415C60.1977 53.8125 60.3404 54.2797 60.3405 54.7574C60.3388 55.3978 60.0819 56.0117 59.6254 56.465C59.1689 56.9182 58.5498 57.1739 57.9036 57.1754ZM57.9038 52.6481C57.4867 52.6481 57.0788 52.7709 56.7318 53.0012C56.3847 53.2314 56.114 53.5588 55.9541 53.9421C55.7942 54.3255 55.7523 54.7474 55.8338 55.1544C55.9154 55.5615 56.1166 55.9351 56.4119 56.2283C56.7072 56.5215 57.0832 56.7209 57.4923 56.8017C57.9015 56.8825 58.3256 56.8411 58.711 56.6825C59.0965 56.524 59.4263 56.2554 59.6584 55.9106C59.8905 55.5657 60.0144 55.1601 60.0144 54.7451C60.0144 54.1885 59.7917 53.6549 59.3957 53.2618C58.9998 52.8687 58.4631 52.6481 57.9038 52.6481Z" fill="#2E5985" stroke="white" stroke-width="0.4"/>
<path d="M78.3001 49.3199V49.5199H78.5001H114.305H114.505V49.3199V46.9804V46.7804H114.305H78.5001H78.3001V46.9804V49.3199ZM114.818 49.847H77.9931V46.4532H114.818V49.847Z" fill="#2E5985" stroke="white" stroke-width="0.4"/>
<path d="M78.3001 55.9401V56.1401H78.5001H114.305H114.505V55.9401V53.5816V53.3816H114.305H78.5001H78.3001V53.5816V55.9401ZM114.818 56.442H77.9931V53.0481H114.818V56.442Z" fill="#2E5985" stroke="white" stroke-width="0.4"/>
<path d="M78.3001 62.5351V62.7351H78.5001H114.305H114.505V62.5351V60.1766V59.9766H114.305H78.5001H78.3001V60.1766V62.5351ZM114.818 63.0306H77.9931V59.6368H114.818V63.0306Z" fill="#2E5985" stroke="white" stroke-width="0.4"/>
<path d="M35.7435 4.85378H122.263V34.3935H35.7435V4.85378Z" fill="#227EB0" stroke="white" stroke-width="0.4"/>
<path d="M39.3991 0.2H118.601V4.45377H39.3991V0.2Z" fill="#2E5985" stroke="white" stroke-width="0.4"/>
<path d="M49.38 20.1642C49.38 20.5721 49.2582 20.9709 49.0298 21.3102C48.8014 21.6495 48.4767 21.9142 48.0965 22.0706C47.7162 22.227 47.2977 22.2679 46.894 22.1882C46.4902 22.1084 46.1195 21.9117 45.8287 21.6229C45.538 21.3342 45.3401 20.9666 45.2599 20.5666C45.1798 20.1665 45.2209 19.7519 45.3782 19.375C45.5354 18.9981 45.8018 18.6757 46.1439 18.4487C46.486 18.2218 46.8883 18.1006 47.3 18.1006C47.8521 18.1006 48.3813 18.3183 48.7713 18.7055C49.1612 19.0926 49.38 19.6174 49.38 20.1642Z" fill="white" stroke="white" stroke-width="0.4"/>
<path d="M58.1038 18.0641V18.0357H57.9038C57.4867 18.0357 57.0788 18.1585 56.7318 18.3887C56.3847 18.619 56.114 18.9464 55.9541 19.3297C55.7942 19.713 55.7523 20.1349 55.8338 20.542C55.9154 20.949 56.1166 21.3227 56.4119 21.6159C56.7072 21.909 57.0832 22.1085 57.4923 22.1893C57.9015 22.2701 58.3256 22.2287 58.711 22.0701C59.0965 21.9116 59.4263 21.643 59.6584 21.2982C59.8905 20.9533 60.0144 20.5477 60.0144 20.1326L60.0144 20.1306C60.0088 19.5777 59.7837 19.0495 59.3883 18.6609C59.0407 18.3192 58.5862 18.1097 58.1038 18.0641ZM57.9037 22.563C57.4215 22.563 56.9503 22.421 56.5496 22.1552C56.1488 21.8894 55.8367 21.5117 55.6525 21.07C55.4682 20.6284 55.4201 20.1426 55.514 19.6739C55.6079 19.2051 55.8397 18.7744 56.1804 18.4362C56.521 18.0979 56.9553 17.8674 57.4282 17.774C57.9011 17.6806 58.3913 17.7286 58.8368 17.9118C59.2822 18.0949 59.6626 18.405 59.9302 18.8026C60.1977 19.2001 60.3404 19.6672 60.3405 20.145C60.3388 20.7853 60.0819 21.3993 59.6254 21.8525C59.1689 22.3058 58.5499 22.5614 57.9037 22.563Z" fill="#2E5985" stroke="white" stroke-width="0.4"/>
<path d="M78.3001 14.7454V14.9454H78.5001H114.305H114.505V14.7454V12.3869V12.1869H114.305H78.5001H78.3001V12.3869V14.7454ZM114.818 15.2536H77.9931V11.8597H114.818V15.2536Z" fill="#2E5985" stroke="white" stroke-width="0.4"/>
<path d="M78.3001 21.3466V21.5466H78.5001H114.305H114.505V21.3466V18.9692V18.7692H114.305H78.5001H78.3001V18.9692V21.3466ZM114.818 21.8485H77.9931V18.4547H114.818V21.8485Z" fill="#2E5985" stroke="white" stroke-width="0.4"/>
<path d="M78.3001 27.9416V28.1416H78.5001H114.305H114.505V27.9416V25.5831V25.3831H114.305H78.5001H78.3001V25.5831V27.9416ZM114.818 28.4498H77.9931V25.056H114.818V28.4498Z" fill="#2E5985" stroke="white" stroke-width="0.4"/>
</g>
<defs>
<clipPath id="clip0_76_2109">
<rect width="158" height="119" fill="white"/>
</clipPath>
</defs>
</svg>
