<svg width="203" height="166" viewBox="0 0 203 166" fill="none" xmlns="http://www.w3.org/2000/svg">
<g clip-path="url(#clip0_76_2061)">
<path d="M44.74 28.14H89.05V60.9831L44.74 110.08V28.14Z" fill="#E0EEEF" stroke="white" stroke-width="0.4"/>
<path d="M43.0953 115.495C42.3529 116.238 41.3637 116.677 40.32 116.734V21.7861C41.3637 21.8426 42.3529 22.2823 43.0953 23.0247C43.8852 23.8146 44.3323 24.8837 44.34 26.0007V112.519C44.3323 113.636 43.8852 114.705 43.0953 115.495Z" fill="#2E5985" stroke="white" stroke-width="0.4"/>
<path d="M90.3199 23.8999C90.8296 23.3903 91.5054 23.085 92.22 23.0368V23.0538L92.4238 23.05C92.818 23.0425 93.2098 23.1131 93.5767 23.2577C93.9435 23.4023 94.2781 23.618 94.5612 23.8924C94.8444 24.1668 95.0704 24.4946 95.2264 24.8567C95.3822 25.2184 95.465 25.6074 95.47 26.0013V68.81C95.47 69.62 95.1489 70.3969 94.5771 70.9705C94.0059 71.5434 93.2311 71.8668 92.4221 71.87C91.6257 71.8497 90.8688 71.5185 90.3134 70.9473C89.7572 70.3754 89.4473 69.6084 89.45 68.8107V68.81V26C89.45 25.2123 89.7629 24.4569 90.3199 23.8999Z" fill="#2CB6BF" stroke="white" stroke-width="0.4"/>
<path d="M5.54 151.78V6.21001H39.92V151.78H5.54Z" fill="#2CB6BF" stroke="white" stroke-width="0.4"/>
<path d="M43.7316 164.874C43.4407 164.992 43.1303 165.055 42.8165 165.06L42.7767 165.03H42.71L2.71074 165.03C2.71065 165.03 2.71056 165.03 2.71048 165.03C2.37806 165.029 2.04917 164.962 1.74276 164.833C1.43627 164.704 1.15832 164.516 0.924932 164.279C0.691544 164.042 0.507334 163.761 0.382915 163.453C0.258497 163.145 0.196331 162.815 0.200001 162.482L0.200013 162.482V162.48V154.722C0.212547 154.052 0.486043 153.414 0.962292 152.943C1.4388 152.471 2.08056 152.205 2.75073 152.2H42.7493C43.4242 152.205 44.0701 152.475 44.5473 152.953C45.0245 153.43 45.2949 154.076 45.3 154.75L45.3 162.51L45.3 162.512C45.3037 162.848 45.2404 163.181 45.1137 163.492C44.9869 163.802 44.7994 164.085 44.5621 164.322C44.3248 164.559 44.0424 164.747 43.7316 164.874Z" fill="#2E5985" stroke="white" stroke-width="0.4"/>
<path d="M42.0058 5.8001L42.0058 5.80001H42H3.42001V5.79993L3.41421 5.8001C3.29849 5.80345 3.1833 5.78314 3.07571 5.74039C2.96812 5.69764 2.87039 5.63336 2.78853 5.5515C2.70666 5.46963 2.64239 5.37191 2.59964 5.26432C2.55689 5.15673 2.53657 5.04154 2.53993 4.92581L2.54001 4.92582V4.92001V1.08001H2.54009L2.53993 1.07422C2.53657 0.958492 2.55689 0.843302 2.59964 0.735711C2.64239 0.62812 2.70666 0.530396 2.78853 0.448532C2.87039 0.366668 2.96812 0.302391 3.07571 0.259642C3.1833 0.216893 3.29849 0.196574 3.41421 0.19993L3.41421 0.200014H3.42001H42V0.200098L42.0058 0.19993C42.1215 0.196574 42.2367 0.216893 42.3443 0.259642C42.4519 0.302392 42.5496 0.366669 42.6315 0.448531C42.7134 0.530396 42.7776 0.62812 42.8204 0.73571C42.8631 0.843305 42.8835 0.958496 42.8801 1.07422L42.88 1.07421V1.08001V4.92001H42.8799L42.8801 4.92581C42.8835 5.04153 42.8631 5.15672 42.8204 5.26432C42.7776 5.37191 42.7134 5.46963 42.6315 5.5515C42.5496 5.63336 42.4519 5.69764 42.3443 5.74039C42.2367 5.78314 42.1215 5.80345 42.0058 5.8001Z" fill="#2CB6BF" stroke="white" stroke-width="0.4"/>
<path d="M5.54 10.15V6.21001H39.92V10.15H5.54Z" fill="#237EB0" stroke="white" stroke-width="0.4"/>
<path d="M113.8 60.9831V28.14H158.11V110.08L113.8 60.9831Z" fill="#E0EEEF" stroke="white" stroke-width="0.4"/>
<path d="M159.755 23.0247C160.497 22.2823 161.486 21.8426 162.53 21.7861V116.734C161.486 116.677 160.497 116.238 159.755 115.495C158.965 114.705 158.518 113.636 158.51 112.519V26.0007C158.518 24.8837 158.965 23.8146 159.755 23.0247Z" fill="#2E5985" stroke="white" stroke-width="0.4"/>
<path d="M113.6 26V68.81C113.605 69.6607 113.276 70.4795 112.683 71.0895C112.09 71.6994 111.281 72.0516 110.43 72.07C109.567 72.0673 108.74 71.7227 108.131 71.1116C107.522 70.5005 107.18 69.6728 107.18 68.81L113.6 26ZM113.6 26C113.601 25.5833 113.52 25.1705 113.361 24.7853C113.203 24.4001 112.969 24.0501 112.674 23.7555C112.38 23.4609 112.03 23.2274 111.645 23.0686C111.321 22.9352 110.978 22.8567 110.63 22.8357L113.6 26ZM110.426 23.0499L110.63 23.0538V23.0361C110.952 23.0568 111.269 23.1301 111.568 23.2535C111.929 23.4023 112.257 23.6209 112.533 23.8969C112.809 24.1729 113.028 24.5007 113.176 24.8615C113.325 25.2224 113.401 25.609 113.4 25.9993V26L113.4 68.81L113.4 68.8113C113.405 69.6095 113.096 70.3777 112.54 70.95C111.984 71.5218 111.225 71.8521 110.428 71.87C109.619 71.8668 108.844 71.5434 108.273 70.9704C107.701 70.3968 107.38 69.6199 107.38 68.81V26.0012C107.385 25.6074 107.468 25.2184 107.624 24.8566C107.78 24.4945 108.006 24.1668 108.289 23.8924C108.572 23.618 108.907 23.4023 109.273 23.2577C109.64 23.1131 110.032 23.0425 110.426 23.0499Z" fill="#2CB6BF" stroke="white" stroke-width="0.4"/>
<path d="M162.93 151.78V6.21001H197.31V151.78H162.93Z" fill="#2CB6BF" stroke="white" stroke-width="0.4"/>
<path d="M160.15 165.03H159.95V165.055C159.681 165.038 159.416 164.978 159.165 164.876C158.853 164.75 158.569 164.563 158.331 164.325C158.093 164.088 157.904 163.805 157.777 163.494C157.65 163.182 157.586 162.849 157.59 162.512H157.59V162.51V154.751C157.598 154.075 157.87 153.429 158.349 152.952C158.828 152.475 159.475 152.205 160.151 152.2H200.099C200.769 152.205 201.411 152.471 201.888 152.943C202.364 153.414 202.637 154.052 202.65 154.722L202.65 162.48L202.65 162.482C202.654 162.818 202.59 163.151 202.464 163.462C202.337 163.772 202.149 164.055 201.912 164.292C201.675 164.529 201.392 164.717 201.082 164.844C200.771 164.97 200.438 165.034 200.102 165.03H200.1H160.15Z" fill="#2E5985" stroke="white" stroke-width="0.4"/>
<path d="M160.81 5.79999V5.7999L160.804 5.80007C160.688 5.80343 160.573 5.78311 160.466 5.74036C160.358 5.69761 160.26 5.63333 160.179 5.55147C160.097 5.4696 160.032 5.37188 159.99 5.26429C159.947 5.1567 159.927 5.04151 159.93 4.92578L159.93 4.92579V4.91999V1.07999H159.93L159.93 1.07419C159.927 0.958463 159.947 0.843273 159.99 0.735683C160.032 0.628094 160.097 0.530369 160.179 0.448504C160.26 0.366641 160.358 0.302363 160.466 0.259614C160.573 0.216865 160.688 0.196546 160.804 0.199902L160.804 0.199986H160.81H199.43V0.200135L199.438 0.199838C199.554 0.19535 199.67 0.214833 199.779 0.257076C199.887 0.299318 199.986 0.363419 200.069 0.445403C200.151 0.527384 200.216 0.625497 200.26 0.733654C200.303 0.841808 200.324 0.957694 200.32 1.07412L200.32 1.07412V1.07999V4.90999H200.32L200.32 4.91573C200.323 5.03278 200.303 5.14928 200.26 5.25809C200.216 5.3669 200.151 5.46574 200.069 5.54853C199.986 5.63133 199.887 5.69635 199.778 5.7396C199.669 5.78286 199.553 5.80343 199.436 5.80007L199.436 5.79999H199.43H160.81Z" fill="#2CB6BF" stroke="white" stroke-width="0.4"/>
<path d="M162.93 10.15V6.21001H197.31V10.15H162.93Z" fill="#237EB0" stroke="white" stroke-width="0.4"/>
<path d="M5.54 151.78V6.21001H16.48V151.78H5.54Z" fill="#237EB0" stroke="white" stroke-width="0.4"/>
<path d="M162.93 151.78V6.21001H173.87V151.78H162.93Z" fill="#237EB0" stroke="white" stroke-width="0.4"/>
</g>
<defs>
<clipPath id="clip0_76_2061">
<rect width="202.85" height="165.23" fill="white"/>
</clipPath>
</defs>
</svg>
