<svg width="174" height="208" viewBox="0 0 174 208" fill="none" xmlns="http://www.w3.org/2000/svg">
<g clip-path="url(#clip0_76_2013)">
<path d="M0.2 207.51V0.2H172.86V207.51H0.2Z" fill="#757496" stroke="white" stroke-width="0.4"/>
<path d="M0.2 207.51V0.2H172.86V207.51H0.2Z" fill="#2E5985" stroke="white" stroke-width="0.4"/>
<path d="M61.07 23.18V3.37999H112.7V23.18H61.07Z" fill="#2CB6BF" stroke="white" stroke-width="0.4"/>
<path d="M118.62 23.18V3.37999H170.25V23.18H118.62Z" fill="#2CB6BF" stroke="white" stroke-width="0.4"/>
<path d="M3.52001 23.18V3.37999H55.15V23.18H3.52001Z" fill="#2CB6BF" stroke="white" stroke-width="0.4"/>
<path d="M118.62 203.21V183.41H170.25V203.21H118.62Z" fill="#2CB6BF" stroke="white" stroke-width="0.4"/>
<path d="M61.07 203.21V183.41H112.7V203.21H61.07Z" fill="#2CB6BF" stroke="white" stroke-width="0.4"/>
<path d="M3.52001 203.21V183.41H55.15V203.21H3.52001Z" fill="#2CB6BF" stroke="white" stroke-width="0.4"/>
<path d="M61.07 48.9V29.1H112.7V48.9H61.07Z" fill="#2CB6BF" stroke="white" stroke-width="0.4"/>
<path d="M118.62 48.9V29.1H170.25V48.9H118.62Z" fill="#2CB6BF" stroke="white" stroke-width="0.4"/>
<path d="M3.52001 48.9V29.1H55.15V48.9H3.52001Z" fill="#2CB6BF" stroke="white" stroke-width="0.4"/>
<path d="M118.62 177.51V157.7H170.25V177.51H118.62Z" fill="#2CB6BF" stroke="white" stroke-width="0.4"/>
<path d="M61.07 177.51V157.7H112.7V177.51H61.07Z" fill="#2CB6BF" stroke="white" stroke-width="0.4"/>
<path d="M3.52001 177.5V157.7H55.15V177.5H3.52001Z" fill="#2CB6BF" stroke="white" stroke-width="0.4"/>
<path d="M118.62 74.62V54.82H170.25V74.62H118.62Z" fill="#2CB6BF" stroke="white" stroke-width="0.4"/>
<path d="M3.52001 74.62V54.82H55.15V74.62H3.52001Z" fill="#2CB6BF" stroke="white" stroke-width="0.4"/>
<path d="M118.62 151.78V131.98H170.25V151.78H118.62Z" fill="#2CB6BF" stroke="white" stroke-width="0.4"/>
<path d="M61.07 151.78V131.98H112.7V151.78H61.07Z" fill="#2CB6BF" stroke="white" stroke-width="0.4"/>
<path d="M118.62 100.34V80.54H170.25V100.34H118.62Z" fill="#2CB6BF" stroke="white" stroke-width="0.4"/>
<path d="M61.07 126.06V106.25H112.7V126.06H61.07Z" fill="#2CB6BF" stroke="white" stroke-width="0.4"/>
<path d="M118.62 126.06V106.26H170.25V126.06H118.62Z" fill="#2CB6BF" stroke="white" stroke-width="0.4"/>
<path d="M3.52001 100.34V80.54H55.15V100.34H3.52001Z" fill="#2CB6BF" stroke="white" stroke-width="0.4"/>
<path d="M3.52001 126.06V106.25H55.15V126.06H3.52001Z" fill="#2CB6BF" stroke="white" stroke-width="0.4"/>
<path d="M3.52001 151.78V131.98H55.15V151.78H3.52001Z" fill="#2CB6BF" stroke="white" stroke-width="0.4"/>
<path d="M161.06 194.73V191.9H170.24V194.73H161.06Z" fill="#227EB0" stroke="white" stroke-width="0.4"/>
<path d="M161.06 169.01V166.18H170.24V169.01H161.06Z" fill="#227EB0" stroke="white" stroke-width="0.4"/>
<path d="M161.06 143.3V140.47H170.24V143.3H161.06Z" fill="#227EB0" stroke="white" stroke-width="0.4"/>
<path d="M161.06 117.57V114.74H170.24V117.57H161.06Z" fill="#227EB0" stroke="white" stroke-width="0.4"/>
<path d="M161.06 91.86V89.03H170.24V91.86H161.06Z" fill="#227EB0" stroke="white" stroke-width="0.4"/>
<path d="M161.06 66.13V63.31H170.24V66.13H161.06Z" fill="#227EB0" stroke="white" stroke-width="0.4"/>
<path d="M161.06 40.41V37.59H170.24V40.41H161.06Z" fill="#227EB0" stroke="white" stroke-width="0.4"/>
<path d="M161.06 14.69V11.87H170.24V14.69H161.06Z" fill="#227EB0" stroke="white" stroke-width="0.4"/>
<path d="M103.8 194.73V191.9H112.98V194.73H103.8Z" fill="#227EB0" stroke="white" stroke-width="0.4"/>
<path d="M46.25 194.73V191.9H55.43V194.73H46.25Z" fill="#227EB0" stroke="white" stroke-width="0.4"/>
<path d="M103.8 169.02V166.18H112.98V169.02H103.8Z" fill="#227EB0" stroke="white" stroke-width="0.4"/>
<path d="M46.25 169.01V166.18H55.43V169.01H46.25Z" fill="#227EB0" stroke="white" stroke-width="0.4"/>
<path d="M103.8 143.3V140.47H112.98V143.3H103.8Z" fill="#227EB0" stroke="white" stroke-width="0.4"/>
<path d="M46.25 143.3V140.47H55.43V143.3H46.25Z" fill="#227EB0" stroke="white" stroke-width="0.4"/>
<path d="M103.8 117.57V114.75H112.98V117.57H103.8Z" fill="#227EB0" stroke="white" stroke-width="0.4"/>
<path d="M46.25 117.57V114.74H55.43V117.57H46.25Z" fill="#227EB0" stroke="white" stroke-width="0.4"/>
<path d="M46.25 91.86V89.03H55.43V91.86H46.25Z" fill="#227EB0" stroke="white" stroke-width="0.4"/>
<mask id="path-42-inside-1_76_2013" fill="white">
<path d="M66.11 88.83V63.11H108.23V88.83"/>
</mask>
<path d="M66.11 88.83V63.11H108.23V88.83" fill="white"/>
<path d="M66.11 63.11V62.71H65.71V63.11H66.11ZM108.23 63.11H108.63V62.71H108.23V63.11ZM66.51 88.83V63.11H65.71V88.83H66.51ZM66.11 63.51H108.23V62.71H66.11V63.51ZM107.83 63.11V88.83H108.63V63.11H107.83Z" fill="white" mask="url(#path-42-inside-1_76_2013)"/>
<path d="M46.25 66.13V63.31H55.43V66.13H46.25Z" fill="#227EB0" stroke="white" stroke-width="0.4"/>
<path d="M103.8 40.41V37.59H112.98V40.41H103.8Z" fill="#227EB0" stroke="white" stroke-width="0.4"/>
<path d="M46.25 40.41V37.59H55.43V40.41H46.25Z" fill="#227EB0" stroke="white" stroke-width="0.4"/>
<path d="M103.8 14.69V11.87H112.98V14.69H103.8Z" fill="#227EB0" stroke="white" stroke-width="0.4"/>
<path d="M46.25 14.69V11.87H55.43V14.69H46.25Z" fill="#227EB0" stroke="white" stroke-width="0.4"/>
</g>
<defs>
<clipPath id="clip0_76_2013">
<rect width="173.06" height="207.71" fill="white"/>
</clipPath>
</defs>
</svg>
