<svg width="56" height="56" viewBox="0 0 56 56" fill="none" xmlns="http://www.w3.org/2000/svg">
<g clip-path="url(#clip0_76_3411)">
<path d="M28 7.28369V14.356" stroke="#2D5883" stroke-width="1.64063" stroke-miterlimit="10" stroke-linecap="round" stroke-linejoin="round"/>
<path d="M7.28369 28H14.356" stroke="#2D5883" stroke-width="1.64063" stroke-miterlimit="10" stroke-linecap="round" stroke-linejoin="round"/>
<path d="M38.1267 21.9955H45.8507C46.7567 21.9955 47.4913 21.2609 47.4913 20.3549V15.8074" stroke="#2D5883" stroke-width="1.64063" stroke-miterlimit="10" stroke-linecap="round" stroke-linejoin="round"/>
<path d="M40.7968 34.0046H37.8849" stroke="#2D5883" stroke-width="1.64063" stroke-miterlimit="10" stroke-linecap="round" stroke-linejoin="round"/>
<path d="M47.4913 40.1929V35.6453C47.4913 34.7392 46.7567 34.0046 45.8507 34.0046H44.625" stroke="#2D5883" stroke-width="1.64063" stroke-miterlimit="10" stroke-linecap="round" stroke-linejoin="round"/>
<path d="M17.8733 21.9955H10.1494C9.24329 21.9955 8.50873 21.2609 8.50873 20.3549V15.8074" stroke="#2D5883" stroke-width="1.64063" stroke-miterlimit="10" stroke-linecap="round" stroke-linejoin="round"/>
<path d="M17.8733 34.0046H10.1494C9.24329 34.0046 8.50873 34.7392 8.50873 35.6453V40.1929" stroke="#2D5883" stroke-width="1.64063" stroke-miterlimit="10" stroke-linecap="round" stroke-linejoin="round"/>
<path d="M52.7958 10.3472L49.6865 8.93604C49.0418 9.31316 48.2922 9.53016 47.4914 9.53016C46.6907 9.53016 45.941 9.31305 45.2964 8.93604L42.1871 10.3472C41.341 10.7312 40.7977 11.5744 40.7977 12.5035V14.8598C40.7977 15.3829 41.2217 15.807 41.7449 15.807H53.238C53.7611 15.807 54.1852 15.3829 54.1852 14.8598V12.5035C54.1851 11.5745 53.6418 10.7312 52.7958 10.3472Z" stroke="#2D5883" stroke-width="1.64063" stroke-miterlimit="10" stroke-linecap="round" stroke-linejoin="round"/>
<path d="M43.5371 6.99989C44.2275 8.49341 45.7378 9.53028 47.4913 9.53028C49.8966 9.53028 51.8464 7.58045 51.8464 5.1753C51.8464 2.77014 49.8966 0.820312 47.4913 0.820312C45.8088 0.820312 44.3501 1.77505 43.6248 3.17187" stroke="#2D5883" stroke-width="1.64063" stroke-miterlimit="10" stroke-linecap="round" stroke-linejoin="round"/>
<path d="M13.8131 10.3472L10.7038 8.93604C10.0591 9.31316 9.30947 9.53016 8.50874 9.53016C7.70801 9.53016 6.95835 9.31305 6.31369 8.93604L3.20427 10.3472C2.35826 10.7311 1.81488 11.5744 1.81488 12.5034V14.8597C1.81488 15.3828 2.23893 15.8069 2.76207 15.8069H14.2552C14.7783 15.8069 15.2024 15.3828 15.2024 14.8597V12.5034C15.2025 11.5745 14.6591 10.7312 13.8131 10.3472Z" stroke="#2D5883" stroke-width="1.64063" stroke-miterlimit="10" stroke-linecap="round" stroke-linejoin="round"/>
<path d="M8.50873 9.53028C10.9139 9.53028 12.8637 7.58049 12.8637 5.1753C12.8637 2.77011 10.9139 0.820312 8.50873 0.820312C6.10354 0.820312 4.15375 2.77011 4.15375 5.1753C4.15375 7.58049 6.10354 9.53028 8.50873 9.53028Z" stroke="#2D5883" stroke-width="1.64063" stroke-miterlimit="10" stroke-linecap="round" stroke-linejoin="round"/>
<path d="M41.6439 29.3507V26.6493C41.6439 25.9273 41.0587 25.342 40.3367 25.342H39.6629C39.0987 25.342 38.6041 24.9779 38.4221 24.4438C38.2702 23.9977 38.0905 23.5645 37.8848 23.1462C37.6357 22.6393 37.7272 22.0316 38.1266 21.6322L38.6027 21.1561C39.1131 20.6457 39.1131 19.8179 38.6027 19.3075L36.6924 17.3972C36.182 16.8868 35.3542 16.8868 34.8438 17.3972L34.3677 17.8733C33.9682 18.2728 33.3605 18.3642 32.8536 18.1151C32.4353 17.9095 32.0021 17.7298 31.556 17.5778C31.0219 17.3959 30.6578 16.9012 30.6578 16.337V15.6632C30.6578 14.9412 30.0725 14.356 29.3505 14.356H26.6491C25.9271 14.356 25.3418 14.9412 25.3418 15.6632V16.337C25.3418 16.9012 24.9777 17.3958 24.4436 17.5778C23.9975 17.7297 23.5643 17.9094 23.1459 18.1151C22.6389 18.3642 22.0313 18.2727 21.6319 17.8733L21.1558 17.3972C20.6454 16.8868 19.8176 16.8868 19.3072 17.3972L17.3969 19.3075C16.8864 19.8179 16.8865 20.6457 17.3969 21.1561L17.873 21.6322C18.2725 22.0317 18.3639 22.6394 18.1148 23.1463C17.9091 23.5646 17.7295 23.9979 17.5775 24.4439C17.3956 24.978 16.9009 25.3421 16.3367 25.3421H15.6629C14.9409 25.3421 14.3557 25.9274 14.3557 26.6494V29.3508C14.3557 30.0728 14.9409 30.6581 15.6629 30.6581H16.3367C16.9009 30.6581 17.3955 31.0222 17.5775 31.5563C17.7295 32.0024 17.9092 32.4356 18.1148 32.8539C18.3639 33.3608 18.2725 33.9685 17.873 34.368L17.3969 34.8441C16.8864 35.3545 16.8864 36.1823 17.3969 36.6927L19.3072 38.603C19.8176 39.1134 20.6454 39.1134 21.1558 38.603L21.6319 38.1269C22.0314 37.7274 22.6389 37.636 23.1459 37.8851C23.5643 38.0907 23.9975 38.2704 24.4436 38.4224C24.9777 38.6043 25.3418 39.099 25.3418 39.6633V40.337C25.3418 41.059 25.9271 41.6442 26.6491 41.6442H29.3505C30.0725 41.6442 30.6578 41.059 30.6578 40.337V39.6633C30.6578 39.099 31.0219 38.6044 31.556 38.4224C32.0021 38.2704 32.4353 38.0907 32.8537 37.8851C33.3607 37.636 33.9683 37.7274 34.3678 38.1269L34.8439 38.603C35.3543 39.1134 36.1821 39.1134 36.6925 38.603L38.6028 36.6927C39.1132 36.1823 39.1132 35.3545 38.6028 34.8441L38.1267 34.368C37.7272 33.9685 37.6358 33.3608 37.8849 32.8539C38.0905 32.4356 38.2702 32.0024 38.4222 31.5563C38.6041 31.0222 39.0988 30.6581 39.6631 30.6581H40.3368C41.0587 30.6579 41.6439 30.0726 41.6439 29.3507Z" stroke="#2D5883" stroke-width="1.64063" stroke-miterlimit="10" stroke-linecap="round" stroke-linejoin="round"/>
<path d="M32.4253 23.3953C32.5022 23.726 32.5441 24.07 32.5441 24.4238C32.5441 26.9294 30.5056 28.9679 28 28.9679C25.4944 28.9679 23.4559 26.9294 23.4559 24.4238C23.4559 24.0701 23.4979 23.7261 23.5747 23.3954C22.3643 24.559 21.6089 26.1924 21.6089 28C21.6089 31.5241 24.4759 34.3911 28 34.3911C31.5242 34.3911 34.3911 31.524 34.3911 28C34.3912 26.1923 33.6357 24.5589 32.4253 23.3953Z" stroke="#2D5883" stroke-width="1.64063" stroke-miterlimit="10"/>
<path d="M23.4321 23.5361C22.3053 24.6891 21.6089 26.2643 21.6089 27.9999C21.6089 31.5241 24.4759 34.3911 28 34.3911C31.5242 34.3911 34.3911 31.524 34.3911 27.9999C34.3911 26.2643 33.6947 24.6891 32.5679 23.5361" stroke="#2D5883" stroke-width="1.64063" stroke-miterlimit="10" stroke-linecap="round" stroke-linejoin="round"/>
<path d="M26.5173 23.3918V24.2102" stroke="#2D5883" stroke-width="1.64063" stroke-miterlimit="10" stroke-linecap="round" stroke-linejoin="round"/>
<path d="M29.4827 23.3918V24.2102" stroke="#2D5883" stroke-width="1.64063" stroke-miterlimit="10" stroke-linecap="round" stroke-linejoin="round"/>
<path d="M33.6303 31.0214L30.9149 28.0503C30.1172 28.6924 29.1038 29.0774 28 29.0774C26.8962 29.0774 25.8828 28.6923 25.085 28.0503L22.3697 31.0214" stroke="#2D5883" stroke-width="1.64063" stroke-miterlimit="10" stroke-linecap="round" stroke-linejoin="round"/>
<path d="M28 29.0772C30.57 29.0772 32.6534 26.9938 32.6534 24.4237C32.6534 21.8537 30.57 19.7703 28 19.7703C25.4299 19.7703 23.3465 21.8537 23.3465 24.4237C23.3465 26.9938 25.4299 29.0772 28 29.0772Z" stroke="#2D5883" stroke-width="1.64063" stroke-miterlimit="10" stroke-linecap="round" stroke-linejoin="round"/>
<path d="M30.6608 52.0925C31.0146 50.6243 30.1112 49.1473 28.6431 48.7934C27.1749 48.4396 25.6979 49.343 25.344 50.8111C24.9902 52.2793 25.8936 53.7563 27.3617 54.1101C28.8299 54.464 30.3069 53.5606 30.6608 52.0925Z" stroke="#2D5883" stroke-width="1.64063" stroke-miterlimit="10" stroke-linecap="round" stroke-linejoin="round"/>
<path d="M30.6595 5.18938C31.0134 3.7212 30.11 2.24418 28.6418 1.89035C27.1737 1.53652 25.6966 2.43988 25.3428 3.90805C24.989 5.37622 25.8923 6.85324 27.3605 7.20707C28.8287 7.5609 30.3057 6.65755 30.6595 5.18938Z" stroke="#2D5883" stroke-width="1.64063" stroke-miterlimit="10" stroke-linecap="round" stroke-linejoin="round"/>
<path d="M54.1116 28.6403C54.4654 27.1721 53.5621 25.6951 52.0939 25.3413C50.6258 24.9875 49.1487 25.8908 48.7949 27.359C48.4411 28.8271 49.3444 30.3042 50.8126 30.658C52.2808 31.0118 53.7578 30.1085 54.1116 28.6403Z" stroke="#2D5883" stroke-width="1.64063" stroke-miterlimit="10" stroke-linecap="round" stroke-linejoin="round"/>
<path d="M7.2086 28.6418C7.56243 27.1736 6.65908 25.6966 5.19091 25.3427C3.72274 24.9889 2.24571 25.8923 1.89188 27.3604C1.53806 28.8286 2.44141 30.3056 3.90958 30.6595C5.37775 31.0133 6.85477 30.1099 7.2086 28.6418Z" stroke="#2D5883" stroke-width="1.64063" stroke-miterlimit="10" stroke-linecap="round" stroke-linejoin="round"/>
<path d="M52.7958 49.72L49.6865 48.3088C49.0418 48.686 48.2922 48.903 47.4914 48.903C46.6907 48.903 45.941 48.6859 45.2964 48.3088L42.1871 49.72C41.341 50.104 40.7977 50.9472 40.7977 51.8763V54.2326C40.7977 54.7557 41.2217 55.1798 41.7449 55.1798H53.238C53.7611 55.1798 54.1852 54.7557 54.1852 54.2326V51.8763C54.1851 50.9472 53.6418 50.104 52.7958 49.72Z" stroke="#2D5883" stroke-width="1.64063" stroke-miterlimit="10" stroke-linecap="round" stroke-linejoin="round"/>
<path d="M47.4913 48.9028C49.8965 48.9028 51.8463 46.953 51.8463 44.5479C51.8463 42.1427 49.8965 40.1929 47.4913 40.1929C45.0861 40.1929 43.1363 42.1427 43.1363 44.5479C43.1363 46.953 45.0861 48.9028 47.4913 48.9028Z" stroke="#2D5883" stroke-width="1.64063" stroke-miterlimit="10" stroke-linecap="round" stroke-linejoin="round"/>
<path d="M8.42185 55.1798H14.2553C14.7784 55.1798 15.2024 54.7557 15.2024 54.2326V51.8763C15.2024 50.9473 14.6592 50.104 13.8131 49.72L10.7037 48.3088C10.0591 48.686 9.30943 48.903 8.50869 48.903C7.70796 48.903 6.9583 48.6859 6.31364 48.3088L3.20433 49.72C2.35832 50.104 1.81494 50.9472 1.81494 51.8763V54.2326C1.81494 54.7557 2.23899 55.1798 2.76213 55.1798H4.59372" stroke="#2D5883" stroke-width="1.64063" stroke-miterlimit="10" stroke-linecap="round" stroke-linejoin="round"/>
<path d="M8.50873 48.9028C10.9139 48.9028 12.8637 46.953 12.8637 44.5479C12.8637 42.1427 10.9139 40.1929 8.50873 40.1929C6.10354 40.1929 4.15375 42.1427 4.15375 44.5479C4.15375 46.953 6.10354 48.9028 8.50873 48.9028Z" stroke="#2D5883" stroke-width="1.64063" stroke-miterlimit="10" stroke-linecap="round" stroke-linejoin="round"/>
<path d="M28 41.644V48.7163" stroke="#2D5883" stroke-width="1.64063" stroke-miterlimit="10" stroke-linecap="round" stroke-linejoin="round"/>
<path d="M41.644 28H48.7163" stroke="#2D5883" stroke-width="1.64063" stroke-miterlimit="10" stroke-linecap="round" stroke-linejoin="round"/>
</g>
<defs>
<clipPath id="clip0_76_3411">
<rect width="56" height="56" fill="white"/>
</clipPath>
</defs>
</svg>
