<svg width="56" height="56" viewBox="0 0 56 56" fill="none" xmlns="http://www.w3.org/2000/svg">
<g clip-path="url(#clip0_76_3513)">
<path d="M8.70625 28.4068L11.6284 27.0177L13.6853 27.8697L14.7695 30.9182C14.83 31.0884 14.9416 31.2356 15.0891 31.3397C15.2366 31.4439 15.4127 31.4999 15.5933 31.5H19.4067C19.5874 31.5 19.7636 31.4441 19.9112 31.3399C20.0588 31.2357 20.1706 31.0884 20.2311 30.9182L21.3152 27.8697L23.3721 27.0177L26.2943 28.4068C26.4575 28.4842 26.6407 28.5093 26.8187 28.4786C26.9968 28.4479 27.1609 28.3629 27.2887 28.2352L29.9852 25.5391C30.1129 25.4113 30.198 25.2471 30.2288 25.0691C30.2595 24.891 30.2343 24.7078 30.1568 24.5446L28.7677 21.6225L29.6197 19.5655L32.6682 18.4814C32.8385 18.4209 32.9858 18.3091 33.09 18.1614C33.1942 18.0137 33.2501 17.8374 33.25 17.6567V13.8433C33.25 13.6626 33.1941 13.4864 33.0899 13.3388C32.9857 13.1912 32.8384 13.0794 32.6682 13.0189L29.6197 11.9348L28.7677 9.87787L30.1568 6.9557C30.2344 6.79247 30.2596 6.6092 30.2289 6.43108C30.1981 6.25295 30.113 6.08872 29.9852 5.96094L27.2891 3.26484C27.1613 3.13706 26.9971 3.05197 26.8191 3.02124C26.641 2.99051 26.4578 3.01566 26.2946 3.09323L23.3725 4.4823L21.3155 3.63027L20.2311 0.581766C20.1706 0.411558 20.0588 0.264262 19.9112 0.160098C19.7636 0.0559339 19.5874 8.79346e-06 19.4067 0L15.5933 0C15.4126 8.79346e-06 15.2364 0.0559339 15.0888 0.160098C14.9412 0.264262 14.8294 0.411558 14.7689 0.581766L13.6848 3.63027L11.6279 4.4823L8.70625 3.09323C8.54296 3.01546 8.35957 2.9902 8.18133 3.02094C8.00309 3.05167 7.83876 3.13688 7.71094 3.26484L5.01484 5.96094C4.88688 6.08876 4.80167 6.25309 4.77094 6.43133C4.7402 6.60957 4.76546 6.79296 4.84323 6.95625L6.2323 9.87842L5.38027 11.9353L2.33177 13.0189C2.16156 13.0794 2.01426 13.1912 1.9101 13.3388C1.80593 13.4864 1.75001 13.6626 1.75 13.8433V17.6567C1.75001 17.8374 1.80593 18.0136 1.9101 18.1612C2.01426 18.3088 2.16156 18.4206 2.33177 18.4811L5.38027 19.5652L6.2323 21.6221L4.84323 24.5443C4.76559 24.7075 4.7404 24.8908 4.77113 25.0689C4.80185 25.247 4.88699 25.4113 5.01484 25.5391L7.71094 28.2352C7.83881 28.363 8.00314 28.4482 8.18136 28.4789C8.35958 28.5096 8.54293 28.4844 8.70625 28.4068ZM7.99794 21.3117L6.84819 18.5362C6.80133 18.4231 6.73124 18.3211 6.64246 18.2368C6.55368 18.1525 6.44819 18.0878 6.33281 18.0469L3.5 17.0392V14.4608L6.33281 13.4531C6.44817 13.4121 6.55363 13.3474 6.64237 13.263C6.73112 13.1787 6.80116 13.0767 6.84797 12.9636L7.99794 10.1883C8.04487 10.0751 8.06751 9.95336 8.0644 9.8309C8.06129 9.70843 8.0325 9.58798 7.97989 9.47734L6.68927 6.76167L8.51211 4.93894L11.2278 6.22956C11.3384 6.28222 11.4589 6.31104 11.5813 6.31415C11.7038 6.31726 11.8256 6.29459 11.9387 6.24761L14.7142 5.09786C14.8272 5.05099 14.9291 4.98093 15.0133 4.89221C15.0975 4.80349 15.1622 4.69809 15.2031 4.58281L16.2108 1.75H18.7892L19.7969 4.58281C19.8379 4.69817 19.9026 4.80363 19.987 4.89237C20.0713 4.98112 20.1733 5.05116 20.2864 5.09797L23.0617 6.24794C23.1749 6.29492 23.2966 6.31759 23.4191 6.31448C23.5416 6.31137 23.662 6.28255 23.7727 6.22989L26.4883 4.93927L28.3115 6.76244L27.0209 9.47811C26.9683 9.58874 26.9395 9.70919 26.9364 9.83166C26.9333 9.95413 26.9559 10.0759 27.0028 10.189L28.1526 12.9645C28.1994 13.0774 28.2695 13.1792 28.3581 13.2634C28.4467 13.3475 28.552 13.4122 28.6672 13.4531L31.5 14.4606V17.039L28.6672 18.0469C28.5518 18.0879 28.4464 18.1526 28.3576 18.237C28.2689 18.3213 28.1988 18.4233 28.152 18.5364L27.0021 21.3117C26.9551 21.4249 26.9325 21.5466 26.9356 21.6691C26.9387 21.7916 26.9675 21.912 27.0201 22.0227L28.3107 24.7383L26.4876 26.5615L23.7719 25.2709C23.6613 25.2182 23.5408 25.1894 23.4183 25.1863C23.2959 25.1832 23.1741 25.2058 23.061 25.2528L20.2855 26.4026C20.1726 26.4494 20.0708 26.5195 19.9866 26.6081C19.9025 26.6967 19.8378 26.802 19.7969 26.9172L18.7892 29.75H16.2108L15.2031 26.9172C15.1621 26.8018 15.0974 26.6964 15.013 26.6076C14.9287 26.5189 14.8267 26.4488 14.7136 26.402L11.9383 25.2521C11.8251 25.2051 11.7034 25.1824 11.5809 25.1855C11.4584 25.1886 11.338 25.2174 11.2273 25.2701L8.51167 26.5607L6.68894 24.7379L7.97956 22.0222C8.03216 21.9117 8.06097 21.7913 8.06414 21.6689C8.0673 21.5465 8.04475 21.4248 7.99794 21.3117Z" fill="#2D5883"/>
<path d="M17.5 23.625C19.0575 23.625 20.5801 23.1631 21.8751 22.2978C23.1702 21.4325 24.1795 20.2026 24.7756 18.7636C25.3716 17.3247 25.5275 15.7413 25.2237 14.2137C24.9198 12.6861 24.1698 11.2829 23.0685 10.1815C21.9671 9.0802 20.5639 8.33018 19.0363 8.02632C17.5087 7.72246 15.9253 7.87841 14.4864 8.47445C13.0474 9.07049 11.8175 10.0799 10.9522 11.3749C10.0869 12.6699 9.625 14.1925 9.625 15.75C9.62734 17.8379 10.4578 19.8395 11.9341 21.3159C13.4105 22.7922 15.4121 23.6227 17.5 23.625ZM17.5 9.625C18.7114 9.625 19.8956 9.98423 20.9029 10.6573C21.9101 11.3303 22.6952 12.2869 23.1588 13.4061C23.6223 14.5253 23.7436 15.7568 23.5073 16.9449C23.271 18.1331 22.6876 19.2244 21.831 20.081C20.9744 20.9376 19.8831 21.521 18.6949 21.7573C17.5068 21.9936 16.2753 21.8724 15.1561 21.4088C14.0369 20.9452 13.0803 20.1601 12.4072 19.1529C11.7342 18.1456 11.375 16.9614 11.375 15.75C11.3768 14.1261 12.0227 12.5693 13.171 11.421C14.3193 10.2727 15.8761 9.62683 17.5 9.625Z" fill="#2D5883"/>
<path d="M34.4312 42.1611L33.2817 44.9366C33.2348 45.0498 33.2121 45.1715 33.2153 45.294C33.2184 45.4165 33.2472 45.5369 33.2998 45.6475L34.5904 48.3632L32.7672 50.1864L30.0515 48.8958C29.9409 48.8432 29.8205 48.8144 29.698 48.8113C29.5755 48.8081 29.4538 48.8308 29.3406 48.8777L26.5661 50.0267C26.453 50.0735 26.3509 50.1436 26.2666 50.2323C26.1822 50.3211 26.1175 50.4265 26.0764 50.5419L25.0688 53.3749H22.4907L21.4831 50.5421C21.4421 50.4267 21.3774 50.3213 21.293 50.2325C21.2087 50.1438 21.1067 50.0737 20.9935 50.0269L18.218 48.8772C18.1049 48.8302 17.9831 48.8075 17.8607 48.8106C17.7382 48.8137 17.6177 48.8426 17.5071 48.8952L14.7914 50.1858L12.9683 48.3627L14.2589 45.647C14.3115 45.5364 14.3403 45.4159 14.3434 45.2934C14.3465 45.171 14.3239 45.0492 14.2769 44.9361L13.1274 42.1606C13.0805 42.0477 13.0106 41.9459 12.9219 41.8617C12.8333 41.7775 12.728 41.7128 12.6129 41.6718L9.78009 40.6644V38.0857L12.6129 37.0782C12.7283 37.0372 12.8337 36.9725 12.9225 36.8881C13.0112 36.8038 13.0813 36.7018 13.1282 36.5887L14.2777 33.8132C14.3246 33.7 14.3473 33.5783 14.3442 33.4558C14.3411 33.3333 14.3123 33.2129 14.2597 33.1022L12.7036 29.8289L11.1234 30.5811L12.5125 33.5033L11.6606 35.5602L8.61208 36.6442C8.44185 36.7048 8.29454 36.8165 8.19038 36.9642C8.08621 37.1118 8.0303 37.288 8.03031 37.4687V41.2822C8.0303 41.4628 8.08621 41.6391 8.19038 41.7867C8.29454 41.9343 8.44185 42.0461 8.61208 42.1066L11.6606 43.1907L12.5125 45.2476L11.1234 48.1697C11.0459 48.3329 11.0207 48.5161 11.0515 48.6942C11.0822 48.8723 11.1674 49.0364 11.2952 49.1642L13.9912 51.86C14.119 51.9878 14.2832 52.0729 14.4612 52.1036C14.6392 52.1343 14.8224 52.1092 14.9856 52.0317L17.9077 50.6426L19.964 51.4946L21.0482 54.5431C21.1088 54.7134 21.2206 54.8608 21.3683 54.9649C21.516 55.0691 21.6924 55.125 21.8731 55.1249H25.6866C25.8673 55.1249 26.0435 55.069 26.1912 54.9648C26.3388 54.8607 26.4505 54.7133 26.5111 54.5431L27.5951 51.4946L29.652 50.6426L32.5741 52.0317C32.7372 52.1092 32.9204 52.1343 33.0985 52.1036C33.2765 52.0729 33.4406 51.9878 33.5684 51.86L36.2649 49.164C36.3927 49.0362 36.4778 48.872 36.5086 48.694C36.5393 48.5159 36.5142 48.3327 36.4366 48.1695L35.0476 45.2473L36.0484 42.8311L34.4312 42.1611Z" fill="#2D5883"/>
<path d="M36.2649 29.586L33.5684 26.8899C33.4406 26.7621 33.2765 26.677 33.0985 26.6463C32.9204 26.6156 32.7372 26.6407 32.5741 26.7183L29.3008 28.2743L30.0521 29.8549L32.7678 28.5643L34.5909 30.3875L33.3003 33.1031C33.2477 33.2138 33.2189 33.3342 33.2158 33.4567C33.2127 33.5791 33.2353 33.7009 33.2823 33.8141L34.275 36.2107L35.8916 35.5409L35.0479 33.5037L36.437 30.5815C36.5147 30.4181 36.54 30.2347 36.5091 30.0564C36.4783 29.8781 36.393 29.7137 36.2649 29.586Z" fill="#2D5883"/>
<path d="M23.7799 47.25C25.3374 47.25 26.86 46.7881 28.155 45.9228C29.45 45.0575 30.4594 43.8276 31.0554 42.3886C31.6515 40.9497 31.8074 39.3663 31.5036 37.8387C31.1997 36.3111 30.4497 34.9079 29.3483 33.8065C28.247 32.7052 26.8438 31.9552 25.3162 31.6513C23.7886 31.3475 22.2052 31.5034 20.7662 32.0995C19.3273 32.6955 18.0974 33.7048 17.2321 34.9999C16.3667 36.2949 15.9049 37.8175 15.9049 39.375C15.9072 41.4629 16.7377 43.4645 18.214 44.9409C19.6903 46.4172 21.692 47.2477 23.7799 47.25ZM23.7799 33.25C24.9913 33.25 26.1755 33.6092 27.1827 34.2823C28.19 34.9553 28.9751 35.9119 29.4386 37.0311C29.9022 38.1503 30.0235 39.3818 29.7872 40.5699C29.5509 41.7581 28.9675 42.8494 28.1109 43.706C27.2543 44.5626 26.1629 45.146 24.9748 45.3823C23.7867 45.6186 22.5551 45.4974 21.4359 45.0338C20.3167 44.5702 19.3601 43.7851 18.6871 42.7779C18.0141 41.7706 17.6549 40.5864 17.6549 39.375C17.6567 37.7511 18.3026 36.1943 19.4509 35.046C20.5991 33.8977 22.156 33.2518 23.7799 33.25Z" fill="#2D5883"/>
<path d="M53.6682 15.6439L50.6197 14.5598L49.7677 12.5029L51.1568 9.5807C51.2344 9.41747 51.2596 9.2342 51.2289 9.05608C51.1981 8.87795 51.113 8.71372 50.9852 8.58594L48.2891 5.88984C48.1613 5.76206 47.9971 5.67697 47.8191 5.64624C47.641 5.61551 47.4578 5.64066 47.2946 5.71823L44.3725 7.1073L42.3155 6.25527L41.2315 3.20677C41.171 3.03649 41.0592 2.88914 40.9115 2.78497C40.7638 2.6808 40.5875 2.62492 40.4067 2.625H36.5933C36.4126 2.62499 36.2363 2.6809 36.0887 2.78507C35.9411 2.88923 35.8293 3.03654 35.7688 3.20677L34.6848 6.25527L32.2686 7.25627L32.9383 8.87294L35.7138 7.72319C35.8269 7.67629 35.9288 7.60619 36.0131 7.51742C36.0974 7.42864 36.1621 7.32317 36.2031 7.20781L37.2105 4.375H39.7889L40.7969 7.20781C40.8379 7.32317 40.9026 7.42863 40.987 7.51737C41.0713 7.60612 41.1733 7.67616 41.2864 7.72297L44.0617 8.87294C44.1749 8.91987 44.2966 8.94251 44.4191 8.9394C44.5416 8.93629 44.662 8.9075 44.7727 8.85489L47.4883 7.56427L49.3115 9.38744L48.0209 12.1031C47.9683 12.2137 47.9395 12.3342 47.9364 12.4567C47.9333 12.5791 47.9559 12.7009 48.0028 12.814L49.1526 15.5895C49.1995 15.7024 49.2695 15.8042 49.3581 15.8883C49.4468 15.9725 49.552 16.0371 49.6672 16.0781L52.5 17.0855V19.6639L49.6672 20.6719C49.5518 20.7129 49.4464 20.7777 49.3577 20.862C49.2689 20.9464 49.1989 21.0484 49.152 21.1615L48.0021 23.9367C47.9551 24.0499 47.9325 24.1716 47.9356 24.2941C47.9387 24.4166 47.9675 24.537 48.0201 24.6477L49.3107 27.3633L47.0509 29.6231L48.2891 30.8602L50.9852 28.1641C51.1129 28.0363 51.198 27.8721 51.2288 27.6941C51.2595 27.516 51.2343 27.3328 51.1568 27.1696L49.7677 24.2475L50.6197 22.1905L53.6682 21.1065C53.8385 21.046 53.9859 20.9342 54.09 20.7865C54.1942 20.6388 54.2501 20.4625 54.25 20.2817V16.4683C54.25 16.2876 54.1941 16.1114 54.0899 15.9638C53.9857 15.8162 53.8384 15.7044 53.6682 15.6439Z" fill="#2D5883"/>
<path d="M38.5 24.5001C37.2789 24.5036 36.0848 24.1406 35.0722 23.4581C34.0596 22.7757 33.275 21.8051 32.8199 20.672L31.1977 21.3282C31.7993 22.8153 32.8407 24.0831 34.1826 24.9622C35.5245 25.8412 37.1028 26.2895 38.7064 26.247C40.31 26.2045 41.8624 25.6733 43.1558 24.7245C44.4493 23.7757 45.4221 22.4544 45.9442 20.9376C46.4662 19.4208 46.5126 17.7807 46.0771 16.2368C45.6416 14.6929 44.745 13.3188 43.5072 12.2984C42.2694 11.278 40.7495 10.6599 39.1509 10.5269C37.5523 10.3939 35.9511 10.7522 34.5617 11.554L35.4383 13.0688C36.252 12.5997 37.1626 12.324 38.0999 12.263C39.0371 12.202 39.9758 12.3574 40.8434 12.7172C41.711 13.0769 42.4843 13.6314 43.1034 14.3377C43.7225 15.044 44.1709 15.8832 44.4139 16.7904C44.6569 17.6977 44.688 18.6487 44.5048 19.5699C44.3216 20.491 43.929 21.3578 43.3573 22.103C42.7857 22.8482 42.0503 23.452 41.208 23.8677C40.3658 24.2833 39.4392 24.4997 38.5 24.5001Z" fill="#2D5883"/>
<path d="M48.4252 33.25H45.5V29.75C45.5 29.0538 45.2234 28.3861 44.7312 27.8938C44.2389 27.4016 43.5712 27.125 42.875 27.125C42.1788 27.125 41.5111 27.4016 41.0188 27.8938C40.5266 28.3861 40.25 29.0538 40.25 29.75V37.2626L39.6624 36.6749C39.1502 36.1626 38.4555 35.8749 37.7311 35.8749C37.0068 35.8749 36.3121 36.1626 35.7999 36.6749C35.2876 37.1871 34.9999 37.8818 34.9999 38.6061C34.9999 39.3305 35.2876 40.0252 35.7999 40.5374L40.25 44.9874V46.375H39.375C39.1429 46.375 38.9204 46.4672 38.7563 46.6313C38.5922 46.7954 38.5 47.0179 38.5 47.25V55.125H40.25V48.125H50.75V55.125H52.5V47.25C52.5 47.0179 52.4078 46.7954 52.2437 46.6313C52.0796 46.4672 51.8571 46.375 51.625 46.375H50.75V44.9874L52.5438 43.1936C53.3584 42.379 53.9132 41.3412 54.1379 40.2113C54.3627 39.0814 54.2474 37.9102 53.8066 36.8458C53.3657 35.7815 52.6192 34.8718 51.6613 34.2317C50.7034 33.5917 49.5773 33.25 48.4252 33.25ZM51.3065 41.9563L49.2563 44.0065C49.0922 44.1705 49.0001 44.393 49 44.625V46.375H42V44.625C42 44.5101 41.9774 44.3963 41.9334 44.2901C41.8894 44.184 41.825 44.0875 41.7437 44.0063L37.0374 39.2999C36.945 39.2091 36.8715 39.1008 36.8211 38.9815C36.7707 38.8621 36.7445 38.7339 36.7439 38.6044C36.7434 38.4748 36.7685 38.3464 36.8178 38.2266C36.8671 38.1068 36.9397 37.9979 37.0313 37.9063C37.1229 37.8147 37.2318 37.7421 37.3516 37.6928C37.4714 37.6435 37.5998 37.6184 37.7294 37.6189C37.8589 37.6195 37.9871 37.6457 38.1065 37.6961C38.2258 37.7465 38.3341 37.82 38.4249 37.9124L40.5063 39.9937C40.6286 40.1161 40.7846 40.1995 40.9543 40.2332C41.124 40.267 41.3 40.2497 41.4599 40.1834C41.6197 40.1172 41.7564 40.005 41.8525 39.8611C41.9487 39.7172 42 39.5481 42 39.375V29.75C42 29.5179 42.0922 29.2954 42.2563 29.1313C42.4204 28.9672 42.6429 28.875 42.875 28.875C43.1071 28.875 43.3296 28.9672 43.4937 29.1313C43.6578 29.2954 43.75 29.5179 43.75 29.75V34.125C43.75 34.3571 43.8422 34.5796 44.0063 34.7437C44.1704 34.9078 44.3929 35 44.625 35H48.4252C49.2312 35 50.019 35.2389 50.6892 35.6867C51.3593 36.1344 51.8816 36.7709 52.19 37.5155C52.4984 38.2601 52.5791 39.0794 52.4218 39.8699C52.2646 40.6603 51.8764 41.3864 51.3065 41.9563Z" fill="#2D5883"/>
<path d="M47.25 49.875H49V51.625H47.25V49.875Z" fill="#2D5883"/>
</g>
<defs>
<clipPath id="clip0_76_3513">
<rect width="56" height="56" fill="white"/>
</clipPath>
</defs>
</svg>
