<svg width="57" height="57" viewBox="0 0 57 57" fill="none" xmlns="http://www.w3.org/2000/svg">
<g clip-path="url(#clip0_76_3526)">
<mask id="mask0_76_3526" style="mask-type:luminance" maskUnits="userSpaceOnUse" x="0" y="0" width="57" height="57">
<path d="M-3.05176e-05 7.62939e-06H57V57H-3.05176e-05V7.62939e-06Z" fill="white"/>
</mask>
<g mask="url(#mask0_76_3526)">
<path d="M36.3054 26.8467L28.8047 34.3475C27.9475 35.2045 26.558 35.2045 25.7009 34.3475L20.6314 29.2779C19.7744 28.4209 19.7744 27.0313 20.6314 26.1742C21.4885 25.3172 22.8781 25.3172 23.7351 26.1742L27.2528 29.6919L33.2017 23.743C34.0587 22.8859 35.4483 22.8859 36.3054 23.743C37.1624 24.6 37.1624 25.9896 36.3054 26.8467Z" stroke="#2D5883" stroke-width="1.66992" stroke-miterlimit="10" stroke-linecap="round" stroke-linejoin="round"/>
<path d="M30.4482 13.7842C37.7251 14.7383 43.3431 20.9628 43.3431 28.5C43.3431 36.6975 36.6976 43.343 28.5 43.343C20.3023 43.343 13.6568 36.6975 13.6568 28.5C13.6568 20.9628 19.2749 14.7383 26.5517 13.7842M56.165 26.5518V25.6787C56.165 24.795 55.4486 24.0786 54.5649 24.0786H50.9068C50.1799 24.0786 49.5518 23.5852 49.3632 22.8833C48.8721 21.055 48.1468 19.3228 47.2219 17.7201C46.8583 17.0901 46.9567 16.296 47.4712 15.7815L50.057 13.1956C50.6819 12.5707 50.6819 11.5576 50.057 10.9328L46.0672 6.94287C45.4423 6.3181 44.4291 6.3181 43.8042 6.94287L41.2184 9.5288C40.704 10.0431 39.9099 10.1417 39.2798 9.77806C37.6772 8.85315 35.9449 8.12785 34.1167 7.63678C33.4147 7.44819 32.9214 6.82007 32.9214 6.09321V2.43509C32.9214 1.55136 32.205 0.834965 31.3212 0.834965H25.6787C24.795 0.834965 24.0786 1.55136 24.0786 2.43509V6.09321C24.0786 6.82007 23.5853 7.44819 22.8832 7.63678C21.055 8.12785 19.3227 8.85315 17.7202 9.77806C17.0901 10.1417 16.296 10.0431 15.7815 9.5288L13.1957 6.94287C12.5708 6.3181 11.5576 6.3181 10.9327 6.94287L6.94295 10.9328C6.31806 11.5576 6.31806 12.5707 6.94295 13.1956L9.52877 15.7815C10.0432 16.296 10.1416 17.0901 9.77803 17.7201C8.85311 19.3228 8.12781 21.055 7.63674 22.8833C7.44815 23.5852 6.82004 24.0786 6.09318 24.0786H2.43505C1.55133 24.0786 0.83493 24.795 0.83493 25.6787V31.3212C0.83493 32.2049 1.55133 32.9213 2.43505 32.9213H6.09318C6.82004 32.9213 7.44815 33.4147 7.63674 34.1167C8.12781 35.945 8.85311 37.6772 9.77803 39.2798C10.1416 39.9098 10.0432 40.704 9.52877 41.2185L6.94295 43.8043C6.31806 44.4292 6.31806 45.4424 6.94295 46.0671L10.9327 50.057C11.5576 50.6819 12.5708 50.6819 13.1957 50.057L15.7815 47.4712C16.296 46.9568 17.0901 46.8582 17.7202 47.2219C19.3227 48.1469 21.055 48.872 22.8832 49.3631C23.5853 49.5517 24.0786 50.1798 24.0786 50.9067V54.5649C24.0786 55.4486 24.795 56.165 25.6787 56.165H31.3212C32.205 56.165 32.9214 55.4486 32.9214 54.5649V50.9067C32.9214 50.1798 33.4147 49.5517 34.1167 49.3631C35.9449 48.872 37.6772 48.1469 39.2798 47.2219C39.9099 46.8582 40.704 46.9568 41.2184 47.4711L43.8042 50.057C44.4291 50.6819 45.4423 50.6819 46.0672 50.057L50.057 46.0671C50.6819 45.4424 50.6819 44.4292 50.057 43.8043L47.4712 41.2185C46.9567 40.704 46.8583 39.9098 47.2219 39.2798C48.1468 37.6772 48.8721 35.945 49.3632 34.1167C49.5518 33.4147 50.1799 32.9213 50.9068 32.9213H54.5649C55.4486 32.9213 56.165 32.2049 56.165 31.3212V30.4482" stroke="#2D5883" stroke-width="1.66992" stroke-miterlimit="10" stroke-linecap="round" stroke-linejoin="round"/>
</g>
</g>
<defs>
<clipPath id="clip0_76_3526">
<rect width="57" height="57" fill="white"/>
</clipPath>
</defs>
</svg>
